<?xml version="1.0" encoding="utf-8"?>
<!-- Generator: Adobe Illustrator 19.0.0, SVG Export Plug-In . SVG Version: 6.00 Build 0)  -->
<svg version="1.1" id="Layer_1" xmlns="http://www.w3.org/2000/svg" xmlns:xlink="http://www.w3.org/1999/xlink" x="0px" y="0px"
	 viewBox="0 0 60 60" style="enable-background:new 0 0 60 60;" xml:space="preserve">
<style type="text/css">
	.st0{fill:none;stroke:#2E3192;stroke-miterlimit:10;}
</style>
<g>
	<circle class="st0" cx="30.12331" cy="9.10829" r="5.01666"/>
	<circle class="st0" cx="37.51935" cy="23.22189" r="5.01666"/>
	<circle class="st0" cx="45.08851" cy="37.44335" r="5.01666"/>
	<path class="st0" d="M32.50269,13.52518l2.78956,5.20216L32.50269,13.52518z"/>
	<path class="st0" d="M39.74644,27.72916l2.78956,5.20215L39.74644,27.72916z"/>
</g>
<g>
	<circle class="st0" cx="22.03977" cy="22.60594" r="5.01666"/>
	<circle class="st0" cx="13.95899" cy="36.33896" r="5.01666"/>
	<circle class="st0" cx="5.87801" cy="50.27596" r="5.01666"/>
	<path class="st0" d="M19.54507,26.95873l-2.94501,5.11576L19.54507,26.95873z"/>
	<path class="st0" d="M11.30712,40.61015L8.36211,45.7259L11.30712,40.61015z"/>
</g>
<g>
	<circle class="st0" cx="54.12161" cy="50.00559" r="5.01666"/>
	<circle class="st0" cx="38.18822" cy="50.15396" r="5.01666"/>
	<circle class="st0" cx="22.0799" cy="50.40726" r="5.01666"/>
	<path class="st0" d="M49.10569,50.10967l-5.90184,0.11116L49.10569,50.10967z"/>
	<path class="st0" d="M33.16129,50.08131l-5.90184,0.11116L33.16129,50.08131z"/>
</g>
</svg>
