<svg id="Layer_1" data-name="Layer 1" xmlns="http://www.w3.org/2000/svg" viewBox="0 0 17.75025 23.15237"><defs><style>.cls-1{fill:#339947;}</style></defs><title>Apparel</title><path class="cls-1" d="M18.02734,15.38828a0.38587,0.38587,0,0,0,.37227.28458H20.329a0.38587,0.38587,0,0,0,.37362-0.48234l-3.087-11.96206H17.61532A0.38558,0.38558,0,0,0,17.348,2.95381l-2.87948-.82263L13.71829,0.81824a0.38587,0.38587,0,0,0-.335-0.19443h-3.087a0.38587,0.38587,0,0,0-.335.19443L9.211,2.13118l-2.87958.82273a0.38558,0.38558,0,0,0-.26722.27455H6.06392l-3.087,11.96206a0.38587,0.38587,0,0,0,.37362.48234H5.27993a0.38587,0.38587,0,0,0,.37227-0.28458L7.23625,9.58012l0.3455,1.8136L6.46215,14.37941a0.38587,0.38587,0,0,0,.36127.5217H7.06555a4.989,4.989,0,0,0-.24214,1.54349v6.94571a0.38587,0.38587,0,0,0,.38587.38587h9.26095a0.38587,0.38587,0,0,0,.38587-0.38587V16.4446a4.99568,4.99568,0,0,0-.24228-1.54349h0.24228a0.38587,0.38587,0,0,0,.36127-0.52136l-1.11961-2.98569,0.3455-1.8136Zm0.667-.48716L16.77219,7.85348l0.52657-2.76439,2.53215,9.812H18.69432ZM11.23337,7.00548l-2.032-3.302L10.136,2.06775ZM10.77731,1.39556h2.12491L11.83977,6.17662Zm2.76613,0.67219,0.93473,1.63576-2.032,3.302ZM4.98522,14.90111H3.84863l2.53229-9.812L6.90749,7.85343Zm3.35709-3.33737a0.385,0.385,0,0,0,.01775-0.2077L6.8826,3.59909l1.78022-.50868-0.24508.42895a0.38587,0.38587,0,0,0,.00641.39364l3.02973,4.92335v5.293H7.38023Zm7.74206,4.88086v6.55984H14.54088v-4.2446a0.38587,0.38587,0,0,0-.77175,0v4.2446h-6.174V16.4446a4.21229,4.21229,0,0,1,.2894-1.54349h7.90914A4.21764,4.21764,0,0,1,16.08437,16.4446Zm0.21493-2.31524H12.22564v-5.293L15.25537,3.913a0.38587,0.38587,0,0,0,.00641-0.39364l-0.24508-.42895,1.78022,0.50868L15.31947,11.3559a0.385,0.385,0,0,0,.01775.2077Z" transform="translate(-2.96459 -0.62381)"/></svg>