<svg id="Layer_1" data-name="Layer 1" xmlns="http://www.w3.org/2000/svg" viewBox="0 0 17.07665 23.99257"><defs><style>.cls-1{fill:#393;}</style></defs><title>blazer</title><path class="cls-1" d="M16.91034,12.5956c-0.085-1.213-.173-2.46716-0.173-3.5416,0-5.31711-1.27224-6.06046-1.41721-6.12769l-3.139-1.20722A7.06671,7.06671,0,0,0,10.42345.04967a0.297,0.297,0,0,0-.16491-0.0495V0H6.81791A0.29845,0.29845,0,0,0,6.653.04967,7.06723,7.06723,0,0,0,4.89533,1.71914L1.75652,2.92631C1.61144,2.99354.33922,3.73689,0.33922,9.054c0,1.07443-.08795,2.32864-0.17291,3.54159C0.08081,13.81565,0,14.968,0,15.96439c0,1.98527.16814,7.67334,0.16981,7.7306a0.29847,0.29847,0,0,0,.29842.28964c0.00513,0,2.61619-.13512,2.61619-0.13512a0.29853,0.29853,0,0,0,.28307-0.29812V23.261a19.82728,19.82728,0,0,0,3.02871.69565,2.63328,2.63328,0,0,0,.303.01809,1.53975,1.53975,0,0,0,1.59124-1.07688c0.00149-.00627.24784-1.41793,0.24784-1.41793L8.7821,22.878a1.42025,1.42025,0,0,0,1.50826,1.1093,2.64734,2.64734,0,0,0,.40129-0.03212,27.43745,27.43745,0,0,0,3.01766-.71368v0.30988a0.29853,0.29853,0,0,0,.28307.29812s2.61106,0.13512,2.61619.13512A0.29847,0.29847,0,0,0,16.907,23.695c0.00167-.05726.16969-5.74533,0.16969-7.7306C17.07663,14.968,16.9959,13.81565,16.91034,12.5956ZM10.551,4.69191a13.05243,13.05243,0,0,0,.37818-3.48171,3.28711,3.28711,0,0,1,1.08607,1.5752l-0.84259.177a0.29853,0.29853,0,0,0-.11123.53575L11.993,4.15821c-0.22532.98771-1.33014,5.56153-2.99774,8.16142C9.19933,11.32437,10.29012,5.96755,10.551,4.69191ZM6.94311,0.59707h3.19046a1.5339,1.5339,0,0,1,.21548.99275H6.72781A1.5368,1.5368,0,0,1,6.94311.59707ZM5.33922,2.134L5.34047,2.132A4.95942,4.95942,0,0,1,6.14723,1.2111a13.05733,13.05733,0,0,0,.37819,3.48081c0.26341,1.28753,1.3539,6.64231,1.55631,7.62945C6.415,9.72344,5.30928,5.14635,5.08365,4.15813l0.93149-.66006a0.29853,0.29853,0,0,0-.11123-0.53575l-0.84253-.177A1.81866,1.81866,0,0,1,5.33922,2.134ZM2.77035,23.26791l-2.01267.10425C0.72275,22.1604.597,17.67524,0.597,15.96439c0-.9755.08007-2.11776,0.16485-3.32707,0.0858-1.22316.1744-2.48806,0.1744-3.58339,0-3.2556.47963-4.65436,0.80163-5.22653,0,0,1.60708,5.95675,1.79438,7.409-0.97884,2.12844-.595,6.0075-0.53551,6.54762a43.677,43.677,0,0,0-.93782,4.8047,0.29854,0.29854,0,0,0,.19948.32081c0.02711,0.00925.21733,0.074,0.512,0.16766V23.268H2.77035v0ZM3.72394,12.5864a8.39142,8.39142,0,0,1-.23883,3.54279A15.35162,15.35162,0,0,1,3.72394,12.5864ZM8.10484,20.49L7.70815,22.765a1.00457,1.00457,0,0,1-1.24334.59856,23.62324,23.62324,0,0,1-3.78-.9417A40.66239,40.66239,0,0,1,3.7067,17.45543l2.33681-.1847a0.29854,0.29854,0,0,0-.04711-0.59522l-2.104.16635c0.00107-.00328,1.43309-2.33861-0.48011-8.95579l-1.17407-4.506L4.5136,2.50549a1.65533,1.65533,0,0,0-.06263.53587,0.2984,0.2984,0,0,0,.23674.27567l0.42451,0.0892-0.53575.37956a0.29851,0.29851,0,0,0-.11941.3057c0.06078,0.28576,1.50355,6.96831,3.88342,9.55674,0.035,0.22838.06335,0.461,0.08592,0.69571a0.87421,0.87421,0,1,0,.07159,1.319A27.50791,27.50791,0,0,1,8.10484,20.49Zm0.06424-5.45569a0.27728,0.27728,0,1,1-.27734-0.27734A0.27728,0.27728,0,0,1,8.16908,15.03427Zm0.36923-3.45974c-0.18009-.8811-1.16447-5.71464-1.4279-7.00228A19.16918,19.16918,0,0,1,6.74876,2.1869h3.57891A19.15763,19.15763,0,0,1,9.966,4.57226C9.70522,5.848,8.72042,10.684,8.53831,11.57454ZM10.60084,23.365a0.91882,0.91882,0,0,1-1.23039-.58842L8.97107,20.48625c-0.0006-.00322-0.05929-0.3189-0.13064-0.83166a22.55827,22.55827,0,0,0,.073-6.20812c2.27449-2.717,3.64811-9.08171,3.70621-9.35493a0.29862,0.29862,0,0,0-.11941-0.3057l-0.53575-.37956,0.42446-.0892a0.29846,0.29846,0,0,0,.23674-0.27573A1.65507,1.65507,0,0,0,12.563,2.50555l2.2754,0.87459L13.6637,7.88828c-1.889,6.46928-.48058,8.95029-0.47957,8.95358l-2.104-.16628a0.29854,0.29854,0,0,0-.04982.595l0.00282,0.00022,2.33676,0.18473A40.61507,40.61507,0,0,1,14.391,22.4169,32.8364,32.8364,0,0,1,10.60084,23.365Zm2.75179-10.77877a15.37433,15.37433,0,0,1,.23877,3.54219A8.39131,8.39131,0,0,1,13.35263,12.58622ZM16.319,23.37216l-2.01267-.10425V23.06674c0.29089-.08723.47873-0.14658,0.50566-0.15512a0.2985,0.2985,0,0,0,.20581-0.3229A43.663,43.663,0,0,0,14.08,17.78389c0.05959-.54041.44333-4.41935-0.53557-6.54762C14.251,7.64065,15.33886,3.8275,15.33886,3.8275c0.32194,0.57229.80151,1.97112,0.80151,5.22647,0,1.09533.08866,2.36017,0.1744,3.58339,0.08479,1.20931.16485,2.35157,0.16485,3.32707-0.00006,1.71075-.12569,6.196-0.16062,7.40772h0Z" transform="translate(-0.00003 0.00001)"/></svg>