<svg id="Capa_1" data-name="Capa 1" xmlns="http://www.w3.org/2000/svg" viewBox="0 0 320 511.60382"><defs><style>.cls-1{fill:#d32f2f;}</style></defs><title>003-blood-drop</title><path class="cls-1" d="M265.125,5.066a11.09344,11.09344,0,0,0-18.624,0C240.335,16.095,95.802,275.978,95.802,351.604a160,160,0,0,0,320,0C415.802,275.978,271.269,16.095,265.125,5.066Zm-9.323,442.538a96.00045,96.00045,0,0,1-96-96,10.667,10.667,0,1,1,21.334,0,74.66693,74.66693,0,0,0,74.667,74.667A10.6665,10.6665,0,1,1,255.802,447.604Z" transform="translate(-95.802 -0.00019)"/></svg>