<svg id="Capa_1" data-name="Capa 1" xmlns="http://www.w3.org/2000/svg" viewBox="0 0 471.76513 349.57001"><defs><style>.cls-1{fill:#393;}</style></defs><title>042-little-blouse</title><path class="cls-1" d="M235.88251,282.64a17,17,0,1,0,17,17A17,17,0,0,0,235.88251,282.64Zm0,22.25a5.25,5.25,0,1,1,5.25-5.25A5.25,5.25,0,0,1,235.88251,304.89Z" transform="translate(0.00003 -61.09601)"/><path class="cls-1" d="M235.88251,229.97335a17,17,0,1,0,17,17A17,17,0,0,0,235.88251,229.97335Zm0,22.25a5.25,5.25,0,1,1,5.25-5.25A5.25,5.25,0,0,1,235.88251,252.22335Z" transform="translate(0.00003 -61.09601)"/><path class="cls-1" d="M468.95136,176.769l-0.104-.147L362.90741,64.906c-2.011-2.563-3.994-3.81-6.061-3.81-2.563,0-4.15,1.893-5.099,3.02295-0.107.12805-.211,0.251-0.31,0.364l-1.585,1.808c-19.701,22.489-38.31,43.73-89.282,44.939-2.647.063-6.964,1.745-8.02,6.179l-16.669,78.042-16.681-78.098c-1.042-4.377-5.359-6.059-8.006-6.122-50.973-1.20795-69.582-22.45-89.283-44.939l-1.583-1.807c-0.1-.113-0.203-0.236-0.31-0.364-0.948-1.131-2.535-3.023-5.099-3.023-2.066,0-4.05,1.247-6.061,3.81L3.04236,176.491l-0.229.278a16.54072,16.54072,0,0,0,2.302,21.179l36.633,33.415a13.5557,13.5557,0,0,0,9.13,3.604,13.38614,13.38614,0,0,0,10.607-5.284l54.087-57.799,0.163-.191a10.1579,10.1579,0,0,1,2.032-2.112,9.56,9.56,0,0,1,.217,2.869c-0.376,3.958-15.374,161.807-18.902,214.548a13.249,13.249,0,0,0,3.342,9.774,15.03354,15.03354,0,0,0,10.482,4.877c20.014,0.97,81.307,6.48,102.886,8.891a19.69988,19.69988,0,0,0,2.185.126h0.001c8.074,0,11.037-5.593,11.481-8.599l6.423-50.127,6.43,50.175c0.438,2.958,3.4,8.55,11.476,8.55a19.69974,19.69974,0,0,0,2.185-.126c21.58-2.411,82.874-7.921,102.887-8.891a15.039,15.039,0,0,0,10.481-4.877,13.25184,13.25184,0,0,0,3.343-9.775c-3.528-52.741-18.525-210.59-18.901-214.548a9.55563,9.55563,0,0,1,.213-2.857,9.66178,9.66178,0,0,1,2.035,2.1l54.249,57.99a13.38281,13.38281,0,0,0,10.606,5.284,13.55814,13.55814,0,0,0,9.131-3.604l36.632-33.415A16.5364,16.5364,0,0,0,468.95136,176.769Zm-14.951,6.621-2.09094,1.74243-32.40875,29.59088-1.40936-1.40912-0.09094.07581L352.6239,142.825c-2.94952,7.11414-9.424,12.06506-16.95721,12.06506-0.246,0-.485-0.03027-0.72876-0.04071L345.50037,288.64h-0.00659l2.7746,29.76611,0.10687,1.14673,1.10663,11.8714,4.44861,47.7254-97.07916,9.04907L251.69586,332.89H218.99133l-5.34192,57.30872-97.07916-9.04907,8.47552-90.92633h-0.04541l10.6416-134.793c-7.19232-.85968-13.14166-6.24713-15.5174-13.53149L52.50037,214.89,51,216.39l-34.49963-31.5,95-102a99.94944,99.94944,0,0,0,8.1496,9.19006,111.61284,111.61284,0,0,0,45.54871,27.25708c11.14795,3.5097,25.46649,7.20966,37.135,7.55286l18.31567,84.66663h28.85956l18.65814-86.25c22.66663-.66663,55.33331-13.99994,55.33331-13.99994h0.13715c14.4668-8.6311,26.45874-18.501,35.36285-29.91669L453.913,183.29614l0.0874-.07281-0.08392.0766Z" transform="translate(0.00003 -61.09601)"/></svg>