<svg id="Layer_1" data-name="Layer 1" xmlns="http://www.w3.org/2000/svg" viewBox="0 0 13.79983 23.6733"><defs><style>.cls-1{fill:none;stroke:#339;stroke-miterlimit:10;stroke-width:0.25px;}</style></defs><title>blouse</title><path class="cls-1" d="M19.26056,23.97893H17.86346a8.95733,8.95733,0,0,1-1.20636-.02438c-0.4097-.05579-0.81027-0.17078-1.2243-0.19571-0.86548-.05212-1.723.29337-2.58594,0.209-0.19794-.01935-0.39291-0.06119-0.58984-0.08878a21.27868,21.27868,0,0,0-3.25.14139,2.50281,2.50281,0,0,1-.9472-0.13126,2.142,2.142,0,0,0-.52759-0.18964,1.52607,1.52607,0,0,0-.73984.20541,1.20036,1.20036,0,0,1-.67377.08154,2.02616,2.02616,0,0,0-.37921-0.0079C5.75757,23.89925,9.2952,8.43831,9.2952,8.43831a14.58455,14.58455,0,0,1,6.40985,0Z" transform="translate(-5.61756 -0.47278)"/><path class="cls-1" d="M9.31421,8.55293a15.41732,15.41732,0,0,0,6.40985,0s0.71315-.00055,1.06972-0.0023a0.64092,0.64092,0,0,0-.16918.17555,0.32317,0.32317,0,0,1-.27484.06749,0.30835,0.30835,0,0,1-.15935-0.13341,0.66353,0.66353,0,0,1-.111-0.37614,0.11065,0.11065,0,0,1,.01745-0.06005,0.08228,0.08228,0,0,1,.06625-0.02931,0.19331,0.19331,0,0,1,.07246.01791,2.18387,2.18387,0,0,1,.74376.66311,2.11915,2.11915,0,0,1,.45644.7088" transform="translate(-5.61756 -0.47278)"/><path class="cls-1" d="M16.543,0.60521a0.50626,0.50626,0,0,0-.1455-0.00307Q16.166,0.60205,15.93448.60178c-0.27931-.00034-0.55995.00654-0.85635-0.004H14.5625a2.0625,2.0625,0,0,1-4.125,0s-0.34027,0-.34027.00439H8.74572c-0.07585,0-.15236.00356-0.22793-0.00329A1.54433,1.54433,0,0,0,8.30146.831l-0.24567.264-0.56758.60987q-0.2229.23951-.4458,0.479L8.1405,3.20575l0.37634-.40442V4.16714A1.93711,1.93711,0,0,0,10.454,6.10425h4.15953A1.93711,1.93711,0,0,0,16.5506,4.16714V2.81335l0.37231,0.40009L18.021,2.19159q-0.18217-.19575-0.36418-0.39165-0.3453-.37158-0.69-0.74371Q16.8362,0.91512,16.70592.7737A0.56826,0.56826,0,0,0,16.543.60521Z" transform="translate(-5.61756 -0.47278)"/></svg>