<svg id="Layer_1" data-name="Layer 1" xmlns="http://www.w3.org/2000/svg" viewBox="0 0 22.71974 24.4"><defs><style>.cls-1{fill:#393;}</style></defs><title>Apparel</title><path class="cls-1" d="M16.04092,12.58628V11.99281a0.35742,0.35742,0,1,0-.71484,0v0.59347A0.35742,0.35742,0,1,0,16.04092,12.58628Z" transform="translate(-0.47985)"/><path class="cls-1" d="M8.35337,12.58628V11.99281a0.35742,0.35742,0,1,0-.71484,0v0.59347A0.35742,0.35742,0,1,0,8.35337,12.58628Z" transform="translate(-0.47985)"/><path class="cls-1" d="M12.7128,12.30388a1.424,1.424,0,0,1-1.74615,0,0.35745,0.35745,0,1,0-.438.565,2.139,2.139,0,0,0,2.6224,0A0.35751,0.35751,0,0,0,12.7128,12.30388Z" transform="translate(-0.47985)"/><path class="cls-1" d="M9.81917,17.84838a0.843,0.843,0,0,0,.24871.60036l0.5056,0.5056a0.849,0.849,0,0,0,1.20071,0l0.5056-.5056a0.84941,0.84941,0,0,0,0-1.20071l-0.5056-.5056a0.84919,0.84919,0,0,0-1.2009,0l-0.50542.5056A0.84269,0.84269,0,0,0,9.81917,17.84838Zm0.75412-.09494,0.5056-.5056a0.125,0.125,0,0,1,.18969,0l0.5056,0.5056a0.12586,0.12586,0,0,1,0,.18988l-0.5056.50542a0.1316,0.1316,0,0,1-.18969,0H11.07871l-0.50542-.50542A0.13411,0.13411,0,0,1,10.57329,17.75344Z" transform="translate(-0.47985)"/><path class="cls-1" d="M13.72605,14.79038a0.85009,0.85009,0,0,0-1.20071,0l-0.5056.5056a0.84919,0.84919,0,0,0,0,1.2009l0.50542,0.50542h0.00019a0.84986,0.84986,0,0,0,1.20071,0l0.5056-.50542a0.85009,0.85009,0,0,0,0-1.20071Zm0.00019,1.2009-0.5056.5056a0.13449,0.13449,0,0,1-.18988,0l-0.50542-.5056a0.11925,0.11925,0,0,1,0-.18988l0.50542-.50542a0.13449,0.13449,0,0,1,.18988,0l0.50542,0.50542A0.13432,0.13432,0,0,1,13.72624,15.99128Z" transform="translate(-0.47985)"/><path class="cls-1" d="M14.541,16.80609l-0.5056.5056a0.84919,0.84919,0,0,0,0,1.2009L14.541,19.018a0.849,0.849,0,0,0,1.20071,0l0.5056-.50542a0.84919,0.84919,0,0,0,0-1.2009l-0.5056-.5056A0.84941,0.84941,0,0,0,14.541,16.80609Zm1.2009,1.011a0.1203,0.1203,0,0,1-.00019.18988l-0.50542.5056a0.13092,0.13092,0,0,1-.18988,0l-0.5056-.5056a0.11974,0.11974,0,0,1,.00019-0.18988l0.50542-.50542a0.11771,0.11771,0,0,1,.18988,0Z" transform="translate(-0.47985)"/><path class="cls-1" d="M22.28351,9.5508a0.35754,0.35754,0,0,0-.24052.44473A10.6512,10.6512,0,1,1,4.44723,5.38125a28.27238,28.27238,0,0,0,3.07588.47433,8.377,8.377,0,0,0-2.878,11.48385,0.33771,0.33771,0,0,0,.49034.12286A0.3625,0.3625,0,0,0,5.25813,16.972,7.67029,7.67029,0,0,1,8.87293,5.96988c0.9548,0.064,1.95056.09717,2.9666,0.09717s2.01161-.03314,2.96623-0.09717A7.66689,7.66689,0,1,1,6.04688,18.0593a0.35736,0.35736,0,0,0-.53986.46837A8.38013,8.38013,0,1,0,16.15559,5.85558,28.18576,28.18576,0,0,0,19.232,5.38125a10.61024,10.61024,0,0,1,2.29867,3.2477,0.35734,0.35734,0,1,0,.65025-0.29655A11.3096,11.3096,0,0,0,20.04627,5.186c2.09241-.55382,3.15332-1.27722,3.15332-2.15254,0-.92185-1.17614-1.67542-3.49547-2.23947A34.8605,34.8605,0,0,0,11.83972,0a34.85814,34.85814,0,0,0-7.8644.794C1.656,1.358.47985,2.11158,0.47985,3.03343c0,0.87531,1.06091,1.59872,3.15332,2.15254A11.35965,11.35965,0,0,0,19.8724,21.07281a11.37762,11.37762,0,0,0,2.85565-11.2815A0.3575,0.3575,0,0,0,22.28351,9.5508ZM1.19469,3.03343c0-.38162.77255-1.0153,2.94966-1.54492A34.13451,34.13451,0,0,1,11.83972.71484a34.13569,34.13569,0,0,1,7.69537.77367c2.17711,0.52962,2.94966,1.1633,2.94966,1.54492,0,0.38181-.77255,1.01549-2.94966,1.5451a34.13569,34.13569,0,0,1-7.69537.77367,34.13744,34.13744,0,0,1-7.69555-.77367C1.96724,4.04892,1.19469,3.41524,1.19469,3.03343Z" transform="translate(-0.47985)"/></svg>