<svg id="Layer_1" data-name="Layer 1" xmlns="http://www.w3.org/2000/svg" viewBox="0 0 15.94249 23.81633"><defs><style>.cls-1{fill:none;stroke:#393;stroke-miterlimit:10;stroke-width:0.65px;}</style></defs><title>borka</title><path class="cls-1" d="M14.41981,19.00729L13.321,16.09979l-1.80872-4.39505-1.02361-3.727a12.7386,12.7386,0,0,1-.37632-1.60617,7.03243,7.03243,0,0,1,.04746-1.69748,0.333,0.333,0,0,1,.43178-0.2756,1.02516,1.02516,0,0,1,.29145.47278,0.9527,0.9527,0,0,1,.20093.5197,6.95276,6.95276,0,0,0,.34168,1.69686l0.44373,1.496,0.317,1.141,0.07607,1.22977,1.66716-.12044L13.7521,8.37464,12.99142,5.33191l-1.3439-4.057A1.13155,1.13155,0,0,0,10.84458.70865,4.76087,4.76087,0,0,0,9.84809.44018,2.01828,2.01828,0,0,1,9.50752.36742,0.83683,0.83683,0,0,1,9.39879.32718a0.01966,0.01966,0,0,0-.02643.00864l-0.002.00681A3.62153,3.62153,0,0,1,7.97129,2.64381,3.62158,3.62158,0,0,1,6.57213.34257,0.01966,0.01966,0,0,0,6.55049.32511l-0.00679.002A0.83685,0.83685,0,0,1,6.435.36733a2.01834,2.01834,0,0,1-.34058.07279,4.76089,4.76089,0,0,0-.99652.26844,1.13155,1.13155,0,0,0-.80294.56629l-1.34387,4.057L2.19038,8.37455l-0.1775,2.45954L3.68,10.95453,3.75611,9.72476l0.317-1.141a14.954,14.954,0,0,0,.77541-3.07027,2.05958,2.05958,0,0,1,.33535-0.8319A0.83233,0.83233,0,0,1,5.29218,4.419c0.38076-.156.49343,0.20915,0.51857,0.51523L5.85883,5.39578A4.61852,4.61852,0,0,1,5.74868,6.9039L4.43016,11.70464,2.62143,16.0997,1.52266,19.00718,0.407,22.77678l0.8452,0.21975s1.87122,0.17888,3.63863.34787a32.36909,32.36909,0,0,0,6.16122,0l3.63822-.34781,0.84521-.21975Z" transform="translate(0.00001 0)"/><line class="cls-1" x1="5.7487" y1="6.9039" x2="10.17835" y2="6.9039"/></svg>