<svg id="Capa_1" data-name="Capa 1" xmlns="http://www.w3.org/2000/svg" viewBox="0 0 307.42106 420.34955"><defs><style>.cls-1{fill:#393;}</style></defs><title>punjabi</title><path class="cls-1" d="M296.40772,266.92034c-0.94237.08452-93.86927,8.50022-143.01641,9.55409-49.11926-1.05387-142.06055-9.46957-143.002-9.55409l-10.4533-.955v38.52568l5.99952,2.41706a339.8296,339.8296,0,0,1,54.8796,29.68826c25.23359,16.90242,56.84706,43.85079,64.04073,76.25018l1.65814,7.503h53.75649l1.67164-7.503c7.17929-32.30137,38.63718-59.1931,63.75838-76.06764a342.67159,342.67159,0,0,1,55.14666-29.8708l6.0139-2.41706V265.96537Zm-8.725,24.78487h0a364.70764,364.70764,0,0,0-52.3798,28.94371c-17.647,11.83-32.42727,24.30651-43.93353,37.09235-12.68694,14.10677-21.45422,28.69015-26.13281,43.41469H141.54782c-4.67858-14.72454-13.43238-29.3088-26.11931-43.41469-11.50717-12.78584-26.28746-25.26236-43.94882-37.09235a364.16629,364.16629,0,0,0-52.36451-28.94371v-4.74873c25.979,2.23364,94.20648,7.86807,134.08008,8.69714l0.19692,0.01438,0.21042-.01438c39.8745-.82907,108.10106-6.4635,134.08009-8.69714v4.74873Z" transform="translate(0.31203)"/><path class="cls-1" d="M301.35309,133.88522c-44.22151-11.26748-59.84093-41.30536-59.84093-47.96439V0H228.78344V85.92018c0,11.14082-10.03087,17.47528-26.55022,26.58458-4.94384,2.72649-10.05761,5.54528-14.722,8.69054-10.80223,7.28528-22.86525,20.18139-34.11363,36.44043-11.2471-16.2584-23.3114-29.15515-34.1149-36.44107-4.66317-3.144-9.7763-5.96341-14.72078-8.6899C88.04253,103.39609,78.01166,97.061,78.01166,85.92018V0H65.28293V85.92018c0,6.659-15.61942,36.69757-59.84093,47.96438l-5.754,1.46636,1.06476,5.84248c1.48926,8.1693,10.15371,54.17537,10.24153,54.63933l0.97693,5.18631H69.5184a65.50093,65.50093,0,0,0,27.32094,5.5459c20.17122,0,33.78013-8.27876,42.14864-16.12858h28.821c8.36787,7.84982,21.97679,16.12858,42.14865,16.12858a65.501,65.501,0,0,0,27.32095-5.5459h57.54721l0.97693-5.18631c0.08783-.464,8.75228-46.47,10.24154-54.63933l1.06476-5.84248Zm-148.90384,37.875c0.3093,0.028.62053,0.0471,0.93429,0.0471a0.08136,0.08136,0,0,0,.01782,0c0.31695,0,.63135-0.01973.94384-0.04836a52.946,52.946,0,0,0,3.13891,5.94814H149.311A52.81675,52.81675,0,0,0,152.44925,171.76018ZM14.33173,144.62a122.84386,122.84386,0,0,0,16.60717-6.34273,104.25189,104.25189,0,0,0,9.1335,32.73765,68.42289,68.42289,0,0,0,11.70407,17.2748h-29.25C20.628,178.20538,16.44279,155.95619,14.33173,144.62Zm82.507,49.21628c-20.96422,0-36.20878-9.5421-45.30727-28.36151-6.24662-12.91965-7.95164-26.8067-8.41433-33.85586a97.15562,97.15562,0,0,0,18.47257-15.02882,81.24233,81.24233,0,0,0,9.86986-12.72173c6.50374,8.49961,17.14114,14.37138,26.95626,19.783,4.70008,2.59156,9.55991,5.271,13.75021,8.09675,9.23469,6.22817,19.74035,17.43835,29.81132,31.76581C139.84208,170.33329,127.75743,193.83626,96.83871,193.83626Zm67.97141-30.31221c10.07352-14.33318,20.58235-25.54655,29.81769-31.77536,4.19221-2.82642,9.052-5.50581,13.75148-8.09738,9.81576-5.41161,20.45315-11.284,26.95627-19.783a81.21246,81.21246,0,0,0,9.86985,12.72173A97.20075,97.20075,0,0,0,263.678,131.61887c-0.46268,7.0498-2.16707,20.93621-8.41433,33.85588-9.09913,18.81943-24.34305,28.36151-45.30727,28.36151C178.99182,193.83626,166.91863,170.26391,164.81012,163.52405Zm119.45912,24.76629H255.01989a68.43922,68.43922,0,0,0,11.70407-17.2748,104.269,104.269,0,0,0,9.13351-32.73765,122.93013,122.93013,0,0,0,16.60717,6.34273C290.35293,155.95619,286.16773,178.20538,284.26924,188.29034Z" transform="translate(0.31203)"/></svg>