<svg id="Layer_1" data-name="Layer 1" xmlns="http://www.w3.org/2000/svg" viewBox="0 0 2.31804 23.7288"><defs><style>.cls-1{fill:#393;}</style></defs><title>Apparel</title><path class="cls-1" d="M12.57707,3.66933L11.71043,0.52627a0.25969,0.25969,0,0,0-.5007,0L10.3431,3.66933a1.17027,1.17027,0,0,0-.042.31083V17.59992a1.21325,1.21325,0,0,0,.421.91452l0.41026,0.891a0.2954,0.2954,0,0,0,0,.58408v0.30128H10.85293a0.29665,0.29665,0,0,0,0,.5933h0.27942v0.2415H10.85293a0.29665,0.29665,0,0,0,0,.5933h0.27942v0.33115H10.8541a0.29665,0.29665,0,1,0,0,.5933h0.27825v0.23a0.29543,0.29543,0,0,0,0,.58412V23.7369a0.32771,0.32771,0,0,0,.65542,0V23.45762a0.29527,0.29527,0,0,0,0-.5844V22.64337H12.066a0.29665,0.29665,0,0,0,0-.5933H11.78777V21.71892h0.27937a0.29665,0.29665,0,1,0,0-.5933H11.78777v-0.2415h0.27937a0.29665,0.29665,0,1,0,0-.5933H11.78777v-0.3011a0.29527,0.29527,0,0,0,0-.5844l0.4023-.87375a1.15152,1.15152,0,0,0,.429-0.89322V3.98016A1.17027,1.17027,0,0,0,12.57707,3.66933ZM11.35518,1.66942H11.565l0.18627,0.76809H11.16891ZM11.07075,2.84225h0.77867l0.22535,0.92908H10.84539ZM10.83458,4.33706h1.251V17.70277a0.62564,0.62564,0,0,1-.687.62255,0.64369,0.64369,0,0,1-.564-0.64947V4.33706Zm0.29314,14.40462,0.00463,0.00154V18.748ZM11.78777,18.748V18.74439l0.00337-.001Z" transform="translate(-10.30106 -0.3356)"/></svg>