<?xml version="1.0" encoding="utf-8"?>
<!-- Generator: Adobe Illustrator 19.2.0, SVG Export Plug-In . SVG Version: 6.00 Build 0)  -->
<svg version="1.1" id="Layer_1" xmlns="http://www.w3.org/2000/svg" xmlns:xlink="http://www.w3.org/1999/xlink" x="0px" y="0px"
	 viewBox="0 0 30 32" style="enable-background:new 0 0 30 32;" xml:space="preserve">
<style type="text/css">
	.st0{fill:none;stroke:#2E3192;stroke-miterlimit:10;}
	.st1{fill:none;stroke:#2E3192;stroke-width:1.008;stroke-miterlimit:10;}
</style>
<path id="XMLID_4_" class="st0" d="M5.9,21.5H2.2c-0.4,0-0.7-0.3-0.7-0.7v-6.5c0-0.4,0.3-0.7,0.7-0.7h3.3c0.3,0,0.5-0.2,0.7-0.4
	L8.9,8C9,7.7,9.3,7.5,9.5,7.5h8.2c0.2,0,0.4,0.1,0.5,0.2l5.1,5.5c0.1,0.1,0.3,0.2,0.5,0.2h1.7c0.2,0,0.4,0.1,0.6,0.3l2.1,2.7
	c0.1,0.1,0.2,0.3,0.2,0.5v4.6"/>
<line id="XMLID_140_" class="st0" x1="19.9" y1="21.5" x2="11.8" y2="21.5"/>
<line id="XMLID_2_" class="st0" x1="5.5" y1="13.6" x2="26" y2="13.6"/>
<path id="XMLID_3_" class="st1" d="M14.5,7.5v6.1V7.5z"/>
<circle id="XMLID_157_" class="st0" cx="8.8" cy="21.7" r="2.9"/>
<circle id="XMLID_159_" class="st0" cx="22.8" cy="21.7" r="2.9"/>
</svg>
