<svg id="Layer_1" data-name="Layer 1" xmlns="http://www.w3.org/2000/svg" viewBox="0 0 24.18982 16.25437"><defs><style>.cls-1{fill:#2e3192;}.cls-2{fill:none;stroke:#2e3192;stroke-miterlimit:10;stroke-width:0.5px;}</style></defs><title>cash-on-delivery</title><path class="cls-1" d="M15.9671,6.74013v10.5921h6.05261V6.74013H15.9671Zm5.49341,8.832A1.15155,1.15155,0,0,0,20.309,16.72371h-2.6311a1.15155,1.15155,0,0,0-1.15155-1.15155V8.5002A1.15149,1.15149,0,0,0,17.6778,7.34871H20.309A1.15149,1.15149,0,0,0,21.46051,8.5002v7.072Z" transform="translate(-2.8125 -6.74013)"/><path class="cls-1" d="M19.28681,12.32953a0.29955,0.29955,0,0,1-.08076.216,0.27871,0.27871,0,0,1-.2109.08465,0.22471,0.22471,0,0,1-.19923-0.10655,0.4081,0.4081,0,0,1-.05984-0.22817V11.91624H18.59183V11.84983h0.14425V11.53628a0.20913,0.20913,0,0,0-.02262-0.10119,0.09114,0.09114,0,0,0-.08392-0.05218,0.09892,0.09892,0,0,0-.08.03929,0.137,0.137,0,0,0-.03041.08611h-0.036a0.19831,0.19831,0,0,1,.04087-0.12759A0.14087,0.14087,0,0,1,18.6417,11.324a0.1444,0.1444,0,0,1,.127.06726,0.24838,0.24838,0,0,1,.03989.14352v0.315h0.46607v0.06641H18.80857v0.33545a0.5006,0.5006,0,0,0,.03624.20251,0.16226,0.16226,0,0,0,.154.11178,0.21582,0.21582,0,0,0,.16249-0.06872A0.23208,0.23208,0,0,0,19.227,12.331a0.19607,0.19607,0,0,0-.03211-0.11482,0.11829,0.11829,0,0,0-.10217-0.05133,0.12914,0.12914,0,0,0-.08465.03016,0.10151,0.10151,0,0,0-.03795.08015,0.10978,0.10978,0,0,0,.05084.10265l-0.02043.03029a0.16989,0.16989,0,0,1-.06738-0.13829,0.1658,0.1658,0,0,1,.04622-0.11859,0.15389,0.15389,0,0,1,.11628-0.04841,0.17038,0.17038,0,0,1,.143.0703A0.25111,0.25111,0,0,1,19.28681,12.32953Z" transform="translate(-2.8125 -6.74013)"/><path class="cls-1" d="M18.9386,10.35413a1.68213,1.68213,0,1,0,1.68213,1.68213A1.68213,1.68213,0,0,0,18.9386,10.35413Zm0,2.88507a1.20294,1.20294,0,1,1,1.20294-1.20294A1.20294,1.20294,0,0,1,18.9386,13.2392Z" transform="translate(-2.8125 -6.74013)"/><path class="cls-1" d="M16.92737,13.34521a0.81953,0.81953,0,0,0,.52-0.76135,0.81026,0.81026,0,0,0-.40546-0.69244,0.79824,0.79824,0,0,0-.0354-1.40869,0.81231,0.81231,0,0,0,.704-0.79852,0.82237,0.82237,0,0,0-.82233-0.82239H15.83551a0.82237,0.82237,0,0,0-.82233.82239,0.814,0.814,0,0,0,.44086.71637,0.80048,0.80048,0,0,0-.29865,1.49084,0.80716,0.80716,0,0,0,.37781,1.5069,0.82035,0.82035,0,0,0,.30231,1.58374h1.05267A0.81881,0.81881,0,0,0,16.92737,13.34521Z" transform="translate(-2.8125 -6.74013)"/><path class="cls-1" d="M24.75,10.17761H23.96051L22.16964,9.15424a2.21939,2.21939,0,0,0-1.10114-.29243H19.1908a0.82239,0.82239,0,1,0,0,1.64478h1.05261l1.34869,1.38483,0.06583,4.14148a2.36193,2.36193,0,0,0,.72881-0.0087,3.52791,3.52791,0,0,0,.543-0.28822l0.57851-.31337A0.98539,0.98539,0,0,1,23.79,15.27l0.96-.02h2.25232V10.17761H24.75Z" transform="translate(-2.8125 -6.74013)"/><path class="cls-1" d="M16.07243,18.76453A7.51322,7.51322,0,0,0,13.9375,19.75c-1.8785.68149-3.62172,1.04377-4.875,0.25-0.06835-.34286,3.42456.23086,3.63993-0.88549,0.25627-1.32835-2.04831-.98953-2.95857-0.98951a9.06567,9.06567,0,0,0-2.83041.06733,7.88314,7.88314,0,0,0-1.976,1.34V18.8125H2.8125v4.125h2.125a0.88638,0.88638,0,0,1,.07225-0.48768c0.36038-.31274,2.44531.26,2.92779,0.30018,0.9604,0.08,1.92608.20109,2.88849,0.24358A3.76348,3.76348,0,0,0,11.875,22.75c1.00731-.45787,6.10373-2.0368,5.13579-3.5749A0.89081,0.89081,0,0,0,16.07243,18.76453Z" transform="translate(-2.8125 -6.74013)"/><path id="_Path_" data-name="&lt;Path&gt;" class="cls-2" d="M6.527,16.35152v3.67813a0.44052,0.44052,0,0,0,.4746.36781h6.3596V16.35152H6.527Z" transform="translate(-2.8125 -6.74013)"/><path id="_Path_2" data-name="&lt;Path&gt;" class="cls-2" d="M5.63714,14.0795v2.272h8.5427V14.77858a0.5174,0.5174,0,0,0-.58246-0.64082Z" transform="translate(-2.8125 -6.74013)"/><path id="_Path_3" data-name="&lt;Path&gt;" class="cls-2" d="M7.95866,14.0795L6.871,13.34725a0.54066,0.54066,0,0,1-.06921-0.88516c0.4746-.56952.71684-0.80644,0.71684-0.80644s0.2635-.44277.7381,0.09511S9.37454,13.1431,9.37454,13.1431v0.93337Z" transform="translate(-2.8125 -6.74013)"/><path id="_Path_4" data-name="&lt;Path&gt;" class="cls-2" d="M11.66825,14.11076l1.08762-.73225a0.54066,0.54066,0,0,0,.06921-0.88516c-0.4746-.56952-0.71684-0.80644-0.71684-0.80644s-0.2635-.44277-0.7381.09511-1.11777,1.39234-1.11777,1.39234v0.93337Z" transform="translate(-2.8125 -6.74013)"/><path id="_Path_5" data-name="&lt;Path&gt;" class="cls-2" d="M9.90849,20.39746v0Z" transform="translate(-2.8125 -6.74013)"/><rect class="cls-1" x="6.56204" y="6.06772" width="0.87783" height="0.50196"/></svg>