<svg id="Capa_1" data-name="Capa 1" xmlns="http://www.w3.org/2000/svg" viewBox="0 0 297.59344 208.01273"><defs><style>.cls-1{fill:#393;}</style></defs><title>punjabi</title><path class="cls-1" d="M53.22338,237.74015H49.736a5.81238,5.81238,0,1,0,0,11.62475h3.48743A5.81238,5.81238,0,1,0,53.22338,237.74015Z" transform="translate(-4.60176 -110.48314)"/><path class="cls-1" d="M185.39593,237.74015h-3.48743a5.81238,5.81238,0,0,0,0,11.62475h3.48743A5.81238,5.81238,0,0,0,185.39593,237.74015Z" transform="translate(-4.60176 -110.48314)"/><path class="cls-1" d="M285.90011,252.93179c-0.025-.01135-0.05222-0.02043-0.0772-0.03179-0.12033-.04541-0.2384-0.09309-0.35873-0.13623-0.04314-.01589-0.084-0.03633-0.12715-0.05l-0.45409-.14758c-0.22478-.07493-0.44955-0.15212-0.6766-0.22023l-26.92766-8.8003,26.93674-8.8003c0.227-.07038.44955-0.14531,0.67206-0.22023l0.45863-.14985c0.04314-.01362.08174-0.03406,0.12488-0.04768,0.12033-.04541.24067-0.09309,0.35873-0.1385,0.025-.01135.05222-0.01816,0.0772-0.03179a25.37271,25.37271,0,1,0-25.06134-4.00509l-16.49035,5.3878V220.72986a5.81628,5.81628,0,0,0-4.03234-5.53311l-31.10076-10.01954a5.75831,5.75831,0,0,0-1.30551-2.00482l-0.218-.218a4.38579,4.38579,0,0,1,.00227-6.19609l0.21569-.21569a16.00013,16.00013,0,0,0,.00227-22.62967l-0.22023-.22023a4.38237,4.38237,0,0,1,0-6.19154l0.218-.22023a16.00562,16.00562,0,0,0,0-22.63194l-0.218-.218a4.37893,4.37893,0,0,1,.00227-6.19381l0.21569-.218a16.00288,16.00288,0,0,0,.00227-22.6274l-0.22251-.2225a16.00562,16.00562,0,0,0-22.63422.00227l-0.21569.218a4.37688,4.37688,0,0,1-6.18927.00227l-0.22251-.2225a16.00288,16.00288,0,0,0-22.6274-.00227l-0.22251.2225a4.37688,4.37688,0,0,1-6.19381-.00227l-0.218-.218a16.00288,16.00288,0,0,0-22.63194.00227l-0.218.218a4.37688,4.37688,0,0,1-6.18927.00227l-0.22023-.2225a16.00288,16.00288,0,0,0-22.63422.00454l-0.218.21569a4.38169,4.38169,0,0,1-6.18927.00227l-0.22251-.22023a16.02,16.02,0,0,0-22.63194.00227l-0.218.21569a4.37688,4.37688,0,0,1-6.18927.00227l-0.22023-.22023a16.00013,16.00013,0,0,0-22.62967-.00227l-0.22251.22023a4.37688,4.37688,0,0,1-6.19381-.00227l-0.21569-.21569a16.00013,16.00013,0,0,0-22.62967-.00227l-0.218.22023a16.02414,16.02414,0,0,0,.00681,22.63876l0.21115,0.21115a4.379,4.379,0,0,1,.00681,6.187L9.2809,144.649a16.02346,16.02346,0,0,0,.00454,22.63649l0.21342,0.21569a4.37963,4.37963,0,0,1,.00454,6.18927l-0.22251.22023a16.02278,16.02278,0,0,0,.00227,22.63422l0.21569,0.21569a4.379,4.379,0,0,1,.00681,6.187l-0.22478.22478a16.02346,16.02346,0,0,0,.00454,22.63649l0.21342,0.21342a4.37963,4.37963,0,0,1,.00454,6.18927l-0.22251.22251a16.02278,16.02278,0,0,0,.00227,22.63422L9.49886,255.284a4.37963,4.37963,0,0,1,.00454,6.18927l-0.22251.22251a16.02346,16.02346,0,0,0,.00454,22.63649l0.21342,0.21342A4.37963,4.37963,0,0,1,9.5034,290.735l-0.22251.22251a16.02278,16.02278,0,0,0,.00227,22.63422l0.21569,0.21569a16.00013,16.00013,0,0,0,22.62967.00227l0.22251-.22023a4.37688,4.37688,0,0,1,6.19381.00227l0.21569,0.21569a16.00014,16.00014,0,0,0,22.63422-.00227l0.218-.21569a4.37963,4.37963,0,0,1,6.18927-.00454l0.22023,0.22251a16.02278,16.02278,0,0,0,22.63422-.00227l0.21569-.218a4.38169,4.38169,0,0,1,6.18927-.00227l0.22251,0.22251a16.00562,16.00562,0,0,0,22.63422-.00227l0.21569-.218a4.37688,4.37688,0,0,1,6.18927-.00227l0.2225,0.22251a16.00288,16.00288,0,0,0,22.6274.00227l0.22251-.2225a4.37688,4.37688,0,0,1,6.19381.00227l0.218,0.218a16.00562,16.00562,0,0,0,22.63422-.00227l0.21569-.218a4.37688,4.37688,0,0,1,6.18927-.00227l0.22251,0.22251a16.00288,16.00288,0,0,0,22.63422-.00454l0.21569-.21569a16.00562,16.00562,0,0,0,.00227-22.62967l-0.22251-.22023a4.38237,4.38237,0,0,1,0-6.19154l0.22023-.22023a16.1051,16.1051,0,0,0,2.16148-2.686l30.25388-9.74708a5.81211,5.81211,0,0,0,4.03007-5.53311V251.55363l16.47446,5.38326A25.35489,25.35489,0,1,0,285.90011,252.93179Zm-9.06595-28.71224a13.74,13.74,0,1,1,4.62039-.80147l-0.697.227A13.66434,13.66434,0,0,1,276.83417,224.21956ZM212.38489,241.105l7.46981,2.44074-7.404,2.42031a15.95912,15.95912,0,0,0,.15439-2.216A16.22274,16.22274,0,0,0,212.38489,241.105Zm20.34559-5.58079L131.01388,202.28691a75.88349,75.88349,0,0,1,38.17551,2.20235l63.54109,20.475v10.55991Zm-33.03519,69.84616-0.21569.218a4.38237,4.38237,0,0,1-6.18927.00227l-0.22251-.22251a16.00562,16.00562,0,0,0-22.63422.00227l-0.21569.218a4.37962,4.37962,0,0,1-6.19381-.00454l-0.218-.21569a16.00288,16.00288,0,0,0-22.6274-.00227l-0.22251.22251a4.38237,4.38237,0,0,1-6.18927.00227l-0.22023-.22251a16.00562,16.00562,0,0,0-22.63422.00227l-0.218.218a4.37688,4.37688,0,0,1-6.18927.00227l-0.22023-.22251a16.02484,16.02484,0,0,0-22.63422.00227l-0.218.218a4.38169,4.38169,0,0,1-6.18927.00227l-0.22023-.22251a16.00288,16.00288,0,0,0-22.63422.00454l-0.218.21569a4.37688,4.37688,0,0,1-6.19381-.00227l-0.21569-.218A16.00562,16.00562,0,0,0,24.132,305.3658l-0.22251.22251a4.37688,4.37688,0,0,1-6.19381-.00227l-0.21569-.218a4.38169,4.38169,0,0,1-.00227-6.18927l0.22251-.22023a16.02553,16.02553,0,0,0-.00681-22.63649L17.5,276.10865a4.38169,4.38169,0,0,1-.00227-6.18927l0.22251-.22251a16.02484,16.02484,0,0,0-.00454-22.63422L17.5,246.847a4.38169,4.38169,0,0,1-.00227-6.18927l0.22251-.22251a16.02553,16.02553,0,0,0-.00681-22.63649L17.5,217.58527a4.38308,4.38308,0,0,1-.00681-6.187l0.227-.22478a16.02484,16.02484,0,0,0-.00454-22.63422L17.5,188.32359a4.38169,4.38169,0,0,1-.00227-6.18927l0.22251-.22251a16.02552,16.02552,0,0,0-.00681-22.63649L17.5,159.0619a4.38308,4.38308,0,0,1-.00681-6.187l0.227-.22478a16.02348,16.02348,0,0,0,0-22.62967L17.5,129.80021a4.38169,4.38169,0,0,1-.00227-6.18927l0.22251-.22251a4.37962,4.37962,0,0,1,6.19381.00454l0.21569,0.21569a16.00562,16.00562,0,0,0,22.62968.00227l0.22251-.22251a4.37963,4.37963,0,0,1,6.187-.00227l0.22251,0.22251a16.00562,16.00562,0,0,0,22.63422-.00227l0.21569-.218a4.38169,4.38169,0,0,1,6.18927-.00227l0.22251,0.22251a16.02484,16.02484,0,0,0,22.63422-.00227l0.21569-.218a4.37688,4.37688,0,0,1,6.18927-.00227l0.22251,0.22251a16.00562,16.00562,0,0,0,22.63422-.00227l0.21569-.218a4.37688,4.37688,0,0,1,6.19381.00227l0.218,0.218a16.00288,16.00288,0,0,0,22.6274.00227l0.22251-.22251a4.37688,4.37688,0,0,1,6.18927-.00227l0.22023,0.22251a16.00562,16.00562,0,0,0,22.63422-.00227l0.218-.218a4.37688,4.37688,0,0,1,6.18927-.00227l0.2225,0.22251a4.37962,4.37962,0,0,1-.00454,6.19381l-0.21569.21569a16.0221,16.0221,0,0,0,0,22.63194l0.22023,0.22023a4.37962,4.37962,0,0,1-.00227,6.19154l-0.218.218a16.02142,16.02142,0,0,0-.00227,22.62967l0.2225,0.22251a4.37962,4.37962,0,0,1-.00454,6.19381l-0.21569.21569a15.95912,15.95912,0,0,0-4.66352,11.99257L172.754,193.42758a87.47348,87.47348,0,0,0-62.92807,3.53511,5.81062,5.81062,0,0,0,.58351,10.821L197.779,236.33246a5.78712,5.78712,0,0,0,1.6983,4.10045l0.2225,0.22251a4.37688,4.37688,0,0,1-.00227,6.19381l-0.218.21569a16.0221,16.0221,0,0,0,0,22.63194l0.22023,0.22023a4.37688,4.37688,0,0,1,0,6.19154l-0.22023.218a16.02142,16.02142,0,0,0-.00227,22.62967l0.2225,0.22251A4.37142,4.37142,0,0,1,199.69529,305.37034Zm12.34676-36.57484a15.90272,15.90272,0,0,0-4.12316-7.09973l-0.22023-.22023a4.34458,4.34458,0,0,1-.94678-1.419l25.98768-8.49152v10.56218Zm64.783,21.54894a13.73742,13.73742,0,1,1,3.92335-26.90041l0.6993,0.22932A13.73564,13.73564,0,0,1,276.82509,290.34443Z" transform="translate(-4.60176 -110.48314)"/><path class="cls-1" d="M88,144.45149H38.01584a5.81238,5.81238,0,1,0,0,11.62476H88A5.81238,5.81238,0,1,0,88,144.45149Z" transform="translate(-4.60176 -110.48314)"/><path class="cls-1" d="M112.2122,156.07624a5.81388,5.81388,0,1,0-4.10953-1.70285A5.84657,5.84657,0,0,0,112.2122,156.07624Z" transform="translate(-4.60176 -110.48314)"/></svg>