<svg id="Layer_1" data-name="Layer 1" xmlns="http://www.w3.org/2000/svg" viewBox="0 0 16.69006 23.96"><defs><style>.cls-1{fill:#393;}</style></defs><title>Apparel</title><path class="cls-1" d="M16.04542,0.22H3.88966a0.395,0.395,0,0,0-.395.395V2.60762L3.496,2.63434,3.49661,2.64553a0.39762,0.39762,0,0,0,.00665.04385l3.046,14.66329,0.003,0.01338a2.28505,2.28505,0,0,0,1.38322,1.57158l0.3207,4.19267,0.00061,0.00679A1.12628,1.12628,0,0,0,9.36592,24.18H10.5693a1.12619,1.12619,0,0,0,1.109-1.04292l0.00061-.00679,0.3207-4.19267A2.28447,2.28447,0,0,0,13.38287,17.366l0.003-.01338,3.046-14.66333a0.42322,0.42322,0,0,0,.0066-0.04385L16.439,2.6343l0.00136-.02672V0.615A0.39488,0.39488,0,0,0,16.04542.22ZM10.89154,23.06609a0.34034,0.34034,0,0,1-.32234.324H9.36583a0.34027,0.34027,0,0,1-.32234-0.324l-0.3024-3.9534,0.00548,0.00014c0.038,0.00169.07609,0.00281,0.11447,0.00281h2.21288c0.03837,0,.07651-0.00108.11447-0.00281l0.00552-.00014Zm4.759-20.85339H7.21532a0.395,0.395,0,1,0,0,.78993h8.34477L12.614,17.1849a1.51362,1.51362,0,0,1-1.09149,1.08017l-0.00154.00033c-0.03262.00894-.06552,0.01657-0.09851,0.02359l-0.026.00519q-0.04078.008-.08194,0.0139c-0.01881.00262-.03777,0.00473-0.05672,0.00674-0.01994.0022-.03992,0.00459-0.06,0.006-0.0409.00295-.08213,0.00491-0.12382,0.00491H8.86112c-0.0417,0-.08288-0.002-0.12382-0.00491-0.02008-.00145-0.04-0.00388-0.06-0.006-0.019-.00206-0.038-0.00412-0.05672-0.00674q-0.04113-.0059-0.08194-0.0139l-0.026-.00519c-0.033-.007-0.06594-0.01465-0.09851-0.02359l-0.00154-.00033A1.514,1.514,0,0,1,7.32113,17.1849L4.37508,3.00259H5.63555a0.395,0.395,0,0,0,0-.78993H4.28462V1.00988H15.65051V2.2127Z" transform="translate(-3.49469 -0.22)"/><path class="cls-1" d="M12.90732,5.36162H7.02781a0.395,0.395,0,0,0-.395.395v4.33709a0.395,0.395,0,0,0,.395.395h3.21537a0.395,0.395,0,0,0,0-.78993H7.42273V6.1515h5.08963v3.5472H11.8229a0.395,0.395,0,0,0,0,.78993h1.08442a0.395,0.395,0,0,0,.395-0.395V5.75654A0.39494,0.39494,0,0,0,12.90732,5.36162Z" transform="translate(-3.49469 -0.22)"/><path class="cls-1" d="M19.78983,16.1921h-4.8753a0.395,0.395,0,0,0-.395.395v6.1448A1.44978,1.44978,0,0,0,15.9677,24.18h2.76892a1.44975,1.44975,0,0,0,1.44813-1.44813v-6.1448A0.39494,0.39494,0,0,0,19.78983,16.1921Zm-0.395,6.53977a0.659,0.659,0,0,1-.65825.65825H15.96769a0.65893,0.65893,0,0,1-.65825-0.65825V16.982h4.08541v5.74988h0Z" transform="translate(-3.49469 -0.22)"/></svg>