<?xml version="1.0" encoding="utf-8"?>
<!-- Generator: Adobe Illustrator 19.2.0, SVG Export Plug-In . SVG Version: 6.00 Build 0)  -->
<svg version="1.1" id="Layer_1" xmlns="http://www.w3.org/2000/svg" xmlns:xlink="http://www.w3.org/1999/xlink" x="0px" y="0px"
	 viewBox="0 0 30 32" style="enable-background:new 0 0 30 32;" xml:space="preserve">
<style type="text/css">
	.st0{fill:none;stroke:#2E3192;stroke-miterlimit:10;}
</style>
<g id="XMLID_215_">
	<line id="XMLID_204_" class="st0" x1="17.7" y1="23.5" x2="21.6" y2="23.5"/>
	<path id="XMLID_203_" class="st0" d="M17.7,23.5"/>
	<path id="XMLID_212_" class="st0" d="M26.8,22v-4.9c0-0.6-0.6-1.5-1-1.6V6.8c0-0.2-0.2-0.4-0.4-0.4h-8.2c-0.2,0-0.3,0.1-0.3,0.3
		l-1.6,7.4c0,0.2-0.2,0.3-0.3,0.3h-2.2c-0.2,0-0.3,0.1-0.3,0.3l-1.6,5.8c0,0,0,0.1,0,0.1v2.5c0,0.2,0.2,0.4,0.4,0.4h2.5"/>
	<path id="XMLID_211_" class="st0" d="M24,14.1V8.8c0-0.2-0.2-0.4-0.4-0.4h-4.9c-0.2,0-0.3,0.1-0.3,0.3L17.4,14
		c0,0.2,0.1,0.4,0.3,0.4h6C23.9,14.4,24,14.3,24,14.1z"/>
	<path id="XMLID_213_" class="st0" d="M13.4,6.5L7.6,23.2c0,0.1-0.2,0.2-0.3,0.2H3.3"/>
	<circle id="XMLID_214_" class="st0" cx="15.7" cy="23.5" r="2.1"/>
	<circle id="XMLID_216_" class="st0" cx="23.7" cy="23.5" r="2.1"/>
</g>
</svg>
