<svg id="Layer_1" data-name="Layer 1" xmlns="http://www.w3.org/2000/svg" viewBox="0 0 23.67944 23.69424"><defs><style>.cls-1{fill:#393;}</style></defs><title>Apparel</title><g id="Layer_3" data-name="Layer 3"><path class="cls-1" d="M15.2405,10.98273c0,2.74885,1.19193,4.90238,2.71389,4.90238s2.71389-2.15353,2.71389-4.90238-1.19193-4.90238-2.71389-4.90238S15.2405,8.23388,15.2405,10.98273Zm4.78029,0c0,2.30653-.94625,4.2549-2.0664,4.2549s-2.0664-1.94837-2.0664-4.2549,0.94625-4.2549,2.0664-4.2549S20.02078,8.6762,20.02078,10.98273Z" transform="translate(0 -0.35288)"/><path class="cls-1" d="M23.3557,0.35288H12.5538a0.32411,0.32411,0,0,0-.32374.32374V2.28609l0.00185,0.01665a0.03977,0.03977,0,0,0,0,.0148l0.949,9.605H12.79985V11.60987a1.62167,1.62167,0,0,0-1.30607-1.58911,6.26265,6.26265,0,0,0-1.18767-3.39282l-0.801-1.10442a0.32152,0.32152,0,0,0-.25714-0.1332,0.30487,0.30487,0,0,0-.26084.1258l-0.962,1.25612A3.30865,3.30865,0,0,1,5.41482,8.0598a2.25695,2.25695,0,0,0-2.23475,1.9591,1.62019,1.62019,0,0,0-1.319,1.591v0.31264H1.42632a0.32411,0.32411,0,0,0-.32374.32374V14.3774H0.32374A0.323,0.323,0,0,0,0,14.69966V18.3511a9.08143,9.08143,0,0,0,1.9184,5.57022,0.32152,0.32152,0,0,0,.25529.1258H12.48721a0.32152,0.32152,0,0,0,.25529-0.1258,9.04888,9.04888,0,0,0,1.208-2.0664v1.11367a1.065,1.065,0,0,0,1.06372,1.06372H20.862a1.06391,1.06391,0,0,0,1.06372-1.06372V19.81812a0.30062,0.30062,0,0,0,.03145-0.1073L23.67759,2.31753V2.30273l0.00185-.01665V0.67662A0.32411,0.32411,0,0,0,23.3557.35288h0ZM2.50854,11.60986a0.97419,0.97419,0,0,1,.97493-0.97123H6.227a0.32374,0.32374,0,1,0,0-.64748H3.84051A1.60946,1.60946,0,0,1,5.41482,8.70728a3.95706,3.95706,0,0,0,3.12273-1.541l0.69928-.91018L9.78072,7.009a5.58687,5.58687,0,0,1,1.06,2.98213H10.21546a0.32374,0.32374,0,1,0,0,.64748h0.89908a0.182,0.182,0,0,0,.03145-0.0037,0.16168,0.16168,0,0,0,.0296.0037h0.00555a0.97345,0.97345,0,0,1,.97123.97123v0.31264H2.50854V11.60986ZM1.75006,13.79651H5.68862a0.32374,0.32374,0,0,0,0-.64748H1.75006V12.57H12.91085v0.579H8.97229a0.32374,0.32374,0,0,0,0,.64748h3.93856V14.3774H1.75006V13.79651ZM14.01342,18.3511c0,0.16835-.0074.34039-0.0185,0.51244-0.00185.024-.00185,0.04995-0.0037,0.074-0.01295.16835-.0296,0.33669-0.0518,0.505a8.44061,8.44061,0,0,1-1.61316,3.95706H2.3328A8.44616,8.44616,0,0,1,.64749,18.3511V15.02488H14.01342V18.3511ZM21.2782,22.9686a0.4168,0.4168,0,0,1-.41624.41624H15.01424A0.4168,0.4168,0,0,1,14.598,22.9686V21.274H21.2782V22.9686Zm0-2.342H14.598V20.00312H21.2782v0.62344Zm0.0629-1.27092H14.60355l0.00555-.06475c0.01295-.12395.024-0.24789,0.03145-0.37184,0.00185-.037.00555-0.074,0.0074-0.111,0.0074-.1517.01295-0.30524,0.01295-0.45694v-3.65a0.323,0.323,0,0,0-.32226-0.32374H14.07447L12.91084,2.60983H22.99865ZM23.032,1.96234H12.87754v-0.962H23.032v0.962Z" transform="translate(0 -0.35288)"/><path class="cls-1" d="M10.21361,18.014a0.32374,0.32374,0,0,0-.32374-0.32374,2.85579,2.85579,0,0,0-1.35676.33873,2.38274,2.38274,0,0,0-1.04079-1.24114,0.32337,0.32337,0,0,0-.32448,0,2.382,2.382,0,0,0-1.04023,1.24132,2.85579,2.85579,0,0,0-1.35676-.33873,0.32374,0.32374,0,0,0-.32374.32374v0.04329a2.86632,2.86632,0,0,0,.62473,1.78669,1.79872,1.79872,0,0,0-.58126.61049,0.32393,0.32393,0,0,0,0,.3243,1.79908,1.79908,0,0,0,2.8395.36463,1.7989,1.7989,0,0,0,2.83931-.36481,0.32356,0.32356,0,0,0,0-.32411,1.79871,1.79871,0,0,0-.58107-0.61049,2.86743,2.86743,0,0,0,.62529-1.78687V18.014Zm-1.539.68319a2.20348,2.20348,0,0,1,.87059-0.333A2.25695,2.25695,0,0,1,8.3594,20.041a0.46058,0.46058,0,0,0,.07955-0.163,2.81635,2.81635,0,0,0,.1258-0.3156,2.37368,2.37368,0,0,0,.10915-0.86522H8.67463ZM7.33008,17.45388a1.72453,1.72453,0,0,1,0,2.7729A1.72434,1.72434,0,0,1,7.33008,17.45388ZM5.98646,18.69723a2.35148,2.35148,0,0,0,.10674.8593,2.29784,2.29784,0,0,0,.13727.33669,1.48838,1.48838,0,0,1,.06882.14615,2.25695,2.25695,0,0,1-1.184-1.67551,2.20534,2.20534,0,0,1,.87114.33336h0Zm0.06419,2.33427a1.15844,1.15844,0,0,1-.88594-0.41532,1.15179,1.15179,0,0,1,.37832-0.296,2.92016,2.92016,0,0,0,1.11127.54074,1.15345,1.15345,0,0,1-.60309.17057H6.05065Zm2.559,0A1.15178,1.15178,0,0,1,8.00606,20.86a2.91942,2.91942,0,0,0,1.11127-.54074,1.14992,1.14992,0,0,1,.37832.296,1.15789,1.15789,0,0,1-.88613.41624H8.6097Z" transform="translate(0 -0.35288)"/><path class="cls-1" d="M9.02039,9.99115H8.37068a0.32374,0.32374,0,0,0,0,.64748h0.6497A0.32374,0.32374,0,0,0,9.02039,9.99115Z" transform="translate(0 -0.35288)"/></g></svg>