<svg id="Layer_1" data-name="Layer 1" xmlns="http://www.w3.org/2000/svg" viewBox="0 0 381.30558 308.45826"><defs><style>.cls-1{fill:#f7ecf4;}.cls-2{fill:none;stroke:#343896;stroke-miterlimit:10;stroke-width:0.9166px;}.cls-19,.cls-3{isolation:isolate;}.cls-3{font-size:10.99925px;font-family:Keep the Faith;}.cls-3,.cls-6{fill:#009a4d;}.cls-4{fill:#393;}.cls-5{fill:#343896;}.cls-7{fill:#81441d;}.cls-8{fill:#efc4a3;}.cls-9{fill:#fcdfbb;}.cls-10{fill:#303030;}.cls-11{fill:#fffff3;}.cls-12{fill:#363b92;}.cls-13{fill:#818cc1;}.cls-14{fill:#5b67a8;}.cls-15{fill:#fffffc;}.cls-16{fill:#ccd0d6;}.cls-17{fill:#232020;}.cls-18{fill:#d62677;}.cls-19{fill:#29235c;opacity:0.5;}</style></defs><title>customer-service</title><path class="cls-1" d="M315.75478,74.753c9.04742-2.48062,18.23288-4.915,27.614-4.98164s19.12469,2.4867,26.01187,8.85666c10.27292,9.50147,12.03247,24.95368,11.92,38.94646-0.14758,18.35928-2.44333,36.91133-9.16794,53.99539s-18.15152,32.67574-33.80823,42.26492c-20.35977,12.46967-45.40674,13.73389-69.264,14.65363l-148.435,5.72241c-16.32778.62946-32.8828,1.239-48.80757-2.42079-38.191-8.777-68.65926-44.17133-71.65754-83.243-0.3092-4.02925-.32271-8.24,1.36931-11.90987,2.28522-4.95644,7.26869-8.07411,12.22359-10.3627,17.69747-8.17413,33.11907-5.82472,51.6263-4.94131a390.13147,390.13147,0,0,0,62.10152-2.27039c41.42218-4.65141,82.00255-14.74248,122.11986-25.7787C271.681,87.20991,293.66955,80.80838,315.75478,74.753Z" transform="translate(0 -0.00037)"/><polygon class="cls-2" points="315.048 183.849 297.898 154.061 315.121 124.23 349.494 124.187 366.643 153.976 349.42 183.807 315.048 183.849"/><polygon class="cls-2" points="243.822 60.12 226.673 30.333 243.896 0.502 278.267 0.459 295.417 30.247 278.194 60.078 243.822 60.12"/><polygon class="cls-2" points="243.651 307.929 226.502 278.14 243.725 248.309 278.097 248.267 295.246 278.055 278.023 307.886 243.651 307.929"/><polygon class="cls-2" points="100.964 308 83.815 278.212 101.038 248.381 135.41 248.339 152.56 278.127 135.337 307.958 100.964 308"/><polygon class="cls-2" points="29.487 184.129 12.338 154.34 29.561 124.509 63.932 124.467 81.082 154.256 63.859 184.086 29.487 184.129"/><polygon class="cls-2" points="101.044 60.28 83.894 30.491 101.117 0.66 135.489 0.618 152.638 30.407 135.415 60.238 101.044 60.28"/><text class="cls-3" transform="translate(108.8603 73.81592)">24/7</text><text class="cls-3" transform="translate(97.74607 87.01513)">SUPPORT</text><text class="cls-3" transform="translate(243.32709 73.81592)">FRIENDLY</text><text class="cls-3" transform="translate(251.80274 147.21625)">POSITIVE</text><text class="cls-3" transform="translate(84.33103 148.82074)">SOLUTION</text><text class="cls-3" transform="translate(84.77927 242.42132)">FEEDBACK</text><text class="cls-3" transform="translate(243.8974 242.42035)">QUALITY</text><g id="surface1"><path class="cls-4" d="M280.53829,268.589l-0.0014-.036c-0.02017-.44464-0.03354-0.9151-0.04169-1.43848a4.9062,4.9062,0,0,0-4.61954-4.80637,19.0381,19.0381,0,0,1-12.9577-5.46152l-0.03-.02863a2.96243,2.96243,0,0,0-4.02621,0l-0.03.02863a19.03991,19.03991,0,0,1-12.95769,5.46188,4.90594,4.90594,0,0,0-4.61955,4.80637c-0.00778.51987-.02155,0.9903-0.04169,1.43814l-0.00214.08368c-0.1035,5.42725-.232,12.18176,2.02759,18.31256a23.31077,23.31077,0,0,0,5.59254,8.71109,29.25589,29.25589,0,0,0,10.94426,6.47339,3.38891,3.38891,0,0,0,.44855.12222,3.31314,3.31314,0,0,0,1.30249,0,3.39013,3.39013,0,0,0,.45029-0.12292,29.27427,29.27427,0,0,0,10.93259-6.4769,23.3452,23.3452,0,0,0,5.59256-8.71326C280.76964,280.79379,280.64144,274.02664,280.53829,268.589Zm-4.5853,17.41409c-2.38324,6.4617-7.24823,10.89932-14.873,13.56586a0.70116,0.70116,0,0,1-.08615.02328,0.61032,0.61032,0,0,1-.23874-0.00037,0.68955,0.68955,0,0,1-.08548-0.02292c-7.63287-2.66153-12.501-7.09674-14.88251-13.55878-2.08267-5.65118-1.96474-11.85153-1.86053-17.32153l0.0007-.03037c0.02119-.47009.03532-0.96243,0.04308-1.50348a2.1806,2.1806,0,0,1,2.05516-2.13425,23.832,23.832,0,0,0,8.08914-1.7793,21.16321,21.16321,0,0,0,6.592-4.42883,0.25057,0.25057,0,0,1,.33624,0,21.17094,21.17094,0,0,0,6.592,4.42883,23.83337,23.83337,0,0,0,8.08951,1.7793,2.18008,2.18008,0,0,1,2.05478,2.13458c0.00812,0.54391.02225,1.03622,0.04343,1.50314,0.10382,5.47632.219,11.68167-1.86972,17.34485h0Z" transform="translate(0 -0.00037)"/><path class="cls-4" d="M260.87414,267.639a11.53668,11.53668,0,1,0,11.5365,11.53687v-0.00037A11.54962,11.54962,0,0,0,260.87414,267.639Zm0,20.35675a8.82024,8.82024,0,1,1,8.81989-8.82059h0v0.00034a8.8301,8.8301,0,0,1-8.81989,8.82019v0.00006Z" transform="translate(0 -0.00037)"/><path class="cls-4" d="M264.18975,275.594l-5.3584,5.3584L257.377,279.498a1.35818,1.35818,0,0,0-1.92093,1.92056l2.415,2.415a1.35829,1.35829,0,0,0,1.92056,0l6.31909-6.31909A1.35818,1.35818,0,0,0,264.18975,275.594Z" transform="translate(0 -0.00037)"/></g><path class="cls-4" d="M124.30534,289.50509a4.4314,4.4314,0,0,0-.73541-0.06128h-2.35414v-1.50174a5.04136,5.04136,0,0,0,2.25094-4.19687v-2.70129a5.03291,5.03291,0,0,0-.73906-2.62958l-0.92151.56421a3.95356,3.95356,0,0,1,.58021,2.06537v0.56647l-0.142-.2623a2.46766,2.46766,0,0,0-2.1725-1.29486h-3.29558a2.46766,2.46766,0,0,0-2.1725,1.29486l-0.14169.2623v-0.56647a3.96193,3.96193,0,0,1,6.75537-2.80981l0.76183-.76633a5.04251,5.04251,0,0,0-8.5978,3.57614v2.70129a5.04132,5.04132,0,0,0,2.25118,4.19687v1.50174h-2.35412a4.40431,4.40431,0,0,0-4.39926,4.39954v4.3093H109.96v-4.3093a3.32237,3.32237,0,0,1,3.31863-3.31891h2.39571a2.79066,2.79066,0,0,0,5.49985,0h2.39571a3.33754,3.33754,0,0,1,.556.04639Zm-4.17014.54343a1.71091,1.71091,0,0,1-3.4218,0v-1.55988a5.04281,5.04281,0,0,0,3.4218,0v1.55988Zm-1.7109-2.34116a3.96594,3.96594,0,0,1-3.95874-3.83139l1.08906-2.01367a1.38774,1.38774,0,0,1,1.22175-.72839H120.072a1.38787,1.38787,0,0,1,1.222.72839l1.089,2.01334a3.96636,3.96636,0,0,1-3.95874,3.83166h0Z" transform="translate(0 -0.00037)"/><path class="cls-4" d="M125.476,289.87728l-0.46864.97354a3.33919,3.33919,0,0,1,1.88126,2.99252v4.3093h1.08063v-4.3093A4.42553,4.42553,0,0,0,125.476,289.87728Z" transform="translate(0 -0.00037)"/><path class="cls-4" d="M123.647,295.55926h1.08061v2.59338H123.647v-2.59338Z" transform="translate(0 -0.00037)"/><path class="cls-4" d="M112.121,295.55926h1.08063v2.59338H112.121v-2.59338Z" transform="translate(0 -0.00037)"/><path class="cls-4" d="M109.58838,266.39782l-1.24933-2.53094-1.24933,2.53094-2.79321.40594,2.02126,1.9704-0.47706,2.782,2.49832-1.31338,2.49832,1.31338-0.47706-2.782,2.02126-1.9704ZM109.4023,269.581l-1.06319-.55911-1.06319.55911,0.203-1.18408-0.86023-.83859,1.18883-.17261,0.53163-1.07724,0.53163,1.07724,1.18883,0.17261-0.86023.83859Z" transform="translate(0 -0.00037)"/><path class="cls-4" d="M120.0337,266.39782l-1.24933-2.53122-1.249,2.53122-2.7935.40594,2.02126,1.9704-0.47706,2.782,2.49832-1.31338,2.4986,1.31338-0.47734-2.78226,2.02125-1.97012Zm-0.18582,3.18314-1.06348-.55911-1.06319.55911,0.203-1.18408-0.86023-.83859,1.18883-.17261,0.53163-1.07724,0.53163,1.07724,1.18884,0.17261-0.86023.83859Z" transform="translate(0 -0.00037)"/><path class="cls-4" d="M128.50948,263.86663l-1.24934,2.53122-2.79321.40594,2.02126,1.97012-0.47707,2.78226,2.49832-1.31338,2.4986,1.31338-0.47734-2.78226,2.02126-1.97012-2.79321-.40594Zm1.06319,5.71436-1.06319-.55911-1.06348.55911,0.20325-1.18408-0.86024-.83859,1.18883-.17261,0.53162-1.07724,0.53163,1.07724,1.18883,0.17261-0.86024.83859Z" transform="translate(0 -0.00037)"/><path class="cls-4" d="M134.84876,261.30563h-6.6347v1.08063h6.63472a0.9015,0.9015,0,0,1,.90042.90045v9.36469a0.90152,0.90152,0,0,1-.90042.90073H110.32011v3.81958l-5.41157-3.81958h-2.90876a0.90154,0.90154,0,0,1-.90043-0.90073v-4.706h-1.08063v4.706a1.98321,1.98321,0,0,0,1.98106,1.981h2.56607l6.83489,4.82486v-4.82486h23.448a1.98317,1.98317,0,0,0,1.98106-1.981v-9.36478A1.9832,1.9832,0,0,0,134.84876,261.30563Z" transform="translate(0 -0.00037)"/><path class="cls-4" d="M101.09938,263.28662a0.90148,0.90148,0,0,1,.90043-0.90045h25.13388v-1.08063H101.9998a1.9832,1.9832,0,0,0-1.98106,1.981v3.57809h1.08063v-3.578Z" transform="translate(0 -0.00037)"/><path class="cls-4" d="M111.04037,293.84329H112.121a1.15911,1.15911,0,0,1,1.15767-1.15793V291.605A2.24091,2.24091,0,0,0,111.04037,293.84329Z" transform="translate(0 -0.00037)"/><path class="cls-4" d="M134.59659,266.16812v-2.70129H131.8953v1.08032H133.516v1.621h1.08063v0Z" transform="translate(0 -0.00037)"/><path class="cls-4" d="M102.18,269.69784v2.70157h2.70129v-1.08063h-1.62094v-1.621H102.18v0.00006Z" transform="translate(0 -0.00037)"/><path class="cls-4" d="M115.723,295.73947h1.08035v1.08035H115.723v-1.08035Z" transform="translate(0 -0.00037)"/><path class="cls-4" d="M117.884,295.73947h1.08068v1.08035H117.884v-1.08035Z" transform="translate(0 -0.00037)"/><path class="cls-4" d="M120.04523,295.73947h1.08031v1.08035H120.0452v-1.08035h0Z" transform="translate(0 -0.00037)"/><path class="cls-4" d="M327.68734,146.86163a6.27652,6.27652,0,0,0-4.68585-4.5497,5.58528,5.58528,0,1,0-6.98688.0007,6.28966,6.28966,0,0,0-4.88483,6.12048v2.79251a4.88812,4.88812,0,0,0,2.79254,4.40868v16.88423a3.12863,3.12863,0,0,0,5.585,1.95055,3.12863,3.12863,0,0,0,5.585-1.95055V158.20687h6.28323v-4.18877H329.9793a1.39626,1.39626,0,0,1,0-2.79251h1.39624v-4.18877H327.73Zm-12.3688-8.90044a4.18877,4.18877,0,1,1,4.18878,4.18877,4.18876,4.18876,0,0,1-4.18878-4.18877v0h0Zm2.09439,5.585h4.18878a4.87565,4.87565,0,0,1,4.67325,3.49065h-3.9751a2.09694,2.09694,0,0,0-2.09439,2.09439v2.09439h-3.49063a0.69884,0.69884,0,0,1-.69815-0.69812v-3.49065h-1.39624v2.79251h-2.09439v-1.39626a4.89273,4.89273,0,0,1,4.8869-4.88693h0Zm-4.88687,7.67943h2.22284a2.09153,2.09153,0,0,0,1.96594,1.39626h3.49063v2.09439h-4.18878a3.49463,3.49463,0,0,1-3.4906-3.49062h0Zm11.17,21.29291a1.74532,1.74532,0,0,1-3.49063,0V158.905h-1.39624v13.61349a1.74532,1.74532,0,0,1-3.49063,0V156.05664a4.90361,4.90361,0,0,0,.69815.05585h4.18878a2.09694,2.09694,0,0,0,2.09439,2.09439h1.39624v14.31163h0Zm6.28317-22.68918a2.79252,2.79252,0,0,0,0,5.585v1.39627h-7.67935a0.69884,0.69884,0,0,1-.69815-0.69812v-6.98129a0.69884,0.69884,0,0,1,.69815-0.69812h7.67941v1.39626h-0.00006Z" transform="translate(0 -0.00037)"/><path class="cls-4" d="M351.33224,155.41438a2.51575,2.51575,0,0,0,.289-1.1533,2.54928,2.54928,0,0,0-.08658-0.65694l-1.63571-6.13451a7.298,7.298,0,0,0-4.73193-5.02722,5.58048,5.58048,0,1,0-6.41791.162l-0.111-.01118a4.1754,4.1754,0,0,1-3.772-4.1678v-3.60579a2.44346,2.44346,0,0,0-4.8869,0v4.57274a7.61641,7.61641,0,0,0,5.38116,7.31567,12.924,12.924,0,0,0-2.58865,7.76318v8.62259H334.168v9.77373a2.7809,2.7809,0,0,0,4.8869,1.82771,2.78091,2.78091,0,0,0,4.8869-1.82771v-7.9817a2.74181,2.74181,0,0,0,1.2294.30229h5.91943a2.809,2.809,0,0,0,2.78275-2.56073l0.6011-7.213h-3.14227Zm-13.67352-17.45322a4.18877,4.18877,0,1,1,4.18878,4.18877,4.18876,4.18876,0,0,1-4.18878-4.18877v0h0Zm-6.28317,1.43117v-4.57269a1.0472,1.0472,0,0,1,2.09439,0v3.60583a5.56143,5.56143,0,0,0,4.72491,5.51245,12.914,12.914,0,0,0-1.83469,1.58826,6.23279,6.23279,0,0,1-4.98465-6.13376h0Zm2.79254,15.07887a11.53882,11.53882,0,0,1,7.79459-10.925h1.91986a5.90348,5.90348,0,0,1,4.6684,4.283l1.63571,6.13446a1.18968,1.18968,0,0,1,.03842.29739,1.15453,1.15453,0,0,1-1.15332,1.15331h-0.24219a1.15817,1.15817,0,0,1-1.10934-.83707l-1.61758-5.66322a5.69772,5.69772,0,0,0-4.08615-3.9514l-0.33792,1.35435a4.28729,4.28729,0,0,1,2.26334,1.43605v7.66125h-2.15512l0.067,0.80425a2.92854,2.92854,0,0,0-.70441-0.10611,2.09439,2.09439,0,0,0-.01053,4.18877h0.01053a3.14913,3.14913,0,0,0,1.02835-.20177l0.13266,1.598h-8.14227v-1.39626a2.79253,2.79253,0,0,0,.02646-5.585h-0.02646v-0.245H334.168Zm11.17-3.14716,1.03888,3.63658a2.50307,2.50307,0,0,0,.18362.45309h-1.22244v-4.08963h0Zm-3.28259,7.31219a2.15786,2.15786,0,0,1-.90616.26877,0.69813,0.69813,0,0,1-.00623-1.39626h0.00623a2.10206,2.10206,0,0,1,.83148.23178Zm-7.88745-2.52374a1.39626,1.39626,0,0,1,0,2.79251V156.1125Zm2.79254,18.15134a1.39768,1.39768,0,0,1-1.39624-1.39624v-9.7738h2.79254v9.77374a1.39766,1.39766,0,0,1-1.3963,1.39629h0v0Zm4.18878,0a1.39768,1.39768,0,0,1-1.39624-1.39624v-9.7738H342.473c0.01956,0.07471.04745,0.1452,0.07263,0.2178v9.55592a1.39766,1.39766,0,0,1-1.39618,1.39629h0Zm11.3327-11.7523A1.40544,1.40544,0,0,1,351.09,163.7919h-5.91943a1.40544,1.40544,0,0,1-1.39206-1.28036l-0.474-5.70091h9.65231Z" transform="translate(0 -0.00037)"/><path class="cls-4" d="M344.64,158.20687h1.39624v4.18875H344.64v-4.18875Z" transform="translate(0 -0.00037)"/><path class="cls-4" d="M347.43255,158.20687h1.39624v4.18875h-1.39624v-4.18875Z" transform="translate(0 -0.00037)"/><path class="cls-4" d="M350.225,158.20687h1.39624v4.18875H350.225v-4.18875Z" transform="translate(0 -0.00037)"/><path class="cls-4" d="M338.35683,154.01812a2.09439,2.09439,0,1,0-2.09439-2.09439,2.09439,2.09439,0,0,0,2.09439,2.09439h0Zm0-2.79251a0.60649,0.60649,0,1,1-.00009,0h0.00009Z" transform="translate(0 -0.00037)"/><path class="cls-4" d="M55.65981,133.32881H30.87522A4.82551,4.82551,0,0,0,26.056,138.148v24.72743a4.82551,4.82551,0,0,0,4.81923,4.81923h7.57306v-1.37689H30.87522a3.44643,3.44643,0,0,1-3.44231-3.44231V151.22879h4.42133a0.74086,0.74086,0,0,0,.63062-1.02167,2.75384,2.75384,0,1,1,5.04228,0,0.714,0.714,0,0,0,.63062,1.02177H42.579v4.13074a4.0298,4.0298,0,0,0-.68846-0.05714,4.13076,4.13076,0,0,0-1.65231,7.9173l0.55077-1.26125a2.75384,2.75384,0,0,1,1.10153-5.27914,2.72032,2.72032,0,0,1,1.10154.2327,0.68849,0.68849,0,0,0,.96385-0.63063v-5.05269h3.50082a4.03042,4.03042,0,0,0-.05852.68846,4.14247,4.14247,0,0,0,3.30462,4.04814l0.27539-1.34869a2.76283,2.76283,0,0,1-2.20307-2.69945,2.72023,2.72023,0,0,1,.2327-1.10155,0.68846,0.68846,0,0,0-.63062-0.96385H43.956V146.351a4.03049,4.03049,0,0,0,.68846.05852,4.13077,4.13077,0,0,0,0-8.26152,4.03048,4.03048,0,0,0-.68846.05852v-3.50079H55.65981a3.44643,3.44643,0,0,1,3.44231,3.44231v11.70383h-4.4213a0.68844,0.68844,0,0,0-.63062.96385,2.7203,2.7203,0,0,1,.2327,1.10155h1.37692a4.03042,4.03042,0,0,0-.05852-0.68846h4.18924a0.68849,0.68849,0,0,0,.68846-0.68846V138.148A4.82551,4.82551,0,0,0,55.65981,133.32881Zm-11.01537,6.19614a2.75384,2.75384,0,0,1,0,5.50768,2.72032,2.72032,0,0,1-1.10154-.2327,0.68849,0.68849,0,0,0-.96385.63063v4.36415h-3.496a4.02032,4.02032,0,0,0,.0537-0.63133v-0.05714a4.13077,4.13077,0,0,0-8.26153,0v0.05714a4.02032,4.02032,0,0,0,.0537.63133H27.433V138.148a3.44643,3.44643,0,0,1,3.44231-3.44231H42.57905v4.4213a0.68846,0.68846,0,0,0,.96385.63063A2.72036,2.72036,0,0,1,44.64444,139.52494Z" transform="translate(0 -0.00037)"/><path class="cls-4" d="M65.891,162.92024l-5.78789-3.9855-2.223-5.93935a0.68842,0.68842,0,0,0-.8853-0.40508h0l-0.03786.01541L52.482,154.585a0.68844,0.68844,0,0,0-.36488.87572c0.07435,0.19276.14391,0.33871,0.21756,0.49017a5.25254,5.25254,0,0,1,.22513.517,2.75493,2.75493,0,1,1-5.32455.82753,0.68846,0.68846,0,0,0-.9308-0.68021L41.521,158.417a0.68841,0.68841,0,0,0-.40206.88536l1.717,4.58722a3.8818,3.8818,0,0,0-.66781.18451,4.13973,4.13973,0,1,0,3.52836,7.45673l1.231,3.28809a0.68834,0.68834,0,0,0,.886.40324h0l0.00016-.00006,0.00121-.00043,6.82127-2.57a3.697,3.697,0,0,0,2.18035,1.947l0.43505-1.30807a2.32154,2.32154,0,0,1-1.31633-1.12494l2.07571-.7814a4.80485,4.80485,0,0,0,4.53353,3.19514v-1.377a3.46362,3.46362,0,0,1-3.44231-3.44231,0.68835,0.68835,0,0,0-.20172-0.48672l-2.39722-2.39722a1.021,1.021,0,0,1-.09432-1.328,1.00231,1.00231,0,0,1,.74009-0.40343,0.98724,0.98724,0,0,1,.79035.29535l4.80682,4.80682,0.97349-.9735L62.29725,167.851a4.80264,4.80264,0,0,0-.06127-3.21855l-1.29017-3.44574,4.16036,2.86469a2.06961,2.06961,0,0,1,.88055,1.69225v8.89285h1.37685v-8.89282A3.44839,3.44839,0,0,0,65.891,162.92024ZM60.94654,165.115a3.45021,3.45021,0,0,1,.201,1.58553L58.9128,164.4665a2.3924,2.3924,0,0,0-3.43156,3.33447l0.00251,0.00258,0.00327,0.00336,0.04269,0.04272,2.1776,2.17761L47.978,173.69189l-1.31221-3.50633a0.68843,0.68843,0,0,0-.495-0.43028,0.69688,0.69688,0,0,0-.1494-0.01649,0.68862,0.68862,0,0,0-.48192.19621,2.75386,2.75386,0,1,1-2.88327-4.57077,2.64983,2.64983,0,0,1,.68089-0.15421,2.44367,2.44367,0,0,1,.43167-0.01447,0.68848,0.68848,0,0,0,.68089-0.92873l-1.79826-4.80133,3.27844-1.23441a4.132,4.132,0,1,0,7.92211-2.243c-0.06334-.16936-0.12048-0.3036-0.17556-0.42342l3.16692-1.4024Z" transform="translate(0 -0.00037)"/><path class="cls-4" d="M281.37353,16.98814a0.96193,0.96193,0,1,0,.2803.67871A0.96191,0.96191,0,0,0,281.37353,16.98814Z" transform="translate(0 -0.00037)"/><path class="cls-4" d="M259.32369,39.59829a0.96194,0.96194,0,1,0,.2803.67871A0.96194,0.96194,0,0,0,259.32369,39.59829Z" transform="translate(0 -0.00037)"/><path class="cls-4" d="M283.69887,20.17653a0.96,0.96,0,1,0-1.669.94913h0A12.89678,12.89678,0,0,1,279.93615,36.58l-0.728.728a3.5949,3.5949,0,0,0-.81955-1.26545l-9.86444-9.86433a6.633,6.633,0,0,0,1.76443-1.26411l1.892-1.892a0.96009,0.96009,0,0,0-1.35782-1.35771h0l-1.892,1.892a4.67517,4.67517,0,0,1-3.32742,1.37824h-3.782a0.96064,0.96064,0,0,0-.67889.28118l-2.89539,2.89532a2.20513,2.20513,0,0,1-3.12421-3.11284l0.00568-.00567h0l6.61008-6.61a12.92054,12.92054,0,0,1,15.33548-2.16034,0.96011,0.96011,0,0,0,.93137-1.67922h0a14.89356,14.89356,0,0,0-9.13062-1.71943,14.63112,14.63112,0,0,0-7.82321,3.56961,14.7875,14.7875,0,0,0-20.25137,21.53458l0.36182,0.36181a0.9603,0.9603,0,0,0,.2067.1561,3.60965,3.60965,0,0,0,3.60426,3.3348c0.04808,0,.09625-0.00153.14439-0.00345-0.00191.04858-.00356,0.09716-0.00356,0.146a3.61484,3.61484,0,0,0,3.6136,3.61608h0.00423c0.04808,0,.09625-0.00153.14439-0.00345-0.00192.04858-.00356,0.09716-0.00356,0.146a3.615,3.615,0,0,0,3.61391,3.61608h0.00409c0.04868,0,.09735-0.00153.146-0.00345a3.61627,3.61627,0,0,0,6.17081,2.70437l1.34177-1.34191,1.81238,1.81213a3.61609,3.61609,0,0,0,6.16965-2.73941c0.06027,0.003.12076,0.0047,0.18115,0.0047a3.61142,3.61142,0,0,0,3.61591-3.60689v0h0q0.00009-.07688-0.00308-0.15372c0.04858,0.00192.09714,0.00355,0.146,0.00355a3.61413,3.61413,0,0,0,3.61563-3.61263h0v-0.0001q0-.07478-0.003-0.1495c0.04858,0.00192.09714,0.00355,0.146,0.00355a3.61578,3.61578,0,0,0,3.34277-2.23542,0.95848,0.95848,0,0,0,.25891-0.18364l1.86179-1.8618A14.8207,14.8207,0,0,0,283.69887,20.17653ZM244.9733,39.86209a1.69771,1.69771,0,0,1-1.20055-2.89819l1.65446-1.65447a1.69774,1.69774,0,0,1,2.401,2.40092l-1.65446,1.65453a1.68682,1.68682,0,0,1-1.2005.49721h0Zm2.55836,3.26155a1.698,1.698,0,0,1-.00008-2.40084l0.00008-.00008,1.65456-1.65453V39.06813a1.69771,1.69771,0,0,1,2.40094,2.40092h0l-1.65448,1.65458a1.69989,1.69989,0,0,1-2.40108.00006h0.00006v0Zm3.75864,3.75863a1.698,1.698,0,0,1-.00008-2.40084l0.00008-.00008,1.65454-1.65453V42.82673a1.69775,1.69775,0,0,1,2.40094,2.401l-1.65454,1.65453a1.69951,1.69951,0,0,1-2.401,0h0.00006Zm7.81424,2.10433L257.45,50.64121a1.69775,1.69775,0,0,1-2.40094-2.401h0l1.65454-1.65461V46.58554a1.69775,1.69775,0,0,1,2.40094,2.401h0.00006v0.00009Zm17.92633-9.18542a1.69767,1.69767,0,0,1-2.40085.0001l-0.00009-.0001-3.99612-3.99612-0.00049-.00048L266.875,32.04624a0.96008,0.96008,0,0,0-1.35782,1.35771h0l7.755,7.75476a1.69775,1.69775,0,0,1-2.40094,2.401h0l-7.755-7.75485a0.96012,0.96012,0,0,0-1.35782,1.3578l3.758,3.75786,0.00089,0.00092,3.99625,3.996a1.69782,1.69782,0,1,1-2.401,2.40116h0l-3.99625-3.99623a0.95913,0.95913,0,0,0-.24539-0.17731l-1.13974-1.13977a0.96012,0.96012,0,0,0-1.35782,1.3578l5.34732,5.34712a1.69775,1.69775,0,0,1-2.40094,2.401L261.285,49.07654a3.61874,3.61874,0,0,0-3.3808-4.90841c-0.04886,0-.09744.00163-0.146,0.00355a3.61416,3.61416,0,0,0-3.463-3.75924h0q-0.07475-.00306-0.1496-0.003c-0.04886,0-.09744.00163-0.146,0.00355a3.61415,3.61415,0,0,0-3.463-3.75924q-0.07478-.00306-0.1496-0.003c-0.04887,0-.09743.00163-0.146,0.00355a3.61577,3.61577,0,0,0-6.17113-2.70268L242.4154,35.6061a3.61712,3.61712,0,0,0-.53268.67881A12.86764,12.86764,0,0,1,259.67113,17.735l-5.89972,5.89975a4.12538,4.12538,0,0,0,5.83417,5.83412l2.61423-2.61423H265.604a6.72363,6.72363,0,0,0,.82886-0.053L277.03145,37.4a1.70057,1.70057,0,0,1-.00064,2.40113Z" transform="translate(0 -0.00037)"/><path class="cls-4" d="M123.43646,42.59424V41.95335a6.67872,6.67872,0,0,0,.5225-0.47372,9.52282,9.52282,0,0,0,2.41028-5.3082,4.68137,4.68137,0,0,0,3.02333-1.79726c1.0101-1.42807,1.10065-3.48309.25775-6.06058a0.69677,0.69677,0,0,0-.27866-0.36224l-0.3831-.25776a9.44587,9.44587,0,0,0-2.257-6.36008c-1.87389-2.11074-4.75091-3.17656-8.56139-3.1905-3.80351,0-6.68754,1.07976-8.56139,3.16263a9.44588,9.44588,0,0,0-2.257,6.36008l-0.38314.25775a0.69677,0.69677,0,0,0-.27865.36224c-0.8429,2.5914-.75234,4.63252.25775,6.06058a4.695,4.695,0,0,0,3.02331,1.81817,9.52966,9.52966,0,0,0,2.41723,5.31517,6.796,6.796,0,0,0,.52246.4737v0.64088c-2.668.5155-13.31926,3.01634-13.13814,10.1218a0.69662,0.69662,0,0,0,.69661.69662h35.40891a0.69661,0.69661,0,0,0,.69661-0.69661h0C136.75571,45.61063,126.10455,43.10972,123.43646,42.59424ZM109.553,34.611a3.02341,3.02341,0,0,1-1.47682-1.07976l0.03483,0.007c-0.69662-1.01705-.75931-2.55657-0.13932-4.59069l0.50853-.34134a0.69662,0.69662,0,0,0,.30651-0.64785,8.23376,8.23376,0,0,1,1.8948-5.73314c1.57435-1.78334,4.10306-2.675,7.4886-2.68893s5.91425,0.90561,7.51648,2.68893a8.23384,8.23384,0,0,1,1.89479,5.73314,0.69662,0.69662,0,0,0,.3065.64785l0.50854,0.34134c0.62,2.02714.57819,3.57363-.13931,4.59069a3.03775,3.03775,0,0,1-1.4838,1.07976,4.63922,4.63922,0,0,0,1.13548-3.48309,3.26024,3.26024,0,0,0-1.12154-1.95053c-0.29955-6.96614-5.18281-7.74635-7.28659-7.74635a8.78167,8.78167,0,0,0-1.33053.09753,8.76889,8.76889,0,0,0-1.33053-.09753c-2.08986,0-6.96615.76628-7.28659,7.74635a3.26013,3.26013,0,0,0-1.13548,1.94356A4.63248,4.63248,0,0,0,109.553,34.611Zm15.848-5.71227a14.35071,14.35071,0,0,1-8.32454-2.08986,0.69662,0.69662,0,0,0-.9056.09056c-1.39323,1.49773-3.9359,1.846-5.16191,1.92266,0.37617-4.92506,3.35768-5.99785,5.8655-5.99785a6.734,6.734,0,0,1,1.19121.09753,0.69516,0.69516,0,0,0,.27865,0,6.76677,6.76677,0,0,1,1.19121-.09753c2.48691,0,5.48235,1.10065,5.83067,6.06751Zm-14.14824,5.84459,0.02787,0.007a0.69638,0.69638,0,0,0-.17416-0.46674,3.92767,3.92767,0,0,1-1.27481-2.91185,1.84611,1.84611,0,0,1,.63392-1.17728c0.91953,0,4.17971-.17415,6.26957-1.97839a15.70822,15.70822,0,0,0,7.73242,2.08986,9.18589,9.18589,0,0,0,1.435-.07663,1.839,1.839,0,0,1,.627,1.14245,3.94728,3.94728,0,0,1-1.27481,2.91185,0.69643,0.69643,0,0,0-.17416.46674v0.36227l-4.0543,2.17343a2.00619,2.00619,0,1,0,.627,1.45592q0.0047-.094,0-0.18809l3.19746-1.71367a7.66337,7.66337,0,0,1-1.86693,3.67812,6.20679,6.20679,0,0,1-4.61856,1.7276h-0.34831a6.22082,6.22082,0,0,1-4.61159-1.72064c-2.20132-2.19429-2.15256-5.747-2.15256-5.78186ZM120.26,38.74191a0.62,0.62,0,1,1-.62-0.62,0.62,0.62,0,0,1,.62.62h0ZM117.4734,51.97763h-16.2868c0.55033-5.23157,9.056-7.41894,11.717-7.9832v1.24694c0,1.58132,1.92266,2.78648,4.5698,2.98848v3.74778h0Zm-3.17657-6.73626V42.838a8.42222,8.42222,0,0,0,3.699.7802h0.34831a8.42216,8.42216,0,0,0,3.699-.7802v2.40334c0,0.66179-1.51165,1.61615-3.87317,1.61615s-3.87312-.95432-3.87312-1.6161h0Zm4.5698,6.75721V48.22287c2.64715-.18112,4.5698-1.39324,4.5698-2.98848V44.01531c2.682,0.5573,11.14584,2.74466,11.717,7.9832h-16.2868v0.00007Z" transform="translate(0 -0.00037)"/><path class="cls-4" d="M139.19242,18.65525H138.2967v-5.673a0.29857,0.29857,0,0,0-.54311-0.17108l-4.18015,5.97163a0.29858,0.29858,0,0,0,.24454.46967h3.88156v0.89574a0.29858,0.29858,0,0,0,.59715,0v-0.8958h0.89574A0.29858,0.29858,0,1,0,139.19242,18.65525Zm-1.49289,0h-3.30826l3.30826-4.72592v4.72592Z" transform="translate(0 -0.00037)"/><path class="cls-4" d="M133.818,19.84963h-3.5349l3.28645-3.8699a0.32432,0.32432,0,0,0,.0209-0.02776,2.07691,2.07691,0,0,0-.46877-2.81978,2.38868,2.38868,0,0,0-3.78242,1.94017,0.29858,0.29858,0,0,0,.59715,0,1.79148,1.79148,0,0,1,2.83652-1.45528,1.47408,1.47408,0,0,1,.32845,1.99l-3.691,4.34792a0.29859,0.29859,0,0,0,.22751.49176h4.1801A0.29856,0.29856,0,1,0,133.818,19.84963Z" transform="translate(0 -0.00037)"/><path class="cls-4" d="M129.64445,18.36234a0.2986,0.2986,0,0,0-.28711-0.30963h-0.00011a7.45557,7.45557,0,0,1-7.17335-7.16051h1.18387a0.29858,0.29858,0,0,0,0-.59716h-1.18387a7.44659,7.44659,0,0,1,7.15546-7.15517v0.885a0.29858,0.29858,0,0,0,.59715,0v-0.885a7.452,7.452,0,0,1,7.15158,7.0166L135.92361,8.992a0.29858,0.29858,0,0,0-.4222.42219l1.66667,1.66667a0.29349,0.29349,0,0,0,.11765.08569,0.34064,0.34064,0,0,0,.03552.00866,0.29568,0.29568,0,0,0,.06329.01522h0.017a0.2875,0.2875,0,0,0,.06691-0.01313,0.2806,0.2806,0,0,0,.03642-0.00687,0.29409,0.29409,0,0,0,.10777-0.06748L139.302,9.41421a0.29858,0.29858,0,0,0-.4222-0.42219l-1.19342,1.1925A8.04913,8.04913,0,0,0,129.659,2.5361c-0.00745-.0003-0.01375-0.00418-0.02119-0.00418s-0.01375.00388-.02119,0.00418a8.04735,8.04735,0,0,0-8.03628,8.03628c0,0.00746-.00418.01375-0.00418,0.0212s0.00387,0.01375.00418,0.0212a8.0542,8.0542,0,0,0,7.75471,8.03478h0.011A0.29857,0.29857,0,0,0,129.64445,18.36234Z" transform="translate(0 -0.00037)"/><path class="cls-4" d="M133.64928,6.58216a0.29858,0.29858,0,0,0-.4222,0l-3.20854,3.20825a0.93512,0.93512,0,0,0-.76169,0l-1.51917-1.51917a0.29858,0.29858,0,0,0-.4222.4222l1.5162,1.51619a0.894,0.894,0,1,0,1.612.0003l3.20555-3.20556a0.29856,0.29856,0,0,0,.00006-0.42223h0Zm-3.80023,4.22247H129.849a0.30547,0.30547,0,0,1-.4222,0,0.29858,0.29858,0,1,1,.42226,0h0Z" transform="translate(0 -0.00037)"/><rect class="cls-5" x="242.22405" y="60.4155" width="2.34882" height="0.9166" transform="translate(68.98139 241.22617) rotate(-60.00013)"/><rect class="cls-5" x="240.62406" y="63.18447" width="2.3488" height="0.9166" transform="translate(65.78297 241.22462) rotate(-60)"/><rect class="cls-5" x="239.02627" y="65.95419" width="2.34882" height="0.9166" transform="translate(62.58584 241.22616) rotate(-60.00013)"/><rect class="cls-5" x="237.42631" y="68.72317" width="2.3488" height="0.9166" transform="translate(59.38745 241.22464) rotate(-60)"/><rect class="cls-5" x="235.82742" y="71.49251" width="2.3488" height="0.9166" transform="translate(56.18968 241.22463) rotate(-60)"/><rect class="cls-5" x="234.22853" y="74.26181" width="2.3488" height="0.9166" transform="translate(52.99195 241.22461) rotate(-60)"/><rect class="cls-5" x="232.62966" y="77.03115" width="2.3488" height="0.9166" transform="translate(49.7942 241.22462) rotate(-60)"/><rect class="cls-5" x="231.03186" y="79.80094" width="2.34882" height="0.9166" transform="translate(46.59696 241.2262) rotate(-60.00013)"/><rect class="cls-5" x="229.43298" y="82.5703" width="2.34882" height="0.9166" transform="translate(43.39918 241.22622) rotate(-60.00013)"/><rect class="cls-5" x="227.8341" y="85.33964" width="2.34882" height="0.9166" transform="translate(40.20141 241.22621) rotate(-60.00013)"/><rect class="cls-5" x="226.23415" y="88.10852" width="2.3488" height="0.9166" transform="translate(37.00316 241.22462) rotate(-60)"/><rect class="cls-5" x="224.63633" y="90.87835" width="2.34882" height="0.9166" transform="translate(33.80585 241.22622) rotate(-60.00013)"/><rect class="cls-5" x="223.03638" y="93.64721" width="2.3488" height="0.9166" transform="translate(30.60763 241.22462) rotate(-60)"/><rect class="cls-5" x="221.43854" y="96.41704" width="2.34882" height="0.9166" transform="translate(27.4103 241.22621) rotate(-60.00013)"/><rect class="cls-5" x="219.83863" y="99.18586" width="2.3488" height="0.9166" transform="translate(24.21214 241.22461) rotate(-60)"/><rect class="cls-5" x="218.23976" y="101.9552" width="2.3488" height="0.9166" transform="translate(21.01439 241.22462) rotate(-60)"/><rect class="cls-5" x="216.64088" y="104.72456" width="2.3488" height="0.9166" transform="translate(17.81662 241.22462) rotate(-60)"/><rect class="cls-5" x="215.04199" y="107.49389" width="2.3488" height="0.9166" transform="translate(14.61886 241.22462) rotate(-60)"/><rect class="cls-5" x="161.81555" y="200.08176" width="2.3488" height="0.9166" transform="translate(-92.17781 241.42309) rotate(-60)"/><rect class="cls-5" x="160.21667" y="202.85112" width="2.3488" height="0.9166" transform="translate(-95.37558 241.42311) rotate(-60)"/><rect class="cls-5" x="158.61778" y="205.62043" width="2.3488" height="0.9166" transform="translate(-98.57332 241.42308) rotate(-60)"/><rect class="cls-5" x="157.01889" y="208.38977" width="2.3488" height="0.9166" transform="translate(-101.77108 241.42307) rotate(-60)"/><rect class="cls-5" x="155.42003" y="211.1591" width="2.3488" height="0.9166" transform="translate(-104.96882 241.42308) rotate(-60)"/><rect class="cls-5" x="153.82115" y="213.92844" width="2.3488" height="0.9166" transform="translate(-108.16658 241.42308) rotate(-60)"/><rect class="cls-5" x="152.22229" y="216.69779" width="2.3488" height="0.9166" transform="translate(-111.36434 241.42311) rotate(-60)"/><rect class="cls-5" x="150.62339" y="219.46712" width="2.3488" height="0.9166" transform="translate(-114.56209 241.42308) rotate(-60)"/><rect class="cls-5" x="149.02452" y="222.23646" width="2.3488" height="0.9166" transform="translate(-117.75986 241.42309) rotate(-60)"/><rect class="cls-5" x="147.42565" y="225.00579" width="2.3488" height="0.9166" transform="translate(-120.9576 241.42309) rotate(-60)"/><rect class="cls-5" x="145.82675" y="227.77513" width="2.3488" height="0.9166" transform="translate(-124.15537 241.42307) rotate(-60)"/><rect class="cls-5" x="144.22787" y="230.54448" width="2.3488" height="0.9166" transform="translate(-127.35313 241.42308) rotate(-60)"/><rect class="cls-5" x="142.629" y="233.31382" width="2.3488" height="0.9166" transform="translate(-130.55089 241.42308) rotate(-60)"/><rect class="cls-5" x="141.03015" y="236.08314" width="2.3488" height="0.9166" transform="translate(-133.74862 241.4231) rotate(-60)"/><rect class="cls-5" x="139.43123" y="238.85249" width="2.3488" height="0.9166" transform="translate(-136.9464 241.42307) rotate(-60)"/><rect class="cls-5" x="137.83236" y="241.62183" width="2.3488" height="0.9166" transform="translate(-140.14415 241.42308) rotate(-60)"/><rect class="cls-5" x="136.23352" y="244.39116" width="2.34879" height="0.9166" transform="translate(-143.34189 241.4231) rotate(-60)"/><rect class="cls-5" x="134.63464" y="247.1605" width="2.34879" height="0.9166" transform="translate(-146.53965 241.4231) rotate(-60)"/><rect class="cls-5" x="135.52662" y="60.08526" width="0.9166" height="2.3488" transform="translate(-12.4113 76.19933) rotate(-30)"/><rect class="cls-5" x="137.08877" y="62.79094" width="0.9166" height="2.3488" transform="translate(-13.55485 77.3429) rotate(-30)"/><rect class="cls-5" x="138.65089" y="65.49667" width="0.9166" height="2.3488" transform="translate(-14.69843 78.48646) rotate(-30)"/><rect class="cls-5" x="140.21304" y="68.20236" width="0.9166" height="2.3488" transform="translate(-15.84199 79.63002) rotate(-30)"/><rect class="cls-5" x="141.77519" y="70.90806" width="0.9166" height="2.3488" transform="translate(-16.98555 80.77359) rotate(-30)"/><rect class="cls-5" x="143.3373" y="73.61377" width="0.9166" height="2.3488" transform="translate(-18.12912 81.91715) rotate(-30)"/><rect class="cls-5" x="144.89943" y="76.31948" width="0.9166" height="2.3488" transform="translate(-19.27269 83.06071) rotate(-30)"/><rect class="cls-5" x="146.46158" y="79.02517" width="0.9166" height="2.3488" transform="translate(-20.41625 84.20428) rotate(-30)"/><rect class="cls-5" x="148.02372" y="81.73087" width="0.9166" height="2.3488" transform="translate(-21.55981 85.34784) rotate(-30)"/><rect class="cls-5" x="149.58586" y="84.43657" width="0.9166" height="2.3488" transform="translate(-22.70338 86.49141) rotate(-30)"/><rect class="cls-5" x="151.14799" y="87.14228" width="0.9166" height="2.3488" transform="translate(-23.84694 87.63497) rotate(-30)"/><rect class="cls-5" x="152.71013" y="89.84796" width="0.9166" height="2.3488" transform="translate(-24.9905 88.77853) rotate(-30)"/><rect class="cls-5" x="154.27226" y="92.55366" width="0.9166" height="2.3488" transform="translate(-26.13406 89.92209) rotate(-30)"/><rect class="cls-5" x="155.83442" y="95.25937" width="0.9166" height="2.3488" transform="translate(-27.27763 91.06567) rotate(-30)"/><rect class="cls-5" x="157.39653" y="97.96507" width="0.9166" height="2.3488" transform="translate(-28.42119 92.20922) rotate(-30)"/><rect class="cls-5" x="158.95869" y="100.67078" width="0.9166" height="2.3488" transform="translate(-29.56476 93.35279) rotate(-30)"/><rect class="cls-5" x="160.52082" y="103.37647" width="0.9166" height="2.3488" transform="translate(-30.70832 94.49635) rotate(-30)"/><rect class="cls-5" x="162.08296" y="106.08218" width="0.9166" height="2.3488" transform="translate(-31.85189 95.63992) rotate(-30)"/><rect class="cls-5" x="216.16013" y="200.15892" width="0.9166" height="2.3488" transform="translate(-71.64529 135.2824) rotate(-30)"/><rect class="cls-5" x="217.72226" y="202.86462" width="0.9166" height="2.3488" transform="translate(-72.78885 136.42596) rotate(-30)"/><rect class="cls-5" x="219.2844" y="205.57033" width="0.9166" height="2.3488" transform="translate(-73.93242 137.56952) rotate(-30)"/><rect class="cls-5" x="220.84654" y="208.27604" width="0.9166" height="2.3488" transform="translate(-75.07599 138.71309) rotate(-30)"/><rect class="cls-5" x="222.40869" y="210.98171" width="0.9166" height="2.3488" transform="translate(-76.21954 139.85666) rotate(-30)"/><rect class="cls-5" x="223.97082" y="213.6874" width="0.9166" height="2.3488" transform="translate(-77.36309 141.00021) rotate(-30)"/><rect class="cls-5" x="225.53297" y="216.39314" width="0.9166" height="2.3488" transform="translate(-78.50668 142.14379) rotate(-30)"/><rect class="cls-5" x="227.09509" y="219.09884" width="0.9166" height="2.3488" transform="translate(-79.65025 143.28735) rotate(-30)"/><rect class="cls-5" x="228.65723" y="221.80455" width="0.9166" height="2.3488" transform="translate(-80.79381 144.43091) rotate(-30)"/><rect class="cls-5" x="230.21936" y="224.51023" width="0.9166" height="2.3488" transform="translate(-81.93737 145.57447) rotate(-30)"/><rect class="cls-5" x="231.78151" y="227.21592" width="0.9166" height="2.3488" transform="translate(-83.08092 146.71804) rotate(-30)"/><rect class="cls-5" x="233.34364" y="229.92163" width="0.9166" height="2.3488" transform="translate(-84.22449 147.8616) rotate(-30)"/><rect class="cls-5" x="234.90578" y="232.62733" width="0.9166" height="2.3488" transform="translate(-85.36805 149.00516) rotate(-30)"/><rect class="cls-5" x="236.4679" y="235.33305" width="0.9166" height="2.3488" transform="translate(-86.51163 150.14872) rotate(-30)"/><rect class="cls-5" x="238.03003" y="238.03874" width="0.9166" height="2.3488" transform="translate(-87.65519 151.29228) rotate(-30)"/><rect class="cls-5" x="239.59218" y="240.74445" width="0.9166" height="2.3488" transform="translate(-88.79875 152.43585) rotate(-30)"/><rect class="cls-5" x="241.15434" y="243.45014" width="0.9166" height="2.34879" transform="translate(-89.94231 153.57942) rotate(-30)"/><rect class="cls-5" x="242.71644" y="246.15585" width="0.9166" height="2.34879" transform="translate(-91.08588 154.72297) rotate(-30)"/><rect class="cls-5" x="242.43661" y="153.6936" width="2.3488" height="0.9166" transform="translate(-0.27562 0.43607) rotate(-0.10259)"/><rect class="cls-5" x="245.5609" y="153.68803" width="2.3488" height="0.9166" transform="translate(-0.2756 0.44167) rotate(-0.10259)"/><rect class="cls-5" x="248.68514" y="153.68243" width="2.3488" height="0.9166" transform="translate(-0.27559 0.44726) rotate(-0.10259)"/><rect class="cls-5" x="251.80943" y="153.67681" width="2.3488" height="0.9166" transform="translate(-0.27557 0.45285) rotate(-0.10259)"/><rect class="cls-5" x="254.93371" y="153.67122" width="2.34879" height="0.9166" transform="translate(-0.27556 0.45845) rotate(-0.10259)"/><rect class="cls-5" x="258.05799" y="153.66564" width="2.34879" height="0.9166" transform="translate(-0.27554 0.46404) rotate(-0.10259)"/><rect class="cls-5" x="261.18226" y="153.66005" width="2.34879" height="0.9166" transform="translate(-0.27553 0.46964) rotate(-0.10259)"/><rect class="cls-5" x="264.30653" y="153.65444" width="2.34879" height="0.9166" transform="translate(-0.27551 0.47523) rotate(-0.10259)"/><rect class="cls-5" x="267.4308" y="153.64885" width="2.34879" height="0.9166" transform="translate(-0.2755 0.48082) rotate(-0.10259)"/><rect class="cls-5" x="270.55508" y="153.64328" width="2.34879" height="0.9166" transform="translate(-0.27548 0.48642) rotate(-0.10259)"/><rect class="cls-5" x="273.67935" y="153.63767" width="2.34879" height="0.9166" transform="translate(-0.27547 0.49201) rotate(-0.10259)"/><rect class="cls-5" x="276.80362" y="153.63208" width="2.34879" height="0.9166" transform="translate(-0.27545 0.49761) rotate(-0.10259)"/><rect class="cls-5" x="279.92789" y="153.62647" width="2.34879" height="0.9166" transform="translate(-0.27544 0.5032) rotate(-0.10259)"/><rect class="cls-5" x="283.05217" y="153.62091" width="2.34879" height="0.9166" transform="translate(-0.27542 0.50879) rotate(-0.10259)"/><rect class="cls-5" x="286.17644" y="153.61531" width="2.34879" height="0.9166" transform="translate(-0.27541 0.51439) rotate(-0.10259)"/><rect class="cls-5" x="289.30075" y="153.60971" width="2.34879" height="0.9166" transform="translate(-0.27539 0.51998) rotate(-0.10259)"/><rect class="cls-5" x="292.42501" y="153.60411" width="2.34879" height="0.9166" transform="translate(-0.27538 0.52558) rotate(-0.10259)"/><rect class="cls-5" x="295.54929" y="153.59853" width="2.34879" height="0.9166" transform="translate(-0.27536 0.53117) rotate(-0.10259)"/><rect class="cls-5" x="81.08291" y="153.78738" width="2.3488" height="0.9166" transform="translate(-0.27605 0.14716) rotate(-0.10259)"/><rect class="cls-5" x="84.20718" y="153.78176" width="2.3488" height="0.9166" transform="translate(-0.27603 0.15276) rotate(-0.10259)"/><rect class="cls-5" x="87.33145" y="153.77618" width="2.3488" height="0.9166" transform="translate(-0.27602 0.15835) rotate(-0.10259)"/><rect class="cls-5" x="90.45572" y="153.77057" width="2.3488" height="0.9166" transform="translate(-0.276 0.16395) rotate(-0.10259)"/><rect class="cls-5" x="93.57999" y="153.76498" width="2.3488" height="0.9166" transform="translate(-0.27598 0.16954) rotate(-0.10259)"/><rect class="cls-5" x="96.70427" y="153.75939" width="2.3488" height="0.9166" transform="translate(-0.27597 0.17513) rotate(-0.10259)"/><rect class="cls-5" x="99.82855" y="153.75379" width="2.3488" height="0.9166" transform="translate(-0.27595 0.18073) rotate(-0.10259)"/><rect class="cls-5" x="102.95282" y="153.74822" width="2.3488" height="0.9166" transform="translate(-0.27594 0.18632) rotate(-0.10259)"/><rect class="cls-5" x="106.0771" y="153.74262" width="2.3488" height="0.9166" transform="translate(-0.27592 0.19192) rotate(-0.10259)"/><rect class="cls-5" x="109.20137" y="153.73701" width="2.3488" height="0.9166" transform="translate(-0.27591 0.19751) rotate(-0.10259)"/><rect class="cls-5" x="112.32564" y="153.73142" width="2.3488" height="0.9166" transform="translate(-0.27589 0.2031) rotate(-0.10259)"/><rect class="cls-5" x="115.44992" y="153.72583" width="2.3488" height="0.9166" transform="translate(-0.27588 0.2087) rotate(-0.10259)"/><rect class="cls-5" x="118.57421" y="153.72024" width="2.3488" height="0.9166" transform="translate(-0.27586 0.21429) rotate(-0.10259)"/><rect class="cls-5" x="121.69847" y="153.71463" width="2.3488" height="0.9166" transform="translate(-0.27585 0.21989) rotate(-0.10259)"/><rect class="cls-5" x="124.82275" y="153.70904" width="2.3488" height="0.9166" transform="translate(-0.27583 0.22548) rotate(-0.10259)"/><rect class="cls-5" x="127.94701" y="153.70347" width="2.3488" height="0.9166" transform="translate(-0.27582 0.23107) rotate(-0.10259)"/><rect class="cls-5" x="131.07131" y="153.69786" width="2.3488" height="0.9166" transform="translate(-0.2758 0.23667) rotate(-0.10259)"/><rect class="cls-5" x="134.19556" y="153.69227" width="2.3488" height="0.9166" transform="translate(-0.27579 0.24226) rotate(-0.10259)"/><polygon class="cls-6" points="162.341 201.228 135.299 154.256 162.457 107.216 216.657 107.149 243.698 154.122 216.54 201.161 162.341 201.228"/><path class="cls-7" d="M206.65316,155.31406l8.95873-3.875,5.60546,5.27453c3.15773-1.0327,5.673-7.78813,2.65473-11.51649a15.88982,15.88982,0,0,1-3.304-8.09549l-7.99341-4.32229-1.43837,2.09248h0l-3.927,4.31912s-1.96323,2.526-3.673,5.03274C200.379,148.85339,204.88362,153.76424,206.65316,155.31406Z" transform="translate(0 -0.00037)"/><path class="cls-7" d="M212.51157,128.76409a7.86921,7.86921,0,0,1,.40448,15.73323,8.02553,8.02553,0,0,1-8.06886-7.66431C204.46135,131.94989,208.167,128.87579,212.51157,128.76409Z" transform="translate(0 -0.00037)"/><path class="cls-8" d="M213.32063,151.244h0a2.41522,2.41522,0,0,1-2.60323-2.21129l-0.54242-6.71507,4.81457-.392,0.54234,6.71507A2.41533,2.41533,0,0,1,213.32063,151.244Z" transform="translate(0 -0.00037)"/><path class="cls-7" d="M210.16008,144.17227l0.24758,2.97028c4.58235-.25944,5.26593-6.101,5.26593-6.101Z" transform="translate(0 -0.00037)"/><path class="cls-9" d="M216.66688,139.76411l-0.13316-5.17824a2.40049,2.40049,0,0,0-2.45413-2.33123l-4.88389-1.23433c-1.316.03384-3.69124,2.447-3.63389,4.67778l0.13368,5.19853c0.07776,3.02322,2.59807,4.78286,5.62125,4.70515h0A6.04344,6.04344,0,0,0,216.66688,139.76411Z" transform="translate(0 -0.00037)"/><circle class="cls-10" cx="211.21132" cy="138.37045" r="0.43533" transform="translate(-12.44315 21.17247) rotate(-5.57486)"/><circle class="cls-10" cx="207.22575" cy="138.44016" r="0.4353" transform="translate(-12.46936 20.78672) rotate(-5.57514)"/><path class="cls-8" d="M209.44484,140.7102c-0.93049.277-1.02111-.37918-1.02111-0.37918l0.48113-.95374" transform="translate(0 -0.00037)"/><path class="cls-10" d="M212.67492,136.684a0.39858,0.39858,0,0,0-.39193-0.40513l-1.97105-.03309h-0.00012a0.39868,0.39868,0,0,0-.01347.79723l1.971,0.033a0.40907,0.40907,0,0,0,.08076-0.00693A0.39859,0.39859,0,0,0,212.67492,136.684Z" transform="translate(0 -0.00037)"/><path class="cls-10" d="M207.92587,136.69879a0.39862,0.39862,0,0,0-.3921-0.405l-1.20506-.02007h0a0.3986,0.3986,0,0,0-.01289.79709l1.205,0.02007a0.40583,0.40583,0,0,0,.08044-0.00683A0.39861,0.39861,0,0,0,207.92587,136.69879Z" transform="translate(0 -0.00037)"/><path class="cls-11" d="M209.52962,142.90365a2.23,2.23,0,0,1-1.76669-1.41042l3.49907,0.19324A1.6204,1.6204,0,0,1,209.52962,142.90365Z" transform="translate(0 -0.00037)"/><path class="cls-7" d="M209.18832,130.72942a5.79547,5.79547,0,0,1,6.4641.49007c3.5787,2.45767,2.68277,6.88389,2.68277,6.88389a24.44934,24.44934,0,0,1-10.8189-5.89948Z" transform="translate(0 -0.00037)"/><path class="cls-7" d="M209.10837,130.90315c-3.2547.75883-3.69879,4.56973-3.69879,4.56973a14.55351,14.55351,0,0,0,3.23708-3.64385Z" transform="translate(0 -0.00037)"/><path class="cls-7" d="M216.26592,136.2777l-0.40673,3.62315c-1.89776-.30618-1.37059-4.13437-1.37059-4.13437Z" transform="translate(0 -0.00037)"/><path class="cls-9" d="M218.90581,138.91888a1.92016,1.92016,0,0,1-1.8336,2.01244,1.93992,1.93992,0,0,1-1.943-1.92346,1.92016,1.92016,0,0,1,1.8336-2.01244A1.93992,1.93992,0,0,1,218.90581,138.91888Z" transform="translate(0 -0.00037)"/><path class="cls-8" d="M194.42362,170.947a9.2534,9.2534,0,0,0,3.24188-1.8931l1.66792-1.36327c0.55353-.45244,1.10725-0.905,1.64368-1.37753a3.37476,3.37476,0,0,0,.81537-0.9334c0.42592-.82257.15958-1.81477,0.19914-2.74023a8.11671,8.11671,0,0,1,.83948-2.83359c0.84312-1.93752,1.68774-3.87807,2.7-5.73283a5.80739,5.80739,0,0,0,.9304-2.49248,0.55777,0.55777,0,0,0-.05846-0.3161,0.60044,0.60044,0,0,0-.72913-0.08414c-2.0247.78194-3.20045,2.84625-4.24893,4.74667-1.34512,2.43811-2.74358,4.84634-4.14191,7.25433l-1.74646,3.00749a4.08513,4.08513,0,0,1-1.09953,1.38216,5.2334,5.2334,0,0,1-1.53178.58624,18.43853,18.43853,0,0,0-2.59181,1.07045c-0.92735.43936-1.21941,2.61774-.039,2.97089a2.84552,2.84552,0,0,0,1.8028-.31764C192.8603,171.57588,193.65137,171.27794,194.42362,170.947Z" transform="translate(0 -0.00037)"/><path class="cls-12" d="M219.73511,172.57444l-0.01083.52495a2.26814,2.26814,0,0,0,.04108.60088,2.98787,2.98787,0,0,0,.22479.53612,4.501,4.501,0,0,1,.39717,1.44257l0.00414,0.37856H203.09572a11.26176,11.26176,0,0,1,.65236-2.79871,10.73184,10.73184,0,0,0,.50414-3.81882,5.96612,5.96612,0,0,0-1.40057-3.537,7.856,7.856,0,0,1-1.35144-1.56523,3.88615,3.88615,0,0,1,.13107-2.9919c1.07642-3.02812,3.018-5.73518,3.73956-8.8669a3.34986,3.34986,0,0,1,.41241-1.18483,2.56785,2.56785,0,0,1,.84023-0.70155,10.13659,10.13659,0,0,1,3.06026-1.18964,2.42192,2.42192,0,0,0,1.96291,1.68491,4.15528,4.15528,0,0,0,2.62364-.54137,16.7296,16.7296,0,0,0,2.22418-1.57533,0.57251,0.57251,0,0,1,.3111-0.14967,0.58136,0.58136,0,0,1,.34985.15611q2.59927,1.95511,5.38441,3.64513a0.37264,0.37264,0,0,1,.22928.39793,15.71484,15.71484,0,0,1-.58643,5.71706c-0.35747,1.01591-.9064,1.962-1.1909,3.00075a12.41549,12.41549,0,0,0-.30058,1.71078c-0.0602.47063-.072,0.85-0.16019,1.31618A47.37269,47.37269,0,0,0,219.73511,172.57444Z" transform="translate(0 -0.00037)"/><path class="cls-8" d="M209.13721,149.544a1.86875,1.86875,0,0,0,.38044,1.2403,2.43774,2.43774,0,0,0,1.524.94314,5.07968,5.07968,0,0,0,1.46632.07486,8.20755,8.20755,0,0,0,3.48895-.97007,4.27743,4.27743,0,0,0,1.01847-.7965,1.13815,1.13815,0,0,0,.43371-0.85789,0.60964,0.60964,0,0,0-.1561-0.13855,3.79533,3.79533,0,0,0-1.27363-.49212,3.45488,3.45488,0,0,0-.9256-0.08125l-1.9089.0048c-0.16888.00042-.338,0.00086-0.50628,0.01468-0.19694.01618-.39188,0.05061-0.58647,0.085l-0.78546.13881a4.715,4.715,0,0,0-1.39413.41754l-0.4776.20606a0.75518,0.75518,0,0,0-.26047.15722A0.22214,0.22214,0,0,0,209.13721,149.544Z" transform="translate(0 -0.00037)"/><path class="cls-8" d="M200.308,172.35008c0.47588,0.20372.95641,0.39716,1.43463,0.5892a5.82553,5.82553,0,0,0,.992.33089c1.31836,0.26991,2.697-.35738,3.96706-0.63683l2.883-.63435c2.315-.50935,4.6322-1.01926,6.90584-1.68941,0.60555-.17848.42255-0.58781,0.38515-1.13084a24.37745,24.37745,0,0,1,.213-5.9776,27.25085,27.25085,0,0,1,1.30869-4.70016,13.71928,13.71928,0,0,1,3.02873-5.44492,2.01246,2.01246,0,0,1,.44507-0.37272,1.13739,1.13739,0,0,1,.253-0.132,0.20876,0.20876,0,0,1,.23832.07466q0.56,0.41053,1.12055.82021a2.28,2.28,0,0,1,.26026.21085,2.06078,2.06078,0,0,1,.21963.269,2.377,2.377,0,0,1,.45317,1.33345,14.60968,14.60968,0,0,1,.02127,1.65428c0.00648,0.40845.00854,0.81761-.024,1.22481-0.02168.27071-.05865,0.54-0.09734,0.80876a62.12869,62.12869,0,0,1-1.29552,6.509c-0.28384,1.11217-.58231,2.22328-0.97353,3.30331-0.393,1.08505-.85316,2.14629-1.16789,3.26244a1.23551,1.23551,0,0,1-.21207.48241,1.15592,1.15592,0,0,1-.57915.30431c-0.692.20186-1.30927,0.5918-1.99,0.8521a13.5434,13.5434,0,0,1-2.325.65842c-0.34068.06425-.68365,0.11539-1.0266,0.16623a41.70193,41.70193,0,0,1-9.79321.64581,7.84557,7.84557,0,0,0-1.7977-.0448,4.14765,4.14765,0,0,0-1.11169.37494,2.62433,2.62433,0,0,1-1.12009.154,1.71773,1.71773,0,0,1-.59064-0.07974,2.01419,2.01419,0,0,1-.50981-0.33409q-0.299-.23618-0.62048-0.442a0.85148,0.85148,0,0,0-.56274-0.23425,0.886,0.886,0,0,0-.24872.12146,2.54343,2.54343,0,0,0-.3797.22133,0.70976,0.70976,0,0,0-.31613.57027c0.00783,0.15283.173,0.26472,0.17532,0.41776a0.06447,0.06447,0,0,1-.01231.04453,0.07015,0.07015,0,0,1-.03116.01741,0.60711,0.60711,0,0,1-.78119-0.65656,0.91294,0.91294,0,0,1,.37-0.56477,2.50851,2.50851,0,0,0,.21992-0.16763c0.08591-.08153.15578-0.16933,0.24931-0.24229a0.19532,0.19532,0,0,0,.08525-0.24274,0.38755,0.38755,0,0,0-.38864-0.19279,3.33262,3.33262,0,0,0-1.91209,1.10057l-0.18863.16315a10.72079,10.72079,0,0,1-.83389.67387,0.83151,0.83151,0,0,1-.22014.12132,0.28063,0.28063,0,0,1-.37791-0.33569,0.78461,0.78461,0,0,1,.15935-0.33031,3.47813,3.47813,0,0,1,.462-0.52089c0.10916-.10066.22462-0.1942,0.34006-0.28766,0.267-.21623.53416-0.43263,0.813-0.63351,0.17157-.1236.33118-0.23637,0.51283-0.345a2.41563,2.41563,0,0,0,.43349-0.30438,0.26313,0.26313,0,0,0,.038-0.04239,0.33252,0.33252,0,0,0-.17841-0.42764,1.12761,1.12761,0,0,0-.47966-0.06874,1.7946,1.7946,0,0,0-.66946.087,3.363,3.363,0,0,0-.529.33318,4.27271,4.27271,0,0,0-.61787.3976l-0.81438.74547a0.82189,0.82189,0,0,1-.57425.291,0.185,0.185,0,0,1-.128-0.05392,0.21792,0.21792,0,0,1-.02217-0.19019,2.02422,2.02422,0,0,1,.41-0.76088c0.115-.15.27385-0.24547,0.39528-0.39107,0.02312-.02769.0452-0.05637,0.07066-0.08189a5.26972,5.26972,0,0,1,2.09628-1.14735,1.45413,1.45413,0,0,0,.486-0.21533,0.43279,0.43279,0,0,0,.16406-0.47153,0.61144,0.61144,0,0,0-.2077-0.235q-0.26255-.20764-0.5351-0.40222a2.05,2.05,0,0,0-.24219-0.15582,0.54232,0.54232,0,0,1-.21175-0.10175,0.49856,0.49856,0,0,1,.24728-0.3297,0.90447,0.90447,0,0,1,1.11015.27121A14.70306,14.70306,0,0,0,200.308,172.35008Z" transform="translate(0 -0.00037)"/><path class="cls-13" d="M190.923,149.72663a2.60717,2.60717,0,0,0-2.60533-2.50932H159.2929a2.60721,2.60721,0,0,0-2.60718,2.60721h0q0,0.04237.00137,0.08475l0.6454,19.82556a2.60714,2.60714,0,0,0,2.60574,2.52235h5.50066v3.691l9.96783,0.10931a3.07579,3.07579,0,0,1-2.633-3.80029h16.28864a2.60719,2.60719,0,0,0,2.60718-2.60716h0q0-.04891-0.00183-0.09782Z" transform="translate(0 -0.00037)"/><path class="cls-14" d="M164.18509,172.2572s2.50763-6.507,7.64828-9.81783c0,0-6.2534,6.47446-6.371,9.81783h-1.27728Z" transform="translate(0 -0.00037)"/><path class="cls-14" d="M172.7502,172.45037h2.72707s-0.21158-6.93517.79927-9.02748C176.27654,163.42286,173.22039,167.91313,172.7502,172.45037Z" transform="translate(0 -0.00037)"/><path class="cls-15" d="M173.0067,154.39572c0-.071.01575-0.13765,0.0209-0.20737a2.503,2.503,0,1,0,2.57726,3.006A2.81208,2.81208,0,0,1,173.0067,154.39572Z" transform="translate(0 -0.00037)"/><path class="cls-16" d="M151.395,176.05751h70.45862a0.93915,0.93915,0,0,1,.93915.93915h0a0.93915,0.93915,0,0,1-.93915.93915H151.395a0.93915,0.93915,0,0,1-.93915-0.93915h0A0.93915,0.93915,0,0,1,151.395,176.05751Z" transform="translate(0 -0.00037)"/><path class="cls-16" d="M216.37542,143.56231a1.31478,1.31478,0,0,1-1.15831.69287H210.605a0.27945,0.27945,0,1,0-.00427.55888h5.39867a1.31462,1.31462,0,0,0,1.15181-.68085l0.85367-1.55127-0.85634-.45976Z" transform="translate(0 -0.00037)"/><path class="cls-16" d="M217.13843,131.19464a7.17082,7.17082,0,0,0-9.82593-.56964s5.168-2.32971,9.084.86639c2.2757,2.226,1.546,8.51648,1.546,8.51648h1.03442C219.27155,134.31018,218.29413,132.25885,217.13843,131.19464Z" transform="translate(0 -0.00037)"/><path class="cls-17" d="M210.605,144.25518h0.802v0.55888h-0.802a0.27946,0.27946,0,0,1-.27945-0.27943h0a0.27946,0.27946,0,0,1,.27943-0.27945h0Z" transform="translate(0 -0.00037)"/><circle class="cls-18" cx="218.42153" cy="141.13597" r="1.73129"/><path class="cls-16" d="M218.44517,140.95562a0.17584,0.17584,0,0,0-.1675.13518,0.2416,0.2416,0,0,0-.00662.04481v0.10947a0.23632,0.23632,0,0,0,.00516.03967,0.1704,0.1704,0,0,0,.1653.1293A0.23539,0.23539,0,0,0,218.44517,140.95562Z" transform="translate(0 -0.00037)"/><path class="cls-16" d="M218.42155,140.21452a0.92179,0.92179,0,1,0,.92175.92183h0a0.92179,0.92179,0,0,0-.92175-0.92181h0v0Zm0.04276,1.28693a0.21577,0.21577,0,0,1-.20276-0.11385h-0.00366l-0.00516.0999H218.158c0.0022-.04112.00441-0.10286,0.00441-0.15648V140.5993h0.10873v0.38055h0.00294a0.22575,0.22575,0,0,1,.20644-0.11166,0.27152,0.27152,0,0,1,.25726.285l-0.00233.02425a0.28766,0.28766,0,0,1-.2486.322h0l-0.02251.002h0Z" transform="translate(0 -0.00037)"/><path class="cls-12" d="M223.46516,152.97757q0.06862,0.054.13837,0.11442a1.73129,1.73129,0,0,1,.77068,1.11187,24.46986,24.46986,0,0,1,.55882,4.98759,48.92119,48.92119,0,0,1-.019,5.0904l-7.848-2.90571-0.66006-5.38974c-0.1355-1.10642,1.01477-2.06343,1.86089-2.511a9.90166,9.90166,0,0,1,2.44308-.845A2.82294,2.82294,0,0,1,223.46516,152.97757Z" transform="translate(0 -0.00037)"/><path class="cls-12" d="M209.19106,151.96743q0.10407,0.2653.18866,0.53745c0.2432,0.78.34007,1.59874,0.62687,2.36574a4.688,4.688,0,0,1,.25162.96246,2.15374,2.15374,0,0,1-.43882,1.85144l-3.81271,3.86629-7.99-2.48882a48.92123,48.92123,0,0,1,3.09214-4.04366c0.63468-.7477,1.26492-1.5006,1.94636-2.20668,0.33953-.3518.69157-0.692,1.06207-1.01116a9.37869,9.37869,0,0,1,1.17457-.76092,13.13273,13.13273,0,0,1,1.23585-.58759,3.00686,3.00686,0,0,1,1.32882-.36655,0.50336,0.50336,0,0,1,.17344.01968,0.53271,0.53271,0,0,1,.22667.19509A6.69174,6.69174,0,0,1,209.19106,151.96743Z" transform="translate(0 -0.00037)"/><path class="cls-12" d="M221.757,154.97738s-1.03791,5.85078-3.77877,6.41579-6.19871-4.9781-6.19871-4.9781Z" transform="translate(0 -0.00037)"/><polygon class="cls-19" points="217.438 161.437 219.688 156.187 216.5 160.75 217.089 163.201 217.438 161.437"/></svg>