<?xml version="1.0" encoding="utf-8"?>
<!-- Generator: Adobe Illustrator 19.2.0, SVG Export Plug-In . SVG Version: 6.00 Build 0)  -->
<svg version="1.1" id="Layer_1" xmlns="http://www.w3.org/2000/svg" xmlns:xlink="http://www.w3.org/1999/xlink" x="0px" y="0px"
	 viewBox="0 0 151.5 208.5" style="enable-background:new 0 0 151.5 208.5;" xml:space="preserve">
<style type="text/css">
	.st0{fill:none;stroke:#333399;stroke-width:3;stroke-miterlimit:10;}
	.st1{opacity:0.19;fill:#363795;enable-background:new    ;}
</style>
<path class="st0" d="M133.6,134.4v-0.1c0-0.3,0-0.6,0-0.8l0,0C131.5,102.3,76.3,18,76.3,18S21.2,102.3,19,133.5l0,0
	c0,0.3,0,0.6,0,0.8v0.1c0,0.9,0,1.8,0.1,2.6c1.4,30.2,26.5,54.3,57.2,54.3s55.8-24.1,57.2-54.3C133.6,136.2,133.6,135.3,133.6,134.4
	z"/>
<path class="st1" d="M76.3,171.8c-27,0-49.4-19.8-53.5-45.6c-0.4,2.8-0.7,5.6-0.7,8.5c0,29.9,24.2,54.2,54.2,54.2
	c29.9,0,54.2-24.2,54.2-54.2c0-2.9-0.2-5.7-0.7-8.5C125.7,152,103.4,171.8,76.3,171.8z"/>
</svg>
