<svg id="Layer_1" data-name="Layer 1" xmlns="http://www.w3.org/2000/svg" viewBox="0 0 381.30558 270.482"><defs><style>.cls-1{fill:#f7ecf4;}.cls-2{fill:#38b7a1;}.cls-3{fill:#2b378c;}.cls-4{fill:#6dc172;}.cls-5{fill:#94ce97;opacity:0.95;}.cls-13,.cls-14,.cls-5,.cls-51,.cls-6{isolation:isolate;}.cls-6{fill:none;stroke:#ec654b;stroke-width:0.4902px;}.cls-15,.cls-6{stroke-miterlimit:10;}.cls-6,.cls-7{opacity:0.25;}.cls-13,.cls-8{fill:#ec654b;}.cls-9{opacity:0.85;}.cls-10{fill:#4650a2;}.cls-11{fill:#3c459b;}.cls-12{fill:#f4847f;}.cls-13,.cls-51{opacity:0.5;}.cls-14{fill:#52c1b3;opacity:0.4;}.cls-15{fill:#edf3fa;stroke:#393;stroke-width:0.25px;}.cls-16{fill:#aededc;}.cls-17{fill:#7085c2;}.cls-18{fill:#62bc51;}.cls-19{fill:#ec5b72;}.cls-20{fill:#d2daef;}.cls-21{fill:#f05350;}.cls-22{fill:#5fc5bd;}.cls-23{fill:#fbb03b;}.cls-24{fill:#8678b8;}.cls-25{fill:#fbac18;}.cls-26{fill:#fbc93a;}.cls-27{fill:#fbef9f;}.cls-28{fill:#f78e33;}.cls-29{fill:#c95135;}.cls-30{fill:#f5c9a0;}.cls-31{fill:#f9fcfd;}.cls-32{fill:#f3f5f5;}.cls-33{fill:#392836;}.cls-34{fill:#493944;}.cls-35{fill:#f4b094;}.cls-36{fill:#f0ecea;}.cls-37{fill:#d9dae6;}.cls-38{fill:#45bfaf;}.cls-39{fill:#fff;}.cls-40{fill:#fbc1b2;}.cls-41{fill:#21407a;}.cls-42{fill:#e7a425;}.cls-43{fill:#fdd764;}.cls-44{fill:#7f57a4;}.cls-45{fill:#eb3c95;}.cls-46{fill:#624a9e;}.cls-47{fill:#3d6eac;}.cls-48{fill:#5793ce;}.cls-49{fill:#29518a;}.cls-50{fill:#d3e9f9;}.cls-51{fill:#c4d9e8;}.cls-52{fill:#efc4a3;}.cls-53{fill:#363b92;}.cls-54{fill:#fbc1b1;}.cls-55{fill:#353892;}.cls-56{fill:#f9bfaf;}.cls-57{fill:#369747;}.cls-58{fill:#81441d;}.cls-59{fill:#fcdfbb;}.cls-60{fill:#303030;}.cls-61{fill:#fffff3;}.cls-62{fill:#29235c;}</style></defs><title>economy</title><path class="cls-1" d="M315.75482,56.76708c9.04742-2.48062,18.23288-4.915,27.614-4.98164s19.12469,2.4867,26.01187,8.85666c10.27292,9.50147,12.03247,24.95368,11.92,38.94646-0.14758,18.35929-2.44333,36.91133-9.16794,53.99539s-18.15152,32.67574-33.80823,42.26492c-20.35977,12.46967-45.40674,13.73389-69.264,14.65363l-148.435,5.72241c-16.32778.62946-32.8828,1.239-48.80757-2.42079-38.191-8.777-68.65926-44.17133-71.65754-83.243-0.3092-4.02925-.32271-8.24,1.36931-11.90986,2.28522-4.95643,7.26869-8.07412,12.22359-10.3627,17.69747-8.17413,33.11907-5.82473,51.6263-4.94131a390.13326,390.13326,0,0,0,62.10152-2.27038c41.42218-4.65142,82.00255-14.74248,122.11986-25.7787C271.681,69.22394,293.66959,62.82241,315.75482,56.76708Z" transform="translate(-0.00004 0)"/><path class="cls-2" d="M288.14258,61.38163c-5.4-7.3-17.2-8.5-23.6-1.7a12.04012,12.04012,0,0,0-3.3,8.4,13.3082,13.3082,0,0,0,1.9,6.7c1.5,2.3,4.2,4,7,3.3,1.4-.4,3-1.6,1.9-3.1-1.3-1.8-2.4-3.3-2.6-5.5a7.06587,7.06587,0,0,1,3.2-6.4,5.732,5.732,0,0,1,6.9.7,8.36118,8.36118,0,0,1,1.9,3.6c2.4,8.3-1.8,19.6-11.5,20.4a8.82014,8.82014,0,0,1-9.4-6.5,35.38209,35.38209,0,0,1-2.6-14.4v-24h33v-10.9h-33.1v-16.1a18.25646,18.25646,0,0,0-2.8-10.2c-4-6.1-12.9-7.1-19-3.9a11.808,11.808,0,0,0-3.8,3.2,14.06241,14.06241,0,0,0-2.9,9h8c-0.4,0,.8-3.8.9-4.2,0.7-1.4,1.8-2.9,3.4-3.1,4.8-.6,5.5,5.9,5.5,9.2v16.1h-10.2v10.9h10v26.9a29.76087,29.76087,0,0,0,4.2,16.2c7,11.5,26,10.7,34.6,1.6a21.17266,21.17266,0,0,0,5.7-15.3A16.96468,16.96468,0,0,0,288.14258,61.38163Z" transform="translate(-0.00004 0)"/><path class="cls-3" d="M68.07,246.27168a2.66272,2.66272,0,0,1,.3,1.2v1a0.66127,0.66127,0,0,1-.1.6,1.42128,1.42128,0,0,0-.2.6,0.90158,0.90158,0,0,0,.6.6,3.75,3.75,0,0,0,2.1,0,8.648,8.648,0,0,0,2.3-.6,0.34912,0.34912,0,0,0,.2-0.1,0.19963,0.19963,0,0,0,.1-0.2l0.1-1.9a0.36739,0.36739,0,0,0-.1-0.3c-0.1,0-.1-0.1-0.2-0.1A9.82652,9.82652,0,0,0,68.07,246.27168Z" transform="translate(-0.00004 0)"/><path class="cls-4" d="M67.77,225.4717c3.3,4.1,4.8,9.8,3.1,14.9-0.5,1.4-1.3,2.8-1.7,4.3-0.4,1.6-.4,3.2-0.9,4.7a0.51949,0.51949,0,0,1-.2.4c-0.1,0-.3.1-0.4,0.1a71.93412,71.93412,0,0,1-12.3.5,1.85928,1.85928,0,0,1-2.1-1.3l-2.5-5.8c-1.3-2.9-2.5-5.9-2.5-9.1a8.60229,8.60229,0,0,1,.1-1.6,13.536,13.536,0,0,1,.8-3.6,11.34758,11.34758,0,0,1,3.2-4,9.14536,9.14536,0,0,1,4.6-2.3h1.2c1.1,0.1,2.2-.4,3.3-0.4A8.157,8.157,0,0,1,67.77,225.4717Z" transform="translate(-0.00004 0)"/><path class="cls-5" d="M57.37,223.0717a6.14682,6.14682,0,0,1,3.5-.7,8.6338,8.6338,0,0,1,5.8,1.9,13.65492,13.65492,0,0,1,1.9,2.3l1.8,2.6a5.68763,5.68763,0,0,1,1.3,4c0.1,2.8.1,5.7-1.2,8.1a11.25106,11.25106,0,0,0-1.2,2.1,11.79753,11.79753,0,0,0-.4,2,48.891,48.891,0,0,1-.9,5.3v0.1a0.77866,0.77866,0,0,1-.9.6h-4.5a12.36208,12.36208,0,0,0-2.7-5.5,15.37,15.37,0,0,0-1.7-1.9,23.05457,23.05457,0,0,1-2.5-3.6,31.01608,31.01608,0,0,1-3-5.7,10.80649,10.80649,0,0,1-.4-6.4,3.69682,3.69682,0,0,1,.5-1.1c0.5-.8,1.6-1.2,2.3-1.9C55.87,224.5717,56.37,223.4717,57.37,223.0717Z" transform="translate(-0.00004 0)"/><path class="cls-6" d="M54.67,226.37171a12.40546,12.40546,0,0,1,1.8-2.1,9.014,9.014,0,0,1,1-.9,1.38862,1.38862,0,0,1,1.1.2,7.89768,7.89768,0,0,1,3.5,3.5,14.6627,14.6627,0,0,1,1.5,5.8,75.26738,75.26738,0,0,1-.4,15l-0.3,3.5a27.84919,27.84919,0,0,0-5,.1,23.40106,23.40106,0,0,0-.3-3.8,14.26169,14.26169,0,0,0-.9-2.7c-1.7-4.3-3.5-8.7-3.5-13.3a10.67856,10.67856,0,0,1,.3-2.5A13.89921,13.89921,0,0,1,54.67,226.37171Z" transform="translate(-0.00004 0)"/><g class="cls-7"><path class="cls-8" d="M63.47,223.37171c0.6,0.6,1.3,1.5,2.3,2.6a12.37826,12.37826,0,0,1,1.4,1.8,9.4314,9.4314,0,0,1,1,2.3,12.58851,12.58851,0,0,1,.4,2.7,13.329,13.329,0,0,1-.3,2.8,23.25445,23.25445,0,0,1-.5,2.8l-0.6,2.7-0.6,2.5c-0.2.8-.4,1.6-0.5,2.3a13.4026,13.4026,0,0,0-.1,2c0.1,0.5.1,1,.2,1.5,0.2,0.8.3,1.3,0.3,1.3l-0.2-1.3a7.56888,7.56888,0,0,1-.1-1.5,12.2521,12.2521,0,0,1,.2-1.9c0.2-.7.4-1.4,0.6-2.2s0.4-1.6.6-2.5l0.6-2.7c0.2-.9.3-1.9,0.5-2.8a28.25243,28.25243,0,0,0,.2-2.9,8.67549,8.67549,0,0,0-.5-2.8,6.59037,6.59037,0,0,0-1.1-2.4l-1.5-1.8c-1-1-1.8-1.9-2.4-2.5a4.29824,4.29824,0,0,0-1-.9S62.77,222.77168,63.47,223.37171Z" transform="translate(-0.00004 0)"/></g><g class="cls-9"><path class="cls-8" d="M55.07,228.17169a0.36739,0.36739,0,0,0,.1.3,2.50643,2.50643,0,0,0,.7.4,1.702,1.702,0,0,0,.7.1,0.36738,0.36738,0,0,1,.3-0.1c-0.1-.1-0.2-0.1-0.3-0.2l-0.6-.3a1.48616,1.48616,0,0,0-.6-0.1,0.36726,0.36726,0,0,1-.3-0.1h0v0Z" transform="translate(-0.00004 0)"/><path class="cls-8" d="M57.07,231.5717a4.8741,4.8741,0,0,0,.7.3c0.3,0,.5.1,0.8,0.1h0.4l-0.3-.3a2.93432,2.93432,0,0,0-1.6-.4c-0.1,0-.3.1-0.4,0.1A1.46678,1.46678,0,0,0,57.07,231.5717Z" transform="translate(-0.00004 0)"/><path class="cls-8" d="M58.27,236.37171a2.33516,2.33516,0,0,0-1,1.2,2.26771,2.26771,0,0,1-.1.4c0.1-.1.2-0.1,0.3-0.2a2.33516,2.33516,0,0,0,1-1.2,2.2677,2.2677,0,0,1,.1-0.4A0.52973,0.52973,0,0,0,58.27,236.37171Z" transform="translate(-0.00004 0)"/><path class="cls-8" d="M60.07,241.87171a1.03719,1.03719,0,0,0-.6.8v0.3c0.1,0,.2-0.1.3-0.1a1.03719,1.03719,0,0,0,.6-0.8v-0.3A1.00745,1.00745,0,0,1,60.07,241.87171Z" transform="translate(-0.00004 0)"/><path class="cls-8" d="M64.67,243.9717a2.3754,2.3754,0,0,0,1.2.3c0.1,0,.2-0.1.3-0.1a0.378,0.378,0,0,0-.2-0.2,2.3754,2.3754,0,0,0-1.2-.3c-0.1,0-.2.1-0.3,0.1A0.37813,0.37813,0,0,1,64.67,243.9717Z" transform="translate(-0.00004 0)"/><path class="cls-8" d="M64.87,236.77168a2.045,2.045,0,0,0,1.1,0c0.1,0,.2-0.1.3-0.1a0.21508,0.21508,0,0,0-.2-0.2,1.6563,1.6563,0,0,0-1.2,0c-0.1.1-.2,0.1-0.3,0.2A0.36736,0.36736,0,0,0,64.87,236.77168Z" transform="translate(-0.00004 0)"/><path class="cls-8" d="M64.37,230.4717a0.19963,0.19963,0,0,0,.1-0.2,0.36738,0.36738,0,0,1,.3-0.1,0.48261,0.48261,0,0,0,.4-0.1,2.09205,2.09205,0,0,0,.6-0.4c0.1-.1.1-0.2,0.2-0.3h-0.3a1.44526,1.44526,0,0,0-.7.2c-0.1.1-.2,0.1-0.3,0.2l-0.3.3a0.2972,0.2972,0,0,0,0,.4h0v0Z" transform="translate(-0.00004 0)"/><path class="cls-8" d="M63.37,227.77168c0.2-.1.4-0.1,0.6-0.2s0.3-.2.5-0.3a0.378,0.378,0,0,1,.2-0.2,0.36738,0.36738,0,0,0-.3-0.1,1.346,1.346,0,0,0-1.2.5,0.5299,0.5299,0,0,0-.2.3h0.4Z" transform="translate(-0.00004 0)"/><path class="cls-8" d="M69.17,227.9717a1.77884,1.77884,0,0,0,.8-0.7c0-.1.1-0.2,0.1-0.3h-0.3a1.77884,1.77884,0,0,0-.8.7c0,0.1-.1.2-0.1,0.3h0.3Z" transform="translate(-0.00004 0)"/><path class="cls-8" d="M70.97,231.27168a3.07217,3.07217,0,0,0,1-1.5c0-.1.1-0.3,0.1-0.4l-0.3.3a3.07217,3.07217,0,0,0-1,1.5c0,0.1-.1.3-0.1,0.4A0.42758,0.42758,0,0,0,70.97,231.27168Z" transform="translate(-0.00004 0)"/><path class="cls-8" d="M70.57,233.4717a3.72206,3.72206,0,0,0,1.8.2c0.1,0,.3-0.1.4-0.1a0.758,0.758,0,0,0-.4-0.2,3.72206,3.72206,0,0,0-1.8-.2c-0.1,0-.3.1-0.4,0.1A1.42481,1.42481,0,0,1,70.57,233.4717Z" transform="translate(-0.00004 0)"/><path class="cls-8" d="M70.87,238.37171a0.53,0.53,0,0,1,.3.2c0.1,0.1.3,0.2,0.4,0.3a1.613,1.613,0,0,0,.9.3h0.4l-0.4-.2a5.93611,5.93611,0,0,0-.8-0.4,3.55187,3.55187,0,0,0-.9-0.4,0.74934,0.74934,0,0,0-.5.1C70.47,238.27168,70.57,238.37171,70.87,238.37171Z" transform="translate(-0.00004 0)"/><path class="cls-8" d="M69.37,243.17169a2.54324,2.54324,0,0,0,1.7.4,0.60121,0.60121,0,0,0,.4-0.1l-0.4-.2a3.09185,3.09185,0,0,1-.8-0.2,3.09115,3.09115,0,0,0-.8-0.2h-0.4Z" transform="translate(-0.00004 0)"/><path class="cls-8" d="M58.67,247.5717a4.85386,4.85386,0,0,0,1.7,0,0.60122,0.60122,0,0,0,.4-0.1,0.758,0.758,0,0,0-.4-0.2,4.85386,4.85386,0,0,0-1.7,0,0.60122,0.60122,0,0,0-.4.1A1.42419,1.42419,0,0,1,58.67,247.5717Z" transform="translate(-0.00004 0)"/><path class="cls-8" d="M54.17,245.9717a1.95,1.95,0,0,0-1.5,0c-0.1.1-.2,0.1-0.3,0.2a2.26782,2.26782,0,0,1,.4.1,3.78727,3.78727,0,0,0,1.5,0,2.2678,2.2678,0,0,0,.4-0.1A1.0561,1.0561,0,0,0,54.17,245.9717Z" transform="translate(-0.00004 0)"/><path class="cls-8" d="M51.67,244.87171a3.28673,3.28673,0,0,0-1.6-.7h-0.4l0.3,0.3a4.41827,4.41827,0,0,0,1.6.6h0.4C51.87,244.9717,51.77,244.9717,51.67,244.87171Z" transform="translate(-0.00004 0)"/><path class="cls-8" d="M50.67,240.9717a3.98948,3.98948,0,0,0-.4-0.3,3.23284,3.23284,0,0,0-1.7-.3c-0.1,0-.3.1-0.4,0.1a1.46623,1.46623,0,0,1,.4.2,3.23284,3.23284,0,0,0,1.7.3h0.4Z" transform="translate(-0.00004 0)"/><path class="cls-8" d="M52.37,238.5717a2.43734,2.43734,0,0,0-1.2,0c-0.1,0-.2.1-0.3,0.1a0.52983,0.52983,0,0,0,.3.2,1.6563,1.6563,0,0,0,1.2,0c0.1-.1.2-0.1,0.3-0.2A0.36738,0.36738,0,0,0,52.37,238.5717Z" transform="translate(-0.00004 0)"/><path class="cls-8" d="M48.67,236.17169c0-.1,0-0.1-0.1-0.1a0.098,0.098,0,0,0-.09583-0.1H48.47a0.19963,0.19963,0,0,0-.2-0.1,3.20989,3.20989,0,0,0-1.7-.2c-0.1,0-.3.1-0.4,0.1,0.1,0.1.3,0.1,0.4,0.2a3.20989,3.20989,0,0,0,1.7.2h0.4v0Z" transform="translate(-0.00004 0)"/><path class="cls-8" d="M51.07,232.9717a3.02172,3.02172,0,0,0-1.6-.5h-0.4a0.53,0.53,0,0,1,.3.2,3.02173,3.02173,0,0,0,1.6.5h0.4A0.33758,0.33758,0,0,1,51.07,232.9717Z" transform="translate(-0.00004 0)"/><path class="cls-8" d="M49.17,229.27168a5.58192,5.58192,0,0,0-.8-0.5,5.94032,5.94032,0,0,1-.8-0.4l-0.4-.2a0.758,0.758,0,0,0,.2.4,2.70169,2.70169,0,0,0,1.7,1h0.5A1.866,1.866,0,0,0,49.17,229.27168Z" transform="translate(-0.00004 0)"/><path class="cls-8" d="M51.57,228.9717c-0.2-.1-0.5-0.3-0.7-0.4-0.3-.1-0.5-0.2-0.8-0.3-0.1,0-.3-0.1-0.4-0.1a0.5299,0.5299,0,0,0,.2.3,2.23869,2.23869,0,0,0,1.5.8h0.4A0.33763,0.33763,0,0,1,51.57,228.9717Z" transform="translate(-0.00004 0)"/><path class="cls-8" d="M51.07,226.37171a11.86536,11.86536,0,0,0-2.3-1.6,1.4214,1.4214,0,0,1-.6-0.2,1.75559,1.75559,0,0,0,.4.5,11.86536,11.86536,0,0,0,2.3,1.6l0.6,0.3A1.5377,1.5377,0,0,1,51.07,226.37171Z" transform="translate(-0.00004 0)"/><path class="cls-8" d="M53.07,224.67169a4.35135,4.35135,0,0,0-.8-1.5l-0.3-.3v0.4a4.35135,4.35135,0,0,0,.8,1.5l0.3,0.3v-0.4Z" transform="translate(-0.00004 0)"/><path class="cls-8" d="M66.17,224.17169a0.60121,0.60121,0,0,0,.4-0.1l0.2-.2,0.2-.2a3.1122,3.1122,0,0,1,.4-0.6,1.2376,1.2376,0,0,1,.2-0.3c-0.1,0-.3.1-0.4,0.1a1.46617,1.46617,0,0,0-.4.2l-0.3.3a2.35734,2.35734,0,0,1-.5.5,0.36738,0.36738,0,0,1-.3.1A0.58765,0.58765,0,0,0,66.17,224.17169Z" transform="translate(-0.00004 0)"/><path class="cls-8" d="M67.97,246.9717a1.854,1.854,0,0,0,.2.7,4.87374,4.87374,0,0,0,.3.7,1.238,1.238,0,0,0,.2.3,2.26771,2.26771,0,0,1,.1-0.4,1.65063,1.65063,0,0,0-.5-1.5c-0.1-.1-0.2-0.1-0.3-0.2v0.4Z" transform="translate(-0.00004 0)"/></g><path class="cls-10" d="M64.17,250.17169a25.24909,25.24909,0,0,0,4.6-1,19.452,19.452,0,0,0,2.2-.8,4.87458,4.87458,0,0,0,1.1-.4,1.42142,1.42142,0,0,0,.6-0.2,1.056,1.056,0,0,0,.5-0.2,0.51956,0.51956,0,0,0,.2-0.4c0.1,0,.1.1,0.1,0.2,0,0.5-.1.9-0.1,1.3v1.2a21.30227,21.30227,0,0,1-.3,2.5v0.3l-2.1,12.6a4.70686,4.70686,0,0,1-.4,1.6,4.02712,4.02712,0,0,1-2.5,2.1,12.57311,12.57311,0,0,1-3.3.5c-2.3.1-4.7,0.2-7,.1a1.93889,1.93889,0,0,1,.3-1.8c0.3-.5.6-1,0.9-1.6a4.879,4.879,0,0,0,.1-1.7c-0.2-3.1-.5-6.1-0.9-9.2a9.18451,9.18451,0,0,0-.5-2.8c-0.3-.9-0.8-1.8-1.1-2.7a10.55411,10.55411,0,0,1,2.5.2A17.19552,17.19552,0,0,0,64.17,250.17169Z" transform="translate(-0.00004 0)"/><path class="cls-11" d="M71.87,257.47168a4.102,4.102,0,0,0-1.1-.1l-1.7.1-8,.3a4.671,4.671,0,0,0-1.7.3c-1.2.6-.9,1.7-0.8,2.7,0.1,1.2.2,2.5,0.3,3.7a4.879,4.879,0,0,1-.1,1.7,5.07131,5.07131,0,0,1-.9,1.6,2.27349,2.27349,0,0,0-.3,1.8c2.3,0.1,4.7,0,7-.1a12.57437,12.57437,0,0,0,3.3-.5,4.36082,4.36082,0,0,0,2.5-2.1,7.49163,7.49163,0,0,0,.4-1.6A41.867,41.867,0,0,0,71.87,257.47168Z" transform="translate(-0.00004 0)"/><path class="cls-3" d="M49.07,247.17169a5.85856,5.85856,0,0,1,2.9-.4h0.4a0.76385,0.76385,0,0,0,.2.5l0.9,1.5a2.65174,2.65174,0,0,0,.5.6,0.8643,0.8643,0,0,0,.6.3,17.635,17.635,0,0,0,2.3,0c1.7,0.2,1.5.8,1.5,2.3,0.1,1.7.2,3.3,0.4,4.9,0.1,1.2.3,2.3,0.4,3.5,0.1,0.6.1,1.2,0.2,1.8a2.76858,2.76858,0,0,1,.1.9v0.8a4.33086,4.33086,0,0,1,.1.5,10.86859,10.86859,0,0,1,.1,1.8c0.1,1.2.2,2.3,0.4,3.4h-3.3a5.462,5.462,0,0,1-1.8-.1,3.44729,3.44729,0,0,1-1.2-1.2l-0.6-1.2a6.89,6.89,0,0,1-.3-0.8c-0.5-1.9-1.1-3.8-1.5-5.8-0.5-1.9-.8-3.9-1.4-5.8C49.37,252.97168,47.07,248.67169,49.07,247.17169Z" transform="translate(-0.00004 0)"/><path class="cls-12" d="M60.97,217.4717a2.80136,2.80136,0,0,1,0,2.2c-0.3.8-1,1.5-1,2.4a10.62475,10.62475,0,0,1,1.1-.9,1.52489,1.52489,0,0,0,.7-1.2,2.27257,2.27257,0,0,1-.5,1.8,3.59146,3.59146,0,0,0-1,.7,6.2616,6.2616,0,0,1,2.7-.3,0.36738,0.36738,0,0,1,.3.1h0a0.1875,0.1875,0,0,1,0,.3,6.35988,6.35988,0,0,0-3.6.5,4.41514,4.41514,0,0,1,2.8,2.2,1.98966,1.98966,0,0,1-1.6-.7l-1-.8a22.75264,22.75264,0,0,1,.2,2.6,2.57714,2.57714,0,0,1-.8-1.3,5.78264,5.78264,0,0,0-.5-1.4,3.19393,3.19393,0,0,1-.3,1.4l-0.9,1.2a2.34474,2.34474,0,0,1-.2-1.2,2.20189,2.20189,0,0,1,.1-0.8,1.08523,1.08523,0,0,1,.8-0.8,9.12285,9.12285,0,0,1-3.3-.5,0.19962,0.19962,0,0,1-.2-0.1c-0.1,0-.1-0.1,0-0.2h3a5.6696,5.6696,0,0,1-1.3-.8,4.34853,4.34853,0,0,1-.6-0.7,3.219,3.219,0,0,1-.1-1.7,1.79377,1.79377,0,0,1,.7.5l1.6,1.8a0.60467,0.60467,0,0,0,.6.3,7.23093,7.23093,0,0,1-1.7-2.2,1.88392,1.88392,0,0,1-.2-0.8,0.63379,0.63379,0,0,1,.5-0.6,0.84183,0.84183,0,0,1,.7.4,2.35351,2.35351,0,0,1,.2.8,12.53623,12.53623,0,0,0,.9,2.5h0c0,0.1,0,.1.1,0.1s0.1,0,.1-0.1A8.44231,8.44231,0,0,1,60.97,217.4717Z" transform="translate(-0.00004 0)"/><path class="cls-13" d="M60.67,217.87171a2.3347,2.3347,0,0,1,0,2,7.32264,7.32264,0,0,0-.9,2.3,3.91517,3.91517,0,0,1,1-.8,1.35622,1.35622,0,0,0,.6-1.1,2.51835,2.51835,0,0,1-.5,1.6c-0.3.2-.6,0.5-0.9,0.7a5.24191,5.24191,0,0,1,2.5-.3,0.36738,0.36738,0,0,1,.3.1h0a0.1875,0.1875,0,0,1,0,.3,7.82584,7.82584,0,0,0-3.4.5,4.91418,4.91418,0,0,1,2.6,2.1,2.12679,2.12679,0,0,1-1.5-.7l-0.9-.7a19.41873,19.41873,0,0,1,.2,2.4,2.39978,2.39978,0,0,1-.7-1.2,6.94389,6.94389,0,0,0-.5-1.3,1.99924,1.99924,0,0,1-.2,1.3,7.63277,7.63277,0,0,1-.8,1.1,2.5367,2.5367,0,0,1-.2-1.2,1.94949,1.94949,0,0,1,.1-0.8,1.38734,1.38734,0,0,1,.8-0.7,6.25205,6.25205,0,0,1-3-.4,0.19962,0.19962,0,0,1-.2-0.1c-0.1,0-.1-0.1,0-0.2h2.8a7.45778,7.45778,0,0,1-1.2-.7,0.90155,0.90155,0,0,1-.6-0.6,2.91712,2.91712,0,0,1-.1-1.6,1.79377,1.79377,0,0,1,.7.5l1.5,1.7a0.71275,0.71275,0,0,0,.6.3,6.524,6.524,0,0,1-1.6-2.1,2.35352,2.35352,0,0,1-.2-0.8,0.63379,0.63379,0,0,1,.5-0.6,0.82224,0.82224,0,0,1,.6.4,1.44524,1.44524,0,0,1,.2.7,6.19327,6.19327,0,0,0,.8,2.4h0c0,0.1,0,.1.1,0.1s0.1,0,.1-0.1A10.19381,10.19381,0,0,1,60.67,217.87171Z" transform="translate(-0.00004 0)"/><rect class="cls-14" x="113.34255" y="18.98163" width="80.50001" height="73.1"/><rect class="cls-14" x="157.24255" y="31.58163" width="80.5" height="73.09999"/><path class="cls-15" d="M253.44257,176.38162h-168.5a10.07205,10.07205,0,0,1-10.1-10.044q-0.00008-.028,0-0.056v-108.9a10.07206,10.07206,0,0,1,10.044-10.1q0.028-.00008.056,0h168.5a10.07205,10.07205,0,0,1,10.1,10.044q0.00009,0.028,0,.056v108.8A10.15756,10.15756,0,0,1,253.44257,176.38162Z" transform="translate(-0.00004 0)"/><path class="cls-16" d="M253.3884,47.28163H84.99674A10.184,10.184,0,0,0,74.84258,57.43579V69.38163h188.7V57.43579A10.184,10.184,0,0,0,253.3884,47.28163Z" transform="translate(-0.00004 0)"/><circle class="cls-17" cx="206.64254" cy="58.98163" r="2.7"/><circle class="cls-18" cx="225.14254" cy="58.98163" r="2.7"/><circle class="cls-19" cx="243.74255" cy="58.98163" r="2.7"/><rect class="cls-20" x="179.44254" y="79.48163" width="11" height="51.10001"/><rect class="cls-21" x="179.44254" y="102.58163" width="11" height="28.00001"/><rect class="cls-20" x="193.94254" y="79.48163" width="11" height="51.10001"/><rect class="cls-17" x="193.94254" y="113.98163" width="11" height="16.60001"/><rect class="cls-20" x="208.44254" y="79.48163" width="11" height="51.10001"/><rect class="cls-22" x="208.44254" y="107.18164" width="11" height="23.39999"/><rect class="cls-20" x="222.94254" y="79.48163" width="11" height="51.10001"/><rect class="cls-23" x="222.94254" y="95.68164" width="11" height="34.9"/><rect class="cls-20" x="237.44254" y="79.48163" width="10.99998" height="51.10001"/><rect class="cls-24" x="237.44254" y="102.58163" width="10.99998" height="28.00001"/><circle class="cls-21" cx="130.44254" cy="117.78164" r="36"/><path class="cls-22" d="M130.44258,117.78163l20.7-29.4a35.967,35.967,0,0,0-36.1-3Z" transform="translate(-0.00004 0)"/><path class="cls-23" d="M130.44258,81.88163a35.97729,35.97729,0,0,0-36,35.95458q0,0.02271,0,.04542h36v-36Z" transform="translate(-0.00004 0)"/><rect class="cls-20" x="179.44254" y="133.68163" width="47" height="2"/><rect class="cls-20" x="179.44254" y="137.98163" width="47" height="2"/><rect class="cls-20" x="179.44254" y="143.08164" width="40.59999" height="2"/><rect class="cls-20" x="179.44254" y="148.18163" width="24.7" height="2"/><rect class="cls-20" x="179.44254" y="159.18163" width="68.99998" height="1.2"/><rect class="cls-19" x="179.44254" y="158.38164" width="2.89999" height="2.89999"/><rect class="cls-17" x="201.44254" y="158.38164" width="2.89999" height="2.89999"/><rect class="cls-25" x="223.44254" y="158.38164" width="2.89999" height="2.89999"/><rect class="cls-18" x="245.54255" y="158.38164" width="2.89999" height="2.89999"/><circle class="cls-26" cx="192.94254" cy="45.98163" r="18.8"/><path class="cls-27" d="M184.34258,32.08163a1.85391,1.85391,0,0,0,.7-0.2,15.90951,15.90951,0,0,1,15.8,0,1.44532,1.44532,0,0,0,.7.2h0a1.34238,1.34238,0,0,0,.7-2.5,19.0954,19.0954,0,0,0-9.2-2.4,18.80332,18.80332,0,0,0-9.2,2.4,1.29986,1.29986,0,0,0,.5,2.5h0Z" transform="translate(-0.00004 0)"/><path class="cls-28" d="M192.94258,34.98163a11.11771,11.11771,0,0,1,10.5,7.6,1.29177,1.29177,0,0,0,1.2.9h0a1.2815,1.2815,0,0,0,1.2-1.6,13.45861,13.45861,0,0,0-25.6,0,1.19547,1.19547,0,0,0,1.2,1.6h0a1.40085,1.40085,0,0,0,1.2-.9A10.56309,10.56309,0,0,1,192.94258,34.98163Z" transform="translate(-0.00004 0)"/><path class="cls-23" d="M206.04257,52.58163a2.50934,2.50934,0,0,0-2.2,1.2,13.30763,13.30763,0,0,1-10.9,5.6,13.44686,13.44686,0,0,1-10.9-5.6,2.902,2.902,0,0,0-2.2-1.2h0a2.81,2.81,0,0,0-2.3,4.4,18.96011,18.96011,0,0,0,30.8,0,2.78177,2.78177,0,0,0-2.3-4.4h0Z" transform="translate(-0.00004 0)"/><circle class="cls-26" cx="73.24254" cy="85.88164" r="12.1"/><path class="cls-27" d="M67.74258,76.98163a0.48261,0.48261,0,0,0,.4-0.1,10.72068,10.72068,0,0,1,5.1-1.3,11.02886,11.02886,0,0,1,5.1,1.3,0.60125,0.60125,0,0,0,.4.1h0a0.84661,0.84661,0,0,0,.4-1.6,11.67814,11.67814,0,0,0-11.8,0,0.84661,0.84661,0,0,0,.4,1.6h0Z" transform="translate(-0.00004 0)"/><path class="cls-28" d="M73.24258,78.78163a6.99263,6.99263,0,0,1,6.7,4.9,0.87108,0.87108,0,0,0,.8.6h0a0.89036,0.89036,0,0,0,.8-1.1,8.60333,8.60333,0,0,0-16.4,0,0.83123,0.83123,0,0,0,.8,1.1h0a0.76043,0.76043,0,0,0,.8-0.6A6.57735,6.57735,0,0,1,73.24258,78.78163Z" transform="translate(-0.00004 0)"/><path class="cls-23" d="M81.74258,90.08163a1.74966,1.74966,0,0,0-1.4.7,8.60556,8.60556,0,0,1-14,0,1.62178,1.62178,0,0,0-1.4-.7h0a1.812,1.812,0,0,0-1.5,2.8,12.15883,12.15883,0,0,0,19.8,0,1.84425,1.84425,0,0,0-1.5-2.8h0Z" transform="translate(-0.00004 0)"/><path class="cls-29" d="M271.84259,117.78163a2.42722,2.42722,0,0,0-1,1.9,7.88069,7.88069,0,0,0,.6,2.2l1-1.6Z" transform="translate(-0.00004 0)"/><polygon class="cls-30" points="258.143 133.382 257.843 132.882 257.643 132.282 257.243 131.882 257.043 132.182 257.343 132.782 257.343 133.282 258.143 133.382"/><path class="cls-30" d="M259.04257,134.48163l-0.8-1.1-1-.5a14.60507,14.60507,0,0,0-2.2-.3,1.06891,1.06891,0,0,0,.3.5,4.45269,4.45269,0,0,0,.6,1.2,16.82865,16.82865,0,0,0,2,.2l0.6,0.6Z" transform="translate(-0.00004 0)"/><path class="cls-31" d="M271.64258,130.38162l-5.5,10.9a1.26153,1.26153,0,0,1-1.9.4h0a1.27426,1.27426,0,0,1-.4-1.5l4.7-11.6a1.25813,1.25813,0,0,1,2-.5l0.8,0.7A1.26692,1.26692,0,0,1,271.64258,130.38162Z" transform="translate(-0.00004 0)"/><polygon class="cls-32" points="259.543 134.782 258.843 133.882 258.043 134.882 258.543 135.482 259.543 134.782"/><path class="cls-31" d="M259.54257,134.28163l6.3,6.3a0.86128,0.86128,0,0,1-.3,1.4l-1.2.4a1.01458,1.01458,0,0,1-1-.3l-5-6.6Z" transform="translate(-0.00004 0)"/><path class="cls-30" d="M274.54257,126.38162h0a3.37193,3.37193,0,0,0,3.4-3.34364q0.00023-.02818,0-0.05636v-2.8a3.37194,3.37194,0,0,0-3.34363-3.4q-0.0282-.00024-0.05637,0h0a3.37194,3.37194,0,0,0-3.4,3.34365q-0.00023.02818,0,.05635v2.8A3.5037,3.5037,0,0,0,274.54257,126.38162Z" transform="translate(-0.00004 0)"/><path class="cls-30" d="M273.94257,125.68163a8.76277,8.76277,0,0,1-.7,2.5h3.5l-0.7-3.2Z" transform="translate(-0.00004 0)"/><polygon class="cls-33" points="263.843 181.582 263.643 182.382 260.543 183.782 265.743 183.782 265.643 182.082 265.743 181.482 263.843 181.582"/><polygon class="cls-33" points="281.143 181.582 280.943 182.382 277.943 183.782 283.143 183.782 282.943 182.082 283.043 181.482 281.143 181.582"/><polygon class="cls-34" points="281.243 147.082 280.543 162.382 283.543 181.582 280.543 181.582 275.943 161.782 273.443 145.782 281.243 147.082"/><polygon class="cls-34" points="276.543 147.382 270.243 164.682 266.143 181.782 263.343 181.782 266.143 164.382 268.343 146.682 276.543 147.382"/><path class="cls-23" d="M282.14258,129.78163l-1.6,12.3,0.9,5.9h-13.4l0.5-18.8a1.34745,1.34745,0,0,1,1.393-1.30026l0.007,0.00026,10.9,0.4A1.31651,1.31651,0,0,1,282.14258,129.78163Z" transform="translate(-0.00004 0)"/><polygon class="cls-31" points="284.643 142.082 279.743 151.082 278.443 149.982 282.443 139.782 284.643 142.082"/><path class="cls-31" d="M282.44257,129.38162l2.2,12a1.31645,1.31645,0,0,1-1.3,1.5h0a1.18782,1.18782,0,0,1-1.2-1l-3.3-12.1a1.23226,1.23226,0,0,1,1.3-1.6l1.1,0.1A1.3826,1.3826,0,0,1,282.44257,129.38162Z" transform="translate(-0.00004 0)"/><polygon class="cls-32" points="277.543 128.182 277.143 127.282 274.443 127.682 275.343 129.282 277.543 128.182"/><polygon class="cls-32" points="273.243 127.282 274.443 127.682 273.643 128.882 272.843 127.882 273.243 127.282"/><path class="cls-29" d="M278.34259,122.48163a21.9466,21.9466,0,0,0,.3-3.3,1.40372,1.40372,0,0,0-.4-1,2.696,2.696,0,0,0-.7-1.3,5.51979,5.51979,0,0,0-3.2-1,7.91889,7.91889,0,0,1-2.6-.4c-0.2-.1-0.8,1.8.1,2.7s3.6,0.3,4.6.8a0.9604,0.9604,0,0,1,.6,1.5,15.3668,15.3668,0,0,0,.1,3.2Z" transform="translate(-0.00004 0)"/><path class="cls-30" d="M277.54257,122.18163s0.5-1.4,1.2-.8c0.7,0.5-.4,2.8-0.9,2.6C277.34259,123.88162,277.54257,122.18163,277.54257,122.18163Z" transform="translate(-0.00004 0)"/><polygon class="cls-22" points="78.343 270.482 121.943 226.782 143.743 248.482 209.143 183.082 217.843 190.982 226.343 151.882 188.143 164.182 196.243 171.482 143.743 224.082 121.943 202.282 53.843 270.482 78.343 270.482"/><path class="cls-30" d="M68.94258,126.38162h0a3.37194,3.37194,0,0,1-3.4-3.34364q-0.00024-.02818,0-0.05636v-2.8a3.37194,3.37194,0,0,1,3.34364-3.4q0.02818-.00024.05636,0h0a3.37194,3.37194,0,0,1,3.4,3.34364q0.00024,0.02818,0,.05636v2.8A3.50371,3.50371,0,0,1,68.94258,126.38162Z" transform="translate(-0.00004 0)"/><path class="cls-30" d="M69.54258,125.68163a8.76314,8.76314,0,0,0,.7,2.5h-3.5l0.7-3.2Z" transform="translate(-0.00004 0)"/><polygon class="cls-35" points="85.843 132.682 86.143 132.182 86.343 131.582 86.743 131.182 86.943 131.482 86.643 132.082 86.643 132.582 85.843 132.682"/><rect class="cls-36" x="86.64254" y="127.98163" width="6.1" height="9.39999"/><path class="cls-30" d="M84.94258,133.68163l0.8-1.1,1-.5a14.60488,14.60488,0,0,1,2.2-.3,1.06906,1.06906,0,0,1-.3.5,4.45289,4.45289,0,0,1-.6,1.2,16.82849,16.82849,0,0,1-2,.2l-0.6.6Z" transform="translate(-0.00004 0)"/><polygon class="cls-37" points="59.643 142.282 64.543 151.282 65.743 150.282 61.843 139.982 59.643 142.282"/><polygon class="cls-33" points="80.143 181.582 80.243 182.382 83.343 183.782 78.143 183.782 78.243 182.082 78.143 181.482 80.143 181.582"/><polygon class="cls-33" points="62.743 181.582 62.943 182.382 66.043 183.782 60.743 183.782 60.943 182.082 60.843 181.482 62.743 181.582"/><polygon class="cls-38" points="62.643 147.082 63.343 162.382 60.343 181.582 63.343 181.582 68.043 161.782 69.643 145.782 62.643 147.082"/><polygon class="cls-38" points="67.443 147.382 73.643 164.682 77.743 181.782 80.543 181.782 77.743 164.382 75.543 146.682 67.443 147.382"/><path class="cls-37" d="M61.74258,129.78163l1.6,12.3-0.9,5.9h13.4l-0.5-18.8a1.34746,1.34746,0,0,0-1.393-1.30026l-0.007.00026-10.9.4A1.31651,1.31651,0,0,0,61.74258,129.78163Z" transform="translate(-0.00004 0)"/><path class="cls-37" d="M61.44258,129.38162l-2.2,12a1.31649,1.31649,0,0,0,1.3,1.5h0a1.1878,1.1878,0,0,0,1.2-1l3.3-12.1a1.23228,1.23228,0,0,0-1.3-1.6l-1.1.1A1.38268,1.38268,0,0,0,61.44258,129.38162Z" transform="translate(-0.00004 0)"/><path class="cls-37" d="M72.74258,130.38162l5.5,10.9a1.26157,1.26157,0,0,0,1.9.4h0a1.2743,1.2743,0,0,0,.4-1.5l-4.7-11.6a1.25812,1.25812,0,0,0-2-.5l-0.8.7A1.60515,1.60515,0,0,0,72.74258,130.38162Z" transform="translate(-0.00004 0)"/><polygon class="cls-32" points="84.443 134.082 85.143 133.182 85.943 134.182 85.443 134.782 84.443 134.082"/><path class="cls-37" d="M84.54258,133.38162l-6.3,6.3a0.86128,0.86128,0,0,0,.3,1.4l1.2,0.4a1.01459,1.01459,0,0,0,1-.3l5-6.6Z" transform="translate(-0.00004 0)"/><path class="cls-29" d="M65.14258,118.88163a5.68282,5.68282,0,0,0-.5,1.9c-0.1,1.3.7,4.8,2.4,5.6,0.7,0.3,2.7-1,2.9-1.3a8.50287,8.50287,0,0,0,.7-2.1,1.30667,1.30667,0,0,1-1.0125-1.54584q0.00568-.02721.0125-0.05416c0.3-1.3.8-1.1,1-.8a7.76207,7.76207,0,0,1,.4.7l0.3-.6a11.59362,11.59362,0,0,1-.7-1.5c-0.1-.5.7-0.2,1.2-0.7s-0.3-1.8-1.2-2.2-1.8.3-2.7,0.3C67.24258,116.68163,65.24258,116.98163,65.14258,118.88163Z" transform="translate(-0.00004 0)"/><path class="cls-29" d="M71.54258,120.78163a2.66363,2.66363,0,0,1,.2,1.4c-0.1.9,0.5,0.7,0.7,1.1s-0.7,2.4-1.5,2.6c-0.9.3-1.2-1.2-1.2-1.2l0.8-1.3a1.87985,1.87985,0,0,0,.7-0.8,6.66,6.66,0,0,0-.1-1.6Z" transform="translate(-0.00004 0)"/><ellipse class="cls-39" cx="163.44281" cy="166.59858" rx="4.10005" ry="5.10007" transform="matrix(0.1271, -0.99189, 0.99189, 0.1271, -22.57808, 307.54142)"/><path class="cls-40" d="M142.04257,193.18163c-1.4,1.3-3.2,5.4-3.7,5.4s-0.1-.9-0.5-1.8-2.9,3.1-3.3,2.9c-0.4-.3.2-2.6,0.9-3.6a13.30353,13.30353,0,0,1,1.4-1.9,5.95646,5.95646,0,0,1,2.1-1.4C139.04257,192.68163,143.44258,191.88162,142.04257,193.18163Z" transform="translate(-0.00004 0)"/><path class="cls-39" d="M160.24259,160.18163a1.27474,1.27474,0,0,1-1.8.9,4.9142,4.9142,0,0,1-2.6-2.1l2.2,0.6Z" transform="translate(-0.00004 0)"/><path class="cls-41" d="M210.34258,175.88162a2.54326,2.54326,0,0,0-.4,1.7c0.1,0.6,2.4,3.9,3.1,4.2,0.8,0.4,2,.5,2-1.1a9.66867,9.66867,0,0,0-2-4.9,1.72475,1.72475,0,0,0-2.1-.3A2.87719,2.87719,0,0,0,210.34258,175.88162Z" transform="translate(-0.00004 0)"/><path class="cls-42" d="M213.14258,175.48163c-0.1,1.4-.2,1.6-1.2,1.8a1.23156,1.23156,0,0,1-1-.2,0.66954,0.66954,0,0,1-.4-0.7l0.1-1.4C210.64258,175.08164,213.24259,174.18163,213.14258,175.48163Z" transform="translate(-0.00004 0)"/><path class="cls-41" d="M215.14258,173.18163a2.54326,2.54326,0,0,0-.4,1.7c0.1,0.6,2.4,3.9,3.1,4.2,0.8,0.4,2,.5,2-1.1a9.66867,9.66867,0,0,0-2-4.9,1.72475,1.72475,0,0,0-2.1-.3A5.921,5.921,0,0,1,215.14258,173.18163Z" transform="translate(-0.00004 0)"/><path class="cls-42" d="M217.94258,172.88162c-0.1,1.4-.2,1.6-1.2,1.8a1.23155,1.23155,0,0,1-1-.2,0.66954,0.66954,0,0,1-.4-0.7l0.1-1.4C215.44258,172.48163,218.04257,171.58164,217.94258,172.88162Z" transform="translate(-0.00004 0)"/><path class="cls-43" d="M207.14258,155.38162l8.4,5.1-0.3,11.5a1.45646,1.45646,0,0,0,1.29742,1.59975l0.00258,0.00026a1.26839,1.26839,0,0,1,.6.1,1.18779,1.18779,0,0,0,1.2-1l1.6-12.3a3.88266,3.88266,0,0,0-1-3.2l-4-4.4-4.4-4.3s-6.5-7.3-6.9-.9C203.34258,153.78163,207.14258,155.38162,207.14258,155.38162Z" transform="translate(-0.00004 0)"/><path class="cls-43" d="M202.34258,157.78163l8.4,5.1-0.3,11.5a1.45646,1.45646,0,0,0,1.29742,1.59975l0.00258,0.00026a1.26839,1.26839,0,0,1,.6.1,1.18779,1.18779,0,0,0,1.2-1l1.6-12.3a3.88266,3.88266,0,0,0-1-3.2l-4-4.4-4.4-4.3s-6.5-7.3-6.9-.9C198.54257,156.18163,202.34258,157.78163,202.34258,157.78163Z" transform="translate(-0.00004 0)"/><path class="cls-44" d="M208.94258,129.38162c1.3,1.1.3,8.7,3.1,18,2.4,7.9-13.5,7.7-13.4,4.7a176.17594,176.17594,0,0,0-.6-17.7s-0.1-2.9,4.8-4.9C204.04257,128.98163,207.64258,128.28163,208.94258,129.38162Z" transform="translate(-0.00004 0)"/><circle class="cls-40" cx="204.61007" cy="125.99465" r="3.80013" transform="translate(31.41341 292.55655) rotate(-75.50519)"/><ellipse class="cls-40" cx="203.6411" cy="131.48213" rx="2.5" ry="1.89999" transform="translate(-26.35675 54.94289) rotate(-14.44202)"/><path class="cls-40" d="M202.24259,128.98163c0.1,1.7-.1,2.1.4,2.6,0.4,0.4,2.2,0,2.1-.5a5.43719,5.43719,0,0,1,0-1.8S202.14258,127.28163,202.24259,128.98163Z" transform="translate(-0.00004 0)"/><path class="cls-45" d="M209.94258,121.98163a1.20909,1.20909,0,0,1-1.5-.1c-0.8-.8-5.7-2.8-7.6,1s0.3,5.5.5,5.4a1.34683,1.34683,0,0,0-.1-1.6c-0.4-.7-0.1-1.1.5-1.1,0.5,0,1,1.2,1.3,1.1a0.52993,0.52993,0,0,0,.3-0.2,1.7006,1.7006,0,0,1,1-.6,7.781,7.781,0,0,1,3.4.4C210.74259,127.48163,209.94258,121.98163,209.94258,121.98163Z" transform="translate(-0.00004 0)"/><path class="cls-40" d="M197.34258,140.58164l0.5,5a1.52407,1.52407,0,0,0,.6,1.1l7.8,5.7,0.7-1-5.9-5.4a1.26753,1.26753,0,0,1-.4-0.9v-2.9Z" transform="translate(-0.00004 0)"/><path class="cls-44" d="M200.64258,143.18163c-1.7.6-4.8-.4-4.8-0.4,0.7-7.1,2.5-9.8,2.5-9.8S202.44258,142.68163,200.64258,143.18163Z" transform="translate(-0.00004 0)"/><path class="cls-46" d="M201.04257,136.38162v6.6h0a0.97336,0.97336,0,0,0,.7-1.1,55.17115,55.17115,0,0,0-.7-5.5h0Z" transform="translate(-0.00004 0)"/><path class="cls-41" d="M202.54257,155.08164v0.8h0a0.41894,0.41894,0,0,0,.3.4l6.5,3.8a1.07932,1.07932,0,0,0,1.1,0l9.5-5.5a0.33758,0.33758,0,0,0,.2-0.3h0v-0.8l-0.8.1-6-3.4a1.07932,1.07932,0,0,0-1.1,0l-8.4,4.9h-1.3Z" transform="translate(-0.00004 0)"/><path class="cls-47" d="M209.84258,160.08164a0.74935,0.74935,0,0,0,.5-0.1l9.5-5.5a0.33758,0.33758,0,0,0,.2-0.3h0v-0.8l-0.8.1-3.2-1.9h-6.6l-0.6.3Z" transform="translate(-0.00004 0)"/><path class="cls-48" d="M219.74259,154.58164l0.2-.1a0.33758,0.33758,0,0,0,.2-0.3h0v-0.8h-0.4v1.2Z" transform="translate(-0.00004 0)"/><path class="cls-49" d="M210.24259,160.08164v-1.4h-0.9v1.3a1.412,1.412,0,0,0,.9.1h0Z" transform="translate(-0.00004 0)"/><path class="cls-39" d="M209.34258,159.18163l-6.5-3.8c-0.3-.2-0.3-0.5-0.1-0.6l9.5-5.5a1.395,1.395,0,0,1,1.1,0l6.5,3.8c0.3,0.2.3,0.5,0.1,0.6l-9.5,5.5A1.07932,1.07932,0,0,1,209.34258,159.18163Z" transform="translate(-0.00004 0)"/><path class="cls-50" d="M209.64258,158.38162l-3.5-2a0.26756,0.26756,0,0,1-.1-0.5l7.9-4.6a1.3874,1.3874,0,0,1,.9,0l3.5,2a0.26756,0.26756,0,0,1,.1.5l-7.9,4.6A1.3874,1.3874,0,0,1,209.64258,158.38162Z" transform="translate(-0.00004 0)"/><path class="cls-40" d="M211.64258,149.18163c-0.4.8-.8,2.2-0.6,2.2a1.20513,1.20513,0,0,0,.5-0.5l0.2,1.4h0a0.53834,0.53834,0,0,0,.5.4h0a1.05729,1.05729,0,0,0,.7-0.6l0.1-.6a4.85386,4.85386,0,0,0,0-1.7l-0.1-.7C212.94258,149.18163,212.04257,148.38162,211.64258,149.18163Z" transform="translate(-0.00004 0)"/><path class="cls-40" d="M212.84258,136.68163l0.7,3.9a1.652,1.652,0,0,1,0,.7l-0.6,7.8h-1.3l-0.4-6.9a3.70735,3.70735,0,0,0-.4-1.5l-1-2Z" transform="translate(-0.00004 0)"/><path class="cls-41" d="M210.14258,159.48163h0a0.51949,0.51949,0,0,1-.2-0.4v-7.5a1.05018,1.05018,0,0,1,.5-0.9l9.5-5.5a0.1875,0.1875,0,0,1,.3,0h0l0.5,0.3-0.5.6v6.9a1.05018,1.05018,0,0,1-.5.9l-8.4,4.9-0.8,1Z" transform="translate(-0.00004 0)"/><path class="cls-47" d="M210.14258,151.08164a0.7807,0.7807,0,0,1,.4-0.4l9.5-5.5a0.1875,0.1875,0,0,1,.3,0h0l0.5,0.3-0.5.6v3.7l-3.3,5.7-0.6.3Z" transform="translate(-0.00004 0)"/><path class="cls-48" d="M219.84258,145.18163l0.2-.1a0.1875,0.1875,0,0,1,.3,0h0l0.5,0.3-0.2.3Z" transform="translate(-0.00004 0)"/><path class="cls-49" d="M211.34258,151.28163l-0.4.8-0.9-.5a1.2345,1.2345,0,0,1,.4-0.8Z" transform="translate(-0.00004 0)"/><path class="cls-39" d="M210.44258,151.78163v7.5c0,0.4.2,0.5,0.5,0.4l9.5-5.5a1.19326,1.19326,0,0,0,.5-0.9v-7.5c0-.4-0.2-0.5-0.5-0.4l-9.5,5.5A1.19321,1.19321,0,0,0,210.44258,151.78163Z" transform="translate(-0.00004 0)"/><path class="cls-40" d="M206.94258,151.38162a1.77678,1.77678,0,0,0,1,.4c0.5,0,1.2.6,1,.8s-0.7-.3-0.7-0.3l1,1a0.09794,0.09794,0,0,0,.09583.1h0.00418a0.54037,0.54037,0,0,1-.2.8h0a0.90835,0.90835,0,0,1-1,0l-0.9-.6a2.36076,2.36076,0,0,1-.8-0.9l-0.2-.3Z" transform="translate(-0.00004 0)"/><path class="cls-44" d="M209.64258,140.08164a7.56257,7.56257,0,0,0,4.3-3.1,33.2856,33.2856,0,0,0-5.1-7.6S206.64258,140.98163,209.64258,140.08164Z" transform="translate(-0.00004 0)"/><path class="cls-46" d="M211.14258,139.48163l-1.4-5.3,0.6,5.7A5.89622,5.89622,0,0,0,211.14258,139.48163Z" transform="translate(-0.00004 0)"/><path class="cls-39" d="M205.14258,128.88162v0.1a0.54985,0.54985,0,0,0,.7.3,2.012,2.012,0,0,0,1.1-.9l-1,.3Z" transform="translate(-0.00004 0)"/><path class="cls-39" d="M197.84258,50.28163a3.54135,3.54135,0,0,1-1,2.6,3.18777,3.18777,0,0,1-2.6,1,2.81337,2.81337,0,0,1-2.4-1.3,4.52071,4.52071,0,0,1-.7-2.8v-4.6h-1.8v-0.8h1.8v-3.8a2.37541,2.37541,0,0,0-.3-1.2,1.09987,1.09987,0,0,0-1-.6,1.3886,1.3886,0,0,0-1,.5,2.1117,2.1117,0,0,0-.4,1h-0.4a3.02172,3.02172,0,0,1,.5-1.6,1.62177,1.62177,0,0,1,1.4-.7,1.76315,1.76315,0,0,1,1.5.8,3.37113,3.37113,0,0,1,.5,1.7v3.8h5.7v0.8h-5.7v4.1a7.26724,7.26724,0,0,0,.4,2.5,2.04421,2.04421,0,0,0,1.9,1.4,2.73415,2.73415,0,0,0,2.8-2.66667q0.00163-.06666,0-0.13333a2.29593,2.29593,0,0,0-.4-1.4,1.42547,1.42547,0,0,0-1.2-.6,1.28386,1.28386,0,0,0-1,.4,1.23078,1.23078,0,0,0-.5,1,1.30929,1.30929,0,0,0,.6,1.2l-0.2.4a2.136,2.136,0,0,1-.8-1.7,1.81564,1.81564,0,0,1,.6-1.4,2.00106,2.00106,0,0,1,3.1.3A2.60953,2.60953,0,0,1,197.84258,50.28163Z" transform="translate(-0.00004 0)"/><path class="cls-39" d="M76.54258,88.68163a2.71554,2.71554,0,0,1-.6,1.7,2.41253,2.41253,0,0,1-1.7.7,2.0876,2.0876,0,0,1-1.6-.8,3.74257,3.74257,0,0,1-.5-1.8v-3h-1.1v-0.5h1.1v-2.5a1.88392,1.88392,0,0,0-.2-0.8,0.66954,0.66954,0,0,0-.7-0.4,0.71275,0.71275,0,0,0-.6.3,0.84376,0.84376,0,0,0-.2.7h-0.3a1.68931,1.68931,0,0,1,.3-1,0.87034,0.87034,0,0,1,.9-0.4,1.23073,1.23073,0,0,1,1,.5,2.01586,2.01586,0,0,1,.3,1.1v2.5h3.7v0.5h-3.7v2.6a4.52909,4.52909,0,0,0,.3,1.6,1.40086,1.40086,0,0,0,1.2.9,1.901,1.901,0,0,0,1.3-.5,2.10618,2.10618,0,0,0,.5-1.3,1.61288,1.61288,0,0,0-.3-0.9,0.90946,0.90946,0,0,0-.8-0.4,1.854,1.854,0,0,0-.7.2,0.86437,0.86437,0,0,0-.3.6,0.90951,0.90951,0,0,0,.4.8l-0.2.2a1.60582,1.60582,0,0,1-.5-1.1,1.37178,1.37178,0,0,1,1.3-1.3,1.25465,1.25465,0,0,1,1.1.6A1.21819,1.21819,0,0,1,76.54258,88.68163Z" transform="translate(-0.00004 0)"/><path class="cls-51" d="M151.56156,267.90819c5.94317,3.43133,15.579,3.43124,21.5224-.00018s5.94344-8.9946.00029-12.42592-15.579-3.43116-21.52238.00018S145.61841,264.47694,151.56156,267.90819Z" transform="translate(-0.00004 0)"/><path class="cls-52" d="M154.5136,175.67172c0.07452-.52286-0.11482-0.457-0.66664-0.62053q-0.62149-.1842-1.243-0.36851l-3.24656-.96253-1.89314,7.95816-8.94808,11.532a2.08707,2.08707,0,0,0,1.51957,1.269c0.91158,0.18462,8.5005-7.52864,11.77636-10.91135a2.57562,2.57562,0,0,0,.42793-0.60724,4.81689,4.81689,0,0,0,1.14213-2.40671,15.78124,15.78124,0,0,1,.34855-1.67369c0.25438-1.033.589-2.07763,0.76969-3.12569Q154.508,175.71089,154.5136,175.67172Z" transform="translate(-0.00004 0)"/><path class="cls-53" d="M156.3946,163.02282c-0.7979.31622-2.10471,0.92175-2.25953,0.99305a9.52234,9.52234,0,0,0-3.95387,3.08461,13.4262,13.4262,0,0,0-1.85438,5.51993q-0.24432,1.39749-.489,2.79492c-0.0747.42689-.15759,0.852-0.2296,1.27923a4.77609,4.77609,0,0,0-.20554,1.33942c0.77312,0.38034,1.6056.66927,2.3875,1.04415l2.20531,1.05731a6.86333,6.86333,0,0,1,1.80384,1.10719c0.383-.963.66895-1.96134,0.95426-2.95769a8.09752,8.09752,0,0,0,.16876-2.12228l0.12339-3.22252,0.0863-2.25387c0.0393-1.02647.00477-2.06373,0.09435-3.09113,0.01769-.20287.0402-0.40529,0.06919-0.60687a6.53307,6.53307,0,0,1,1.09612-2.92586,2.38322,2.38322,0,0,0,.6376-1.23275A3.78779,3.78779,0,0,0,156.3946,163.02282Z" transform="translate(-0.00004 0)"/><path class="cls-53" d="M155.734,163.18131l1.20806-.50577a7.44822,7.44822,0,0,1,4.69947-.79568c2.53979,0.628,4.97283,1.60855,7.43978,2.46516,2.28818,0.79453,5.31189,1.51633,7.19838,3.12881,2.62375,2.24287-3.935,14.8454-3.84052,18.97724s0.56034,9.00295.92535,13.495,0.8592,6.95456-2.81481,8.86417a14.4477,14.4477,0,0,1-14.6424-1.58,5.113,5.113,0,0,1-2.31223-3.62841,15.52113,15.52113,0,0,1,.0503-3.052q0.25078-3.33759.17364-6.689a11.384,11.384,0,0,0-.09668-1.39221c-0.08054-.542-0.23213-1.07184-0.306-1.61481a13.90518,13.90518,0,0,1,.10144-3.30461c0.13128-1.25867.54509-2.52491,0.552-3.7893,0.01228-2.261-1.549-4.34137-1.388-6.59668a25.99585,25.99585,0,0,1,.97813-3.63681,9.38645,9.38645,0,0,0-.01127-3.40636c-0.1559-1.0483-.61642-2.00225-0.727-3.06459a2.91077,2.91077,0,0,1,.99791-2.96066,7.569,7.569,0,0,1,1.594-.82126Z" transform="translate(-0.00004 0)"/><ellipse class="cls-52" cx="163.82353" cy="165.52477" rx="4.14333" ry="5.21928" transform="translate(-21.17522 306.98883) rotate(-82.70023)"/><ellipse class="cls-54" cx="163.82439" cy="165.52347" rx="2.9614" ry="3.73042" transform="translate(-21.1731 306.98863) rotate(-82.70026)"/><path class="cls-54" d="M162.15527,159.72322s2.48721-2.04579,2.9759-1.0096a31.88124,31.88124,0,0,1,.89139,5.48269l-4.94,1.32716,0.74965-4.50534S160.84353,160.17982,162.15527,159.72322Z" transform="translate(-0.00004 0)"/><polygon class="cls-52" points="179.97 181.52 179.144 205.312 176.259 205.671 174.381 184.252 179.97 181.52"/><path class="cls-53" d="M175.72849,167.06916s2.30727,0.88177,3.6132,7.969a78.42376,78.42376,0,0,1,1.2583,8.569c0.10043,1.55344-6.97119,1.48827-6.98286.96137-0.07283-3.29024-.42373-7.13644-0.47337-9.03625C173.05791,172.24722,172.93271,167.71835,175.72849,167.06916Z" transform="translate(-0.00004 0)"/><path class="cls-55" d="M152.88209,256.53163c-1.09886.52945-4.95749,3.02825-4.62925,4.13535s5.973,0.636,8.864-.36156a16.82524,16.82524,0,0,1,4.085-1.03768c1.126-.22624,2.73778-2.1332-0.083-4.62242a12.2146,12.2146,0,0,1-4.51382,1.64773A20.305,20.305,0,0,1,152.88209,256.53163Z" transform="translate(-0.00004 0)"/><path class="cls-56" d="M152.882,256.5317c-0.64575.4693,2.6505,2.07385,4.71412,1.44517,1.04136-.31725,3.79027-1.1936,4.02-2.04233,0.1762-.651-0.36569-1.839-0.53392-3.21139l-0.022-1.28273,0.00036-.00908H161.06l-0.23-13.37-5.99077.10311,0.28947,16.82434C154.22994,255.59788,153.21692,256.28823,152.882,256.5317Z" transform="translate(-0.00004 0)"/><path class="cls-55" d="M164.73264,257.651c-1.12976.45984-5.13687,2.71292-4.87839,3.83829s5.92173,1.00756,8.86924.19246a16.82478,16.82478,0,0,1,4.14181-.78064c1.13788-.15551,2.8656-1.95814.20571-4.61859a12.21445,12.21445,0,0,1-4.60786,1.36273A20.30609,20.30609,0,0,1,164.73264,257.651Z" transform="translate(-0.00004 0)"/><path class="cls-56" d="M169.34725,259.38759c1.05916-.25164,3.85742-0.95466,4.13966-1.78742a8.47955,8.47955,0,0,0-.27434-2.6399V253.08l0.0009-.00878h-0.0009V236.03384h-5.99172v20.12923c-0.96925.57149-2.12012,1.25389-2.48828,1.48783C164.05881,258.07908,167.24839,259.88622,169.34725,259.38759Z" transform="translate(-0.00004 0)"/><path class="cls-57" d="M152.88162,205.75066v43.411l10.76789,0.32093V218.35139l1.61724,30.97069h9.85047c-0.6929-23.57713-1.26736-50.14067-2.52875-59.38509l-19.19757-1.22356C152.89784,193.58317,152.183,199.61024,152.88162,205.75066Z" transform="translate(-0.00004 0)"/><path class="cls-54" d="M179.1217,205.20868a44.70291,44.70291,0,0,1,.648,6.08259c-0.11479,1.47566-.90442,3.9095-1.50392,3.85794s-0.01985-5.93363-1.07259-5.34776-1.16329,1.59089-1.64011,1.23589,0.83149-5.3827.48256-7.56306S179.1217,205.20868,179.1217,205.20868Z" transform="translate(-0.00004 0)"/><path class="cls-58" d="M167.43525,166.53106a10.383,10.383,0,0,0,2.15723,3.45344l0.0803,0.08147c0.77334,0.77715,1.60407,1.49433,2.3872,2.26131,3.21-.97916,5.8868-7.751,2.91381-11.57748a16.05117,16.05117,0,0,1-3.17332-8.2428l-3.44263-1.9515-2.59485-1.47094a5.18234,5.18234,0,0,0-1.87216-.96534,17.43547,17.43547,0,0,0,.26795,2.54441,70.13917,70.13917,0,0,0,1.5429,9.58637A50.59137,50.59137,0,0,0,167.43525,166.53106Z" transform="translate(-0.00004 0)"/><path class="cls-58" d="M163.83217,143.92373a7.94912,7.94912,0,1,1,.0907,15.898h0a8.107,8.107,0,0,1-7.99437-7.9036C155.63746,146.9786,159.442,143.94877,163.83217,143.92373Z" transform="translate(-0.00004 0)"/><path class="cls-52" d="M164.19517,166.64369h0a2.43975,2.43975,0,0,1-2.58448-2.28588h0l-0.41217-6.79286,4.87039-.29869,0.4121,6.79286A2.43987,2.43987,0,0,1,164.19517,166.64369Z" transform="translate(-0.00004 0)"/><path class="cls-58" d="M161.30437,159.42876l0.18952,3.00488c4.50653-.16227,5.28374-6.04642,5.28374-6.04642Z" transform="translate(-0.00004 0)"/><path class="cls-59" d="M167.80661,155.11716l-0.0299-5.23246a2.42488,2.42488,0,0,0-2.43146-2.404l-4.90758-1.34527c-1.32977.00759-3.77742,2.39675-3.76457,4.65093l0.03,5.253c0.01748,3.05488,2.5273,4.88294,5.58213,4.86553h0A6.10481,6.10481,0,0,0,167.80661,155.11716Z" transform="translate(-0.00004 0)"/><circle class="cls-60" cx="162.3249" cy="153.59942" r="0.43974" transform="translate(-11.37686 12.99407) rotate(-4.42902)"/><circle class="cls-60" cx="158.29828" cy="153.58931" r="0.4397" transform="translate(-11.38882 12.68394) rotate(-4.42931)"/><path class="cls-52" d="M160.4936,155.92678c-0.94534.261-1.02359-.40358-1.02359-0.40358l0.50517-.95352" transform="translate(-0.00004 0)"/><path class="cls-60" d="M163.83712,151.92575a0.40265,0.40265,0,0,0-.38766-0.41708h0l-1.99-.07323h-0.00011a0.40272,0.40272,0,0,0-.02972.80489l1.99,0.07315a0.413,0.413,0,0,0,.08169-0.00537A0.40266,0.40266,0,0,0,163.83712,151.92575Z" transform="translate(-0.00004 0)"/><path class="cls-60" d="M159.04053,151.84476a0.40266,0.40266,0,0,0-.3878-0.417l-1.21666-.04462h0a0.40265,0.40265,0,0,0-.02911.80477l1.21659,0.04462a0.40974,0.40974,0,0,0,.08137-0.00529A0.40268,0.40268,0,0,0,159.04053,151.84476Z" transform="translate(-0.00004 0)"/><path class="cls-61" d="M160.53491,158.14377a2.25264,2.25264,0,0,1-1.75579-1.46014l3.53,0.26585A1.63685,1.63685,0,0,1,160.53491,158.14377Z" transform="translate(-0.00004 0)"/><path class="cls-58" d="M160.43613,145.84149a5.85432,5.85432,0,0,1,6.51854.62553c3.56467,2.55442,2.57041,7.0066,2.57041,7.0066a24.69759,24.69759,0,0,1-10.80741-6.17674Z" transform="translate(-0.00004 0)"/><path class="cls-58" d="M160.35185,146.01532c-3.30243.70063-3.82792,4.5405-3.82792,4.5405a14.70083,14.70083,0,0,0,3.34292-3.61473Z" transform="translate(-0.00004 0)"/><path class="cls-58" d="M167.47208,151.588l-0.484,3.651c-1.91046-.34756-1.30069-4.20321-1.30069-4.20321Z" transform="translate(-0.00004 0)"/><circle class="cls-59" cx="168.25785" cy="154.31095" r="1.98892" transform="translate(-0.88007 0.9651) rotate(-0.32778)"/><path class="cls-62" d="M173.42647,181.66867l-0.62484-5.3663-0.40431,9.924S172.9854,183.727,173.42647,181.66867Z" transform="translate(-0.00004 0)"/><path class="cls-62" d="M153.30072,180.82469l1.11595-6.19969-0.34692,9.13495A6.02719,6.02719,0,0,0,153.30072,180.82469Z" transform="translate(-0.00004 0)"/></svg>