<svg id="Layer_1" data-name="Layer 1" xmlns="http://www.w3.org/2000/svg" viewBox="0 0 21.65084 24.33296"><defs><style>.cls-1{fill:#2e3192;}</style></defs><title>education</title><path class="cls-1" d="M25.72434,3.83613H20.31149a0.01128,0.01128,0,0,1-.01128-0.01128V3.37443a0.52933,0.52933,0,0,0-.42932-0.53576,0.50251,0.50251,0,0,0-.57527.49713v0.489a0.01128,0.01128,0,0,1-.01128.01128H13.82964a0.10108,0.10108,0,0,0-.10108.10108v8.78545a0.10108,0.10108,0,0,0,.10108.10108H17.242a0.01128,0.01128,0,0,1,.0109.01417l-1.70329,6.43564a0.54486,0.54486,0,0,0,.55346.719h0a0.40576,0.40576,0,0,0,.371-0.28557l1.81955-6.87485a0.01128,0.01128,0,0,1,.0109-0.00839h0.97985a0.01128,0.01128,0,0,1,.01128.01128v4.84021a0.52936,0.52936,0,0,0,.42928.53579,0.50252,0.50252,0,0,0,.5753-0.49713V12.835a0.01128,0.01128,0,0,1,.01128-0.01128H21.2859a0.01128,0.01128,0,0,1,.0109.00839l1.79692,6.78939a0.52677,0.52677,0,0,0,.57925.40118,0.50235,0.50235,0,0,0,.401-0.62368l-1.73651-6.56112a0.01128,0.01128,0,0,1,.0109-0.01417h3.37592a0.10108,0.10108,0,0,0,.10108-0.10108V3.93721A0.10108,0.10108,0,0,0,25.72434,3.83613Zm-0.41053,8.50438H14.24017a0.01128,0.01128,0,0,1-.01128-0.01128v-7.981a0.01128,0.01128,0,0,1,.01128-0.01128H25.31381a0.01128,0.01128,0,0,1,.01128.01128v7.981A0.01128,0.01128,0,0,1,25.31381,12.34051Z" transform="translate(-4.17458 -2.83352)"/><path class="cls-1" d="M25.60567,27.16648a3.59791,3.59791,0,0,0-2.702-3.48233,2.16613,2.16613,0,1,0-1.79542,0,3.59791,3.59791,0,0,0-2.702,3.48233" transform="translate(-4.17458 -2.83352)"/><path class="cls-1" d="M18.48988,27.16648a3.59791,3.59791,0,0,0-2.702-3.48233,2.16613,2.16613,0,1,0-1.79542,0,3.59791,3.59791,0,0,0-2.702,3.48233" transform="translate(-4.17458 -2.83352)"/><path class="cls-1" d="M11.37408,27.16648a3.59791,3.59791,0,0,0-2.702-3.48233,2.16613,2.16613,0,1,0-1.79542,0,3.59791,3.59791,0,0,0-2.702,3.48233" transform="translate(-4.17458 -2.83352)"/><path class="cls-1" d="M5.41543,8.215" transform="translate(-4.17458 -2.83352)"/><path class="cls-1" d="M14.61156,8.5431l-3.0793-1.05391a4.44132,4.44132,0,0,0-.94118-0.208l0.025,0.00018a8.13977,8.13977,0,0,0-1.22032-.20905A1.73994,1.73994,0,0,0,10.5028,5.41344,1.68365,1.68365,0,0,0,8.89128,3.66595,1.68363,1.68363,0,0,0,7.27977,5.41344a1.7439,1.7439,0,0,0,1.0676,1.64325,5.81,5.81,0,0,0-1.18083.19845A2.232,2.232,0,0,0,5.21665,9.07341L4.59127,12.43814a0.79306,0.79306,0,0,0,.56336.92457,0.76391,0.76391,0,0,0,.93078-0.60286l0.098-.52708v0L7.01627,8.788h0.2106v4.89734H7.22446l-0.42013,5.479a0.793,0.793,0,0,0,.65906.85893,0.764,0.764,0,0,0,.861-0.699L8.74756,13.805H9.30983L9.72838,19.2636a0.84291,0.84291,0,0,0,.8247.76389h0a0.70044,0.70044,0,0,0,.70756-0.76389L10.8421,13.805h0.00346V13.68535H10.83315V8.86471l3.77838,1.29316a0.577,0.577,0,0,0,.76391-0.54595A1.02636,1.02636,0,0,0,14.61156,8.5431ZM8.8427,10.60376l-0.37-.48966,0.10653-1.081q0.07625-.77381.07629-1.55231L8.59243,7.28489l0.12625-.21762h0.248L9.093,7.28489l-0.06312.19587q0,0.77756.07631,1.55231l0.10652,1.081Z" transform="translate(-4.17458 -2.83352)"/></svg>