<svg id="Layer_1" data-name="Layer 1" xmlns="http://www.w3.org/2000/svg" viewBox="0 0 23.34 23.34"><defs><style>.cls-1{fill:#393;}</style></defs><title>Apparel</title><path class="cls-1" d="M1.67553,3.54161v8.28194h15.811V3.54161H1.67553Zm15.05806,7.529H2.42843V4.29452H16.73359v6.77613Z" transform="translate(-0.16972 -0.53)"/><path class="cls-1" d="M22.38036,17.84677H18.9923V15.21161a1.13073,1.13073,0,0,0-1.12935-1.12935v-0.7529A1.13073,1.13073,0,0,0,18.9923,12.2V3.16516a1.13073,1.13073,0,0,0-1.12935-1.12935H12.21617V0.53H6.94585V2.03581H1.29907A1.13073,1.13073,0,0,0,.16972,3.16516V12.2a1.13073,1.13073,0,0,0,1.12935,1.12935v0.7529A1.13073,1.13073,0,0,0,.16972,15.21161v7.529A1.13073,1.13073,0,0,0,1.29907,23.87H17.86295a1.13073,1.13073,0,0,0,1.12935-1.12935V20.10548h3.38806A1.12935,1.12935,0,0,0,22.38036,17.84677ZM7.69875,1.2829h3.76452v0.7529H7.69875V1.2829ZM0.92262,12.2V3.16516a0.37683,0.37683,0,0,1,.37645-0.37645H17.86295a0.37683,0.37683,0,0,1,.37645.37645V12.2a0.37683,0.37683,0,0,1-.37645.37645H1.29907A0.37683,0.37683,0,0,1,.92262,12.2ZM17.11,13.32935v0.7529H14.85133v-0.7529H17.11Zm-3.01161,0v0.7529H5.06359v-0.7529h9.03484Zm-9.78774,0v0.7529H2.052v-0.7529H4.31069ZM18.2394,22.74064a0.37683,0.37683,0,0,1-.37645.37645H1.29907a0.37683,0.37683,0,0,1-.37645-0.37645v-7.529a0.37683,0.37683,0,0,1,.37645-0.37645H17.86295a0.37683,0.37683,0,0,1,.37645.37645v2.63516H16.73359V15.58806H2.42843v6.77613H16.73359V20.10548H18.2394v2.63516ZM9.581,20.85839h1.88226v0.7529H7.69875V16.341h3.76452v0.7529H9.581a1.13073,1.13073,0,0,0-1.12935,1.12935V19.729A1.13073,1.13073,0,0,0,9.581,20.85839Zm0-.7529A0.37683,0.37683,0,0,1,9.20456,19.729V18.22323A0.37683,0.37683,0,0,1,9.581,17.84677h3.01161a0.37683,0.37683,0,0,1,.37645.37645V19.729a0.37683,0.37683,0,0,1-.37645.37645H9.581Zm2.63516,0.7529h0.37645a1.12782,1.12782,0,0,0,1.06009-.7529h2.328v1.50581H12.21617v-0.7529Zm0.37645-3.76452H12.21617V16.341h3.76452v1.50581h-2.328A1.12782,1.12782,0,0,0,12.59262,17.09387ZM6.94585,16.341v5.27032H3.18133V16.341H6.94585Zm15.43452,3.01161H13.722v-0.7529h8.65839A0.37645,0.37645,0,0,1,22.38036,19.35258Z" transform="translate(-0.16972 -0.53)"/><rect class="cls-1" x="8.84684" y="7.7921" width="5.01424" height="0.7529" transform="translate(-2.62026 9.89097) rotate(-45)"/><rect class="cls-1" x="13.47321" y="5.30643" width="0.73181" height="0.7529" transform="translate(-0.13474 10.92021) rotate(-45)"/><rect class="cls-1" x="4.128" y="7.306" width="6.38865" height="0.7529" transform="translate(-3.45737 6.8978) rotate(-45)"/></svg>