<svg id="Layer_1" data-name="Layer 1" xmlns="http://www.w3.org/2000/svg" viewBox="0 0 14.77721 23.8019"><defs><style>.cls-1{fill:#393;}</style></defs><title>Apparel</title><path class="cls-1" d="M19.21326,20.65905a3.41432,3.41432,0,0,0-2.17187-2.808c-0.58341-.25007-1.115-0.42407-1.54221-0.56389-0.85091-.27862-1.196-0.41254-1.28115-0.66-0.39288-2.1954-.78365-4.409-0.94171-5.30579,0.40895-.45411.98422-1.10411,2.06263-2.32321a0.50853,0.50853,0,0,0-.18864-0.80772c-0.885-.36141-1.81141-0.7448-2.644-1.09475a6.734,6.734,0,0,0-.3528-1.32448C12.14678,5.7588,8.7316.52943,8.7316,0.52943A0.50875,0.50875,0,0,0,8.13374.32906a15.1551,15.1551,0,0,0-3.11466,1.8312,0.50836,0.50836,0,0,0-.18172.597L5.26068,3.8646a0.55871,0.55871,0,0,0-.05309.48394A4.38972,4.38972,0,0,0,5.713,5.43929a0.50815,0.50815,0,0,0,.50123.19854A7.99514,7.99514,0,0,0,7.872,5.07442,10.18952,10.18952,0,0,0,9.1242,6.68593,24.90406,24.90406,0,0,0,11.61728,7.826c0.14212,0.71252.33015,1.73071,0.5729,3.17847-0.2734.29808-1.14811,1.21918-1.14811,1.21918a6.00076,6.00076,0,0,0-1.22887,2.456c-0.00359.02041-.33185,1.86945-0.33354,1.8807-0.04584.29218-.37335,0.42407-1.29749,0.72669C7.755,17.427,7.22323,17.601,6.63995,17.851a3.4144,3.4144,0,0,0-2.17187,2.808,3.217,3.217,0,0,0,.67577,2.467,2.92749,2.92749,0,0,0,2.10074.97473,2.29326,2.29326,0,0,0,2.25134-2.02418c0.35423-1.73519,1.2642-6.90909,1.31675-7.208a4.79335,4.79335,0,0,1,.96734-1.945s0.5251-.55317.629-0.66309c0.18952,1.07325,1.61456,9.02366,1.77621,9.81606a2.29311,2.29311,0,0,0,2.25134,2.02418,2.67829,2.67829,0,0,0,2.10074-.97473A3.45579,3.45579,0,0,0,19.21326,20.65905ZM8.49943,21.87321a1.31381,1.31381,0,0,1-1.36808,1.20331,1.97643,1.97643,0,0,1-1.225-.62376,2.27464,2.27464,0,0,1-.42407-1.71559,2.42853,2.42853,0,0,1,1.55835-1.95129c0.542-.23231,1.95543-0.695,2.18116-0.78392C8.95618,19.47629,8.67566,21.06128,8.49943,21.87321ZM6.24382,4.19326A0.39853,0.39853,0,0,0,6.2965,3.72539L5.9296,2.76572A17.81468,17.81468,0,0,1,8.1172,1.44863L9.22558,3.14523A10.28709,10.28709,0,0,1,6.39415,4.54281C6.34729,4.4373,6.295,4.31566,6.24382,4.19326ZM9.7422,5.87733a11.32151,11.32151,0,0,1-.95235-1.264c0.3149-.17562.64749-0.37918,0.99222-0.6161l1.46986,2.25012c0.01485,0.04367.04679,0.14687,0.09954,0.3585C10.50456,6.24267,9.88955,5.96765,9.7422,5.87733Zm4.36055,2.983c-0.43688.49384-.77307,0.87329-1.04478,1.17883-0.11751-.68207-0.22112-1.25627-0.31219-1.73953C13.21129,8.49333,13.67435,8.68441,14.10275,8.86031Zm3.67231,13.59245a1.654,1.654,0,0,1-1.25016.62613,1.272,1.272,0,0,1-1.343-1.20568c-0.12653-.61983-0.40623-2.14563-0.71666-3.869,0.22417,0.08795,1.63348.54937,2.17546,0.78162a2.4729,2.4729,0,0,1,1.55842,1.95129A2.38408,2.38408,0,0,1,17.77506,22.45276Z" transform="translate(-4.45111 -0.29905)"/></svg>