<svg id="Layer_1" data-name="Layer 1" xmlns="http://www.w3.org/2000/svg" viewBox="0 0 18.58105 22.89581"><defs><style>.cls-1{fill:#393;}</style></defs><title>Apparel</title><path class="cls-1" d="M13.25256,17.161h2.71271V15.8931H13.25256V17.161Zm0.5329-.87469h1.647v0.48157h-1.647V16.28629Z" transform="translate(-2.54919 -0.75211)"/><path class="cls-1" d="M7.70923,17.161h2.71271V15.8931H7.70923V17.161Zm0.53284-.87476h1.647v0.48157h-1.647V16.28629Z" transform="translate(-2.54919 -0.75211)"/><path class="cls-1" d="M18.88934,4.5214a4.64883,4.64883,0,0,0-.98291-1.4743L14.05365,1.35654,13.921,1.15012a0.71156,0.71156,0,0,0-.38336-0.398C13.947,1.527,12.31384,2.28647,12.28693,2.29893V2.29874a0.93821,0.93821,0,0,1-.89307,0V2.2996c-0.01215-.00562-1.66333-0.769-1.252-1.54749a0.71156,0.71156,0,0,0-.38336.398l-0.13269.20642L5.773,3.04709A4.64779,4.64779,0,0,0,4.7901,4.5214L2.54919,9.37675a9.78638,9.78638,0,0,0,3.59729,1.69049L6.63794,23.08768a17.465,17.465,0,0,0,5.07153.55658v0.00366c0.04431-.00043.2605-0.00366,0.2605-0.00366a17.465,17.465,0,0,0,5.07153-.55658L17.533,11.06724a9.78638,9.78638,0,0,0,3.59729-1.69049Zm1.35638,4.52118a13.38246,13.38246,0,0,1-2.65643,1.31116l0.30048-6.40625ZM5.78772,3.9517L6.088,10.35294A13.38946,13.38946,0,0,1,3.43378,9.04258Zm10.54858,18.733-2.81219.23077a22.177,22.177,0,0,1-3.62921-.00012l-2.569-.211L7.018,10.77848l0.00281-.00012-0.00623-.13208-0.00073-.02954-0.00061-.00018L6.67236,3.35,9.65527,2.0347,11.39386,3.222v7.8045h0.89307V3.22111l1.73724-1.1864L17.00494,3.3491l-0.34406,7.33508c-0.009.12677-.01752,0.24683-0.0235,0.338Z" transform="translate(-2.54919 -0.75211)"/></svg>