<svg id="Layer_1" data-name="Layer 1" xmlns="http://www.w3.org/2000/svg" viewBox="0 0 23.22842 23.22842"><defs><style>.cls-1{fill:#393;}</style></defs><title>Apparel</title><path class="cls-1" d="M11.49274,8.71127a1.19047,1.19047,0,0,0-1.64371,0L2.66345,15.89648H2.663a1.16433,1.16433,0,0,0,.00041,1.64371l3.83607,3.83607a1.16379,1.16379,0,0,0,1.64371,0l7.18521-7.18521a1.16242,1.16242,0,0,0,0-1.64408ZM7.59536,20.828a0.38807,0.38807,0,0,1-.54792.00041L3.21137,16.99227a0.38766,0.38766,0,0,1,.00041-0.54792H3.21137l4.59391-4.59341a5.00591,5.00591,0,0,1,2.8656,1.51789,5.00006,5.00006,0,0,0,2.92181,1.46182Zm7.18516-7.18521-0.44862.44862a4.13525,4.13525,0,0,1-3.11311-1.27047,6.02261,6.02261,0,0,0-2.752-1.63141l1.93055-1.93032a0.3961,0.3961,0,0,1,.54751,0l3.83571,3.83571A0.38724,0.38724,0,0,1,14.78052,13.64278Z" transform="translate(-0.22551 -0.58579)"/><path class="cls-1" d="M18.34307,6.08374a0.38257,0.38257,0,0,0,.14721-0.02688,0.39342,0.39342,0,0,0,.1241-0.0855,0.38555,0.38555,0,0,0,.11615-0.27512,0.37993,0.37993,0,0,0-.03106-0.14716,0.337,0.337,0,0,0-.08514-0.12373,0.39249,0.39249,0,0,0-.54638,0,0.37481,0.37481,0,0,0-.11238.27094,0.38189,0.38189,0,0,0,.02724.14721,0.36656,0.36656,0,0,0,.08514.12791,0.39268,0.39268,0,0,0,.1241.0855A0.403,0.403,0,0,0,18.34307,6.08374Z" transform="translate(-0.22551 -0.58579)"/><path class="cls-1" d="M23.45393,5.97136a1.54922,1.54922,0,0,0-.45406-1.09579L19.16416,1.03985a1.54927,1.54927,0,0,0-2.19159,0L12.787,5.22515a0.76955,0.76955,0,0,0-.19761-0.0287H12.58858a0.76966,0.76966,0,0,0-.54792.227l-0.82186.82186a0.76586,0.76586,0,0,0-.1206.1621,1.5448,1.5448,0,0,0-1.52311.38582l-8.8959,8.89585a1.55026,1.55026,0,0,0,0,2.19163L6.159,23.36053a1.55026,1.55026,0,0,0,2.19163,0l8.89589-8.89589a1.54461,1.54461,0,0,0,.38577-1.5232,0.76535,0.76535,0,0,0,.16215-0.12051l0.82186-.82186a0.75529,0.75529,0,0,0,.19834-0.74625L23,7.06715A1.54945,1.54945,0,0,0,23.45393,5.97136Zm-6.75534,7.9454h0L7.80269,22.81266a0.776,0.776,0,0,1-1.09579,0L1.22706,17.33282a0.776,0.776,0,0,1,0-1.09579l8.8959-8.8959a0.77651,0.77651,0,0,1,1.09579,0l5.47979,5.47979A0.776,0.776,0,0,1,16.69858,13.91676ZM17.24646,12.273L11.76667,6.79321l0.82186-.82186,5.47979,5.47979Zm0.54792-3.83571,0.27394,0.27394-0.82186.82186L14.50654,6.79322l0.82186-.82186L15.60233,6.2453ZM16.42424,5.9714l2.192-2.192,1.64408,1.64408-2.192,2.192Zm6.02771,0.54787h0L18.3423,10.62933l-0.5481-.5481,0.00018-.00018,0.82186-.82186a0.77535,0.77535,0,0,0,0-1.09579l2.192-2.192a0.77527,0.77527,0,0,0,0-1.09579L19.16415,3.23153a0.776,0.776,0,0,0-1.09579,0l-2.192,2.192a0.776,0.776,0,0,0-1.09579,0l-0.82186.82186-0.00009.00014-0.54819-.54806,4.11006-4.10965a0.79315,0.79315,0,0,1,1.09579,0L22.452,5.42353A0.77453,0.77453,0,0,1,22.45195,6.51928Z" transform="translate(-0.22551 -0.58579)"/></svg>