<?xml version="1.0" encoding="utf-8"?>
<!-- Generator: Adobe Illustrator 19.0.0, SVG Export Plug-In . SVG Version: 6.00 Build 0)  -->
<svg version="1.1" id="Capa_1" xmlns="http://www.w3.org/2000/svg" xmlns:xlink="http://www.w3.org/1999/xlink" x="0px" y="0px"
	 viewBox="-688 1122 350 350" style="enable-background:new -688 1122 350 350;" xml:space="preserve">
<style type="text/css">
	.st0{fill:#339933;}
</style>
<g>
	<path class="st0" d="M-513,1293.2c38.9,0,70.5-38.3,70.5-85.6c0-47.3-10.4-85.6-70.5-85.6s-70.5,38.3-70.5,85.6
		C-583.5,1254.9-551.9,1293.2-513,1293.2z"/>
	<path class="st0" d="M-646.1,1423.9C-646.1,1421-646.1,1423-646.1,1423.9L-646.1,1423.9z"/>
	<path class="st0" d="M-379.9,1426.1C-379.9,1425.3-379.9,1420.6-379.9,1426.1L-379.9,1426.1z"/>
	<path class="st0" d="M-380.1,1420.4c-1.3-82.3-12.1-105.8-94.4-120.7c0,0-11.6,14.8-38.6,14.8s-38.6-14.8-38.6-14.8
		c-81.4,14.7-92.8,37.8-94.3,118c-0.1,6.5-0.2,6.9-0.2,6.1c0,1.4,0,4.1,0,8.7c0,0,19.6,39.5,133.1,39.5
		c113.5,0,133.1-39.5,133.1-39.5c0-3,0-5,0-6.4C-379.9,1426.6-380,1425.7-380.1,1420.4z"/>
</g>
</svg>
