<?xml version="1.0" encoding="utf-8"?>
<!-- Generator: Adobe Illustrator 19.2.0, SVG Export Plug-In . SVG Version: 6.00 Build 0)  -->
<svg version="1.1" id="Layer_1" xmlns="http://www.w3.org/2000/svg" xmlns:xlink="http://www.w3.org/1999/xlink" x="0px" y="0px"
	 viewBox="0 0 30 32" style="enable-background:new 0 0 30 32;" xml:space="preserve">
<style type="text/css">
	.st0{fill:none;stroke:#2E3192;stroke-width:0.7998;stroke-miterlimit:10;}
	.st1{fill:#2E3192;}
</style>
<ellipse id="XMLID_123_" class="st0" cx="15" cy="8.4" rx="2.1" ry="4.5"/>
<ellipse id="XMLID_125_" transform="matrix(0.6709 -0.7416 0.7416 0.6709 -2.8565 17.9313)" class="st0" cx="18.8" cy="12.2" rx="4.5" ry="2.1"/>
<ellipse id="XMLID_126_" transform="matrix(0.7416 -0.6709 0.6709 0.7416 -5.2817 10.6506)" class="st0" cx="11.2" cy="12.2" rx="2.1" ry="4.5"/>
<ellipse id="XMLID_128_" transform="matrix(0.6709 -0.7416 0.7416 0.6709 -7.0812 19.841)" class="st0" cx="18.8" cy="17.9" rx="4.5" ry="2.1"/>
<ellipse id="XMLID_127_" transform="matrix(0.7416 -0.6709 0.6709 0.7416 -9.1066 12.1477)" class="st0" cx="11.2" cy="17.9" rx="2.1" ry="4.5"/>
<path id="XMLID_131_" class="st0" d="M15,25.9c0,2.2,0.4-0.3,0.4-0.3c0.1-1,0.7-2.3,1.8-3.4c1.7-1.8,3.7-2.7,4.6-1.9
	c0.9,0.8,0.2,2.9-1.4,4.7c0,0-1.7,1.9-2.6,1.8"/>
<ellipse id="XMLID_129_" transform="matrix(0.7416 -0.6709 0.6709 0.7416 -12.8578 13.5848)" class="st0" cx="11.2" cy="23.5" rx="2.1" ry="4.5"/>
<rect id="XMLID_124_" x="14.5" y="12.9" class="st1" width="0.9" height="16.2"/>
</svg>
