<svg id="Layer_1" data-name="Layer 1" xmlns="http://www.w3.org/2000/svg" viewBox="0 0 13.7138 23.75484"><defs><style>.cls-1{fill:#393;}</style></defs><title>Apparel</title><path class="cls-1" d="M15.16723,8.60812a0.58506,0.58506,0,0,0,.16919-0.27968l0.60209-2.42537h0.00186V3.3124l0.21809,0.25146L17.19,2.669a0.59348,0.59348,0,0,0,.05943-0.8372l-1.309-1.50906V0.32258h-1.603V1.378a0.60818,0.60818,0,0,1-.27449.50855,3.89561,3.89561,0,0,1-4.38806.23357A0.60139,0.60139,0,0,1,9.3951,1.60748V0.91606A0.59346,0.59346,0,0,0,8.80161.32258H7.7392L6.43,1.83176a0.59348,0.59348,0,0,0,.05943.8372L7.521,3.56386l0.22664-.26124V5.82915a0.59241,0.59241,0,0,0,.01813.1456L8.36209,8.331a0.58338,0.58338,0,0,0,.154.26136c-0.50446,2.205-3.51645,15.36821-3.53329,15.442a2.05771,2.05771,0,0,1,.38462.008,1.2173,1.2173,0,0,0,.68337-0.0827,1.548,1.548,0,0,1,.75035-0.20831,2.17183,2.17183,0,0,1,.53511.19234,2.53932,2.53932,0,0,0,.9607.13309,21.58206,21.58206,0,0,1,3.29632-.14337c0.19976,0.028.39749,0.07039,0.59825,0.09,0.87521,0.08555,1.745-.26482,2.62279-0.212,0.42,0.02526.82624,0.14189,1.24175,0.19847a9.07441,9.07441,0,0,0,1.22355.02477h1.417Zm2.36586,14.66a0.65511,0.65511,0,0,0-.31124-0.048,1.46356,1.46356,0,0,0-.32091.08347,5.84352,5.84352,0,0,1-.58374.16088,1.42476,1.42476,0,0,1-.4335.0444c-0.329-.02994-0.61833-0.2576-0.94841-0.272a3.89437,3.89437,0,0,0-.80431.09744c-0.27686.0489-.55173,0.11178-0.83177,0.14064a6.90455,6.90455,0,0,1-1.81888-.16953,5.21174,5.21174,0,0,0-1.72109.083C9.54861,23.426,9.339,23.471,9.12643,23.49522a3.294,3.294,0,0,1-1.74389-.28184,2.37721,2.37721,0,0,0-.27621-0.11877,1.31071,1.31071,0,0,0-1.17042.30682c0.11458-.46111.21211-0.92805,0.31767-1.39158l0.80653-3.54168c0.15225-.66856.30213-1.3377,0.45675-2.00571L9.20425,9.172a1.77189,1.77189,0,0,0-.01239-0.8493L8.51176,5.731A1.53775,1.53775,0,0,1,8.462,5.29636L8.50914,3.66377a1.90376,1.90376,0,0,0-.24369-0.9882l-0.018-.03205A0.25829,0.25829,0,0,0,7.8812,2.55379L7.58555,2.7466,7.10547,2.36835A0.33057,0.33057,0,0,1,7.063,1.88907l0.7-.78751A0.57917,0.57917,0,0,1,8.17883.90742L8.4999,0.898a0.21586,0.21586,0,0,1,.22171.20116L8.7635,1.71722a0.90756,0.90756,0,0,0,.50975.75535l1.2068,0.58474A2.61542,2.61542,0,0,0,11.6205,3.319H12.188V3.32351a2.61484,2.61484,0,0,0,1.02868-.25857l1.2068-.58474a0.90757,0.90757,0,0,0,.50974-0.75535l0.0419-.61809a0.21584,0.21584,0,0,1,.2217-0.20116l0.32107,0.00944a0.57915,0.57915,0,0,1,.41585.19414l0.7,0.78751a0.33058,0.33058,0,0,1-.04249.47929l-0.48009.37825-0.29564-.19281a0.25829,0.25829,0,0,0-.36622.08972l-0.018.03206a1.90369,1.90369,0,0,0-.24369.9882L15.23472,5.304a1.53762,1.53762,0,0,1-.04972.43463L14.5049,8.33036a1.772,1.772,0,0,0-.01239.8493l1.6874,7.29041,1.58,6.93807A0.50909,0.50909,0,0,0,17.53309,23.26814Z" transform="translate(-4.98282 -0.32258)"/></svg>