<?xml version="1.0" encoding="utf-8"?>
<!-- Generator: Adobe Illustrator 19.2.0, SVG Export Plug-In . SVG Version: 6.00 Build 0)  -->
<svg version="1.1" id="Layer_1" xmlns="http://www.w3.org/2000/svg" xmlns:xlink="http://www.w3.org/1999/xlink" x="0px" y="0px"
	 viewBox="0 0 30 32" style="enable-background:new 0 0 30 32;" xml:space="preserve">
<style type="text/css">
	.st0{fill:none;stroke:#2E3192;stroke-miterlimit:10;}
</style>
<g id="XMLID_151_">
	<path id="XMLID_153_" class="st0" d="M6.1,17.1v9.7c0,0.6,0.6,1,1.3,1h16.8V17.1H6.1z"/>
	<path id="XMLID_171_" class="st0" d="M3.8,11.1v6h22.5v-4.1c0-1-0.2-1.7-1.5-1.7L3.8,11.1z"/>
	<path id="XMLID_173_" class="st0" d="M9.9,11.1L7,9.2c0,0-1.4-0.8-0.2-2.3s1.9-2.1,1.9-2.1S9.4,3.5,10.6,5s2.9,3.7,2.9,3.7v2.5
		L9.9,11.1z"/>
	<path id="XMLID_174_" class="st0" d="M19.6,11.2l2.9-1.9c0,0,1.4-0.8,0.2-2.3s-1.9-2.1-1.9-2.1S20.1,3.6,18.8,5s-2.9,3.7-2.9,3.7
		v2.5L19.6,11.2z"/>
	<path id="XMLID_175_" class="st0" d="M13.6,8.7h2.3H13.6z"/>
	<path id="XMLID_176_" class="st0" d="M15,27.7V11.2V27.7z"/>
</g>
</svg>
