<svg id="Capa_1" data-name="Capa 1" xmlns="http://www.w3.org/2000/svg" viewBox="0 0 339.99714 444.05776"><defs><style>.cls-1{fill:#339;}</style></defs><title>001-graduate-student-avatar</title><path class="cls-1" d="M357.76,312.234c-3.28-7.848-11.178-12.873-18.713-15.963l-50.938-23.455-24.473-20.639-39.323,39.111h-0.03l16.971,113.445a1.49222,1.49222,0,0,1-.271,1.105l-17.744,24.283a1.4989,1.4989,0,0,1-2.424,0l-17.742-24.283a1.49226,1.49226,0,0,1-.273-1.105l16.969-113.447h-0.026l-39.321-39.109-24.473,20.639-50.941,23.455c-7.537,3.09-14.943,7.783-18.711,15.963,0,0-55.371,131.824-25.338,131.824H383.104C413.132,444.061,357.76,312.234,357.76,312.234Z" transform="translate(-52.03159 -0.00025)"/><path class="cls-1" d="M361.298,131.489a2.84265,2.84265,0,0,0,2.545-3.156q-0.855-7.3035-1.708-14.597l-1.187-10.189a2.84009,2.84009,0,0,0-3.074-2.49l-2.203.003,0.042-34.202,1.153-.419,3.845-1.388a8.21378,8.21378,0,0,0,0-15.451L224.819,0.49a8.209,8.209,0,0,0-5.586,0L83.339,49.6a8.21482,8.21482,0,0,0,0,15.451l50.236,18.155c-3.546,11.195-5.16,24.013-5.015,38.284,0.884,81.402,48.138,129.944,91.862,129.944,43.213,0,90.979-48.542,91.859-129.944,0.146-13.832-1.379-26.291-4.697-37.238l36.528-13.2,0.077,30.021-2.207-.001a2.834,2.834,0,0,0-3.07,2.501l-2.857,24.788a2.84083,2.84083,0,0,0,.615,2.104,2.79516,2.79516,0,0,0,1.932,1.033M220.428,231.666c-38.148,0-64.471-44.688-69.781-89.361-4.91-41.314,54.838-43.237,58.308-17.63,1.069,7.872-7.97,16.305-6.945,19.556,5.056,16.049,88.772-52.383,88.2-1.946C289.807,177.896,256.775,231.666,220.428,231.666Z" transform="translate(-52.03159 -0.00025)"/></svg>