<svg id="Layer_1" data-name="Layer 1" xmlns="http://www.w3.org/2000/svg" viewBox="0 0 549.92731 444.80005"><defs><style>.cls-1{fill:#f8edf5;}.cls-2{fill:#fbc1b1;}.cls-3{fill:none;stroke:#7e8e39;stroke-miterlimit:10;stroke-width:1.6472px;stroke-dasharray:3.2943;}.cls-4{fill:#2b8c44;}.cls-5{opacity:0.8;}.cls-6{fill:#fff;}</style></defs><title>green-world</title><path class="cls-1" d="M455.4,121.1c13.1-3.6,26.3-7.2,39.8-7.3s27.6,3.6,37.5,12.9c14.8,13.9,17.4,36.5,17.2,56.9-0.2,26.8-3.5,53.9-13.2,78.9s-26.2,47.8-48.8,61.8c-29.4,18.2-65.5,20.1-99.9,21.4q-107.1,4.2-214.1,8.4c-23.6.9-47.4,1.8-70.4-3.5C48.5,337.8,4.5,286,.2,228.9c-0.4-5.9-.5-12,2-17.4,3.3-7.2,10.5-11.8,17.6-15.1,25.5-11.9,47.8-8.5,74.5-7.2a558.69008,558.69008,0,0,0,89.6-3.3c59.8-6.8,118.3-21.5,176.2-37.7C391.9,139.3,423.6,129.9,455.4,121.1Z" transform="translate(0.01703 -4.1)"/><path class="cls-2" d="M103.4,190.2l-3.1-17.3a13.06612,13.06612,0,0,0-2.8,0,2.49031,2.49031,0,0,0-2.2,2.5v12.3a13.50281,13.50281,0,0,0,.6,3.4c0.2,0.5.5,1.2,0.8,2C101.6,193.1,103.1,190.8,103.4,190.2Z" transform="translate(0.01703 -4.1)"/><path class="cls-2" d="M123.8,212c-0.3-10.7-3.1-15.6-3.2-15.6l-0.1-.2V196c0.2-7.2.4-17.9,0.3-19.7V176a17.1356,17.1356,0,0,0-7-12.5c-0.5,2.7-2.3,10-5.4,13.3C112.5,182.4,119,199.1,123.8,212Z" transform="translate(0.01703 -4.1)"/><path class="cls-2" d="M107.8,175.8c3-3.4,4.6-11.1,5-13a25.18051,25.18051,0,0,0-3.7-2.1,1.43356,1.43356,0,0,0-2,.8l-3.8,10.8a8.93525,8.93525,0,0,1,2.4,1.4A8.31676,8.31676,0,0,1,107.8,175.8Z" transform="translate(0.01703 -4.1)"/><path class="cls-2" d="M128.6,175.9a8.40409,8.40409,0,0,0-1.4-2.4l-4.9,8.1-0.1.1v3.7a16.01783,16.01783,0,0,0,5-5.3h0A6.065,6.065,0,0,0,128.6,175.9Z" transform="translate(0.01703 -4.1)"/><path class="cls-2" d="M203.8,275.4h0.3c21,5.1,38.5,16.1,43.3,19.5-17.8-20.6-47.1-29.3-53.7-30.9C195.8,268.2,202.5,274.8,203.8,275.4Z" transform="translate(0.01703 -4.1)"/><path class="cls-2" d="M153.8,252.9h0c1.1,1,2.5,4.3,4.2,6.8a40.66877,40.66877,0,0,1,3.1,5.3c13.3,1,15.2-8.2,15.4-9.8L163,234.4l0.1-.1c-6-.1-10,1.2-11.6,4-1.8,3-1.1,7.8,2.1,14.1A4.20274,4.20274,0,0,0,153.8,252.9Z" transform="translate(0.01703 -4.1)"/><path class="cls-2" d="M249.2,296.6c-0.2-.1-20.2-13.9-45.2-19.8h0c-3-.4-9.6-9.6-11-12.3a97.98084,97.98084,0,0,0-6-11.6c-1.3-2-2.5-4-3.8-5.9-3-4.2-6.4-8.2-10.1-10.7l-1.4-.9a0.34909,0.34909,0,0,1-.2-0.1c-0.4-.2-1.9-0.9-2.7-1.2-0.1,0-.3-0.1-0.4-0.1a2.81432,2.81432,0,0,1-.8-0.1c-1-.1-1.9-0.2-2.8-0.2l13.6,21.1V255c0,0.1-1.2,11.5-15.1,11.5a7.08372,7.08372,0,0,1-1.4-.1c3.1,6.4,11,19.9,11.1,20,0.1,0.3,10.6,21.4,34.9,30.1l-0.4,1.2c-24.8-8.9-35.5-30.5-35.6-30.7-0.1-.1-8.7-14.9-11.5-21a37.4452,37.4452,0,0,0-3.3-5.8c-1.8-2.6-3.2-4.3-4.4-7.3h0c-0.1,0-2-4.3-7.8-3.5l-0.9.2-0.3-1.3c-0.5-2.5-3.9-11.8-14.8-18.9l-0.1-.1c-0.2-.2-0.2-0.2-2.2-5.7-4.3-11.9-14.6-39.5-19.8-46.1l-0.7-.6h0c-0.6-2-2-2.8-4.6-3.5l2.9,17v0.1c-0.1.2-1.3,3.7-7.4,3.8,2.4,8,6.7,23.8,6.5,31.9a8.00894,8.00894,0,0,0,1.1,4.4c4.8,7.8,18.7,34.6,26.6,49.9a46.65456,46.65456,0,0,0,15.3,17.1c30.5,20.2,46.3,36.6,54.5,48.6a38.25709,38.25709,0,0,1,5.9,28.5c-4,21.7-13,65.1-14.8,74.1h68c0.3-5,2.7-52.7,3.5-81.2l0.8-21.8h0a2.35332,2.35332,0,0,0,.8-0.2l0.7,0.1v-0.1C266,343.6,264.5,308.7,249.2,296.6Z" transform="translate(0.01703 -4.1)"/><path class="cls-2" d="M150,246.3a1.57683,1.57683,0,0,1,.1.4,29.78183,29.78183,0,0,0-7.4-9.7h0l-0.2-.2a90.80078,90.80078,0,0,0-10.4-7.9l-3.6-8.8-0.1-.4h0c-0.6-2.4-1.6-7.5-2.1-10.1L126,208v-0.4c-0.2-5.2,1.8-17.3,2.4-19,1.7-5,1.6-8.4,1.1-10.6a16.41971,16.41971,0,0,1-1.4,3.2,24.41,24.41,0,0,1-5.8,5.4c0,2.3.1,5.1,0,8.2a4.671,4.671,0,0,0,.3,1.7c0.8,2.1,2.5,8.1,2.3,18.9,1.1,2.9,2,5.6,2.8,7.7,0.9,2.6,1.7,4.8,1.9,5.3a23.21876,23.21876,0,0,1,3,2.2,57.30157,57.30157,0,0,1,9,10,24.60017,24.60017,0,0,1,3.1,7.4,8.76382,8.76382,0,0,1,6.2,1.2C150.6,248.3,150.3,247.3,150,246.3Z" transform="translate(0.01703 -4.1)"/><path class="cls-2" d="M131.9,188.1h0a6.7567,6.7567,0,0,0,1.7-4l-4.1,4.5-0.5,1.5a6.36912,6.36912,0,0,0-.2.7A10.69721,10.69721,0,0,0,131.9,188.1Z" transform="translate(0.01703 -4.1)"/><path class="cls-2" d="M128.8,214.5l2.7,9.3,1.8,3.9c12.8,9.4,16.3,15.8,16.3,15.8l0.2,0.4c-0.2-.9.1-2.3,0-3.1a52.3392,52.3392,0,0,0-7.7-8.2,37.60742,37.60742,0,0,0-7.6-5.1A66.67569,66.67569,0,0,0,131,216h0l-1.7-5.2-0.8-3.3h0c0.6-2,3.5-10.7,3.9-12.3,2-4.5,2.2-7.8,1.7-10.1-0.9,3.6-4.3,5.9-5.2,6.5-0.8,4.5-1.8,12.1-1.6,15.6a2.56677,2.56677,0,0,1,.2.5,45.27114,45.27114,0,0,0,1.4,6.4h-0.1" transform="translate(0.01703 -4.1)"/><path class="cls-2" d="M452.6,190.2l3.1-17.3a13.066,13.066,0,0,1,2.8,0,2.49033,2.49033,0,0,1,2.2,2.5v12.3a13.5018,13.5018,0,0,1-.6,3.4c-0.2.5-.5,1.2-0.8,2C454.4,193.1,452.9,190.8,452.6,190.2Z" transform="translate(0.01703 -4.1)"/><path class="cls-2" d="M432.1,212c0.3-10.7,3.1-15.6,3.2-15.6l0.1-.2V196c-0.2-7.2-.4-17.9-0.3-19.7V176a17.13565,17.13565,0,0,1,7-12.5c0.5,2.7,2.3,10,5.4,13.3C443.4,182.4,436.9,199.1,432.1,212Z" transform="translate(0.01703 -4.1)"/><path class="cls-2" d="M448.2,175.8c-3-3.4-4.6-11.1-5-13a25.18016,25.18016,0,0,1,3.7-2.1,1.43356,1.43356,0,0,1,2,.8l3.8,10.8a8.93531,8.93531,0,0,0-2.4,1.4A8.31617,8.31617,0,0,0,448.2,175.8Z" transform="translate(0.01703 -4.1)"/><path class="cls-2" d="M427.2,175.9a8.4041,8.4041,0,0,1,1.4-2.4l4.9,8.1,0.1,0.1v3.7a16.01767,16.01767,0,0,1-5-5.3h0A6.06478,6.06478,0,0,1,427.2,175.9Z" transform="translate(0.01703 -4.1)"/><path class="cls-2" d="M352.1,275.4h-0.3c-21,5.1-38.5,16.1-43.3,19.5,17.8-20.6,47.1-29.3,53.7-30.9C360,268.2,353.4,274.8,352.1,275.4Z" transform="translate(0.01703 -4.1)"/><path class="cls-2" d="M402.1,252.9h0c-1.1,1-2.5,4.3-4.2,6.8a40.66531,40.66531,0,0,0-3.1,5.3c-13.3,1-15.2-8.2-15.4-9.8l13.4-20.9-0.1-.1c6-.1,10,1.2,11.6,4,1.8,3,1.1,7.8-2.1,14.1A1.45124,1.45124,0,0,1,402.1,252.9Z" transform="translate(0.01703 -4.1)"/><path class="cls-2" d="M307.9,296.6A136.13686,136.13686,0,0,1,353,276.8h0c2-.4,9-9.6,10.4-12.3a85.81107,85.81107,0,0,1,5.7-11.6c1.3-2,2.3-4,3.7-5.9,3-4.2,6.4-8.2,10-10.7l1.4-.9c0.1,0,.1-0.1.2-0.1,0.4-.2,1.9-0.9,2.7-1.2,0.1,0,.3-0.1.4-0.1a2.81412,2.81412,0,0,0,.8-0.1c1-.1,1.9-0.2,2.8-0.2l-13.6,21.1V255c0,0.1,1.2,11.5,15.1,11.5a7.08372,7.08372,0,0,0,1.4-.1c-3.1,6.4-11,19.9-11.1,20-0.1.3-10.6,21.4-34.9,30.1l0.4,1.2c24.8-8.9,35.5-30.5,35.6-30.7,0.1-.1,8.7-14.9,11.5-21a37.44634,37.44634,0,0,1,3.3-5.8c1.8-2.6,3.2-4.3,4.4-7.3h0c0.1,0,2-4.3,7.8-3.5l0.9,0.2,0.3-1.3c0.5-2.5,3.9-11.8,14.8-18.9l0.1-.1c0.2-.2.2-0.2,2.2-5.7,4.3-11.9,14.7-39.9,19.9-46.4l0.8-.9h0c0-.9,1.9-2.5,4.4-3.2l-3,17.2-0.1.1c0.1,0.2,1.3,3.7,7.4,3.9-2.4,8-6.7,23.8-6.5,31.9a8.00875,8.00875,0,0,1-1.1,4.4c-4.8,7.8-18.7,34.6-26.6,49.9a46.65465,46.65465,0,0,1-15.3,17.1c-30.5,20.2-46.3,36.6-54.5,48.6a38.41124,38.41124,0,0,0-5.9,28.6c4,21.7,13,65.1,14.8,74.1h-68c-0.3-6-2.7-52.7-3.5-81.2l-0.8-21.8h0a0.34916,0.34916,0,0,1-.1-0.2v-0.1h0.3C291.1,343.6,292.6,308.7,307.9,296.6Z" transform="translate(0.01703 -4.1)"/><path class="cls-2" d="M405.8,246.3a1.57683,1.57683,0,0,0-.1.4,29.78183,29.78183,0,0,1,7.4-9.7h0l0.2-.2a90.80078,90.80078,0,0,1,10.4-7.9l3.6-8.8,0.1-.4h0c0.6-2.4,1.6-7.5,2.1-10.1l0.3-1.6v-0.4c0.2-5.2-1.8-17.3-2.4-19-1.7-5-1.6-8.4-1.1-10.6a16.41971,16.41971,0,0,0,1.4,3.2,24.41024,24.41024,0,0,0,5.8,5.4c0,2.3-.1,5.1,0,8.2a4.67153,4.67153,0,0,1-.3,1.7c-0.8,2.1-2.5,8.1-2.3,18.9-1.1,2.9-2,5.6-2.8,7.7-0.9,2.6-1.7,4.8-1.9,5.3a23.21876,23.21876,0,0,0-3,2.2,57.301,57.301,0,0,0-9,10,24.60058,24.60058,0,0,0-3.1,7.4,8.76392,8.76392,0,0,0-6.2,1.2A24.56415,24.56415,0,0,0,405.8,246.3Z" transform="translate(0.01703 -4.1)"/><path class="cls-2" d="M424,188.1h0a6.75667,6.75667,0,0,1-1.7-4l4.1,4.5,0.5,1.5a6.37215,6.37215,0,0,1,.2.7A9.55684,9.55684,0,0,1,424,188.1Z" transform="translate(0.01703 -4.1)"/><path class="cls-2" d="M427,214.5l-2.7,9.3-1.8,3.9c-12.8,9.4-16.3,15.8-16.3,15.8a4.33124,4.33124,0,0,0-.1.5c0.2-.9-0.1-2.4,0-3.3a52.3392,52.3392,0,0,1,7.7-8.2,37.60785,37.60785,0,0,1,7.6-5.1,66.67725,66.67725,0,0,1,3.5-11.5h0l1.7-5.2,0.8-3.3h0c-0.6-2-3.5-10.7-3.9-12.3-2-4.5-2.2-7.8-1.7-10.1,0.9,3.6,4.3,5.9,5.2,6.5,0.8,4.5,1.8,12.1,1.6,15.6a2.18611,2.18611,0,0,1,.3.5,36.01742,36.01742,0,0,0-.9,6.4h-0.4" transform="translate(0.01703 -4.1)"/><path class="cls-3" d="M281.6,71.4c-0.3-22.8-.1-14.1-0.1-14.1" transform="translate(0.01703 -4.1)"/><path class="cls-3" d="M281.6,235.3c-0.3-22.8-.3-39.8-0.3-39.8" transform="translate(0.01703 -4.1)"/><path class="cls-3" d="M362.5,177.4c-20.3-10.4-28-12.7-28-12.7" transform="translate(0.01703 -4.1)"/><path class="cls-3" d="M362.5,96c-9.2,6-18.4,11.1-18.4,11.1" transform="translate(0.01703 -4.1)"/><path class="cls-3" d="M194.2,178.4c15-7.7,18.5-9.3,18.5-9.3" transform="translate(0.01703 -4.1)"/><path class="cls-3" d="M192.2,90.7c7.8,5.2,20.4,14,20.4,14" transform="translate(0.01703 -4.1)"/><circle class="cls-3" cx="278.01703" cy="134.00001" r="111.2"/><path class="cls-4" d="M278,61.9a76.2,76.2,0,1,0,76.2,76.2A76.30793,76.30793,0,0,0,278,61.9ZM261.6,83.7l-0.3-.9,0.2-.4V82.1l0.1-.4,0.4-.4,0.6-.4,0.5,0.1,0.4,0.1-0.4-.4,0.6-.1,0.3-.1,0.4-.3,0.1-.4-0.8.1-0.7-.2-0.1-.3h1.8l-0.2-.2h-0.2l-0.2-.1h-0.3l-0.5-.1-0.5.2-0.5-.2,0.3-.3,0.5-.4,0.1-.4-0.3-.3-0.3-.3-0.5-.3h-0.6l-0.7-.1-0.8-.1h-0.9l-0.5.1-0.4.1-0.8.2,0.2-.4a1.73735,1.73735,0,0,1,1.2-.3c1-.1,1.2-0.1.4-0.1s0.1-.2-0.4-0.2h-1.5c-0.3-.1-1.1,0-0.3-0.3l1.1-.2h1.3a2.14623,2.14623,0,0,1,.7-0.4c0.7-.1-0.3-0.3.8-0.4h2.5l0.7-.1h1.1l0.5-.1h4.7l0.9-.1,1.4-.2,0.5,0.1,0.6,0.1h1.2l0.7-.1c1-.2,1.7-0.3,1.4,0s-0.3.2,0.8-.1h1l0.6,0.1h0.7l0.7,0.1,0.7,0.1h2l0.8,0.2,0.3-.3h0.7v0.3l-0.5.3,0.8-.2-0.4.7,0.6-.3,0.3-.7,0.9-.2h0.5l0.4,0.2-0.2.4-0.2.4h-0.8l-0.2.3h1l-0.7.3h-0.4l-0.3-.1,0.1,0.5-0.3.5v0.3h-0.4l-0.1.1-1.1.2h-2l-0.1.2,0.3,0.1,0.1,0.1,0.5,0.1,0.5-.1h0.3l0.2,0.1,0.3,0.5-0.4.4-1.1-.3-1.1-.3-1.2-.2,0.8,0.3-0.6.3-0.2.3,0.2,0.1-0.2.1,0.8-.3,1.4,0.2h0.5l-0.6.3-0.7.3-0.9.2-0.9.3-0.3.1-0.8.1h-0.4l-0.4.1h-1l-0.7-.4-0.1.2-0.3.1-0.4.3-0.4.3-0.5.1-0.4.2-0.8.3-0.8.2-0.1-.2-0.7.1-0.5.2h-0.4l-0.5.5-0.8.1V83l-0.5.4-0.5.4-0.6.3-0.5.5-0.2.6-0.5.4-0.5.6-0.3.3h-0.5l-0.4-.2-0.4-.3-0.3-.3-0.7.3-0.6-.1-0.6-.5-0.4-.5-0.4-.4-0.3-.6,0.3-.3,0.5-.3Zm0.2-3.7,0.2-.1h0.8l0.5,0.1-0.1.3h-0.6l-0.4-.1-0.3-.1Zm-7.9,18.2-0.3.1,0.1-.5,0.1-.2,0.3-.1,0.4-.2,0.1,0.1-0.2.3,0.3-.1-0.1.4-0.1.4-0.3.2h-0.3V98.2h0Zm0.8-1.5-0.4.1,0.3,0.2-0.4.2-0.2.1-0.3.3-0.3.1-0.2.3-0.2.2-0.5.2h-0.2V98l0.4-.2,0.3-.2h-0.3l-0.3-.1-0.2.1-0.1-.1-0.3.1h-0.3l-0.4.1h-0.6l-0.3-.1H250l-0.6.1-0.1-.1V97.3L250,97l0.2-.1-0.4.1,0.1-.1h0.2l0.3-.3,0.5-.1-0.1-.1L251,96l0.3-.3,0.3-.4,0.7-.7,0.3-.2,0.2-.1,0.3-.3,0.4-.1V94h0.2l-0.2.1-0.1.1,0.1,0.1-0.2.2-0.3.1V95l-0.1.2-0.4.4,0.5-.4,0.1,0.1h0.2l0.1,0.1-0.6.2,0.3,0.1,0.2,0.2,0.2,0.1h0.6l0.5,0.1-0.1.2-0.1.1-0.3.2h0.6l0.1,0.1Zm0-14.6-0.2.1-0.3.2h-0.3l-0.2.1-0.2.2h-0.1l-0.2.1-0.1.4-0.2-.2-0.2-.2-0.3-.2-0.1-.4-0.4.3H252l-0.1-.1-0.5-.1-0.4-.1v0.2l-0.3.1-0.1.3,0.3,0.2,0.6,0.3,0.1,0.3v0.6H251l-0.6-.2h-1.2l0.6,0.4,0.6,0.3,0.2,0.2v0.3h-0.8l-1.2-.3h-0.4l-0.3.1-0.9-.1-0.3-.3-0.5-.1-1.1-.3,0.1-.3-0.6-.2,0.3,0.4H244l-0.4.1-0.2.2H243l-0.4-.2V83.8l0.3-.5,0.3-.1,0.4-.1,0.7-.1h0.5l0.3-.1h0.4l0.2-.1,0.4-.1,0.8,0.1-0.7-.5,0.7-.3,0.9,0.2,0.1,0.3-0.2.3,0.5-.2,0.4-.2h0.3l0.3-.2-0.4-.4-0.6.3-0.9-.1,0.6-.4,0.8-.2V80.8l-0.4-.2-0.4-.1h-0.2l-0.1.1-0.3.1,0.2-.3-0.3-.2-0.1-.1-0.2-.1-0.2-.1-0.4-.1-0.3-.1h-0.1l-0.7-.2v0.6l-0.4-.1-0.3-.1,0.2,0.4-0.6-.3-0.2.4-0.3-.1-0.3-.1h-0.4V79.9l-0.4.2h-1.3l-0.8.2c-0.7.2-1.6-.6-0.8-0.6l0.2-.5,0.9-.6,0.6-.3,1.4-.2,0.1,0.4-0.6.5-0.1.6,1-.6c-0.9-.3.8-0.5,0.5-0.6l0.6-.2,0.9-.2,1.4-.2,0.2,0.3v0.3l-0.1.4,0.6-.2h0.2l0.3-.1,0.3,0.1,0.1,0.2,0.5,0.3v-0.4l0.8-.4,0.6,0.2,0.3,0.2h0.8l0.6,0.1,0.3,0.1,0.1,0.2,0.2,0.2,0.7-.1-0.6.4h0.1l0.9-.2,0.3,0.4-1.1.5h1.2l-0.6.3h0.7l0.2,0.1,0.1,0.1,0.1,0.1,0.2,0.1,0.2,0.1,0.1,0.1,0.2,0.1,0.5-.1,0.5,0.3-0.3.3-0.3.1-0.4.1L255,82Zm-12.4.1-0.8.2H241l-0.5.1-0.4.1-0.8-.3,0.3,0.2v0.2h-0.4l-0.4-.1h-0.7c-0.7.3,1.2,0.2-.5,0.6-1,.3-0.7.4-1.4,0.3-0.7,0-.1-0.5-1.2-0.4,0.8,0.1.4,0.4,1,.5h0.6l-0.1.2-1.4.6h-0.4l-0.6-.1-0.6.3H233a7.0526,7.0526,0,0,0-1.5,0l0.4,0.2,1,0.1c0.1,0.2.1,0.4-.7,0.3-1.2-.1,0,0.2-0.5.3-1,.2-0.7.4-1.1,0.4l-1.3.6h-0.1a84.21351,84.21351,0,0,1,6.4-5.5l0.6-.3h-0.3c0.5-.4,1.1-0.8,1.7-1.2l0.1,0.4h-0.5l-0.3.6,0.3,0.5,1-.3,0.5,0.4-0.2.8a5.41891,5.41891,0,0,1,1.8-.9l0.7-.4,0.8-.5,1.2,0.2,0.5,0.4-0.6.2-0.2.3C242.2,81.8,243.1,81.8,242.3,82.2ZM236,85h-0.6a1.95571,1.95571,0,0,1,1.1-.4l0.7-.7,0.9-.5,0.3,0.1v0.3l0.5-.1,0.6,0.3,0.3,0.3,0.3,0.3,0.1,0.2h-0.6l-0.4-.1-0.1-.1h-0.2l-0.1-.1h-0.3l-0.2.1-0.7.3-0.6.4-0.8.1,0.1-.2Zm58,5.5,0.3-.1h0.3l0.1,0.1v0.1l0.1,0.1-0.1.1-0.1.1,0.1-.1,0.2,0.1v0.2l-0.2.1-0.1.1-0.2.1h-0.1l-0.1.1,0.1,0.1,0.1,0.2v0.1l0.1,0.2v0.4l-0.1.2-0.1.2v0.2L294,93l-0.3.1V92.8l-0.1.3h-0.2l-0.2.1-0.2.1-0.2.2-0.3.1h-0.3l-0.4.1h-0.4V93.6l0.2-.1h-0.5l0.4-.2-0.3.1-0.2-.1-0.1-.1,0.4-.1,0.2-.1H291l0.1-.1h0.2l0.2,0.1-0.1-.1V92.8l0.2-.1h0.7l-0.2-.1h0l-0.3.1h-0.3V92.6l0.2-.1,0.1-.2h0l0.2-.1V92.1h-0.4l-0.1-.1h-0.1l-0.1-.1h-0.1V91.8h0.2l0.1-.2V91.5h-0.2l-0.1-.1h0.3l-0.1-.2V91.1h0.2l0.3,0.1h0.3l0.2,0.1V91.2l0.2-.1,0.1-.1h-0.4V90.9l0.1-.1,0.1-.2,0.2-.1h0.2l0.2-.1v0.2l0.1-.2h0.2L294,90.5h0Zm-3,5h-0.3l0.1,0.1-0.3.1-0.2.1,0.4,0.1h0.4l-0.1.2-0.4.1h-1.3l-0.3-.1-0.1-.1-0.1.2h-0.3l-0.2.1-0.3-.1-0.4-.1-0.3.1-0.1.3-0.2-.1-0.2-.1h-0.3l-0.2.1-0.1.2-0.3-.1-0.1-.1,0.4-.2,0.3-.2,0.2-.2L287,96h0.9l0.2-.2,0.2-.2-0.4.2-0.3.1-0.3-.2-0.2.1-0.1-.1V95.6h-0.2l-0.3.1-0.2-.1V95.4l0.4-.1,0.4-.3V94.8h0V94.7l-0.3.1h-0.2l0.1-.1,0.2-.2-0.2-.2,0.3,0.1,0.3-.1h0.5V94.2l0.3,0.1-0.3-.1L288,94l-0.1-.1,0.1-.2-0.2-.1h-0.1l-0.1-.4,0.3-.2h-0.3l-0.1.1-0.3.1h-0.3l-0.2-.1V93l-0.2-.3h0.1V92.5l0.2-.2-0.2-.3,0.3-.1-0.2-.2-0.4.2V92l-0.2.4-0.1-.1,0.1-.4,0.1-.2,0.1-.3V91.3l-0.2-.1h-0.3l0.3-.2,0.2-.1-0.1-.2V90.5l-0.1-.2h0.3l0.2,0.1-0.2-.2,0.1-.1,0.2-.1,0.1-.2,0.2,0.1,0.1,0.1,0.3-.1h0.6l-0.1.2-0.5.3-0.2.1,0.2,0.1-0.1.1v0.1h0.2l0.6-.1h0.6l0.2,0.2-0.2.3-0.2.3-0.4.3-0.3.1h0.4V92l-0.2.1h0.6l0.2,0.1,0.1,0.1,0.3,0.3,0.2,0.5,0.2,0.2,0.6,0.3v0.2l0.2,0.3-0.4-.2,0.4,0.3v0.5h0.3l0.4-.1,0.5,0.6-0.1.2-0.3.1Zm-5.4-1.7,0.1,0.2v0.1l0.1,0.2v0.6l-0.2.1v0.2h-0.5V95l-0.1.2h-0.3l-0.2.1-0.2.1-0.2.1-0.3.1h-0.2l-0.4.1h-0.4V95.6l0.2-.1h-0.5l0.4-.1-0.3.1h-0.2l-0.1-.1,0.4-.1,0.2-.1h-0.7l0.1-.1h0.4l-0.1-.1V94.9l0.2-.1h0.7l-0.2-.1h0l-0.3.1h-0.3V94.7l0.2-.1,0.2-.2V94.3l0.2-.1V94.1h-0.4L283,94h-0.1l-0.1-.1h-0.1V93.8h0.2l0.1-.1V93.6h-0.2l-0.1-.1H283l-0.1-.2V93.2h0.2l0.4,0.1h0.2l0.2,0.1V93.3l0.2-.1,0.1-.1h-0.3V93l0.1-.1,0.1-.1,0.2-.2h0.2l0.2-.1v0.2l0.1-.2h0.2l0.1,0.1-0.2.1,0.2-.1,0.3-.1h0.3l0.1,0.1v0.1l0.1,0.1-0.1.1-0.1.1h0.1l0.1,0.1v0.2l-0.2.1h-0.1l-0.1.1h-0.1l-0.1.1Zm-3-10.2,0.1-.1h-0.3l-0.1-.1V83.3h-0.9l0.8-.1h0.3L283,83h-0.7l-0.5.1-0.4-.1h0.2V82.9h0.1l0.2,0.1,0.2-.1h0l-0.3-.1H282l-0.1-.1h0.2l0.2-.1,0.5,0.2V82.6l-0.2-.1h-0.2l0.4-.1,0.2,0.1h0.1l0.2,0.2h0V83h-0.2l0.2,0.1,0.1,0.2h0.1l0.1-.1,0.3-.1h0.2l0.1-.1-0.1-.1,0.1-.1h0.4l0.1,0.1h0.1V82.7l0.4-.1h0.2l0.1,0.1,0.3,0.2-0.1-.2h0.5l0.3-.2h0.4V82.3h0.5l0.2,0.1v0.1h0.2l0.5-.1h0l-0.2.2h0.2l-0.2.2h0.3l0.1,0.1h0.1l0.2,0.1-0.1.1H289l-0.1.2h-0.1l-0.1.1v0.1l-0.1-.1-0.2.2h-0.1l-0.3.1h-0.1l-0.5.1L287,84l-0.1.1-0.3.1-0.6.1-0.3.1-0.6.1-0.8-.1h-0.1l-0.9-.2h-0.9V84.1l0.1-.1,0.1-.4,0.2,0.1h0Zm-36.2-8.9h0.4l0.7,0.1-0.3.3-0.6.1-1.3.5-1,.1-0.4.2-0.4.1h-0.2c0.9-.5,1.9-1,2.9-1.5Zm1.4,3-0.8-.1-0.2.3h-1.9a4.06875,4.06875,0,0,1-1,.2l-0.1-.1,0.1-.1-1,.3-0.6-.2-0.8.2c-0.9.1-.8-0.4-0.5-0.4V77.7c0.3-.2.6-0.3,0.9-0.5l-0.2.2,0.4,0.1h1l0.5-.1,0.5-.1h1.8l0.6-.1,0.5-.1,0.6-.1,0.8,0.5Zm1.1,0.5-0.8.1-0.8.2-0.2-.3,0.3-.3h0.9Zm-8.7.1-1,.5H239l0.9-.6Zm15.9-2.9-0.8.1h-0.9l-0.7.1h-2.3l-0.2.1-0.7.2v0.3l-0.8.2-0.9.3-0.4-.1H248l-1-.1-0.8.3-1.2-.1h-0.6l-0.6.1-0.1-.3,1-.2,0.4-.3h1.1l1,0.1-0.6-.2,0.9-.1-0.5.1h-0.7l0.6-.3c1.8-.2.1-0.3,1.2-0.3H249l0.4,0.2,0.3-.5,1-.2,1-.1-0.2-.1h-1.6l-0.7.1h-1.1l1.4-.4,0.9-.1h0.9l1-.1h1.2L255,74h2.3c0.8,0.2,1.3-.2,2.3-0.3l0.9,0.1,1.1,0.1c1.5,0,.3.4-0.2,0.5l-1.8.5a9.84089,9.84089,0,0,1-2.2.6ZM333.5,182a1.43787,1.43787,0,0,1-2.3-1.1c0.2-1.2-.6-1.1-0.2-2.4,0.5-1.3.9-.8,1.1-1.5,0.2-.8.5-0.6,0.3-1.3-0.1-.8.2-0.7,0.1-1.7s0.4-.9.5-1.6l0.4-.4,0.3-.2,0.8-.3,0.6-.1,0.5-.8h0.1l0.4-.2,0.5-.7,0.1-.7,0.3,0.1,0.2-.1,0.6-1,0.2-.5h0.5l0.1,0.2,0.4,3.5h-0.6v1.3c-0.8,1.1-.4,1.6-1.2,2.8A12.2787,12.2787,0,0,0,336,178a12.42722,12.42722,0,0,1-.6,1.8l-1.5,2.1C333.8,181.9,333.6,182,333.5,182Zm14.1-58.1h-0.5l-0.7-.1-0.4-.1-0.7-.7c-0.3-.3.1-0.7-0.8-0.9l-0.8.1-0.4.2-0.4.1h-1.1l-0.6-.2-0.7-.6-0.1-.1-0.2-.2-0.5-.2-0.4-.4-0.6-.9L338,119l-0.5-.4h-0.4l-0.3-.4-0.2.4h-0.8l0.3,0.5-0.4.7c0.2-.1.3,0,0.8,0.8a1.694,1.694,0,0,1,.5,1.1h0.4l0.3,0.3,0.5,0.4,0.2,0.5,0.3,0.8,0.5,0.6-0.2-.9,0.2,0.1,0.3-.3,0.4,0.7v0.9l0.1,0.1,0.4,0.6h1.7l0.1-.1,0.2-.3c1-.7.5-0.9,1-1.2l0.5-.4,0.2,0.6,0.3,0.8,0.8,0.7,1.2,0.7,0.4,0.2,0.2,0.1,0.2,0.2,0.1,0.2,0.4,0.5a1.26831,1.26831,0,0,0,.1.6l-0.6,1.3c-0.2-.2-0.6.7-0.4,1.5l-0.1.6-0.8.8-1.1.6-0.2.6-1.3.4-0.7.3-0.7,1-1,.5-2.1,1-1.6.8-1.7.6-0.4.2-0.2.2h-1.5l-0.2-.8-0.3-1.4a3.20158,3.20158,0,0,1-.4-1.7l-0.1-.4-0.4-.8-1.1-1.5c-0.7-.7-0.1-1-1.8-2.2-0.8-.6-0.4-0.7-0.7-1v-0.6l-0.9-2.2-0.4-.5-0.9-.6c-0.7-1.1.1-.2-0.5-1.3-0.9-1.5-1.4-1.8-1.2-2l-0.6-1-0.4-.6v-0.8l-0.1-.5-0.1,1.1v0.9l-0.7-.1-0.8-1.1-0.6-.9-0.6-1.1,0.3,1.1,0.4,1,0.8,1,0.4,0.6c0.6,0.6-.2,0,0.2.8,0.8,1.4,1.2,1.4,1.3,2l1,1.2c0.5,0.5-.7-0.1,0,0.7a7.75844,7.75844,0,0,1,.4.7c0.7,0.8,1,.5.9,0.9l0.5,1.4,0.1,1.5,0.4,0.7,0.3,0.1,0.2,0.1,0.4,0.4c0.7,1.2.9,1.1,1.1,2.3,0.3,1.2.5,1.2,0.5,1l0.6,0.5,0.7,0.3,1.2,1.3,0.5,0.7,0.2,0.1,0.7,1.2-0.7.4-0.2.2h0.6l1.8,1.1,1.3-.3,0.9-.2,0.7-.2,0.5-.1,0.4-.1,1.5-.7,0.7,0.2c-0.2.8,0.4,1.1,0.1,1l-0.1.9v0.1l-0.1.6c-0.4,1.1-.5.6-0.4,0.9,0.1,0.7-1,1.7-1,2.7,0,1.3-1.2,1.6-1.3,2.2-0.2.8-.9,1.4-1.8,2.5s-1.4.9-2,1.9c-0.6.9-1.3,1.1-1.7,1.9a2.81812,2.81812,0,0,1-.6,1c-0.8.9-1.5,0.7-1.4,1.6a5.75512,5.75512,0,0,1-.2,1l-0.4.9-0.3.4c-0.4.5,0,.5-0.6,1.5-0.8,1,1,1,.4,1.8l-0.3.8c-0.4.6,0.3,0.6,0.3,1.8l0.4,0.9,0.1,1.2-0.2,1.2c0.2,0.7-.4.9-0.1,1.9s0.3,0.8-.3,1.8l-0.7.8-1.6,1.2c-0.2-.1,0,0.4-0.8.5-0.9.2-1.8,1.7-2.4,2-0.8.4-1.3,1.5-.8,1.7l0.3,1.2,0.1,1.1-0.4,1.2a2.31874,2.31874,0,0,1-1.7,1.7c-1.7.7-.8,0.8-1,1.4-0.6,2-.5,2.2-1.2,2.3-0.8.1-1.6,2.8-2.5,3.1l-1.3,1.5c-0.5.3-.6,1.4-2.1,1.5l-1,.5-0.3.1-0.4.1-0.9-.1-0.3-.1-0.5.1-0.6.3h-0.3l-0.6.1-1.1-.1-0.5-.3V194c-0.8-.3-0.1-0.6-0.6-1l-0.3-.8,0.3-.7-0.3-1.3c-1-.7-0.6-2.8-0.9-2.9l-0.4-.4-0.5-1.5-0.5-3.6,0.1-1.1c0.1-.3-1.6-2.6-1.5-3.7,0.1-.7-0.9-1.5-0.8-2.9,0.1-2-.3-1.4.1-1.6,0.4-.3,0-2.1.6-3.4,0.5-1.2.4-.3,0.8-1.2,0.3-.7.4,0.1,0.7-1.1,0.4-1.2-.6-1.8-0.4-2.4,0.1-.4-0.3,0,0-1l-0.4-2-0.4-1,0.8-.4h-0.3l-0.3.1-0.4-.2-0.1-.3v-0.5l-0.1-.5,0.2-.1-0.2-.1-0.4-.3a2.76865,2.76865,0,0,0-.7-0.9l-0.1-.3-0.6-.7-0.8-.9v-0.1l-0.2-.6v-0.3l-0.4-1.1,0.5-.3,0.2-.8,0.5,0.3v-0.2l-0.4-.4,0.6-.6H300l-0.3-.1,0.4-.7,0.2-.5v-1l-0.1-.7-0.1-.3,0.1-.2h-0.5l-0.4-.5h-0.1l-0.4-.2-0.4.2-0.4-.1-0.2.3-0.3.1h-0.4l-0.8-.4-0.2-.3v-0.2l0.2-.3-0.3.2-0.1-.3,0.2-.2-0.2-.1-1-.6-0.4-.2-0.4.1-0.4.1h-0.5l-0.3.1-0.8.2-0.5.4-0.2-.1-0.2.3-1.1.4-0.8.2-0.7-.3-0.7-.1-0.5-.1h-0.7l0.6,0.1h-1c-1.1.1-1.5,0.6-1.7,0l-1.2,1-0.4-.2c-0.7.1-.2-0.2-1.1-0.5l-0.3-.2-0.8-.7-0.5-.6-0.7-.5-0.3-.4-0.7-.2-0.2-.2,0.2-.2-0.1-.1h-0.3l-0.1-.3-0.2-.3-0.2-.3,0.1-.1-0.1-.2v-0.2l0.1-.3-0.6-.7-0.4-.6-0.3-.5-0.4-.6-0.3-.3,0.2-.2,0.1-.3-0.5.3-0.2-.2,0.7-.3-0.8.1,0.1-.2h-0.4l0.1-.3-0.5-.1,0.1-.3,0.4-.1h0.6l0.3,0.1,0.2-.1h-0.3l-0.3-.1h-0.6l-0.3.2-0.1-.5,0.1-.2h0.3c0.4-.2-0.3-0.2.8-0.4-1.1.1-.5,0.3-0.8,0.3l-0.3-.4-0.1-.4,0.3-.2h-0.5l-0.2-.3-0.3-.3,0.1-.4,0.7-.8,0.5-1.2c-0.3-.7.3-0.7,0.3-1.5a2.15232,2.15232,0,0,0-.4-1.9l0.2-.3-0.1-.3,0.2-.6-0.3-.6-0.1-.6-0.1-.1v-0.3a5.48439,5.48439,0,0,0,.8-2c0.2-1.2,1.1-1.5,1.5-2.8,0.6-1.8.8-.3,1.1-1.7l0.5-.9c0.5-.9,1.6-0.2,1.9-0.9,0.3-.6,1.5-0.9,1.7-1.7,0.1-.5-0.7-0.4-0.4-1.1,0.5-1.4.7-.7,1-1.9,0.2-.9,1.2-0.1,2.2-2a7.908,7.908,0,0,1,.8-1.1l0.5-.1,0.4,0.3,0.4,0.1,0.5,0.1,0.2,0.1,0.5-.2v0.1l0.3,0.2,0.2,0.1h0.5l0.2-.2,0.3-.2,0.3-.1h0.2l0.8-.3,1-.6a3.09956,3.09956,0,0,1,1-.2h0.6l0.3-.1,0.3-.1,0.3-.1h1l0.3,0.1h0.2l0.6-.2h0.3l0.2,0.1,0.4-.1,0.1,0.1,0.4,0.1,1-.3,0.6,0.1-0.1.3,0.3,0.1h0.5l-0.1.3-0.2.5,0.5,0.8-0.1.8-0.9.6,0.7,0.5h0.2v0.2l0.4,0.3,0.9,0.3h0.6l0.6,0.1,0.5,0.1,0.6,0.2,0.4,0.2,0.3,0.4c0.1,0.7.4,0.7,0.7,0.7h0.4a7.98127,7.98127,0,0,1,1.6.5c0.9,0.6.5,0.6,1.1,0.5l0.5-1.3,0.2-.8a1.578,1.578,0,0,1,1.3-.5c0.8,0.1-.1.1,0.4,0.2h0.1l0.8,0.1c0.9,0.3-.2.5,0.7,0.4l0.4,0.1,0.3,0.1,0.4,0.2,0.8,0.2,1.4,0.2,0.8,0.3,0.4,0.1,0.6,0.2,0.7-.4,0.8-.3h0.3l0.4,0.1,1.2,0.3,0.4,0.1,1.1-.4,0.2-.9,0.2-.8,0.3-.8,0.4-.6c-0.6-1.2.2-1-.4-1.3l-0.1-.4,0.1-.6h-0.3l-0.2.1-1-.2-0.5.6h-1l-1.1-.6-0.7.1-0.7.5-0.6-.5-0.5-.2-0.6.1h-0.5l0.6-.3h-0.7l0.1-.2v-0.2l-0.5-.2-0.3-.6-0.5-.1-0.1-.4,0.1-.2,0.1,0.1h0.1l-0.1-.4v-0.2l-0.1-.4c-0.8,0-.3,0-0.5-0.4l0.3-.2,0.7-.3h1.3l0.9-.2-1-.4h1.9l1.4-.5,0.9-.1,0.7-.1,0.4,0.1,0.5,0.2,0.8,0.3,0.6,0.3,0.3,0.1h1.7a1.13,1.13,0,0,0,1.5-.6l-0.1-.5-0.4-.6-0.8-.5a5.2911,5.2911,0,0,0-1.3-.6c-1.1-.9-2.1-0.8-2.3-1.2l0.1-.2,0.4-.4,0.5-.3-0.2-.4-0.3-.3,0.8-.3c0.3-.3.3-0.4-0.8-0.1l-0.3.1-0.2.1-0.3.1-0.3.1-0.3.1-0.5.1-0.4.1-0.5.1,0.3-.1h-0.7l0.2,0.2,0.3,0.1,0.5,0.5h0.8l0.6,0.1v0.2l-0.1.1h-0.8l-0.2.1h-0.3c-0.4.1,0,.6-1,0.3l-0.1-.5-0.7-.3v-0.2l0.6-.4-0.2-.1-0.3.1-0.2-.1-0.4-.1-0.3-.1h-0.1l0.1-.2v-0.1l0.5,0.1L318,101l-0.7.1-0.7.3-0.2-.2-0.1.1v0.2l-0.3.3-0.1.3-0.1.1v0.3l-0.2.1-0.1.1-0.1-.2v0.2l-0.1.2-0.1.3v0.3l0.1,0.3-0.2.2-0.1.1-0.2.5v0.1h-0.1l-0.1.2,0.1,0.1,0.2,0.3v0.1l0.1,0.1,0.8,0.6,0.4,0.2-0.2.1h-0.4l-0.2-.1-0.3.2-0.2.3-0.6.3h-0.3l0.4-.3v-0.1l-0.5.2-0.2-.3-0.3-.2-0.5.1-0.3-.1h-0.3l-0.3.1-0.3.2,0.1,0.2V107h-0.2v0.1l-0.2-.1-0.1.1V107l-0.3-.1-0.2-.2V107l0.1,0.3,0.3,0.2,0.1,0.4h-0.1l-0.1-.2-0.1.2v0.2l0.1,0.1,0.1,0.2v0.3l0.4,0.1,0.3,0.2,0.4,0.3,0.1,0.3-0.2-.1h-0.3l-0.3.1,0.1,0.2,0.1,0.2-0.3.1-0.2-.1,0.1,0.2,0.1,0.3,0.1,0.2v0.2l-0.3-.1-0.1.1-0.2-.2-0.3-.1-0.5-.4-0.3-.4-0.2-.3v-0.2l0.3-.2h0.5l0.2,0.1,0.2,0.1,0.3,0.1v-0.2h-0.3l-0.5-.1h-0.3L310,109l-0.2.1-0.3-.3,0.3-.1h0l-0.1-.1h-0.2l-0.1.1-0.3-.3-0.2-.2-0.4-.2v-0.1l-0.4-.4-0.3-.2-0.1-.3,0.1-.1h0.1l-0.3-.3v-0.3l0.1-.2-0.1-.3-0.1-.3,0.1-.2-0.2-.1-0.3-.2-0.4-.3,0.1-.1h-0.5l-0.6-.2-0.1-.2-0.6-.4h-0.3l-0.5-.4-0.5-.5-0.1-.2-0.5-.4-0.2-.5-0.2.4h-0.3l-0.2-.5v-0.2l-0.2-.1-0.3.3-0.4.2v0.5l0.2,0.5,0.6,0.3,0.4,0.5,0.5,0.8,0.5,0.5,0.5,0.2,0.6,0.1,0.1,0.2v0.3l0.8,0.3,0.4,0.4,0.5,0.2,0.2,0.3-0.1.2-0.4-.4h-0.6l-0.1.3v0.2l0.1,0.2,0.3,0.3,0.2,0.3-0.3.1v0.4l-0.3.4-0.5.4-0.2-.4,0.1-.5,0.1-.4-0.4-.7-0.2-.2-0.4-.1-0.2-.2-0.4-.2-0.2-.3-0.5-.3-0.5-.1-0.6-.4-0.2-.2-0.3-.2-0.3-.3-0.3-.2-0.5-.6-0.2-.4L299,103h-1.2l-0.8.4v0.1l-0.3.1-0.2.2-0.2.3-0.3.1-0.4-.1-0.4-.2-0.2-.2-0.5.2h-0.3l-0.5.4-0.3.3-0.1.3v0.2l0.1,0.1v0.4l-0.2.2-0.5.2-0.3.2-1,.4v0.3h-0.2l-0.5.5-0.3.3v0.7l0.3,0.2-0.1.2-0.1.4-0.1.2-0.1.2,0.1,0.1-0.3.1-0.3.2-0.4.3-0.3.5-0.3.1h-0.5l-0.6.2-0.4.1-0.8.2-0.4.3h-0.2l-0.3-.1-0.1-.3-0.1-.1V111l-0.2-.1-0.4-.2-0.1-.1h-0.5l-0.3-.1-0.3.2h-0.4l-0.3-.1h-0.3l-0.1-.1,0.2-.3,0.1-.3-0.1-.1v-0.7h-0.4v-0.3h-0.1l-0.1-.2v-0.5h0l0.2-.3,0.1-.3,0.2-.6,0.1-.7v-0.7l-0.1-.2,0.2-.1-0.1-.3-0.1-.2-0.1-.2v-0.1l0.3-.2,0.3-.1,0.1-.1v-0.1l0.3-.1h0.1l0.5,0.2h1l0.2,0.1,0.9,0.1h0.7l0.3,0.2,0.3-.1,0.4,0.1h0.8l0.3-.2,0.3-.8,0.2-.8,0.4,0.2-0.3-.7v-0.6l-0.3-.1-0.5-.2-0.1-.4v-0.3l-0.2-.2-0.2-.2-0.2-.1h-0.3l-0.4-.2h-0.5l-0.2-.2,0.2-.1-0.1-.1-0.3-.1v-0.2h0.4l0.4-.1,0.3-.1h0.3l0.1,0.1h0.6l0.4,0.1v-0.2l0.1-.3-0.1-.3-0.1-.3h0.2l0.2,0.1,0.2,0.2,0.2,0.2,0.2-.1,0.4-.2h0.1V98l0.3-.1,0.4-.1,0.5-.2,0.1-.2,0.1-.2,0.2-.2h0.4l0.4-.1,0.5-.3,0.2,0.1H294l-0.1-.2-0.2-.1,0.2-.1-0.2-.2,0.3-.4,0.2-.5h0.1l0.1,0.1v0.3l-0.1.2h0.2l0.2-.2,0.1-.2v-0.2l-0.1-.2,0.2-.1h0.7v0.2l0.1-.1,0.1-.2,0.3-.1h0.4v0.1l0.1,0.1v-0.1h0.2l0.1-.2,0.2-.2,0.3,0.1,0.3,0.1-0.4-.3-0.2-.1v-0.2l-0.1-.1-0.2-.1,0.1-.1L297,93l0.1-.1-0.1-.2-0.2-.1-0.1-.2-0.1-.2-0.1-.1,0.1-.2-0.1-.2-0.1-.3,0.3,0.1h0.2V91.3l0.1,0.1,0.1,0.1,0.1-.3h0.2l0.2,0.2,0.1,0.3,0.1,0.1,0.5,0.1-0.2.1-0.2.2-0.2.2-0.1.2-0.1.3,0.2,0.1v0.1l0.1,0.2,0.3,0.1h0.5v0.3h1.4l0.4-.2,0.1,0.1h-0.2v0.1l0.3-.1h0.4l0.2-.1,0.2,0.3,0.3,0.2h0.2l0.4-.3,0.7-.1h0.3l0.4-.1,0.7-.3,0.9,0.1,0.3,0.2v0.1l-0.2-.1,0.1,0.2h0.4l0.2-.2h0l-0.2.2h0.1l0.1-.2,0.2-.1-0.3-.1-0.1-.1,0.1-.1h0.3l0.4-.2,0.1,0.1,0.2-.1-0.1-.6V91.6l0.1-.6,0.5-.4h0.3l0.4,0.3,0.3,0.4,0.4,0.1,0.4-.3-0.1-.5-0.2-.3-0.2-.1-0.3-.3,0.2-.1-0.3-.2,0.1-.2,0.4-.2h1.1l0.3,0.1,0.5,0.1h0.8l-0.1-.3,0.1,0.1h0.1l0.2-.1,0.3-.1h0.6l0.2-.3h-0.5l-0.4-.1-0.3-.1-0.5-.2h-1.2l-0.6.1h-1.6l-0.4.2-0.3.1-0.3.1V88.5l-0.2-.3h-0.4l-0.1-.1-0.3-.3V87.5l-0.2-.2-0.1-.2V86.8l0.1-.2,0.1-.1,0.1-.1h0.2l0.1-.1,0.2-.1,0.1-.1,0.2-.1,0.2-.1,0.2-.1,0.4-.2,0.3-.2h0.3l-0.1-.3-0.9-.4L307,85l-0.2.1h-0.4l-0.3-.1h-0.2l-0.1.1h-0.1l-0.3.1v0.5l-0.4.4-0.3.1-0.3.1-0.2.1-0.2.1-0.6.1-0.2.1-0.1.1h-0.2l-0.1.1v0.7l0.2,0.9,0.3,0.1,0.1-.1,0.5,0.3,0.2,0.3-0.4.1,0.4,0.1-0.4.4-0.1.1-0.4-.1-0.4.2h-0.4l0.4,0.3-0.1.3V91l-0.1.7-0.4.5-0.7-.1h-0.1l-0.2.2v0.4h-0.8l-0.7-.4-0.3-.4,0.2-.2-0.3-.3-0.4-.7h-0.1l-0.1-.1-0.1-.1-0.1-.1-0.2-.3-0.1-.4-0.3-.1-0.2-.1-0.1-.6-0.2.3v0.5l-0.5-.2-0.3.6-0.6.3-0.7.1h-0.4V90.4l-0.3-.3-0.6-.2-0.3-.5h0.3l0.2,0.1,0.1-.6-0.5.3h-0.2l-0.2.2,0.2-.6,0.3-.1h-0.1l-0.1-.1-0.1-.1-0.1-.1h-0.1l-0.2-.2,0.4-.2-0.3-.1,0.1-.2h1.2l0.3-.1h-1.5l0.2-.3-0.2-.3,0.4-.1,0.7-.3h0.5l0.1-.3h0.5l0.6-.1,0.5-.1,0.3-.1h0.3l0.4,0.1,0.1-.2h-0.8l0.2-.2,0.4-.3,0.4-.3,0.4-.4,0.5-.4,0.3-.2,0.3-.3,0.4-.2,0.5-.2,0.4-.2,0.4-.3,0.5-.2,0.3-.2,0.9-.2h0.8l0.4-.1,0.3-.1,0.2-.1,0.2-.1h0.9l0.4-.1,0.4,0.1,0.6,0.1,0.1-.6h0.6V82l0.5-.6,0.2,0.4,0.3-.4,0.1,0.4,0.3-.1h0.3l0.2,0.1,0.7,0.2-0.8.1,0.7,0.2,0.5,0.1h0.2l0.7,0.1h-0.5l0.8,0.2h1.1l0.9,0.2L315,83l0.9,0.2,0.9,0.2,0.8,0.2,0.5,0.2,0.3,0.1,0.5,0.5v0.2L318,85a6.44647,6.44647,0,0,0-2-.3c-2.2-.1-1.6-0.7-1.9-0.4l-0.4-.1h-0.9l-0.2-.1-0.1.1,0.8,0.2,0.2,0.1,0.3,0.3h0.4l0.4,0.1,0.3,0.1H315v0.3l0.2,0.3,0.2,0.2c0.3,0.2-.6.1,0.2,0.2l0.7,0.2,1.2,0.3,0.3-.2-0.5-.3c-0.9,0-.4-0.1-0.6-0.3l0.1-.2h0.6l0.2,0.1v0.1h1.8l-1.1-.7,0.4-.2,0.7-.2h0.7l0.2,0.1,0.6,0.2h0.4l0.1-.5-0.3-.2-0.3-.6-0.6-.6s0.5,0.1,1.3.3l0.2,0.3,0.2,0.3,0.2,0.3,0.6,0.2h1l0.1-.1,0.1-.1-0.2-.3V84h0.4A71.531,71.531,0,0,1,347.6,123.9Zm-49.7-17.7h0.3l0.2-.2h0.2l0.1,0.3,0.1,0.4V108l-0.3-.1v0.3h-0.3l-0.2-.3v-1.3l-0.2-.2,0.1-.2h0Zm-0.1-1.4v-0.2l0.2-.1,0.3-.2,0.1,0.1,0.1,0.4v0.6l-0.1.5-0.3-.2-0.2-.1-0.1-.1-0.1-.3Zm4,4.5,0.4-.2h0.5l0.3,0.1,0.4-.1,0.5-.1h0.6l-0.2.5-0.1.3v0.4l-0.2.3-0.5-.1-0.5-.3-0.5-.3-0.5-.2Zm-5.2-18,0.1-.1,0.2-.1h0.2l0.4-.2,0.3-.1V91l-0.1.3-0.1.1-0.3-.2-0.2.1h-0.3l-0.1.3Zm1.9,1.4v0.2H298l-0.2-.1V92.7h0.7Zm0.9-.5h0l0.2-.2,0.1,0.2-0.1.3v0.3l-0.1.3-0.4-.1,0.1-.1h-0.5l-0.1-.4,0.4-.1,0.1-.1h0.2l0.1,0.1h0.1Zm-70.3-5.6a0.62509,0.62509,0,0,1-.4.3A0.419,0.419,0,0,0,229.1,86.6ZM226.8,89l0.1,0.1,0.6-.2,0.3,0.4v0.6l-0.5.2-0.4.2,0.3-.1h0.2l1.5-.1,1.4,0.5,0.2,0.2,0.3,0.1,0.7,0.4,0.7,0.1h0.7l0.4,0.1v0.2l-0.2.5-0.2.1h-0.8l0.8,0.4-0.5.4c1,0.1.3,0.9,0.6,1l-0.4.4,0.6-.3,0.2,0.3v0.3h0.2l0.1-.1,0.6-.3,0.5,0.6,0.2-.4-0.3-.4c0-.3.9,0,0.9-0.8l0.1-.5c0.1-.8,0-0.7-0.1-0.7l-0.1-.1-0.2-.3c0.1-.2,2-0.1,3.4-1.4,1.7-1.7-.3-1.8.1-2.1,0.2-.1-0.4-0.2.7-0.5l0.5-.3,0.3-.6c0.9-.5-0.4-0.1.4-0.6l0.7-1.2,1.8,0.2h0.9l1.2,0.3,0.4,0.6h0.5v0.3l0.6-.1-0.4.3c-0.9.2,0.6,0.4-.7,0.6l0.4,0.1-0.9.8,0.8,0.2-0.6.1-0.4.4,0.4,0.3,1.3-.5,0.1,0.2,0.1,0.1,1-.8,0.2,0.1,0.1,0.2,0.5-.5,0.4-.6,0.8-.5,0.4,0.4,0.1,0.4,0.2,0.5,0.2,0.7c0.6,0.2.3,0.7-.5,0.8l0.8-.1v0.6l0.3,0.7,0.2,0.1,0.2,0.1,0.2,0.1,0.1,0.1,0.2,0.1,0.2,0.1,0.4,0.2-1.6.3c-0.9,0,.2.1-0.8,0.4l1.7-.3,1-.1v0.3l0.5-.1,0.2,0.5,0.1,0.4c-0.2,0,.6.3-0.3,0.7l-0.6.2-0.7.3-0.6.3h0l-0.4.2-0.1.1a1.2772,1.2772,0,0,0-.9.3c-0.8.3-.9,0.3-1,0.2H248a6.68771,6.68771,0,0,0-1.6,0c-1.7.2-2.1,0.2-2.1,0.5l-1,.4-0.8.3-0.5.3L240,98l-0.9.7,1-.6a16.03441,16.03441,0,0,1,4.2-1.7c1-.2,1.5.1,1.4,0.3h-0.2l0.1,0.2-0.9.3-0.4.1-0.5.1,0.4,0.1h0.5l-0.5.6,0.6,1,0.9,0.4,0.6,0.1h0.5l0.3,0.1-0.5.4-1.1.4-0.2.1-0.4.1-0.7.2-0.3.4-0.9.4-0.2.2-0.2-.4,0.7-1,1.1-.3h0.1l0.9-.2H244l-0.3.1,0.4-.7-0.6.6-0.8.2-0.3.1-1.1.6-0.7.2-0.2.1-0.1-.1-0.4.4h-0.3l-1.1.5-0.6.6-0.2.7,0.3,0.1-0.1.3h-0.8l-0.7.4c-0.4-.2,0,0.1-0.7.1-0.8,0-.7.5-1.1,0.5l-0.2.2-0.1.4-0.5.4-0.5-.1,0.3,0.3-0.3.1-0.2.1-0.5.4-0.3.1-0.4-.6,0.1,0.4,0.2,0.4-0.2.5v0.2l-0.2.3,0.2-.5v-0.1l-0.7,1v-0.3l-0.1-.6v-0.5l0.2-.4h-0.3l-0.3.5-0.2.2,0.3,0.5h-0.3l0.1,0.5,0.2,0.7-0.1.8h-0.3l-0.4-.1,0.2,0.2,0.2,0.1h0.1v0.3l-0.6.1-0.1.2,0.1,0.1h0.1l-0.6.5-0.8.5-0.7.5-0.5.3-0.9.4-0.5.5-0.7.3h-0.1l-0.5.1h0l-0.1.4-0.4.4a3.69263,3.69263,0,0,0-.9,1.6v1.6l0.1,0.2V119l-0.1-.3-0.1-.2,0.3,1.2-0.3,1.4-0.1.5-0.3.1-0.1.1h-0.2l-0.4-.1,0.1-.1,0.2-.2-0.3-.4-0.4-.6v-0.5l-0.2-.1c-0.4-.9,0-0.8-0.2-1.1l0.4-1.4-0.5-.6-0.8-.2-0.6.2h-0.2l-0.2-.1c0.2-.1-0.1-0.1-1-0.4-0.9-.2.6-0.2,0.4-0.2l-0.9.1h-0.9l-0.4.2-0.3-.3-0.1.3-0.4.1h-1.2l0.5,0.5,0.2,0.3,0.1,0.3-0.4-.1h-0.4l-0.9-.2h-0.1l-0.2-.1H213l-0.6-.1-1.2.1-0.7.4,0.2-.5-0.4.5-0.3.3-0.6.3A77.46157,77.46157,0,0,1,226.8,89Zm21.5,10.1v0.3l-0.4.1-0.4.1h-0.3l0.1-.4,0.7-.5,0.1,0.1L248,99Zm-2,.1h-0.2l-0.1-.1h-0.4l-0.3-.1-0.1-.1-0.1-.1V98.7H245l0.2-.3,0.4,0.3h1.1l-0.3.2Zm-12.1,30.2,0.2-.1,0.7,0.1h0.5v0.2l-0.2.2h-1.2v-0.4Zm-4.5.2-0.3-.1h-0.7l-0.5-.1-0.4.1h-0.2l-0.3-.2v-0.2l0.4-.1h0.8l0.4-.1h0.4l-0.3-.2-0.2-.3v-0.5l-0.3-.2-0.1-.3h0.7l0.4,0.1h0.6l0.3-.1h0.3l0.4,0.1,0.2,0.2h0.4l0.1,0.2h0.5l-0.1.1-0.4.1,0.3,0.1,0.7,0.2,0.5,0.4-0.2.4-0.2.1-0.2.1-0.4-.3-0.4.1h-0.3l-0.3.1-0.2-.1-0.3.1-0.1.2-0.3.2-0.3.1h-0.3v-0.2h-0.1Zm-4.6-1.9-0.5.1-0.2-.2,0.3-.2,0.3-.2v-0.1l-0.1-.2h-0.6l-0.3-.1-0.1-.2v-0.4l-0.1-.2h-0.5l-0.6-.3-0.4-.2-0.1-.2h-1.1l-0.5-.2-0.2-.1,0.4-.1,0.3-.1-0.1-.1-1.1-.1-0.2.2-0.3.2-0.4.1-0.2.1-0.1.2-0.3.1-0.1-.1-0.3.1-0.2-.1,0.4-.2,0.3-.1-0.2-.2,0.2-.4,0.2-.1,0.8-.3,0.4-.2h0.5l0.1-.1h0.8l0.5,0.1H222l0.5,0.1,0.3,0.2,0.4,0.2,0.4,0.2,0.5,0.3,0.3,0.1,0.1-.1,0.2,0.2v0.1h0.2l0.7,0.4,0.4,0.2h0.7l-0.1.3-0.2.2,0.2,0.1h0.4l0.3,0.1,0.2,0.1,0.3,0.2V127l-0.5.1-0.4.2h-1.4Zm0.4,2.1-0.3.1h-0.7l-0.2.1h-0.1v0.1l-0.3-.2-0.3-.3-0.3-.2-0.2-.2,0.4-.1H224l0.5,0.2,0.4,0.3Zm-6-4.1h0l0.1-.2h0.2v0.1l0.1,0.1v0.2l-0.3.1-0.2-.2h0.1l0-.1h0ZM207,138.1a79.19543,79.19543,0,0,1,.5-8.5h0l0.9,0.1,1.3-.4,0.9-.3h0.2l0.1,0.1,0.4-.5,0.5-.8,0.1-1.1,1.6-.6,0.5-.1h1.1l0.3,0.1,0.2,0.2,0.1,0.2-0.5.8-0.4.6v0.4l-0.6,1.3-0.2.7v-0.8l-0.3.4v1l-0.5,1-0.4.6v0.1l0.3,0.1h0.5l0.4-.1h2.3l0.6,0.1-0.1.2-0.1.1,0.4,0.1h0.4l0.5,0.5-0.2.4-0.3.8-0.1.7-0.1.7-0.2.3,0.1,0.1v0.6l-0.1.5v0.9l0.1,0.3,0.6,1.1,0.3,0.3v0.4l0.1-.2,0.4,0.3h1l0.8-.3,0.1,0.2-0.1.1,0.3-.1v-0.2l0.3-.4h0.5l0.2,0.1,0.5,0.2,0.3,0.3,0.5,0.4,0.7,0.7-0.1-.2,0.2-.1-0.2-.3,0.5-.5,0.5-.3h0.1l0.1-.6,0.1-.8,0.8-.6c0.8-.3-0.1.2,0.4,0.2l0.6-.6a3.54605,3.54605,0,0,0,1.3-.5c1-.4.1-0.6,0.6-0.6l0.6-.1,0.1,0.6-0.3.3,0.2,0.8-0.1.3V139l-0.7.8,0.5,0.6h0.8l-0.2-.9-0.1-.3,0.2-.5,0.9-.5,0.4-.3,0.2-.1-0.2-.1-0.3-.3,0.6,0.1,0.5,0.4,0.4,0.1h0.2l0.3,0.5c-0.3.1,0.1,0.4,0.9,0.3,0.9-.1,1.6,0,1.4.2-0.1.2,0.2,0.4,1.2,0.3s0.3-.4,1-0.5c-0.8-.1-0.4-0.2.1-0.1h1.5l-0.9.2-0.1.1,0.5,0.7,0.7,0.2,0.6,0.8,0.2,0.2,0.2,0.2-0.5.3,0.6,0.1,0.5,0.3,1.2,0.6,0.3,1.2,0.6,0.1,0.5,0.6-0.2,1,0.4-.5H244l0.6,0.1h0.6l0.4-.1h0.2l0.8,0.3,0.4,0.1,0.8,0.5,0.2,0.1,0.2,0.1,0.3,0.3,0.3,0.5,0.4,0.3,0.2,0.1v0.2l0.8,2.3,0.3,1-0.7.9-0.5,1.3-0.5.7,0.5,0.8-0.1-.7,0.8-.7,0.2-.8,0.6-.3h0.5l1.2,0.2-0.4.8-0.3.7-0.4.1-0.5.2-0.3.1-0.5.1h1c0.8-.4-0.2.1,0.4,0.9-0.2-.9.3-1.1,0.5-1.1,0.3,0-.1-0.8.9-1,0.9-.2.9,0.3,2.1,0.9,1.3,0.6,1,.7.7,0.8l0.2,0.8,1-.1c0.8,0.5,1.9.8,2.1,0.6l1.8,0.6,1.9,1.3,0.9,0.2,1,0.4,0.6,2-0.4,2.6c-0.6.6-.6,1.1-1.3,1.8-0.9.8-.8,2.3-1.6,2.9l-0.4-.1-0.1.4c0.2,0.5-.2,1.1.2,2.1,0.4,0.8-.2,1-0.1,2.2s-0.6.7-.2,1.7-0.7.5-.4,1.6c0.3,1.3-1,1-.9,2.2,0.1,0.9-.3.6-0.7,0.9l-0.8.4h-0.9l-0.7.1c-0.3.4-.7,0.4-1.9,1.6a1.51269,1.51269,0,0,0-.4,2c-0.1.8,0.6,1.4,0.1,1.8s0.4,0.4-.7,1.1-0.3,1-.7,1.6,0.2,1.4-.7,1.9c-0.9.6,0.4,0.6-1.2,1.7a1.71421,1.71421,0,0,1-2.1.6l-0.6-.1-0.4-.1c-0.3-.3-1.3.1-1.5-1.3-0.3,1,.6,1,0.1,1.2s1.9,0.5,1.9,1.4c0,0.8.3,0.8,0.5,0.8l0.2,0.1c0.3,0.8,0,.6-0.1,1.1-0.4,1.2-.9.8-1.5,1.2a3.0035,3.0035,0,0,1-1.9.3l-0.3-.1-0.2-.1-0.2-.1v0.4l0.3,0.4-0.1.4,0.1,0.7-1.3.5-0.7-.3-0.3.3c1,0.6-.1,1.2.9,1.2l0.3,0.1,0.1-.3,0.4,0.5-0.3.1H244l0.7,0.2-0.3.4v0.8C222.1,188.6,207,165.1,207,138.1Z" transform="translate(0.01703 -4.1)"/><circle class="cls-4" cx="378.71704" cy="82.5" r="22.79999"/><circle class="cls-4" cx="278.01702" cy="22.8" r="22.8"/><circle class="cls-4" cx="278.01702" cy="245.2" r="22.8"/><circle class="cls-4" cx="177.31703" cy="82.5" r="22.8"/><circle class="cls-4" cx="177.31703" cy="181.79999" r="22.8"/><circle class="cls-4" cx="378.71704" cy="181.79999" r="22.8"/><g class="cls-5"><path class="cls-6" d="M266.1,18.3l7,4,4.2-7.2-0.8-2s-1.2-2.8-3.9-2.4c-2.5.3-3,2-3.5,2.7C268.5,14.2,266.1,18.3,266.1,18.3Zm24.8,1.5-6.8,4.3,4.5,7,2.2,0.2s3,0.2,4-2.4a3.95548,3.95548,0,0,0-.9-4.3C293.5,23.9,290.9,19.8,290.9,19.8ZM277.3,41.2l-0.1-8-8.4.1L267.5,35s-1.8,2.4-.1,4.6a4.31523,4.31523,0,0,0,4.1,1.8C272.4,41.4,277.3,41.2,277.3,41.2Z" transform="translate(0.01703 -4.1)"/><path class="cls-6" d="M275.4,10.5H284a2.31326,2.31326,0,0,1,2,1.3c0.7,1.3,1.7,3,1.7,3l2.4-1.2-3.7,6.7-7.8.2L281,19s-4-8.8-5.6-8.5h0Zm18.2,21.2-3.9,7.6a2.57941,2.57941,0,0,1-2.1,1.2c-1.4,0-3.5.2-3.5,0.2L284,43.4,279.7,37l3.4-7.1,0.3,2.8s9.6,0.5,10.1-1.1Zm-27.8,5.5-4.4-7.4a2.37262,2.37262,0,0,1,.1-2.4,34.27507,34.27507,0,0,0,1.7-3L261,22.9l7.7-.3,4.2,6.6-2.5-1.3s-5.5,7.9-4.4,9.2Z" transform="translate(0.01703 -4.1)"/><path class="cls-6" d="M382.4,97.8H375a0.9,0.9,0,0,0,0,1.8h7.4a0.89625,0.89625,0,0,0,.9-0.9A1.05533,1.05533,0,0,0,382.4,97.8Z" transform="translate(0.01703 -4.1)"/><path class="cls-6" d="M382,100.2h-6.8a0.9,0.9,0,0,0,0,1.8H382A0.9,0.9,0,0,0,382,100.2Z" transform="translate(0.01703 -4.1)"/><path class="cls-6" d="M381.4,102.6h-5.5a0.9,0.9,0,0,0,0,1.8h5.5a0.89625,0.89625,0,0,0,.9-0.9A1.05534,1.05534,0,0,0,381.4,102.6Z" transform="translate(0.01703 -4.1)"/><path class="cls-6" d="M385.1,84.5h0V75.7a3.18677,3.18677,0,0,0-2.1-2.9V84.5h-0.4V72.9c0-1.7-.4-4.1-3.8-4.2-4.1,0-3.9,4.9-3.9,5.1V84.4h-0.4V72.7a3.18926,3.18926,0,0,0-2.2,2.8v8.8h-0.4v4.3l13.7,0.1V84.4Zm-6.4-12.9a0.98062,0.98062,0,0,1,1,1.3V84.5h-2V73.9C377.8,73.2,377.6,71.6,378.7,71.6Z" transform="translate(0.01703 -4.1)"/><path class="cls-6" d="M371.8,90.3v1.6a1.15536,1.15536,0,0,0,1.2,1.2h1.1v4h9.2v-4h1.1a1.15536,1.15536,0,0,0,1.2-1.2V90.1L371.9,90Z" transform="translate(0.01703 -4.1)"/><path class="cls-6" d="M366.9,169.5a46.6801,46.6801,0,0,1,.4,9.3c-0.4,3.8-.1,12.8,9,16.5a20.2248,20.2248,0,0,0,6.3,1.3c3-.1,4.5.6,5.5,2.7a17.32609,17.32609,0,0,0,1.8,3.1l0.4-.5s-1.8-3-2.3-4-1-3.3-.2-6.6c0.8-3.4,1.9-7.3-2.4-12.8C381.2,172.9,370.8,172.9,366.9,169.5Zm5,6a3.71332,3.71332,0,0,0,.2-2.1,4.19232,4.19232,0,0,1,.5,3.1,10.62842,10.62842,0,0,0,.9,1.1,8.96871,8.96871,0,0,0,.4-3.1,8.82305,8.82305,0,0,1,.3,3.9c0.4,0.5.7,0.9,1,1.3a7.39532,7.39532,0,0,0,.9-5,5.48092,5.48092,0,0,1-.2,5.9c0.2,0.3.5,0.7,0.8,1.1,0.5-.7,2.4-3.7,1.8-6.1,0,0,1.9,2.9-.9,7.3l0.9,1.2c0.6-.8,2.9-4.5,2.2-6.9,0,0,1.8,3-1.2,8.3a11.31939,11.31939,0,0,0,1,1.3c0.7-1.1,3.2-5.6,2-9.3,0,0,2.9,3-1,10.5l0.9,1.2c0.7-1,3.3-5.3,2.8-8.7,0,0,2.2,1.8-1.9,9.9q0.6,0.75,1.2,1.5c0.9-1.3,3.2-4.9,2.7-8.6a11.24942,11.24942,0,0,1-1.8,9.9,1.62288,1.62288,0,0,1-1.1.8,11.43969,11.43969,0,0,1-9.5-1.2c3.1,1.4,6.8.5,8.6-.1l-1.2-1.6c-8.5,1.5-9.6-1-9.6-1,2.8,1.2,7.1.2,8.7-.2l-0.9-1.3c-8,1.6-10-2-10-2,3,2.1,7.5,1.2,9.2.8l-0.9-1.3c-5.7,1.3-8-1.2-8-1.2,2,1.2,5.8.2,7-.2l-0.9-1.2c-4.8,1.4-7-1.2-7-1.2,2.1,1.2,5.2.3,6.2,0l-0.8-1.1a5.43479,5.43479,0,0,1-5.7-1.4,7.6621,7.6621,0,0,0,5,.5l-0.9-1.3a9.69275,9.69275,0,0,1-3.8-1.3,8.07559,8.07559,0,0,0,3.2.5l-0.8-1.1a4.18364,4.18364,0,0,1-3-1.4,4.49323,4.49323,0,0,0,2.2.4l-3.9-5.4s-0.1-.6-0.1-0.7l0.9,0.7C368.3,170.8,370,173.1,371.9,175.5Z" transform="translate(0.01703 -4.1)"/><path class="cls-6" d="M286.7,241h-1.4v-5.6a1,1,0,1,0-2,0V241H276v-5.6a1,1,0,0,0-2,0V241h-1.4a2.47572,2.47572,0,0,0-2.5,2.5v4.7H289v-4.7A2.20826,2.20826,0,0,0,286.7,241Z" transform="translate(0.01703 -4.1)"/><path class="cls-6" d="M272.5,255.8H276v4.1h3.2v2.2a2.21726,2.21726,0,0,1-.5,1.8,3.47319,3.47319,0,0,1-2.8.9h-7.7v1.7h7.7a4.92151,4.92151,0,0,0,4-1.5,3.89244,3.89244,0,0,0,.8-3.1V260h2.6v-4.1h3.4l2.1-6.5H270.3Z" transform="translate(0.01703 -4.1)"/><path class="cls-6" d="M195,186.3l-6.9-3.5,3.5-6.9-7.6,1.2-1.2-7.6-5.5,5.4-5.5-5.4-1.2,7.6-7.6-1.2,3.5,6.9-6.9,3.5,6.9,3.5-3.5,6.9,7.6-1.2,1.2,7.6,5.5-5.4,5.5,5.4,1.2-7.6,7.6,1.2-3.5-6.9Zm-17.7,9.4a9.4,9.4,0,1,1,9.4-9.4A9.51928,9.51928,0,0,1,177.3,195.7Z" transform="translate(0.01703 -4.1)"/><path class="cls-6" d="M184.9,86.4c-2.6-6.7-7.5-16-7.5-16s-5.8,11.2-8.6,16.2c-5.3,9.5.9,16.2,8.6,16.2C187.9,102.8,187.7,93.7,184.9,86.4ZM177.1,100c-5.9,0-10.7-5.1-6.6-12.4,0.3-.5.6-1,0.9-1.6-3,7.3,2,12.2,8.2,12.2a10.418,10.418,0,0,0,3.3-.5C181.8,99.1,179.9,100,177.1,100Z" transform="translate(0.01703 -4.1)"/></g></svg>