<svg id="Capa_1" data-name="Capa 1" xmlns="http://www.w3.org/2000/svg" viewBox="0 0 240.48534 427.77837"><defs><style>.cls-1{fill:#393;}</style></defs><title>gym</title><path class="cls-1" d="M230.12444,94.55341A74.866,74.866,0,0,1,218.14611,59.2221l-3.39519-40.74974A19.96233,19.96233,0,0,0,195.03028.09861l-7.64461-.09519a20.03626,20.03626,0,0,0-20.291,19.77822q-0.00146.11482-.00162,0.22966l-0.02422,20.19409a46.87473,46.87473,0,0,1-93.7492.08518l-0.061-19.916A20.11663,20.11663,0,0,0,53.38691.41759L45.85421,0.355A20.1176,20.1176,0,0,0,25.7144,18.73122L22.34009,59.2221A74.86932,74.86932,0,0,1,10.36174,94.55342C3.67992,104.56442,0,117.41456,0,130.73641c0,24.89108,20.04045,32.1908,20.04045,43.198v33.40076a6.68045,6.68045,0,0,0,6.68015,6.68015H213.76474a6.68045,6.68045,0,0,0,6.68015-6.68015v-33.4007c0-10.94876,20.04045-18.37961,20.04045-43.198,0.00085-13.32188-3.67911-26.172-10.3609-36.183h0V94.55341Zm-23.039,106.10165H33.40157V180.6146H207.08545v20.04045h0Zm0.98532-33.40076H32.41624c-4.25943-14.10013-19.05512-19.076-19.05512-36.51787,0-10.71078,2.88165-20.92723,8.113-28.76556a88.23964,88.23964,0,0,0,14.18028-41.639L39.02871,19.841a6.709,6.709,0,0,1,6.65761-6.1257c0.76488,0-2.78228-.02255,7.58782.06346a6.70375,6.70375,0,0,1,6.6242,6.64424l0.061,19.90935a60.23464,60.23464,0,0,0,120.469-.11023c0.02589-21.20613-.63712-22.32172,2.01489-24.93616,2.389-2.35475,4.03564-1.93223,12.41922-1.827a6.65632,6.65632,0,0,1,6.5741,6.12486l3.39513,40.74886a88.23975,88.23975,0,0,0,14.18028,41.639c5.23221,7.83916,8.113,18.05477,8.113,28.76556,0.00085,17.42183-14.80823,22.46117-19.05429,36.517h0Z" transform="translate(0 -0.00175)"/><path class="cls-1" d="M73.49082,241.22025a6.67829,6.67829,0,1,0-.03036,0q0.01517,0,.03036,0h0v0Z" transform="translate(0 -0.00175)"/><path class="cls-1" d="M224.139,303.005c-4.53413-29.53546-3.69328-27.928-3.69328-68.46484A6.68045,6.68045,0,0,0,213.7656,227.86H100.19468a6.68015,6.68015,0,1,0,0,13.36031H207.08545v20.03877H33.40157v-20.0388H46.77022a6.68015,6.68015,0,0,0,0-13.36031H26.72142a6.68045,6.68045,0,0,0-6.68015,6.68015c0,40.0567.86592,38.49854-3.73336,68.46484-3.38767,22.06119-4.6093,26.60535.157,69.48441,1.75771,15.81357,3.57639,32.16574,3.57639,48.6106a6.68048,6.68048,0,0,0,6.68015,6.68018H100.2031a6.68053,6.68053,0,0,0,6.5883-5.57541l13.43211-80.06912,13.43211,80.06909a6.67987,6.67987,0,0,0,6.5883,5.57541h73.48164a6.68046,6.68046,0,0,0,6.68015-6.68015c0-16.444,1.81784-32.79535,3.57639-48.60895,4.74457-42.67529,3.59808-47.07083.157-69.48608h0ZM207.13555,414.41979H145.897c-14.38235-85.73221-12.31068-73.43738-12.52779-74.6774-2.6537-14.59445-23.63271-14.61032-26.28972,0-0.187,1.06381.08351-.49768-12.52779,74.6774H33.31308c-0.39246-14.84579-2.00321-29.3342-3.5672-43.40591-4.611-41.47537-3.477-44.83047-.23047-65.98151,1.4855-9.67538,3.13216-20.40369,3.69078-30.41135H207.24494c1.0638,19.07349,6.19,41.366,6.48476,53.59985,0.582,24.29736-5.76665,54.87991-6.59415,86.199h0v-0.00009Z" transform="translate(0 -0.00175)"/></svg>