<svg id="Layer_1" data-name="Layer 1" xmlns="http://www.w3.org/2000/svg" viewBox="0 0 19.15196 22.48073"><defs><style>.cls-1,.cls-3{fill:none;stroke:#2e3192;stroke-miterlimit:10;}.cls-1{stroke-width:0.95645px;}.cls-2{fill:#2e3192;}.cls-3{stroke-width:0.5px;}</style></defs><title>customer-services</title><path class="cls-1" d="M8.485,9.43248a6.17708,6.17708,0,0,1,12.35417,0" transform="translate(-5.42402 -2.77717)"/><path class="cls-2" d="M2.96463,6.50176H3.16775a0.98437,0.98437,0,0,1,.98437.98437V9.56426a0.98438,0.98438,0,0,1-.98437.98438H2.96463a0.98438,0.98438,0,0,1-.98437-0.98437V7.48613A0.98438,0.98438,0,0,1,2.96463,6.50176Z"/><rect class="cls-2" x="14.324" y="6.47051" width="2.17188" height="4.04688" rx="0.98438" ry="0.98438"/><path class="cls-3" d="M20.834,11.27111s0.68229,2.3776-3.651,2.71094" transform="translate(-5.42402 -2.77717)"/><rect class="cls-2" x="9.84223" y="10.54863" width="2.08333" height="1.28125" rx="0.64062" ry="0.64062"/><path class="cls-2" d="M17.95727,14.36193a1.06062,1.06062,0,0,1-.98364.66791H15.64221a1.06345,1.06345,0,1,1,0-2.12689h1.33142a1.045,1.045,0,0,1,.86981.48621A5.90791,5.90791,0,0,0,18.88122,13.16a1.41835,1.41835,0,0,1-.14752-0.60321V9.98541a1.45827,1.45827,0,0,1,.32965-0.91791c-0.623-2.35614-2.35858-4.0542-4.407-4.0542-2.03656,0-3.76324,1.67877-4.39545,4.01355a1.46187,1.46187,0,0,1,.389.98981v2.57141a1.464,1.464,0,0,1-.24713.81512c0.72479,2.08893,2.355,3.54761,4.2536,3.54761a4.5057,4.5057,0,0,0,3.8844-2.69745C18.33184,14.30029,18.13506,14.33575,17.95727,14.36193Z" transform="translate(-5.42402 -2.77717)"/><path class="cls-2" d="M19.748,16.9508a4.68186,4.68186,0,0,0-1.0882.14209L16.30792,20.232h-2.4375l-2.54987-3.147a4.645,4.645,0,0,0-1.05969-.13428,4.82792,4.82792,0,0,0-4.82794,4.82794S4.76623,25.607,14.9746,25.232c0,0,9.60138.03088,9.60138-3.45331A4.82792,4.82792,0,0,0,19.748,16.9508Z" transform="translate(-5.42402 -2.77717)"/><path class="cls-2" d="M15.39965,18.357H15.38323a0.84969,0.84969,0,0,0,.45117-0.74237H14.1148a0.84969,0.84969,0,0,0,.45117.74237H14.54369V18.9931l-0.29755.65509h1.44708L15.39965,18.993V18.357Z" transform="translate(-5.42402 -2.77717)"/></svg>