<svg height="443pt" viewBox="-61 0 443 443.288" width="443pt" xmlns="http://www.w3.org/2000/svg"><path d="m96.144531 136v88h32v-56c0-4.417969 3.582031-8 8-8h48c4.417969 0 8 3.582031 8 8v56h32v-88c0-4.417969 3.582031-8 8-8h8.480469l-80.480469-61.902344-80.480469 61.902344h8.480469c4.417969 0 8 3.582031 8 8zm0 0"/><path d="m144.144531 176h32v48h-32zm0 0"/><path d="m160.144531 443.289062c30.101563-37.585937 160-204.328124 160-283.289062 0-88.367188-71.636719-160-160-160-88.367187 0-160 71.632812-160 160 0 78.976562 129.894531 245.710938 160 283.289062zm-108.878906-313.601562 104-80c2.875-2.214844 6.882813-2.214844 9.757813 0l104 80c2.691406 2.097656 3.757812 5.667969 2.65625 8.894531-1.097657 3.226563-4.125 5.402344-7.535157 5.417969h-24v88c0 4.417969-3.582031 8-8 8h-144c-4.417969 0-8-3.582031-8-8v-88h-24c-3.421875 0-6.464843-2.179688-7.570312-5.421875-1.101563-3.242187-.019531-6.824219 2.691406-8.914063zm0 0"/></svg>