<svg id="Capa_1" data-name="Capa 1" xmlns="http://www.w3.org/2000/svg" viewBox="0 0 305.13171 398"><defs><style>.cls-1{fill:#393;}</style></defs><title>punjabi</title><path class="cls-1" d="M99.93321,82.33332H46.86655a6.63333,6.63333,0,0,0-6.63333,6.63333V115.5a33.16667,33.16667,0,0,0,66.33333,0V88.96665A6.63333,6.63333,0,0,0,99.93321,82.33332ZM93.29988,115.5a19.9,19.9,0,0,1-39.8,0V95.6h39.8v19.9Z" transform="translate(-0.43344 -15.99999)"/><path class="cls-1" d="M303.623,270.01021l-53.06667-53.06667a6.63334,6.63334,0,0,0-9.37954,0l-68.2769,68.2769V22.63332A6.63334,6.63334,0,0,0,166.26655,16H33.59988a6.63333,6.63333,0,0,0-6.63333,6.63333V47.99255L0.83121,119.86473a6.68644,6.68644,0,0,0-.2587,3.62844l59.7,285.23333A6.63332,6.63332,0,0,0,66.76655,414h99.5a6.63336,6.63336,0,0,0,4.68977-1.94356L303.623,279.38976A6.63331,6.63331,0,0,0,303.623,270.01021ZM159.63321,42.53332H133.09988V29.26665h26.53333V42.53332Zm0,45.83633A39.85307,39.85307,0,0,1,127.06355,55.8h32.56967V88.36965Zm-79.6-45.83633V29.26665h39.8V42.53332h-39.8Zm-39.8-13.26667H66.76655V42.53332H40.23321V29.26665Zm31.9196,371.46667L13.94532,122.62419,38.24322,55.8h75.41436a53.11973,53.11973,0,0,0,45.97563,45.97564V400.73332H72.15281Zm100.74706-96.75379,56.38333-56.38333,43.68712,43.68712L172.89988,391.35378V303.97953Zm109.45-22.07573-43.68712-43.68712,7.20379-7.20379L289.55367,274.7Z" transform="translate(-0.43344 -15.99999)"/><path class="cls-1" d="M133.09988,115.5h13.26667v13.26667H133.09988V115.5Z" transform="translate(-0.43344 -15.99999)"/><path class="cls-1" d="M133.09988,142.03332h13.26667V155.3H133.09988V142.03332Z" transform="translate(-0.43344 -15.99999)"/><path class="cls-1" d="M133.09988,168.56665h13.26667v13.26667H133.09988V168.56665Z" transform="translate(-0.43344 -15.99999)"/></svg>