<svg id="Capa_1" data-name="Capa 1" xmlns="http://www.w3.org/2000/svg" viewBox="0 0 156.20355 426"><defs><style>.cls-1{fill:#393;}</style></defs><title>punjabi</title><path class="cls-1" d="M110.79671,1.4895a7.1,7.1,0,0,0-7.1,7.1V34.04833L77.37612,60.36892a7.1,7.1,0,0,0-2.05012,5.664c0.07366,0.8094,1.84423,20.06549,5.41376,39.67657,3.96268,21.79078,8.32386,34.76249,14.04558,40.78861-5.70043,14.23549-19.48863,51.16172-19.48863,75.09138v198.8a7.1,7.1,0,0,0,7.1,7.1h56.8a7.1,7.1,0,0,0,7.08137-6.59412l7.11863-99.65294,7.11863,99.65294a7.1,7.1,0,0,0,7.08137,6.59412h56.8a7.1,7.1,0,0,0,7.1-7.1v-198.8c0-23.92966-13.78821-60.85588-19.48505-75.09138,5.7217-6.02612,10.08288-18.99783,14.04556-40.78861,3.566-19.61375,5.33654-38.86717,5.41376-39.67658a7.09993,7.09993,0,0,0-2.05012-5.664L203.09671,34.04833V8.5895a7.1,7.1,0,1,0-14.2,0V31.87129l-35.5,11.83392-35.5-11.83392V8.5895A7.1,7.1,0,0,0,110.79671,1.4895Zm106.5,220.1v191.7h-43.089L160.47807,221.08362a7.1,7.1,0,0,0-14.16273,0L132.58572,413.2895h-43.089v-191.7c0-21.4065,13.28321-56.8,18.58158-70.06635,7.06451,1.28244,19.40962,3.43285,30.06051,4.82533l-5.94625,35.6775h0.008a7.0929,7.0929,0,1,0,13.97452,2.43918q0.0093-.05334.01781-0.10682h0.008l6.1131-36.68215c0.37542,0.00887.73928,0.01509,1.08274,0.01509s0.71-.00622,1.08275-0.01509l6.1131,36.68215h0.008a7.0929,7.0929,0,1,0,14.01041-2.22381q-0.00861-.05434-0.01809-0.10854h0.008l-5.94626-35.6775c10.65-1.39249,22.996-3.5429,30.06051-4.82533C204.01349,164.7895,217.29671,200.183,217.29671,221.5895ZM155.64208,57.92562l38.43673-12.81283,22.9197,22.92058c-0.59729,5.73858-2.012,18.2186-4.22007,31.19917-4.94428,29.06119-9.63382,35.91-10.84346,37.25192-0.05769.00976-.11272,0.02662-0.17039,0.03816v-0.00622c-10.15035,1.9392-38.62312,6.9731-48.36788,6.9731s-38.21664-5.0339-48.36875-6.97308v0.00622c-0.05769-.01154-0.11271-0.0284-0.1704-0.03816-1.20877-1.341-5.89123-8.1792-10.8275-37.17383-2.21253-12.993-3.63254-25.52272-4.23249-31.27816L112.71726,45.1128l38.43407,12.81282A7.10528,7.10528,0,0,0,155.64208,57.92562Z" transform="translate(-75.29671 -1.4895)"/></svg>