<svg id="Layer_1" data-name="Layer 1" xmlns="http://www.w3.org/2000/svg" viewBox="0 0 7.51996 24.215"><defs><style>.cls-1{fill:#393;}</style></defs><title>Apparel</title><path class="cls-1" d="M11.04727,4.43914L9.91732,0.34108A0.33858,0.33858,0,0,0,9.59093.0925h0a0.33858,0.33858,0,0,0-.3264.24858L8.13459,4.43914a1.52473,1.52473,0,0,0-.05485.40528V22.60227a1.5441,1.5441,0,0,0,1.48289,1.561,1.5112,1.5112,0,0,0,1.53949-1.51093V4.84442A1.52471,1.52471,0,0,0,11.04727,4.43914ZM9.45417,1.83156H9.72768L9.97058,2.833H9.21128ZM9.08328,3.36074h1.01529l0.2938,1.21135H8.78948Zm1.3232,19.3756a0.81572,0.81572,0,0,1-.89568.81173,0.83925,0.83925,0,0,1-.73545-0.84679V5.3097h1.63112V22.73634Z" transform="translate(-8.07974 -0.0925)"/><path class="cls-1" d="M14.5259,15.984V6.16723a0.38517,0.38517,0,0,0,0-.76157V5.01286h0.3643a0.38679,0.38679,0,0,0,0-.77358H14.5259V3.92444h0.3643a0.38679,0.38679,0,0,0,0-.77358H14.5259V2.71909h0.3628a0.38679,0.38679,0,0,0,0-.77358H14.5259V1.64565a0.38517,0.38517,0,0,0,0-.76157V0.51977a0.42727,0.42727,0,0,0-.85454,0V0.88386a0.385,0.385,0,0,0,0,.762V1.94551H13.30855a0.38679,0.38679,0,0,0,0,.77358h0.36281V3.15086h-0.3643a0.38679,0.38679,0,0,0,0,.77358h0.3643V4.23927h-0.3643a0.38679,0.38679,0,0,0,0,.77358h0.3643V5.40543a0.385,0.385,0,0,0,0,.762V15.984h-1.0798v6.81947a1.50407,1.50407,0,0,0,1.50406,1.50406h0a1.50407,1.50407,0,0,0,1.50406-1.50406V15.984H14.5259ZM14.964,22.8637a0.80814,0.80814,0,0,1-.80814.80814H14.0571A0.80814,0.80814,0,0,1,13.249,22.8637V18.1548H14.964V22.8637Zm0-5.34455H13.249V16.64361H14.964v0.87553Z" transform="translate(-8.07974 -0.0925)"/></svg>