<svg id="Layer_1" data-name="Layer 1" xmlns="http://www.w3.org/2000/svg" viewBox="0 0 427.76137 776.66497"><defs><style>.cls-1{fill:#349946;}</style></defs><title>Untitled-1</title><circle class="cls-1" cx="250.73418" cy="68.82469" r="9.95965"/><circle class="cls-1" cx="104.37067" cy="437.76465" r="9.95965"/><circle class="cls-1" cx="99.17434" cy="463.42157" r="9.95965"/><circle class="cls-1" cx="251.16721" cy="105.63208" r="9.95965"/><path class="cls-1" d="M431.28777,346.70077c2.86014,12.06791,9.51478,19.76632,21.21859,21.65151l44.16887-2.16525q0.16651-.04876.33175-0.09832a30.99819,30.99819,0,0,0,21.73239-28.66152l0.84289-22.47785a418.44877,418.44877,0,0,0-3.41959-71.30417L493.64382,124.12442c-3.5858-18.603-15.99307-32.15472-39.40514-39.40561l-17.75426-6.49542L398.81066,65.23254q-0.14272-.05233-0.28544-0.10546a32.52305,32.52305,0,0,1-20.81263-29.85357c-0.06787-2.97971-.11989-6.29133-0.11989-9.44659,0-3.18269-2.281-6.31242-5.24645-9.03634-8.65845-7.95388-20.95535-10.4217-32.34739-7.51271-11.13007,2.84222-20.99341,9.5457-29.67564,19.84767-2.75167,3.26468-3.44822,7.49946-4.2271,11.71237h0a20.08761,20.08761,0,0,0-4.93216-12.9622c-8.51226-9.84-18.14506-16.26436-28.97851-19.03075-11.39173-2.90914-23.68863-.44133-32.34707,7.51271-2.96544,2.72376-5.24645,5.85349-5.24645,9.03634,0,3.15526-.052,6.46688-0.1202,9.44643A32.52259,32.52259,0,0,1,213.65942,64.694q-0.14272.05328-.28576,0.10546L175.6999,77.7903,157.946,84.28572c-23.41206,7.25105-35.81965,20.80264-39.40545,39.40561L97.18872,237.01963q-1.16607,6.18913-2.00376,12.43346a341.20419,341.20419,0,0,0-2.83042,58.45815l1.45191,38.7065a18.12561,18.12561,0,0,0,14.14116,16.99663l0.1986,0.045a115.36683,115.36683,0,0,0,20.00087,2.71427c9.80253,0.48051,22.66476,1.111,28.46261,1.39521a20.8712,20.8712,0,0,0,7.77816-1.00908c8.81785-3.014,14.05736-10.14785,16.5087-20.4919l17.321-71.88272,3.89725,0.866-1.62613,42.48092c-1.16569,30.45252-5.3451,60.63947-9.62915,90.81167a13.14375,13.14375,0,0,0,4.13394,11.65541q0.07909,0.07094.1587,0.14065c7.54027,6.60208,19.48684,2.37154,21.47542-7.45133,11.8158-58.36555,12.32191-135.02232,6.64693-221.67443a15.25781,15.25781,0,0,0-5.9616-11.22606q-7.91657-5.94226-15.77645-.36326a14.945,14.945,0,0,0-5.71809,8.56457c-5.5344,21.66659-30.34481,118.79639-37.60362,147.21379a9.91381,9.91381,0,0,1-10.07752,7.44893l-21.66295-1.03153a8.03934,8.03934,0,0,1-7.589-6.976,274.43638,274.43638,0,0,1,1.85146-83.51377l20.1478-113.97706a43.44092,43.44092,0,0,1,33.36-34.84595l0.15649-.03475,48.499-12.99084c17.73563-4.8667,30.0287-16.04335,33.77569-37.128l0.32558-20.78948a41.755,41.755,0,0,1,34.04624,20.30706,7.13316,7.13316,0,0,1,1.04417,3.6408h0l0.04385,5.28818,0.06851,8.26276,0.08945,10.78713,0.10664,12.86129,0.12011,14.48524,0.12984,15.659,0.13584,16.38251,0.13811,16.65583,0.13664,16.47893,0.13144,15.85183,0.12251,14.77451,0.10984,13.247,0.09344,11.26925,0.07331,8.84131c0.02042,2.4622.0235,4.92509,0.07163,7.38586,0.04269,2.1828.29943,4.51144,1.661,6.30628,1.53626,2.02518,4.15558,2.9304,6.602,3.17168a60.89486,60.89486,0,0,0,7.59357.23419c2.1998-.05848,4.38744-0.25413,6.15753-1.72185a7.86052,7.86052,0,0,0,2.45337-4.19647,29.38214,29.38214,0,0,0,.43086-6.9048l0.05957-7.1844,0.0817-9.85266,0.10014-12.07657,0.11489-13.85615,0.126-15.19139,0.13335-16.08229,0.13706-16.52885,0.13707-16.53108,0.13341-16.089,0.12606-15.20252,0.115-13.87174,0.1003-12.09661,0.0819-9.87715,0.05981-7.21335,0.034-4.10522,0.00656-.79118A41.85814,41.85814,0,0,1,349.037,32.70215a5.25544,5.25544,0,0,1,6.23725,5.10737l0.234,14.97446c3.74667,21.08679,16.03945,32.26423,33.77628,37.13116L437.78319,102.906l0.10968,0.02428a43.47151,43.47151,0,0,1,33.41079,34.87667l20.14383,113.9568a274.43481,274.43481,0,0,1,1.494,86.13862,4.94943,4.94943,0,0,1-4.67552,4.22949l-28.25376,1.34536a4.96154,4.96154,0,0,1-5.04318-3.728L416.47317,189.041a15.82989,15.82989,0,0,0-7.67326-10.13157,11.69775,11.69775,0,0,0-12.21542.36046,16.10985,16.10985,0,0,0-7.70513,12.84709c-2.2269,34.12147-3.493,66.68942-3.485,97.19672a638.88444,638.88444,0,0,0,26.69565,182.3476l63.69833,213.66755,17.142,58.77058a13.85073,13.85073,0,0,1-.545,9.6249c-2.25867,4.936-6.76284,7.40608-14.54112,6.28071a13.374,13.374,0,0,1-2.336-.5803L380.54195,727.533a351.6533,351.6533,0,0,1-44.38441-18.23091c-48.0803-23.85462-91.13018-52.57-126.2482-88.92742l-19.44074-18.29714a37.62347,37.62347,0,0,1-10.4382-37.56349L194.581,507.20236a18.62262,18.62262,0,0,0-1.84945-14.08891c-2.88158-4.84785-6.82021-6.103-11.60786-4.4724a16.25357,16.25357,0,0,0-10.384,11.7992c-3.691,15.79267-13.19592,56.46114-16.85186,72.10377a33.9333,33.9333,0,0,0,.04371,16.17468,42.4034,42.4034,0,0,0,6.28775,13.79354l13.96516,18.512q0.51124,0.53142,1.0227,1.06089A519.93359,519.93359,0,0,0,320.18476,727.41982l17.46776,8.57335c25.16094,12.52479,52.471,22.42688,81.33781,30.42961,6.49112,1.79953,17.05072,4.94418,23.44737,7.05508l25.70466,8.48257a44.27706,44.27706,0,0,0,15.88958,2.3297c10.274-.47594,18.04149-4.41672,23.90829-10.98514a36.86219,36.86219,0,0,0,7.6476-34.38653L488.77923,642.026,441.57959,486.13588l-15.10916-56.36352a329.66078,329.66078,0,0,1-7.62755-36.09164,682.68166,682.68166,0,0,1-7.16062-75.87205l-1.61244-42.12446,3.89725-.866Z" transform="translate(-92.11478 -7.66664)"/></svg>