<svg id="Capa_1" data-name="Capa 1" xmlns="http://www.w3.org/2000/svg" viewBox="0 0 234.84798 311.64919"><defs><style>.cls-1{fill:#393;}</style></defs><title>gym</title><path class="cls-1" d="M206.39867,90.1729H160.84954V80.72238c0-12.68921-10.42849-23.14072-23.10774-22.6396q-0.17083.00677-.34336,0.01509h-30.5323c-0.77183,0-1.558.017-2.32731,0.08028A35.93065,35.93065,0,0,0,95.04,60.20624C86.3909,63.38738,80.91441,71.9698,80.82361,81.18493c-0.0453,4.59672-.03593,8.988.16547,8.988H34.08687A31.35348,31.35348,0,0,0,2.81868,121.61082V245.23794H41.27013v93.039a31.35332,31.35332,0,0,0,31.268,31.43777H169.723a31.35332,31.35332,0,0,0,31.268-31.43777V245.66267h36.33868l0.33683-123.966A31.35393,31.35393,0,0,0,206.39867,90.1729ZM150.02432,69.99332a7.164,7.164,0,0,1-5.54672,6.962,98.92993,98.92993,0,0,1-46.42871.09272,7.57705,7.57705,0,0,1-5.80225-7.05474h0C92.67294,65.60691,150.02557,65.31069,150.02432,69.99332ZM90.54726,82.95075q27.66987,9.78073,59.47707,0v17.20584c-19.44182,5.48386-39.28193,5.2785-59.47707,0V82.95075Zm38.66023,27.40189v62.45081H113.06364V110.35263h16.14385ZM41.47876,238.12189H14.07688V224.73958H41.47876v13.38232Zm148.79861-64.99982V344.59622a16.51553,16.51553,0,0,1-16.51553,16.51553H68.19034a16.51553,16.51553,0,0,1-16.51553-16.51553V173.12207H41.47876v42.05871H14.07688V117.94662a16.51553,16.51553,0,0,1,16.51553-16.51553H82.90022c5.04435,4.74393,11.77876,8.13058,21.348,9.24017v72.00961H137.704V110.67126c9.56922-1.10959,16.30363-4.49624,21.348-9.24017h52.30781a16.51553,16.51553,0,0,1,16.51553,16.51553v97.23416H200.47343V173.12207H190.27738Zm37.91656,64.6812H200.79205V224.42095h27.40189v13.38232Z" transform="translate(-2.81868 -58.06548)"/><circle class="cls-1" cx="117.4671" cy="65.4305" r="5.09803"/><circle class="cls-1" cx="117.4671" cy="83.51256" r="5.09803"/><circle class="cls-1" cx="117.4671" cy="101.59462" r="5.09803"/></svg>