<svg id="Layer_1" data-name="Layer 1" xmlns="http://www.w3.org/2000/svg" viewBox="0 0 29.07563 19.95059"><defs><style>.cls-1{fill:#2e3192;}.cls-2{fill:none;stroke:#2e3192;stroke-miterlimit:10;stroke-width:0.43727px;}</style></defs><title>laptop</title><path class="cls-1" d="M27.46227,20.8044H2.53773L0.65491,22.99532a0.79143,0.79143,0,0,0,.60024,1.30726H28.74485a0.79143,0.79143,0,0,0,.60024-1.30726Z" transform="translate(-0.46218 -4.35199)"/><rect class="cls-1" x="11.4404" y="9.78601" width="0.87455" height="1.16606"/><rect class="cls-1" x="12.83967" y="8.61995" width="0.87455" height="2.33212"/><polygon class="cls-1" points="14.239 7.454 14.239 8.62 14.239 10.952 15.113 10.952 15.113 8.62 15.113 7.454 14.239 7.454"/><polygon class="cls-1" points="15.638 6.288 15.638 7.454 15.638 8.62 15.638 10.952 16.513 10.952 16.513 8.62 16.513 7.454 16.513 6.288 15.638 6.288"/><polyline class="cls-2" points="11.441 9.335 12.101 9.335 12.101 7.962 13.522 7.962 13.522 6.824 14.993 6.824 14.993 5.569 16.439 5.569 17.052 4.956"/><polyline class="cls-1" points="16.686 4.59 17.418 4.59 17.418 5.322"/><path class="cls-1" d="M26.57129,4.352H3.42871A1.21893,1.21893,0,0,0,2.20978,5.57086v13.468a1.219,1.219,0,0,0,1.21893,1.21893H26.57129a1.219,1.219,0,0,0,1.21893-1.21893V5.57086A1.21893,1.21893,0,0,0,26.57129,4.352Zm-10.7276.8598a0.121,0.121,0,1,1-.121.121A0.12094,0.12094,0,0,1,15.84369,5.21179ZM15,5.08862a0.24414,0.24414,0,1,1-.24414.24414A0.24415,0.24415,0,0,1,15,5.08862ZM15.0282,19.543a0.1569,0.1569,0,0,1-.03387.0354,0.14856,0.14856,0,0,1-.12756.005,0.312,0.312,0,0,0-.12854-0.02594,0.96687,0.96687,0,0,1-.13745.03851,0.17017,0.17017,0,0,1-.12256-0.08411A0.5896,0.5896,0,0,1,14.368,19.139a0.33042,0.33042,0,0,1,.02515-0.11548,0.25091,0.25091,0,0,1,.14148-0.12671,0.1948,0.1948,0,0,1,.14313.00989,0.27276,0.27276,0,0,0,.09753.02008c0.05487-.00134.101-0.03436,0.15485-0.039a0.19817,0.19817,0,0,1,.18762.09308c-0.00641.006-.01514,0.009-0.02271,0.01477a0.28854,0.28854,0,0,0-.04437.03784,0.17665,0.17665,0,0,0-.03015.04907,0.185,0.185,0,0,0-.01385.0686,0.227,0.227,0,0,0,.06268.15283,0.13667,0.13667,0,0,0,.07526.04565A1.05018,1.05018,0,0,1,15.0282,19.543Zm-0.27435-.67139a0.20845,0.20845,0,0,1,.1897-0.21967H14.9436A0.20862,0.20862,0,0,1,14.75385,18.87164Zm10.99573-.65448H4.25043V6.39252H25.74957V18.21716Z" transform="translate(-0.46218 -4.35199)"/></svg>