<svg id="Capa_1" data-name="Capa 1" xmlns="http://www.w3.org/2000/svg" viewBox="0 0 188.26337 426.91095"><defs><style>.cls-1{fill:#393;}</style></defs><title>punjabi</title><path class="cls-1" d="M226.00453,228.07413c23.45909-77.94253,27.76821-139.473,12.80632-182.88267-11.56818-33.56264-30.79263-43.24-31.60565-43.63619a5.1741,5.1741,0,0,0-5.873.94747c-4.77663,4.65665-25.39229,4.64527-43.58757,4.60907h-8.69166c-18.187.03413-38.8099,0.04758-43.58861-4.60907a5.17126,5.17126,0,0,0-5.873-.94747c-0.813.39616-20.03745,10.07252-31.60565,43.63619C53.02478,88.60113,57.33285,150.1316,80.793,228.07413c2.88894,9.59671,1.3219,17.10714-1.04987,28.47465-5.3269,25.535-13.3783,64.12358,19.01861,167.7677a5.173,5.173,0,0,0,4.937,3.6285h27.78993a5.17252,5.17252,0,0,0,5.17072-5.0828c0.01138-.61958,1.00539-171.09,1.85666-183.3026,1.34362-19.26584,9.41467-72.51941,14.88225-107.316,5.46448,34.79663,13.53552,88.0502,14.87914,107.316,0.85231,12.2126,1.84839,182.68407,1.85977,183.3026a5.17116,5.17116,0,0,0,5.17072,5.0828h27.78993a5.17174,5.17174,0,0,0,4.93593-3.6285c32.399-103.64822,24.3476-142.23678,19.01966-167.77079C224.68366,245.1792,223.11663,237.66982,226.00453,228.07413ZM199.29034,417.60146H180.39687c-0.25239-15.51837-.92161-166.18512-1.79771-178.76077-2.08627-29.90516-19.362-135.73277-20.0964-140.22289l-0.02172.00414a5.15753,5.15753,0,0,0-10.18526-.00414c-0.73335,4.49012-18.01013,110.31773-20.09538,140.22289-0.87714,12.57565-1.54532,163.24241-1.79563,178.76077H107.51131c-30.28063-98.33372-22.68747-134.7491-17.64086-158.94053,2.50106-11.985,4.47563-21.45246.82851-33.56884C62.57391,131.64774,67.91737,78.18729,77.35066,49.79227,85.069,26.56177,96.70234,16.05689,101.6993,12.42632c9.19021,5.07556,26.35425,5.05591,47.36813,5.029h8.6658c21.00147,0.03517,38.17378.04655,47.364-5.028,5.02075,3.64919,16.63962,14.15614,24.3507,37.36492,9.43432,28.394,14.77676,81.85548-13.34831,175.30087-3.64608,12.11536-1.66946,21.58071.83059,33.56575C221.9778,282.84924,229.57306,319.2636,199.29034,417.60146Z" transform="translate(-59.26681 -1.03403)"/></svg>