<svg id="Layer_1" data-name="Layer 1" xmlns="http://www.w3.org/2000/svg" viewBox="0 0 19.75317 23.86184"><defs><style>.cls-1{fill:#393;}.cls-2{fill:none;stroke:#393;stroke-miterlimit:10;stroke-width:0.35881px;}</style></defs><title>Apparel</title><path class="cls-1" d="M11.01455,2.14229a2.35038,2.35038,0,0,1-.68862.10464,1.28454,1.28454,0,0,1-1.01016-.5203,7.05431,7.05431,0,0,1-.484-0.75047,1.60243,1.60243,0,0,0-.52012.21127,0.80767,0.80767,0,0,0-.35535.58177A21.73979,21.73979,0,0,0,7.875,5.22206a2.68279,2.68279,0,0,1-.26911,1.18108L7.5311,6.98621a1.83543,1.83543,0,0,1,1.15119.284l0.314-.43355a4.74332,4.74332,0,0,0,.19434-1.39038L8.93644,2.47119,9.0427,2.882a3.09542,3.09542,0,0,1,.09485.927l-0.00534.10843a0.86894,0.86894,0,0,0,.194.59123L9.42906,4.6351a0.83432,0.83432,0,0,0,.59169.30537,2.94612,2.94612,0,0,0,1.20309-.16692ZM8.57,6.8568L7.851,6.65223l0.10637-.37385,0.719,0.20457Zm1.5877-2.30236A0.62506,0.62506,0,0,1,9.638,4.26212a0.8936,0.8936,0,0,1-.1374-0.4855A3.10393,3.10393,0,0,0,9.2504,2.45625L8.87663,2.03763,8.68229,2.232,8.74208,3.87653,8.772,4.953a1.88907,1.88907,0,0,1-.13455,1.24087L8.06931,6.05927A3.55244,3.55244,0,0,0,8.174,4.938L8.23378,2.02268A1.26861,1.26861,0,0,1,8.574,1.442a0.087,0.087,0,0,1,.11051.02148L9.17668,2.026a1.47611,1.47611,0,0,0,1.01267.50081l0.51123,0.03408,0.10464,2.00336Z" transform="translate(-1.96314 -0.26908)"/><path class="cls-2" d="M18.17909,9.924A0.53238,0.53238,0,0,1,18.3,10.0958l2.31511,4.62585a4.52267,4.52267,0,0,1,.314.732,4.52238,4.52238,0,0,1,.133.75617l0.46322,3.92863" transform="translate(-1.96314 -0.26908)"/><path class="cls-2" d="M2.3007,19.23365c-0.2582.06494-.15722,0.45592-0.00164,0.672L2.85389,20.6761a0.81663,0.81663,0,0,1,.20883.498,1.99694,1.99694,0,0,0-.05878.37866,0.68316,0.68316,0,0,0,.69817.37265,6.19164,6.19164,0,0,1,1.25009.37247,17.88222,17.88222,0,0,0,2.85266.65681l1.1033,0.19125c0.55026,0.09539,1.10157.1909,1.65848,0.23261a2.43647,2.43647,0,0,0,.97655-0.078,0.27508,0.27508,0,0,1,.19176-0.02177,0.38614,0.38614,0,0,1,.13551.27036,0.70715,0.70715,0,0,0,.63193.357,5.89863,5.89863,0,0,0,1.68293-.03209,0.27155,0.27155,0,0,0,.23909-0.143,0.48943,0.48943,0,0,0-.01342-0.18651c-0.03157-.32044.40677-0.46367,0.72419-0.40961a1.20408,1.20408,0,0,0,.93428-0.01714,4.34527,4.34527,0,0,1,.44363-0.509,0.8158,0.8158,0,0,1,.3554-0.06436,8.6098,8.6098,0,0,0,3.11244-.95863,3.995,3.995,0,0,0,1.06422-.623,1.3508,1.3508,0,0,0,.48694-1.08992" transform="translate(-1.96314 -0.26908)"/><path class="cls-2" d="M14.67537,6.41626A2.21247,2.21247,0,0,1,15.667,5.90288,25.95175,25.95175,0,0,1,14.0234.67944,4.32179,4.32179,0,0,0,12.761.45952a2.02973,2.02973,0,0,0-1.23184,1.04325L10.8567,2.5043c-0.2144.31934-.42913,0.63921-0.61392,0.97655C9.83249,4.22983,9.572,5.06065,9.0905,5.766" transform="translate(-1.96314 -0.26908)"/><path class="cls-2" d="M12.70992,0.5259C12.52755,1.9077,11.5988,3.06951,11.16557,4.39425a5.26057,5.26057,0,0,1-.24973.7036,3.57255,3.57255,0,0,1-.34468.53005L8.98389,7.7791A8.52316,8.52316,0,0,0,8.18022,9.011a1.0325,1.0325,0,0,1-.52815.62071,0.90391,0.90391,0,0,1,.14725-0.87936l0.41035-.72c0.45375-.79609.90829-1.59346,1.4321-2.34531a5.63678,5.63678,0,0,0,.48559-0.76649,3.55744,3.55744,0,0,1,.8419-1.57129" transform="translate(-1.96314 -0.26908)"/><path class="cls-2" d="M13.335,0.58846a4.253,4.253,0,0,1-.41658,2.50307,6.5973,6.5973,0,0,1-.62553.7421c-0.23227.26391-.44009,0.54817-0.64756,0.832l-0.47655.65192C10.873,5.72218,10.577,6.12717,10.30834,6.5503c-0.13184.20764-.257,0.41953-0.39339,0.62422A13.64382,13.64382,0,0,1,8.74549,8.62415l-0.92913,1.05" transform="translate(-1.96314 -0.26908)"/><path class="cls-2" d="M14.05017,1.16108A2.28058,2.28058,0,0,0,13.601,2.3049a5.51664,5.51664,0,0,1-.0682.75732,2.4638,2.4638,0,0,1-.39382.76986q-1.75472,2.608-3.67282,5.101a6.85741,6.85741,0,0,1-.80525.92269c-0.169.1531-.353,0.29008-0.51111,0.45443a4.14416,4.14416,0,0,0-.37971.48212l-0.434.61083c-0.05238.07373-.10365,0.14937-0.15591,0.22445a3.45211,3.45211,0,0,1-.2598.33784,10.37118,10.37118,0,0,0-.69414.83631c-0.21745.3-.41854,0.61159-0.63957,0.909a4.29391,4.29391,0,0,1-.75265.81239,1.27834,1.27834,0,0,0-.33294.32153,1.82589,1.82589,0,0,0-.11715.30442,2.82256,2.82256,0,0,1-.37062.6218A18.25632,18.25632,0,0,0,2.21487,19.38" transform="translate(-1.96314 -0.26908)"/><path class="cls-2" d="M13.42957,3.48783l0.01841,1.107a1.51478,1.51478,0,0,0,.19.86535,3.61779,3.61779,0,0,0,.75374.57632,1.29374,1.29374,0,0,1,.30919.37082" transform="translate(-1.96314 -0.26908)"/><path class="cls-2" d="M14.10723,5.8756a0.50338,0.50338,0,0,1,.36094-0.27509,1.42616,1.42616,0,0,0,.44241-0.15691c0.06435-.04545.117-0.10618,0.18244-0.15A0.22906,0.22906,0,0,1,15.31589,5.26" transform="translate(-1.96314 -0.26908)"/><path class="cls-2" d="M8.0234,5.02433a1.30372,1.30372,0,0,1,.9025.231" transform="translate(-1.96314 -0.26908)"/><path class="cls-2" d="M13.55245,4.71065a1.30831,1.30831,0,0,0,.69081-0.25974,3.27076,3.27076,0,0,1,.2981-0.23013,0.414,0.414,0,0,1,.36-0.0498" transform="translate(-1.96314 -0.26908)"/><path class="cls-2" d="M11.07434,6.68438a5.20706,5.20706,0,0,0,2.19988-.27144,0.94118,0.94118,0,0,0,.21444-0.12112,3.23846,3.23846,0,0,0,.284-0.318,0.4008,0.4008,0,0,1,.37918-0.14459" transform="translate(-1.96314 -0.26908)"/><path class="cls-2" d="M3.12395,21.31392a18.00882,18.00882,0,0,1,.78634-3.16525c0.13467-.35292.29144-0.697,0.45438-1.03779A10.61191,10.61191,0,0,1,5.456,15.23226c0.23618-.30983.50036-0.5978,0.73028-0.9123a5.29616,5.29616,0,0,0,.99507-2.67579" transform="translate(-1.96314 -0.26908)"/><path class="cls-2" d="M8.35147,22.98265a102.96282,102.96282,0,0,0,2.2117-15.42852" transform="translate(-1.96314 -0.26908)"/><path class="cls-2" d="M11.63327,23.34147a30.66454,30.66454,0,0,0,.808-7.67458L12.6186,7.08122" transform="translate(-1.96314 -0.26908)"/><path class="cls-2" d="M12.862,6.59678l0.56079,0.39155a2.74,2.74,0,0,0,.6527.37171c0.22006,0.07632.45793,0.09591,0.67286,0.18565a2.20494,2.20494,0,0,1,.37984.222c0.37043,0.25108.71258,0.51153,1.07278,0.772a6.52244,6.52244,0,0,1,1.97643,1.40166" transform="translate(-1.96314 -0.26908)"/><path class="cls-2" d="M12.30623,6.77123a3.17425,3.17425,0,0,0,1.212.82606,3.519,3.519,0,0,1,1.262.56885,6.46881,6.46881,0,0,1,.42388.53545c0.75773,0.89884,2.20994.83177,3.13619,1.52955" transform="translate(-1.96314 -0.26908)"/><path class="cls-2" d="M18.259,10.03441q0.65986,2.22514,1.46837,4.40255c0.13615,0.36663.27541,0.73209,0.41467,1.09754l1.2084,3.17118" transform="translate(-1.96314 -0.26908)"/><path class="cls-2" d="M13.81425,7.65448l1.0703,4.43176,0.18338,0.75934,0.90517,3.748" transform="translate(-1.96314 -0.26908)"/><path class="cls-2" d="M13.53476,6.20423a1.18338,1.18338,0,0,0,.49856.35886,3.19548,3.19548,0,0,1,.56073.43592l1.28664,1.1634" transform="translate(-1.96314 -0.26908)"/><path class="cls-2" d="M14.71224,6.2744l1.00449,1.387c0.11344,0.15663.22687,0.31327,0.34175,0.46885q0.133,0.18016.26861,0.35841c0.00674,0.06369.06848,0.0526,0.12755,0.07734a0.664,0.664,0,0,1,.225.1878l0.2006,0.22581" transform="translate(-1.96314 -0.26908)"/><path class="cls-2" d="M14.40709,10.3662a14.29959,14.29959,0,0,0,.48742,3.6582c0.07445,0.43479.12581,0.87315,0.17713,1.31127L15.55,19.41942a9.25553,9.25553,0,0,1,.08969,1.961,2.38133,2.38133,0,0,0,.159,1.72323" transform="translate(-1.96314 -0.26908)"/><path class="cls-2" d="M13.47323,7.64307q0.11722,4.548.48093,9.08512c0.02554,0.31858.11936,0.59218,0.14395,0.91084a30.38146,30.38146,0,0,1,.05374,3.82088,4.61748,4.61748,0,0,0,.19907,2.10544" transform="translate(-1.96314 -0.26908)"/><path class="cls-2" d="M2.53066,18.81877a1.36273,1.36273,0,0,1,.82752.95235,2.33776,2.33776,0,0,0,.63051,1.13308,1.962,1.962,0,0,0,.70522.28662,35.16723,35.16723,0,0,0,6.57527,1.27664A2.67017,2.67017,0,0,1,11.922,22.56c0.13491,0.04359.26117,0.10993,0.39206,0.16442a2.40509,2.40509,0,0,0,2.04859-.10954,2.21232,2.21232,0,0,1,.35506-0.18c0.13992-.04649.29065-0.05108,0.43211-0.09266a0.86976,0.86976,0,0,0,.56993-0.55,0.48381,0.48381,0,0,1,.10671-0.22294,0.38758,0.38758,0,0,1,.22868-0.06985A7.79534,7.79534,0,0,0,19.9327,20.0335a1.85971,1.85971,0,0,1,1.44379-.56725" transform="translate(-1.96314 -0.26908)"/><path class="cls-2" d="M3.92418,15.98119A4.40058,4.40058,0,0,0,6.43392,17.777c0.41685,0.08263.84621,0.0719,1.26826,0.12153a18.87906,18.87906,0,0,1,2.14342.52177,8.45917,8.45917,0,0,0,3.02495.16253,16.87952,16.87952,0,0,0,1.88407-.38758,1.23477,1.23477,0,0,0,.38413-0.14117,1.94632,1.94632,0,0,0,.26794-0.24232c0.71275-.67933,1.86154-0.61947,2.69943-1.13661,0.36969-.22817.6648-0.56093,1.02847-0.79857a2.442,2.442,0,0,1,1.8178-.34108" transform="translate(-1.96314 -0.26908)"/><path class="cls-2" d="M4.23338,15.52149a3.47765,3.47765,0,0,0,1.5742,1.34732,6.91,6.91,0,0,0,1.16011.3413,21.77831,21.77831,0,0,0,6.023.813,2.37016,2.37016,0,0,0,.95875-0.2018c0.30265-.15426.53959-0.42135,0.85136-0.55622,0.24848-.10749.52781-0.12348,0.78056-0.22049,0.3102-.11906.56519-0.35406,0.8752-0.47362,0.27266-.10515.57232-0.11515,0.854-0.193a3.65188,3.65188,0,0,0,.75131-0.33587,3.00008,3.00008,0,0,0,.58641-0.37887c0.09277-.08293.175-0.17723,0.26955-0.25814a2.58872,2.58872,0,0,1,1.71864-.41179" transform="translate(-1.96314 -0.26908)"/><path class="cls-2" d="M4.38014,15.0863A2.84016,2.84016,0,0,0,6.2,16.60007a17.999,17.999,0,0,0,2.39872.45978,29.5481,29.5481,0,0,0,2.94969.58792,6.15931,6.15931,0,0,0,2.88349-.46429,14.2019,14.2019,0,0,1,1.782-.76883,7.13319,7.13319,0,0,0,1.402-.36916c0.56508-.28545.93462-0.8627,1.48791-1.17038a1.86115,1.86115,0,0,1,1.41979-.15473" transform="translate(-1.96314 -0.26908)"/><path class="cls-2" d="M21.46548,19.923l-0.3929.15791-0.44353.17826-0.17122.06882a1.7247,1.7247,0,0,0-.73246.33042,3.8368,3.8368,0,0,1-2.49381,1.23813,5.406,5.406,0,0,0-.833.08369,0.93885,0.93885,0,0,0-.65373.47754,0.61859,0.61859,0,0,1-.10237.194,1.429,1.429,0,0,1-.71584.00282,0.725,0.725,0,0,0-.32108.23612,2.14051,2.14051,0,0,1-2.46682.36378c-0.15538-.08411-0.30017-0.18807-0.46149-0.26013a4.01771,4.01771,0,0,0-1.57586-.12977,7.53479,7.53479,0,0,1-1.00492-.11022l-1.248-.19375C7.30341,22.476,6.7579,22.39127,6.21924,22.27245a13.11875,13.11875,0,0,1-1.63463-.47368,2.52855,2.52855,0,0,1-.72026-0.36057,2.79851,2.79851,0,0,1-.57094-0.69644L2.2295,19.11327" transform="translate(-1.96314 -0.26908)"/><path class="cls-2" d="M10.77565,7.31832a4.7087,4.7087,0,0,1,.86549.05616,4.50825,4.50825,0,0,0,1.07963-.10731" transform="translate(-1.96314 -0.26908)"/><path class="cls-2" d="M11.33386,7.315q0.02048,1.711-.0649,3.42113a2.04692,2.04692,0,0,1-.05539.44346,3.75065,3.75065,0,0,1-.18593.45139,4.70851,4.70851,0,0,0-.264,1.68573" transform="translate(-1.96314 -0.26908)"/></svg>