<svg id="Layer_1" data-name="Layer 1" xmlns="http://www.w3.org/2000/svg" viewBox="0 0 3.0224 24.07106"><defs><style>.cls-1{fill:#393;}</style></defs><title>Apparel</title><path class="cls-1" d="M12.55844,4.43912L11.4285,0.3411a0.33856,0.33856,0,0,0-.65277,0l-1.12994,4.098a1.52589,1.52589,0,0,0-.05487.40527V22.60227a1.54409,1.54409,0,0,0,1.48291,1.561,1.51119,1.51119,0,0,0,1.53949-1.51093V4.8444A1.5234,1.5234,0,0,0,12.55844,4.43912ZM10.96536,1.83158h0.2735L11.48178,2.833H10.7225ZM10.59445,3.36075h1.01532l0.29382,1.21136H10.30069Zm1.32324,1.949v5.73291h-1.6311V5.30973h1.6311Zm0,6.26062V19.78h-1.6311V11.57035h1.6311ZM11.022,23.54807a0.83926,0.83926,0,0,1-.73541-0.8468V20.30771h1.6311v2.42865A0.81573,0.81573,0,0,1,11.022,23.54807Z" transform="translate(-9.59091 -0.0925)"/></svg>