<svg id="Layer_1" data-name="Layer 1" xmlns="http://www.w3.org/2000/svg" viewBox="0 0 13.01333 24.4"><defs><style>.cls-1{fill:#393;}</style></defs><title>Apparel</title><path class="cls-1" d="M8.17972,24.4a2.85037,2.85037,0,0,0,2.84667-2.84667V1.22A1.22006,1.22006,0,0,0,9.80639,0H6.55305a1.22006,1.22006,0,0,0-1.22,1.22V21.55333A2.85037,2.85037,0,0,0,8.17972,24.4ZM6.14639,1.22A0.40669,0.40669,0,0,1,6.55305.81333H9.80639a0.40669,0.40669,0,0,1,.40667.40667V9.76H6.14639V1.22Zm0,9.35333h4.06667v10.98a2.03333,2.03333,0,0,1-4.06667,0v-10.98Z" transform="translate(-5.33305)"/><path class="cls-1" d="M13.05972,13.82667a0.40669,0.40669,0,0,0-.40667.40667V23.18a1.22006,1.22006,0,0,0,1.22,1.22h3.25333a1.22006,1.22006,0,0,0,1.22-1.22V14.23333a0.40669,0.40669,0,0,0-.40667-0.40667H15.90639V4.88h0.40667a0.40669,0.40669,0,0,0,.40667-0.40667V1.22a1.22,1.22,0,0,0-2.44,0V4.47333a0.40669,0.40669,0,0,0,.40667.40667h0.40667v8.94667H13.05972ZM15.09305,1.22a0.40667,0.40667,0,0,1,.81333,0V4.06667H15.09305V1.22Zm2.44,13.42v8.54a0.40669,0.40669,0,0,1-.40667.40667H13.87305A0.40669,0.40669,0,0,1,13.46639,23.18V14.64h4.06667Z" transform="translate(-5.33305)"/></svg>