<?xml version="1.0" encoding="utf-8"?>
<!-- Generator: Adobe Illustrator 19.2.0, SVG Export Plug-In . SVG Version: 6.00 Build 0)  -->
<svg version="1.1" id="Layer_1" xmlns="http://www.w3.org/2000/svg" xmlns:xlink="http://www.w3.org/1999/xlink" x="0px" y="0px"
	 viewBox="0 0 30 32" style="enable-background:new 0 0 30 32;" xml:space="preserve">
<style type="text/css">
	.st0{fill:none;stroke:#2E3192;stroke-miterlimit:10;}
</style>
<path id="XMLID_181_" class="st0" d="M12.5,13.4v-6c0-0.3,0.1-0.6,0.3-0.8c0.5-0.6,1.4-1.8,2.3-2.1c0.3-0.1,0.6-0.1,0.9,0
	c0.8,0.6,1.5,1.2,1.5,2v7h-5V13.4z"/>
<path class="st0" d="M19.5,15.5v-1.7c0-0.2-0.1-0.3-0.3-0.3H12h-1.2c-0.2,0-0.3,0.1-0.3,0.3v1.7h5.9h-5.9h-0.1H9.5V27
	c0,0.4,0.6,0.5,1.3,0.5H19c0.8,0,1.5-0.1,1.5-0.6V16v-0.5H19.5z"/>
</svg>
