<?xml version="1.0" encoding="utf-8"?>
<!-- Generator: Adobe Illustrator 19.0.0, SVG Export Plug-In . SVG Version: 6.00 Build 0)  -->
<svg version="1.1" id="Layer_1" xmlns="http://www.w3.org/2000/svg" xmlns:xlink="http://www.w3.org/1999/xlink" x="0px" y="0px"
	 viewBox="-61 202.2 489 388.8" style="enable-background:new -61 202.2 489 388.8;" xml:space="preserve">
<style type="text/css">
	.st0{display:none;fill:#5D5D5D;}
	.st1{fill:#FFFFFF;}
	.st2{fill:#2C338E;}
	.st3{fill:#6CC071;}
	.st4{opacity:0.95;fill:#94CE97;enable-background:new    ;}
	.st5{opacity:0.25;fill:none;stroke:#ED644B;stroke-width:0.6718;stroke-miterlimit:10;enable-background:new    ;}
	.st6{opacity:0.25;}
	.st7{fill:#ED644B;}
	.st8{opacity:0.85;}
	.st9{fill:#464FA2;}
	.st10{fill:#3B439B;}
	.st11{fill:#F4847F;}
	.st12{opacity:0.5;fill:#ED644B;enable-background:new    ;}
	.st13{fill:none;stroke:#339933;stroke-miterlimit:10;}
	.st14{display:none;fill:#339933;}
	.st15{fill:#33CC33;stroke:#339933;stroke-width:0.6137;stroke-miterlimit:10;}
	.st16{fill:#FFCCCC;stroke:#339933;stroke-width:1.4276;stroke-miterlimit:10;}
	.st17{fill:#FFCCCC;stroke:#339933;stroke-width:1.254;stroke-miterlimit:10;}
	.st18{fill:#FFCCCC;stroke:#339933;stroke-width:1.4222;stroke-miterlimit:10;}
</style>
<rect x="-175.3" y="237.1" class="st0" width="740" height="426"/>
<rect x="7.9" y="437.9" class="st1" width="134" height="85.8"/>
<rect x="347.2" y="483.5" class="st1" width="37.2" height="54.7"/>
<rect x="-35.1" y="545.6" class="st1" width="437.1" height="13.7"/>
<g>
	<path class="st2" d="M1.1,505.3c0.1,0,0.2,0.1,0.3,0.2s0.1,0.3,0.1,0.5l-0.2,2.6c0,0.1,0,0.2-0.1,0.3C1.1,509,1.1,509,1,509
		c-1,0.4-2.1,0.6-3.1,0.8C-3,510.1-4,510-5,509.7c-0.4-0.1-0.7-0.5-0.8-0.9c0-0.3,0.2-0.6,0.3-0.8c0.1-0.2,0.2-0.5,0.2-0.8
		c0-0.5,0-0.9,0-1.4c0-0.6-0.1-1.2-0.3-1.7C-3.4,504-1.1,504.4,1.1,505.3z"/>
	<path class="st3" d="M-15,471.3c-1.6,0-3,0.6-4.6,0.5c-0.6,0-1.1,0-1.7,0c-2.4,0.4-4.6,1.4-6.3,3.1c-1.9,1.5-3.3,3.4-4.3,5.5
		c-0.6,1.6-0.9,3.2-1.1,4.9c-0.1,0.7-0.1,1.5-0.1,2.2c0.3,4.3,1.4,8.6,3.4,12.5l3.4,8c0.4,1.2,1.6,2,2.9,1.8
		c5.7,0.3,11.3,0.1,16.9-0.7c0.2,0,0.4-0.1,0.6-0.2c0.2-0.1,0.3-0.3,0.3-0.5c0.7-2.1,0.7-4.3,1.2-6.4s1.6-3.9,2.3-6
		c2.1-7.1,0.5-14.8-4.3-20.4C-8.5,472.9-11.6,471.4-15,471.3z"/>
	<path class="st4" d="M-23.7,475.5c-1.2,0.8-2.2,1.6-3.2,2.7c-0.3,0.5-0.5,1-0.7,1.5c-0.7,2.9-0.5,5.9,0.5,8.7
		c1.1,2.8,2.4,5.4,4.1,7.9c1,1.7,2.1,3.4,3.4,4.9c0.8,0.9,1.6,1.7,2.4,2.5c1.8,2.1,3.1,4.7,3.7,7.5c2.1,0.1,4.1,0,6.2,0
		c0.6,0.1,1.1-0.3,1.2-0.8c0-0.1,0-0.1,0-0.2c0.5-2.4,1-4.9,1.3-7.3c0.1-0.9,0.3-1.9,0.6-2.8c0.5-1,1-2,1.6-2.9
		c1.5-3.5,2.1-7.3,1.7-11.1c0.1-2-0.5-4-1.8-5.5l-2.5-3.6c-0.7-1.1-1.6-2.2-2.6-3.1c-2.3-1.8-5.1-2.7-8-2.6
		c-1.6-0.1-3.3,0.2-4.8,0.9C-21.8,473.2-22.8,474.3-23.7,475.5z"/>
	<path class="st5" d="M-25.9,480.8c-0.3,1.1-0.4,2.3-0.4,3.5c0,6.3,2.5,12.3,4.8,18.2c0.5,1.2,0.9,2.4,1.2,3.7
		c0.3,1.7,0.4,3.4,0.4,5.1c2.3-0.2,4.6-0.3,6.9-0.1l0.4-4.8c0.8-6.8,1-13.7,0.6-20.5c-0.2-2.7-0.9-5.4-2-7.9c-1-2.1-2.7-3.7-4.8-4.8
		c-0.4-0.3-1-0.4-1.5-0.2c-0.5,0.4-0.9,0.8-1.3,1.3c-0.9,0.9-1.7,1.8-2.4,2.9C-24.9,478.2-25.5,479.4-25.9,480.8z"/>
	<g class="st6">
		<path class="st7" d="M-13.6,471.6c0.5,0.4,0.9,0.8,1.4,1.2c0.8,0.8,1.9,2,3.3,3.4c0.7,0.8,1.4,1.6,2,2.5c0.7,1,1.2,2.1,1.6,3.2
			c0.4,1.2,0.6,2.5,0.7,3.8c0,1.3-0.1,2.6-0.3,3.9s-0.4,2.6-0.7,3.8l-0.8,3.7c-0.3,1.2-0.6,2.3-0.9,3.4c-0.3,1.1-0.6,2.1-0.8,3.1
			c-0.2,0.9-0.3,1.7-0.3,2.6c0,0.7,0,1.4,0.1,2l0.2,1.8c0,0-0.2-0.6-0.4-1.8c-0.1-0.7-0.2-1.4-0.2-2.1c0-0.9,0-1.8,0.2-2.7
			c0.2-1,0.4-2,0.7-3.1l0.8-3.4l0.8-3.7c0.3-1.3,0.5-2.5,0.7-3.8s0.4-2.5,0.3-3.8c0-1.2-0.2-2.5-0.6-3.6c-0.3-1.1-0.8-2.2-1.4-3.1
			c-0.6-0.9-1.2-1.7-1.9-2.5c-1.3-1.5-2.3-2.8-3.1-3.6C-13.1,472-13.6,471.6-13.6,471.6z"/>
	</g>
	<g class="st8">
		<path class="st7" d="M-23.7,479.4L-23.7,479.4c0.2,0.1,0.3,0.2,0.4,0.2c0.2,0,0.5,0.1,0.9,0.2c0.3,0.1,0.6,0.2,0.9,0.4
			c0.1-0.1,0.3,0,0.3,0.1c0.1,0.1,0,0.3-0.1,0.3c-0.1,0.1-0.3,0-0.3-0.1c-0.3,0-0.6,0-0.9-0.1c-0.2,0-0.3-0.1-0.5-0.2
			s-0.3-0.2-0.4-0.3c-0.1-0.1-0.1-0.2-0.2-0.4C-23.8,479.5-23.8,479.4-23.7,479.4z"/>
		<path class="st7" d="M-21.5,483.8c0.2-0.1,0.3-0.1,0.5-0.1c0.8,0,1.5,0.2,2.2,0.6c0.2,0.1,0.3,0.2,0.4,0.4c-0.2,0-0.4,0-0.5,0
			c-0.4,0-0.7-0.1-1.1-0.2c-0.4-0.1-0.7-0.2-1-0.4C-21.2,484-21.4,483.9-21.5,483.8z"/>
		<path class="st7" d="M-18.9,490.4c0,0.2-0.1,0.3-0.2,0.5c-0.3,0.6-0.8,1.2-1.3,1.6c-0.1,0.1-0.3,0.2-0.5,0.2
			c0-0.2,0.1-0.3,0.2-0.5c0.3-0.6,0.8-1.2,1.3-1.6C-19.2,490.5-19,490.4-18.9,490.4z"/>
		<path class="st7" d="M-16.4,498c0,0.1,0,0.3,0,0.4c-0.1,0.5-0.4,0.9-0.9,1.1c0,0.1-0.1,0.2-0.3,0.2c-0.1,0-0.2-0.1-0.2-0.3
			c0-0.1,0.1-0.1,0.1-0.2c0.1-0.5,0.4-0.9,0.9-1.1C-16.6,498.1-16.5,498.1-16.4,498z"/>
		<path class="st7" d="M-10.8,500.7c0.1,0,0.3-0.1,0.4-0.1c0.6,0,1.2,0.1,1.7,0.4c0.1-0.1,0.3,0,0.3,0.1c0.1,0.1,0,0.3-0.1,0.3
			s-0.2,0-0.3-0.1c-0.6,0-1.2-0.1-1.7-0.4C-10.6,501-10.7,500.9-10.8,500.7z"/>
		<path class="st7" d="M-10.7,491c0.1-0.1,0.2-0.2,0.3-0.2c0.5-0.2,1.1-0.2,1.6,0.1c0.1,0.1,0.2,0.1,0.3,0.2
			c-0.1,0.1-0.2,0.1-0.4,0.2c-0.5,0.1-1,0.1-1.5-0.1C-10.5,491.2-10.6,491.1-10.7,491z"/>
		<path class="st7" d="M-10.9,482.6l-0.1-0.1c0-0.1,0-0.3,0.1-0.4s0.2-0.3,0.4-0.3c0.1-0.1,0.3-0.2,0.5-0.3c0.3-0.1,0.6-0.2,0.9-0.3
			c0.1-0.1,0.2-0.2,0.3-0.1s0.2,0.2,0.1,0.3c-0.1,0.1-0.2,0.2-0.3,0.1c-0.2,0.2-0.5,0.4-0.8,0.5c-0.2,0.1-0.3,0.1-0.5,0.2
			s-0.3,0.1-0.4,0.1c-0.1,0-0.2,0.1-0.2,0.1C-10.9,482.5-10.9,482.5-10.9,482.6z"/>
		<path class="st7" d="M-12.8,478.9c0-0.1,0.1-0.3,0.2-0.4c0.4-0.5,1-0.7,1.6-0.7c0.1,0,0.3,0,0.4,0.1c-0.1,0.1-0.2,0.2-0.3,0.3
			c-0.2,0.2-0.5,0.3-0.7,0.4c-0.3,0.1-0.5,0.2-0.8,0.3C-12.5,478.8-12.7,478.8-12.8,478.9z"/>
		<path class="st7" d="M-4.8,479.1c0-0.1,0.1-0.2,0.1-0.4c0.2-0.4,0.6-0.8,1.1-0.9c0-0.1,0.2-0.2,0.3-0.1c0.1,0,0.2,0.2,0.1,0.3
			c0,0.1-0.1,0.1-0.2,0.1c-0.2,0.4-0.6,0.8-1.1,0.9C-4.6,479.1-4.7,479.1-4.8,479.1z"/>
		<path class="st7" d="M-2.4,484.1c0-0.2,0.1-0.4,0.1-0.6c0.3-0.8,0.7-1.4,1.3-2c0.1-0.1,0.3-0.2,0.5-0.3c0,0.2-0.1,0.4-0.1,0.6
			c-0.3,0.8-0.7,1.4-1.3,2C-2,483.9-2.2,484-2.4,484.1z"/>
		<path class="st7" d="M-3.1,486.3c0.2-0.1,0.4-0.1,0.6-0.1c0.8-0.1,1.6,0,2.4,0.2c0.2,0.1,0.4,0.1,0.5,0.2
			c-0.2,0.1-0.4,0.1-0.6,0.1c-0.8,0.1-1.6,0-2.4-0.2C-2.7,486.5-2.9,486.4-3.1,486.3z"/>
		<path class="st7" d="M-2.8,493.2l0.1-0.1c0.1-0.1,0.3-0.1,0.5-0.1s0.4,0.1,0.6,0.2c0.2,0.1,0.4,0.2,0.6,0.3
			c0.4,0.2,0.8,0.4,1.1,0.6c0.2,0.1,0.3,0.2,0.5,0.3c-0.2,0-0.4,0-0.6,0c-0.4,0-0.9-0.2-1.2-0.4c-0.2-0.1-0.4-0.2-0.6-0.4
			c-0.2-0.1-0.3-0.2-0.4-0.3C-2.5,493.3-2.6,493.3-2.8,493.2z"/>
		<path class="st7" d="M-4.5,499.5c0.2,0,0.4,0,0.6,0c0.3,0,0.7,0.1,1.1,0.2c0.4,0.1,0.8,0.2,1.1,0.3c0.2,0.1,0.3,0.1,0.5,0.2
			c-0.2,0.1-0.4,0.1-0.5,0.2c-0.8,0.1-1.6-0.1-2.3-0.6C-4.2,499.8-4.4,499.6-4.5,499.5z"/>
		<path class="st7" d="M-19.3,505.6c0.2-0.1,0.3-0.1,0.5-0.2c0.8-0.2,1.6-0.1,2.3,0.1c0.2,0,0.4,0.1,0.5,0.2
			c-0.2,0.1-0.3,0.1-0.5,0.2c-0.8,0.2-1.6,0.1-2.3-0.1C-19,505.8-19.2,505.7-19.3,505.6z"/>
		<path class="st7" d="M-24.3,504c-0.2,0.1-0.3,0.1-0.5,0.2c-0.3,0.1-0.7,0.1-1,0.1s-0.7,0-1-0.1c-0.2,0-0.3-0.1-0.5-0.2
			c0.1-0.1,0.3-0.2,0.5-0.2c0.7-0.2,1.4-0.2,2.1,0C-24.6,503.8-24.4,503.9-24.3,504z"/>
		<path class="st7" d="M-27.9,502.6c-0.2,0-0.4,0-0.6,0c-0.8-0.1-1.6-0.4-2.2-0.9c-0.2-0.1-0.3-0.2-0.4-0.4c0.2,0,0.4,0,0.6,0
			c0.8,0.1,1.6,0.4,2.2,0.9C-28.2,502.3-28,502.5-27.9,502.6z"/>
		<path class="st7" d="M-29.8,496.9h-0.1c-0.1,0-0.3,0-0.4,0.1c-0.8,0.1-1.6-0.1-2.3-0.4c-0.2-0.1-0.3-0.2-0.5-0.3
			c0.2-0.1,0.4-0.1,0.6-0.1c0.8-0.1,1.6,0.1,2.3,0.4C-30.1,496.7-30,496.7-29.8,496.9C-29.9,496.8-29.8,496.9-29.8,496.9z"/>
		<path class="st7" d="M-27,493.7c-0.1,0.1-0.2,0.2-0.4,0.2c-0.5,0.2-1.1,0.2-1.6-0.1c-0.1-0.1-0.2-0.1-0.3-0.2
			c0.1-0.1,0.3-0.1,0.4-0.2c0.5-0.1,1.1-0.1,1.6,0.1C-27.2,493.6-27.1,493.6-27,493.7z"/>
		<path class="st7" d="M-32.5,490.3C-32.4,490.3-32.4,490.3-32.5,490.3c-0.1-0.1-0.1,0-0.2,0s-0.1,0-0.2,0c-0.8,0.1-1.6,0-2.4-0.3
			c-0.2-0.1-0.4-0.2-0.5-0.3c0.2-0.1,0.4-0.1,0.6-0.1c0.8-0.1,1.6,0,2.4,0.3c0.1,0,0.2,0.1,0.2,0.1c0.1,0,0.1,0.1,0.2,0.1
			C-32.4,490.2-32.4,490.3-32.5,490.3C-32.4,490.3-32.4,490.3-32.5,490.3z"/>
		<path class="st7" d="M-28.8,486.3c-0.2,0-0.4,0-0.6,0c-0.8,0-1.5-0.3-2.2-0.7c-0.2-0.1-0.3-0.2-0.4-0.3c0.2,0,0.4,0,0.6,0
			c0.8,0,1.5,0.3,2.2,0.7C-29.1,486.1-29,486.2-28.8,486.3z"/>
		<path class="st7" d="M-31.3,481.3c-0.2,0-0.4,0-0.6,0c-0.9-0.1-1.7-0.6-2.3-1.3c-0.1-0.2-0.2-0.3-0.3-0.5c0.2,0.1,0.4,0.1,0.6,0.2
			c0.3,0.2,0.7,0.4,1.1,0.6c0.4,0.2,0.8,0.5,1.1,0.7C-31.6,481-31.4,481.1-31.3,481.3z"/>
		<path class="st7" d="M-28.2,480.9c-0.2,0-0.4,0-0.6,0c-0.8-0.1-1.5-0.5-2.1-1.1c-0.1-0.1-0.2-0.3-0.3-0.5c0.2,0,0.4,0.1,0.5,0.1
			c0.4,0.1,0.7,0.3,1.1,0.4c0.3,0.2,0.7,0.4,1,0.6C-28.5,480.7-28.3,480.8-28.2,480.9z"/>
		<path class="st7" d="M-28.6,477.8c-0.3-0.1-0.6-0.2-0.8-0.3c-1.1-0.6-2.2-1.3-3.1-2.2c-0.2-0.2-0.4-0.4-0.6-0.7
			c0.3,0.1,0.6,0.2,0.8,0.3c1.1,0.6,2.2,1.3,3.1,2.2C-29,477.4-28.8,477.6-28.6,477.8z"/>
		<path class="st7" d="M-26.4,475.2c-0.2-0.1-0.3-0.2-0.4-0.4c-0.5-0.6-0.9-1.3-1.1-2.1c0-0.2-0.1-0.4-0.1-0.6
			c0.2,0.1,0.3,0.2,0.4,0.4c0.5,0.6,0.9,1.3,1.1,2.1C-26.4,474.8-26.4,475-26.4,475.2z"/>
		<path class="st7" d="M-9.2,473.6c0.2,0,0.3-0.1,0.4-0.1c0.2-0.2,0.5-0.4,0.6-0.7c0.1-0.2,0.3-0.3,0.4-0.4c0.3-0.2,0.7-0.3,1-0.4
			c-0.1,0.1-0.2,0.3-0.3,0.4c-0.2,0.2-0.4,0.5-0.6,0.8l-0.2,0.2c-0.1,0.1-0.2,0.2-0.3,0.2c-0.2,0.1-0.4,0.2-0.6,0.2
			c-0.1,0-0.3,0-0.4-0.1C-9.1,473.7-9.1,473.7-9.2,473.6z"/>
		<path class="st7" d="M-6.1,504.6c0.2,0.1,0.3,0.2,0.4,0.3c0.6,0.5,0.8,1.3,0.7,2c0,0.2-0.1,0.3-0.2,0.5c-0.1-0.1-0.2-0.3-0.2-0.5
			c-0.1-0.3-0.2-0.6-0.4-0.9c-0.1-0.3-0.2-0.7-0.3-0.9C-6,504.9-6,504.8-6.1,504.6z"/>
	</g>
	<path class="st9" d="M-18.2,509.3c-1.1-0.2-2.3-0.3-3.5-0.2c0.4,1.3,1.1,2.4,1.5,3.7c0.4,1.3,0.6,2.6,0.7,3.9
		c0.5,4.2,1,8.4,1.2,12.6c0.1,0.8,0,1.6-0.2,2.3c-0.3,0.8-0.8,1.5-1.3,2.2c-0.5,0.7-0.7,1.6-0.5,2.4c3.2,0.1,6.4,0,9.6-0.2
		c1.5,0,3-0.3,4.5-0.7c1.5-0.5,2.7-1.5,3.4-2.9c0.3-0.7,0.5-1.5,0.6-2.2l2.9-17.3c0-0.1,0-0.2,0.1-0.4c0.2-1.1,0.3-2.3,0.4-3.4
		c0-0.6,0-1.1,0-1.6c0-0.6,0.1-1.2,0.1-1.7c0-0.1,0-0.2-0.1-0.3c0,0.2-0.1,0.4-0.3,0.6c-0.2,0.1-0.4,0.2-0.7,0.3
		c-0.3,0.1-0.5,0.2-0.8,0.3c-0.5,0.2-1,0.4-1.5,0.6c-1,0.4-2,0.8-3.1,1.1c-2.1,0.7-4.2,1.1-6.4,1.3C-13.7,509.8-16,509.7-18.2,509.3
		z"/>
	<path class="st10" d="M-2.1,530.2c-0.1,0.8-0.3,1.5-0.6,2.2c-0.7,1.4-1.9,2.4-3.4,2.9c-1.4,0.5-3,0.7-4.5,0.7
		c-3.2,0.2-6.4,0.2-9.6,0.2c-0.2-0.8-0.1-1.7,0.5-2.4c0.5-0.7,1-1.4,1.3-2.2c0.2-0.8,0.3-1.5,0.2-2.3c-0.1-1.7-0.3-3.4-0.4-5.1
		c-0.6-1.3-0.1-2.8,1-3.7c0.7-0.3,1.5-0.4,2.3-0.4l11-0.5l2.4-0.1c0.5-0.1,1,0,1.5,0.2C-0.7,523.2-1.5,526.7-2.1,530.2z"/>
	<path class="st2" d="M-30.7,515.8c0.8,2.6,1.3,5.3,1.9,8c0.6,2.7,1.4,5.3,2.1,7.9c0.1,0.4,0.2,0.8,0.4,1.2c0.2,0.6,0.5,1.1,0.8,1.6
		c0.4,0.7,1,1.3,1.7,1.6c0.8,0.2,1.6,0.2,2.5,0.1c0.9,0,1.7,0,2.6,0h1.9c-0.3-1.5-0.4-3.1-0.5-4.6c0-0.8-0.1-1.7-0.2-2.5
		c0-0.2-0.1-0.5-0.1-0.7c-0.1-0.4,0-0.7-0.1-1.1c0-0.4-0.1-0.8-0.1-1.2c-0.1-0.8-0.2-1.6-0.3-2.4c-0.2-1.6-0.4-3.2-0.6-4.8
		c-0.3-2.2-0.5-4.4-0.5-6.7c0-2,0.2-2.8-2.1-3.2c-1.1-0.2-2.2,0.2-3.2,0c-0.3-0.1-0.6-0.2-0.8-0.4c-0.3-0.3-0.5-0.5-0.7-0.9
		c-0.4-0.6-0.8-1.3-1.2-2c-0.1-0.2-0.2-0.4-0.3-0.7c-0.2,0-0.4,0-0.6,0c-1.3-0.2-2.7,0-3.9,0.6C-34.6,507.5-31.5,513.4-30.7,515.8z"
		/>
	<path class="st11" d="M-18,471.1c0,0.1,0,0.2-0.1,0.2s-0.2,0-0.2-0.1l0,0c-0.6-1.1-1-2.3-1.2-3.5c0-0.4-0.1-0.7-0.3-1.1
		c-0.2-0.3-0.5-0.5-0.9-0.5c-0.4,0.1-0.7,0.5-0.7,0.9s0.1,0.8,0.3,1.1c0.6,1.1,1.3,2.2,2.3,3c-0.4,0-0.7-0.2-0.9-0.5l-2.2-2.5
		c-0.2-0.3-0.6-0.6-1-0.7c-0.2,0.8-0.1,1.6,0.1,2.3c0.2,0.4,0.5,0.7,0.9,1c0.6,0.4,1.2,0.8,1.8,1.1H-24c-0.1,0-0.1,0-0.2,0
		c-0.1,0.1-0.1,0.2,0,0.3c0.1,0.1,0.2,0.2,0.3,0.2c1.4,0.5,3,0.7,4.5,0.6c-0.5,0.1-0.9,0.5-1.1,1.1c-0.1,0.4-0.1,0.7-0.1,1.1
		c0,0.6,0.1,1.2,0.3,1.7c0.4-0.5,0.8-1.1,1.2-1.7c0.3-0.6,0.5-1.3,0.4-2c0.3,0.6,0.6,1.3,0.7,1.9c0.1,0.7,0.5,1.3,1.1,1.7
		c0-1.2-0.1-2.4-0.3-3.5l1.3,1.1c0.6,0.6,1.4,1,2.2,1c-0.8-1.5-2.2-2.6-3.8-3.1c1.6-0.7,3.3-0.9,4.9-0.7c0.1-0.1,0.1-0.3,0-0.4l0,0
		l0,0c-0.1-0.1-0.3-0.1-0.5-0.1c-1.3-0.1-2.5,0-3.7,0.5c0.4-0.4,0.9-0.7,1.4-1c0.6-0.7,0.8-1.5,0.7-2.4c0,0.7-0.4,1.3-1,1.6
		c-0.6,0.3-1.1,0.8-1.5,1.2c0.3-1.2,0.7-2.3,1.3-3.3c0.4-0.9,0.4-2,0-3C-17.1,466.7-17.8,468.9-18,471.1z"/>
	<path class="st12" d="M-18,471.5c0,0.1,0,0.1-0.1,0.2c-0.1,0-0.1,0-0.2-0.1l0,0c-0.5-1-0.9-2.1-1.1-3.3c0-0.3-0.1-0.7-0.3-1
		s-0.5-0.5-0.8-0.5c-0.4,0.1-0.6,0.4-0.6,0.8s0.1,0.7,0.3,1.1c0.5,1.1,1.2,2,2.1,2.8c-0.3,0-0.6-0.2-0.8-0.4l-2.1-2.3
		c-0.2-0.3-0.5-0.5-0.9-0.7c-0.2,0.7-0.1,1.5,0.1,2.2c0.2,0.3,0.5,0.7,0.8,0.9c0.5,0.4,1.1,0.7,1.7,1h-3.7c-0.1,0-0.1,0-0.2,0
		c-0.1,0.1-0.1,0.2,0,0.3c0.1,0.1,0.2,0.1,0.3,0.2c1.3,0.5,2.8,0.7,4.2,0.6c-0.5,0.1-0.9,0.5-1.1,1c-0.1,0.3-0.1,0.7-0.1,1
		c0,0.5,0.1,1.1,0.3,1.6c0.4-0.5,0.8-1,1.1-1.6s0.4-1.2,0.3-1.8c0.3,0.6,0.5,1.2,0.7,1.8c0.1,0.6,0.5,1.2,1,1.6
		c0-1.1-0.1-2.2-0.3-3.3l1.2,1c0.5,0.6,1.3,0.9,2.1,0.9c-0.8-1.4-2-2.4-3.5-2.9c1.5-0.6,3-0.8,4.6-0.7c0.1-0.1,0.1-0.3,0-0.4l0,0
		l0,0l0,0c-0.1-0.1-0.3-0.1-0.4-0.1c-1.2-0.1-2.4,0-3.5,0.4c0.4-0.3,0.8-0.6,1.3-0.9c0.5-0.6,0.7-1.4,0.6-2.2c0,0.6-0.4,1.2-0.9,1.5
		s-1,0.7-1.4,1.2c0.2-1.1,0.7-2.2,1.2-3.1c0.4-0.9,0.4-1.9,0-2.8C-17.2,467.4-17.8,469.4-18,471.5z"/>
</g>
<path class="st1" d="M161.6,540.7H89.8v1.3c0,1-0.8,1.8-1.8,1.8H62.3c-1,0-1.8-0.8-1.8-1.8v-1.3h-71.7c-3,0-5.7,2.1-6,5.1
	c-0.4,3.5,2.3,6.5,5.8,6.5h172.6c2.7,0,5.2-1.7,5.9-4.2C168.3,544.4,165.3,540.7,161.6,540.7z M0.1,548.2c-1.4,0-2.6-1.2-2.6-2.6
	c0-1.4,1.2-2.6,2.6-2.6c1.4,0,2.6,1.2,2.6,2.6C2.7,547,1.5,548.2,0.1,548.2z M12.1,548.2c-1.4,0-2.6-1.2-2.6-2.6
	c0-1.4,1.2-2.6,2.6-2.6s2.6,1.2,2.6,2.6C14.7,547,13.5,548.2,12.1,548.2z M153,547.2h-11.6v-3.3H153V547.2z"/>
<path class="st1" d="M142.2,425.6H7.6c-5.3,0-9.7,4.3-9.7,9.7v91.2c0,5.3,4.3,9.7,9.7,9.7h0.3l0,0c0-1,0.8-1.8,1.8-1.8h9.1
	c1,0,1.8,0.8,1.8,1.8l0,0h108.7l0,0c0-1,0.8-1.8,1.8-1.8h9.1c1,0,1.8,0.8,1.8,1.8l0,0h0.3c5.3,0,9.7-4.3,9.7-9.7v-91.2
	C151.9,429.9,147.6,425.6,142.2,425.6z M74.9,429c0.9,0,1.8,0.5,2.2,1.3c1.3,2.3-1.2,4.9-3.5,3.5c-0.8-0.5-1.3-1.3-1.3-2.2
	C72.3,430.1,73.4,429,74.9,429z M141.9,523.7H7.9v-85.8h134V523.7z"/>
<path class="st1" d="M131.9,396.2v25.1h14.5c5.4,0,9.7,4.3,9.8,9.7v75.6h114.9v-56.2c0-5.6,4.5-10.1,10.1-10.1h26.4v-44.1H131.9z"/>
<g>
	<path class="st1" d="M131.9,421.3v-25.1h175.7v44.1h13v-49.1c0-5.7-4.6-10.3-10.3-10.3h-181c-5.7,0-10.3,4.6-10.3,10.3v30.1
		C119,421.3,131.9,421.3,131.9,421.3z M219.7,385.7c1.6,0,3,1.3,3,3c0,1.6-1.3,3-3,3c-1.6,0-3-1.3-3-3
		C216.8,387,218.1,385.7,219.7,385.7z"/>
	<rect x="156.2" y="506.6" class="st1" width="114.9" height="17.2"/>
</g>
<path class="st1" d="M202.5,528.9H237l3.8,17.7h7.7c3.2,0,5.8,2.6,5.8,5.8l0,0h-68.4l0,0c0-3.2,2.6-5.8,5.8-5.8h7.2L202.5,528.9z"/>
<g>
	<path class="st1" d="M338.4,546.5v-13h-53.7v-73h68.6v6.8h8.9c0.2,0,0.3,0,0.5,0v-13.1c0-5.6-4.5-10.1-10.1-10.1h-67.1
		c-5.6,0-10.1,4.5-10.1,10.1v88.1c0,5.6,4.5,10.1,10.1,10.1h54.7C339.1,550.7,338.4,548.7,338.4,546.5z M319,450.1
		c1.3,0,2.3,1,2.3,2.3c0,1.3-1,2.3-2.3,2.3s-2.3-1-2.3-2.3C316.7,451.1,317.7,450.1,319,450.1z M322.4,547.2h-6.7
		c-2.6,0-4.7-2.1-4.7-4.7s2.1-4.7,4.7-4.7h6.7c2.6,0,4.7,2.1,4.7,4.7S325,547.2,322.4,547.2z"/>
	<path class="st1" d="M322.3,539.6h-6.4c-1.6,0-2.9,1.3-2.9,2.9s1.3,2.9,2.9,2.9h6.4c1.6,0,2.9-1.3,2.9-2.9
		C325.2,540.9,323.9,539.6,322.3,539.6z"/>
</g>
<g>
	<path class="st1" d="M368.4,542.8h-4.9c-1.1,0-2,0.9-2,2c0,1.1,0.9,2,2,2h4.9c1.1,0,2-0.9,2-2C370.4,543.7,369.5,542.8,368.4,542.8
		z"/>
	<path class="st1" d="M382.1,471.9h-32.5c-3.9,0-7,3.1-7,7v66.5c0,3.9,3.1,7,7,7h32.5c3.9,0,7-3.1,7-7v-66.5
		C389.1,475,385.9,471.9,382.1,471.9z M359.9,477.9h12v1.6h-12V477.9z M368.5,548.2h-5.2c-1.9,0-3.5-1.6-3.5-3.5s1.6-3.5,3.5-3.5
		h5.2c1.9,0,3.5,1.6,3.5,3.5S370.5,548.2,368.5,548.2z M384.4,538.2h-37.2v-54.7h37.2V538.2z"/>
</g>
<path class="st1" d="M338.2,474.3c0-3.9,3.1-7,7-7h8.1v-6.8h-68.6v73h53.5V474.3z"/>
<g>
	<g>
		<path class="st1" d="M41.5,414.9c-0.1,0-0.1,0-0.2,0c0-0.1,0.1-0.3,0.3-0.4c-0.1-0.1-0.2-0.2-0.3-0.2c-0.2,0.2-0.3,0.4-0.3,0.6
			c0,0.1,0,0.3,0.1,0.4s0.2,0.2,0.4,0.2c0.1,0,0.2,0,0.3-0.1c0.1-0.1,0.1-0.1,0.1-0.3c0-0.1,0-0.2-0.1-0.2
			C41.7,415,41.6,414.9,41.5,414.9z"/>
		<path class="st1" d="M47.6,415.2c-0.2,0-0.3,0-0.5,0.1s-0.2,0.2-0.2,0.4c0,0.1,0,0.2,0.1,0.3c0.1,0.2,0.3,0.3,0.5,0.3l0.2-0.4
			c-0.1,0-0.1,0-0.1,0s-0.1,0-0.1-0.1l-0.1-0.1c0-0.1,0.1-0.2,0.2-0.2s0.2,0,0.3,0.1c0.1,0.1,0.2,0.1,0.3,0.3
			c0.1,0.1,0.1,0.2,0.1,0.4c0,0,0,0,0,0.1c-0.1,0.4-0.3,0.6-0.6,0.6c0,0,0,0-0.1,0s-0.2,0-0.3-0.1c-0.1,0-0.1-0.1-0.1-0.1l-0.1-0.1
			c-0.2-0.2-0.4-0.5-0.5-0.8l-0.3,0.4c0.2,0.4,0.4,0.6,0.5,0.8c0.1,0.1,0.3,0.2,0.4,0.3c0.1,0,0.3,0.1,0.5,0.1
			c0.3,0,0.5-0.1,0.6-0.2c0.2-0.1,0.3-0.3,0.4-0.6c0-0.1,0-0.2,0-0.4s-0.1-0.4-0.2-0.5C48.3,415.4,48,415.2,47.6,415.2z"/>
		<path class="st1" d="M49.1,414.8h-2.9l0,0h-0.8h-0.2h-0.6h-0.3h-2.1v0.4h1c-0.2,0-0.3,0.1-0.5,0.1c-0.2,0.1-0.3,0.3-0.3,0.5
			c0,0.1,0,0.1,0,0.2c0.1,0.2,0.2,0.3,0.5,0.3l0.3-0.4c-0.2,0-0.3,0-0.3-0.1v-0.1c0.1-0.1,0.2-0.1,0.4-0.1c0.1,0,0.2,0,0.3,0.1
			c0.1,0.1,0.2,0.2,0.2,0.4c0,0.1-0.1,0.2-0.2,0.3c-0.2,0.1-0.5,0.2-0.8,0.2c-0.1,0-0.2,0-0.5,0l0.2,0.6c0.1,0,0.3,0,0.5,0.1
			c0.5,0.1,0.9,0.4,1.2,0.6l0.3-0.3c-0.2-0.2-0.4-0.3-0.6-0.4c-0.1-0.1-0.3-0.1-0.5-0.2c0.2-0.1,0.4-0.2,0.5-0.3
			c0.2-0.2,0.3-0.4,0.3-0.6c0-0.1,0-0.2-0.1-0.3c-0.1-0.2-0.2-0.3-0.4-0.4c-0.1-0.1-0.3-0.1-0.5-0.1h0.9h0.3l0,0v2.2h0.4v-2.2h0.1
			h0.2h0.6c-0.1,0.1-0.2,0.2-0.2,0.2c-0.3,0.4-0.4,0.7-0.4,1c0,0.2,0,0.3,0,0.4c0.1,0.2,0.1,0.3,0.1,0.4c0.1,0.2,0.2,0.3,0.4,0.4
			c0.1,0.1,0.3,0.1,0.5,0.1c0.1,0,0.2,0,0.3-0.1v-0.5c-0.1,0.1-0.2,0.2-0.3,0.2c-0.1,0-0.2,0-0.3,0c-0.1,0-0.2-0.1-0.2-0.1
			c-0.1-0.1-0.1-0.3-0.2-0.3c0-0.1,0-0.2,0-0.4c0-0.1,0-0.2,0.1-0.4c0-0.1,0.1-0.2,0.3-0.4c0.1-0.2,0.3-0.3,0.5-0.4h2.1l0,0h1.9
			c-0.8,0.3-1.4,0.6-1.8,0.8l0.1,0.4c0.2,0,0.4,0,0.6,0.1c0.2,0.1,0.4,0.2,0.6,0.3c0.3,0.2,0.5,0.4,0.6,0.5h0.4v-2.3h0.3v-0.4H49.1
			L49.1,414.8z M50.8,416.8c-0.3-0.3-0.7-0.5-1-0.6h-0.1h0.1c0.1-0.1,0.2-0.1,0.3-0.2c0.3-0.1,0.6-0.2,0.7-0.3V416.8z"/>
		<path class="st1" d="M49.7,416.9l-0.2,0.4c0.1,0,0.1,0,0.1,0.1c0.2,0.1,0.3,0.2,0.4,0.3l0.3-0.3c-0.1-0.1-0.1-0.1-0.1-0.1
			C50.1,417,49.9,416.9,49.7,416.9z"/>
		<path class="st1" d="M54.9,417.9l0.2-0.3h-0.5l-0.1,0.1c-0.1-0.1-0.3-0.1-0.5-0.1c0,0,0,0-0.1,0s-0.2,0-0.3,0.1
			c-0.1,0.1-0.1,0.2-0.1,0.3c0,0.2,0,0.3,0.1,0.4c0.1,0.1,0.2,0.2,0.4,0.2c0.2,0,0.4-0.1,0.6-0.3c0.2,0.2,0.3,0.4,0.3,0.6l0.3-0.2
			c0-0.2-0.1-0.3-0.2-0.5C55.1,418,55,417.9,54.9,417.9z M54.3,418.1L54.3,418.1c-0.2,0-0.3,0-0.3-0.1l0,0c0-0.1,0.1-0.1,0.1-0.1
			C54.2,417.9,54.3,417.9,54.3,418.1C54.4,418,54.3,418.1,54.3,418.1z"/>
		<path class="st1" d="M60.7,414.1c-0.1-0.1-0.3-0.1-0.4-0.1s-0.2,0-0.3,0.1c-0.3,0.1-0.5,0.2-0.7,0.3l0.1,0.3
			c0.1,0,0.2-0.1,0.2-0.1c0.1,0,0.1-0.1,0.2-0.1c0,0,0.1,0,0.2,0s0.1,0,0.2,0h0.1c0.2,0.1,0.3,0.2,0.3,0.4l0,0h-1.2h-0.2h-0.7h-0.1
			h-1c-0.1-0.1-0.2-0.3-0.2-0.5v-0.1c0-0.2,0.1-0.3,0.2-0.4l-0.4-0.3c-0.2,0.3-0.3,0.5-0.3,0.7s0.1,0.4,0.2,0.6h-0.2h-0.5h-0.8h-0.2
			h-2.6v0.4h0.2v0.3h0.5c0.1,0,0.2,0,0.2,0.1c0.1,0.1,0.1,0.2,0.1,0.3l0,0c-0.2,0-0.3,0-0.5,0.1s-0.3,0.3-0.3,0.6c0,0.1,0,0.2,0,0.2
			c0.1,0.1,0.1,0.2,0.3,0.3c0.1,0.1,0.3,0.1,0.4,0.1s0.3-0.1,0.5-0.2l-0.1-0.4c-0.2,0.1-0.3,0.1-0.3,0.1c-0.1,0-0.1,0-0.2-0.1
			c-0.1,0-0.1-0.1-0.1-0.2c0,0,0,0,0-0.1c0.1-0.1,0.2-0.2,0.4-0.2c0.2,0,0.3,0,0.4,0.1c0.1,0.1,0.2,0.2,0.4,0.3
			c0.1,0.2,0.2,0.3,0.2,0.4v0.3h0.4v-2.2h0.1h0.2h0.5c-0.1,0.1-0.2,0.2-0.2,0.2c-0.3,0.4-0.4,0.7-0.4,1c0,0.2,0,0.3,0,0.4
			c0.1,0.2,0.1,0.3,0.1,0.4c0.1,0.2,0.2,0.3,0.4,0.4c0.1,0.1,0.3,0.1,0.5,0.1c0.1,0,0.2,0,0.3-0.1v-0.4l0.1,0.1
			c0.2,0.1,0.3,0.2,0.5,0.2c0.1,0,0.3,0,0.4-0.1c0.4-0.2,0.6-0.5,0.6-1c0-0.3-0.1-0.5-0.2-0.7c-0.1-0.1-0.2-0.3-0.5-0.5h0.6h0.2h0.1
			v2.2h0.4v-2.2h0.1h0.2h1.8v-0.4h-0.3C61,414.5,60.9,414.2,60.7,414.1z M54.6,416.4c-0.2-0.2-0.4-0.4-0.6-0.4
			c0-0.3-0.2-0.6-0.5-0.8h1L54.6,416.4L54.6,416.4z M56.7,416.1c-0.1,0.1-0.3,0.1-0.4,0.1c0,0.3,0.1,0.5,0.1,0.7
			c0,0.1,0.1,0.2,0.2,0.2c-0.1,0.1-0.2,0.1-0.2,0.1c-0.1,0-0.2,0-0.3,0c-0.1,0-0.2-0.1-0.2-0.1c-0.1-0.1-0.1-0.3-0.2-0.3
			c0-0.1,0-0.2,0-0.4c0-0.1,0-0.2,0.1-0.4c0-0.1,0.1-0.2,0.3-0.4c0.1-0.2,0.3-0.3,0.5-0.3H57c0.1,0.1,0.1,0.2,0.1,0.3
			c0,0.1,0,0.2-0.1,0.3C57,415.9,56.9,416,56.7,416.1z M57.9,416.4C57.9,416.4,57.9,416.5,57.9,416.4c-0.1,0.4-0.2,0.6-0.6,0.6h-0.1
			c-0.1,0-0.3-0.1-0.4-0.2s-0.1-0.2-0.1-0.3c0.2-0.1,0.4-0.2,0.6-0.4c0,0,0-0.1,0.1-0.2c0-0.1,0.1-0.2,0.1-0.2v-0.1
			C57.8,415.9,57.9,416.2,57.9,416.4z"/>
		<path class="st1" d="M60.2,416.9c0.3,0,0.5-0.1,0.6-0.2c0.2-0.1,0.3-0.3,0.3-0.6s-0.1-0.6-0.4-0.7c-0.1,0-0.1-0.1-0.2-0.1
			s-0.1,0-0.2,0c-0.2,0-0.4,0-0.5,0.1c-0.2,0.1-0.3,0.2-0.3,0.4c0,0.2,0.1,0.3,0.3,0.5c0.1,0.1,0.2,0.1,0.3,0.1l0.2-0.4
			c-0.2,0-0.3,0-0.4-0.1c0,0,0-0.1,0.1-0.1s0.1,0,0.2,0c0,0,0,0,0.1,0s0.2,0.1,0.3,0.2c0.1,0.1,0.1,0.2,0.1,0.3
			c0,0.1-0.1,0.3-0.4,0.4c-0.1,0.1-0.3,0.1-0.5,0.1c0,0-0.1,0-0.2,0s-0.1,0-0.2,0v0.5c0,0,0.1,0,0.3,0.1c0.2,0.1,0.4,0.2,0.5,0.2
			c0.2,0.1,0.4,0.3,0.6,0.5l0.3-0.2c-0.2-0.2-0.4-0.3-0.6-0.5C60.4,417,60.3,416.9,60.2,416.9z"/>
		<path class="st1" d="M64.6,416.2c0.1-0.1,0.1-0.2,0.2-0.3c0.1-0.1,0.1-0.2,0.1-0.3s-0.1-0.3-0.2-0.5s-0.2-0.3-0.4-0.3
			c-0.1,0-0.3,0.1-0.5,0.3c-0.1-0.1-0.2-0.2-0.3-0.2c-0.1-0.1-0.2-0.1-0.3-0.1c-0.1,0-0.3,0.1-0.4,0.2c-0.1,0.1-0.2,0.3-0.3,0.4
			l0.2,0.4c0.1-0.1,0.2-0.1,0.4-0.1c0.1,0,0.2,0,0.2,0.1s-0.2,0.2-0.6,0.3l0.3,0.4c0.1,0,0.2,0,0.2-0.1c0.4-0.2,0.5-0.4,0.5-0.6
			c0-0.1-0.1-0.3-0.2-0.3c-0.1-0.1-0.2-0.1-0.4-0.1l0,0c0.1-0.1,0.2-0.1,0.2-0.1c0.1,0,0.3,0.1,0.5,0.4c0.2-0.2,0.4-0.3,0.4-0.3h0.1
			c0,0.1,0.1,0.2,0.1,0.3s-0.1,0.3-0.2,0.4l0,0l0,0c-0.2,0-0.3,0.1-0.4,0.3l0.2,0.4c0.1-0.1,0.2-0.1,0.2-0.2c0,0,0,0,0.1,0
			s0.1,0,0.2,0.1s0.1,0.1,0.1,0.2c0,0.1-0.1,0.3-0.3,0.3c-0.1,0.1-0.3,0.1-0.5,0.1c-0.1,0-0.1,0-0.2-0.1c-0.2-0.1-0.5-0.3-0.7-0.7
			l-0.2,0.4c0.2,0.3,0.4,0.4,0.5,0.6c0.2,0.2,0.4,0.2,0.7,0.2c0.3,0,0.5-0.1,0.7-0.2c0.3-0.2,0.4-0.4,0.4-0.6
			C64.9,416.5,64.8,416.4,64.6,416.2z"/>
		<path class="st1" d="M70.9,414.8h-0.7H70h-2.4h-0.2h-2.5v0.4h2v1.2c0,0,0,0,0-0.1c-0.3-0.4-0.6-0.5-1-0.5c-0.2,0-0.4,0.1-0.5,0.2
			c-0.1,0.1-0.2,0.3-0.2,0.5s0.1,0.3,0.2,0.5c0.1,0.1,0.2,0.2,0.4,0.2c0.1,0,0.1,0,0.1,0H66c0.1,0,0.3,0,0.4-0.1l-0.1-0.4
			c-0.1,0-0.2,0.1-0.2,0.1c-0.1,0-0.2,0-0.2-0.1c-0.1-0.1-0.1-0.1-0.1-0.2c0,0,0,0,0-0.1c0.1-0.1,0.2-0.2,0.3-0.2
			c0.3,0,0.6,0.2,0.8,0.6c0.1,0.2,0.2,0.3,0.2,0.4v0.2h0.4v-2.2h0.1h0.2v0.3h0.5c0.1,0,0.2,0,0.2,0.1c0.1,0.1,0.1,0.2,0.1,0.3l0,0
			c-0.2,0-0.3,0-0.5,0.1s-0.3,0.3-0.3,0.6c0,0.1,0,0.2,0,0.2c0.1,0.1,0.1,0.2,0.3,0.3c0.1,0.1,0.3,0.1,0.4,0.1
			c0.1,0,0.3-0.1,0.5-0.2l-0.1-0.4c-0.2,0.1-0.3,0.1-0.3,0.1c-0.1,0-0.1,0-0.2-0.1c-0.1,0-0.1-0.1-0.1-0.2c0,0,0,0,0-0.1
			c0.1-0.1,0.2-0.2,0.4-0.2s0.3,0,0.4,0.1c0.1,0.1,0.2,0.2,0.4,0.3c0.1,0.2,0.2,0.3,0.2,0.4v0.3h0.4V415h0.1h0.2h0.1v2.2h0.4V415H71
			h0.2H73v1.2c0,0,0,0,0-0.1c-0.3-0.4-0.6-0.5-1-0.5c-0.2,0-0.4,0.1-0.5,0.2c-0.1,0.1-0.2,0.3-0.2,0.5s0.1,0.3,0.2,0.5
			c0.1,0.1,0.2,0.2,0.4,0.2c0.1,0,0.1,0,0.1,0h0.1c0.1,0,0.3,0,0.4-0.1l-0.1-0.4c-0.1,0-0.2,0.1-0.2,0.1c-0.1,0-0.2,0-0.2-0.1
			c-0.1-0.1-0.1-0.1-0.1-0.2c0,0,0,0,0-0.1c0.1-0.1,0.2-0.2,0.3-0.2c0.3,0,0.6,0.2,0.8,0.6c0.1,0.2,0.2,0.3,0.2,0.4v0.2h0.4V415h0.3
			v-0.4h-2.5h-0.5L70.9,414.8L70.9,414.8z M69.4,416.4c-0.2-0.2-0.4-0.4-0.6-0.4c0-0.3-0.2-0.6-0.5-0.8h1L69.4,416.4L69.4,416.4z"/>
		<path class="st1" d="M81,414.8h-0.5v0.5c-0.1-0.2-0.2-0.3-0.3-0.3c-0.1-0.1-0.3-0.1-0.5-0.1s-0.3,0-0.4,0.1v-0.1h-2.1H77h-2.3v0.4
			H75c0.2,0.1,0.3,0.2,0.4,0.3c0.1,0.1,0.1,0.1,0.1,0.3c0,0.1,0.1,0.2,0.1,0.3c0,0.2-0.1,0.3-0.2,0.4c-0.1,0.1-0.2,0.2-0.2,0.2
			c-0.1,0-0.2,0-0.2-0.1l-0.1-0.1v0.5c0.1,0,0.1,0.1,0.1,0.1c0.1,0.1,0.2,0.1,0.3,0.1c0.2,0,0.4-0.1,0.6-0.4l0.3-0.5
			c0.1-0.1,0.1-0.2,0.2-0.2s0.2,0.1,0.2,0.2v1.2H77v-2.2h0.2l0,0h0.3c0.1,0.1,0.2,0.1,0.2,0.2c-0.2,0-0.3,0.1-0.4,0.2
			c-0.1,0.1-0.2,0.2-0.2,0.4c0,0.1,0,0.3,0.1,0.4c0.1,0.1,0.2,0.2,0.3,0.2l0,0l0,0c0.1,0,0.2,0,0.4-0.1l-0.1-0.4
			c-0.1,0.1-0.2,0.1-0.2,0.1c-0.1,0-0.1,0-0.1-0.1l0,0c0-0.1,0.1-0.1,0.2-0.1s0.2,0,0.3,0.1c0.1,0,0.2,0.1,0.3,0.2
			c0.1,0.1,0.2,0.2,0.3,0.3H79l0.1,0.2c0.5-0.3,0.9-0.5,1.3-0.6c0,0.1,0,0.1,0,0.1v1.4h0.4v-2.2h0.1h0.2h1.8v1.2c0,0,0,0,0-0.1
			c-0.3-0.4-0.6-0.5-1-0.5c-0.2,0-0.4,0.1-0.5,0.2s-0.2,0.3-0.2,0.5s0.1,0.3,0.2,0.5c0.1,0.1,0.2,0.2,0.4,0.2c0.1,0,0.1,0,0.1,0H82
			c0.1,0,0.3,0,0.4-0.1l-0.1-0.4c-0.1,0-0.2,0.1-0.2,0.1c-0.1,0-0.2,0-0.2-0.1c-0.1-0.1-0.1-0.1-0.1-0.2c0,0,0,0,0-0.1
			c0.1-0.1,0.2-0.2,0.3-0.2c0.3,0,0.6,0.2,0.8,0.6c0.1,0.1,0.2,0.2,0.2,0.3v0.1c-0.1-0.1-0.1-0.2-0.2-0.2c-0.1-0.1-0.2-0.1-0.4-0.2
			c-0.2,0-0.3-0.1-0.5-0.1s-0.3,0.1-0.4,0.2c-0.1,0.1-0.2,0.3-0.2,0.4c0,0.3,0.1,0.5,0.4,0.6c0.1,0,0.1,0,0.2,0c0.1,0,0.2,0,0.3-0.1
			l-0.1-0.4c-0.1,0-0.1,0.1-0.2,0.1s-0.1-0.1-0.1-0.2c0-0.1,0.1-0.1,0.2-0.1s0.2,0,0.4,0.1c0.2,0,0.3,0.1,0.4,0.1
			c0.2,0.1,0.3,0.3,0.4,0.6h0.4v-1.1l0,0v-2.2H84v-0.4h-2.5H81z M76.5,415.7c-0.1,0-0.1-0.1-0.2-0.1s-0.2,0-0.3,0.1
			c0-0.2-0.1-0.3-0.3-0.5h0.8V415.7z M78.6,415.8C78.6,415.8,78.6,415.7,78.6,415.8c-0.1-0.1-0.1-0.1-0.1-0.1
			c-0.2-0.1-0.3-0.2-0.4-0.2l0,0c0-0.1,0-0.1-0.1-0.2l0,0h0.6V415.8z M79,416.1v-0.4c0,0,0,0.1,0,0.2C79.1,416,79,416,79,416.1z
			 M79.5,415.9L79.5,415.9c0-0.3-0.1-0.4-0.2-0.5c0.2-0.1,0.3-0.1,0.4-0.1s0.1,0,0.2,0c0.1,0.1,0.2,0.2,0.3,0.3L79.5,415.9z"/>
		<path class="st1" d="M86.7,415.3c-0.1-0.2-0.2-0.3-0.3-0.3c-0.1-0.1-0.3-0.1-0.5-0.1s-0.4,0-0.6,0.1c-0.2,0.1-0.4,0.2-0.5,0.4
			l0.1,0.3c0.1,0,0.2,0,0.2,0c0.1,0,0.1,0.1,0.1,0.3c0,0.1,0,0.2-0.1,0.4l0.2,0.3c0.5-0.3,0.9-0.5,1.3-0.6c0,0.1,0,0.1,0,0.1v1.4H87
			v-2.2h0.3V415h-0.7v0.3H86.7z M85.6,415.9L85.6,415.9c0-0.3-0.1-0.4-0.2-0.5c0.2-0.1,0.3-0.1,0.4-0.1c0.1,0,0.1,0,0.2,0
			c0.1,0.1,0.2,0.2,0.3,0.3L85.6,415.9z"/>
		<path class="st1" d="M89.4,414.8h-0.6v0.3c-0.2-0.2-0.4-0.3-0.6-0.3h-0.1c-0.2,0-0.4,0.1-0.5,0.2c-0.1,0.2-0.2,0.3-0.2,0.6
			c0,0.2,0.1,0.4,0.2,0.6c0.1,0.2,0.3,0.2,0.5,0.2c0.1,0,0.3,0,0.5-0.1l-0.2-0.4c-0.1,0.1-0.2,0.1-0.3,0.1s-0.2,0-0.2-0.1
			c-0.1-0.1-0.1-0.1-0.1-0.2v-0.1c0.1-0.1,0.2-0.2,0.3-0.2c0.2,0,0.3,0.1,0.4,0.2c0.2,0.2,0.3,0.3,0.3,0.4v1.6h0.4v-2.2h0.1h0.2h0.3
			c-0.1,0.2-0.2,0.4-0.2,0.6c0,0.1,0.1,0.3,0.2,0.6c0.1,0.3,0.2,0.4,0.2,0.6c0,0.1-0.1,0.2-0.4,0.3l-0.1,0.4c0.2,0,0.4,0,0.5-0.1
			c0.3-0.1,0.4-0.3,0.4-0.5c0-0.1,0-0.3-0.1-0.5c-0.1-0.4-0.2-0.7-0.2-0.7c0-0.1,0.1-0.3,0.2-0.5h0.3v-0.4h-1.1h-0.1L89.4,414.8
			L89.4,414.8z"/>
		<path class="st1" d="M93.7,416.1c0.1-0.1,0.2-0.3,0.2-0.5s-0.1-0.4-0.2-0.5c-0.2-0.2-0.4-0.3-0.6-0.3s-0.4,0.1-0.5,0.2
			c-0.2,0.1-0.2,0.3-0.2,0.5c0,0.1,0,0.2,0.1,0.3c0.1,0.1,0.2,0.1,0.3,0.1h0.1l0.2-0.3c-0.2,0-0.3,0-0.3-0.1s0.1-0.1,0.1-0.1
			c0.1,0,0.1,0,0.2,0c0.1,0,0.2,0,0.3,0.1s0.1,0.2,0.1,0.3c0,0.2-0.1,0.3-0.2,0.3h-0.1c-0.1,0-0.2,0.1-0.4,0.2l0.2,0.4
			c0.1-0.1,0.2-0.1,0.3-0.1s0.2,0.1,0.3,0.2v0.1c0,0.1,0,0.2-0.1,0.3c-0.1,0.1-0.2,0.1-0.3,0.1h-0.1c-0.4,0-0.8-0.4-1.1-1.1
			l-0.3,0.3c0.4,0.8,0.9,1.2,1.5,1.2c0.2,0,0.4-0.1,0.6-0.2c0.2-0.1,0.2-0.3,0.2-0.5C94,416.5,93.9,416.3,93.7,416.1z"/>
		<path class="st1" d="M101.4,414.8h-2.3h-0.2h-2h-0.3h-0.2c-0.2,0.2-0.3,0.3-0.4,0.4c-0.3,0.4-0.5,0.8-0.5,1.1v0.1
			c0,0.2,0,0.4,0.1,0.5c0.1,0.2,0.2,0.4,0.3,0.4c0.2,0.1,0.3,0.2,0.5,0.2c0.1,0,0.3,0,0.4-0.1l-0.1-0.4c-0.1,0.1-0.2,0.1-0.3,0.1
			s-0.2-0.1-0.3-0.3c-0.1-0.1-0.1-0.3-0.1-0.4c0-0.2,0.1-0.5,0.3-0.7c0.2-0.2,0.4-0.4,0.6-0.4H97l0,0c0.2,0.1,0.3,0.2,0.4,0.3
			c0.1,0.1,0.1,0.1,0.1,0.3c0,0.1,0.1,0.2,0.1,0.3c0,0.2-0.1,0.3-0.2,0.4c-0.1,0.1-0.2,0.2-0.2,0.2c-0.1,0-0.2,0-0.2-0.1l-0.1-0.1
			v0.5c0.1,0,0.1,0.1,0.1,0.1c0.1,0.1,0.2,0.1,0.3,0.1c0.2,0,0.4-0.1,0.6-0.4l0.3-0.5c0.1-0.1,0.1-0.2,0.2-0.2
			c0.1,0,0.2,0.1,0.2,0.2v1.2H99v-2.2h0.1h0.2h1.8c-0.5,0.2-0.8,0.3-1,0.4c-0.5,0.2-0.7,0.4-0.9,0.4l0.1,0.4c0.2,0,0.4,0,0.6,0.1
			c0.2,0.1,0.4,0.2,0.6,0.3c0.3,0.2,0.5,0.4,0.6,0.5h0.4v-2.3h0.1h0.2h0.1v2.2h0.4v-2.2h0.3v-0.4h-0.8H101.4z M98.4,415.7
			c-0.1,0-0.1-0.1-0.2-0.1c-0.1,0-0.2,0-0.3,0.1c0-0.2-0.1-0.3-0.3-0.5h0.8V415.7z M100.9,416.8c0,0-0.1,0-0.1-0.1
			c-0.3-0.2-0.6-0.4-1-0.6h0.1c0.4-0.2,0.6-0.3,0.7-0.3s0.2-0.1,0.3-0.1V416.8z"/>
		<path class="st1" d="M103,414.5c-0.1,0-0.2,0-0.3,0.1c-0.1,0.1-0.1,0.1-0.1,0.3c0,0.1,0,0.2,0.1,0.2c0.1,0.1,0.1,0.1,0.2,0.1
			c0.1,0,0.1,0,0.2,0c0,0.1-0.1,0.3-0.3,0.4c0.1,0.1,0.2,0.2,0.3,0.2c0.2-0.2,0.3-0.4,0.3-0.6c0-0.1,0-0.3-0.1-0.4
			C103.3,414.6,103.2,414.5,103,414.5z"/>
		<path class="st1" d="M53.1,411.9h1.8c0.4,0,0.6-0.2,0.6-0.7v-0.3c0-0.5-0.3-0.8-0.8-0.8h-1.6c-0.5,0-0.7,0.3-0.7,0.8v0.3
			C52.4,411.7,52.6,411.9,53.1,411.9z"/>
		<path class="st1" d="M105.3,410.1h-1.6c-0.5,0.1-0.7,0.4-0.7,0.8v0.3c0,0.4,0.3,0.7,0.8,0.7h1.8c0.4,0,0.6-0.2,0.6-0.7v-0.3
			C106.1,410.4,105.8,410.1,105.3,410.1z"/>
		<path class="st1" d="M98.3,396.3h-0.6h-3.8h-0.5H76.7h-0.6h-3.7h-0.6H60.1h-0.5H47.1h-0.5H34.3v1.2h8.9v1.5h-5.5
			c-0.5,0-0.9,0.2-1.4,0.5c-0.7,0.5-1.1,1.1-1.1,1.9v5.6c0,1.2,0.5,1.9,1.4,2.3c0.5,0.2,1.2,0.3,2.1,0.3h6.8v-12h1H47h4.9v4.6
			c0,1,0.5,1.4,1.5,1.4H55c0.7,0,1.1-0.2,1.4-0.6v3.9c0,0.4-0.1,0.7-0.4,1c-0.3,0.3-0.6,0.4-1,0.4h-3.7c-1.2,0-1.8-0.5-1.8-1.5v-5.5
			h-2.4v5.3c0,1.1,0.4,1.9,1.1,2.4c0.6,0.4,1.5,0.5,2.7,0.5h6c1.3,0,1.9-0.7,1.9-2.2v-6.1h-2.1c-0.3,0.7-0.8,1-1.6,1
			c-0.1,0-0.1,0-0.3,0c-0.3,0-0.5-0.2-0.5-0.6v-4h5.2H60h8.3v1.5h-5.5c-0.5,0-0.9,0.2-1.4,0.5c-0.7,0.5-1.1,1.1-1.1,1.9v5.6
			c0,1.2,0.5,1.9,1.4,2.3c0.5,0.2,1.2,0.3,2.1,0.3h6.8v-12h1.5l0,0h0.5v12H75v-12h0.8h0.6h5.1v4.7c0,0.5,0.1,1,0.4,1.3
			c0.3,0.3,0.7,0.5,1.2,0.5h1.8l0.8-0.1c0.3,0,0.5-0.2,0.6-0.4v3.1c0,0.8-0.4,1.3-1.3,1.3h-3.5c-1.5,0-2.3-0.7-2.3-2v-5.7h-2.5v5.9
			c0,1,0.4,1.8,1.1,2.4c0.6,0.5,1.2,0.7,2.1,0.7h6.7c1.4,0,2.1-0.7,2.1-2.2v-5.1h-2.2c-0.1,0.2-0.1,0.3-0.2,0.3
			c-0.1,0.1-0.2,0.2-0.3,0.3c-0.3,0.3-0.6,0.4-0.9,0.4h-0.7c-0.5,0-0.7-0.3-0.7-1v-4.2c0.9,1.2,2,2.1,3,2.7c0.6,0.2,1.3,0.4,1.9,0.6
			c0.8,0.3,1.2,0.8,1.2,1.3v7.1h2.4v-7.9c0-0.4-0.1-0.7-0.3-0.9c-0.2-0.2-0.5-0.4-0.9-0.5c-0.2-0.1-0.5-0.1-1-0.2
			c-0.6,0-1.3-0.2-2.2-0.5c-0.3-0.1-0.7-0.4-1.2-0.8c-0.5-0.4-0.8-0.8-0.8-1.1h7h0.5h0.6v12h2.4v-12h0.8l0,0h8.9v1.6h-5.5
			c-0.7,0-1.2,0.2-1.7,0.6c-0.5,0.4-0.8,1-0.8,1.6v5.6c0,0.9,0.3,1.5,0.9,2c0.6,0.4,1.3,0.6,2.2,0.6h7.3v-12h1.3v-1.2H98.3
			L98.3,396.3L98.3,396.3z M43.2,408.2h-3.9c-0.3,0-0.5,0-0.7-0.1c-0.3-0.1-0.5-0.4-0.8-0.7c-0.2-0.2-0.2-0.5-0.2-0.8v-5.2
			c0-0.8,0.5-1.2,1.4-1.2h4.1L43.2,408.2L43.2,408.2z M68.5,408.2h-3.9c-0.3,0-0.5,0-0.7-0.1c-0.3-0.1-0.5-0.4-0.8-0.7
			c-0.2-0.2-0.2-0.5-0.2-0.8v-5.2c0-0.8,0.5-1.2,1.4-1.2h4.1L68.5,408.2L68.5,408.2z M106.6,408.2h-3.9c-0.6,0-1-0.1-1.2-0.4
			c-0.3-0.4-0.5-0.8-0.5-1.1v-4.8c0-1.1,0.5-1.6,1.4-1.6h4.1L106.6,408.2L106.6,408.2L106.6,408.2z"/>
	</g>
	<path class="st1" d="M72.3,360.9c-8.2,0-14.9,6.7-14.9,14.9c0,8.2,6.7,14.9,14.9,14.9s14.9-6.7,14.9-14.9
		C87.2,367.6,80.6,360.9,72.3,360.9z M72.3,390c-7.8,0-14.1-6.3-14.1-14.1c0-7.8,6.3-14.1,14.1-14.1s14.1,6.3,14.1,14.1
		C86.4,383.7,80.1,390,72.3,390z"/>
	<g>
		<path class="st1" d="M72.8,381.6c-0.6,0-1.2-0.1-1.8-0.4c-0.5-0.3-0.9-0.6-1.2-1.1h-0.1v1.2h-1.6v-12.9h1.6v4.1l-0.1,1.2h0.1
			c0.3-0.5,0.7-0.8,1.2-1.1s1.1-0.4,1.8-0.4c1.2,0,2.1,0.5,2.9,1.4c0.8,0.9,1.2,2,1.2,3.3c0,1.3-0.4,2.4-1.2,3.3
			C74.9,381.1,74,381.6,72.8,381.6z M72.5,380.1c0.8,0,1.5-0.3,2-0.9c0.5-0.6,0.8-1.3,0.8-2.3c0-0.9-0.3-1.7-0.8-2.3s-1.2-0.9-2-0.9
			s-1.5,0.3-2,0.9s-0.8,1.4-0.8,2.3c0,0.9,0.3,1.7,0.8,2.3C71.1,379.8,71.7,380.1,72.5,380.1z"/>
	</g>
</g>
<path class="st13" d="M91.3,498.1c0-7.2-4.4-13.4-10.7-16c2.1-1.8,3.5-4.6,3.5-7.6c0-5.6-4.5-10.1-10.1-10.1s-10.1,4.5-10.1,10.1
	c0,3,1.4,5.8,3.5,7.6c-6.3,2.6-10.7,8.8-10.7,16"/>
<path class="st13" d="M330.2,508.8c0-4.6-2.8-8.6-6.9-10.2c1.4-1.2,2.2-2.9,2.2-4.9c0-3.6-2.9-6.4-6.4-6.4c-3.6,0-6.4,2.9-6.4,6.4
	c0,1.9,0.9,3.7,2.2,4.9c-4,1.7-6.9,5.6-6.9,10.2"/>
<path class="st13" d="M372.8,518.8c0-2.9-1.7-5.3-4.2-6.3c0.8-0.7,1.4-1.8,1.4-3c0-2.2-1.8-4-4-4s-4,1.8-4,4c0,1.2,0.5,2.3,1.4,3
	c-2.5,1-4.2,3.5-4.2,6.3"/>
<path class="st13" d="M244,473.4c0-10-6.1-18.5-14.8-22.1c2.9-2.6,4.8-6.3,4.8-10.5c0-7.7-6.2-13.9-13.9-13.9
	c-7.7,0-13.9,6.2-13.9,13.9c0,4.2,1.9,8,4.8,10.5c-8.7,3.6-14.8,12.1-14.8,22.1"/>
<path class="st14" d="M119,361.6c-0.5-9.8-8-18.2-16.8-22.6c-8.8-4.4-18.8-5.6-28.6-6.9c-6.5-0.8-14.4-3-15.8-9.4
	c-1.4-6.5,5-11.6,9-16.9c6-8,6.8-19.3,3.2-28.7c-3.6-9.4-11.1-16.9-19.8-21.8c-12.2-6.9-28-8.8-40.2-1.9c-9.4,5.2-15.6,15-18.7,25.3
	c-3,10.3-3.2,21.2-2.7,32c0.3,6.7,0.8,13.6-0.5,20.2c-1.3,6.6-4.7,13.2-10.5,16.5c-5.7,3.3-13.5,3.6-17.3,9
	c-2.3,3.2-2.5,7.4-2.7,11.3c-0.9,23-1.4,47.4,10.1,67.4c2.8,4.9,6.4,9.6,6.7,15.2c11.8-5.8,20.4-15.9,29.7-25.3
	c18.5-18.7,37-37.4,55.4-56c1.8-1.8,3.7-3.7,6-4.8c2.6-1.2,5.6-1.2,8.5-1.3C89,362.7,103.9,361.7,119,361.6z"/>
<path class="st14" d="M62.5,280.1c-3.7-1.8-7.8-3.2-10.6-6.2c-4.8-5.2-4.6-13.3-2.4-20c7.2-22,33.8-35.3,55.7-27.9
	c7.5,2.6,14.2,7.1,21.2,10.9c22.3,11.9,48.1,15.8,73.3,14.6c25.3-1.3,50-7.3,74.3-14.3c9.4-2.7,19-5.6,28.8-5.6
	c19.5,0,37.3,11.2,51.6,24.5c7.8,7.2,15.1,15.5,18.9,25.4c2.2,5.7,3.1,11.9,4.6,17.8c4.2,16.4,13.2,31.5,25.7,43
	c2.4,2.2,5.4,4.5,8.6,4.1c2.3-0.2,4.2-1.7,5.8-3.3c8.8-8.5,10.5-25.5-0.1-31.6c-8.7-5-20.5,0.7-25.5,9.5c-5,8.8-5.2,19.3-5.1,29.4
	c0,31,0,62.1,0.1,93.1c-16.4,3.2-30.8-10.7-41.4-23.6c-22.4-27.3-45.4-57.9-79.4-67.1c-15.1-4.1-31.1-3.5-46.7-2.3
	c-15.7,1.2-31.3,2.9-46.9,5.2c-7.9,1.1-15.9,2.5-23,6s-13,9.1-20,12.9c-12,6.6-27,5.9-33.3-7.8c-4.2-9.1,0.7-18.6,0.9-28.1
	C98.2,314.9,84.5,290.4,62.5,280.1z"/>
<circle class="st15" cx="51.1" cy="301.1" r="36.9"/>
<path class="st16" d="M295.4,259.5c0-26.1-21.2-47.3-47.3-47.3c-12.7,0-24.2,5-32.7,13.1c-3.8-1.4-7.9-2.1-12.2-2.1
	c-10.2,0-19.3,4.2-25.9,10.9c-3.4-1.5-7.1-2.3-11.1-2.3c-15.3,0-27.6,12.4-27.6,27.6"/>
<path class="st17" d="M155.3,321.6c-3.8-22.6-25.3-37.9-47.9-34c-11,1.9-20.2,7.9-26.4,16.2c-3.5-0.6-7.1-0.7-10.8,0
	c-8.8,1.5-16.1,6.5-20.9,13.3c-3.1-0.8-6.5-1-9.9-0.4c-13.2,2.2-22.1,14.8-19.9,28"/>
<path class="st18" d="M383,333.2c0-14.6-12.9-26.4-28.7-26.4c-4.1,0-8,0.8-11.5,2.2c-6.8-6.4-16.4-10.4-26.9-10.4
	c-4.4,0-8.7,0.7-12.6,2c-8.8-7.8-20.8-12.5-34-12.5c-27.1,0-49.2,20.2-49.2,45.2"/>
</svg>
