<svg id="Layer_1" data-name="Layer 1" xmlns="http://www.w3.org/2000/svg" viewBox="0 0 23.5012 17.35042"><defs><style>.cls-1{fill:#393;}</style></defs><title>t-shirt</title><path class="cls-1" d="M23.90408,17.6275L22.13585,4.67238a1.07458,1.07458,0,0,0-1.047-.98617H18.42429a0.45873,0.45873,0,1,0,0,.91746h2.66457a0.20149,0.20149,0,0,1,.13688.19324l0.21078,1.54437H2.89957L3.11039,4.79751a0.20211,0.20211,0,0,1,.13568-0.19384H14.30118a0.45873,0.45873,0,1,0,0-.91746H3.24607a1.07415,1.07415,0,0,0-1.0458.98677L1.91665,6.7498l-0.00055.004L1.5237,9.62708a0.45891,0.45891,0,0,0,.393.51656,0.46765,0.46765,0,0,0,.06265.00427A0.45935,0.45935,0,0,0,2.4339,9.75105L2.77426,7.25879H7.83741L5.37122,16.45038l-3.71648-.9943,0.2222-1.62548a0.45927,0.45927,0,0,0-.91012-0.12416L0.69147,15.7207l-0.00064.00454L0.43071,17.6281a1.28352,1.28352,0,0,0,.8879,1.45844l7.13047,1.90795a1.2448,1.2448,0,0,0,1.51348-.8638l0.53355-1.796,0.01106-.03525,0.00156-.00734,1.65871-5.58289,2.20488,7.4218a1.23863,1.23863,0,0,0,1.514.8633l7.13093-1.90809a1.28354,1.28354,0,0,0,.8868-1.45872h0ZM22.6806,15.456l-3.71685.99453-2.465-9.19177h5.063Zm-10.05388-4.4261L12.62567,7.5532c0.986,0.621,1.2288,1.473,1.39239,3.3187a0.45915,0.45915,0,0,0,.45694.41834c0.01354,0,.02726-0.00064.041-0.00184a0.45893,0.45893,0,0,0,.417-0.49742C14.78621,9.1347,14.53412,8.051,13.72668,7.25879h1.82106L18.07645,16.688l-3.49134.93421ZM8.78838,7.25879h2.02408C10.005,8.051,9.75289,9.1347,9.6061,10.791a0.45893,0.45893,0,0,0,.417.49742q0.02066,0.00186.041,0.00184a0.45915,0.45915,0,0,0,.45694-0.41834c0.15152-1.70952.37092-2.56658,1.186-3.17719l0.001,3.33532L9.74986,17.62181l-3.49134-.93408ZM8.68625,20.10806L1.55743,18.20053a0.38609,0.38609,0,0,1-.21647-0.449l0.18851-1.37908,4.04536,1.08229L5.577,17.45542l0.00174,0.00037,3.90963,1.046L9.08214,19.86933A0.33071,0.33071,0,0,1,8.68625,20.10806ZM22.77851,18.2002L15.64891,20.108a0.33031,0.33031,0,0,1-.39608-0.23836L14.84657,18.502l3.911-1.04649,0.00032,0,0.00037-.00014,4.04751-1.083,0.18815,1.37844a0.38652,0.38652,0,0,1-.21536.44946h0Z" transform="translate(-0.41681 -3.68621)"/><path class="cls-1" d="M16.3634,4.60372a0.45875,0.45875,0,1,0,0-.91751H16.36078A0.45876,0.45876,0,1,0,16.3634,4.60372Z" transform="translate(-0.41681 -3.68621)"/><path class="cls-1" d="M1.702,12.18851a0.459,0.459,0,1,0-.3292-0.77792l-0.00129.00133A0.45841,0.45841,0,0,0,1.702,12.18851Z" transform="translate(-0.41681 -3.68621)"/></svg>