<svg id="Layer_1" data-name="Layer 1" xmlns="http://www.w3.org/2000/svg" viewBox="0 0 23.48921 13.21707"><defs><style>.cls-1{fill:#393;}</style></defs><title>Apparel</title><path class="cls-1" d="M1.19624,18.80853H18.07458a1.10233,1.10233,0,0,0,1.10112-1.10112V10.363a4.77706,4.77706,0,0,0-4.77154-4.77154H4.86665A4.77706,4.77706,0,0,0,.09512,10.363v7.34441A1.10244,1.10244,0,0,0,1.19624,18.80853Zm5.8723-12.483h7.33563A4.04225,4.04225,0,0,1,18.44162,10.363v7.34441a0.36706,0.36706,0,0,1-.367.367H3.39813a0.36706,0.36706,0,0,1-.367-0.367V10.363A4.04225,4.04225,0,0,1,7.06854,6.32555ZM0.8292,10.363A4.03082,4.03082,0,0,1,2.49379,7.10372,4.747,4.747,0,0,0,1.19732,10.363v5.87481a0.367,0.367,0,1,0,.73408,0V10.363A4.03021,4.03021,0,0,1,3.58828,7.10945,4.74879,4.74879,0,0,0,2.297,10.363v7.34441a1.07581,1.07581,0,0,0,.06792.367H1.19624a0.36717,0.36717,0,0,1-.367-0.367V10.363Z" transform="translate(-0.09512 -5.59147)"/><path class="cls-1" d="M22.8506,8.89806A1.31017,1.31017,0,0,0,21.74948,7.4299a1.31017,1.31017,0,0,0-1.10112,1.46816v2.57036a0.36672,0.36672,0,0,0-.367.367v0.73337a0.36672,0.36672,0,0,0-.367.367v4.77154a1.10233,1.10233,0,0,0,1.10112,1.10112H22.4832a1.10244,1.10244,0,0,0,1.10112-1.10112V12.93587a0.367,0.367,0,0,0-.36668-0.367V11.83547a0.36683,0.36683,0,0,0-.367-0.367V8.89806ZM21.74948,8.164a0.68352,0.68352,0,0,1,.367.73408,0.68334,0.68334,0,0,1-.367.73408,0.68311,0.68311,0,0,1-.367-0.73408A0.68328,0.68328,0,0,1,21.74948,8.164Zm-0.367,2.11533a0.81841,0.81841,0,0,0,.73408,0v1.18912H21.38243V10.27931Zm-0.367,1.9232h1.46816v0.36632H21.01539V12.20251Zm1.83485,5.5049a0.36717,0.36717,0,0,1-.367.367H21.01539a0.36706,0.36706,0,0,1-.367-0.367V13.30292h2.20189v4.40449Z" transform="translate(-0.09512 -5.59147)"/><path class="cls-1" d="M10.73716,15.136a2.93633,2.93633,0,1,0-2.93633-2.93633A2.93981,2.93981,0,0,0,10.73716,15.136Zm0-5.13858a2.20225,2.20225,0,1,1-2.20225,2.20225A2.20443,2.20443,0,0,1,10.73716,9.99739Z" transform="translate(-0.09512 -5.59147)"/><path class="cls-1" d="M9.63676,12.20108h2.19633a0.367,0.367,0,0,0,0-.73408H9.63676A0.367,0.367,0,0,0,9.63676,12.20108Z" transform="translate(-0.09512 -5.59147)"/><path class="cls-1" d="M11.10492,12.56919h-0.74a0.367,0.367,0,0,0,0,.73408h0.74A0.367,0.367,0,1,0,11.10492,12.56919Z" transform="translate(-0.09512 -5.59147)"/></svg>