<svg id="Layer_1" data-name="Layer 1" xmlns="http://www.w3.org/2000/svg" viewBox="0 0 23.25625 24.4"><defs><style>.cls-1{fill:#393;}</style></defs><title>Apparel</title><path class="cls-1" d="M20.41859,3.835V0.38125A0.38079,0.38079,0,0,0,20.03734,0H14.69909a0.38079,0.38079,0,0,0-.38125.38125V3.835a3.43519,3.43519,0,0,0-3.04926,3.40761v4.1621a0.32674,0.32674,0,0,0-.00689.03314,0.31648,0.31648,0,0,0,.00689.03314V22.49375A1.90849,1.90849,0,0,0,13.17484,24.4h8.38676a1.90849,1.90849,0,0,0,1.90625-1.90625V7.24226A3.4351,3.4351,0,0,0,20.41859,3.835ZM15.08034,0.7625h4.57574V1.52388H18.13034a0.38079,0.38079,0,0,0-.38125.38125,0.38125,0.38125,0,0,1-.7625,0V1.90476a0.36287,0.36287,0,0,0-.01936-0.09531,0.41845,0.41845,0,0,0-.0108-0.05305c-0.00335-.00838-0.01061-0.01415-0.01489-0.02253a0.37769,0.37769,0,0,0-.3362-0.21036H16.605l-1.52463.00112V0.7625Zm0,1.52463,1.2143-.00037A1.13659,1.13659,0,0,0,18.441,2.28638h1.215V3.81213H15.08034v-1.525Zm7.625,20.20662a1.14524,1.14524,0,0,1-1.14375,1.14375H13.17484a1.14524,1.14524,0,0,1-1.14375-1.14375v-10.675h1.143v7.62686a0.38079,0.38079,0,0,0,.38125.38125h7.625a0.38079,0.38079,0,0,0,.38125-0.38125V11.81875h1.14375v10.675Zm-8.76875-3.42939V9.53051h6.8625v9.53386h-6.8625Zm8.76875-8.00811H21.56159v-1.907A0.38079,0.38079,0,0,0,21.18034,8.768h-7.625a0.38079,0.38079,0,0,0-.38125.38125v1.907h-1.143V7.24338a2.67223,2.67223,0,0,1,2.66875-2.66875h5.33676a2.67223,2.67223,0,0,1,2.66875,2.66875v3.81287Z" transform="translate(-0.21159)"/><path class="cls-1" d="M17.36784,15.24777a1.90849,1.90849,0,0,0,1.90625-1.90625c0-.95778-1.36937-2.30463-1.644-2.56506a0.38207,0.38207,0,0,0-.525,0c-0.27458.26043-1.644,1.60728-1.644,2.56506A1.90905,1.90905,0,0,0,17.36784,15.24777Zm0-3.65594a3.98781,3.98781,0,0,1,1.14375,1.74969,1.14375,1.14375,0,1,1-2.2875,0A4.00443,4.00443,0,0,1,17.36784,11.59182Z" transform="translate(-0.21159)"/><path class="cls-1" d="M19.27409,16.01287h-3.8125a0.38125,0.38125,0,1,0,0,.7625h3.8125A0.38125,0.38125,0,0,0,19.27409,16.01287Z" transform="translate(-0.21159)"/><path class="cls-1" d="M18.51159,17.15662h-2.2875a0.38125,0.38125,0,0,0,0,.7625h2.2875A0.38125,0.38125,0,0,0,18.51159,17.15662Z" transform="translate(-0.21159)"/><path class="cls-1" d="M5.16784,6.48125A4.962,4.962,0,0,0,.21159,11.4375v1.14375A4.94045,4.94045,0,0,0,.34991,13.725a4.95117,4.95117,0,0,0-.13831,1.14375V16.0125a4.94045,4.94045,0,0,0,.13831,1.14375A4.95117,4.95117,0,0,0,.21159,18.3v1.14375a4.95625,4.95625,0,0,0,9.9125,0V18.3a5.00529,5.00529,0,0,0-.13794-1.146,4.94263,4.94263,0,0,0,.13794-1.14152V14.86875a5.00529,5.00529,0,0,0-.13794-1.146,4.94263,4.94263,0,0,0,.13794-1.14152V11.4375A4.962,4.962,0,0,0,5.16784,6.48125Zm0,17.15625A4.18648,4.18648,0,0,1,1.785,21.912a4.92867,4.92867,0,0,0,6.7657,0A4.18648,4.18648,0,0,1,5.16784,23.6375Zm0-1.14375A4.19787,4.19787,0,0,1,.99308,18.67287a4.94358,4.94358,0,0,0,8.34952,0A4.19787,4.19787,0,0,1,5.16784,22.49375ZM1.785,18.48076a4.92867,4.92867,0,0,0,6.7657,0A4.17881,4.17881,0,0,1,1.785,18.48076ZM5.16784,19.0625A4.19787,4.19787,0,0,1,.99308,15.24162a4.94358,4.94358,0,0,0,8.34952,0A4.19787,4.19787,0,0,1,5.16784,19.0625ZM1.785,15.04951a4.92867,4.92867,0,0,0,6.7657,0A4.17881,4.17881,0,0,1,1.785,15.04951Zm3.38285,0.58174A4.19375,4.19375,0,1,1,9.36159,11.4375,4.19873,4.19873,0,0,1,5.16784,15.63125Z" transform="translate(-0.21159)"/></svg>