<?xml version="1.0" encoding="utf-8"?>
<!-- Generator: Adobe Illustrator 19.0.0, SVG Export Plug-In . SVG Version: 6.00 Build 0)  -->
<svg version="1.1" id="Capa_1" xmlns="http://www.w3.org/2000/svg" xmlns:xlink="http://www.w3.org/1999/xlink" x="0px" y="0px"
	 viewBox="-619 1053.3 487.7 487.7" style="enable-background:new -619 1053.3 487.7 487.7;" xml:space="preserve">
<style type="text/css">
	.st0{fill:#339933;}
</style>
<g>
	<g>
		<path class="st0" d="M-241,1335.7c-56.2-18.4-79.6-41.2-79.6-41.2l-1.9,1.8c-16.7,15.7-35.1,24.9-52,24.9h-1.6
			c-16.8,0-35.3-9.2-52-24.9l-1.9-1.8c0,0-23.4,22.8-79.6,41.2c-83,31-58.1,157.1-58.1,158.1c2.6,14,4.1,18.9,5.5,19.4
			c83.3,37.1,290.3,37.1,373.6,0c1.3-0.5,2.9-5.4,5.5-19.4C-182.9,1492.8-157.7,1367.2-241,1335.7z"/>
		<path class="st0" d="M-288.1,1174.8l-0.7-0.8c-4.7-4.3-4.3-4-4.3-4s8.1-41.1,1.6-60.5c-10.3-31-71.5-51.8-83.8-54.2
			c0,0-7.5-1.5-7.9-1.5c0,0-9.7-2-20.9,2.9c-7.3,2.8-45.4,20.1-56.2,52.8c-6.5,19.4,1.6,60.5,1.6,60.5s0.4-0.2-4.3,4l-0.7,0.8
			c-3.2,3.6-2.4,14.8,1.1,26.5c3.1,11.7,7.2,14.8,8.2,17.6c9.9,46.5,44.3,86.2,79.4,86.2s67.7-39.7,77.6-86.2
			c1-2.7,5.1-5.9,8.2-17.6C-285.7,1189.6-284.8,1177.6-288.1,1174.8z"/>
	</g>
</g>
</svg>
