<svg id="Layer_1" data-name="Layer 1" xmlns="http://www.w3.org/2000/svg" viewBox="0 0 13.32056 24.20944"><defs><style>.cls-1{fill:#393;}</style></defs><title>Apparel</title><path class="cls-1" d="M9.84792,5.33433V4.181a0.3575,0.3575,0,0,0-.3575-0.3575H7.29433a0.3575,0.3575,0,0,0-.3575.3575V5.36467a2.35911,2.35911,0,0,0-1.75738,2.2778V7.6534L5.67882,23.958a0.3575,0.3575,0,0,0,.3575.34657H10.8788a0.3575,0.3575,0,0,0,.3575-0.34657L11.73569,7.6534V7.64247A2.359,2.359,0,0,0,9.84792,5.33433h0Zm-2.19609-.7958H9.13291V5.2876H7.65183V4.53853Zm2.88045,19.05123H6.38305L5.89445,7.63747A1.64191,1.64191,0,0,1,7.53436,6.00261H9.38061a1.64191,1.64191,0,0,1,1.64007,1.63486Z" transform="translate(-5.17944 -0.09528)"/><path class="cls-1" d="M18.1425,14.05771H16.18083V5.30461h0.30643a0.3575,0.3575,0,1,0,0-.715H16.18083V4.28317h0.51072a0.3575,0.3575,0,1,0,0-.715H16.18083V3.21066h0.45965a0.3575,0.3575,0,1,0,0-.715H16.18083V2.18923h0.56179a0.3575,0.3575,0,0,0,0-.715H16.18083V0.45278a0.3575,0.3575,0,1,0-.715,0V1.47422H14.80189a0.3575,0.3575,0,0,0,0,.715h0.66393V2.49566H15.00618a0.3575,0.3575,0,1,0,0,.715h0.45965v0.3575H14.853a0.3575,0.3575,0,0,0,0,.715h0.61286V4.5896h-0.3575a0.3575,0.3575,0,0,0,0,.715h0.3575v8.7531H13.51488a0.3575,0.3575,0,0,0-.3575.3575v7.53443a2.35773,2.35773,0,0,0,2.35508,2.35508h0.63263A2.35773,2.35773,0,0,0,18.5,21.94964V14.41522a0.3575,0.3575,0,0,0-.3575-0.3575h0Zm-0.3575,7.892a1.642,1.642,0,0,1-1.63992,1.64007H15.5124a1.642,1.642,0,0,1-1.64-1.64012V14.77272H17.785v7.177Z" transform="translate(-5.17944 -0.09528)"/></svg>