<?xml version="1.0" encoding="utf-8"?>
<!-- Generator: Adobe Illustrator 19.2.0, SVG Export Plug-In . SVG Version: 6.00 Build 0)  -->
<svg version="1.1" id="Layer_1" xmlns="http://www.w3.org/2000/svg" xmlns:xlink="http://www.w3.org/1999/xlink" x="0px" y="0px"
	 viewBox="0 0 30 32" style="enable-background:new 0 0 30 32;" xml:space="preserve">
<style type="text/css">
	.st0{fill:none;stroke:#2E3192;stroke-miterlimit:10;}
	.st1{fill:#2E3192;}
</style>
<path id="XMLID_222_" class="st0" d="M23.9,14.8C22,10,17.3,9.3,17.3,9.3l-0.1-2.7c1.5,0,1.5-0.4,1.2-1.8c0-0.2-0.3-0.4-0.5-0.4
	l-2.9,0h0l-2.9,0c-0.2,0-0.4,0.2-0.5,0.4c-0.3,1.2-0.3,1.9,1.2,1.9l-0.1,2.6c0,0-4.7,0.6-6.7,5.4c-1.3,3.2-0.7,6.9,1.6,9.6
	c1.5,1.8,3.8,3.4,7.4,3.1c3.5,0.2,5.9-1.4,7.4-3.1C24.6,21.7,25.2,18,23.9,14.8z"/>
<path id="XMLID_220_" class="st0" d="M5.4,18.5c0,0,3.5,3.5,11.6,1c0,0,3.3-1.2,4.8,0"/>
<circle id="XMLID_199_" class="st0" cx="11.3" cy="16.7" r="1.7"/>
<circle id="XMLID_223_" class="st1" cx="14.3" cy="12.7" r="1.1"/>
</svg>
