<svg id="Layer_1" data-name="Layer 1" xmlns="http://www.w3.org/2000/svg" viewBox="0 0 8.62246 24.42378"><defs><style>.cls-1{fill:#393;}</style></defs><title>Apparel</title><path class="cls-1" d="M15.76682,14.30445H15.43241V8.97831A0.37235,0.37235,0,0,0,15.06205,8.604L15.05312,8.604H14.61807V1.63192A1.41508,1.41508,0,0,0,14.30019.333C13.54812-.419,11.89007.09425,10.45744,1.52683,9.17217,2.8121,8.63025,4.26982,9.06137,5.09916V8.604H8.62632a0.37235,0.37235,0,0,0-.37923.36533L8.247,8.97831v5.32614H7.91262a0.37628,0.37628,0,0,0-.38405.36833l-0.00008.00574v7.90732a1.82806,1.82806,0,0,0,1.82121,1.826h4.98a1.82806,1.82806,0,0,0,1.82121-1.826V14.67852a0.37627,0.37627,0,0,0-.37839-0.37415l-0.00574.00008h0ZM11.003,2.0688A3.90051,3.90051,0,0,1,13.3646.75291a0.53761,0.53761,0,0,1,.38662.1221c0.32449,0.32449.0273,1.52694-1.19378,2.74807S10.134,5.14127,9.80942,4.81682,9.78192,3.28988,11.003,2.0688ZM9.82781,5.66652a1.92142,1.92142,0,0,0,.35793.03717A4.608,4.608,0,0,0,13.103,4.165c0.28277-.283.50911-0.5743,0.74862-0.86546V8.604H9.82781V5.66652Zm-0.81434,3.704H14.666v4.934H9.01347v-4.934Zm6.371,13.21536a1.06075,1.06075,0,0,1-1.05477,1.0596h-4.98a1.06075,1.06075,0,0,1-1.05477-1.0596v-7.515h7.08958v7.515Z" transform="translate(-7.52849 0.01189)"/><path class="cls-1" d="M8.39881,11.83747a0.38322,0.38322,0,0,0,.38322.38322h4.69871a0.38322,0.38322,0,1,0,0-.76644H8.782A0.38322,0.38322,0,0,0,8.39881,11.83747Z" transform="translate(-7.52849 0.01189)"/></svg>