<svg id="Layer_1" data-name="Layer 1" xmlns="http://www.w3.org/2000/svg" viewBox="0 0 17.911 20.329"><defs><style>.cls-1{fill:#2e3192;}</style></defs><title>money-back-gurranty</title><path class="cls-1" d="M18.438,4.821l-2.4.961a2.785,2.785,0,0,1-2.069,0l-2.4-.961s-2.312-.687-2,1.375c0,0,1.312,2.187,2,2.437h6.875c0.688-.25,2-2.437,2-2.437C20.75,4.133,18.438,4.821,18.438,4.821Z" transform="translate(-6.044 -4.711)"/><rect class="cls-1" x="5.331" y="4.423" width="7.25" height="1" rx="0.5" ry="0.5"/><path class="cls-1" d="M22.323,15.68a14.79,14.79,0,0,0-4.053-5.047L15,10.7l-3.27-.063A14.791,14.791,0,0,0,7.677,15.68S5.751,19,6.083,21.238c0,0-.6,3.386,3.721,3.641a43.519,43.519,0,0,0,5.2.133,43.516,43.516,0,0,0,5.2-.133c4.319-.256,3.721-3.641,3.721-3.641C24.249,19,22.323,15.68,22.323,15.68ZM16.87,21.147a1.624,1.624,0,0,1-1.228.493,1.311,1.311,0,0,1-1.162-.621,2.383,2.383,0,0,1-.348-1.328V17.482h-0.84V17.095h0.84V15.269A1.217,1.217,0,0,0,14,14.679a0.529,0.529,0,0,0-.488-0.3,0.576,0.576,0,0,0-.467.229,0.792,0.792,0,0,0-.176.5H12.659a1.159,1.159,0,0,1,.237-0.744,0.823,0.823,0,0,1,.687-0.33,0.842,0.842,0,0,1,.739.392,1.441,1.441,0,0,1,.233.836v1.835h2.715v0.387H14.556v1.953a2.911,2.911,0,0,0,.211,1.18,0.945,0.945,0,0,0,.9.651,1.259,1.259,0,0,0,.946-0.4,1.353,1.353,0,0,0,.383-0.969,1.129,1.129,0,0,0-.189-0.668,0.686,0.686,0,0,0-.594-0.3,0.744,0.744,0,0,0-.493.177,0.59,0.59,0,0,0-.22.466,0.64,0.64,0,0,0,.295.6l-0.119.176a0.992,0.992,0,0,1-.392-0.8,0.964,0.964,0,0,1,.269-0.691,0.9,0.9,0,0,1,.678-0.282,0.989,0.989,0,0,1,.831.409,1.458,1.458,0,0,1,.282.911A1.749,1.749,0,0,1,16.87,21.147Z" transform="translate(-6.044 -4.711)"/></svg>