<svg id="Layer_1" data-name="Layer 1" xmlns="http://www.w3.org/2000/svg" viewBox="0 0 19.51587 24.4"><defs><style>.cls-1{fill:#393;}</style></defs><title>Apparel</title><path class="cls-1" d="M10.20681,3.13331a3.24813,3.24813,0,0,0-6.4922,0,2.83262,2.83262,0,0,0-1.63282,2.564V23.58685A0.81314,0.81314,0,0,0,2.89494,24.4h8.13153a0.81314,0.81314,0,0,0,.81315-0.81315V5.69729A2.83262,2.83262,0,0,0,10.20681,3.13331Zm-5.68556.12433a2.43946,2.43946,0,1,1,4.87892,0V7.73008a2.4312,2.4312,0,0,1-.08133.6127c-0.02029-.0214-0.03741-0.04541-0.05844-0.06663A3.24364,3.24364,0,0,0,4.602,8.34445a2.42677,2.42677,0,0,1-.08078-0.61438V3.25764Zm4.4166,5.8955a2.43127,2.43127,0,0,1-3.95354,0A2.41835,2.41835,0,0,1,8.93785,9.15314Zm2.08863,14.43371H2.89494V5.69729a2.02977,2.02977,0,0,1,.81315-1.62649V7.73008a3.22646,3.22646,0,0,0,.46064,1.66018L4.17525,9.40068a3.24312,3.24312,0,0,0,5.57017,0l0.00447-.00726a3.22773,3.22773,0,0,0,.46344-1.66334V4.07079a2.02951,2.02951,0,0,1,.81315,1.62649V23.58685Z" transform="translate(-2.08179)"/><path class="cls-1" d="M5.3344,17.89477a0.4077,0.4077,0,0,0,.2883-0.118,0.419,0.419,0,0,0,.11819-0.28867A0.40314,0.40314,0,0,0,5.70794,17.334a0.3983,0.3983,0,0,0-.08524-0.1301,0.41391,0.41391,0,0,0-.2883-0.12247,0.4068,0.4068,0,0,0-.28867.12209,0.47539,0.47539,0,0,0-.0899.1301,0.41355,0.41355,0,0,0,.0899.44278A0.407,0.407,0,0,0,5.3344,17.89477Z" transform="translate(-2.08179)"/><path class="cls-1" d="M8.587,17.08143H6.95345a0.40667,0.40667,0,1,0,0,.81334H8.587A0.40667,0.40667,0,1,0,8.587,17.08143Z" transform="translate(-2.08179)"/><path class="cls-1" d="M8.587,18.70793H5.3344a0.40658,0.40658,0,1,0,0,.81315H8.587A0.40658,0.40658,0,1,0,8.587,18.70793Z" transform="translate(-2.08179)"/><path class="cls-1" d="M8.587,20.33423H5.3344a0.40658,0.40658,0,1,0,0,.81315H8.587A0.40658,0.40658,0,1,0,8.587,20.33423Z" transform="translate(-2.08179)"/><path class="cls-1" d="M19.139,0.21162l-0.00726-.00335a3.65024,3.65024,0,0,0-4.85249,3.456V23.99352a0.40653,0.40653,0,0,0,.40648.40648h6.50541a0.40653,0.40653,0,0,0,.40648-0.40648V3.66431A3.66209,3.66209,0,0,0,19.139.21162ZM20.7845,19.11441H18.51329L20.7845,16.8432v2.27121Zm0-3.42105-3.42105,3.42105h-1.6961l5.11715-5.11715v1.6961Zm0-2.84594-5.69207,5.69207V16.8432l5.69207-5.69207v1.69629Zm0-2.84613-5.69207,5.69207v-1.6961L20.7845,8.305v1.69629Zm0-2.84613-5.69207,5.69226V11.15113L20.7845,5.45887V7.15515Zm0-3.49085v0.6449l-5.69207,5.69207V8.305l5.54281-5.543A2.82324,2.82324,0,0,1,20.7845,3.66431ZM20.24457,2.003L15.09243,7.15515V5.05238l3.99132-3.9902A2.85619,2.85619,0,0,1,20.24457,2.003Zm-2.3062-1.18483c0.07649,0,.15169.00577,0.22688,0.01135l-3.07282,3.073V3.66431A2.8492,2.8492,0,0,1,17.93837.81818ZM15.09243,23.58685V19.92756H20.7845v3.65928H15.09243Z" transform="translate(-2.08179)"/></svg>