<svg id="Layer_1" data-name="Layer 1" xmlns="http://www.w3.org/2000/svg" viewBox="0 0 21.74859 24.4"><defs><style>.cls-1{fill:#393;}</style></defs><title>Apparel</title><path class="cls-1" d="M16.606,7.02725V1.68134A1.68325,1.68325,0,0,0,14.92464,0H13.19046a0.39352,0.39352,0,0,0-.39355.39355V1.98931a0.95808,0.95808,0,0,1-1.91616,0V0.39355A0.39352,0.39352,0,0,0,10.4872,0H8.75291A1.6832,1.6832,0,0,0,7.07162,1.68134V7.02856C1.71049,11.07435.96543,16.89907,0.96543,22.59786a1.80214,1.80214,0,0,0,3.60427,0c0-3.78336.31914-7.68841,2.60786-10.66406a4.6558,4.6558,0,0,0,4.25053-4.315h0.82325a4.65576,4.65576,0,0,0,4.25053,4.315c2.28872,2.9757,2.60786,6.88075,2.60786,10.66406a1.80214,1.80214,0,1,0,3.60427,0C22.714,16.89849,21.96869,11.07309,16.606,7.02725ZM13.584,1.98931V0.7871h1.34064a0.89526,0.89526,0,0,1,.89425.89425v1.266H13.29645A1.73468,1.73468,0,0,0,13.584,1.98931Zm-5.72524-.308A0.89525,0.89525,0,0,1,8.753.7871H10.0937V1.98931a1.7471,1.7471,0,0,0,1.74515,1.74515h3.98009V6.83163H7.85882V1.68134H7.85877Zm-0.87646,9.47a0.39367,0.39367,0,0,0-.30749.14792,12.23637,12.23637,0,0,0-2.33253,5.06434,28.2664,28.2664,0,0,0-.55968,6.23423,1.015,1.015,0,0,1-2.03008,0c0-5.512.71049-11.13789,5.84278-14.97913h3.04381A3.83526,3.83526,0,0,1,6.98231,11.15138ZM20.91188,23.6129a1.01621,1.01621,0,0,1-1.015-1.015,28.26647,28.26647,0,0,0-.55968-6.23423,12.23639,12.23639,0,0,0-2.33253-5.06434,0.39358,0.39358,0,0,0-.30749-0.14792,3.83517,3.83517,0,0,1-3.65675-3.53265h3.04381C21.21648,11.46,21.927,17.08583,21.927,22.59786A1.01633,1.01633,0,0,1,20.91188,23.6129Z" transform="translate(-0.96543)"/><path class="cls-1" d="M12.90747,10.77714a1.77638,1.77638,0,0,1-2.13156.00315,0.39354,0.39354,0,1,0-.49655.61068,2.56125,2.56125,0,0,0,3.12682-.005A0.39351,0.39351,0,1,0,12.90747,10.77714Z" transform="translate(-0.96543)"/><path class="cls-1" d="M11.8388,6.28974a1.0067,1.0067,0,1,0-1.0067-1.0067A1.00785,1.00785,0,0,0,11.8388,6.28974Zm0-1.22624a0.2196,0.2196,0,1,1-.2196.2196A0.21982,0.21982,0,0,1,11.8388,5.0635Z" transform="translate(-0.96543)"/></svg>