<svg id="Layer_1" data-name="Layer 1" xmlns="http://www.w3.org/2000/svg" viewBox="0 0 10.37516 24.4"><defs><style>.cls-1{fill:none;}.cls-2{fill:#393;}</style></defs><title>Apparel</title><path class="cls-1" d="M9.59686,3.66068a0.14826,0.14826,0,0,0,.29489,0,0.94877,0.94877,0,0,1,.39207-0.58995l0.25345-.06962a0.29458,0.29458,0,0,0,.18526-0.13567,0.15736,0.15736,0,0,0-.0097-0.1809,0.25381,0.25381,0,0,0-.14234-0.08707,0.72514,0.72514,0,0,1-.5772-0.51431L9.97411,2.02336A7.62636,7.62636,0,0,0,9.324,3.14173,1.26125,1.26125,0,0,1,9.59686,3.66068Z" transform="translate(-6.65214 0)"/><path class="cls-1" d="M14.18327,4.56813l-0.05-.15581a0.16508,0.16508,0,0,0-.0248-0.0773l-0.00228-.0071L14.1025,4.32511a0.21159,0.21159,0,0,0-.33647,0l-0.00371.00282L13.76,4.335a0.16511,0.16511,0,0,0-.0248.07726l-0.05.15583a0.72514,0.72514,0,0,1-.5772.51431,0.25379,0.25379,0,0,0-.14233.08707,0.15735,0.15735,0,0,0-.0097.1809,0.29458,0.29458,0,0,0,.18526.13567l0.25345,0.06962a0.94879,0.94879,0,0,1,.39208.58995,0.14826,0.14826,0,0,0,.29489,0,0.94877,0.94877,0,0,1,.39207-0.58995l0.25345-.06962A0.29458,0.29458,0,0,0,14.9125,5.3504a0.15736,0.15736,0,0,0-.0097-0.1809,0.25381,0.25381,0,0,0-.14234-0.08707A0.72514,0.72514,0,0,1,14.18327,4.56813Z" transform="translate(-6.65214 0)"/><path class="cls-1" d="M8.77576,2.68455a0.15735,0.15735,0,0,0-.0097.1809,0.25338,0.25338,0,0,0,.08367.089q0.08945-.20038.19-0.39647a1.25243,1.25243,0,0,1-.1216.03948A0.25379,0.25379,0,0,0,8.77576,2.68455Z" transform="translate(-6.65214 0)"/><path class="cls-1" d="M15.20523,5.839l-0.17057.04878A2.02582,2.02582,0,0,0,14.235,7.14055a0.30135,0.30135,0,0,1-.60145,0,2.02582,2.02582,0,0,0-.79967-1.25279l-0.51694-.14784a0.60342,0.60342,0,0,1-.37786-0.28809,0.34536,0.34536,0,0,1,.01979-0.38414,0.51509,0.51509,0,0,1,.29029-0.1849,1.49777,1.49777,0,0,0,1.17723-1.09212l0.102-.33093a0.36078,0.36078,0,0,1,.05056-0.16406l0.00466-.01512,0.00755-.006a0.42135,0.42135,0,0,1,.68626,0l0.00754,0.006,0.00465,0.01508a0.36083,0.36083,0,0,1,.05058.16415l0.102,0.33088a1.16742,1.16742,0,0,0,.52965.7997A7.72546,7.72546,0,0,0,13.3555,1.43677,2.04712,2.04712,0,0,0,11.90256.70466l-0.01224-.00055-0.01224.00055a2.04713,2.04713,0,0,0-1.45293.73211c-0.03528.04156-.06866,0.08387-0.10286,0.12585a1.64677,1.64677,0,0,0,1.10712.83522,0.51509,0.51509,0,0,1,.29029.1849,0.34539,0.34539,0,0,1,.01979.38414,0.60347,0.60347,0,0,1-.37787.28809l-0.51693.14784A2.02582,2.02582,0,0,0,10.045,4.65559a0.30135,0.30135,0,0,1-.60145,0,3.151,3.151,0,0,0-.38047-0.888,8.57811,8.57811,0,0,0-.45093,1.84948,22.90651,22.90651,0,0,0-.26978,3.121,3.96657,3.96657,0,0,0,1.04383,2.87058,3.47858,3.47858,0,0,0,5.00821,0,3.96649,3.96649,0,0,0,1.04382-2.87058A24.8461,24.8461,0,0,0,15.20523,5.839Z" transform="translate(-6.65214 0)"/><path class="cls-1" d="M10.06936,6.04394a2.78115,2.78115,0,0,0-1.5857.49437c-0.07037.65781-.11348,1.404-0.14126,2.19985a3.96657,3.96657,0,0,0,1.04383,2.87058,3.47858,3.47858,0,0,0,5.00821,0,3.96649,3.96649,0,0,0,1.04382-2.87058c-0.02666-.76385-0.0678-1.48078-0.13343-2.11832a2.77983,2.77983,0,0,0-1.69473-.57589H10.06936Z" transform="translate(-6.65214 0)"/><path class="cls-1" d="M13.92673,5.26012a3.08876,3.08876,0,0,1,1.22481.25229,9.00135,9.00135,0,0,0-.17975-0.922A7.72546,7.72546,0,0,0,13.3555,1.43677,2.04712,2.04712,0,0,0,11.90256.70466l-0.01224-.00055-0.01224.00055a2.04713,2.04713,0,0,0-1.45293.73211c-0.03528.04156-.06866,0.08387-0.10286,0.12585q-0.18436.22632-.34817,0.46074A7.62636,7.62636,0,0,0,9.324,3.14173c-0.09657.20484-.1827,0.4138-0.26087,0.6259A8.52645,8.52645,0,0,0,8.63535,5.471a3.08715,3.08715,0,0,1,1.11736-.21089h4.174Z" transform="translate(-6.65214 0)"/><path class="cls-1" d="M14.75439,12.18648a3.87877,3.87877,0,0,1-2.86407,1.189,3.87877,3.87877,0,0,1-2.86406-1.189A4.37264,4.37264,0,0,1,7.83238,8.97884c0.02469-.691.05986-1.3487,0.11192-1.953a2.78248,2.78248,0,0,0-.67063,1.81379v14.8832h9.1321V8.83963a2.77945,2.77945,0,0,0-.558-1.67079c0.04584,0.56425.07772,1.1727,0.10048,1.81A4.37253,4.37253,0,0,1,14.75439,12.18648Z" transform="translate(-6.65214 0)"/><path class="cls-2" d="M9.8602,9.98431l0.51694,0.14784a2.02582,2.02582,0,0,1,.79967,1.25279,0.30135,0.30135,0,0,0,.60145,0,2.02582,2.02582,0,0,1,.79967-1.25279l0.51693-.14784a0.60347,0.60347,0,0,0,.37787-0.28809,0.34536,0.34536,0,0,0-.01979-0.38414,0.51509,0.51509,0,0,0-.29029-0.1849A1.49779,1.49779,0,0,1,11.9854,8.03506l-0.102-.33088A0.36083,0.36083,0,0,0,11.83286,7.54L11.82821,7.525l-0.00754-.006a0.42135,0.42135,0,0,0-.68626,0l-0.00755.006-0.00466.01512a0.36078,0.36078,0,0,0-.05056.16406l-0.102.33093A1.49777,1.49777,0,0,1,9.79242,9.12718a0.51509,0.51509,0,0,0-.29029.1849,0.34536,0.34536,0,0,0-.01979.38414A0.60342,0.60342,0,0,0,9.8602,9.98431ZM10.509,9.41389a0.25379,0.25379,0,0,1,.14233-0.08707,0.72514,0.72514,0,0,0,.5772-0.51431l0.05-.15583a0.16511,0.16511,0,0,1,.0248-0.07726l0.00228-.00712,0.00371-.00282a0.21159,0.21159,0,0,1,.33647,0l0.00369,0.00281,0.00228,0.0071a0.16508,0.16508,0,0,1,.0248.0773l0.05,0.15581a0.72514,0.72514,0,0,0,.5772.51431,0.25381,0.25381,0,0,1,.14234.08707,0.15736,0.15736,0,0,1,.0097.1809,0.29458,0.29458,0,0,1-.18526.13567l-0.25345.06962A0.94877,0.94877,0,0,0,11.625,10.39a0.14826,0.14826,0,0,1-.29489,0A0.94879,0.94879,0,0,0,10.938,9.80008l-0.25345-.06962a0.29458,0.29458,0,0,1-.18526-0.13567A0.15735,0.15735,0,0,1,10.509,9.41389Z" transform="translate(-6.65214 0)"/><path class="cls-2" d="M15.69233,5.81361q-0.03871-.26976-0.08293-0.52268c-0.02262-.14551-0.04714-0.29029-0.07582-0.43345q-0.0575-.28692-0.132-0.56729C14.30977-.16632,11.90432.002,11.90432,0.002l-0.014-.00061s-2.96692-.24588-3.79178,5.74a3.09549,3.09549,0,0,0-1.4464,2.61927V24.4H17.0273V8.36069A3.09557,3.09557,0,0,0,15.69233,5.81361ZM14.90106,5.3665a0.30139,0.30139,0,0,1-.17383.11956l-0.25345.06962a0.94877,0.94877,0,0,0-.39207.58995,0.14826,0.14826,0,0,1-.29489,0,0.94879,0.94879,0,0,0-.39208-0.58995l-0.25345-.06962A0.29458,0.29458,0,0,1,12.956,5.3504a0.15735,0.15735,0,0,1,.0097-0.1809A0.25379,0.25379,0,0,1,13.108,5.08244a0.72514,0.72514,0,0,0,.5772-0.51431l0.05-.15583A0.16511,0.16511,0,0,1,13.76,4.335l0.00228-.00712L13.766,4.3251a0.21159,0.21159,0,0,1,.33647,0L14.1062,4.32792,14.10847,4.335a0.16508,0.16508,0,0,1,.0248.0773l0.05,0.15581a0.72514,0.72514,0,0,0,.5772.51431,0.29936,0.29936,0,0,1,.08917.04042C14.86719,5.20287,14.8844,5.28383,14.90106,5.3665ZM9.97411,2.02336L9.99331,2.08317a0.72514,0.72514,0,0,0,.5772.51431,0.25381,0.25381,0,0,1,.14234.08707,0.15736,0.15736,0,0,1,.0097.1809,0.29458,0.29458,0,0,1-.18526.13567l-0.25345.06962a0.94877,0.94877,0,0,0-.39207.58995,0.14826,0.14826,0,0,1-.29489,0,1.48366,1.48366,0,0,0-.167-0.3871C9.7295,2.499,9.97411,2.02336,9.97411,2.02336ZM9.16285,4.0092L9.17848,3.964a3.2339,3.2339,0,0,1,.2651.69158,0.30135,0.30135,0,0,0,.60145,0,2.02582,2.02582,0,0,1,.79967-1.25279L11.36162,3.255a0.60347,0.60347,0,0,0,.37787-0.28809,0.34539,0.34539,0,0,0-.01979-0.38414,0.51509,0.51509,0,0,0-.29029-0.1849,1.64677,1.64677,0,0,1-1.10712-.83522c0.0342-.042.06759-0.0843,0.10286-0.12585A2.04713,2.04713,0,0,1,11.87808.70466l0.01224-.00055,0.01224,0.00055a2.02271,2.02271,0,0,1,1.25724.53,2.1089,2.1089,0,0,1,.35085.42608A9.935,9.935,0,0,1,14.6334,4.26568a1.06882,1.06882,0,0,1-.19127-0.475l-0.102-.33088a0.36083,0.36083,0,0,0-.05058-0.16415l-0.00465-.01508-0.00754-.006a0.42135,0.42135,0,0,0-.68626,0l-0.00755.006-0.00466.01512a0.36078,0.36078,0,0,0-.05056.16406l-0.102.33093A1.49777,1.49777,0,0,1,12.24914,4.8828a0.51509,0.51509,0,0,0-.29029.1849,0.34536,0.34536,0,0,0-.01979.38414,0.60342,0.60342,0,0,0,.37786.28809l0.51694,0.14784a2.02582,2.02582,0,0,1,.79967,1.25279,0.30135,0.30135,0,0,0,.60145,0,2.122,2.122,0,0,1,.76435-1.2384A18.0448,18.0448,0,0,1,15.19841,9.688a2.99719,2.99719,0,0,1-.79411,1.91024l-0.00987.01047a3.47858,3.47858,0,0,1-5.00821,0Q9.318,11.53661,9.25406,11.46123a3.513,3.513,0,0,1-.79855-2.29337A18.17792,18.17792,0,0,1,9.16285,4.0092Zm7.24292,19.71363H7.27367V8.83963A2.78248,2.78248,0,0,1,7.9443,7.02584c-0.05206.6043-.08723,1.262-0.11192,1.953a4.37264,4.37264,0,0,0,1.19388,3.20764,3.87877,3.87877,0,0,0,2.86406,1.189,3.87877,3.87877,0,0,0,2.86407-1.189,4.37253,4.37253,0,0,0,1.19387-3.20764c-0.02276-.6373-0.05464-1.24575-0.10048-1.81a2.77945,2.77945,0,0,1,.558,1.67079v14.8832Z" transform="translate(-6.65214 0)"/><rect class="cls-2" x="2.68448" y="16.97395" width="5.03038" height="0.79597" rx="0.39798" ry="0.39798"/><path class="cls-2" d="M14.72709,18.91115a0.30724,0.30724,0,0,0-.36743-0.06952q-0.16711.08508-.34473,0.15651a6.01841,6.01841,0,0,1-2.80778.31761L11.1781,19.313a5.324,5.324,0,0,1-1.48941-.31485Q9.5112,18.92653,9.344,18.84163a0.30725,0.30725,0,0,0-.36744.06952,0.3178,0.3178,0,0,0-.06313.34963,0.80119,0.80119,0,0,0,.29427.30442,1.97537,1.97537,0,0,0,.4882.23423,4.92864,4.92864,0,0,0,1.35453.22378c0.46505,0.0223.9285,0.05318,1.39467,0.03507a5.92,5.92,0,0,0,1.41049-.21176q0.04177-.012.08331-0.02484a2.181,2.181,0,0,0,.48367-0.20672,0.87715,0.87715,0,0,0,.36768-0.35418A0.31779,0.31779,0,0,0,14.72709,18.91115Z" transform="translate(-6.65214 0)"/></svg>