<svg id="Layer_1" data-name="Layer 1" xmlns="http://www.w3.org/2000/svg" viewBox="0 0 23.5053 23.50667"><defs><style>.cls-1{fill:#393;}</style></defs><title>Apparel</title><path class="cls-1" d="M23.53285,0.93035A0.783,0.783,0,0,0,22.80556.44668H16.18091A1.18,1.18,0,0,0,15.343.79234L12.85082,3.27808a1.174,1.174,0,0,0-.00041,1.67081l0.562,0.55668L10.58422,8.29285c-0.05633-.10931-0.11381-0.218-0.17928-0.32028l-0.00041-.00138L10.40066,7.9649l-0.005-.00882-0.00551-.00822a1.88691,1.88691,0,0,0-.141-0.21041l-0.00138-.00174-0.00395-.00592a4.42972,4.42972,0,0,0-.30494-0.38221L9.93861,7.3479,9.93393,7.342,9.93034,7.33945c-0.00909-.01-0.01846-0.02011-0.02856-0.02975C9.84839,7.25236,9.79422,7.19639,9.73986,7.14433l-0.021-.02153-0.002-.00124A4.20949,4.20949,0,0,0,7.31656,5.97212,2.293,2.293,0,0,0,7.079,5.94554a0.49933,0.49933,0,0,0-.06772-0.00592A0.673,0.673,0,0,0,6.91947,5.937L6.88421,5.93544l-0.00193.00041c-0.0438-.00243-0.0887-0.00418-0.135-0.00418H5.96369c-0.08755,0-.17419.0039-0.23892,0.00767l-0.02392.00078-0.00427.0011a0.40034,0.40034,0,0,0-.0646.00445A2.14247,2.14247,0,0,0,5.41009,5.97l-0.01074.00179-0.00491.00051-0.00138.00051a4.22163,4.22163,0,0,0-2.401,1.15013c-0.05968.05643-.11671,0.11611-0.18672,0.1915a0.33737,0.33737,0,0,0-.02626.02626L2.777,7.34212l-0.00363.00418L2.772,7.34767l-0.00225.00285a3.18186,3.18186,0,0,0-.295.36867l-0.00537.008L2.46629,7.731c-0.052.07346-.1033,0.14733-0.1465,0.21753L2.3101,7.96578l-0.00372.00556-0.00073.00234a4.23045,4.23045,0,0,0-.60837,1.69308A5.10123,5.10123,0,0,0,.08707,13.37534v9.79442a0.7844,0.7844,0,0,0,.78352.78357H11.84035a0.78447,0.78447,0,0,0,.78357-0.78357V13.37534a5.10158,5.10158,0,0,0-.8995-2.8831L15.094,7.17132l0.56843,0.56306a1.19489,1.19489,0,0,0,1.67613.00041L23.3599,1.78656A0.7831,0.7831,0,0,0,23.53285.93035ZM2.43774,10.24115c0-.12088.00725-0.2347,0.018-0.35219l0.00055-.01125,0.00014-.00248,0.00009-.00156,0.00193-.01625H2.45885a3.46023,3.46023,0,0,1,.52454-1.49194c0.03866-.06331.08071-0.12263,0.122-0.18117a3.707,3.707,0,0,1,.24641-0.30949L3.3786,7.84806c0.04178-.04458.08484-0.08934,0.13062-0.13388l0.01937-.01974L3.52891,7.694l0.00275-.0028A3.46307,3.46307,0,0,1,5.5223,6.74508a1.61115,1.61115,0,0,1,.17942-0.01873,0.34068,0.34068,0,0,0,.03742-0.00376l0.00161,0c0.07194-.00367.1477-0.0073,0.22308-0.0073H6.7474c0.03443-.00018.07-0.00055,0.137,0.00381a0.51071,0.51071,0,0,1,.06161.00152l0.02332,0.0017a0.347,0.347,0,0,0,.04017.004,1.75016,1.75016,0,0,1,.19512.021,3.45058,3.45058,0,0,1,1.978.94711c0.05243,0.0488.101,0.10137,0.15,0.15362,0.00767,0.0084.01607,0.01644,0.02447,0.0241a3.644,3.644,0,0,1,.24416.30632l0.007,0.00946c0.041,0.05822.082,0.116,0.1246,0.18544a3.2636,3.2636,0,0,1,.25935.50319l-2.18933,2.1577a4.84618,4.84618,0,0,0-2.7629,1.55947c-0.48932.48974-.23952,1.47817,0.58156,2.2992a3.05169,3.05169,0,0,0,1.14586.74546,1.5857,1.5857,0,0,0,.49892.08838,0.89521,0.89521,0,0,0,.65461-0.25215,4.83021,4.83021,0,0,0,1.56035-2.77144l0.79225-.78077v3.41177A3.89449,3.89449,0,0,1,9.588,17.54368a4.41609,4.41609,0,0,0-2.84059-1.0342H5.96387a4.41628,4.41628,0,0,0-2.84059,1.0342,3.89414,3.89414,0,0,1-.68541-2.20953v-5.093H2.43774Zm5.3872,1.58013,0.86915,0.86089a4.25777,4.25777,0,0,1-1.32744,2.23846A0.45553,0.45553,0,0,1,7.01506,14.895a2.29846,2.29846,0,0,1-.83981-0.55613,1.428,1.428,0,0,1-.58156-1.19122A4.273,4.273,0,0,1,7.82494,11.82128Zm1.25715,6.32044a3.90314,3.90314,0,0,1-5.45322,0,3.62926,3.62926,0,0,1,2.33483-.84858H6.74726A3.62893,3.62893,0,0,1,9.08209,18.14172Zm2.75827-4.76639v9.79442H0.87059V13.37534A4.311,4.311,0,0,1,1.65416,10.906v4.42825a4.67754,4.67754,0,0,0,1.1241,3.04292,0.36174,0.36174,0,0,0,.02369.03393c0.005,0.00468.01152,0.00606,0.01667,0.01047a4.68223,4.68223,0,0,0,7.07339.00037c0.00528-.0045.01189-0.006,0.017-0.01083a0.36152,0.36152,0,0,0,.02369-0.03393,4.67754,4.67754,0,0,0,1.1241-3.04292v-4.184l0.09967-.09825A4.31461,4.31461,0,0,1,11.84035,13.37534ZM9.0987,11.97981l-0.56815-.5626L10.68072,9.298a0.37757,0.37757,0,0,0,.08149-0.0803l3.207-3.16068L14.1536,6.23969l0.38368,0.38Zm7.68865-4.80211a0.40855,0.40855,0,0,1-.57311,0l-0.84349-.8354-0.00014-.00018L14.24579,5.228l-0.00037-.00028-0.84362-.8355a0.39095,0.39095,0,0,1,.00115-0.55838l2.493-2.48629a0.40648,0.40648,0,0,1,.285-0.11726h6.62465L22.80942,1.229Z" transform="translate(-0.08707 -0.44667)"/></svg>