<svg id="Layer_1" data-name="Layer 1" xmlns="http://www.w3.org/2000/svg" viewBox="0 0 8.58407 23.41082"><defs><style>.cls-1{fill:#393;}</style></defs><title>Apparel</title><path class="cls-1" d="M15.83264,6.22219c0.196-1.07786.29327-2.13592,0.29751-2.1804a0.39018,0.39018,0,0,0-.11266-0.31126L14.57085,2.2841V0.885A0.39018,0.39018,0,0,0,13.7905.88451h0V2.16446l-1.95088.65033L9.88874,2.16446V0.885a0.39018,0.39018,0,1,0-.78035,0V2.2841L7.662,3.73053a0.39019,0.39019,0,0,0-.11266.31126c0.00405,0.04448.10135,1.10269,0.29751,2.1804A4.78388,4.78388,0,0,0,8.61867,8.4637a13.86359,13.86359,0,0,0-1.071,4.1266V23.51523a0.39018,0.39018,0,0,0,.39018.39018h7.80352a0.39018,0.39018,0,0,0,.39018-0.39018h0V12.5903a13.87,13.87,0,0,0-1.07079-4.1266A4.78391,4.78391,0,0,0,15.83264,6.22219ZM8.57716,5.87055C8.45558,5.15652,8.37754,4.468,8.34457,4.15167L9.60411,2.89214l2.11212,0.70412a0.39043,0.39043,0,0,0,.24679,0l2.11227-.70412,1.25954,1.25959c-0.03282.31536-.11057,1.00119-0.23191,1.71453A4.809,4.809,0,0,1,14.507,7.91341l-0.00936.0021V7.91517a23.51724,23.51724,0,0,1-2.658.3832,23.52051,23.52051,0,0,1-2.65807-.3832V7.91551l-0.00936-.0021A4.79828,4.79828,0,0,1,8.57716,5.87055Zm6.774,6.71976V23.12506H12.98328l-0.00019-.00275H12.20077l0.0002,0.00275H11.47828l0.0002-.00275H10.69616l-0.00019.00275H8.328V12.5903A13.36811,13.36811,0,0,1,9.34918,8.73985c0.38823,0.07048,1.06664.18865,1.652,0.26517l-0.00129.00775H12.6794L12.67811,9.005c0.58526-.07652,1.26373-0.1947,1.652-0.26518A13.36813,13.36813,0,0,1,15.35121,12.5903Z" transform="translate(-7.54768 -0.49459)"/></svg>