<?xml version="1.0" encoding="utf-8"?>
<!-- Generator: Adobe Illustrator 19.2.0, SVG Export Plug-In . SVG Version: 6.00 Build 0)  -->
<svg version="1.1" id="Layer_1" xmlns="http://www.w3.org/2000/svg" xmlns:xlink="http://www.w3.org/1999/xlink" x="0px" y="0px"
	 viewBox="0 0 30 32" style="enable-background:new 0 0 30 32;" xml:space="preserve">
<style type="text/css">
	.st0{fill:none;stroke:#2E3192;stroke-miterlimit:10;}
</style>
<g id="XMLID_113_">
	<g id="XMLID_165_">
		<polygon id="XMLID_168_" class="st0" points="5.2,11.5 5.2,11.5 5.2,11.5 		"/>
		<polygon id="XMLID_169_" class="st0" points="24.8,11.5 24.8,11.5 24.8,11.5 		"/>
		<path id="XMLID_170_" class="st0" d="M23.8,10.8H15H6.2c-0.5,0-1,0.4-1,0.9c0,2.2,0.6,4.4,1.9,6.2c1.2,1.7,2.9,3.6,4.8,3.6H15h3.1
			c1.9,0,3.6-2,4.8-3.7c1.2-1.8,1.9-3.8,1.9-5.9C24.8,11.3,24.3,10.8,23.8,10.8z"/>
	</g>
	<rect id="XMLID_166_" x="11.9" y="21.5" class="st0" width="6" height="2.2"/>
	<rect id="XMLID_167_" x="8.8" y="4.8" class="st0" width="3" height="6"/>
	<rect id="XMLID_172_" x="18" y="4.8" class="st0" width="3" height="6"/>
	<polyline id="XMLID_152_" class="st0" points="16.4,27.2 16.4,23.8 13.4,23.8 13.4,27.2 14.2,27.2 15.5,27.2 	"/>
</g>
</svg>
