<svg id="Layer_1" data-name="Layer 1" xmlns="http://www.w3.org/2000/svg" viewBox="0 0 23.22581 23.22581"><defs><style>.cls-1{fill:#393;}</style></defs><title>Apparel</title><path class="cls-1" d="M11.46511,6.58085h0.74922c0-1.62431-1.71571-2.99688-3.7461-2.99688V4.33319C10.09254,4.33319,11.46511,5.36262,11.46511,6.58085Z" transform="translate(-0.22682 -0.5871)"/><path class="cls-1" d="M13.71277,6.58085c0-2.47879-2.35255-4.49532-5.24454-4.49532S3.22369,4.10206,3.22369,6.58085s2.35255,4.49532,5.24454,4.49532S13.71277,9.05965,13.71277,6.58085Zm-9.73985,0c0-2.0656,2.01652-3.7461,4.49532-3.7461s4.49532,1.6805,4.49532,3.7461S10.947,10.327,8.46823,10.327,3.97291,8.64645,3.97291,6.58085Z" transform="translate(-0.22682 -0.5871)"/><path class="cls-1" d="M17.45887,11.82539a5.95154,5.95154,0,0,0-2.2087.42705,7.99164,7.99164,0,0,0-2.29711-1.20812,5.7113,5.7113,0,0,0,2.25815-4.46348c0-3.30481-3.025-5.99376-6.743-5.99376s-6.743,2.68895-6.743,5.99376a5.71056,5.71056,0,0,0,2.25852,4.46348c-2.33457.81665-3.757,2.22443-3.757,3.77794,0,2.52075,3.62023,4.49532,8.24142,4.49532a14.39515,14.39515,0,0,0,3.11188-.33827A5.993,5.993,0,1,0,17.45887,11.82539Zm-4.06414,9.30268c0.2139-.13.41507-0.23151,0.623-0.33453a6.27832,6.27832,0,0,0,1.92662-1.36882,6.24392,6.24392,0,0,0,1.36733-1.92549,6.31773,6.31773,0,0,1,2.95155-2.95155,7.43818,7.43818,0,0,0,.85636-0.47725,5.22235,5.22235,0,0,1,.46714.52483c-0.20828.12549-.405,0.22477-0.608,0.32516A7.07132,7.07132,0,0,0,17.68588,18.214a5.54946,5.54946,0,0,1-1.22535,1.727,5.53946,5.53946,0,0,1-1.72733,1.22535,7.35135,7.35135,0,0,0-.85336.47538,5.1977,5.1977,0,0,1-.48512-0.51359h0Zm1.092-8.50664a6.06235,6.06235,0,0,0-.68629.46077,8.81892,8.81892,0,0,0-2.69232-.98672,7.05347,7.05347,0,0,0,1.06839-.51359A8.204,8.204,0,0,1,14.48671,12.62144ZM11.579,16.665a11.72239,11.72239,0,0,1-3.11076.405c-3.89332,0-5.99376-1.59546-5.99376-2.24766s2.10044-2.24766,5.99376-2.24766A10.39766,10.39766,0,0,1,13.2063,13.601,5.98535,5.98535,0,0,0,11.579,16.665h0ZM2.47448,6.58085c0-2.892,2.68895-5.24454,5.99376-5.24454S14.462,3.68887,14.462,6.58085,11.773,11.82539,8.46823,11.82539,2.47448,9.47284,2.47448,6.58085ZM8.46823,18.56837c-4.06114,0-7.4922-1.71534-7.4922-3.7461,0-1.30814,1.48121-2.56945,3.78393-3.24075a7.05754,7.05754,0,0,0,1.0549.508c-2.45444.50834-4.08961,1.66776-4.08961,2.73278,0,1.41453,2.88375,2.99688,6.743,2.99688a12.63721,12.63721,0,0,0,3.01486-.35663c-0.00712.11875-.018,0.23638-0.018,0.35663,0,0.1401.01161,0.27684,0.021,0.41469A13.65347,13.65347,0,0,1,8.46823,18.56837Zm8.99063-5.99376a5.20957,5.20957,0,0,1,3.05569.99084c-0.19892.11838-.38847,0.21428-0.58327,0.31055a7.0636,7.0636,0,0,0-3.2917,3.29207,5.54946,5.54946,0,0,1-1.22535,1.727,5.55862,5.55862,0,0,1-1.72882,1.22685c-0.22776.11276-.46264,0.23039-0.71925,0.38922a5.23376,5.23376,0,0,1,4.4927-7.93648h0Zm0,10.48907a5.21214,5.21214,0,0,1-2.96391-.92229c0.194-.11463.37948-0.20866,0.57016-0.30268A6.26189,6.26189,0,0,0,16.9906,20.471a6.24392,6.24392,0,0,0,1.36733-1.92549,6.327,6.327,0,0,1,2.953-2.95342c0.22065-.109.448-0.22327,0.69528-0.37461a5.23579,5.23579,0,0,1-4.54739,7.8462h0Z" transform="translate(-0.22682 -0.5871)"/><path class="cls-1" d="M17.45887,21.56524v0.74922a4.51838,4.51838,0,0,0,.817-0.07417l-0.13523-.73686A3.805,3.805,0,0,1,17.45887,21.56524Z" transform="translate(-0.22682 -0.5871)"/><path class="cls-1" d="M21.205,17.81915a3.72468,3.72468,0,0,1-2.384,3.49061l0.27272,0.6979a4.47014,4.47014,0,0,0,2.86052-4.18851H21.205Z" transform="translate(-0.22682 -0.5871)"/></svg>