<svg id="Layer_1" data-name="Layer 1" xmlns="http://www.w3.org/2000/svg" viewBox="0 0 8.13439 24.4"><defs><style>.cls-1{fill:#393;}</style></defs><title>Apparel</title><path class="cls-1" d="M15.90586,0.40667A0.40669,0.40669,0,0,0,15.49919,0h-7.32a0.40669,0.40669,0,0,0-.40667.40667V2.03333c0,0.00735.00357,0.0135,0.004,0.02065,0.0006,0.00735-.00278.01311-0.002,0.02006L9.40118,18.32065V23.18a1.22006,1.22006,0,0,0,1.22,1.22h2.44a1.22006,1.22006,0,0,0,1.22-1.22V18.32065L15.90586,2.074a0.0567,0.0567,0,0,1,0-.02006,0.06,0.06,0,0,0,0-.02065V0.40667Zm-7.32.40667h6.50667V1.62667H8.58586V0.81333Zm4.88,22.36667a0.40669,0.40669,0,0,1-.40667.40667h-2.44A0.40669,0.40669,0,0,1,10.21252,23.18V18.70667h3.25333V23.18Zm0.04071-5.28667H10.176L8.63053,2.44h6.42128Z" transform="translate(-7.77252)"/></svg>