<svg id="Capa_1" data-name="Capa 1" xmlns="http://www.w3.org/2000/svg" viewBox="0 0 306.79698 428.979"><defs><style>.cls-1{fill:#393;}</style></defs><title>punjabi</title><path class="cls-1" d="M299.297,40.716H256.932V7.5a7.5018,7.5018,0,0,0-3.215-6.156A13.66658,13.66658,0,0,0,249.433,0H57.369a13.67723,13.67723,0,0,0-4.285,1.344A7.50064,7.50064,0,0,0,49.869,7.5V40.716H7.5a7.5,7.5,0,0,0-7.5,7.5H0V421.479a7.5,7.5,0,0,0,7.5,7.5h291.797a7.5,7.5,0,0,0,7.5-7.5V48.216A7.5,7.5,0,0,0,299.297,40.716Zm-135.26,6.411,77.896-28.851V60.202L188.308,92.973Zm10.79474,52.45135v91.64429H131.278V100.883l21.65564-42.74577ZM207.588,15L153.401,35.069,99.21295,15H207.588ZM64.869,18.276l77.897,28.851L118.495,92.974,64.869,60.202V18.276ZM292.10034,211.72057H291.797V413.98H160.901v-0.21777H145.9V413.979H15V189.091h0.10034v-15H15V155.302h0.10034v-15H15V55.716H49.869v8.692A7.499,7.499,0,0,0,53.458,70.807l63.63538,38.88837-0.01764.02753v94.685a1.81476,1.81476,0,0,0,1.81476,1.81476h68.3288a1.81476,1.81476,0,0,0,1.81476-1.81476v-94.326c0.09491-.05255.19495-0.093,0.2879-0.14984l64.02107-39.124a7.50014,7.50014,0,0,0,3.589-6.399V55.717h34.865v59.33691h0.30334v96.66669Z" transform="translate(0.00005 0.00001)"/><circle class="cls-1" cx="152.52288" cy="136.7121" r="12.32484"/><circle class="cls-1" cx="152.52288" cy="99.21209" r="12.32484"/><circle class="cls-1" cx="111.52288" cy="60.71209" r="12.32484"/><circle class="cls-1" cx="195.02288" cy="60.21209" r="12.32484"/><circle class="cls-1" cx="152.34453" cy="169.06241" r="12.32484"/></svg>