<svg id="Capa_1" data-name="Capa 1" xmlns="http://www.w3.org/2000/svg" viewBox="0 0 238.99661 315.89418"><defs><style>.cls-1{fill:#393;}</style></defs><title>gym</title><path class="cls-1" d="M171.22483,219.499c-7.71407-15.23971-11.4598-29.69773-5.35414-42.21532l7.07014-10.15907,24.1622,63.15125,43.38232-17.57249c-5.32417-34.3993-14.26919-73.31011-25.26062-114.7707-6.45718-17.59622-16.79463-30.30687-32.94855-35.69439,0,0-20.11221-4.599-27.52563-3.56936L147.749,56.60965c1.41157,20.74157.04735,35.01885-3.20979,44.88776-7.49916,22.722-39.60494,22.722-47.10422.00008-3.25719-9.86892-4.62146-24.14623-3.20989-44.88785l-7.00157,2.05928c-7.41342-1.02964-27.52583,3.56936-27.52583,3.56936C43.544,67.62581,33.20634,80.33646,26.74916,97.93269,15.75793,139.39307,6.81291,178.30409,1.48874,212.70339l43.38232,17.57249,24.1622-63.15125L76.1034,177.2837c6.10566,12.51759,2.35993,26.97562-5.35414,42.21532C55.63182,240.75108,47.271,268.41969,41.09557,298.16368l-8.30571,73.79095,88.18844,0.549v0.0002h0.0175v-0.0002l88.18844-.549-8.30571-73.79095C194.70308,268.41989,186.34227,240.75108,171.22483,219.499ZM120.99016,359.37771H46.03222c1.91228-28.365,4.02687-55.71108,8.23714-72.4868a175.71259,175.71259,0,0,1,16.47427-47.77539c9.33535-15.65056,16.74878-36.2434,16.74878-36.2434a76.33833,76.33833,0,0,0,0-25.80983,102.97891,102.97891,0,0,0-12.081-24.98591V137.24953c-1.64743-7.13892-10.43377-4.94228-10.43377-4.94228L34.77473,214.1294A45.16711,45.16711,0,0,1,12.26,202.0484c3.69987-23.84386,18.17137-76.61723,25.21316-101.64236C42.9815,80.83017,61.81792,67.6771,81.9989,70.18323q0.27481,0.03409.55122,0.071c-3.08692,33.85434,6.22774,52.59839,25.61464,59.07025a40.60256,40.60256,0,0,0,25.64436,0c19.3869-6.47187,28.70156-25.21591,25.61464-59.07025q0.27631-.0368.55122-0.071c20.181-2.50613,39.0174,10.64694,44.52579,30.22281,7.04179,25.02513,21.51328,77.79851,25.21316,101.64236a45.16471,45.16471,0,0,1-22.51477,12.081l-30.2029-81.82216s-8.78635-2.19664-10.43377,4.94228v14.82685a102.98633,102.98633,0,0,0-12.081,24.98591,76.3435,76.3435,0,0,0,0,25.80983s7.41342,20.59284,16.74878,36.2434a175.70579,175.70579,0,0,1,16.47427,47.77539c4.21047,16.77572,6.32486,44.12177,8.23714,72.4868H120.99016Z" transform="translate(-1.48874 -56.60965)"/></svg>