<svg id="Layer_1" data-name="Layer 1" xmlns="http://www.w3.org/2000/svg" viewBox="0 0 602.45785 628.20962"><defs><style>.cls-1{fill:#349946;}</style></defs><title>Untitled-1</title><path class="cls-1" d="M602.5572,502.35177l0.97626,0.37482-2.7511-4.44537a68.12359,68.12359,0,0,0-3.86273-7.00275l-25.32587-40.16174L417.51008,202.1401l0.47882-.60864c5.33459-16.47284,4.33459-29.72284-14.92407-44.23553l-43.5954-36.07642-40.035-32.83478a28.61377,28.61377,0,0,0-31.93877-2.94526L198.13075,134.608,157.51594,92.83272a12.3234,12.3234,0,0,0-13.4569-2.83381l-114.822,46.44544c-4.0614,1.87738-5.8385,4.45087-5.62616,7.63068L4.996,292.852a27.87,27.87,0,0,0,2.74311,16.13324c10.72082,20.996,29.75738,26.829,46.15024,22.248,16.03044-4.47968,27.40089-18.74359,28.97133-35.31393l7.19519-75.91915a35.80975,35.80975,0,0,1,12.44062-24.1449c5.47121-4.58111,10.82175-6.00893,15.91754-.77667l0.65942,104.48s-4.5,21-15,30.33331c0,0-10.5,10.5-16,14.5-13.77521,15.12268-22.81653,32.25336-23.33331,53L64.58247,427.8926,64.5754,451.08736a74.98959,74.98959,0,0,1-1.62774,15.58972c-1.19941,5.63717-2.8542,11.67386-4.81028,17.975a75.99709,75.99709,0,0,1-7.52482,16.78631l-14.50525,23.9964c-0.85577,1.41572-1.76146,2.80094-2.68352,4.1744a113.67515,113.67515,0,0,0-11.30648,20.83388,50.79315,50.79315,0,0,0-3.70437,22.13459,62.38385,62.38385,0,0,0,7.66056,25.981l23.25,44.25-4.88438,5.28109a95.50468,95.50468,0,0,0-12.74677,17.358,20.056,20.056,0,0,0-2.4561,7.2826h0a24.60538,24.60538,0,0,0,.55189,9.544,37.90956,37.90956,0,0,0,3.03594,7.9279c3.71514,7.12185,8.72032,12.6145,15.42552,15.96009a17.081,17.081,0,0,1,1.57053.92029c8.21086,5.25637,25.56378.90107,47.05093-7.80088a58.555,58.555,0,0,1,42.80147-.74667q2.032,0.776,4.06766,1.69021c17.41119,6.84283,34.33606,8.24591,50.66663,3,13.76385-4.99155,27.03109-8.41272,38.88843-7.37552,1.5447,0.13512,3.09258.18934,4.64153,0.26086,11.37208,0.52514,20.918,8.948,38.88673,8.948,9.8641,0.22564,20.22824-2.16908,30.85443-5.9372a55.45067,55.45067,0,0,1,40.16648,1.18147q2.68361,1.14116,5.41467,2.5419a55.62451,55.62451,0,0,0,13.00027,4.76616,110.53737,110.53737,0,0,0,15.2487,2.30376,57.73258,57.73258,0,0,0,7.77716.10882c14.31621-.72378,28.66354.71371,34.78828-2.46492l3.89845-2.15441a32.37749,32.37749,0,0,0,15.87-35.69519l-9.29841-39.85059,125.86975-39.35925A66.71775,66.71775,0,0,0,602.5572,502.35177ZM298.0735,100.55862a10.46358,10.46358,0,0,1,12.65247,1.74884l20.03021,20.37195-193.162,175.91315-0.8573-108.88971ZM75.21358,205.21065a6.166,6.166,0,0,0-.57916,2.065l-9.89423,88.94958c-1.707,20.55883-30.84684,26.575-39.73141,5.15517a27.16587,27.16587,0,0,1-1.7239-13.666l15.553-128.77863a8.18915,8.18915,0,0,1,4.93848-6.55972l97.41656-41.22644a7.39034,7.39034,0,0,1,8.06556,1.54005l31.79894,31.31206L125.22175,174.7225C96.18007,165.01815,78.28523,198.84731,75.21358,205.21065ZM92.43172,376.575a36.70683,36.70683,0,0,1,7.64874-14.60358h0.00006a522.41916,522.41916,0,0,1,45.59613-46.87372l198.2973-179.826,24.73352,21.73859L83.38307,411.14706ZM39.8235,586.18362c-4.17834-12.69263-3.4165-25.08472,3.125-37.125l28.78839-46.39526c8.42755-16.75268,13.00378-33.96647,11.66937-51.88809-0.11634-1.5625-.22713-3.12541-0.26587-4.69175l-0.02917-1.17935a18.82116,18.82116,0,0,1,6.27325-14.49856L382.10573,168.786l23.63446,20.77258-70.59473,89.07,0.72711,0.178,0.00922,0.16144L62.4778,627.678ZM355.43245,281.65517l57.8855,331.75244a47.6277,47.6277,0,0,1-12.716.45471c-15.02277-1.55731-25.71649-9.68152-31.5257-25.21539a59.86121,59.86121,0,0,1-3.59827-18.388L353.0735,284.55862ZM409.0735,691.30862c-6.49207.14135-12.7884,0.167-18.80274,0.02608A87.10238,87.10238,0,0,1,359.966,685.322a121.84956,121.84956,0,0,0-33.1425-8.01341c-7.45972-.36456-18.481,2.05523-30.67584,5.39249a71.991,71.991,0,0,1-39.43341-.41819,150.77634,150.77634,0,0,0-18.46088-4.63762c-9.32033-1.42031-20.81639.41037-33.309,3.73009-5.36435,1.42549-10.58069,3.3363-15.7894,5.254-11.95015,4.39969-29.77168,1.38423-51.76612-6.9015a44.10619,44.10619,0,0,0-12.58059-2.779,85.99475,85.99475,0,0,0-32.35972,4.3597L64.075,689.82069a12.51238,12.51238,0,0,1-14.54618-5.74128q-0.04033-.07243-0.08035-0.14579h0a14.613,14.613,0,0,1,1.46723-15.80126L337.3163,304.07754l0.12952,2.26654-0.05914.07391,10.69757,269.92407a59.94484,59.94484,0,0,0,21.67614,44.275,53.2104,53.2104,0,0,0,32.64491,12.0781,106.35281,106.35281,0,0,0,15.42822.58331l-0.7063.19836,8.19629,37.58179C428.33143,686.74679,420.56587,691.00472,409.0735,691.30862Zm20.61407-82.14819L374.13716,273.45,486.68733,593.16689Zm73.28479-20.563L383.53395,247.068l1.04675-1.28839L561.35353,572.21627Zm82.02991-38.04236-6.1261,9.14105-1.718,1.22754-181.08008-329.295L405.4554,220.087,585.66768,508.13125A39.02457,39.02457,0,0,1,585.00227,550.55508Z" transform="translate(-4.77107 -81.89519)"/></svg>