<svg id="Capa_1" data-name="Capa 1" xmlns="http://www.w3.org/2000/svg" viewBox="0 0 272.30358 429.78"><defs><style>.cls-1{fill:#393;}</style></defs><title>punjabi</title><path class="cls-1" d="M277.91807,63.101L222.26142,2.43236a7.11533,7.11533,0,0,0-2.04257-1.483,5.70276,5.70276,0,0,0-.58059-0.25182A7.01146,7.01146,0,0,0,217.09553.11H87.95517a7.16771,7.16771,0,0,0-2.5742.5666c-0.19237.07695-.37774,0.1504-0.56311,0.24133a7.07494,7.07494,0,0,0-2.04957,1.49L28.18539,61.93283a43.05423,43.05423,0,0,0,2.65814,60.76309l53.62107,49.18267-1.497,1.58439a35.59489,35.59489,0,0,0-5.47018,41.81681l19.1946,35.2414A28.399,28.399,0,0,0,117.7159,265.141a29.313,29.313,0,0,0,4.17608.30079c0.668,0,1.31158-.1504,1.96913-0.19237V422.727a7.163,7.163,0,0,0,14.326,0V399.24088l14.326-4.77766V415.564a7.163,7.163,0,0,0,14.326,0V389.69254l14.326-4.77766V408.401a7.163,7.163,0,1,0,14.326,0V380.13721l14.326-4.77067V394.075a7.163,7.163,0,0,0,14.326,0V344.29773l14.326-4.76018V358.26a7.163,7.163,0,1,0,14.326,0V146.33592L276.554,122.598A42.97739,42.97739,0,0,0,277.91807,63.101ZM184.6242,66.31177l-30.7995,32.41188L119.73749,64.577h66.53406ZM208.523,14.436l-3.627,21.68836a35.08454,35.08454,0,0,1-5.75,14.12664H106.125A35.935,35.935,0,0,1,99.98677,35.4738L96.49971,14.436H208.523ZM38.75851,71.63856l44.64634-48.707,2.46578,14.86462a50.41615,50.41615,0,0,0,11.18169,24.2101l0.07695,0.056,0.11542,0.16439c0.8604,0.94084,1.7173,1.87819,2.65814,2.80854l44.01677,44.09022L94.25777,161.47685l-53.7225-49.31558a28.71278,28.71278,0,0,1-1.79075-40.52271h0.014Zm99.4286,189.30536,3.92076-3.91727,67.70924-67.71273V360.25709l-71.63,23.88133V260.94392Zm100.282,63.49818-14.326,4.76367V174.98792l14.326-14.326V324.44209Zm27.935-212.022-54.50945,54.50945-79.9367,79.9402a14.32934,14.32934,0,0,1-22.72364-3.21775L90.02573,208.39659a21.34391,21.34391,0,0,1,3.28771-25.0705L205.91383,64.7064c0.035-.042.55961-0.60858,0.60158-0.64355a26.95061,26.95061,0,0,0,1.80474-2.09154l0.08744-.12241,0.12941-.1504,0.063-.11542a49.51454,49.51454,0,0,0,10.42972-23.12236l2.59869-15.53616,45.72358,49.84021a28.65281,28.65281,0,0,1-.94784,39.6833v-0.028Z" transform="translate(-16.90809 -0.10999)"/></svg>