<svg id="Layer_1" data-name="Layer 1" xmlns="http://www.w3.org/2000/svg" viewBox="0 0 618.92592 414.06652"><defs><style>.cls-1{fill:#f8edf5;}.cls-2{fill:#fff;}.cls-3{fill:#fbc1b2;}.cls-4{fill:#c4d9e8;}.cls-30,.cls-4{opacity:0.5;}.cls-22,.cls-23,.cls-30,.cls-31,.cls-4,.cls-47{isolation:isolate;}.cls-5{fill:#efc4a3;}.cls-6{fill:#363b92;}.cls-7{fill:#fbc1b1;}.cls-8{fill:#353892;}.cls-9{fill:#f9bfaf;}.cls-10{fill:#369747;}.cls-11{fill:#81441d;}.cls-12{fill:#fcdfbb;}.cls-13{fill:#303030;}.cls-14{fill:#fffff3;}.cls-15{fill:#29235c;}.cls-16{fill:#e7a323;}.cls-17{fill:#fdd763;}.cls-18{fill:#f2b527;}.cls-19{fill:#edae1f;}.cls-20{fill:#2c338e;}.cls-21{fill:#6cc071;}.cls-22{fill:#94ce97;opacity:0.95;}.cls-23,.cls-31,.cls-35,.cls-46,.cls-47{fill:none;stroke-miterlimit:10;}.cls-23,.cls-31{stroke:#ed644b;}.cls-23{stroke-width:0.85098px;}.cls-23,.cls-24,.cls-31,.cls-47{opacity:0.25;}.cls-25,.cls-30{fill:#ed644b;}.cls-26{opacity:0.85;}.cls-27{fill:#464fa2;}.cls-28{fill:#3b439b;}.cls-29{fill:#f4847f;}.cls-31{stroke-width:0.57609px;}.cls-32{fill:#d4bfdc;}.cls-33{fill:#363896;}.cls-34{fill:#487cbf;}.cls-35{stroke:#f8edf5;stroke-width:3.05499px;}.cls-36{fill:#369946;}.cls-37{fill:#1f3f7a;}.cls-38{fill:#7e56a3;}.cls-39{fill:#ed3995;}.cls-40{fill:#62489d;}.cls-41{fill:#3b6dab;}.cls-42{fill:#5793ce;}.cls-43{fill:#28508a;}.cls-44{fill:#d4eaf9;}.cls-45{fill:#393;}.cls-46{stroke:#000;}.cls-47{stroke:#393;}</style></defs><title>secure-buy&amp;amp;sell</title><path class="cls-1" d="M482.31373,145.86234c13.81989-3.78912,27.85062-7.50768,42.18024-7.60944s29.21289,3.79842,39.733,13.52849c15.69183,14.51344,18.37958,38.11661,18.20776,59.49049-0.2254,28.04372-3.73218,56.38185-14.004,82.47768s-27.72638,49.912-51.64191,64.55945c-31.09946,19.04736-69.35852,20.97845-105.80029,22.38333L184.2548,389.43328c-24.9406.96149-50.22827,1.89258-74.55329-3.69775C51.365,372.32869,4.82488,318.26406.245,258.58223c-0.4723-6.15466-.49293-12.58662,2.09161-18.19225,3.49067-7.57092,11.10288-12.33318,18.67146-15.829,27.03279-12.48589,50.58919-8.89719,78.85889-7.54778a595.92558,595.92558,0,0,0,94.85973-3.468c63.27216-7.105,125.25842-22.519,186.53738-39.3768C414.99119,164.89012,448.57856,155.11182,482.31373,145.86234Z" transform="translate(0 0)"/><ellipse class="cls-2" cx="524.44469" cy="165.88747" rx="6.86456" ry="8.53885" transform="translate(293.2463 664.99487) rotate(-82.69803)"/><path class="cls-3" d="M488.61507,210.39447c-2.344,2.17655-5.35763,9.041-6.19477,9.041s-0.16744-1.50683-.83713-3.01368-4.85535,5.19022-5.52507,4.85535c-0.66969-.50228.33485-4.35309,1.50683-6.02736a22.27359,22.27359,0,0,1,2.344-3.18109,9.97268,9.97268,0,0,1,3.516-2.344C483.59229,209.55734,490.95906,208.21792,488.61507,210.39447Z" transform="translate(0 0)"/><path class="cls-4" d="M504.55236,335.50635c9.95043,5.74494,26.08339,5.74479,36.03415-.0003,9.95058-5.74494,9.95088-15.05931.00048-20.80425-9.9504-5.74479-26.08342-5.74467-36.03412.0003S494.602,329.76153,504.55236,335.50635Z" transform="translate(0 0)"/><path class="cls-5" d="M509.49484,181.0783c0.12476-.8754-0.19225-0.7651-1.11613-1.03893q-1.04053-.30841-2.081-0.617l-5.4356-1.61152-3.16961,13.324L482.711,210.44249a3.49431,3.49431,0,0,0,2.54417,2.12471c1.52623,0.3091,14.23206-12.60492,19.71673-18.26846a4.31227,4.31227,0,0,0,.71646-1.01667,8.06474,8.06474,0,0,0,1.91223-4.02947,26.422,26.422,0,0,1,.58356-2.8022c0.4259-1.72958.98609-3.47849,1.28867-5.23322Q509.48547,181.14387,509.49484,181.0783Z" transform="translate(0 0)"/><path class="cls-6" d="M512.64414,159.90072c-1.33589.52944-3.52384,1.54325-3.78305,1.66263a15.94289,15.94289,0,0,0-6.61982,5.16445c-1.905,2.73949-2.5403,6.01343-3.10472,9.24181q-0.40906,2.33976-.81866,4.67942c-0.12507.71472-.26384,1.42641-0.3844,2.14177a7.99642,7.99642,0,0,0-.34413,2.24254c1.29441,0.63679,2.6882,1.12054,3.9973,1.74818l3.69227,1.77021a11.491,11.491,0,0,1,3.0201,1.85372c0.6412-1.61238,1.12-3.2838,1.59768-4.952a13.55736,13.55736,0,0,0,.28255-3.55325l0.20659-5.39535,0.14449-3.77357c0.0658-1.71858.008-3.45522,0.158-5.17536,0.02961-.33965.06731-0.67857,0.11584-1.01606a10.93807,10.93807,0,0,1,1.8352-4.89865,3.99014,3.99014,0,0,0,1.06751-2.064A6.34174,6.34174,0,0,0,512.64414,159.90072Z" transform="translate(0 0)"/><path class="cls-6" d="M511.53809,160.16607l2.02261-.84679c2.51733-1.0539,5.11871-2.012,7.86815-1.33218,4.25227,1.05142,8.32582,2.69314,12.45614,4.12733,3.831,1.33026,8.89351,2.53874,12.052,5.23845,4.39284,3.75516-6.58821,24.8551-6.43,31.77287,0.15835,6.91776.93816,15.0733,1.54928,22.59415s1.43852,11.64376-4.71273,14.84094-16.65357,3.34517-24.51521-2.64537c-2.13364-1.62574-3.53327-3.32406-3.87128-6.07491a25.98644,25.98644,0,0,1,.08422-5.10978q0.41988-5.588.29071-11.1991a19.05978,19.05978,0,0,0-.16188-2.33093c-0.13484-.90748-0.38864-1.79455-0.51229-2.70362a23.28092,23.28092,0,0,1,.16983-5.53278c0.2198-2.10734.91262-4.22736,0.92413-6.34428,0.02055-3.78552-2.59341-7.2686-2.32379-11.04457,0.15006-2.10126,1.18374-4.03186,1.63765-6.089a15.71538,15.71538,0,0,0-.01887-5.70315c-0.261-1.75513-1.03205-3.35229-1.21718-5.13094-0.2058-1.97729-.01777-3.71443,1.67076-4.95692a12.6725,12.6725,0,0,1,2.66878-1.375Z" transform="translate(0 0)"/><ellipse class="cls-5" cx="525.08211" cy="164.08964" rx="6.93703" ry="8.73844" transform="translate(295.60517 664.06661) rotate(-82.70023)"/><ellipse class="cls-7" cx="525.08356" cy="164.08745" rx="4.95816" ry="6.24571" transform="translate(295.60883 664.06624) rotate(-82.70026)"/><path class="cls-7" d="M522.289,154.37631s4.16423-3.42519,4.98244-1.69034,1.49242,9.17946,1.49242,9.17946l-8.27078,2.222,1.25511-7.54312S520.0928,155.14079,522.289,154.37631Z" transform="translate(0 0)"/><polygon class="cls-5" points="552.116 190.869 550.733 230.705 545.903 231.305 542.758 195.445 552.116 190.869"/><path class="cls-6" d="M545.01415,166.67535s3.863,1.47632,6.04945,13.3422a131.30193,131.30193,0,0,1,2.10673,14.3468c0.16815,2.60087-11.67161,2.49176-11.69114,1.60958-0.12193-5.50873-.70943-11.94828-0.79255-15.12905C540.54288,175.34477,540.33327,167.76226,545.01415,166.67535Z" transform="translate(0 0)"/><path class="cls-8" d="M506.76327,316.459c-1.83978.88645-8.30013,5.07009-7.75058,6.92366s10.0004,1.06475,14.84059-.60535a28.16987,28.16987,0,0,1,6.83941-1.73735c1.88515-.37879,4.58376-3.57154-0.13894-7.73914a20.45046,20.45046,0,0,1-7.55732,2.75874A33.99582,33.99582,0,0,1,506.76327,316.459Z" transform="translate(0 0)"/><path class="cls-9" d="M506.76318,316.45913c-1.08116.78573,4.43764,3.47217,7.89268,2.41959,1.74351-.53116,6.3459-1.9984,6.73051-3.4194,0.295-1.08987-.61226-3.0789-0.89393-5.3767l-0.0369-2.14762,0.0006-.0152h-0.0009l-0.3851-22.38484-10.03012.17263,0.48464,28.16836C509.01993,314.89567,507.32387,316.05149,506.76318,316.45913Z" transform="translate(0 0)"/><path class="cls-8" d="M526.60421,318.3331c-1.89152.76989-8.60046,4.54215-8.16771,6.42631s9.91452,1.68693,14.84943.32223a28.16909,28.16909,0,0,1,6.93448-1.307c1.9051-.26037,4.79777-3.27845.34441-7.73274a20.45019,20.45019,0,0,1-7.71477,2.28158A33.9977,33.9977,0,0,1,526.60421,318.3331Z" transform="translate(0 0)"/><path class="cls-9" d="M534.33027,321.24064c1.77331-.4213,6.45834-1.59834,6.93087-2.9926a14.197,14.197,0,0,0-.45931-4.41988V310.68l0.0015-.01469h-0.0015v-28.525H530.77013v33.70161c-1.62277.95682-3.54963,2.09933-4.166,2.491C525.476,319.04983,530.81622,322.07546,534.33027,321.24064Z" transform="translate(0 0)"/><path class="cls-10" d="M506.76249,231.43834v72.68133l18.02827,0.53732V252.53527l2.70769,51.85306h16.49227c-1.1601-39.4743-2.1219-83.94864-4.23379-99.42623l-32.14177-2.04855C506.78964,211.06675,505.59281,221.15765,506.76249,231.43834Z" transform="translate(0 0)"/><path class="cls-7" d="M550.69526,230.53091s1.277,7.71322,1.08485,10.18386-1.51424,6.54552-2.518,6.4592c-1.0036-.08618-0.03323-9.93446-1.79579-8.95356s-1.94765,2.66356-2.746,2.0692,1.39212-9.01206.80793-12.66255S550.69526,230.53091,550.69526,230.53091Z" transform="translate(0 0)"/><path class="cls-11" d="M531.12908,165.77442a17.38385,17.38385,0,0,0,3.61177,5.782q0.067,0.06846.13443,0.1364c1.29477,1.30115,2.68563,2.5019,3.99681,3.786,5.37439-1.63937,9.856-12.97729,4.87848-19.38375a26.87387,26.87387,0,0,1-5.313-13.80062l-5.76387-3.26732-4.34446-2.46274c-0.791-.44839-2.22938-1.6519-3.13449-1.61624a29.19155,29.19155,0,0,0,.44862,4.26,117.43137,117.43137,0,0,0,2.58323,16.0501A84.70322,84.70322,0,0,0,531.12908,165.77442Z" transform="translate(0 0)"/><path class="cls-11" d="M525.09658,127.92382a13.30892,13.30892,0,1,1,.15186,26.61741h0a13.57329,13.57329,0,0,1-13.38468-13.23269C511.37648,133.03848,517.74636,127.96574,525.09658,127.92382Z" transform="translate(0 0)"/><path class="cls-5" d="M525.70433,165.963h0a4.08478,4.08478,0,0,1-4.32709-3.82717v0l-0.69008-11.373,8.15431-.50009,0.69,11.373A4.085,4.085,0,0,1,525.70433,165.963Z" transform="translate(0 0)"/><path class="cls-11" d="M520.86438,153.88331l0.31731,5.031c7.54512-.27168,8.84638-10.1233,8.84638-10.1233Z" transform="translate(0 0)"/><path class="cls-12" d="M531.75083,146.66456l-0.05006-8.76051a4.05988,4.05988,0,0,0-4.0709-4.02493l-8.21657-2.25234c-2.22638.01271-6.32439,4.01279-6.30287,7.78688l0.05024,8.79486c0.02927,5.11467,4.23136,8.17533,9.346,8.14617h0A10.221,10.221,0,0,0,531.75083,146.66456Z" transform="translate(0 0)"/><circle class="cls-13" cx="522.57301" cy="144.12347" r="0.73624" transform="translate(-9.56927 40.78557) rotate(-4.42902)"/><circle class="cls-13" cx="515.8314" cy="144.10654" r="0.73618" transform="matrix(0.99701, -0.07723, 0.07723, 0.99701, -9.58862, 40.26757)"/><path class="cls-5" d="M519.50693,148.02007c-1.58275.437-1.71376-.6757-1.71376-0.6757l0.84579-1.59644" transform="translate(0 0)"/><path class="cls-13" d="M525.10487,141.3213a0.67414,0.67414,0,0,0-.649-0.6983h0l-3.33178-.12261h-0.00018a0.67426,0.67426,0,0,0-.04976,1.34759l3.33178,0.12248a0.69152,0.69152,0,0,0,.13678-0.009A0.67416,0.67416,0,0,0,525.10487,141.3213Z" transform="translate(0 0)"/><path class="cls-13" d="M517.07412,141.1857a0.67416,0.67416,0,0,0-.64928-0.69815l-2.037-.0747h0a0.67415,0.67415,0,0,0-.04874,1.3474l2.03689,0.0747a0.686,0.686,0,0,0,.13624-0.00886A0.6742,0.6742,0,0,0,517.07412,141.1857Z" transform="translate(0 0)"/><path class="cls-14" d="M519.5761,151.7319c-2-.014-2.93966-2.44466-2.93966-2.44466l5.91014,0.4451A2.74052,2.74052,0,0,1,519.5761,151.7319Z" transform="translate(0 0)"/><path class="cls-11" d="M519.41071,131.13465a9.80166,9.80166,0,0,1,10.91374,1.04729c5.9682,4.27676,4.30354,11.73089,4.30354,11.73089a41.35026,41.35026,0,0,1-18.09443-10.34149Z" transform="translate(0 0)"/><path class="cls-11" d="M519.26961,131.4257c-5.52913,1.173-6.40894,7.602-6.40894,7.602a24.613,24.613,0,0,0,5.59692-6.052Z" transform="translate(0 0)"/><path class="cls-11" d="M531.19074,140.75574l-0.81033,6.11273c-3.19861-.58191-2.1777-7.03727-2.1777-7.03727Z" transform="translate(0 0)"/><circle class="cls-12" cx="532.50634" cy="145.31475" r="3.32998" transform="matrix(0.99998, -0.00572, 0.00572, 0.99998, -0.8226, 3.04875)"/><path class="cls-15" d="M541.15995,191.11876l-1.04615-8.9846-0.67692,16.61535S540.42149,194.56491,541.15995,191.11876Z" transform="translate(0 0)"/><path class="cls-15" d="M507.46417,189.70572l1.86839-10.37991-0.58083,15.2943A10.09109,10.09109,0,0,0,507.46417,189.70572Z" transform="translate(0 0)"/><path class="cls-7" d="M482.7006,207.22434a10.5342,10.5342,0,0,0-3.66034,2.45377,23.86615,23.86615,0,0,0-2.50113,3.35789c-1.22214,1.82291-2.2529,5.76369-1.50778,6.25433s5.00742-6.59785,5.69449-4.94893-0.0058,3.17291.87524,3.19781,3.94354-7.12546,6.35269-9.34245S482.7006,207.22434,482.7006,207.22434Z" transform="translate(0 0)"/><path class="cls-16" d="M510.53123,220.38921l-1.76074-6.4015-1.59338,1.5835a16.86028,16.86028,0,0,0-6.23648-2.93044c-10.71509-2.79524-25.70682,1.328-33.485,9.20975a16.02025,16.02025,0,0,0-4.16315,6.59447l-1.87592-1.43262,1.76062,6.40115c0.95865,3.50322,4.23349,6.37033,9.59637,7.76936,10.71509,2.79524,25.70679-1.32812,33.48492-9.20975C510.15147,228.02841,511.49919,223.88988,510.53123,220.38921Zm-25.47931,2.52025a9.87017,9.87017,0,0,1-8.61139,2.36847c-2.75562-.71886-3.36786-2.94475-1.36755-4.97173a9.87044,9.87044,0,0,1,8.61139-2.36847c2.75565,0.71886,3.36789,2.94484,1.36758,4.97173h0Z" transform="translate(0 0)"/><path class="cls-17" d="M486.26,232.49321l-11.60251-2.22592-10.72937-3.50055a12.11128,12.11128,0,0,0-.63559,1.67827l-1.87592-1.43262,1.76062,6.40115c0.95865,3.50322,4.23349,6.37033,9.59637,7.76936a34.43884,34.43884,0,0,0,15.84723-.10643Z" transform="translate(0 0)"/><path class="cls-17" d="M499.1771,206.22905c-10.71512-2.79532-25.70682,1.328-33.48492,9.20975s-5.39719,16.537,5.31793,19.33237,25.70679-1.32812,33.48492-9.20975S509.89225,209.02436,499.1771,206.22905ZM484.57,220.84065a9.8707,9.8707,0,0,1-8.61139,2.36847c-2.75562-.71886-3.368-2.94481-1.36765-4.97169a9.87045,9.87045,0,0,1,8.61136-2.36855C485.958,216.58782,486.57023,218.81368,484.57,220.84065Z" transform="translate(0 0)"/><path class="cls-16" d="M487.43592,213.09423l-12.85037,3.53448a34.099,34.099,0,0,0-3.15082,1.92145l2.99539,10.89032,16.2709-4.47531Zm-2.384,9.81523a9.87017,9.87017,0,0,1-8.61139,2.36847c-2.75562-.71886-3.36786-2.94475-1.36755-4.97173a9.87044,9.87044,0,0,1,8.61139-2.36847c2.75565,0.71886,3.36789,2.94482,1.36758,4.97173h0Z" transform="translate(0 0)"/><path class="cls-18" d="M497.50712,207.9213c-9.44452-2.46382-22.65848,1.1705-29.51434,8.11763s-4.7572,14.57613,4.68732,17.03995,22.65854-1.17061,29.51434-8.11763S506.95164,210.38512,497.50712,207.9213ZM484.57,220.84064a9.8707,9.8707,0,0,1-8.61139,2.36847c-2.75562-.71886-3.368-2.94481-1.36765-4.9717a9.87045,9.87045,0,0,1,8.61136-2.36855c2.75574,0.719,3.368,2.94482,1.36768,4.97179h0v0Z" transform="translate(0 0)"/><path class="cls-16" d="M468.47892,217.80634c6.85583-6.94713,20.06979-10.58154,29.51434-8.11763,4.27084,1.11411,7.03363,3.2863,8.15143,5.97218-0.50031-3.48866-3.46359-6.38994-8.63751-7.73959-9.44452-2.46382-22.65848,1.1705-29.51434,8.11763-3.75558,3.80562-4.81821,7.814-3.46411,11.06767C464.11564,224.227,465.37889,220.9476,468.47892,217.80634Z" transform="translate(0 0)"/><path class="cls-18" d="M510.06132,226.26276a23.03493,23.03493,0,0,1-3.63647,4.69987,33.923,33.923,0,0,1-5.22955,4.28432l5.24506,1.36832,6.91794-1.52563,3.91016,1.02013-1.15851,1.174,2.9599,0.77213,2.317-2.34787,5.17212,1.3493-3.77209,3.8224,3.819,0.99622,3.70428,0.96637,3.351-3.39545,6.84027,1.78442-1.89575,1.921,4.39429,1.14638,1.89563-1.92105,2.06213,0.53792-0.81183,4.05792,6.6474,1.73415,21.08008-5.7979Z" transform="translate(0 0)"/><path class="cls-17" d="M508.78886,221.63639a23.03567,23.03567,0,0,1-3.63647,4.7,33.93765,33.93765,0,0,1-5.22955,4.28432l5.24506,1.36823,6.91794-1.52554,3.91016,1.02013-1.15851,1.17389,2.9599,0.77213,2.317-2.34787,5.17212,1.3493-3.77209,3.8224,3.819,0.99631,3.70422,0.96628,3.351-3.39545,6.84027,1.78442-1.89575,1.921,4.39429,1.14638,1.89569-1.921,2.06213,0.53792-0.81183,4.05792,6.6474,1.73405,21.08008-5.7979Z" transform="translate(0 0)"/><rect class="cls-16" x="551.76565" y="241.09627" width="21.86285" height="4.7982" transform="translate(-44.42682 157.94678) rotate(-15.37891)"/><polygon class="cls-16" points="543 244.299 541.727 239.672 543.623 237.751 544.895 242.377 543 244.299"/><polygon class="cls-19" points="537.333 238.526 538.606 243.152 543 244.299 541.727 239.672 537.333 238.526"/><polygon class="cls-16" points="532.389 234.82 533.661 239.447 530.31 242.842 529.038 238.216 532.389 234.82"/><polygon class="cls-19" points="521.514 236.253 522.787 240.88 530.31 242.842 529.038 238.216 521.514 236.253"/><polygon class="cls-19" points="544.895 242.377 546.146 246.973 552.793 248.707 551.521 244.081 544.895 242.377"/><polygon class="cls-19" points="517.797 233.429 519.07 238.056 516.11 237.284 514.837 232.657 517.797 233.429"/><polygon class="cls-16" points="505.168 231.989 506.44 236.615 513.358 235.09 512.086 230.463 505.168 231.989"/><polygon class="cls-16" points="557.314 238.962 510.589 226.754 512.474 224.844 561.766 237.722 557.314 238.962"/><polygon class="cls-18" points="512.782 225.964 559.839 238.258 561.766 237.722 512.474 224.844 510.589 226.754 511.713 227.047 512.782 225.964"/><polygon class="cls-16" points="506.44 236.615 505.168 231.989 499.923 230.621 501.195 235.247 506.44 236.615"/><polygon class="cls-16" points="520.114 231.082 521.387 235.708 519.07 238.056 517.797 233.429 520.114 231.082"/><path class="cls-17" d="M497.50712,207.9213c-5.30707-1.38443-11.80435-.84319-17.695,1.1292l0.48611,1.76739c5.89059-1.97247,12.38788-2.5137,17.69495-1.12929,4.27087,1.11418,7.0336,3.2863,8.1514,5.97227C505.64433,212.17221,502.681,209.271,497.50712,207.9213Z" transform="translate(0 0)"/><path class="cls-20" d="M171.78173,374.86543a0.80441,0.80441,0,0,1,.33524.21246,0.82772,0.82772,0,0,1,.10646.57581l-0.20065,3.27808a0.57,0.57,0,0,1-.09125.33249,0.56324,0.56324,0,0,1-.26653.15179,29.52038,29.52038,0,0,1-3.97806,1.06268,6.50041,6.50041,0,0,1-3.61-.06619,1.36666,1.36666,0,0,1-.9919-1.12137,2.08784,2.08784,0,0,1,.41061-0.9838,1.76167,1.76167,0,0,0,.25893-0.98672q-0.00368-.89873-0.03665-1.797a4.74145,4.74145,0,0,0-.4343-2.14725A18.54761,18.54761,0,0,1,171.78173,374.86543Z" transform="translate(0 0)"/><path class="cls-21" d="M151.49627,331.783c-1.99435,0-3.82741.81873-5.772,0.68933a12.60015,12.60015,0,0,0-2.14961.00925,14.88969,14.88969,0,0,0-7.98872,3.92718,18.98437,18.98437,0,0,0-5.4715,6.96362,22.60967,22.60967,0,0,0-1.36375,6.17709q-0.13035,1.394-.13223,2.79651c0,5.55951,2.14278,10.78217,4.26994,15.82156l4.27582,10.12967a3.17587,3.17587,0,0,0,3.67058,2.21927,111.71565,111.71565,0,0,0,21.43806-.90146,1.41876,1.41876,0,0,0,.7075-0.2326,1.35183,1.35183,0,0,0,.38326-0.68591c0.82382-2.657.88887-5.43466,1.51561-8.1279,0.61484-2.64212,2.05893-4.98154,2.92271-7.54111,2.96437-8.78421.41144-18.7933-5.4369-25.80515A14.20339,14.20339,0,0,0,151.49627,331.783Z" transform="translate(0 0)"/><path class="cls-22" d="M140.39248,337.08083c-1.30142,1.18658-3.05438,1.9017-4.0462,3.357a6.64178,6.64178,0,0,0-.843,1.9386,18.45017,18.45017,0,0,0,.69278,11.04324,52.21454,52.21454,0,0,0,5.15387,9.96509,45.30407,45.30407,0,0,0,4.32642,6.19806c0.96463,1.102,2.0313,2.11185,2.98386,3.2243a21.07742,21.07742,0,0,1,4.62508,9.48212q3.9061,0.09984,7.81381-.01035a1.29537,1.29537,0,0,0,1.51666-1.30365q1.0155-4.598,1.60507-9.27625a15.01456,15.01456,0,0,1,.71233-3.52261,29.41525,29.41525,0,0,1,2.04659-3.63409c2.32922-4.18353,2.24112-9.23892,2.0912-14.02478a9.7013,9.7013,0,0,0-2.26447-6.95486l-3.173-4.53122a21.6588,21.6588,0,0,0-3.26459-3.95465c-2.71085-2.388-6.46027-3.27261-10.072-3.35214a11.73329,11.73329,0,0,0-6.03831,1.14432C142.63212,333.84462,141.77227,335.82283,140.39248,337.08083Z" transform="translate(0 0)"/><path class="cls-23" d="M137.67852,343.817a17.64054,17.64054,0,0,0-.52106,4.405c-0.06084,7.98685,3.19513,15.56873,6.10767,23.00583a29.597,29.597,0,0,1,1.51094,4.62564,31.11187,31.11187,0,0,1,.44473,6.51151,59.88469,59.88469,0,0,1,8.7179-.1572l0.54956-6.085c0.78156-8.65366,1.56311-17.36954.70192-26.01562a27.47738,27.47738,0,0,0-2.5619-10.00092,13.20741,13.20741,0,0,0-6.03152-6.02338,1.915,1.915,0,0,0-1.85538-.26871,9.69689,9.69689,0,0,0-1.69571,1.60873,26.62638,26.62638,0,0,0-3.07787,3.61A15.3942,15.3942,0,0,0,137.67852,343.817Z" transform="translate(0 0)"/><g class="cls-24"><path class="cls-25" d="M153.18254,332.1747a18.29549,18.29549,0,0,1,1.73431,1.48422c1.05827,1.001,2.46254,2.528,4.18019,4.32166a23.5306,23.5306,0,0,1,2.57384,3.127,16.39136,16.39136,0,0,1,1.984,4.1066,17.95412,17.95412,0,0,1,.85538,4.80276,24.998,24.998,0,0,1-.38969,5.0014c-0.28436,1.63046-.56326,3.282-0.944,4.86954l-1.04147,4.67569c-0.34637,1.54315-.74889,2.97-1.105,4.35532-0.3588,1.37952-.71666,2.67453-0.95639,3.88184a17.795,17.795,0,0,0-.378,3.32651,21.94345,21.94345,0,0,0,.14745,2.59546l0.28,2.26071s-0.19151-.80649-0.444-2.238a22.1754,22.1754,0,0,1-.30019-2.61215,15.44569,15.44569,0,0,1,.22359-3.41812c0.20119-1.23984.51541-2.55453,0.82449-3.94305l0.98471-4.35553c0.32-1.52008.65063-3.09079,0.9866-4.68686,0.36291-1.59039.61317-3.2114,0.88341-4.84824a24.20649,24.20649,0,0,0,.43652-4.83679,17.18959,17.18959,0,0,0-.76585-4.60806,17.84077,17.84077,0,0,0-1.79546-3.98605,22.97743,22.97743,0,0,0-2.41264-3.149c-1.66422-1.84961-2.94179-3.48456-3.94431-4.52664C153.81321,332.71666,153.18254,332.1747,153.18254,332.1747Z" transform="translate(0 0)"/></g><g class="cls-26"><path class="cls-25" d="M140.383,342.01329a0.69857,0.69857,0,0,0,.12192.10678,0.92516,0.92516,0,0,0,.32214.12717c0.25993,0.06052.65591,0.073,1.09367,0.19089a4.05839,4.05839,0,0,1,1.10735.48907,2.35093,2.35093,0,0,1,.46075.37869,2.35106,2.35106,0,0,1-.58914.09274,4.05591,4.05591,0,0,1-1.20242-.13992,4.62831,4.62831,0,0,1-.61621-0.22443,1.54077,1.54077,0,0,1-.53252-0.38824,0.74022,0.74022,0,0,1-.19637-0.45514A0.49738,0.49738,0,0,1,140.383,342.01329Z" transform="translate(0 0)"/><path class="cls-25" d="M143.18638,347.57778a2.55118,2.55118,0,0,1,.67114-0.12595,4.40436,4.40436,0,0,1,2.72456.74048,2.56568,2.56568,0,0,1,.51436.44977,3.51868,3.51868,0,0,1-.676.01132,7.24653,7.24653,0,0,1-1.363-.23492,7.32374,7.32374,0,0,1-1.29379-.48938A3.61326,3.61326,0,0,1,143.18638,347.57778Z" transform="translate(0 0)"/><path class="cls-25" d="M146.56788,355.935a2.75756,2.75756,0,0,1-.19763.619,4.93161,4.93161,0,0,1-1.6922,2.04071,2.738,2.738,0,0,1-.57278.30762,2.73868,2.73868,0,0,1,.19678-0.61966,4.93154,4.93154,0,0,1,1.69389-2.03931A2.75772,2.75772,0,0,1,146.56788,355.935Z" transform="translate(0 0)"/><path class="cls-25" d="M149.708,365.659a1.65742,1.65742,0,0,1-.06131.47751,2.39262,2.39262,0,0,1-1.116,1.44791,1.64729,1.64729,0,0,1-.44725.17966,1.64833,1.64833,0,0,1,.06044-0.47818,2.39254,2.39254,0,0,1,1.11778-1.44656A1.658,1.658,0,0,1,149.708,365.659Z" transform="translate(0 0)"/><path class="cls-25" d="M156.80012,369.09972a2.07448,2.07448,0,0,1,.54175-0.10666,3.36727,3.36727,0,0,1,2.107.56329,0.308,0.308,0,1,1-.12642.472,3.36735,3.36735,0,0,1-2.10646-.56543A2.07667,2.07667,0,0,1,156.80012,369.09972Z" transform="translate(0 0)"/><path class="cls-25" d="M156.89756,356.80406a1.59921,1.59921,0,0,1,.44156-0.26352,2.45684,2.45684,0,0,1,2.00764.06808,1.61662,1.61662,0,0,1,.42226.2944,2.07308,2.07308,0,0,1-.47105.19177,3.24088,3.24088,0,0,1-1.9437-.06808A2.1287,2.1287,0,0,1,156.89756,356.80406Z" transform="translate(0 0)"/><path class="cls-25" d="M156.58712,346.05925a0.28459,0.28459,0,0,1-.11469-0.15219,0.61127,0.61127,0,0,1,.1241-0.5159,1.63232,1.63232,0,0,1,.49516-0.43964,5.10708,5.10708,0,0,1,.5713-0.32,4.2232,4.2232,0,0,1,1.18581-.34723,2.42417,2.42417,0,0,1,.60683-0.01065,2.42379,2.42379,0,0,1-.40233.45441,4.22386,4.22386,0,0,1-1.03436.67587,5.11023,5.11023,0,0,1-.61446.22641c-0.21965.065-.34711,0.07684-0.48746,0.12671a0.58768,0.58768,0,0,0-.27644.15829A0.27963,0.27963,0,0,0,156.58712,346.05925Z" transform="translate(0 0)"/><path class="cls-25" d="M154.23312,341.36571a1.52154,1.52154,0,0,1,.27481-0.48706,2.43918,2.43918,0,0,1,2.06325-.8916,1.563,1.563,0,0,1,.54318.13522,3.05063,3.05063,0,0,1-.42535.339,5.90921,5.90921,0,0,1-.92123.50064,6.00881,6.00881,0,0,1-.99683.32593A3.28989,3.28989,0,0,1,154.23312,341.36571Z" transform="translate(0 0)"/><path class="cls-25" d="M164.34954,341.69856a1.64469,1.64469,0,0,1,.16031-0.45154,2.36376,2.36376,0,0,1,1.39182-1.16733,0.27871,0.27871,0,1,1,.31377.37457,2.36354,2.36354,0,0,1-1.39323,1.16562A1.64373,1.64373,0,0,1,164.34954,341.69856Z" transform="translate(0 0)"/><path class="cls-25" d="M167.46154,348.02788a3.399,3.399,0,0,1,.17162-0.70859,6.39,6.39,0,0,1,1.65062-2.534,3.373,3.373,0,0,1,.58-0.44235,3.373,3.373,0,0,1-.1707.7092,6.39032,6.39032,0,0,1-1.65247,2.53278A3.39753,3.39753,0,0,1,167.46154,348.02788Z" transform="translate(0 0)"/><path class="cls-25" d="M166.57722,350.83644a3.51281,3.51281,0,0,1,.722-0.17218,6.64789,6.64789,0,0,1,3.07014.30609,3.48669,3.48669,0,0,1,.67342.31293,3.4855,3.4855,0,0,1-.72206.17328,6.64745,6.64745,0,0,1-3.06993-.30829A3.51239,3.51239,0,0,1,166.57722,350.83644Z" transform="translate(0 0)"/><path class="cls-25" d="M166.898,359.57414a0.761,0.761,0,0,1,.18378-0.12729,1.06932,1.06932,0,0,1,.603-0.07193,2.52542,2.52542,0,0,1,.77037.25079c0.24982,0.11459.484,0.24673,0.73267,0.36658,0.48492,0.26.96951,0.5278,1.33685,0.76151a6.23265,6.23265,0,0,1,.61641.43082,2.5914,2.5914,0,0,1-.76872.03345,4.27564,4.27564,0,0,1-1.58-.47281,4.924,4.924,0,0,1-.73108-0.48431c-0.20786-.16516-0.38119-0.31494-0.53876-0.42746A1.28838,1.28838,0,0,0,166.898,359.57414Z" transform="translate(0 0)"/><path class="cls-25" d="M164.788,367.50182a5.40111,5.40111,0,0,1,.70293.06036c0.40266,0.05713.90825,0.16,1.40556,0.282,0.49609,0.127.99033,0.27417,1.37207,0.41461a5.08252,5.08252,0,0,1,.6479.28012,2.39208,2.39208,0,0,1-.69154.20654,3.933,3.933,0,0,1-2.92464-.73584A2.352,2.352,0,0,1,164.788,367.50182Z" transform="translate(0 0)"/><path class="cls-25" d="M145.94123,375.29622a3.22137,3.22137,0,0,1,.67143-0.22479,5.987,5.987,0,0,1,2.92491.07941,3.19819,3.19819,0,0,1,.658.26251,3.19777,3.19777,0,0,1-.67146.22592,5.9876,5.9876,0,0,1-2.92485-.08163A3.22071,3.22071,0,0,1,145.94123,375.29622Z" transform="translate(0 0)"/><path class="cls-25" d="M139.66947,373.22429a3.21209,3.21209,0,0,1-.61165.20337,6.19987,6.19987,0,0,1-1.30312.15417,6.13531,6.13531,0,0,1-1.30586-.12692,3.14013,3.14013,0,0,1-.61568-0.19217,2.40559,2.40559,0,0,1,.5804-0.29517,4.10074,4.10074,0,0,1,2.66966-.02567A2.392,2.392,0,0,1,139.66947,373.22429Z" transform="translate(0 0)"/><path class="cls-25" d="M135.09527,371.46364a3.455,3.455,0,0,1-.73517-0.03064,6.52151,6.52151,0,0,1-2.83971-1.12817,3.42981,3.42981,0,0,1-.555-0.48364,3.43086,3.43086,0,0,1,.73558.02963,6.52132,6.52132,0,0,1,2.83888,1.13022A3.45634,3.45634,0,0,1,135.09527,371.46364Z" transform="translate(0 0)"/><path class="cls-25" d="M132.71868,364.22951a0.40614,0.40614,0,0,0-.18628.00354,3.76791,3.76791,0,0,1-.5004.07574,6.13813,6.13813,0,0,1-2.92386-.48047,3.262,3.262,0,0,1-.62476-0.35049,3.26053,3.26053,0,0,1,.70418-0.13162,6.13853,6.13853,0,0,1,2.92349.48264,3.47575,3.47575,0,0,1,.46188.24081A0.34339,0.34339,0,0,1,132.71868,364.22951Z" transform="translate(0 0)"/><path class="cls-25" d="M136.26049,360.195a1.69175,1.69175,0,0,1-.45952.26132,2.64385,2.64385,0,0,1-2.07812-.06992,1.70767,1.70767,0,0,1-.44051-0.29321,2.14792,2.14792,0,0,1,.4865-0.19324,3.45844,3.45844,0,0,1,2.01952.07013A2.20221,2.20221,0,0,1,136.26049,360.195Z" transform="translate(0 0)"/><path class="cls-25" d="M129.3352,355.92742c0.01784-.00372.02666-0.07486-0.09135-0.077-0.04466-.00681-0.07808.02774-0.18324,0.03766-0.08716.01636-.18552,0.03506-0.29149,0.045a6.48731,6.48731,0,0,1-3.02354-.38135,3.41625,3.41625,0,0,1-.65648-0.32928,3.41508,3.41508,0,0,1,.7178-0.15546,6.48752,6.48752,0,0,1,3.02325.38354c0.10017,0.036.19077,0.07858,0.2711,0.11615a0.67925,0.67925,0,0,1,.23561.14343,0.1877,0.1877,0,0,1,.05183.18506A0.05925,0.05925,0,0,1,129.3352,355.92742Z" transform="translate(0 0)"/><path class="cls-25" d="M133.93292,350.79811a3.20079,3.20079,0,0,1-.70435.04092,5.94,5.94,0,0,1-2.78944-.843,3.17674,3.17674,0,0,1-.56313-0.42569,3.178,3.178,0,0,1,.70467-0.042,5.9402,5.9402,0,0,1,2.7888.84518A3.19941,3.19941,0,0,1,133.93292,350.79811Z" transform="translate(0 0)"/><path class="cls-25" d="M130.819,344.40328a2.84148,2.84148,0,0,1-.79762-0.02567A4.78386,4.78386,0,0,1,127.09873,342.7a2.87763,2.87763,0,0,1-.42332-0.67694,6.189,6.189,0,0,1,.72624.29355c0.41249,0.19128.92641,0.46432,1.42941,0.75058,0.50043,0.29068.9948,0.59811,1.3681,0.85764A6.51754,6.51754,0,0,1,130.819,344.40328Z" transform="translate(0 0)"/><path class="cls-25" d="M134.74494,344.00572a2.576,2.576,0,0,1-.71349.00446,4.40811,4.40811,0,0,1-2.65575-1.335,2.60291,2.60291,0,0,1-.421-0.57654,4.17333,4.17333,0,0,1,.68407.16476,9.6154,9.6154,0,0,1,1.33115.55014,9.74116,9.74116,0,0,1,1.2347.7421A4.32208,4.32208,0,0,1,134.74494,344.00572Z" transform="translate(0 0)"/><path class="cls-25" d="M134.176,340.03514a7.65852,7.65852,0,0,1-1.0325-.43463,16.035,16.035,0,0,1-3.92426-2.78406,7.59781,7.59781,0,0,1-.75032-0.83215,7.59106,7.59106,0,0,1,1.03313.43372,16.03609,16.03609,0,0,1,3.923,2.78586A7.65929,7.65929,0,0,1,134.176,340.03514Z" transform="translate(0 0)"/><path class="cls-25" d="M137.05061,336.72222a3.31312,3.31312,0,0,1-.52176-0.49448,6.19226,6.19226,0,0,1-1.34123-2.657,3.28613,3.28613,0,0,1-.08646-0.714,3.28732,3.28732,0,0,1,.52274.494,6.19278,6.19278,0,0,1,1.33926,2.65805A3.31139,3.31139,0,0,1,137.05061,336.72222Z" transform="translate(0 0)"/><path class="cls-25" d="M158.83627,334.73454a1.03761,1.03761,0,0,0,.5545-0.17316,3.14442,3.14442,0,0,0,.789-0.85269,3.409,3.409,0,0,1,.54906-0.56506,2.257,2.257,0,0,1,1.30084-.45508,4.92081,4.92081,0,0,1-.40079.52747c-0.25977.29361-.47723,0.60236-0.7812,1.0192l-0.26768.29907a1.94737,1.94737,0,0,1-.33006.26834,1.38282,1.38282,0,0,1-.749.23251,0.86354,0.86354,0,0,1-.527-0.15588A0.63522,0.63522,0,0,1,158.83627,334.73454Z" transform="translate(0 0)"/><path class="cls-25" d="M162.77941,373.982a1.783,1.783,0,0,1,.55515.35635,2.92774,2.92774,0,0,1,.92313,2.5719,1.83382,1.83382,0,0,1-.20338.628,5.49924,5.49924,0,0,1-.28192-0.57129c-0.14465-.33179-0.30606-0.75137-0.45837-1.17-0.14784-.42017-0.28885-0.84738-0.38841-1.19531A6.19746,6.19746,0,0,1,162.77941,373.982Z" transform="translate(0 0)"/></g><path class="cls-27" d="M147.37683,379.96926a15.70313,15.70313,0,0,0-4.38824-.304c0.50227,1.59109,1.36041,3.04962,1.89252,4.631a23.9908,23.9908,0,0,1,.92172,4.94131c0.609,5.30127,1.2182,10.60519,1.56058,15.93033a7.74753,7.74753,0,0,1-.19675,2.93927,13.87228,13.87228,0,0,1-1.64911,2.78137,3.52867,3.52867,0,0,0-.5764,3.07016q6.06548,0.167,12.13025-.19238a19.87443,19.87443,0,0,0,5.67024-.93256,7.39212,7.39212,0,0,0,4.28554-3.63248,11.11677,11.11677,0,0,0,.73534-2.82736l3.67583-21.87952c0.01968-.15741.05276-0.31433,0.0788-0.47086a38.28893,38.28893,0,0,0,.534-4.31769c0.03557-.69672-0.00424-1.39139.04485-2.08493q0.078-1.10271.12383-2.20743a0.36784,0.36784,0,0,0-.12569-0.36179,1.23575,1.23575,0,0,1-.36932.72229,3.37124,3.37124,0,0,1-.86751.38242q-0.47948.19885-.9597,0.396-0.96194.39441-1.92912,0.77588c-1.28877.50583-2.588,0.98627-3.90488,1.41428a34.1833,34.1833,0,0,1-8.05823,1.69254A40.94621,40.94621,0,0,1,147.37683,379.96926Z" transform="translate(0 0)"/><path class="cls-28" d="M167.76248,406.37392a11.11677,11.11677,0,0,1-.73534,2.82736,7.392,7.392,0,0,1-4.28552,3.63248,19.87443,19.87443,0,0,1-5.67024.93256q-6.05713.35925-12.13025,0.19238a3.52867,3.52867,0,0,1,.5764-3.07016,13.87229,13.87229,0,0,0,1.64911-2.78137,7.74753,7.74753,0,0,0,.19675-2.93927c-0.13815-2.1488-.3199-4.29459-0.5273-6.43774-0.17308-1.78848-.65891-3.68814,1.31279-4.647a7.40348,7.40348,0,0,1,2.95641-.5336l13.91608-.5824,2.99014-.12515a3.81711,3.81711,0,0,1,1.869.23553C169.5805,397.51152,168.49859,401.98827,167.76248,406.37392Z" transform="translate(0 0)"/><path class="cls-20" d="M131.512,388.11775c1.03265,3.31448,1.64874,6.73679,2.37073,10.127,0.72408,3.40009,1.75162,6.7,2.65172,10.05121a15.16845,15.16845,0,0,0,.44855,1.46985,11.39953,11.39953,0,0,0,1.06024,2.02985,4.63423,4.63423,0,0,0,2.13844,2.05167,9.79645,9.79645,0,0,0,3.13193.16043c1.09689,0.00748,2.19379.01651,3.29071,0.01651h2.4212a56.79715,56.79715,0,0,1-.66566-5.85962,25.04312,25.04312,0,0,0-.21658-3.14136c-0.05444-.3147-0.12627-0.62646-0.16937-0.94293-0.0638-.46835-0.02554-0.94077-0.06876-1.40421-0.04694-.5032-0.08018-1.00784-0.12622-1.5112-0.09412-1.029-.2039-2.05655-0.32137-3.08313-0.23-2.00974-.48981-4.01587-0.72131-6.02542-0.32343-2.80734-.60191-5.62424-0.66267-8.45126-0.05458-2.53989.31267-3.56595-2.61513-4.01117-1.34933-.2052-2.72423.28268-4.066-0.02493a2.49049,2.49049,0,0,1-1.06367-.50119,6.01328,6.01328,0,0,1-.87469-1.08365,23.52231,23.52231,0,0,1-1.4857-2.5228,2.52161,2.52161,0,0,1-.32416-0.83176c-0.24792-.00549-0.49544.00919-0.74319,0.01965-1.63959.06927-3.53531-.23065-4.97092,0.74966C126.57943,377.688,130.59754,385.1827,131.512,388.11775Z" transform="translate(0 0)"/><path class="cls-29" d="M147.68623,331.56682a0.1858,0.1858,0,1,1-.36412.058,16.07,16.07,0,0,1-1.51257-4.41422,4.1495,4.1495,0,0,0-.39133-1.34567,1.20725,1.20725,0,0,0-1.15034-.65851,1.166,1.166,0,0,0-.87947,1.10345,2.91052,2.91052,0,0,0,.39276,1.45435,13.12915,13.12915,0,0,0,2.88484,3.84738,1.28889,1.28889,0,0,1-1.12425-.601l-2.79173-3.1409a2.45132,2.45132,0,0,0-1.21922-.89493,4.8656,4.8656,0,0,0,.1783,2.957,3.87862,3.87862,0,0,0,1.08417,1.205,9.7892,9.7892,0,0,0,2.2868,1.34979l-5.00227.01932a0.419,0.419,0,0,0-.23441.04706,0.28711,0.28711,0,0,0-.02818.40094,0.80125,0.80125,0,0,0,.38078.22943,13.82894,13.82894,0,0,0,5.66495.79272,2.13421,2.13421,0,0,0-1.43443,1.33591,4.20742,4.20742,0,0,0-.15128,1.4209,4.42369,4.42369,0,0,0,.38731,2.16852,12.08,12.08,0,0,0,1.47672-2.12341,4.05552,4.05552,0,0,0,.45134-2.50644,9.358,9.358,0,0,1,.897,2.4476,3.82628,3.82628,0,0,0,1.35355,2.17709,23.06259,23.06259,0,0,0-.43048-4.49109l1.65541,1.35776a3.81209,3.81209,0,0,0,2.82971,1.21429,8.64116,8.64116,0,0,0-4.8098-3.892,12.34124,12.34124,0,0,1,6.24667-.88419,0.363,0.363,0,0,0-.05762-0.5101h0l-0.02731-.01974a1.04824,1.04824,0,0,0-.58821-0.141,10.16894,10.16894,0,0,0-4.7086.57709,11.66866,11.66866,0,0,1,1.74089-1.2269,3.99345,3.99345,0,0,0,.8737-3.0463,2.62774,2.62774,0,0,1-1.20663,2.06412,9.72849,9.72849,0,0,0-1.91452,1.57584c0.01044-1.53,1.16245-2.787,1.693-4.22214,0.37672-1.019.6115-2.80478-.05618-3.739C148.62565,325.68175,148.03871,329.02443,147.68623,331.56682Z" transform="translate(0 0)"/><path class="cls-30" d="M147.646,332.05431a0.17345,0.17345,0,1,1-.33992.05408,15.00194,15.00194,0,0,1-1.412-4.12082,3.87365,3.87365,0,0,0-.36531-1.25623,1.127,1.127,0,0,0-1.07388-.61475,1.0885,1.0885,0,0,0-.821,1.03012,2.71712,2.71712,0,0,0,.36665,1.3577,12.25631,12.25631,0,0,0,2.6931,3.59167,1.20316,1.20316,0,0,1-1.04953-.56107l-2.60612-2.932a2.28813,2.28813,0,0,0-1.13818-.83545,4.54227,4.54227,0,0,0,.16644,2.76047,3.62075,3.62075,0,0,0,1.01212,1.125,9.13911,9.13911,0,0,0,2.1348,1.2601l-4.66978.018a0.39134,0.39134,0,0,0-.21883.04395,0.268,0.268,0,0,0-.02631.37427,0.74805,0.74805,0,0,0,.35547.21417,12.90988,12.90988,0,0,0,5.28842.74,1.99229,1.99229,0,0,0-1.3391,1.24713,3.92782,3.92782,0,0,0-.14122,1.32645,4.12966,4.12966,0,0,0,.36159,2.02438,11.27565,11.27565,0,0,0,1.37857-1.98227,3.78608,3.78608,0,0,0,.42134-2.33987,8.73565,8.73565,0,0,1,.83739,2.28494,3.5721,3.5721,0,0,0,1.26356,2.03238,21.53008,21.53008,0,0,0-.40187-4.1926l1.54539,1.26752a3.55869,3.55869,0,0,0,2.64163,1.13358,8.06687,8.06687,0,0,0-4.49011-3.63336,11.52112,11.52112,0,0,1,5.83148-.82541,0.3389,0.3389,0,0,0-.05382-0.47623h0l-0.02547-.01843a0.97854,0.97854,0,0,0-.5491-0.13159,9.49266,9.49266,0,0,0-4.39565.53873,10.89212,10.89212,0,0,1,1.62518-1.14536,3.728,3.728,0,0,0,.81563-2.84384,2.453,2.453,0,0,1-1.12643,1.92694,9.08257,9.08257,0,0,0-1.78728,1.47113c0.00975-1.42834,1.08519-2.60175,1.58047-3.9415,0.35168-.95132.57086-2.61835-0.05244-3.49048C148.523,326.56041,147.97512,329.6809,147.646,332.05431Z" transform="translate(0 0)"/><path class="cls-20" d="M509.2017,386.63027a0.54454,0.54454,0,0,1,.227.14383,0.56011,0.56011,0,0,1,.07208.3898l-0.13586,2.21915a0.38563,0.38563,0,0,1-.06177.2251,0.38122,0.38122,0,0,1-.18042.10275,19.98249,19.98249,0,0,1-2.693.71939,4.40031,4.40031,0,0,1-2.44385-.0448,0.92517,0.92517,0,0,1-.67148-0.75912,1.41331,1.41331,0,0,1,.278-0.666,1.19252,1.19252,0,0,0,.17529-0.668q-0.00252-.60837-0.02478-1.21655a3.21014,3.21014,0,0,0-.294-1.45364A12.55615,12.55615,0,0,1,509.2017,386.63027Z" transform="translate(0 0)"/><path class="cls-21" d="M495.46894,357.46462c-1.35013,0-2.59106.55426-3.9075,0.46664a8.53214,8.53214,0,0,0-1.45523.00626,10.08016,10.08016,0,0,0-5.4082,2.65854,12.85235,12.85235,0,0,0-3.70407,4.71417,15.30655,15.30655,0,0,0-.92322,4.18173q-0.08817.94377-.08951,1.89316c0,3.76364,1.45059,7.29926,2.89063,10.71078l2.89462,6.85751a2.15,2.15,0,0,0,2.48489,1.50241,75.62925,75.62925,0,0,0,14.513-.61026,0.96038,0.96038,0,0,0,.479-0.15747,0.9149,0.9149,0,0,0,.25946-0.46436c0.55768-1.79874.60175-3.67914,1.026-5.50238,0.41626-1.78864,1.39386-3.37238,1.97858-5.10513,2.00684-5.94669.27856-12.7226-3.68063-17.46945A9.61535,9.61535,0,0,0,495.46894,357.46462Z" transform="translate(0 0)"/><path class="cls-22" d="M487.952,361.051c-0.881.80328-2.06775,1.28741-2.73917,2.27261a4.49712,4.49712,0,0,0-.57068,1.31238,12.49017,12.49017,0,0,0,.469,7.476,35.34843,35.34843,0,0,0,3.489,6.74612,30.66991,30.66991,0,0,0,2.92886,4.196c0.653,0.746,1.37515,1.42969,2.02,2.18277a14.26868,14.26868,0,0,1,3.131,6.4191q2.64432,0.06757,5.28976-.007a0.8768,0.8768,0,0,0,1.02673-.88254q0.68752-3.1127,1.08658-6.27979a10.16359,10.16359,0,0,1,.48224-2.38474,19.90772,19.90772,0,0,1,1.3855-2.46017c1.57684-2.83212,1.51715-6.25449,1.41571-9.49442a6.56755,6.56755,0,0,0-1.533-4.70828l-2.148-3.06754a14.66157,14.66157,0,0,0-2.21-2.67719,10.58776,10.58776,0,0,0-6.81851-2.26929,7.94318,7.94318,0,0,0-4.08777.77466C489.46812,358.86025,488.886,360.19942,487.952,361.051Z" transform="translate(0 0)"/><path class="cls-31" d="M486.1147,365.61128a11.9421,11.9421,0,0,0-.35275,2.98209c-0.04117,5.40689,2.163,10.53964,4.13474,15.57437a20.03633,20.03633,0,0,1,1.02286,3.13141,21.06132,21.06132,0,0,1,.30106,4.40814,40.54235,40.54235,0,0,1,5.90179-.10641l0.372-4.11935c0.52908-5.85831,1.05817-11.75873.47519-17.61191a18.60094,18.60094,0,0,0-1.73434-6.77036,8.94107,8.94107,0,0,0-4.08313-4.0777,1.29644,1.29644,0,0,0-1.256-.18192,6.56314,6.56314,0,0,0-1.148,1.08908,18.02616,18.02616,0,0,0-2.08365,2.44385A10.42087,10.42087,0,0,0,486.1147,365.61128Z" transform="translate(0 0)"/><g class="cls-24"><path class="cls-25" d="M496.61051,357.72975a13.76838,13.76838,0,0,1,1.16864,1.0101c0.35709,0.3385.7782,0.76321,1.25061,1.25864,0.4613,0.49661,1.02667,1.04349,1.57156,1.68436l0.86868,0.9845a8.25141,8.25141,0,0,1,.88763,1.11093,11.096,11.096,0,0,1,1.34271,2.78006,12.15516,12.15516,0,0,1,.5788,3.25122,16.93111,16.93111,0,0,1-.264,3.38565c-0.1925,1.10373-.38135,2.22171-0.6391,3.29639-0.24011,1.07785-.47638,2.13861-0.705,3.16516-0.47577,2.06543-1.05634,3.94049-1.39542,5.576a12.14836,12.14836,0,0,0-.16357,4.00989c0.10965,0.97421.19705,1.52933,0.19705,1.52933s-0.12186-.54736-0.293-1.516a11.38313,11.38313,0,0,1-.05945-4.08112c0.29788-1.66968.7749-3.58032,1.2247-5.61765,0.21661-1.029.44046-2.09229,0.66788-3.17273,0.2457-1.0766.41516-2.17392,0.598-3.282a16.39362,16.39362,0,0,0,.29572-3.27423,11.63911,11.63911,0,0,0-.51819-3.11942,12.07684,12.07684,0,0,0-1.21512-2.69849,7.88454,7.88454,0,0,0-.82526-1.10941l-0.833-1.01367c-0.52921-.65491-1.03961-1.21558-1.4754-1.75061-0.43973-.52286-0.83124-0.9704-1.16513-1.329A13.74662,13.74662,0,0,0,496.61051,357.72975Z" transform="translate(0 0)"/></g><g class="cls-26"><path class="cls-25" d="M487.9456,364.39025a0.43554,0.43554,0,0,0,.08142.07278,0.60865,0.60865,0,0,0,.21738.08817c0.175,0.046.44781,0.04184,0.74222,0.12665a2.71752,2.71752,0,0,1,.74878.33423,0.21985,0.21985,0,1,1-.08524.31284,2.71552,2.71552,0,0,1-.81485-0.09155,3.13031,3.13031,0,0,1-.41718-0.15195,1.20979,1.20979,0,0,1-.3587-0.26541,0.50793,0.50793,0,0,1-.13364-0.306A0.30946,0.30946,0,0,1,487.9456,364.39025Z" transform="translate(0 0)"/><path class="cls-25" d="M489.84339,368.15724a1.87408,1.87408,0,0,1,.45374-0.08215,2.92431,2.92431,0,0,1,1.844.50125,1.8702,1.8702,0,0,1,.3493.30139,2.65263,2.65263,0,0,1-.45657.00461,4.83453,4.83453,0,0,1-.9238-0.156,4.906,4.906,0,0,1-.87524-0.33438A2.75253,2.75253,0,0,1,489.84339,368.15724Z" transform="translate(0 0)"/><path class="cls-25" d="M492.13258,373.8149a2.05486,2.05486,0,0,1-.13623.417,3.344,3.344,0,0,1-.4758.77124,3.30544,3.30544,0,0,1-.66986.6102,0.23616,0.23616,0,1,1-.263-0.20581h0l0.01352-.00125a3.30715,3.30715,0,0,1,.47632-0.77084,3.34282,3.34282,0,0,1,.67032-0.6098A2.0585,2.0585,0,0,1,492.13258,373.8149Z" transform="translate(0 0)"/><path class="cls-25" d="M494.25837,380.39775a1.223,1.223,0,0,1-.044.32135,1.65138,1.65138,0,0,1-.278.56708,1.63185,1.63185,0,0,1-.47763.413,0.18736,0.18736,0,1,1-.25668-0.19809,1.632,1.632,0,0,1,.2785-0.56671,1.65079,1.65079,0,0,1,.47812-0.41263A1.22463,1.22463,0,0,1,494.25837,380.39775Z" transform="translate(0 0)"/><path class="cls-25" d="M499.05955,382.727a1.54183,1.54183,0,0,1,.36594-0.06915,2.30057,2.30057,0,0,1,.74582.06894,2.27506,2.27506,0,0,1,.68057.31253,0.20694,0.20694,0,1,1-.08392.31317,2.27532,2.27532,0,0,1-.74564-0.06955,2.30048,2.30048,0,0,1-.68042-0.31311A1.54138,1.54138,0,0,1,499.05955,382.727Z" transform="translate(0 0)"/><path class="cls-25" d="M499.1255,374.40322a1.16989,1.16989,0,0,1,.299-0.17523,1.62948,1.62948,0,0,1,1.3587.0462,1.17384,1.17384,0,0,1,.28619.196,1.538,1.538,0,0,1-.31857.12656,2.20979,2.20979,0,0,1-.66171.08124,2.24228,2.24228,0,0,1-.65454-0.12723A1.60218,1.60218,0,0,1,499.1255,374.40322Z" transform="translate(0 0)"/><path class="cls-25" d="M498.91535,367.12923a0.18523,0.18523,0,0,1-.07642-0.103,0.4163,0.4163,0,0,1,.08487-0.34692,1.29612,1.29612,0,0,1,.33313-0.3,3.46063,3.46063,0,0,1,.38678-0.21664,2.83,2.83,0,0,1,.80414-0.23209,0.223,0.223,0,1,1,.13568.29449,2.82983,2.82983,0,0,1-.69885.46051,3.46014,3.46014,0,0,1-.416.15326,3.09926,3.09926,0,0,0-.33209.08343,0.38825,0.38825,0,0,0-.18628.10947A0.18654,0.18654,0,0,0,498.91535,367.12923Z" transform="translate(0 0)"/><path class="cls-25" d="M497.32176,363.95183a1.09949,1.09949,0,0,1,.18774-0.32709,1.62474,1.62474,0,0,1,1.39584-.60306,1.12275,1.12275,0,0,1,.36691.08838,3.38427,3.38427,0,0,1-.91159.56839A3.4386,3.4386,0,0,1,497.32176,363.95183Z" transform="translate(0 0)"/><path class="cls-25" d="M504.17033,364.17717a1.21527,1.21527,0,0,1,.1106-0.30328,1.63113,1.63113,0,0,1,.3902-0.4917,1.61269,1.61269,0,0,1,.55206-0.29843,0.18677,0.18677,0,1,1,.20819.24854,1.61257,1.61257,0,0,1-.39062.49124,1.63048,1.63048,0,0,1-.55249.29794A1.21462,1.21462,0,0,1,504.17033,364.17717Z" transform="translate(0 0)"/><path class="cls-25" d="M506.277,368.46193a2.54211,2.54211,0,0,1,.11884-0.478,4.31862,4.31862,0,0,1,.45319-0.92654,4.26584,4.26584,0,0,1,.66443-0.78885,0.26095,0.26095,0,1,1,.27161.17709,4.26718,4.26718,0,0,1-.45367.92618,4.31667,4.31667,0,0,1-.66492.78851A2.54048,2.54048,0,0,1,506.277,368.46193Z" transform="translate(0 0)"/><path class="cls-25" d="M505.67839,370.36327a2.62337,2.62337,0,0,1,.4884-0.1134,4.48815,4.48815,0,0,1,1.05176-.02179,4.43671,4.43671,0,0,1,1.02661.22913,2.58151,2.58151,0,0,1,.45624.20856,2.57688,2.57688,0,0,1-.48846.114,4.43541,4.43541,0,0,1-1.0517.02115,4.48522,4.48522,0,0,1-1.02655-.22974A2.62535,2.62535,0,0,1,505.67839,370.36327Z" transform="translate(0 0)"/><path class="cls-25" d="M505.89555,376.27849a0.60764,0.60764,0,0,1,.53162-0.13193,3.62529,3.62529,0,0,1,1.01855.415c0.33014,0.17126.65356,0.36444,0.904,0.51865a4.97486,4.97486,0,0,1,.41827.28851,1.86258,1.86258,0,0,1-.51941.01956,2.87448,2.87448,0,0,1-1.07062-.317,3.329,3.329,0,0,1-.49493-0.32788,4.57059,4.57059,0,0,0-.36371-0.29233,0.97744,0.97744,0,0,0-.28717-0.14667A0.76139,0.76139,0,0,0,505.89555,376.27849Z" transform="translate(0 0)"/><path class="cls-25" d="M504.46714,381.64534a4.33132,4.33132,0,0,1,.47467.04376c0.271,0.04334.618,0.10037,0.95276,0.188,0.33655,0.0809.66937,0.19318,0.92859,0.28394a3.98538,3.98538,0,0,1,.4389.18637,1.72491,1.72491,0,0,1-.46783.1366,2.62221,2.62221,0,0,1-1.979-.4978A1.706,1.706,0,0,1,504.46714,381.64534Z" transform="translate(0 0)"/><path class="cls-25" d="M491.70835,386.92192a2.40562,2.40562,0,0,1,.45444-0.149,4.04956,4.04956,0,0,1,.99353-0.09909,4.00328,4.00328,0,0,1,.98657.153,2.36571,2.36571,0,0,1,.44556.17444,2.35982,2.35982,0,0,1-.4545.14966,4.00143,4.00143,0,0,1-.99347.09845,4.04828,4.04828,0,0,1-.98657-0.15359A2.40311,2.40311,0,0,1,491.70835,386.92192Z" transform="translate(0 0)"/><path class="cls-25" d="M487.46253,385.51927a2.44332,2.44332,0,0,1-.41391.13452,4.15444,4.15444,0,0,1-.88235.10751,4.09593,4.09593,0,0,1-.88428-0.08917,2.35,2.35,0,0,1-.41656-0.12683,1.7566,1.7566,0,0,1,.39316-0.19656,2.72043,2.72043,0,0,1,1.80688-.01749A1.76152,1.76152,0,0,1,487.46253,385.51927Z" transform="translate(0 0)"/><path class="cls-25" d="M484.36592,384.32738a2.58574,2.58574,0,0,1-.49652-0.02368,4.40327,4.40327,0,0,1-1.00778-.2648,4.35514,4.35514,0,0,1-.91461-0.49905,2.53708,2.53708,0,0,1-.37692-0.32437,2.5397,2.5397,0,0,1,.49677.02307,4.35553,4.35553,0,0,1,1.00754.26538,4.40291,4.40291,0,0,1,.91437.49966A2.58268,2.58268,0,0,1,484.36592,384.32738Z" transform="translate(0 0)"/><path class="cls-25" d="M482.757,379.43a0.30613,0.30613,0,0,0-.12582.00122,2.80728,2.80728,0,0,1-.33853.04935,4.14951,4.14951,0,0,1-1.01016-.0383,4.10293,4.10293,0,0,1-.96921-0.28711,2.4092,2.4092,0,0,1-.42346-0.234,2.41216,2.41216,0,0,1,.47617-0.08588,4.10362,4.10362,0,0,1,1.01007.03891,4.14831,4.14831,0,0,1,.96909.28772,2.524,2.524,0,0,1,.31293.16107A0.22009,0.22009,0,0,1,482.757,379.43Z" transform="translate(0 0)"/><path class="cls-25" d="M485.15473,376.69875a1.2401,1.2401,0,0,1-.31116.17377,1.75335,1.75335,0,0,1-1.40646-.04745,1.24111,1.24111,0,0,1-.29852-0.19522,1.59427,1.59427,0,0,1,.329-0.12756,2.35066,2.35066,0,0,1,.68738-0.0816,2.384,2.384,0,0,1,.68018.129A1.65744,1.65744,0,0,1,485.15473,376.69875Z" transform="translate(0 0)"/><path class="cls-25" d="M480.4665,373.80974c0.01236-.003.01736-0.04968-0.06119-0.0531a0.63566,0.63566,0,0,0-.12433.02347,1.08089,1.08089,0,0,1-.19733.03033,4.38146,4.38146,0,0,1-1.03925-.00406,4.33163,4.33163,0,0,1-1.0076-.25421,2.52755,2.52755,0,0,1-.44482-0.21967,2.5262,2.5262,0,0,1,.4855-0.102,4.33318,4.33318,0,0,1,1.03918.0047,4.38043,4.38043,0,0,1,1.00751.25485,1.08084,1.08084,0,0,1,.18356.07849,0.538,0.538,0,0,1,.15921.09512,0.123,0.123,0,0,1,.03574.12427C480.48133,373.8174,480.4665,373.80974,480.4665,373.80974Z" transform="translate(0 0)"/><path class="cls-25" d="M483.579,370.33733a2.39,2.39,0,0,1-.47589.02469,4.01578,4.01578,0,0,1-.98071-0.16476,3.97117,3.97117,0,0,1-.90762-0.40607,2.35062,2.35062,0,0,1-.38217-0.28506,2.35136,2.35136,0,0,1,.47607-0.0253,3.97148,3.97148,0,0,1,.9805.16537,4.014,4.014,0,0,1,.90747.40668A2.3898,2.3898,0,0,1,483.579,370.33733Z" transform="translate(0 0)"/><path class="cls-25" d="M481.471,366.00817a2.063,2.063,0,0,1-.53885-0.02036,3.19034,3.19034,0,0,1-1.97769-1.13531,2.07721,2.07721,0,0,1-.2886-0.45569,4.85176,4.85176,0,0,1,.48962.20129c0.27682,0.13312.6322,0.30759,0.9697,0.50555,0.34094,0.19186.67017,0.41226,0.925,0.58353A5.24618,5.24618,0,0,1,481.471,366.00817Z" transform="translate(0 0)"/><path class="cls-25" d="M484.12876,365.73906a1.88252,1.88252,0,0,1-.4819.00006,2.932,2.932,0,0,1-1.79724-.90359,1.88851,1.88851,0,0,1-.28677-0.38754,3.18162,3.18162,0,0,1,.46133.11432,6.38017,6.38017,0,0,1,.90289.36966,6.50407,6.50407,0,0,1,.83475.50534A3.34694,3.34694,0,0,1,484.12876,365.73906Z" transform="translate(0 0)"/><path class="cls-25" d="M483.7436,363.051a5.75866,5.75866,0,0,1-.69714-0.29681,10.741,10.741,0,0,1-1.40128-.8396,10.63,10.63,0,0,1-1.25528-1.04523,5.64376,5.64376,0,0,1-.50986-0.5607,5.64468,5.64468,0,0,1,.69751.2963,10.62438,10.62438,0,0,1,1.40088.84012,10.74485,10.74485,0,0,1,1.25494,1.04575A5.75877,5.75877,0,0,1,483.7436,363.051Z" transform="translate(0 0)"/><path class="cls-25" d="M485.68962,360.80831a2.47464,2.47464,0,0,1-.3504-0.33615,4.18617,4.18617,0,0,1-.5665-0.84265,4.13656,4.13656,0,0,1-.34137-0.95618,0.25763,0.25763,0,1,1,.28949-0.146,4.137,4.137,0,0,1,.56595.84293,4.18481,4.18481,0,0,1,.34082.95645A2.474,2.474,0,0,1,485.68962,360.80831Z" transform="translate(0 0)"/><path class="cls-25" d="M500.438,359.46269a0.676,0.676,0,0,0,.3761-0.11414,2.14625,2.14625,0,0,0,.53342-0.58032,2.30957,2.30957,0,0,1,.37167-0.38257,1.66224,1.66224,0,0,1,.42761-0.22345,1.49435,1.49435,0,0,1,.453-0.08459,3.88473,3.88473,0,0,1-.27313.35434c-0.17892.19562-.318,0.41449-0.527,0.69269l-0.18121.20248a1.31768,1.31768,0,0,1-.22345.18167,1.022,1.022,0,0,1-.50775.15433,0.593,0.593,0,0,1-.35571-0.10364A0.287,0.287,0,0,1,500.438,359.46269Z" transform="translate(0 0)"/><path class="cls-25" d="M503.10737,386.03218a1.281,1.281,0,0,1,.3732.243,1.95568,1.95568,0,0,1,.62433,1.73978,1.31121,1.31121,0,0,1-.13446.42477s-0.0918-.16354-0.18762-0.38712c-0.09369-.22568-0.21545-0.50735-0.31354-0.79166-0.1048-.28183-0.18848-0.57755-0.26031-0.81091C503.143,386.219,503.10737,386.03218,503.10737,386.03218Z" transform="translate(0 0)"/></g><path class="cls-27" d="M492.68022,390.08544a10.63115,10.63115,0,0,0-2.97073-.20584c0.34,1.07715.921,2.06451,1.28119,3.13507a16.24232,16.24232,0,0,1,.624,3.34515c0.41226,3.58881.82468,7.17944,1.05646,10.78442a5.24487,5.24487,0,0,1-.13318,1.98981,9.39159,9.39159,0,0,1-1.11642,1.8829,2.38879,2.38879,0,0,0-.3902,2.07843q4.10623,0.113,8.21188-.13025a13.45432,13.45432,0,0,0,3.83862-.63132,5.00436,5.00436,0,0,0,2.90118-2.45911,7.52593,7.52593,0,0,0,.4978-1.91406l2.48846-14.81186c0.01331-.10657.03571-0.2128,0.05334-0.31876a25.92536,25.92536,0,0,0,.36145-2.923c0.02411-.47168-0.00287-0.94193.03033-1.41144q0.05283-.74652.0838-1.49438a0.24906,0.24906,0,0,0-.08508-0.2449,0.83664,0.83664,0,0,1-.25.489,2.28337,2.28337,0,0,1-.58728.25891q-0.32465.13463-.64972,0.26807-0.65121.267-1.306,0.52527c-0.87244.34244-1.752,0.66769-2.64349,0.95743a23.14181,23.14181,0,0,1-5.45523,1.14581A27.71907,27.71907,0,0,1,492.68022,390.08544Z" transform="translate(0 0)"/><path class="cls-28" d="M506.48075,407.96071a7.52593,7.52593,0,0,1-.4978,1.91406,5.00422,5.00422,0,0,1-2.90121,2.45911,13.45432,13.45432,0,0,1-3.83862.63132q-4.10056.24326-8.21188,0.13025a2.38879,2.38879,0,0,1,.3902-2.07843,9.3916,9.3916,0,0,0,1.11642-1.8829,5.24487,5.24487,0,0,0,.13318-1.98981c-0.09351-1.45468-.21655-2.90732-0.357-4.35818-0.11716-1.21075-.446-2.49677.88873-3.14587a5.01184,5.01184,0,0,1,2.0014-.36124l9.42081-.39429,2.02423-.08472a2.58427,2.58427,0,0,1,1.26526.15945C507.71153,401.961,506.97911,404.99175,506.48075,407.96071Z" transform="translate(0 0)"/><path class="cls-20" d="M481.9401,395.60179c0.69907,2.2438,1.11615,4.56064,1.60492,6.85577,0.49017,2.30179,1.18582,4.53574,1.79514,6.80441a10.27541,10.27541,0,0,0,.30365.995,7.7168,7.7168,0,0,0,.71774,1.37415,3.1373,3.1373,0,0,0,1.44766,1.38895,6.63161,6.63161,0,0,0,2.12024.10861c0.74258,0.00507,1.48514.01117,2.22772,0.01117h1.6391a38.44906,38.44906,0,0,1-.45065-3.9668,16.95678,16.95678,0,0,0-.14661-2.12662c-0.03687-.213-0.08548-0.4241-0.11469-0.63834-0.04318-.317-0.0173-0.63687-0.04654-0.95062-0.03177-.34067-0.05429-0.68228-0.08545-1.023-0.06372-.69662-0.138-1.39224-0.21756-2.08722-0.15567-1.36053-.3316-2.71863-0.48831-4.079-0.219-1.90051-.40747-3.80746-0.44861-5.72128-0.037-1.71945.21167-2.414-1.77039-2.71545-0.91348-.13892-1.84424.19138-2.75259-0.01688a1.68588,1.68588,0,0,1-.72009-0.33929,4.07073,4.07073,0,0,1-.59213-0.73361,15.92647,15.92647,0,0,1-1.00577-1.70786,1.70759,1.70759,0,0,1-.21945-0.56308c-0.16782-.00372-0.33539.00623-0.50314,0.01331-1.11.04691-2.39331-.15613-3.3652,0.50751C478.6009,388.54106,481.321,393.61482,481.9401,395.60179Z" transform="translate(0 0)"/><path class="cls-29" d="M492.88966,357.31822a0.12578,0.12578,0,1,1-.24649.03922,10.87928,10.87928,0,0,1-1.024-2.98834,2.80923,2.80923,0,0,0-.26492-0.911,0.81726,0.81726,0,0,0-.77875-0.4458,0.78937,0.78937,0,0,0-.59537.747,1.97057,1.97057,0,0,0,.2659.98456,8.88807,8.88807,0,0,0,1.953,2.60458,0.87251,0.87251,0,0,1-.76108-0.40689l-1.88989-2.12625a1.65919,1.65919,0,0,0-.82538-0.60584,3.29394,3.29394,0,0,0,.1207,2.00183,2.62568,2.62568,0,0,0,.734.8158,6.62712,6.62712,0,0,0,1.5481.91376l-3.38641.01309a0.28368,0.28368,0,0,0-.15869.03189,0.19434,0.19434,0,0,0-.01907.27142,0.54259,0.54259,0,0,0,.25778.15533,9.36171,9.36171,0,0,0,3.835.53668,1.44478,1.44478,0,0,0-.97107.90436,2.84783,2.84783,0,0,0-.10242.96191,2.99472,2.99472,0,0,0,.26221,1.468,8.17659,8.17659,0,0,0,.99969-1.4375,2.74541,2.74541,0,0,0,.30554-1.69681,6.33559,6.33559,0,0,1,.60724,1.657,2.59041,2.59041,0,0,0,.91632,1.47385,15.61341,15.61341,0,0,0-.29141-3.04037l1.12067,0.91916a2.58072,2.58072,0,0,0,1.91565.822,5.84972,5.84972,0,0,0-3.2561-2.6348,8.35494,8.35494,0,0,1,4.22885-.59857,0.24572,0.24572,0,0,0-.039-0.34531l0,0-0.01846-.01337a0.70968,0.70968,0,0,0-.39819-0.0954,6.88392,6.88392,0,0,0-3.18762.39066,7.89873,7.89873,0,0,1,1.17853-.8306,2.70342,2.70342,0,0,0,.59146-2.06226,1.77875,1.77875,0,0,1-.81686,1.39737,6.58619,6.58619,0,0,0-1.29608,1.0668c0.00708-1.0358.787-1.88672,1.14612-2.85828a3.15013,3.15013,0,0,0-.038-2.53119A13.83789,13.83789,0,0,0,492.88966,357.31822Z" transform="translate(0 0)"/><path class="cls-30" d="M492.86247,357.64824a0.11742,0.11742,0,1,1-.23013.03662,10.15572,10.15572,0,0,1-.9559-2.7897,2.62228,2.62228,0,0,0-.24731-0.85043,0.763,0.763,0,0,0-.727-0.41617,0.73688,0.73688,0,0,0-.55582.69736,1.83956,1.83956,0,0,0,.24823.91913,8.29789,8.29789,0,0,0,1.82315,2.43146,0.81449,0.81449,0,0,1-.71051-0.37982l-1.76428-1.98492a1.5494,1.5494,0,0,0-.77054-0.56558,3.07491,3.07491,0,0,0,.11267,1.86877,2.4512,2.4512,0,0,0,.68518.76157,6.18651,6.18651,0,0,0,1.44522.853l-3.16132.01221a0.265,0.265,0,0,0-.14813.02975,0.18144,0.18144,0,0,0-.01782.25339,0.50674,0.50674,0,0,0,.24063.145,8.73943,8.73943,0,0,0,3.58011.501,1.34873,1.34873,0,0,0-.90656.84427,2.6595,2.6595,0,0,0-.09561.898,2.7954,2.7954,0,0,0,.24478,1.37045,7.63355,7.63355,0,0,0,.93326-1.342,2.56319,2.56319,0,0,0,.28525-1.584,5.91444,5.91444,0,0,1,.56689,1.54684,2.418,2.418,0,0,0,.85541,1.37589,14.57592,14.57592,0,0,0-.27206-2.83829l1.0462,0.85806a2.40918,2.40918,0,0,0,1.78833.7674,5.46113,5.46113,0,0,0-3.03967-2.45969,7.79956,7.79956,0,0,1,3.94775-.55878,0.22945,0.22945,0,0,0-.03644-0.32239l-0.01724-.01248a0.6624,0.6624,0,0,0-.37173-0.08908,6.42644,6.42644,0,0,0-2.97574.36472,7.37459,7.37459,0,0,1,1.10022-.77539,2.52376,2.52376,0,0,0,.55215-1.9252,1.66063,1.66063,0,0,1-.76257,1.3045,6.15045,6.15045,0,0,0-1.20993.99591c0.00659-.96695.73465-1.76132,1.06995-2.6683a2.94081,2.94081,0,0,0-.03552-2.363A12.91767,12.91767,0,0,0,492.86247,357.64824Z" transform="translate(0 0)"/><path class="cls-32" d="M305.23057,154.97133a56.83546,56.83546,0,0,0-56.83545,56.83546v0h0v38.3465h14.52313v-38.3465h0.14114a42.17121,42.17121,0,0,1,84.34241,0h0.14114v38.3465h14.52313v-38.3465a56.83548,56.83548,0,0,0-56.83545-56.8355h-0.00006Z" transform="translate(0 0)"/><path class="cls-33" d="M253.30176,241.33839H357.15938a34.94743,34.94743,0,0,1,34.94743,34.94743v101.6937a34.94742,34.94742,0,0,1-34.94742,34.94742H253.30175a34.94742,34.94742,0,0,1-34.94742-34.94742V276.28583a34.94743,34.94743,0,0,1,34.94743-34.94743Z"/><path class="cls-1" d="M314.64921,332.58733a22.0532,22.0532,0,1,0-18.83728,0c-0.18561-.07251-0.291-0.11572-0.291-0.11572l-6.52,31.1777h32.45926l-6.52-31.1777S314.83482,332.51482,314.64921,332.58733Z" transform="translate(0 0)"/><path class="cls-34" d="M209.13325,289.19988c-15.54614,1.34607-32.14059,5.51935-49.389,11.45621v47.432a38.51293,38.51293,0,0,0,3.12711,15.31552c10.46739,24.14716,26.95389,39.011,46.26184,49.52332,19.308-10.51221,35.79445-25.37613,46.2619-49.52325a38.51235,38.51235,0,0,0,3.12714-15.31558v-47.432C241.27394,294.71926,224.67941,290.54582,209.13325,289.19988Z" transform="translate(0 0)"/><path class="cls-35" d="M209.13327,296.58281c-13.49329,1.18542-27.89642,4.86066-42.86713,10.089v41.77145A34.34444,34.34444,0,0,0,168.9803,361.931c9.08517,21.26538,23.39461,34.35541,40.153,43.61307,16.75835-9.25766,31.06778-22.34772,40.153-43.61307a34.34489,34.34489,0,0,0,2.7142-13.48779V306.67183C237.02976,301.44344,222.62654,297.76811,209.13327,296.58281Z" transform="translate(0 0)"/><rect class="cls-36" x="333.56482" y="352.84549" width="148.67612" height="60.08145" rx="15.36282" ry="15.36282"/><path class="cls-2" d="M358.25935,376.64092a8.61607,8.61607,0,1,0,8.616,8.61615h0A8.61611,8.61611,0,0,0,358.25935,376.64092Zm0,13.49759a4.88152,4.88152,0,1,1,4.88156-4.88147h0a4.88151,4.88151,0,0,1-4.8815,4.88147h-0.00006Z" transform="translate(0 0)"/><path class="cls-2" d="M380.83537,377.29412a8.616,8.616,0,1,0,8.616,8.616h0A8.616,8.616,0,0,0,380.83537,377.29412Zm0,13.49759a4.88158,4.88158,0,1,1,4.88156-4.88159h0a4.88156,4.88156,0,0,1-4.88153,4.88159h0Z" transform="translate(0 0)"/><rect class="cls-2" x="403.4477" y="375.21692" width="62.43634" height="7.66928"/><rect class="cls-2" x="403.4477" y="389.72812" width="62.43634" height="7.66928"/><path class="cls-37" d="M413.35313,387.82115s2.28455-1.15213,3.68753.56335,3.4086,5.76523,3.47076,8.50171-2.16553,2.5517-3.48972,1.90411-5.19244-6.25894-5.42667-7.35846a3.81621,3.81621,0,0,1,.64832-2.877C412.61549,388.26393,413.35313,387.82115,413.35313,387.82115Z" transform="translate(0 0)"/><path class="cls-16" d="M412.85465,387.27065l-0.10574,2.36685a1.34232,1.34232,0,0,0,.6687,1.23132,2.63442,2.63442,0,0,0,1.76233.2739c1.721-.27658,1.8746-0.76825,1.99753-3.13452S412.85465,387.27065,412.85465,387.27065Z" transform="translate(0 0)"/><path class="cls-37" d="M421.71559,383.27019s2.28464-1.15213,3.68762.56335,3.4086,5.76526,3.47067,8.50171-2.16553,2.5517-3.48965,1.90411-5.19254-6.25894-5.42667-7.35846a3.81594,3.81594,0,0,1,.64832-2.877C420.978,383.71306,421.71559,383.27019,421.71559,383.27019Z" transform="translate(0 0)"/><path class="cls-16" d="M421.21723,382.71971l-0.10574,2.36691a1.34215,1.34215,0,0,0,.6687,1.23123,2.63442,2.63442,0,0,0,1.76233.2739c1.721-.27658,1.8746-0.76825,1.99753-3.13452S421.21723,382.71971,421.21723,382.71971Z" transform="translate(0 0)"/><path class="cls-17" d="M400.83219,339.26583c0.67612-11.00165,11.91461,1.61865,11.91461,1.61865l7.69189,7.53925,6.92633,7.60889a6.8274,6.8274,0,0,1,1.72046,5.48477l-2.802,21.3353a2.09679,2.09679,0,0,1-2.10257,1.8223,7.1305,7.1305,0,0,1-1.038-.09091,2.60646,2.60646,0,0,1-2.315-2.76587l0.51221-19.95465-14.546-8.76868S400.15611,350.26763,400.83219,339.26583Z" transform="translate(0 0)"/><path class="cls-17" d="M392.46971,343.4576c0.676-11.00174,11.91455,1.61865,11.91455,1.61865l7.69189,7.53925,6.92642,7.60889a6.82762,6.82762,0,0,1,1.72037,5.48477l-2.802,21.3353a2.09676,2.09676,0,0,1-2.10257,1.8223,7.12965,7.12965,0,0,1-1.03793-.09091,2.60644,2.60644,0,0,1-2.31512-2.76587l0.51221-19.95465-14.54608-8.76868S391.79359,354.45937,392.46971,343.4576Z" transform="translate(0 0)"/><path class="cls-38" d="M399.11839,308.14171c-8.52036,3.53241-8.34961,8.56891-8.34961,8.56891s1.669,18.46457,1.09933,30.79614c-0.23813,5.155,27.389,5.54837,23.26889-8.20468-4.858-16.21594-3.037-29.34363-5.31113-31.32364S401.32231,307.228,399.11839,308.14171Z" transform="translate(0 0)"/><circle class="cls-7" cx="402.33316" cy="302.05303" r="6.5585" transform="translate(9.18641 615.96965) rotate(-75.5039)"/><ellipse class="cls-7" cx="400.63276" cy="311.51139" rx="4.39453" ry="3.23462" transform="translate(-65.0411 109.78432) rotate(-14.44483)"/><path class="cls-7" d="M402.53456,307.75749a21.00853,21.00853,0,0,0,.07388,3.04172c0.04636,0.84875-2.92572,1.64169-3.694.87335s-0.461-1.56723-.64539-4.456S402.53456,307.75749,402.53456,307.75749Z" transform="translate(0 0)"/><path class="cls-39" d="M407.68351,302.70137a11.71284,11.71284,0,0,0-5.905-.77859,2.89226,2.89226,0,0,0-1.6676.99106,0.98448,0.98448,0,0,1-.50461.36508c-0.48929.11078-1.29041-1.9194-2.24146-1.96561s-1.58588.62714-.806,1.87558,0.51627,2.64587.15741,2.84622-4.1648-2.71445-.80759-9.365,11.88513-3.06854,13.21152-1.72064c0,0,1.39743,1.21732,2.5336.13394C411.65373,295.08333,412.9275,304.62477,407.68351,302.70137Z" transform="translate(0 0)"/><path class="cls-7" d="M395.54844,330.20082v4.98932a2.033,2.033,0,0,0,.66324,1.50214l10.24954,9.34445-1.16461,1.78091-13.53546-9.81659a2.75094,2.75094,0,0,1-1.12085-1.93945l-0.91489-8.70123Z" transform="translate(0 0)"/><path class="cls-38" d="M391.49012,314.21587s-3.10934,4.67633-4.26776,16.98544c0,0,5.31155,1.71777,8.326.74268S391.49012,314.21587,391.49012,314.21587Z" transform="translate(0 0)"/><path class="cls-40" d="M396.11619,320.12859a86.69049,86.69049,0,0,1,1.28647,9.57693,1.95436,1.95436,0,0,1-1.28647,1.88757h0V320.12859Z" transform="translate(0 0)"/><path class="cls-37" d="M398.77543,352.52437l2.26532-.29907,14.62329-8.44281a2.03314,2.03314,0,0,1,1.82907.07584l10.362,5.98032,1.36981-.18085v1.36362l-0.00137.00015a0.53333,0.53333,0,0,1-.31448.4801l-16.57254,9.56812a2.033,2.033,0,0,1-1.829-.07578l-11.2847-6.513a0.73857,0.73857,0,0,1-.44742-0.61511h0v-1.34155Z" transform="translate(0 0)"/><path class="cls-41" d="M409.76283,347.18962l1.039-.59985H422.224l5.63107,3.24893,1.36981-.18085v1.36362l-0.00137.00015a0.53333,0.53333,0,0,1-.31448.4801l-16.57254,9.56812a1.71476,1.71476,0,0,1-.94391.177Z" transform="translate(0 0)"/><path class="cls-42" d="M428.617,349.73805l0.60791-.08026v1.36362l-0.00137.00015a0.53333,0.53333,0,0,1-.31448.4801l-0.29208.16864v-1.93225h0Z" transform="translate(0 0)"/><path class="cls-43" d="M412.16969,361.14739a2.12308,2.12308,0,0,1-1.55411-.09647v-2.3201h1.55411v2.41657Z" transform="translate(0 0)"/><path class="cls-2" d="M412.33653,359.70711l16.57254-9.56815c0.46878-.27066.41-0.74347-0.13132-1.056l-11.28461-6.513a2.03286,2.03286,0,0,0-1.82907-.07584l-16.57245,9.56815c-0.46884.27066-.41,0.74341,0.13126,1.056l11.2847,6.513A2.0327,2.0327,0,0,0,412.33653,359.70711Z" transform="translate(0 0)"/><path class="cls-44" d="M412.617,358.25688L426.3968,350.301c0.38983-.225.34094-0.61819-0.10916-0.87808l-6.04712-3.40045a1.68993,1.68993,0,0,0-1.52078-.063l-13.77994,7.95587c-0.38983.225-.34094,0.6181,0.10916,0.878l6.04715,3.40051A1.69045,1.69045,0,0,0,412.617,358.25688Z" transform="translate(0 0)"/><path class="cls-7" d="M416.85227,342.25582l0.17148,1.14359a8.45508,8.45508,0,0,1-.07462,2.932l-0.20407,1.00751a1.41734,1.41734,0,0,1-1.13535,1.11319h0a0.78162,0.78162,0,0,1-.909-0.62891h0q-0.00485-.02637-0.00781-0.05313l-0.27356-2.44455a2.54465,2.54465,0,0,1-.92737.81949c-0.30191,0,.33792-2.44806,1.02081-3.83359S416.85227,342.25582,416.85227,342.25582Z" transform="translate(0 0)"/><path class="cls-7" d="M411.23475,324.0822l1.77814,3.51947a6.90367,6.90367,0,0,1,.72775,2.67145l0.77216,12.03827,2.33948-.05557,1.06186-13.51913a4.95121,4.95121,0,0,0-.06046-1.24966l-1.21292-6.85547Z" transform="translate(0 0)"/><path class="cls-37" d="M412.764,360.559l1.38947-1.814,14.613-8.46057a2.03283,2.03283,0,0,0,.847-1.623l-0.0127-11.9639,0.84018-1.09683-0.78952-.45721-0.00082.001a0.53348,0.53348,0,0,0-.573.033l-16.56082,9.5885a2.0324,2.0324,0,0,0-.84686,1.62286l0.01392,13.02927a0.7384,0.7384,0,0,0,.30984.6947h0Z" transform="translate(0 0)"/><path class="cls-41" d="M422.86943,353.69875l1.03815-.60107,5.6991-9.8989-0.006-6.50107,0.84018-1.09683-0.78952-.45721-0.00082.001a0.53348,0.53348,0,0,0-.573.033L412.5167,344.766a1.71447,1.71447,0,0,0-.6243.72971Z" transform="translate(0 0)"/><path class="cls-42" d="M430.068,336.08757l0.37289-.48669-0.78952-.45721-0.00082.001a0.53348,0.53348,0,0,0-.573.033l-0.29181.169Z" transform="translate(0 0)"/><path class="cls-43" d="M412.36625,344.872a2.12245,2.12245,0,0,0-.69174,1.395l1.61829,0.93436,0.77542-1.34686Z" transform="translate(0 0)"/><path class="cls-2" d="M413.30543,345.22283l16.56079-9.58835c0.46854-.27121.84891,0.01563,0.84964,0.64075l0.014,13.02921a2.033,2.033,0,0,1-.84686,1.623l-16.56088,9.58832c-0.46844.27121-.84882-0.01562-0.84964-0.64066l-0.01392-13.02927A2.033,2.033,0,0,1,413.30543,345.22283Z" transform="translate(0 0)"/><path class="cls-7" d="M405.29661,347.81758l0.26544,0.54984a3.68279,3.68279,0,0,0,1.38425,1.53439l1.64493,1.014a1.63771,1.63771,0,0,0,1.67923.03876c0.01874-.01089.03741-0.02222,0.05606-0.03381a0.9897,0.9897,0,0,0,.13989-1.52039l-1.71909-1.7673s0.96582,0.74,1.23654.442c0.1983-.21841-0.93665-1.284-1.808-1.319a3.44,3.44,0,0,1-1.7146-.71945Z" transform="translate(0 0)"/><path class="cls-38" d="M409.65538,307.95272s6.30179,6.85669,8.84387,13.14709a12.86515,12.86515,0,0,1-7.42975,5.40582C405.79481,328.029,409.65538,307.95272,409.65538,307.95272Z" transform="translate(0 0)"/><path class="cls-40" d="M412.25611,326.09883l-1.02139-9.86688,2.40677,9.24429A13.7713,13.7713,0,0,1,412.25611,326.09883Z" transform="translate(0 0)"/><path class="cls-2" d="M404.93537,306.569l1.69342-.46518a4.08729,4.08729,0,0,1-1.98865,1.59589,0.971,0.971,0,0,1-1.36386-.6749Z" transform="translate(0 0)"/><path class="cls-45" d="M434.35478,32.996h-23.625a0.50076,0.50076,0,0,1-.50055-0.501h0l0.00055-.023,1.125-23.625a0.49949,0.49949,0,0,1,.5-0.476h21.375a0.50018,0.50018,0,0,1,.5.476l1.125,23.625a0.50077,0.50077,0,0,1-.477.52346Zm-23.101-1h22.576l-1.077-22.625h-20.422Z" transform="translate(0 0)"/><path class="cls-45" d="M427.94679,11.37105a0.50018,0.50018,0,0,1-.5-0.5v-4.97a4.905,4.905,0,0,0-9.81,0v4.97a0.5,0.5,0,1,1-1,0v-4.97a5.905,5.905,0,0,1,11.81,0v4.97a0.49956,0.49956,0,0,1-.49908.5h-0.00092Z" transform="translate(0 0)"/><path class="cls-45" d="M598.18537,56.91861s-0.02338.02459-.0658,0.06579c-2.43787-.97576-5.15851-0.25946-7.2865-2.16855-2.1507-1.92876-3.77454-4.955-5.5545-7.2447-1.95825-2.52086-3.97742-4.99376-6.02979-7.43776-1.46027-1.73755-2.79938-3.7487-4.67279-5.06569-0.265-.52015-0.50476-0.736-0.93024-0.42916a0.58119,0.58119,0,0,0-.41193.3935,12.65084,12.65084,0,0,0-.886,1.17865c-2.42493,3.54457-2.79816,6.62248-1.49225,10.16766,1.30591,3.54457,1.02618,16.04372,1.02618,16.04372a0.92675,0.92675,0,0,0,1.11963.37259c0.56012-.37259-0.74579-12.21939.2804-13.61878,0,0,4.38385-2.42556,8.1153,5.87667,3.73151,8.30161,5.50348,8.48791,8.1153,8.48791,2.61249,0,10.26111.18691,15.85742-.83988C610.96553,61.67505,607.60725,59.6233,598.18537,56.91861Zm-8.4873,1.39877c-3.35828-3.91778-11.47357-17.4431-13.52533-20.24125-0.03754-.05042-0.072-0.10145-0.107-0.15187,1.10059,1.2346,2.08063,2.62968,3.07544,3.81387,2.47534,2.94694,4.861,5.96951,7.198,9.02651a36.88888,36.88888,0,0,0,4.28729,5.36635c1.87836,1.68529,4.33527,1.03109,6.53766,1.69266C595.49543,59.145,592.1316,61.15734,589.69807,58.31738Z" transform="translate(0 0)"/><path class="cls-45" d="M575.80836,133.76383h-3.437V118.303h2.12354a3.59643,3.59643,0,0,0,7.10443,0h2.12335v8.60535a0.562,0.562,0,1,0,1.1239.01488q0.00009-.00744,0-0.01488v-1.51478l1.20935,0.60465a0.56188,0.56188,0,0,0,.71045-0.17862l2.69727-3.821a0.562,0.562,0,0,0-.09937-0.75578l-4.7179-3.93145a0.5595,0.5595,0,0,0-.36182-0.13224H571.8094a0.55932,0.55932,0,0,0-.36218.13262l-4.71735,3.93108a0.562,0.562,0,0,0-.09937.75578l2.69727,3.821a0.56188,0.56188,0,0,0,.71045.17862l1.20929-.60465v8.93211a0.562,0.562,0,0,0,.562.562h3.999A0.562,0.562,0,1,0,575.80836,133.76383Zm10.31824-8.98673-1.28-.64v-5.19583l3.39972,2.833Zm-8.07953-4.56368a2.47628,2.47628,0,0,1-2.40729-1.91032h4.81464A2.47627,2.47627,0,0,1,578.04707,120.21341Zm-8.07965,4.56368-2.11969-3.00282,3.39972-2.833V124.137Z" transform="translate(0 0)"/><path class="cls-45" d="M588.9131,128.12316H577.61451a0.562,0.562,0,0,0-.562.562v19.801a0.562,0.562,0,0,0,.562.562h4.32709a0.56185,0.56185,0,0,0,.561-0.53078l0.76111-13.69254,0.76111,13.69254a0.562,0.562,0,0,0,.561.53078h4.32709a0.562,0.562,0,0,0,.562-0.562V128.685a0.56169,0.56169,0,0,0-.56146-0.56189H588.9131Zm-0.562,2.38153h-1.772v-1.25763h1.772v1.25763Zm-7.27881,0v-1.25763h4.38287v1.25764h-4.38287v0Zm-1.1239-1.25764v1.25764h-1.772v-1.25763h1.772v0Zm5.16919,18.67709L584.35371,134.183a0.562,0.562,0,0,0-.561-0.53078H582.735a0.56185,0.56185,0,0,0-.561.53078l-0.76379,13.74117h-3.23358V131.62857h10.17468v16.29556h-3.23376Z" transform="translate(0 0)"/><path class="cls-45" d="M569.549,72.15158a0.59665,0.59665,0,0,0-.59662.59662V74.705l-3.13513,1.04466-5.93353,1.18682a0.60007,0.60007,0,0,0-.20337.081l-6.56281,4.17631a0.597,0.597,0,0,0-.18323.82413l4.17633,6.56278a0.59685,0.59685,0,0,0,.90509.11915l1.39075-1.26053v16.333a0.59665,0.59665,0,0,0,.59662.59662h19.09174a0.59665,0.59665,0,0,0,.59662-0.59662V87.56688l1.41229,1.15507a0.584,0.584,0,0,0,.45941.12876,0.59164,0.59164,0,0,0,.40668-0.24878l4.17633-5.96616a0.59623,0.59623,0,0,0-.13782-0.82443l-6.56281-4.77293a0.59136,0.59136,0,0,0-.23364-0.102l-5.93121-1.18682-3.13513-1.04466V73.26a2.38231,2.38231,0,1,0-2.98309-2.30169,0.59662,0.59662,0,0,0,1.19324,0A1.19324,1.19324,0,1,1,569.549,72.15158Zm0,3.61174,2.94141,0.982a2.96885,2.96885,0,0,1-5.88287,0Zm15.28424,6.66853-3.47131,4.95966-1.88861-1.54573a0.59659,0.59659,0,0,0-.975.46232v16.86752H560.59974V86.0902a0.59655,0.59655,0,0,0-.998-0.44134L557.73963,87.342l-3.476-5.46131,5.96619-3.79644,5.20264-1.04058a4.17628,4.17628,0,0,0,8.22968,0l5.18573,1.03767Z" transform="translate(0 0)"/><path class="cls-45" d="M145.61766,111.02749L134.24839,99.65836a3.26666,3.26666,0,0,0-4.60939-.00014l-18.02115,18.02123a3.26632,3.26632,0,0,0,0,4.60925l1.402,1.402,0.00035,0.00035,0.00042,0.00042,9.42215,9.42216h-1.30463a0.748,0.748,0,0,0,0,1.49593h4.15069l0.00288,0.00008,0.00288-.00008,10.80314,0.00014a0.748,0.748,0,0,0,.01526-1.49593h-0.01526l-7.95679-.00014,17.47684-17.47683A3.26471,3.26471,0,0,0,145.61766,111.02749Zm-1.05779,3.55147-18.02129,18.02129a1.75048,1.75048,0,0,1-1.24418.51332h-0.00568a1.7498,1.7498,0,0,1-1.24376-.51332l-9.43806-9.43813,17.30677-17.30692a0.748,0.748,0,1,0-1.04712-1.06844l-0.01073.01073L113.549,122.10441l-0.87349-.87349a1.76512,1.76512,0,0,1,.00007-2.49368l18.02119-18.02119a1.77083,1.77083,0,0,1,2.49384.00007l4.04649,4.04642-17.307,17.30713a0.748,0.748,0,0,0,1.05778,1.05778l17.307-17.30705,6.265,6.26479A1.76931,1.76931,0,0,1,144.55987,114.579Z" transform="translate(0 0)"/><path class="cls-45" d="M129.09538,120.30925a0.74817,0.74817,0,0,0-1.05785,0l-5.886,5.88589a0.748,0.748,0,1,0,1.05127,1.06436l0.00651-.00652,5.886-5.8859A0.75141,0.75141,0,0,0,129.09538,120.30925Z" transform="translate(0 0)"/><path class="cls-45" d="M126.68122,125.89669l-2.41409,2.41409a0.748,0.748,0,1,0,1.05127,1.06436l0.00651-.00652,2.41409-2.41409A0.748,0.748,0,0,0,126.68122,125.89669Z" transform="translate(0 0)"/><path class="cls-45" d="M128.90274,123.67537l-0.31732.31725a0.74794,0.74794,0,1,0,1.052,1.06342l0.00273-.00272,0.00285-.00285,0.31732-.31725a0.74794,0.74794,0,0,0-1.05478-1.0607Z" transform="translate(0 0)"/><path class="cls-45" d="M139.21263,110.192a0.748,0.748,0,0,0-1.05779,0l-3.17355,3.17349a0.748,0.748,0,0,0,0,1.05778l2.11571,2.11549a0.748,0.748,0,0,0,1.05778,0l3.17342-3.17335a0.748,0.748,0,0,0,0-1.05778Zm-1.58681,4.76016-1.05785-1.05778,2.11571-2.11564,1.05779,1.05785Z" transform="translate(0 0)"/><path class="cls-45" d="M133.1303,104.32905a0.74531,0.74531,0,0,0,.529-0.21921l0.31732-.31746a0.748,0.748,0,1,0-1.04807-1.06751l-0.00993.00994-0.31732.31746A0.748,0.748,0,0,0,133.1303,104.32905Z" transform="translate(0 0)"/><path class="cls-45" d="M118.18474,123.81505l-0.31732.31732a0.748,0.748,0,0,0,1.05778,1.05785l0.31732-.31732A0.748,0.748,0,0,0,118.18474,123.81505Z" transform="translate(0 0)"/><path class="cls-45" d="M35.67834,179.85652a3.73955,3.73955,0,0,0,2.80986,3.61478v12.30775H36.615a0.93662,0.93662,0,1,0,0,1.87325H64.71355a0.93662,0.93662,0,1,0,0-1.87325H62.84031V183.47129a3.73955,3.73955,0,0,0,2.80986-3.61478v-0.93661H35.67834v0.93663ZM54.41073,183.603a3.74548,3.74548,0,0,0,3.74648-3.74448v-0.002a3.73955,3.73955,0,0,0,2.80986,3.61478v12.30771H46.91778V183.603a3.74548,3.74548,0,0,0,3.74648-3.74448v-0.002A3.74784,3.74784,0,0,0,54.41073,183.603Zm-8.42958-.13171v12.30772H40.36144V183.47129a3.73946,3.73946,0,0,0,2.80986-3.61478,3.73955,3.73955,0,0,0,2.80986,3.61478h0v0Zm15.92253-12.981H39.42482l-3.74648,7.493H65.65017Zm-18.31161,2.0818-1.87324,3.74648a0.47248,0.47248,0,0,1-.42078.2598,0.45338,0.45338,0,0,1-.20857-0.04941,0.46664,0.46664,0,0,1-.2094-0.62582l0.00083-.00166,1.87324-3.74648a0.468,0.468,0,0,1,.83791.41711h0v0Zm3.74648,0-1.87324,3.74648a0.47248,0.47248,0,0,1-.42078.2598,0.45316,0.45316,0,0,1-.20852-0.04935,0.46664,0.46664,0,0,1-.2094-0.62582l0.00083-.00166,1.87324-3.74648a0.468,0.468,0,0,1,.83787.41705h0v0Zm3.794,3.5379a0.46831,0.46831,0,0,1-.93662.00159v-3.74811a0.46831,0.46831,0,0,1,.93662-0.00159V176.11Zm5.37825,0.40977a0.46735,0.46735,0,0,1-.63527-0.18233v0l-0.00133-.00241-2.04886-3.74648a0.46911,0.46911,0,0,1,.82323-0.45l2.04886,3.74648a0.47022,0.47022,0,0,1-.18661.63477h0v0Zm3.72821,0.00914a0.43743,0.43743,0,0,1-.20852.04941,0.463,0.463,0,0,1-.41709-0.2598l-1.87328-3.74651a0.46794,0.46794,0,0,1,.83781-0.41708l1.87324,3.74648a0.468,0.468,0,0,1-.21146.62717h0ZM43.63961,190.302v-2.15862a0.92616,0.92616,0,0,1-.46831-0.7939,0.93662,0.93662,0,0,1,1.87324,0h0a0.9223,0.9223,0,0,1-.46831.7939V190.302a0.92246,0.92246,0,0,1,.46831.794A0.93678,0.93678,0,1,1,43.63961,190.302Zm-4.21479-21.685a0.93726,0.93726,0,0,1,.93662-0.93661H60.96707a0.93662,0.93662,0,1,1,0,1.87325H40.36144A0.93726,0.93726,0,0,1,39.42482,168.61705Zm12.67,20.00011-0.66219-.66225,2.64888-2.64886,0.66219,0.66225Zm0,2.64888-0.66219-.66225,5.29775-5.29774,0.66219,0.66225Zm4.63551-3.31107,0.66219,0.66225-2.64888,2.64888-0.66219-.66225Z" transform="translate(0 0)"/><path class="cls-45" d="M618.92359,114.416a67.79083,67.79083,0,0,0-1.28986-7.74327c-1.60327-7.153-3.76361-11.56105-5.32593-14.02936V90.46555l1.79047-7.75875a0.56259,0.56259,0,0,0,.00311-0.23732l0.00037-.00007-0.60156-3.00824a0.564,0.564,0,0,0-.5531-0.45346h-1.80487a0.56407,0.56407,0,0,0-.56409.56406h0v2.88237a5.65248,5.65248,0,0,0-2.42,1.99212,0.04164,0.04164,0,0,1-.04852,0,5.65183,5.65183,0,0,0-2.4198-1.99205V79.57177a0.56408,0.56408,0,0,0-.56409-0.56406h-1.80481a0.564,0.564,0,0,0-.5531.45339l-0.60168,3.00824,0.00037,0.00007a0.56259,0.56259,0,0,0,.00311.23732L603.96,90.46555l0.00006,2.1778c-1.56238,2.46831-3.72266,6.87639-5.326,14.02936a67.80456,67.80456,0,0,0-1.28986,7.74327,0.564,0.564,0,0,0,.51062.61275h0q0.02554,0.00231.05115,0.00232h20.456a0.56385,0.56385,0,0,0,.5639-0.56377Q618.92591,114.44162,618.92359,114.416Zm-7.21741-34.28029h0.7785l0.36829,1.8417a6.20563,6.20563,0,0,0-1.14685.12482V80.13576h0.00006Zm-7.923,0h0.77844v1.96658a6.19323,6.19323,0,0,0-1.14679-.12482Zm-0.36359,2.9713a4.641,4.641,0,0,1,3.76709,1.988,1.16447,1.16447,0,0,0,1.89423,0,4.61483,4.61483,0,0,1,3.768-1.99121l-1.554,6.73335h-6.32233Zm7.76025,7.85831v1.27849h-6.09167V90.96537h6.09167ZM598.53456,113.903c0.31226-2.6587,1.80579-13.34063,6.30054-20.5311h0.83643l-1.10333,7.17155a0.5641,0.5641,0,0,0,.47168.64329,0.57511,0.57511,0,0,0,.08649.00661,0.56406,0.56406,0,0,0,.55676-0.4783l1.12982-7.34315h0.757v11.46881a0.56406,0.56406,0,0,0,1.12811,0V93.372h0.757l1.1297,7.34315a0.564,0.564,0,0,0,.55676.4783,0.57409,0.57409,0,0,0,.08649-0.00661,0.564,0.564,0,0,0,.47168-0.6432h0v-0.00009L610.59645,93.372h0.83649c4.49188,7.18625,5.98755,17.87155,6.30041,20.53109H598.53456v0Z" transform="translate(0 0)"/><path class="cls-45" d="M340.99839,42.49619L338.47227,38.631a6.02853,6.02853,0,0,0-5.07083-2.72783h-6.53311V32.14375a4.16613,4.16613,0,0,0-4.162-4.162H310.47639a7.76249,7.76249,0,1,0-11.92169,7.92151h-6.54126a0.79233,0.79233,0,0,0,0,1.58466h7.92151v1.58421H296.766a0.79211,0.79211,0,0,0,0,1.58421h3.16888v1.58421h-7.92151a0.79233,0.79233,0,0,0-.00122,1.58466h7.92273v3.50838a3.97314,3.97314,0,0,0-2.37653,3.63122v0.78191a0.79227,0.79227,0,0,0,.79221.79233h7.02594a4.37476,4.37476,0,0,0,8.52438,0h15.2406a4.37476,4.37476,0,0,0,8.52438,0h2.66937a0.79158,0.79158,0,0,0,.79187-0.79129V42.92953A0.79282,0.79282,0,0,0,340.99839,42.49619Zm-44.3248-13.05308a6.18047,6.18047,0,1,1,6.18048,6.18046h0A6.18768,6.18768,0,0,1,296.67359,29.44311Zm4.84555,14.3821h1.5842a0.79233,0.79233,0,0,0,0-1.58466h-1.5842V40.65633h5.54541a0.79211,0.79211,0,0,0,0-1.58421h-5.54541V37.48791h10.29807a0.79233,0.79233,0,0,0,0-1.58466h-4.66379a7.76067,7.76067,0,0,0,3.45944-6.3373H322.7068a2.5808,2.5808,0,0,1,2.57736,2.5778V46.99363h-23.755l-0.01.00091V43.82521Zm23.765,7.12918H313.973a4.36062,4.36062,0,0,0-1.126-2.37654h12.43707v2.37654h0.00006Zm-23.755-2.37654h4.90131a4.36047,4.36047,0,0,0-1.12549,2.37654h-6.16232A2.38983,2.38983,0,0,1,301.52912,48.57785Zm8.10962,5.76571a2.79492,2.79492,0,1,1,2.79492-2.79492h0A2.79835,2.79835,0,0,1,309.63874,54.34356Zm23.765,0a2.79492,2.79492,0,1,1,2.79492-2.79492h0a2.79835,2.79835,0,0,1-2.795,2.79491h0.00009Zm6.13922-3.38917h-1.805a4.37413,4.37413,0,0,0-8.66852,0h-2.20111V37.48791h6.53311a4.4514,4.4514,0,0,1,3.745,2.00939l2.39648,3.66794v7.78915h0Z" transform="translate(0 0)"/><path class="cls-45" d="M334.69963,51.54863a1.29593,1.29593,0,1,1-1.29593-1.29593h0a1.29591,1.29591,0,0,1,1.29593,1.29589v0h0v0Z" transform="translate(0 0)"/><path class="cls-45" d="M310.93464,51.54863a1.29569,1.29569,0,1,1,0-.00048v0.00048h0Z" transform="translate(0 0)"/><path class="cls-45" d="M303.89567,29.44311V25.97734a0.79211,0.79211,0,0,0-1.5842,0v3.2074l-1.61685,2.2179a0.792,0.792,0,0,0,1.27.94671l0.0101-.01386,1.76917-2.426A0.79225,0.79225,0,0,0,303.89567,29.44311Z" transform="translate(0 0)"/><path class="cls-45" d="M333.13673,38.27979h-1.51532a0.792,0.792,0,0,0-.79233.79167v5.54566a0.792,0.792,0,0,0,.79166.79233h5.33215a1.37561,1.37561,0,0,0,1.19485-2.05789l-1.84982-3.23777A3.64931,3.64931,0,0,0,333.13673,38.27979Zm-0.723,5.54542V39.86445h0.723a2.0595,2.0595,0,0,1,1.78546,1.03574l1.67123,2.925h-4.17969v0Z" transform="translate(0 0)"/><path class="cls-45" d="M231.30886,57.4769a1.13767,1.13767,0,0,0-.91885-0.467H204.80229a1.1038,1.1038,0,0,0-.14674.00944l-1.05305-3.0356a1.1384,1.1384,0,0,0-.65836-0.68581L197.63694,51.213a1.13741,1.13741,0,0,0-.83215,2.11715l4.82016,1.89354,5.89995,17.00631a0.942,0.942,0,0,0-.58157.57008l-1.70587,4.73854a0.94784,0.94784,0,0,0,.89165,1.26866h0.876a3.41175,3.41175,0,1,0,5.07144,0h7.43837a3.41159,3.41159,0,1,0,5.07127,0h1.06552a0.94769,0.94769,0,0,0,.006-1.89537H207.47753l1.05647-2.93462a1.12624,1.12624,0,0,0,.4381.09138h16.6794a1.13668,1.13668,0,0,0,1.08273-.79l4.73854-14.78434A1.13672,1.13672,0,0,0,231.30886,57.4769ZM209.54083,82.598a1.51633,1.51633,0,1,1,1.5163-1.51637v0.00008A1.51776,1.51776,0,0,1,209.54083,82.598Zm12.50951,0a1.51633,1.51633,0,1,1,1.5163-1.51637v0.00008a1.51783,1.51783,0,0,1-1.51631,1.51629h0Zm5.96118-20.75488h-5.80318v-2.5588h6.62318Zm-1.671,5.21232h-4.13213V64.11763h5.0739Zm-11.65077,0V64.11763h5.24413v2.93788h-5.24413v0Zm5.24413,2.27468v2.464h-5.24413v-2.464h5.24413ZM207.118,64.11763h5.29735v2.93788h-4.278Zm7.57162-2.27444v-2.5588h5.24413v2.5588h-5.24413Zm-2.27435-2.5588v2.5588h-6.08659l-0.88768-2.5588h6.97427Zm-3.48868,10.0458h3.48868v2.464h-2.63393Zm13.28169,2.4641v-2.464h3.40356l-0.78964,2.464h-2.61392Z" transform="translate(0 0)"/><g id="c34_present" data-name="c34 present"><polyline class="cls-45" points="496.618 58.186 496.618 64.213 508.486 64.213 508.486 47.554 504.013 55.487 502.727 53.401 500.011 53.888 503.583 47.554 496.618 47.554 496.618 58.186"/><path class="cls-45" d="M523.5464,39.60375h-7.88068a9.67367,9.67367,0,0,0,1.23682-.74892,4.4933,4.4933,0,0,0,2.14331-3.53885,4.76975,4.76975,0,0,0-1.20276-3.13794,4.05087,4.05087,0,0,0-2.67-.99229,5.28439,5.28439,0,0,0-2.94159.94644c-1.29208.86531-2.30319,2.73938-3.0239,4.169-0.03644.07172-.07288,0.14108-0.10815,0.21045a18.774,18.774,0,0,0-.92056-2.15858,8.53463,8.53463,0,0,0-2.20914-2.22089,5.26628,5.26628,0,0,0-2.93689-.94644,4.10519,4.10519,0,0,0-2.79462,1.14866,5.27621,5.27621,0,0,0-1.24976,3.34251,3.587,3.587,0,0,0,.57257,1.93637,5.82639,5.82639,0,0,0,2.33377,1.99046h-7.25522l0.01645,6.62506H508.28v-6.625h1.66v6.62506h13.62634ZM502.365,37.53217a3.38193,3.38193,0,0,1-1.08047-1.004,2.445,2.445,0,0,1,.35388-2.71351,2.09473,2.09473,0,0,1,1.38028-.5949h0.0141a3.30846,3.30846,0,0,1,1.80939.60548,9.6629,9.6629,0,0,1,2.33612,3.39071,9.04116,9.04116,0,0,1,.7019,1.84585A13.15473,13.15473,0,0,1,502.365,37.53217Zm9.32681-1.44023a9.89311,9.89311,0,0,1,1.67184-2.26674,3.29029,3.29029,0,0,1,1.80939-.60548h0.00586a2.0344,2.0344,0,0,1,1.32031.49027,1.79249,1.79249,0,0,1,.50909,1.22508,3.02023,3.02023,0,0,1-1.298,2.26674,13.98708,13.98708,0,0,1-5.42114,2.00456,9.31179,9.31179,0,0,1,1.40265-3.11442h0Z" transform="translate(0 0)"/><polygon class="cls-45" points="518.209 53.861 515.494 53.401 514.213 55.512 509.798 47.661 509.798 64.213 521.605 64.213 521.605 47.554 514.64 47.554 518.209 53.861"/><path class="cls-45" d="M509.7978,47.55382" transform="translate(0 0)"/></g><path class="cls-46" d="M136.568,123.78114" transform="translate(0 0)"/><path class="cls-47" d="M50.83612,168.61951c-2.19227-8.992-3.89648-18.17744-2.39066-26.5822,2.12739-11.8741,13.52786-19.91988,25.17843-14.70432a22.1246,22.1246,0,0,1,7.00426,5.00352c2.00316,2.11844,4.34482,4.853,4.69439,7.85657a3.28978,3.28978,0,0,1-.56,2.48085c-2.23766,2.71275-5.51089-3.00146-6.261-4.57262a19.96536,19.96536,0,0,1-2.04026-9.275c0.38178-8.42691,5.77082-16.60087,13.63184-19.66074,5.04807-1.96494,10.68463-1.829,16.02512-.92171,0,0,8.67849,2.29523,11.53013,4.2119" transform="translate(0 0)"/><path class="cls-47" d="M221.63342,57.103c4.73782-8.45274,11.33733-15.21315,22.32951-17.27734,10.15344-1.90669,28.66492,1.40511,29.78409,14.21168a2.98639,2.98639,0,0,1-.46683,2.17905c-2.28,2.76627-8.054-3.051-9.225-4.82741a13.72532,13.72532,0,0,1-1.39474-11.83631c4.29767-13.42021,20.07031-17.612,32.51819-14.55241q0.75815,0.18634,1.49619.40013" transform="translate(0 0)"/><path class="cls-47" d="M134.7622,125.65336s23.01231,6.41323,37.33868-2.88562c9.32207-6.0507,16.005-15.03107,10.04178-23.89107a6.02487,6.02487,0,0,0-2.8502-2.50948c-6.27087-2.15015-2.91473,8.99963-1.24425,11.19653,13.73882,18.06188,26.60435-9.46242,31.3882-20.534q0.77383-1.791,1.50133-3.66718" transform="translate(0 0)"/><path class="cls-47" d="M521.11769,63.5566a48.15657,48.15657,0,0,0,23.85077,1.797c5.58838-1.14755,10.46063-7.68955,10.98975-13.18445,0.8302-8.62237-10.09-9.49264-12.63641-1.91475-3.57715,10.64508,13.54834,20.93658,20.75488,25.298" transform="translate(0 0)"/><path class="cls-47" d="M498.40354,39.60621c-3.22913-6.12661-6.56567-12.17988-11.97662-16.688-8.827-7.35426-19.53714-6.35117-24.478,4.25071-2.51273,5.39167-3.06854,12.223,1.78876,16.52131a2.62134,2.62134,0,0,0,.98776.61537c2.15887,0.60749,1.43216-3.72064,1.22183-4.75758a19.22582,19.22582,0,0,0-2.96524-6.663,42.914,42.914,0,0,0-15.01273-13.69175A31.93235,31.93235,0,0,0,434.749,15.50777h-1.29068" transform="translate(0 0)"/><path class="cls-47" d="M321.87861,52.20572s7.99313,7.33968,25.55725,5.8365c6.15045-.52637,12.23892-3.417,17.20831-6.9618,3.29276-2.3488,6.52118-5.29752,8.28906-9.00356a10.15155,10.15155,0,0,0,1.08643-4.88571c-0.09091-1.6665-.75092-4.142-2.34979-4.94739a2.86649,2.86649,0,0,0-2.22751-.13683,4.64841,4.64841,0,0,0-2.81866,2.49243c-4.468,7.91767,2.29974,17.26352,10.44119,18.72041,15.5499,2.7826,23.67227-11.58208,32.00659-22.97855L411,27.74738" transform="translate(0 0)"/><rect class="cls-33" x="183.75002" y="270.12106" width="2.5" height="6.875"/><rect class="cls-33" x="183.87502" y="257.68356" width="2.5" height="6.875"/><rect class="cls-33" x="184.00002" y="245.24605" width="2.5" height="6.875"/><rect class="cls-33" x="184.12502" y="232.80855" width="2.5" height="6.875"/><rect class="cls-33" x="184.25002" y="220.37105" width="2.5" height="6.875"/><rect class="cls-33" x="184.37502" y="207.93355" width="2.5" height="6.875"/><rect class="cls-33" x="184.50002" y="195.49605" width="2.5" height="6.875"/><rect class="cls-33" x="195.02086" y="195.32938" width="6.875" height="2.5"/><rect class="cls-33" x="209.10417" y="195.28772" width="6.875" height="2.5"/><rect class="cls-33" x="223.1875" y="195.24605" width="6.875" height="2.5"/><rect class="cls-33" x="237.27086" y="195.20438" width="6.875" height="2.5"/><rect class="cls-33" x="364.02086" y="194.82939" width="6.875" height="2.5"/><rect class="cls-33" x="378.10421" y="194.7877" width="6.875" height="2.5"/><rect class="cls-33" x="392.1875" y="194.74605" width="6.875" height="2.5"/><rect class="cls-33" x="406.27086" y="194.70439" width="6.875" height="2.5"/><rect class="cls-33" x="420.35421" y="194.6627" width="6.875" height="2.5"/><rect class="cls-33" x="434.4375" y="194.62105" width="6.875" height="2.5"/><rect class="cls-33" x="449.625" y="194.61583" width="2.5" height="6.875"/><rect class="cls-33" x="449.625" y="207.92833" width="2.5" height="6.875"/><rect class="cls-33" x="449.625" y="221.24083" width="2.5" height="6.875"/><rect class="cls-33" x="449.625" y="234.55333" width="2.5" height="6.875"/><rect class="cls-33" x="449.625" y="247.86583" width="2.5" height="6.875"/><rect class="cls-33" x="449.625" y="261.17838" width="2.5" height="6.875"/><rect class="cls-33" x="449.625" y="274.49088" width="2.5" height="6.875"/><rect class="cls-33" x="449.625" y="287.80338" width="2.5" height="6.875"/><rect class="cls-33" x="449.625" y="301.11588" width="2.5" height="6.875"/><rect class="cls-33" x="449.625" y="314.42838" width="2.5" height="6.875"/><rect class="cls-33" x="449.625" y="327.74088" width="2.5" height="6.875"/><rect class="cls-33" x="449.625" y="341.05338" width="2.5" height="6.875"/></svg>