<svg id="Layer_1" data-name="Layer 1" xmlns="http://www.w3.org/2000/svg" viewBox="0 0 24.70832 12.44046"><defs><style>.cls-1{fill:#2e3192;}</style></defs><title>shipping-truck</title><path class="cls-1" d="M23.21876,19.076a1.6665,1.6665,0,1,0,1.6665,1.6665A1.66647,1.66647,0,0,0,23.21876,19.076Zm0,2.9502a1.28369,1.28369,0,1,1,1.28369-1.28369A1.2837,1.2837,0,0,1,23.21876,22.02625Z" transform="translate(-2.75 -9.9686)"/><path class="cls-1" d="M6.33354,19.076A1.6665,1.6665,0,1,0,8,20.74255,1.66647,1.66647,0,0,0,6.33354,19.076Zm0,2.9502a1.28369,1.28369,0,1,1,1.28369-1.28369A1.2837,1.2837,0,0,1,6.33354,22.02625Z" transform="translate(-2.75 -9.9686)"/><path class="cls-1" d="M2.75,18.19745v2.03333H4.17414a2.2177,2.2177,0,0,1,4.31879,0H19.01045V18.19745H2.75Z" transform="translate(-2.75 -9.9686)"/><path class="cls-1" d="M23.71014,11.75848H19.625v8.47229h1.43433a2.21774,2.21774,0,0,1,4.31885,0h2.08014V16.391a1.1987,1.1987,0,0,0-.23627-0.71457l-2.54948-3.43379A1.1987,1.1987,0,0,0,23.71014,11.75848Zm2.13362,3.76813H20.68751V12.42517h3.34381l1.81244,2.59363v0.50781Z" transform="translate(-2.75 -9.9686)"/><path class="cls-1" d="M12.1051,15.41321a0.07752,0.07752,0,0,0-.03931.01227,0.03822,0.03822,0,0,1,.019.03467l-0.00122.011,0.06464-.03131a0.06538,0.06538,0,0,0-.027-0.02325A0.03237,0.03237,0,0,0,12.1051,15.41321Z" transform="translate(-2.75 -9.9686)"/><path class="cls-1" d="M9.22858,15.47705a0.14719,0.14719,0,0,1,.05219.0401V15.40857H9.18738A0.08345,0.08345,0,0,1,9.22858,15.47705Z" transform="translate(-2.75 -9.9686)"/><path class="cls-1" d="M9.50555,15.43732a0.06043,0.06043,0,0,0-.00714-0.02875H9.46155a0.11016,0.11016,0,0,0-.04431.03113,0.14066,0.14066,0,0,0-.024.03461,0.12818,0.12818,0,0,0-.01227.04047,0.15517,0.15517,0,0,0,.00293.03375,0.11651,0.11651,0,0,0,.0144.02783,0.042,0.042,0,0,0,.02069.0097,0.09487,0.09487,0,0,0,.02368.00378A0.04437,0.04437,0,0,0,9.46313,15.58a0.09374,0.09374,0,0,1-.01422-0.02136A0.1836,0.1836,0,0,1,9.43671,15.499,0.10294,0.10294,0,0,0,9.473,15.48718a0.06657,0.06657,0,0,0,.02747-0.02625A0.04838,0.04838,0,0,0,9.50555,15.43732Z" transform="translate(-2.75 -9.9686)"/><path class="cls-1" d="M9.544,15.44873a0.05313,0.05313,0,0,1-.00464.0224l-0.00671.0152a0.09737,0.09737,0,0,1-.04993.03931,0.05834,0.05834,0,0,0,.01141.02917,0.04137,0.04137,0,0,0,.03217.01563H9.53094a0.05677,0.05677,0,0,0,.04944-0.04987l0.00043-.00635a0.12139,0.12139,0,0,0-.0368-0.07355v0.00806Z" transform="translate(-2.75 -9.9686)"/><path class="cls-1" d="M11.20648,15.45337a0.04126,0.04126,0,0,1,.02771-0.01141,0.03318,0.03318,0,0,1,.02142.00635V15.40857h-0.0752A0.09572,0.09572,0,0,1,11.20648,15.45337Z" transform="translate(-2.75 -9.9686)"/><path class="cls-1" d="M10.56866,15.47705a0.14719,0.14719,0,0,1,.05219.0401V15.40857H10.52747A0.08331,0.08331,0,0,1,10.56866,15.47705Z" transform="translate(-2.75 -9.9686)"/><path class="cls-1" d="M11.39722,15.406a0.03644,0.03644,0,0,1,.008.01947v0.0011c0.00787,0.00482.01874,0.01215,0.03253,0.02252l0.00555,0.0047,0.00629,0.00378V15.40515h-0.0528Z" transform="translate(-2.75 -9.9686)"/><path class="cls-1" d="M11.54681,15.41321a0.07752,0.07752,0,0,0-.03931.01227,0.03827,0.03827,0,0,1,.019.03467l-0.00128.011,0.06464-.03131a0.065,0.065,0,0,0-.027-0.02325A0.03237,0.03237,0,0,0,11.54681,15.41321Z" transform="translate(-2.75 -9.9686)"/><path class="cls-1" d="M11.486,15.48792l0.00336-.01685A0.03256,0.03256,0,0,0,11.486,15.455v0.0329Z" transform="translate(-2.75 -9.9686)"/><path class="cls-1" d="M9.22662,15.65875l-0.00079.00336a0.0117,0.0117,0,0,0,.01434.01184l0.01123-.00421,0.00824-.00891a0.03984,0.03984,0,0,0-.0224-0.01013A0.01122,0.01122,0,0,0,9.22662,15.65875Z" transform="translate(-2.75 -9.9686)"/><path class="cls-1" d="M10.9,12.23187a0.23228,0.23228,0,0,0,.17969-0.08093,0.29226,0.29226,0,0,0,.07281-0.20563,0.296,0.296,0,0,0-.07281-0.20563,0.24184,0.24184,0,0,0-.36108,0,0.33472,0.33472,0,0,0,0,.41284A0.23617,0.23617,0,0,0,10.9,12.23187Z" transform="translate(-2.75 -9.9686)"/><path class="cls-1" d="M10.03717,14.165v0.46759a0.12517,0.12517,0,0,0,.02039.07111,0.15727,0.15727,0,0,0,.06793.061,0.16187,0.16187,0,0,0,.06281.01013h0.34979V14.05322H10.16626A0.10711,0.10711,0,0,0,10.03717,14.165Z" transform="translate(-2.75 -9.9686)"/><path class="cls-1" d="M13.47388,14.20911v0.4353a0.16977,0.16977,0,0,0,.04077.09827,0.15313,0.15313,0,0,0,.11035.03217h0.34979V14.06506H13.60291A0.12114,0.12114,0,0,0,13.47388,14.20911Z" transform="translate(-2.75 -9.9686)"/><path class="cls-1" d="M2.75,9.9686v7.649H19.0625V9.9686H2.75Zm8.13049,0.53421A1.34946,1.34946,0,1,1,9.531,11.85223,1.34946,1.34946,0,0,1,10.88049,10.50281ZM8.11938,15.43286a0.03085,0.03085,0,0,1-.02325.00867A0.03932,0.03932,0,0,1,8.0636,15.425a0.05625,0.05625,0,0,1-.01184-0.03552,0.0784,0.0784,0,0,1,.03-0.05707,0.29938,0.29938,0,0,0,.02789.01947,0.04772,0.04772,0,0,0-.02661.03424,0.02373,0.02373,0,0,1,.01477-0.00427,0.03127,0.03127,0,0,1,.02136.00763,0.02581,0.02581,0,0,1,.00867.02032A0.03149,0.03149,0,0,1,8.11938,15.43286Zm0.62885,0.10754a0.09145,0.09145,0,0,1-.03229.05286,0.09239,0.09239,0,0,1-.05853.019,0.10965,0.10965,0,0,1-.04083-0.00653A0.108,0.108,0,0,1,8.583,15.58228a0.32238,0.32238,0,0,1-.049-0.06934l0.02441-.03168a0.345,0.345,0,0,0,.046.06885L8.612,15.5603l0.0105,0.00714a0.05209,0.05209,0,0,0,.0249.00635l0.00549-.00043a0.06058,0.06058,0,0,0,.05731-0.05573l0.00085-.00726a0.06267,0.06267,0,0,0-.00964-0.03168,0.0652,0.0652,0,0,0-.02295-0.024,0.054,0.054,0,0,0-.0271-0.00763c-0.01428,0-.02142.00488-0.02142,0.01477a0.01643,0.01643,0,0,0,.0061.01147,0.01746,0.01746,0,0,0,.0116.00586l0.01355-.00293-0.0224.03589a0.05283,0.05283,0,0,1-.05243-0.05194,0.04488,0.04488,0,0,1,.02075-0.039,0.0742,0.0742,0,0,1,.04352-0.01257,0.09646,0.09646,0,0,1,.085.05029,0.08951,0.08951,0,0,1,.01563.049A0.148,0.148,0,0,1,8.74823,15.54041Zm0.12256,0.082a0.11845,0.11845,0,0,0-.03717-0.02789l-0.0097-.00464,0.01733-.0321a0.09281,0.09281,0,0,1,.04224.02533l0.0127,0.01355Zm0.12555-.21381H8.97266v0.20367H8.93756A0.15333,0.15333,0,0,0,8.886,15.56366a0.22459,0.22459,0,0,0-.05072-0.02539,0.1664,0.1664,0,0,0-.05493-0.01263l-0.011-.04059a0.80331,0.80331,0,0,1,.16187-0.07648H8.75586V15.40771H8.56262a0.11054,0.11054,0,0,0-.04639.032,0.143,0.143,0,0,0-.02411.03461,0.12754,0.12754,0,0,0-.01221.04047,0.15517,0.15517,0,0,0,.00293.03375,0.11548,0.11548,0,0,0,.01434.02783,0.04257,0.04257,0,0,0,.02075.0097,0.09487,0.09487,0,0,0,.02368.00378,0.05812,0.05812,0,0,0,.027-0.01477V15.619a0.05964,0.05964,0,0,1-.02875.00763,0.12682,0.12682,0,0,1-.04779-0.0072,0.07717,0.07717,0,0,1-.03461-0.033A0.20015,0.20015,0,0,1,8.444,15.554,0.1381,0.1381,0,0,1,8.441,15.51929a0.16239,0.16239,0,0,1,.035-0.08917l0.01947-.02155H8.41522v0.20282H8.37506V15.40857H8.26141a0.10783,0.10783,0,0,1,.04266.011,0.08037,0.08037,0,0,1,.0368.03674,0.05557,0.05557,0,0,1,.00586.025,0.06863,0.06863,0,0,1-.02319.05029,0.12447,0.12447,0,0,1-.0495.02789,0.29152,0.29152,0,0,1,.041.01855q0.02032,0.01273.05365,0.0368L8.34338,15.641a0.3723,0.3723,0,0,0-.10864-0.0545A0.15436,0.15436,0,0,0,8.187,15.57715l-0.01648-.05151q0.033,0.00375.04144,0.00378a0.13776,0.13776,0,0,0,.07141-0.01776A0.03368,0.03368,0,0,0,8.30408,15.485a0.03843,0.03843,0,0,0-.01941-0.03339,0.05624,0.05624,0,0,0-.0296-0.00677,0.04169,0.04169,0,0,0-.033.01056l-0.00342.0072Q8.22,15.47446,8.247,15.47235L8.22168,15.507a0.04329,0.04329,0,0,1-.0448-0.02875l-0.003-.01477a0.04717,0.04717,0,0,1,.02753-0.04309,0.1009,0.1009,0,0,1,.044-0.01184H8.15405V15.37262H8.51794l0.26031-.00085v0.00085H8.99634v0.03595ZM9.31622,15.7323a0.0696,0.0696,0,0,0-.02661-0.05371,0.07027,0.07027,0,0,1-.05115.03046A0.04808,0.04808,0,0,1,9.19958,15.693,0.05922,0.05922,0,0,1,9.187,15.65326a0.0338,0.0338,0,0,1,.01239-0.02643,0.04208,0.04208,0,0,1,.02844-0.01074l0.00507-.00043a0.08,0.08,0,0,1,.04132.01166l0.00708-.01166,0.04346,0.00079-0.01819.03a0.11265,0.11265,0,0,1,.02411.02368,0.08,0.08,0,0,1,.01605.04523Zm0.52448-.08624a0.49249,0.49249,0,0,0-.05157-0.04181,0.20261,0.20261,0,0,0-.04352-0.02075,0.15011,0.15011,0,0,0-.02832-0.00885l0.00043-.04773,0.01538,0.00061,0.01538,0.00061A0.11338,0.11338,0,0,0,9.79224,15.521a0.04157,0.04157,0,0,0,.032-0.03278A0.02794,0.02794,0,0,0,9.812,15.46509l-0.02393-.01385-0.00671-.00171-0.0155.00378a0.01253,0.01253,0,0,0-.0097.01135c0.0014,0.01062.01227,0.01514,0.03253,0.01343l-0.02155.034a0.0422,0.0422,0,0,1-.02661-0.00842A0.04939,0.04939,0,0,1,9.716,15.46222a0.04181,0.04181,0,0,1,.025-0.038,0.093,0.093,0,0,1,.04651-0.01141,0.04723,0.04723,0,0,1,.01965.00378L9.82379,15.425a0.06842,0.06842,0,0,1,.04059.06421,0.05964,0.05964,0,0,1-.025.04987,0.12769,0.12769,0,0,1-.0545.02075l0.03046,0.01727a0.59525,0.59525,0,0,1,.0545.04694Zm0.04144-.23749H9.68982v0.20282H9.64966V15.40857h-0.087a0.2376,0.2376,0,0,1,.0423.0473,0.11538,0.11538,0,0,1,.0152.06042,0.08825,0.08825,0,0,1-.05707.088,0.08151,0.08151,0,0,1-.03253.00592,0.08814,0.08814,0,0,1-.04816-0.014l-0.0127-.00989V15.619a0.05964,0.05964,0,0,1-.02875.00763,0.12626,0.12626,0,0,1-.04773-0.0072,0.07728,0.07728,0,0,1-.03467-0.033A0.21177,0.21177,0,0,1,9.345,15.554,0.1381,0.1381,0,0,1,9.342,15.51929a0.16239,0.16239,0,0,1,.035-0.08917l0.01947-.02155H9.32092v0.20282H9.28076V15.58533a0.0582,0.0582,0,0,0-.02026-0.03455,0.21148,0.21148,0,0,0-.032-0.02777,0.06883,0.06883,0,0,0-.04041-0.013,0.034,0.034,0,0,0-.03247.01941l-0.00128.00549a0.019,0.019,0,0,0,.00781.01459A0.02455,0.02455,0,0,0,9.178,15.556a0.12033,0.12033,0,0,0,.03046-0.0097L9.22034,15.5835a0.10094,0.10094,0,0,1-.04437.014,0.06239,0.06239,0,0,1-.03638-0.01141,0.06617,0.06617,0,0,1-.02411-0.03,0.051,0.051,0,0,1-.00336-0.01984A0.05918,0.05918,0,0,1,9.14,15.48334a0.07271,0.07271,0,0,1,.04144-0.01306H9.18524a0.04249,0.04249,0,0,0-.011-0.02368,0.02865,0.02865,0,0,0-.02069-0.01312h-0.044v-0.0249H9.09186V15.37262H9.484a0.09424,0.09424,0,0,1-.01733-0.05408,0.114,0.114,0,0,1,.02283-0.06085l0.0368,0.02368a0.05973,0.05973,0,0,0-.01776.04053v0.00464a0.08668,0.08668,0,0,0,.01776.04608H9.82l0.00043-.00238a0.03611,0.03611,0,0,0-.02582-0.03778L9.787,15.33167l-0.01562.00256-0.01526.00385a0.04889,0.04889,0,0,0-.01776.00647,0.127,0.127,0,0,1-.0224.01245l-0.01263-.03a0.21434,0.21434,0,0,1,.06-0.02747,0.10557,0.10557,0,0,1,.0296-0.00464,0.06739,0.06739,0,0,1,.03339.011,0.07464,0.07464,0,0,1,.033.06677H9.88214v0.03595Zm-0.80261-.36206V15.01764a0.05807,0.05807,0,0,1,.06116-0.06958H9.28839a0.06386,0.06386,0,0,1,.07471.06958v0.02887a0.05042,0.05042,0,0,1-.05432.05945H9.14746A0.05661,0.05661,0,0,1,9.07953,15.04651Zm1.09717,0.55475a0.12357,0.12357,0,0,1-.06763.01819,0.09922,0.09922,0,0,1-.063-0.022,0.24886,0.24886,0,0,1-.04437-0.05029l0.01648-.03339a0.15883,0.15883,0,0,0,.06384.06421,0.05077,0.05077,0,0,0,.01941.0047A0.11229,0.11229,0,0,0,10.145,15.575a0.035,0.035,0,0,0,.02661-0.03107,0.01922,0.01922,0,0,0-.00574-0.01593,0.02,0.02,0,0,0-.015-0.00787H10.14539l-0.02069.01605-0.01941-.03339a0.03661,0.03661,0,0,1,.03589-0.02576h0.00464a0.0376,0.0376,0,0,0,.02032-0.03259,0.06349,0.06349,0,0,0-.00592-0.02325L10.153,15.417a0.09916,0.09916,0,0,0-.04059.03088,0.1028,0.1028,0,0,0-.04816-0.03766,0.034,0.034,0,0,0-.02069.00934h0.0025a0.06586,0.06586,0,0,1,.03564.0097,0.03547,0.03547,0,0,1,.01849.03088,0.068,0.068,0,0,1-.048.05408,0.09183,0.09183,0,0,1-.02191.00757l-0.02521-.033q0.05493-.01053.05493-0.02911c0-.00366-0.00525-0.00549-0.01562-0.00549a0.06337,0.06337,0,0,0-.03174.01056l-0.01819-.03424a0.07363,0.07363,0,0,1,.02478-0.0387,0.067,0.067,0,0,1,.03949-0.01837,0.05069,0.05069,0,0,1,.02875.0097,0.09905,0.09905,0,0,1,.02368.0199,0.09617,0.09617,0,0,1,.049-0.0296,0.04481,0.04481,0,0,1,.03339.02832,0.09174,0.09174,0,0,1,.01392.04437,0.06266,0.06266,0,0,1-.007.02618,0.083,0.083,0,0,1-.01587.02368,0.06516,0.06516,0,0,1,.02625.04773A0.06412,0.06412,0,0,1,10.1767,15.60126Zm0.81689-.19269H10.97076v0.20282H10.9306V15.58954a0.0762,0.0762,0,0,0-.01813-0.03961,0.09811,0.09811,0,0,0-.0744-0.05011,0.02843,0.02843,0,0,0-.02875.02032l-0.00085.00635a0.025,0.025,0,0,0,.00812.01923,0.02839,0.02839,0,0,0,.02.00739,0.05591,0.05591,0,0,0,.02167-0.00635l0.0119,0.0376a0.06793,0.06793,0,0,1-.03339.00891h-0.008l-0.00934-.00171a0.05832,0.05832,0,0,1-.03735-0.022,0.06711,0.06711,0,0,1-.01373-0.0423,0.06629,0.06629,0,0,1,.01892-0.04816,0.06334,0.06334,0,0,1,.04724-0.01941,0.11737,0.11737,0,0,1,.09229.04858l0.00378,0.00507v-0.1048H10.73834v0.20282H10.69818V15.40857H10.661v0.20282H10.62085V15.58533a0.058,0.058,0,0,0-.0202-0.03455,0.21489,0.21489,0,0,0-.032-0.02777,0.06883,0.06883,0,0,0-.04041-0.013,0.0341,0.0341,0,0,0-.03247.01941l-0.00122.00549a0.01881,0.01881,0,0,0,.00781.01459,0.02443,0.02443,0,0,0,.01587.00653,0.1202,0.1202,0,0,0,.0304-0.0097l0.01184,0.03717a0.10071,0.10071,0,0,1-.04437.014,0.06239,0.06239,0,0,1-.03638-0.01141,0.066,0.066,0,0,1-.024-0.03,0.05094,0.05094,0,0,1-.00342-0.01984,0.05931,0.05931,0,0,1,.02789-0.05286,0.073,0.073,0,0,1,.04144-0.01306h0.00378a0.04166,0.04166,0,0,0-.011-0.02368,0.02844,0.02844,0,0,0-.02069-0.01312H10.44971v-0.0249H10.42688v0.20282H10.38672V15.58954a0.07591,0.07591,0,0,0-.01819-0.03961,0.09812,0.09812,0,0,0-.07434-0.05011,0.02843,0.02843,0,0,0-.02875.02032l-0.00085.00635a0.02493,0.02493,0,0,0,.00806.01923,0.02859,0.02859,0,0,0,.02.00739,0.05614,0.05614,0,0,0,.02173-0.00635l0.0119,0.0376a0.06827,0.06827,0,0,1-.03339.00891H10.28485l-0.00928-.00171a0.05846,0.05846,0,0,1-.03741-0.022,0.06711,0.06711,0,0,1-.01373-0.0423,0.06634,0.06634,0,0,1,.019-0.04816,0.06334,0.06334,0,0,1,.04724-0.01941,0.11746,0.11746,0,0,1,.09229.04858l0.00378,0.00507v-0.1048H10.2063V15.37262h0.78729v0.03595Zm0.91284,0H11.88367v0.20282H11.882v0.0968H11.84308a0.11656,0.11656,0,0,0-.0368-0.05707,0.13857,0.13857,0,0,0-.03168-0.012,0.13533,0.13533,0,0,0-.03339-0.00653,0.01293,0.01293,0,0,0-.01562.01349,0.01274,0.01274,0,0,0,.01349.0152l0.01526-.00464,0.01184,0.03723a0.05862,0.05862,0,0,1-.02667.00885L11.723,15.69934a0.04916,0.04916,0,0,1-.03546-0.05157,0.05055,0.05055,0,0,1,.01544-0.0376,0.05242,0.05242,0,0,1,.03833-0.01526,0.18848,0.18848,0,0,1,.04114.00635,0.10831,0.10831,0,0,1,.03772.0144,0.11292,0.11292,0,0,1,.02161.02026V15.57977a0.10775,0.10775,0,0,0-.01648-0.02985,0.09811,0.09811,0,0,0-.0744-0.05011,0.02836,0.02836,0,0,0-.02869.02032l-0.00085.00635a0.02493,0.02493,0,0,0,.00806.01923,0.02849,0.02849,0,0,0,.02.00739,0.05563,0.05563,0,0,0,.02167-0.00635l0.012,0.0376a0.06832,0.06832,0,0,1-.03345.00891h-0.008l-0.00928-.00171a0.05831,0.05831,0,0,1-.03741-0.022,0.06711,0.06711,0,0,1-.01373-0.0423,0.06609,0.06609,0,0,1,.019-0.04816,0.0633,0.0633,0,0,1,.04718-0.01941,0.11757,0.11757,0,0,1,.09235.04858l0.00378,0.00507v-0.1048H11.65668v0.20282H11.61652V15.48584l-0.00421-.0127q-0.04779.02161-.115,0.05792l-0.01251-.01971-0.03363.00287L11.427,15.488a0.13477,0.13477,0,0,0-.0271-0.022,0.05176,0.05176,0,0,0-.02545-0.00629,0.01813,0.01813,0,0,0-.02081.01306l-0.00037.00342a0.009,0.009,0,0,0,.01019.01013,0.04039,0.04039,0,0,0,.02051-0.00891l0.01239,0.03723a0.06229,0.06229,0,0,1-.033.01141H11.35706a0.0503,0.0503,0,0,1-.03149-0.01776,0.05166,0.05166,0,0,1-.01245-0.03436,0.04506,0.04506,0,0,1,.01477-0.03546,0.05877,0.05877,0,0,1,.03638-0.0141,0.048,0.048,0,0,0-.022-0.01666H11.31775v0.00085h-0.022v0.20074H11.25562V15.50238a0.021,0.021,0,0,0-.0177-0.022,0.02135,0.02135,0,0,0-.01892.01434l-0.02533.049a0.05927,0.05927,0,0,1-.05267.03851,0.0829,0.0829,0,0,1-.02655-0.00806l-0.01135-.00763v-0.0448l0.01349,0.01312a0.035,0.035,0,0,0,.02112.00848,0.03174,0.03174,0,0,0,.02118-0.01776,0.0951,0.0951,0,0,0,.01434-0.03931,0.08257,0.08257,0,0,0-.00549-0.02661,0.06494,0.06494,0,0,0-.0127-0.02325,0.16066,0.16066,0,0,0-.038-0.02789H11.08826V15.37262h0.41925v0.00671a0.12606,0.12606,0,0,1,.03656-0.005,0.08333,0.08333,0,0,1,.04211.0097,0.10505,0.10505,0,0,1,.03033.0296v-0.041h0.28992v0.03595Zm0.33264,0H12.215v0.20282H12.1748V15.48584l-0.00427-.0127q-0.0477.02161-.11493,0.05792l-0.0177-.02789a0.07846,0.07846,0,0,0,.0097-0.0321,0.0218,0.0218,0,0,0-.01056-0.02283l-0.01691-.0025-0.011-.02917a0.12386,0.12386,0,0,1,.04218-0.03168,0.11131,0.11131,0,0,1,.051-0.01056,0.08357,0.08357,0,0,1,.04218.0097,0.10505,0.10505,0,0,1,.03033.0296v-0.041h0.06427v0.03595Zm0.29877,0H12.51013a0.08239,0.08239,0,0,0-.01923.04395,0.40878,0.40878,0,0,0,.01971.06421,0.14317,0.14317,0,0,1,.01031.04694,0.05039,0.05039,0,0,1-.03888.04944,0.17945,0.17945,0,0,1-.04224.00763l0.00543-.0351a0.03479,0.03479,0,0,0,.03552-0.02533,0.14565,0.14565,0,0,0-.015-0.05072,0.14492,0.14492,0,0,1-.015-0.05029,0.10668,0.10668,0,0,1,.01733-0.05072H12.41443v0.20282H12.37427V15.46716a0.07427,0.07427,0,0,0-.02313-0.04047,0.04765,0.04765,0,0,0-.03784-0.01434,0.02868,0.02868,0,0,0-.02985.019l-0.00171.01056a0.0295,0.0295,0,0,0,.00739.02051,0.02513,0.02513,0,0,0,.01965.00824,0.06824,0.06824,0,0,0,.02539-0.0072l0.0177,0.0376a0.08894,0.08894,0,0,1-.04181.01312,0.06482,0.06482,0,0,1-.04926-0.02155,0.07631,0.07631,0,0,1-.00171-0.10126,0.06011,0.06011,0,0,1,.04736-0.02087l0.01013-.00085a0.07375,0.07375,0,0,1,.05768.027V15.37262h0.16357v0.03595Zm0.27911,0.1853a0.07231,0.07231,0,0,1-.05.01965,0.15449,0.15449,0,0,1-.139-0.10986l0.02368-.03131a0.13346,0.13346,0,0,0,.09973.10229l0.00635,0.00043a0.04824,0.04824,0,0,0,.02661-0.00763,0.02649,0.02649,0,0,0,.01349-0.02283l-0.00208-.01178a0.02406,0.02406,0,0,0-.025-0.0199,0.0494,0.0494,0,0,0-.02576.01013l-0.0144-.03717a0.04578,0.04578,0,0,1,.03217-0.01562l0.00885,0.00085a0.02949,0.02949,0,0,0,.01776-0.03,0.03235,0.03235,0,0,0-.01038-0.02429,0.03433,0.03433,0,0,0-.02472-0.00995,0.04037,0.04037,0,0,0-.01733.00421,0.01768,0.01768,0,0,0-.01227.01227q-0.00165.00888,0.02753,0.00891l-0.01947.03082-0.01056.00256a0.03679,0.03679,0,0,1-.03632-0.03638,0.05124,0.05124,0,0,1,.02112-0.04224,0.07222,0.07222,0,0,1,.046-0.01569,0.08165,0.08165,0,0,1,.05579.02283,0.06327,0.06327,0,0,1,.02075.0495,0.05214,0.05214,0,0,1-.01733.04309,0.075,0.075,0,0,1,.02661.05914A0.06224,0.06224,0,0,1,12.817,15.59387Zm0.7901-.1853H13.58044v0.20282H13.54028V15.40857h-0.0376v0.20367h-0.0351a0.14741,0.14741,0,0,0-.05157-0.04858,0.23477,0.23477,0,0,0-.05237-0.02618,0.17,0.17,0,0,0-.05664-0.01355l-0.01056-.04059a0.45,0.45,0,0,1,.0769-0.03931q0.02664-.01181.08832-0.03546H13.2774v0.20074H13.2373V15.50238a0.02107,0.02107,0,0,0-.0177-0.022,0.02142,0.02142,0,0,0-.019.01434l-0.02527.049a0.05941,0.05941,0,0,1-.05273.03851,0.0829,0.0829,0,0,1-.02655-0.00806l-0.01135-.00763v-0.0448l0.01349,0.01312a0.035,0.035,0,0,0,.02118.00848,0.03167,0.03167,0,0,0,.02112-0.01776,0.0951,0.0951,0,0,0,.01434-0.03931,0.08257,0.08257,0,0,0-.00549-0.02661,0.06589,0.06589,0,0,0-.01263-0.02325,0.16111,0.16111,0,0,0-.03809-0.02789H13.09711l-0.00861.00085a0.08979,0.08979,0,0,0-.05493.0401,0.11177,0.11177,0,0,0-.02283.06512,0.09573,0.09573,0,0,0,.00806.03845,0.03146,0.03146,0,0,0,.02747.02368,0.045,0.045,0,0,0,.02283-0.00934l0.01306,0.03595a0.06573,0.06573,0,0,1-.03461.011,0.06876,0.06876,0,0,1-.044-0.01733,0.09581,0.09581,0,0,1-.02319-0.03845,0.12064,0.12064,0,0,1-.00549-0.04187V15.50366a0.16324,0.16324,0,0,1,.04559-0.09894,0.4008,0.4008,0,0,1,.03259-0.0321h0.554v0.03595Zm0.06171,0.04395a0.321,0.321,0,0,0-.02789-0.01947,0.04772,0.04772,0,0,0,.02661-0.03424,0.02335,0.02335,0,0,1-.01477.00427,0.03127,0.03127,0,0,1-.02136-0.00763,0.02577,0.02577,0,0,1-.00867-0.02026,0.03154,0.03154,0,0,1,.00848-0.02307,0.03108,0.03108,0,0,1,.02325-0.00867,0.03878,0.03878,0,0,1,.0321.01587,0.05738,0.05738,0,0,1,.01227.03613A0.07829,0.07829,0,0,1,13.66876,15.45251Zm0.26361-.406a0.05044,0.05044,0,0,1-.05438.05945H13.715a0.05661,0.05661,0,0,1-.06793-0.05945V15.01764a0.06776,0.06776,0,0,1,.06281-0.06958h0.14777a0.06389,0.06389,0,0,1,.07471.06958v0.02887ZM14.311,13.80023H14.19556v1.08331H13.53674a0.32724,0.32724,0,0,1-.197-0.05438,0.20757,0.20757,0,0,1-.0849-0.17993V14.14661a0.18172,0.18172,0,0,1,.06964-0.14606,0.23217,0.23217,0,0,1,.15454-0.05432h0.49579v-0.146H13.175V13.79681H13.10376v1.085H12.883v-1.085H12.15967a0.20616,0.20616,0,0,0,.07471.09521,0.38644,0.38644,0,0,0,.10529.06976,0.58911,0.58911,0,0,0,.20038.0459q0.06445,0.01364.09,0.02209a0.2092,0.2092,0,0,1,.08319.04425,0.11475,0.11475,0,0,1,.02551.08331v0.70917H12.51965v-0.6452a0.14158,0.14158,0,0,0-.109-0.12054q-0.08862-.02893-0.17542-0.056a0.88179,0.88179,0,0,1-.27423-0.24115v0.37866q0,0.08835.06134,0.08832h0.0614a0.1122,0.1122,0,0,0,.0835-0.03735,0.09892,0.09892,0,0,0,.02386-0.02551l0.01367-.03052h0.20282V14.6424a0.17187,0.17187,0,0,1-.19189.197H11.60785a0.28786,0.28786,0,0,1-.18854-0.0611,0.26568,0.26568,0,0,1-.10187-0.21564V14.03113h0.22247v0.51831a0.17173,0.17173,0,0,0,.20544.18127h0.31921a0.10346,0.10346,0,0,0,.12054-0.11328V14.34015a0.07271,0.07271,0,0,1-.056.03735l-0.06958.00848H11.89307a0.13411,0.13411,0,0,1-.1095-0.046,0.18038,0.18038,0,0,1-.03821-0.1192v-0.424H11.15955v1.085h-0.2207v-1.085H10.89465v0.00342h-0.1358v1.08331h-0.6181A0.55523,0.55523,0,0,1,9.9472,14.858a0.20191,0.20191,0,0,1-.12909-0.2088V14.14661a0.196,0.196,0,0,1,.10022-0.16809,0.2271,0.2271,0,0,1,.124-0.04077h0.49579V13.80023H9.2663v0.36523a0.04368,0.04368,0,0,0,.04584.05243L9.33765,14.2196a0.14629,0.14629,0,0,0,.14264-0.09167H9.67212v0.55524a0.16292,0.16292,0,0,1-.17151.19525h-0.545a0.46983,0.46983,0,0,1-.24109-0.04755A0.23321,0.23321,0,0,1,8.616,14.61523V14.13812H8.83673v0.49237a0.13283,0.13283,0,0,0,.15961.13928H9.33252a0.11566,0.11566,0,0,0,.08661-0.03485,0.12,0.12,0,0,0,.03394-0.0874V14.2926a0.13812,0.13812,0,0,1-.12561.05267H9.18481A0.11849,0.11849,0,0,1,9.0473,14.2149V13.80023H8.47v1.08331H7.85187A0.555,0.555,0,0,1,7.65833,14.858a0.20191,0.20191,0,0,1-.12909-0.2088V14.14661a0.196,0.196,0,0,1,.10022-0.16809,0.2271,0.2271,0,0,1,.124-0.04077H8.24921V13.80023H7.44946V13.69495H14.311v0.10529Z" transform="translate(-2.75 -9.9686)"/><path class="cls-1" d="M13.18811,15.45337a0.04138,0.04138,0,0,1,.02771-0.01141,0.03347,0.03347,0,0,1,.02148.00635V15.40857H13.162A0.09521,0.09521,0,0,1,13.18811,15.45337Z" transform="translate(-2.75 -9.9686)"/><path class="cls-1" d="M13.37207,15.49139l-0.00757.00336a0.33038,0.33038,0,0,1,.0896.04987l0.00928,0.0072V15.45209l-0.02368.00885Z" transform="translate(-2.75 -9.9686)"/><path class="cls-1" d="M8.8421,15.4931L8.837,15.496l0.0047,0.00171a0.30019,0.30019,0,0,1,.09167.05408V15.45209q-0.02243.0076-.06549,0.02661Z" transform="translate(-2.75 -9.9686)"/><path class="cls-1" d="M7.74829,14.165v0.46759a0.1247,0.1247,0,0,0,.02039.07111,0.15727,0.15727,0,0,0,.06793.061,0.16187,0.16187,0,0,0,.06281.01013H8.24921V14.05322H7.87738A0.10711,0.10711,0,0,0,7.74829,14.165Z" transform="translate(-2.75 -9.9686)"/><path class="cls-1" d="M10.88049,13.126a1.27377,1.27377,0,1,0-1.2738-1.2738A1.2738,1.2738,0,0,0,10.88049,13.126Zm-0.37561-1.9433h0.14893v0.36591l-0.00647.11011h0.00647a0.27894,0.27894,0,0,1,.1109-0.09875,0.35191,0.35191,0,0,1,.425.08582,0.45739,0.45739,0,0,1,0,.599,0.35216,0.35216,0,0,1-.425.08582,0.27848,0.27848,0,0,1-.1109-0.09875H10.64734V12.342H10.50488V11.18274Z" transform="translate(-2.75 -9.9686)"/></svg>