<svg id="Layer_1" data-name="Layer 1" xmlns="http://www.w3.org/2000/svg" viewBox="0 0 17.53447 24.51758"><defs><style>.cls-1{fill:#393;}</style></defs><title>t-shirt</title><path class="cls-1" d="M20.506,2.42969h-2.4213V0.53128A0.42875,0.42875,0,0,0,17.90094.17944,0.78106,0.78106,0,0,0,17.6561.10263H6.679a0.78166,0.78166,0,0,0-.2449.07681,0.42867,0.42867,0,0,0-.18375.35184V2.42969H3.82882a0.42866,0.42866,0,0,0-.42865.42865V24.19156a0.42866,0.42866,0,0,0,.42865.42865H20.506a0.42866,0.42866,0,0,0,.42865-0.42865V2.85834A0.42862,0.42862,0,0,0,20.506,2.42969Zm-8.33844-.32274-3.097-1.147h6.194Zm5.0599-.95978V3.54337l-3.06485,1.873L12.77543,2.79609Zm-10.1198,0L11.55972,2.7961,10.17255,5.4164l-3.0649-1.873V1.14716ZM4.25747,8.97866h3.814v1.07385h-3.814V8.97866Zm0,1.93115H8.50013a0.42866,0.42866,0,0,0,.42865-0.42865V8.55a0.42866,0.42866,0,0,0-.42865-0.42865H4.25747V3.287H6.25035V3.78376a0.42859,0.42859,0,0,0,.20512.36572l3.659,2.23607a0.42858,0.42858,0,0,0,.60234-0.16517l1.022-1.93053V23.76291H4.25747V10.90981Zm8.33873,12.8531V4.28991l1.022,1.93053a0.42856,0.42856,0,0,0,.60234.16517l3.659-2.23607a0.42866,0.42866,0,0,0,.20512-0.36572V3.287h1.99265V8.12136H15.83468A0.42866,0.42866,0,0,0,15.406,8.55v1.93115a0.42866,0.42866,0,0,0,.42865.42865h4.24266V23.763H12.5962V23.76291Zm7.48114-13.7104h-3.814V8.97866h3.814v1.07385Z" transform="translate(-3.40017 -0.10263)"/></svg>