<svg id="Layer_1" data-name="Layer 1" xmlns="http://www.w3.org/2000/svg" viewBox="0 0 28.403 23.889"><defs><style>.cls-1,.cls-3{fill:#2e3192;}.cls-2{fill:none;stroke-width:0.384px;}.cls-2,.cls-3{stroke:#2e3192;stroke-miterlimit:10;}.cls-3{stroke-width:0.05px;}</style></defs><title>shop</title><path class="cls-1" d="M2.586,10.292v16.59h24.72V10.292H2.586Zm2,1.991H10.8v12.57H4.588V12.283ZM25.3,24.853H12.485V12.283H25.3v12.57Z" transform="translate(-0.798 -2.993)"/><polygon class="cls-1" points="3.044 0 6.214 0 3.703 6.811 0 6.811 3.044 0"/><polygon class="cls-1" points="6.654 0 4.159 6.811 7.689 6.811 9.055 0 6.654 0"/><polygon class="cls-1" points="9.572 0 8.254 6.811 11.926 6.811 12.256 0 9.572 0"/><polygon class="cls-1" points="12.727 0 12.256 6.811 15.833 6.811 15.41 0 12.727 0"/><polygon class="cls-1" points="16.54 6.811 15.833 0 18.705 0 20.071 6.811 16.54 6.811"/><polygon class="cls-1" points="19.223 0 20.589 6.811 24.119 6.811 21.907 0 19.223 0"/><polygon class="cls-1" points="22.33 0 24.778 6.811 28.403 6.811 25.367 0 22.33 0"/><rect class="cls-2" x="15.418" y="15.678" width="9.486" height="4.168" rx="0.827" ry="0.827" transform="translate(-2.27 -1.167) rotate(-5.003)"/><circle class="cls-1" cx="18.872" cy="10.235" r="0.588"/><path class="cls-3" d="M17.6,16.9l-0.271.023,0.155,1.77-0.133-.111-0.129-1.47a0.228,0.228,0,0,0-.212-0.176,0.24,0.24,0,0,0-.187.115,0.332,0.332,0,0,0-.053.219,0.266,0.266,0,0,0,.215.258l0.081,0.087a0.331,0.331,0,0,1-.327-0.232,0.426,0.426,0,0,1-.069.179,0.2,0.2,0,0,1-.152.1,0.411,0.411,0,0,1-.317-0.121V17.5a0.289,0.289,0,0,0,.24.065,0.221,0.221,0,0,0,.174-0.123,0.349,0.349,0,0,0,.05-0.207,0.337,0.337,0,0,0-.065-0.179,0.185,0.185,0,0,0-.168-0.072,0.2,0.2,0,0,0-.134.065,0.18,0.18,0,0,0-.045.142,0.211,0.211,0,0,0,.01.047l-0.082-.09c0-.013,0-0.023-0.006-0.035a0.2,0.2,0,0,1,.046-0.151,0.2,0.2,0,0,1,.141-0.069,0.3,0.3,0,0,1,.205.064,0.363,0.363,0,0,1,.128.173,0.271,0.271,0,0,1,.248-0.288,0.239,0.239,0,0,1,.166.059,0.319,0.319,0,0,1,.108.143l-0.02-.224,0.281-.024Z" transform="translate(-0.798 -2.993)"/><path class="cls-3" d="M19.01,16.771l-0.271.024,0.155,1.77-0.134-.111-0.1-1.187a0.235,0.235,0,0,0-.082-0.133L18,17.821l-0.08-.1A0.815,0.815,0,0,0,18.01,17.6a0.221,0.221,0,0,0,.029-0.136,0.263,0.263,0,0,0-.3-0.251,0.806,0.806,0,0,0-.044.087l-0.079-.092a0.9,0.9,0,0,1,.177-0.295,0.447,0.447,0,0,1,.282-0.176,0.471,0.471,0,0,1,.336.131,0.963,0.963,0,0,1,.239.288l-0.041-.466,0.281-.024Zm-0.506.25a0.454,0.454,0,0,0-.385-0.172,0.487,0.487,0,0,0-.354.324,0.331,0.331,0,0,1,.214.075,0.286,0.286,0,0,1,.1.2,0.226,0.226,0,0,1,0,.085Z" transform="translate(-0.798 -2.993)"/><path class="cls-3" d="M21.126,16.587l-0.271.023,0.155,1.77-0.133-.111-0.043-.491a1.067,1.067,0,0,0-.962-0.37l-0.121-.1a1.909,1.909,0,0,0,.406-0.159,0.388,0.388,0,0,0,.279-0.273,0.246,0.246,0,0,0-.221-0.193,0.28,0.28,0,0,1-.261.276,0.461,0.461,0,0,1-.294-0.09l0.018-.034a0.31,0.31,0,0,0,.2.062,0.205,0.205,0,0,0,.146-0.076,0.214,0.214,0,0,0,.027-0.235,0.643,0.643,0,0,1,.309.131,0.375,0.375,0,0,1,.164.265,0.255,0.255,0,0,1-.182.217c-0.011.007-.106,0.054-0.285,0.14a1.049,1.049,0,0,1,.767.379l-0.105-1.2L21,16.484Z" transform="translate(-0.798 -2.993)"/><path class="cls-3" d="M21.937,19.188l-0.024.032a3.328,3.328,0,0,0-.4-0.411,1.4,1.4,0,0,0-.493-0.28,0.319,0.319,0,0,1,0,.034,0.408,0.408,0,0,1-.032.208,0.223,0.223,0,0,1-.2.14,0.317,0.317,0,0,1-.239-0.076,0.33,0.33,0,0,1-.114-0.227,0.162,0.162,0,0,1,.056-0.143,0.24,0.24,0,0,1,.146-0.06,0.587,0.587,0,0,1,.243.023L20.87,18.2l0.123-.011,0.023,0.267a1.936,1.936,0,0,1,.488.284A3.367,3.367,0,0,1,21.937,19.188Zm-1.025-.63L20.9,18.5a0.416,0.416,0,0,0-.15-0.012,0.18,0.18,0,0,0-.2.206,0.118,0.118,0,0,0,.138.131,0.229,0.229,0,0,0,.164-0.087A0.3,0.3,0,0,0,20.911,18.559Z" transform="translate(-0.798 -2.993)"/><path class="cls-3" d="M22.532,16.464l-0.266.023,0.155,1.77-0.134-.111-0.095-1.085a0.167,0.167,0,0,0-.139-0.092,0.173,0.173,0,0,0-.126.1l-0.082.171A0.532,0.532,0,0,0,21.52,17a0.255,0.255,0,0,0-.2.121,0.352,0.352,0,0,0-.056.229,0.283,0.283,0,0,0,.083.187,0.232,0.232,0,0,0,.19.064,0.229,0.229,0,0,0,.132-0.058,0.272,0.272,0,0,0,.081-0.122l0.09,0.092a0.264,0.264,0,0,1-.086.131,0.252,0.252,0,0,1-.141.061,0.36,0.36,0,0,1-.308-0.137,0.516,0.516,0,0,1-.138-0.311,0.343,0.343,0,0,1,.065-0.25,0.3,0.3,0,0,1,.224-0.113,0.252,0.252,0,0,1,.161.065c0.018,0.013.067,0.055,0.149,0.129a0.79,0.79,0,0,1,.093-0.145,0.219,0.219,0,0,1,.148-0.073,0.192,0.192,0,0,1,.175.1l-0.032-.369a0.324,0.324,0,0,0-.315-0.084L20.98,16.6l-0.123-.1,0.971-.085a0.363,0.363,0,0,1,.182.039,0.3,0.3,0,0,1,.141.116l-0.017-.182,0.281-.025Z" transform="translate(-0.798 -2.993)"/><path class="cls-3" d="M23.348,19.065l-0.024.032a3.344,3.344,0,0,0-.4-0.412,1.37,1.37,0,0,0-.492-0.279c0,0.011,0,.021,0,0.033a0.422,0.422,0,0,1-.031.209,0.228,0.228,0,0,1-.2.14,0.315,0.315,0,0,1-.239-0.077,0.333,0.333,0,0,1-.114-0.226,0.162,0.162,0,0,1,.056-0.143,0.238,0.238,0,0,1,.147-0.061,0.607,0.607,0,0,1,.243.024l-0.021-.23,0.122-.011,0.023,0.267a1.912,1.912,0,0,1,.489.283A3.454,3.454,0,0,1,23.348,19.065Zm-1.025-.63-0.014-.062a0.421,0.421,0,0,0-.151-0.012,0.179,0.179,0,0,0-.2.205,0.12,0.12,0,0,0,.138.132,0.229,0.229,0,0,0,.164-0.087A0.3,0.3,0,0,0,22.322,18.436Z" transform="translate(-0.798 -2.993)"/><path class="cls-3" d="M23.949,16.34l-0.271.023,0.155,1.77L23.7,18.021l-0.074-.84a0.3,0.3,0,0,0-.21-0.234,0.635,0.635,0,0,0-.327-0.064,0.569,0.569,0,0,0-.3.1,0.291,0.291,0,0,0-.122.274,0.238,0.238,0,0,0,.063.146,0.166,0.166,0,0,0,.145.061,0.218,0.218,0,0,0,.133-0.054,0.151,0.151,0,0,0,0-.223,0.11,0.11,0,0,0-.093-0.036,0.124,0.124,0,0,0-.123.1l-0.052-.044a0.136,0.136,0,0,1,.124-0.113,0.222,0.222,0,0,1,.179.063,0.276,0.276,0,0,1,.085.178,0.185,0.185,0,0,1-.048.15,0.235,0.235,0,0,1-.151.064,0.28,0.28,0,0,1-.239-0.112,0.425,0.425,0,0,1-.11-0.249,0.326,0.326,0,0,1,.129-0.291,0.563,0.563,0,0,1,.311-0.12,0.66,0.66,0,0,1,.324.066,0.706,0.706,0,0,1,.265.2l-0.049-.56A0.335,0.335,0,0,0,23.25,16.4l-0.858.075-0.122-.1,0.971-.084a0.351,0.351,0,0,1,.181.039,0.3,0.3,0,0,1,.141.115l-0.016-.182,0.281-.024Z" transform="translate(-0.798 -2.993)"/><path class="cls-1" d="M18.887,13.569l-2.36,2.36,0.691-.031,1.938-1.938A0.428,0.428,0,0,1,18.887,13.569Z" transform="translate(-0.798 -2.993)"/><path class="cls-1" d="M20.579,13.4l2.74,1.907-0.685.091-2.249-1.566A0.428,0.428,0,0,0,20.579,13.4Z" transform="translate(-0.798 -2.993)"/></svg>