<svg id="Capa_1" data-name="Capa 1" xmlns="http://www.w3.org/2000/svg" viewBox="0 0 305.59761 245.11387"><defs><style>.cls-1{fill:#393;}</style></defs><title>punjabi</title><path class="cls-1" d="M240.62041,116.56327V97.02682A5.09325,5.09325,0,0,0,234.688,92.003c-0.60609.10123-60.77782,10.11711-80.653,10.11711S73.98823,92.10419,73.38212,92.003a5.09325,5.09325,0,0,0-5.93236,5.02386V116.548L0.87838,309.92485a5.0933,5.0933,0,0,0,3.89889,6.6677,377.37843,377.37843,0,0,0,61.33552,5.17412h1.05239c21.88444,0,37.84479,4.654,51.934,8.76231,11.49548,3.35137,22.35174,6.51746,34.29924,6.51746s22.80377-3.16609,34.298-6.51746c14.16307-4.13,30.22974-8.791,52.27588-8.76231a374.67165,374.67165,0,0,0,62.0473-5.17666,5.09322,5.09322,0,0,0,3.90908-6.63968Zm-86.58533-4.25669c17.11779,0,60.44739-6.71673,76.39882-9.28628v10.05026c-14.14523,2.28815-59.621,9.42252-76.39882,9.42252s-62.25294-7.13438-76.39882-9.42252V103.02031C93.5877,105.58985,136.9173,112.30658,154.03508,112.30658ZM265.36345,310.66466c-0.00637-.03183-0.00828-0.06367-0.01465-0.09549l-19.73636-97.40849a5.09338,5.09338,0,0,0-9.98406,2.022h0l19.46641,96.07151c-4.64759.20245-9.48618,0.32342-14.42729,0.32342H239.9952c-5.64843-.014-10.90275.25975-15.83748,0.73979l-14.78-108.38381a5.09349,5.09349,0,0,0-10.09356,1.37645h0l14.77045,108.32907a238.36662,238.36662,0,0,0-29.21172,7.11018l-1.31215.382-9.774-127.08689a5.09364,5.09364,0,0,0-10.15723.78181L173.53142,323.916a80.2603,80.2603,0,0,1-20.133,2.94392,80.23382,80.23382,0,0,1-20.13109-2.9439l9.93185-129.0898a5.09363,5.09363,0,0,0-10.15722-.78181h0L123.26419,321.13l-1.31215-.382a238.23676,238.23676,0,0,0-29.21236-7.10636l14.77044-108.33288a5.09349,5.09349,0,0,0-10.09356-1.37645L82.63592,312.32314c-4.82776-.47112-9.95986-0.74426-15.465-0.74426H66.79908c-5.17093.00828-10.23171-.11523-15.08876-0.32851l20.08334-95.39411a5.09388,5.09388,0,1,0-9.96877-2.101h0l-20.373,96.77185c-0.00891.042-.01209,0.084-0.01974,0.12734-12.51222-.89132-22.87126-2.24295-28.95452-3.14635L75.95612,123.11895c14.34006,2.33014,60.31624,9.56065,78.079,9.56065,17.75064,0,63.68542-7.22224,78.0503-9.54985l62.26886,184.37582C288.27672,308.41089,277.90431,309.76888,265.36345,310.66466Z" transform="translate(-0.59968 -91.93257)"/></svg>