<?xml version="1.0" encoding="utf-8"?>
<!-- Generator: Adobe Illustrator 19.2.0, SVG Export Plug-In . SVG Version: 6.00 Build 0)  -->
<svg version="1.1" id="Layer_1" xmlns="http://www.w3.org/2000/svg" xmlns:xlink="http://www.w3.org/1999/xlink" x="0px" y="0px"
	 viewBox="0 0 30 32" style="enable-background:new 0 0 30 32;" xml:space="preserve">
<style type="text/css">
	.st0{fill:#2E3192;}
</style>
<g id="XMLID_233_">
	<path id="XMLID_249_" class="st0" d="M20.2,20.7H9.8c-0.2,0-0.3-0.2-0.3-0.3v-5.5c0-1.5-1.3-2.8-2.8-2.8c-1.2,0-2.2,1-2.2,2.2
		c0,0.9,0.7,1.7,1.7,1.7c0.7,0,1.3-0.6,1.3-1.3c0-0.5-0.4-0.9-0.9-0.9c-0.2,0-0.3-0.2-0.3-0.3c0-0.2,0.2-0.3,0.3-0.3
		c0.9,0,1.6,0.7,1.6,1.6c0,1.1-0.9,1.9-1.9,1.9c-1.3,0-2.3-1.1-2.3-2.3c0-1.6,1.3-2.8,2.8-2.8c1.9,0,3.5,1.6,3.5,3.5V20h9.8v-5.2
		c0-1.9,1.6-3.5,3.5-3.5c1.6,0,2.8,1.3,2.8,2.8c0,1.3-1.1,2.3-2.3,2.3c-1.1,0-1.9-0.9-1.9-1.9c0-0.9,0.7-1.6,1.6-1.6
		c0.2,0,0.3,0.2,0.3,0.3c0,0.2-0.2,0.3-0.3,0.3c-0.5,0-0.9,0.4-0.9,0.9c0,0.7,0.6,1.3,1.3,1.3c0.9,0,1.7-0.7,1.7-1.7
		c0-1.2-1-2.2-2.2-2.2c-1.5,0-2.8,1.3-2.8,2.8v5.5C20.6,20.6,20.4,20.7,20.2,20.7L20.2,20.7z M20.2,20.7"/>
	<path id="XMLID_246_" class="st0" d="M22.9,24H7.2c-0.8,0-1.4-0.6-1.4-1.4v-6.3c0-0.2,0.2-0.3,0.3-0.3c0.2,0,0.3,0.1,0.3,0.3v6.3
		c0,0.4,0.3,0.7,0.7,0.7h15.7c0.4,0,0.7-0.3,0.7-0.7v-6.3c0-0.2,0.2-0.3,0.3-0.3c0.2,0,0.3,0.1,0.3,0.3v6.3
		C24.3,23.4,23.6,24,22.9,24L22.9,24z M22.9,24"/>
	<path id="XMLID_243_" class="st0" d="M20.2,17.8H9.8c-0.2,0-0.3-0.2-0.3-0.3c0-0.2,0.2-0.3,0.3-0.3h10.5c0.2,0,0.3,0.2,0.3,0.3
		C20.6,17.7,20.4,17.8,20.2,17.8L20.2,17.8z M20.2,17.8"/>
	<path id="XMLID_240_" class="st0" d="M9.8,25.1c-0.2,0-0.3-0.2-0.3-0.3v-0.8c0-0.2,0.2-0.3,0.3-0.3c0.2,0,0.3,0.2,0.3,0.3v0.8
		C10.1,24.9,10,25.1,9.8,25.1L9.8,25.1z M9.8,25.1"/>
	<path id="XMLID_237_" class="st0" d="M20.2,25.1c-0.2,0-0.3-0.2-0.3-0.3v-0.8c0-0.2,0.2-0.3,0.3-0.3c0.2,0,0.3,0.2,0.3,0.3v0.8
		C20.6,24.9,20.4,25.1,20.2,25.1L20.2,25.1z M20.2,25.1"/>
	<path id="XMLID_234_" class="st0" d="M22.5,12.1c-0.2,0-0.3-0.2-0.3-0.3V9.5c0-1.8-1.5-3.4-3.4-3.4h-7.6c-1.9,0-3.4,1.5-3.4,3.4
		v2.2c0,0.2-0.2,0.3-0.3,0.3c-0.2,0-0.3-0.2-0.3-0.3V9.5c0-2.2,1.8-4,4-4h7.6c2.2,0,4,1.8,4,4v2.2C22.9,11.9,22.7,12.1,22.5,12.1
		L22.5,12.1z M22.5,12.1"/>
</g>
</svg>
