<svg id="Capa_1" data-name="Capa 1" xmlns="http://www.w3.org/2000/svg" viewBox="0 0 241.27723 425.78"><defs><style>.cls-1{fill:#393;}</style></defs><title>punjabi</title><path class="cls-1" d="M274.03617,137.01572c0.11976-11.29648-11.14657-48.1779-14.19267-57.9318V9.20632A7.09634,7.09634,0,0,0,252.74717,2.11H224.36183a7.09634,7.09634,0,0,0-7.09633,7.09633v42.578a63.867,63.867,0,1,1-127.734,0V9.20632A7.09634,7.09634,0,0,0,82.43517,2.11H54.04983A7.09634,7.09634,0,0,0,46.9535,9.20632v69.8776c-3.04611,9.75746-14.31242,46.63533-14.19267,57.9318,0.15168,14.21662,8.68325,35.00976,17.716,57.02169,8.73381,21.28635,17.76567,43.29739,17.76567,56.44425,0,10.77225-6.00261,31.9672-12.95081,56.50457C45.253,342.4377,32.76083,386.55384,32.76083,420.79365A7.09633,7.09633,0,0,0,39.85717,427.89H266.93983a7.09634,7.09634,0,0,0,7.09633-7.09633c0-34.23981-12.49221-78.35592-22.53085-113.80743-6.9491-24.54091-12.95081-45.73587-12.95081-56.50457,0-13.14772,9.03186-35.15877,17.76568-56.44512C265.35291,172.02459,273.88449,151.23233,274.03617,137.01572ZM224.36183,250.48165c0,12.74234,5.952,33.76259,13.48835,60.37471,9.09662,32.12332,20.25827,71.539,21.81059,102.841H47.13622c1.55232-31.30192,12.714-70.71762,21.81058-102.841,7.53985-26.61125,13.48835-47.63415,13.48835-60.37471,0-15.94634-9.57207-39.27288-18.82834-61.83124-8.128-19.80675-16.53091-40.28854-16.65332-51.7855-0.079-7.34914,8.46326-37.37107,13.86624-54.569a7.08327,7.08327,0,0,0,.32644-2.12623v-63.867H75.33883V51.78432a78.05967,78.05967,0,1,0,156.11933,0V16.30265h14.19267v63.867a7.096,7.096,0,0,0,.32644,2.1289c5.403,17.1953,13.94519,47.21546,13.86623,54.56813-0.12241,11.49695-8.52535,31.97785-16.65331,51.78371C233.933,211.20877,224.36183,234.53531,224.36183,250.48165Z" transform="translate(-32.75988 -2.10999)"/></svg>