<svg id="Capa_1" data-name="Capa 1" xmlns="http://www.w3.org/2000/svg" viewBox="0 0 166.1787 429.90931"><defs><style>.cls-1{fill:#393;}</style></defs><title>trousers</title><path class="cls-1" d="M126.7794,429.906H98.7071a6.81127,6.81127,0,0,1-6.80766-6.67365L85.84921,118.96623c-0.04364-2.20688-2.03545-4.39506-2.73679-4.39506-1.00058,0-2.69939,1.85777-2.73679,3.82464L74.3254,423.23239a6.812,6.812,0,0,1-6.81079,6.67365h-28.066a6.81153,6.81153,0,0,1-6.77027-6.06894C32.563,422.79288,21.326,318.56442,20.1383,234.11376a172.65117,172.65117,0,0,0-7.63681-48.49532C4.7774,161.69183-3.408,120.88944,1.47019,62.39144l6.61444-39.808A6.81037,6.81037,0,0,1,15.92244,16.986q0.2758,0.046.54713,0.11449c27.43018,6.96041,64.93472,9.57251,100.26978,6.66117a6.68031,6.68031,0,0,1,7.13182,4.99355C128.073,44.19718,142.28368,56.41606,159.22182,59.156a6.809,6.809,0,0,1,5.70422,6.19361c4.72237,60.80461-4.9873,102.16807-11.19962,121.42219a166.15979,166.15979,0,0,0-7.643,47.34822c-1.18761,84.44754-12.42151,188.676-12.53372,189.72025A6.81819,6.81819,0,0,1,126.7794,429.906Zm-21.39867-13.61533H120.645c2.39079-23.44034,10.81-110.24127,11.8168-182.364a180.3176,180.3176,0,0,1,8.30386-51.3412c5.73228-17.75481,14.5941-55.42143,10.94714-111.10159-18.05716-4.607-32.6949-17.23114-39.18776-33.76094-8.25087.56107-16.58591,0.84784-24.85548,0.84784-24.416,0-47.52279-2.26922-67.35045-6.58013L14.97023,64.07157c-4.62261,55.69884,3.142,94.62478,10.48581,117.37a186.90347,186.90347,0,0,1,8.30075,52.48515c1.013,72.13824,9.426,158.92673,11.81991,182.364H60.83785l5.92242-298.15985c0.187-9.30444,7.67422-17.1688,16.35213-17.1688,9.42912,0,16.18692,9.345,16.35213,17.74234Z" transform="translate(0.00003 0.00327)"/><path class="cls-1" d="M158.134,72.10736a6.69872,6.69872,0,0,1-1.08475-.08728c-22.56757-3.65008-40.74629-19.2323-46.32272-39.6896a6.81271,6.81271,0,0,1,6.01282-8.57817,277.81608,277.81608,0,0,0,33.63315-4.6943,6.67193,6.67193,0,0,1,5.23355,1.04422,6.81268,6.81268,0,0,1,2.87082,4.501l6.443,40.16028a6.80254,6.80254,0,0,1-6.23962,7.32229Q158.40762,72.10755,158.134,72.10736Zm-31.205-35.653a42.92068,42.92068,0,0,0,23.01956,19.67492l-3.753-22.40547C140.083,34.80856,133.64317,35.725,126.929,36.45436Z" transform="translate(0.00003 0.00327)"/><path class="cls-1" d="M10.94922,72.10736A6.80754,6.80754,0,0,1,9.87071,58.57929c17.306-2.796,31.18-14.50059,35.35376-29.82409a6.8081,6.8081,0,1,1,13.14044,3.56786l-0.002.00741C52.7927,52.78777,34.60774,68.37,12.0433,72.02008A6.55074,6.55074,0,0,1,10.94922,72.10736Z" transform="translate(0.00003 0.00327)"/><path class="cls-1" d="M151.75645,32.52686a6.80878,6.80878,0,0,1-6.70793-5.68865l-1.998-12.0007A350.15179,350.15179,0,0,1,83.10621,19.856a350.03713,350.03713,0,0,1-59.93183-5.01848l-1.66766,9.97771A6.80652,6.80652,0,0,1,8.077,22.58839l0.00135-.00811L10.89311,5.692a6.8029,6.8029,0,0,1,7.821-5.6028q0.21,0.03469.41744,0.08247c0.25872,0.05922,26.96574,6.06893,63.97467,6.06893,37.13361,0,63.71283-6.0097,63.97778-6.06893a6.8029,6.8029,0,0,1,8.15594,5.1029q0.04774,0.20737.08246,0.41742l3.15446,18.91124a6.811,6.811,0,0,1-5.59512,7.83319A6.5975,6.5975,0,0,1,151.75645,32.52686Z" transform="translate(0.00003 0.00327)"/><path class="cls-1" d="M86.25758,109.96723a6.80444,6.80444,0,0,1-6.80766-6.80122V21.47374a6.80611,6.80611,0,1,1,13.61223,0v81.68583a6.80378,6.80378,0,0,1-6.79991,6.80765H86.25758Z" transform="translate(0.00003 0.00327)"/><path class="cls-1" d="M113.48512,109.96723H59.02685a6.80923,6.80923,0,1,1,0-13.61846H113.4851A6.80923,6.80923,0,0,1,113.48512,109.96723Z" transform="translate(0.00003 0.00327)"/></svg>