<svg id="Layer_1" data-name="Layer 1" xmlns="http://www.w3.org/2000/svg" viewBox="0 0 24.23173 24.23166"><defs><style>.cls-1{fill:#393;}</style></defs><title>t-shirt</title><path class="cls-1" d="M24.151,4.3892L19.70854,0.35059a0.40386,0.40386,0,0,0-.27165-0.105H15.39828a0.40386,0.40386,0,0,0-.40386.40386c0,0.23444-.99067.80772-2.827,0.80772s-2.827-.57328-2.827-0.80772A0.40386,0.40386,0,0,0,8.93651.24559H4.8979a0.40386,0.40386,0,0,0-.27165.105L0.18378,4.3892a0.40386,0.40386,0,0,0-.05922.53047l2.827,4.03861a0.40386,0.40386,0,0,0,.56245.09928l0.027-.02063L4.8979,7.90618V7.92354a16.80775,16.80775,0,0,0,.59655,3.16869,17.20215,17.20215,0,0,1,.615,3.28849,16.63389,16.63389,0,0,1-.737,3.21574,26.65556,26.65556,0,0,0-1.28226,6.47692,0.40386,0.40386,0,0,0,.40386.40386H19.84075a0.40386,0.40386,0,0,0,.40386-0.40386,26.65467,26.65467,0,0,0-1.28226-6.47692,16.63542,16.63542,0,0,1-.737-3.21574,17.19919,17.19919,0,0,1,.615-3.28859,16.80922,16.80922,0,0,0,.5966-3.16859V7.90618L20.79376,9.037a0.40386,0.40386,0,0,0,.5688-0.05167l0.02063-.027,2.827-4.03861A0.40386,0.40386,0,0,0,24.151,4.3892ZM12.16739,2.26489A6.92261,6.92261,0,0,0,14.73832,1.823a2.82546,2.82546,0,0,1-5.14186,0A6.92261,6.92261,0,0,0,12.16739,2.26489Zm8.806,5.87027-1.86468-1.554a0.40386,0.40386,0,0,0-.65087.40618,4.6251,4.6251,0,0,1,.17164.927,16.85736,16.85736,0,0,1-.57328,2.98524,17.47981,17.47981,0,0,0-.63866,3.48113,16.24328,16.24328,0,0,0,.76764,3.4359,29.15606,29.15606,0,0,1,1.24127,5.85291H4.9083a29.15235,29.15235,0,0,1,1.24127-5.85281,16.2329,16.2329,0,0,0,.76764-3.436,17.50316,17.50316,0,0,0-.63825-3.481,16.8804,16.8804,0,0,1-.57333-2.98534,4.58719,4.58719,0,0,1,.17164-0.927A0.40386,0.40386,0,0,0,5.226,6.58116l-1.86468,1.554L0.99019,4.74778,5.054,1.05331H8.55491a3.635,3.635,0,0,0,7.225,0h3.50087L23.3446,4.74773Z" transform="translate(-0.05154 -0.24559)"/></svg>