<svg id="Layer_1" data-name="Layer 1" xmlns="http://www.w3.org/2000/svg" viewBox="0 0 21.61713 24.02453"><defs><style>.cls-1{fill:#393;}</style></defs><title>Apparel</title><path class="cls-1" d="M22.64314,10.1319L21.65992,4.23281a2.37522,2.37522,0,0,0-1.81427-1.9297L16.0823,1.43466,15.36265,0.35525A0.37612,0.37612,0,0,0,15.09917.191a0.36492,0.36492,0,0,0-.0495-0.00286V0.18774H8.62978V0.188a0.36556,0.36556,0,0,0-.0495.003,0.37618,0.37618,0,0,0-.26347.16423L7.5972,1.43471l-3.76344.86849a2.37517,2.37517,0,0,0-1.81427,1.9297l-0.98317,5.899a0.37613,0.37613,0,0,0,.23133.41114l3.776,1.5104V23.83608a0.37616,0.37616,0,0,0,.37618.37618H18.25966a0.37616,0.37616,0,0,0,.37618-0.37618V12.05344l3.776-1.5104A0.37632,0.37632,0,0,0,22.64314,10.1319ZM15.4045,1.7742L13.76591,4.39592a0.02495,0.02495,0,0,1-.03688.00633L12.42579,3.35967l2.54885-2.23024Zm-1.356-.83415-2.20875,1.9327-2.2088-1.9327h4.41755ZM12.26607,4.19537v3.591a0.02508,0.02508,0,0,1-.02506.02506H11.43854a0.02508,0.02508,0,0,1-.02506-0.02506v-3.591l0.42625-.34108Zm-3.56121-3.066,2.54885,2.23024L9.95052,4.4022a0.024,0.024,0,0,1-.01985.00516,0.02351,0.02351,0,0,1-.017-0.01145L8.275,1.7742ZM5.04366,11.24313L1.82823,9.95693l0.1242-.745,3.09123,1.23656v0.79464ZM17.88348,23.4599H5.796V22.60727H17.88343V23.4599h0Zm0.37613-16.451a0.37616,0.37616,0,0,0-.37618.37618V21.855H5.796V7.385a0.37618,0.37618,0,1,0-.75236,0V9.63813L2.079,8.45225l0.68254-4.0957A1.62531,1.62531,0,0,1,4.00291,3.03619l3.6475-.84175L9.27554,4.79471a0.77749,0.77749,0,0,0,1.14487.195L10.661,4.79729v2.989a0.77827,0.77827,0,0,0,.77742.77742h0.80247a0.77828,0.77828,0,0,0,.77742-0.77742v-2.989l0.24057,0.19243a0.77743,0.77743,0,0,0,1.14487-.195l1.62512-2.60023,3.64755,0.8417a1.62519,1.62519,0,0,1,1.24134,1.32036l0.68263,4.09571L18.63565,9.63813V7.385A0.37591,0.37591,0,0,0,18.25961,7.00891Zm0.37618,4.23422V10.44844L21.72707,9.212l0.1242,0.745Z" transform="translate(-1.03116 -0.18774)"/></svg>