<?xml version="1.0" encoding="utf-8"?>
<!-- Generator: Adobe Illustrator 19.0.0, SVG Export Plug-In . SVG Version: 6.00 Build 0)  -->
<svg version="1.1" id="Capa_1" xmlns="http://www.w3.org/2000/svg" xmlns:xlink="http://www.w3.org/1999/xlink" x="0px" y="0px"
	 viewBox="-130 222 350 350" style="enable-background:new -130 222 350 350;" xml:space="preserve">
<style type="text/css">
	.st0{fill:#339933;}
	.st1{fill:none;stroke:#339947;stroke-width:14;stroke-miterlimit:10;}
</style>
<g>
	<path class="st0" d="M-773,1737.2c38.9,0,70.5-38.3,70.5-85.6c0-47.3-10.4-85.6-70.5-85.6s-70.5,38.3-70.5,85.6
		C-843.5,1698.9-811.9,1737.2-773,1737.2z"/>
	<path class="st0" d="M-906.1,1867.9C-906.1,1865-906.1,1867-906.1,1867.9L-906.1,1867.9z"/>
	<path class="st0" d="M-639.9,1870.1C-639.9,1869.3-639.9,1864.6-639.9,1870.1L-639.9,1870.1z"/>
	<path class="st0" d="M-640.1,1864.4c-1.3-82.3-12.1-105.8-94.4-120.7c0,0-11.6,14.8-38.6,14.8s-38.6-14.8-38.6-14.8
		c-81.4,14.7-92.8,37.8-94.3,118c-0.1,6.5-0.2,6.9-0.2,6.1c0,1.4,0,4.1,0,8.7c0,0,19.6,39.5,133.1,39.5s133.1-39.5,133.1-39.5
		c0-3,0-5,0-6.4C-639.9,1870.6-640,1869.7-640.1,1864.4z"/>
</g>
<g>
	<path id="XMLID_3_" class="st1" d="M-59.8,507.2c0-57.9,46.9-104.8,104.8-104.8s104.8,46.9,104.8,104.8"/>
	<circle id="XMLID_1_" class="st1" cx="45" cy="344.6" r="57.8"/>
</g>
</svg>
