<?xml version="1.0" encoding="utf-8"?>
<!-- Generator: Adobe Illustrator 19.0.0, SVG Export Plug-In . SVG Version: 6.00 Build 0)  -->
<svg version="1.1" id="Capa_1" xmlns="http://www.w3.org/2000/svg" xmlns:xlink="http://www.w3.org/1999/xlink" x="0px" y="0px"
	 viewBox="-130 222 350 350" style="enable-background:new -130 222 350 350;" xml:space="preserve">
<style type="text/css">
	.st0{fill:#339933;}
	.st1{fill:none;stroke:#339933;stroke-width:15.9146;stroke-miterlimit:10;}
</style>
<g>
	<path class="st0" d="M-643,1515.2c38.9,0,70.5-38.3,70.5-85.6c0-47.3-10.4-85.6-70.5-85.6s-70.5,38.3-70.5,85.6
		C-713.5,1476.9-681.9,1515.2-643,1515.2z"/>
	<path class="st0" d="M-776.1,1645.9C-776.1,1643-776.1,1645-776.1,1645.9L-776.1,1645.9z"/>
	<path class="st0" d="M-509.9,1648.1C-509.9,1647.3-509.9,1642.6-509.9,1648.1L-509.9,1648.1z"/>
	<path class="st0" d="M-510.1,1642.4c-1.3-82.3-12.1-105.8-94.4-120.7c0,0-11.6,14.8-38.6,14.8s-38.6-14.8-38.6-14.8
		c-81.4,14.7-92.8,37.8-94.3,118c-0.1,6.5-0.2,6.9-0.2,6.1c0,1.4,0,4.1,0,8.7c0,0,19.6,39.5,133.1,39.5s133.1-39.5,133.1-39.5
		c0-3,0-5,0-6.4C-509.9,1648.6-510,1647.7-510.1,1642.4z"/>
</g>
<path class="st1" d="M-3.9,364.6c-24.7,14.7-41,40.1-41,69v34.3c0,10,4,19.6,11.1,26.7v0c7.1,7.1,16.7,11.1,26.7,11.1H96.5
	c10.2,0,20-4.1,27.2-11.3h0c7.2-7.2,11.3-17,11.3-27.2v-33.6c0-28.9-16.3-54.4-41-69"/>
<path class="st1" d="M45,392.7L45,392.7c-31.3,0-56.6-25.3-56.6-56.6v0c0-31.3,25.3-56.6,56.6-56.6h0c31.3,0,56.6,25.3,56.6,56.6v0
	C101.6,367.3,76.3,392.7,45,392.7z"/>
</svg>
