<?xml version="1.0" encoding="utf-8"?>
<!-- Generator: Adobe Illustrator 19.0.0, SVG Export Plug-In . SVG Version: 6.00 Build 0)  -->
<svg version="1.1" id="Layer_1" xmlns="http://www.w3.org/2000/svg" xmlns:xlink="http://www.w3.org/1999/xlink" x="0px" y="0px"
	 viewBox="294 122 1200 550" style="enable-background:new 294 122 1200 550;" xml:space="preserve">
<style type="text/css">
	.st0{fill:url(#SVGID_1_);}
	.st1{fill:#2C338E;}
	.st2{fill:#6CC071;}
	.st3{opacity:0.95;fill:#94CE97;enable-background:new    ;}
	.st4{opacity:0.25;fill:none;stroke:#ED644B;stroke-width:0.9845;stroke-miterlimit:10;enable-background:new    ;}
	.st5{opacity:0.25;}
	.st6{fill:#ED644B;}
	.st7{opacity:0.85;}
	.st8{fill:#464FA2;}
	.st9{fill:#3B439B;}
	.st10{fill:#F4847F;}
	.st11{opacity:0.5;fill:#ED644B;enable-background:new    ;}
	.st12{fill:url(#SVGID_2_);}
	.st13{fill:#353892;}
	.st14{fill:#F9BFAF;}
	.st15{fill:#016AE1;}
	.st16{fill:#FFFFFF;}
	.st17{fill:#FBE5E0;}
	.st18{fill:#006BE3;}
	.st19{fill:#FB7341;}
	.st20{fill:none;stroke:#E1B2B2;stroke-width:0.5398;stroke-miterlimit:10;}
	.st21{fill:#13C992;}
	.st22{fill:none;stroke:#FFFFFF;stroke-width:1.3957;stroke-miterlimit:10;}
	.st23{fill:none;stroke:#E1B2B2;stroke-width:0.9098;stroke-miterlimit:10;}
	.st24{fill:none;stroke:#FFFFFF;stroke-width:0.8687;stroke-miterlimit:10;}
	.st25{fill:#F7C12D;}
	.st26{fill:#FCFCFC;}
	.st27{fill:#81441D;}
	.st28{fill:#EFC4A3;}
	.st29{fill:#363B92;}
	.st30{opacity:0.5;fill:#29235C;enable-background:new    ;}
	.st31{fill:none;stroke:#231B22;stroke-width:0.555;stroke-miterlimit:10;}
	.st32{fill:#3A90E8;}
	.st33{fill:#369747;}
	.st34{fill:#FCDFBB;}
	.st35{fill:#303030;}
	.st36{fill:#FFFFF3;}
	.st37{fill:url(#SVGID_3_);}
	.st38{fill:#339933;}
	.st39{font-family:'KongshoMJ';}
	.st40{font-size:70px;}
	.st41{font-family:'SutonnyMJ';}
	.st42{font-size:24px;}
	.st43{letter-spacing:1;}
</style>
<title>wc-bg4</title>
<linearGradient id="SVGID_1_" gradientUnits="userSpaceOnUse" x1="294" y1="431" x2="1494" y2="431" gradientTransform="matrix(1 0 0 -1 0 828)">
	<stop  offset="0" style="stop-color:#239400;stop-opacity:0.1"/>
	<stop  offset="1" style="stop-color:#2300BF;stop-opacity:0.1"/>
</linearGradient>
<rect x="294" y="122" class="st0" width="1200" height="550"/>
<path class="st1" d="M1150.4,604.9c-0.4,0.8-0.5,1.6-0.5,2.5c0,0.7,0,1.4,0,2.1c0,0.4,0.1,0.8,0.3,1.1c0.3,0.3,0.4,0.7,0.5,1.1
	c-0.1,0.6-0.5,1.1-1.1,1.3c-1.4,0.4-2.8,0.4-4.2,0.1c-1.6-0.3-3.1-0.7-4.6-1.2c-0.1,0-0.2-0.1-0.3-0.2c-0.1-0.1-0.1-0.2-0.1-0.4
	l-0.2-3.8c0-0.2,0-0.5,0.1-0.7c0.1-0.1,0.2-0.2,0.4-0.2C1143.7,605.2,1147,604.7,1150.4,604.9z"/>
<path class="st2" d="M1151.5,563c-7,8.2-9.4,19.5-6.3,29.9c1,3,2.7,5.7,3.4,8.7c0.7,3.1,0.8,6.3,1.8,9.4c0.1,0.3,0.2,0.6,0.4,0.8
	c0.2,0.2,0.5,0.3,0.8,0.3c8.2,1.1,16.5,1.5,24.8,1c1.9,0.4,3.7-0.7,4.2-2.6l4.9-11.7c2.5-5.8,4.9-11.9,4.9-18.3
	c0-1.1-0.1-2.2-0.2-3.2c-0.2-2.4-0.7-4.8-1.6-7.1c-1.4-3.1-3.6-5.9-6.3-8.1c-2.5-2.4-5.8-4-9.2-4.5c-0.8-0.1-1.7-0.1-2.5,0
	c-2.2,0.1-4.4-0.8-6.7-0.8C1159.1,556.8,1154.5,559.2,1151.5,563z"/>
<path class="st3" d="M1172.4,558c-2.2-1.1-4.6-1.5-7-1.3c-4.2-0.1-8.3,1.3-11.7,3.9c-1.4,1.4-2.7,2.9-3.8,4.6l-3.7,5.2
	c-1.9,2.2-2.8,5.1-2.6,8c-0.2,5.5-0.3,11.4,2.4,16.2c0.9,1.3,1.7,2.7,2.4,4.2c0.4,1.3,0.7,2.7,0.8,4.1c0.5,3.6,1.1,7.2,1.9,10.7
	c0,0.8,0.6,1.5,1.5,1.5c0.1,0,0.2,0,0.3,0c3,0.1,6,0.1,9,0c0.8-4.1,2.7-7.8,5.4-11c1.1-1.3,2.3-2.5,3.5-3.7c1.9-2.2,3.5-4.6,5-7.2
	c2.4-3.6,4.4-7.5,6-11.5c1.6-4.1,1.8-8.5,0.8-12.8c-0.2-0.8-0.5-1.6-1-2.2c-1.4-1.5-3-2.8-4.7-3.9
	C1175.3,561.4,1174.3,559.1,1172.4,558z"/>
<path class="st4" d="M1177.4,565.1c-1.1-1.5-2.3-2.9-3.6-4.2c-0.6-0.7-1.2-1.3-2-1.9c-0.7-0.3-1.5-0.2-2.1,0.3c-3,1.5-5.5,3.9-7,7
	c-1.7,3.6-2.7,7.6-3,11.6c-0.7,10-0.4,20.1,0.8,30.1l0.6,7c3.4-0.2,6.7-0.1,10.1,0.2c-0.1-2.5,0.1-5,0.5-7.5c0.4-1.8,1-3.6,1.7-5.4
	c3.4-8.6,7.1-17.4,7.1-26.6c0-1.7-0.2-3.4-0.6-5.1C1179.5,568.7,1178.6,566.8,1177.4,565.1z"/>
<g class="st5">
	<path class="st6" d="M1160.2,559c-1.2,1.2-2.6,3.1-4.6,5.2c-1,1.1-2,2.4-2.8,3.6c-0.9,1.4-1.6,3-2.1,4.6c-0.5,1.7-0.8,3.5-0.9,5.3
		c0,1.9,0.1,3.8,0.5,5.6c0.3,1.9,0.6,3.8,1,5.6c0.4,1.8,0.8,3.7,1.1,5.4l1.1,5c0.4,1.6,0.7,3.1,1,4.6c0.2,1.3,0.3,2.6,0.3,4
		c-0.1,1-0.2,2-0.3,3c-0.3,1.7-0.5,2.6-0.5,2.6l0.3-2.6c0.1-1,0.2-2,0.2-3c0-1.3-0.2-2.6-0.4-3.8c-0.3-1.4-0.7-2.9-1.1-4.5
		c-0.4-1.6-0.9-3.3-1.3-5l-1.2-5.4c-0.4-1.8-0.8-3.7-1.1-5.6c-0.3-1.9-0.5-3.8-0.5-5.8c0.1-1.9,0.4-3.8,1-5.6
		c0.5-1.7,1.3-3.3,2.3-4.8c0.9-1.3,1.9-2.5,3-3.6c2-2.1,3.6-3.8,4.8-5c0.6-0.6,1.3-1.2,2-1.7C1162.1,557.2,1161.4,557.8,1160.2,559z
		"/>
</g>
<g class="st7">
	<path class="st6" d="M1176.9,568.8c0,0.2-0.1,0.4-0.2,0.5c-0.2,0.2-0.4,0.3-0.6,0.4c-0.2,0.1-0.5,0.2-0.7,0.3
		c-0.5,0.1-0.9,0.2-1.4,0.2c-0.1,0.2-0.3,0.2-0.5,0.1c-0.2-0.1-0.2-0.3-0.1-0.5c0.1-0.2,0.3-0.2,0.5-0.1c0.4-0.3,0.8-0.4,1.3-0.6
		c0.5-0.1,1-0.2,1.3-0.2c0.1,0,0.3-0.1,0.4-0.1c0.1,0,0.1-0.1,0.1-0.1C1176.9,568.6,1176.9,568.7,1176.9,568.8z"/>
	<path class="st6" d="M1173,575.4c-0.5,0.2-1,0.4-1.5,0.6c-0.5,0.1-1,0.2-1.6,0.3c-0.3,0-0.5,0-0.8,0c0.2-0.2,0.4-0.4,0.6-0.5
		c0.9-0.6,2-0.9,3.2-0.9c0.3,0,0.5,0.1,0.8,0.1C1173.4,575.2,1173.2,575.3,1173,575.4z"/>
	<path class="st6" d="M1170.4,585c0.9,0.6,1.5,1.4,2,2.4c0.2,0,0.4,0.2,0.4,0.4c0,0.2-0.2,0.4-0.4,0.4c-0.2,0-0.4-0.2-0.4-0.4
		c0,0,0,0,0,0c-0.9-0.6-1.5-1.4-2-2.4c-0.2,0-0.4-0.2-0.4-0.4c0-0.2,0.2-0.4,0.4-0.4C1170.2,584.6,1170.4,584.8,1170.4,585
		C1170.4,585,1170.4,585,1170.4,585z"/>
	<path class="st6" d="M1166.6,596.1c0.6,0.4,1.1,1,1.3,1.7c0.2,0.1,0.2,0.3,0.2,0.4c-0.1,0.2-0.3,0.2-0.4,0.2
		c-0.1,0-0.2-0.1-0.2-0.2c-0.6-0.4-1.1-1-1.3-1.7c-0.2-0.1-0.2-0.3-0.2-0.4c0.1-0.2,0.3-0.2,0.4-0.2
		C1166.5,595.9,1166.6,596,1166.6,596.1z"/>
	<path class="st6" d="M1157.4,600.3c-0.7,0.5-1.6,0.7-2.4,0.7c-0.1,0.2-0.3,0.2-0.5,0.1s-0.2-0.3-0.1-0.5c0.1-0.1,0.3-0.2,0.4-0.1
		c0.7-0.5,1.6-0.7,2.4-0.7c0.1-0.2,0.3-0.2,0.5-0.1c0.2,0.1,0.2,0.3,0.1,0.5C1157.7,600.3,1157.6,600.4,1157.4,600.3z"/>
	<path class="st6" d="M1157.3,585.9c-0.7,0.3-1.5,0.3-2.2,0.1c-0.2-0.1-0.4-0.1-0.5-0.2c0.1-0.1,0.3-0.3,0.5-0.3
		c0.7-0.4,1.6-0.4,2.3-0.1c0.2,0.1,0.4,0.2,0.5,0.3C1157.6,585.8,1157.4,585.9,1157.3,585.9z"/>
	<path class="st6" d="M1158.1,573.1c-0.1-0.1-0.2-0.2-0.3-0.2c-0.2-0.1-0.3-0.1-0.6-0.1c-0.2-0.1-0.5-0.2-0.7-0.3
		c-0.4-0.2-0.8-0.5-1.2-0.8c-0.2,0.1-0.4,0-0.5-0.2c-0.1-0.2,0-0.4,0.2-0.5c0.2-0.1,0.4,0,0.5,0.2c0.5,0.1,0.9,0.2,1.4,0.4
		c0.2,0.1,0.4,0.2,0.7,0.4c0.2,0.1,0.4,0.3,0.6,0.5c0.1,0.2,0.2,0.4,0.1,0.6c0,0.1-0.1,0.1-0.1,0.2
		C1158.1,573.2,1158.1,573.1,1158.1,573.1z"/>
	<path class="st6" d="M1160.2,567.7c-0.4-0.1-0.8-0.2-1.2-0.4c-0.4-0.2-0.7-0.4-1.1-0.6c-0.2-0.1-0.3-0.2-0.5-0.4
		c0.2-0.1,0.4-0.1,0.6-0.2c0.9-0.1,1.8,0.3,2.4,1c0.1,0.2,0.2,0.4,0.3,0.6C1160.7,567.8,1160.5,567.8,1160.2,567.7z"/>
	<path class="st6" d="M1148.6,568.1c-0.7-0.2-1.3-0.7-1.6-1.3c-0.2,0-0.3-0.2-0.3-0.4s0.2-0.3,0.4-0.3c0.1,0,0.2,0.1,0.2,0.2
		c0.7,0.2,1.3,0.7,1.6,1.4c0.2,0,0.3,0.2,0.3,0.4c0,0.2-0.2,0.3-0.4,0.3C1148.7,568.3,1148.7,568.2,1148.6,568.1z"/>
	<path class="st6" d="M1144.9,575c-0.9-0.8-1.5-1.8-1.9-2.9c-0.2,0-0.4-0.2-0.4-0.5c0-0.2,0.2-0.4,0.5-0.4s0.4,0.2,0.4,0.5
		c0,0,0,0.1,0,0.1c0.9,0.8,1.5,1.8,1.9,2.9c0.2,0,0.4,0.2,0.4,0.5s-0.2,0.4-0.5,0.4C1145,575.6,1144.8,575.4,1144.9,575
		C1144.9,575.1,1144.9,575.1,1144.9,575z"/>
	<path class="st6" d="M1145.8,579.1c-1.1,0.4-2.4,0.5-3.6,0.4c-0.3,0-0.6-0.1-0.8-0.2c0.2-0.1,0.5-0.3,0.8-0.4
		c1.1-0.4,2.4-0.5,3.6-0.4c0.3,0,0.6,0.1,0.8,0.2C1146.3,578.9,1146.1,579.1,1145.8,579.1z"/>
	<path class="st6" d="M1145.5,589.2c-0.2,0.1-0.4,0.3-0.6,0.5c-0.3,0.2-0.5,0.4-0.8,0.6c-0.6,0.3-1.2,0.5-1.8,0.5
		c-0.3,0-0.6,0-0.9,0c0.2-0.2,0.5-0.3,0.7-0.5c0.4-0.3,1-0.6,1.5-0.9c0.3-0.1,0.6-0.3,0.8-0.4c0.3-0.1,0.6-0.2,0.9-0.3
		c0.2,0,0.5,0,0.7,0.1c0.1,0,0.1,0.1,0.2,0.1C1146,588.9,1145.7,589,1145.5,589.2z"/>
	<path class="st6" d="M1148.1,598.7c-1,0.7-2.2,1-3.4,0.9c-0.3,0-0.5-0.1-0.8-0.2c0.2-0.1,0.5-0.2,0.7-0.3c0.4-0.2,1-0.3,1.6-0.5
		c0.6-0.1,1.2-0.3,1.6-0.3c0.3,0,0.5-0.1,0.8-0.1C1148.5,598.3,1148.3,598.5,1148.1,598.7z"/>
	<path class="st6" d="M1169.7,607.4c-1.1,0.3-2.3,0.3-3.4,0.1c-0.3-0.1-0.5-0.1-0.8-0.3c0.2-0.1,0.5-0.2,0.8-0.3
		c1.1-0.3,2.3-0.3,3.4-0.1c0.3,0.1,0.5,0.1,0.8,0.3C1170.2,607.2,1170,607.3,1169.7,607.4z"/>
	<path class="st6" d="M1178.4,604.4c1-0.3,2.1-0.3,3.1,0c0.2,0.1,0.5,0.2,0.7,0.3c-0.2,0.1-0.5,0.2-0.7,0.2c-1,0.2-2,0.2-3,0
		c-0.2-0.1-0.5-0.1-0.7-0.2C1177.9,604.5,1178.2,604.4,1178.4,604.4z"/>
	<path class="st6" d="M1183.7,602.1c1-0.7,2.1-1.1,3.3-1.3c0.3,0,0.6-0.1,0.9,0c-0.2,0.2-0.4,0.4-0.6,0.6c-1,0.7-2.1,1.1-3.3,1.3
		c-0.3,0-0.6,0.1-0.9,0C1183.2,602.4,1183.4,602.3,1183.7,602.1z"/>
	<path class="st6" d="M1185.9,594.1c0.2-0.1,0.3-0.2,0.5-0.3c1.1-0.5,2.2-0.7,3.4-0.6c0.3,0,0.5,0.1,0.8,0.2
		c-0.2,0.2-0.5,0.3-0.7,0.4c-1.1,0.5-2.2,0.6-3.4,0.6c-0.2,0-0.4,0-0.6-0.1c-0.1,0-0.1,0-0.2,0
		C1185.8,594.2,1185.9,594.1,1185.9,594.1z"/>
	<path class="st6" d="M1182.2,589.4c0.8-0.3,1.6-0.3,2.3-0.1c0.2,0.1,0.4,0.1,0.6,0.2c-0.2,0.1-0.3,0.3-0.5,0.3
		c-0.8,0.4-1.6,0.4-2.4,0.1c-0.2-0.1-0.4-0.2-0.5-0.3C1181.8,589.5,1182,589.4,1182.2,589.4z"/>
	<path class="st6" d="M1189.6,584.6c0-0.1,0-0.2,0.1-0.2c0.1-0.1,0.2-0.1,0.3-0.2c0.1,0,0.2-0.1,0.3-0.1c1.1-0.4,2.3-0.6,3.5-0.4
		c0.3,0,0.6,0.1,0.8,0.2c-0.2,0.2-0.5,0.3-0.8,0.4c-1.1,0.4-2.3,0.6-3.5,0.4c-0.1,0-0.2,0-0.3-0.1c-0.1,0-0.2-0.1-0.2,0
		C1189.6,584.6,1189.7,584.7,1189.6,584.6C1189.6,584.7,1189.6,584.7,1189.6,584.6z"/>
	<path class="st6" d="M1185,578.2c1-0.6,2.1-0.9,3.2-1c0.3,0,0.5,0,0.8,0c-0.2,0.2-0.4,0.4-0.7,0.5c-1,0.6-2.1,0.9-3.2,1
		c-0.3,0-0.5,0-0.8,0C1184.6,578.6,1184.8,578.4,1185,578.2z"/>
	<path class="st6" d="M1188.7,570.8c0.4-0.3,1-0.7,1.6-1c0.6-0.3,1.2-0.6,1.7-0.9c0.3-0.1,0.6-0.2,0.8-0.3c-0.1,0.3-0.3,0.5-0.5,0.8
		c-0.9,1-2.1,1.7-3.4,1.9c-0.3,0.1-0.6,0.1-0.9,0C1188.2,571.1,1188.4,571,1188.7,570.8z"/>
	<path class="st6" d="M1184,570.4c0.5-0.3,0.9-0.6,1.4-0.9c0.5-0.3,1-0.5,1.5-0.6c0.3-0.1,0.5-0.1,0.8-0.2c-0.1,0.2-0.3,0.5-0.5,0.7
		c-0.8,0.9-1.9,1.4-3.1,1.5c-0.3,0-0.6,0-0.8,0C1183.6,570.7,1183.8,570.5,1184,570.4z"/>
	<path class="st6" d="M1184.9,565.3c1.3-1.3,2.9-2.4,4.5-3.2c0.4-0.2,0.8-0.4,1.2-0.5c-0.3,0.3-0.6,0.7-0.9,1
		c-1.3,1.3-2.9,2.4-4.5,3.2c-0.4,0.2-0.8,0.4-1.2,0.5C1184.3,565.9,1184.6,565.6,1184.9,565.3z"/>
	<path class="st6" d="M1180.8,561.6c0.3-1.1,0.8-2.2,1.5-3.1c-0.1-0.2,0-0.5,0.2-0.6s0.5,0,0.6,0.2c0.1,0.2,0,0.5-0.2,0.6
		c0,0-0.1,0-0.1,0c-0.3,1.1-0.8,2.2-1.6,3.1c0.1,0.2,0,0.5-0.2,0.6c-0.2,0.1-0.5,0-0.6-0.2C1180.4,562,1180.5,561.8,1180.8,561.6
		C1180.8,561.6,1180.8,561.6,1180.8,561.6z"/>
	<path class="st6" d="M1155.4,560.3c-0.2,0.1-0.4,0.2-0.6,0.2c-0.3,0-0.6-0.1-0.9-0.3c-0.1-0.1-0.3-0.2-0.4-0.3l-0.3-0.3
		c-0.4-0.5-0.6-0.8-0.9-1.2c-0.2-0.2-0.3-0.4-0.5-0.6c0.5,0,1.1,0.2,1.5,0.5c0.2,0.2,0.4,0.4,0.6,0.7c0.2,0.4,0.5,0.7,0.9,1
		c0.2,0.1,0.4,0.2,0.6,0.2C1155.5,560.2,1155.4,560.3,1155.4,560.3z"/>
	<path class="st6" d="M1150.8,606.3c-0.1,0.4-0.3,0.9-0.4,1.4c-0.2,0.5-0.4,1-0.5,1.4c-0.1,0.2-0.2,0.4-0.3,0.7
		c-0.1-0.2-0.2-0.5-0.2-0.7c-0.2-1.1,0.2-2.2,1.1-3c0.2-0.2,0.4-0.3,0.6-0.4C1150.9,605.8,1150.9,606,1150.8,606.3z"/>
</g>
<path class="st8" d="M1158.8,613c-3.2-0.3-6.3-0.9-9.3-2c-1.5-0.5-3-1.1-4.5-1.6c-0.7-0.3-1.5-0.6-2.2-0.9c-0.4-0.2-0.7-0.3-1.1-0.5
	c-0.4-0.1-0.7-0.2-1-0.4c-0.2-0.2-0.4-0.5-0.4-0.8c-0.1,0.1-0.2,0.3-0.1,0.4c0,0.9,0.1,1.7,0.1,2.6c0.1,0.8,0,1.6,0.1,2.4
	c0.1,1.7,0.3,3.3,0.6,5c0,0.2,0.1,0.4,0.1,0.5l4.3,25.3c0.1,1.1,0.4,2.2,0.9,3.3c1,2,2.8,3.5,5,4.2c2.1,0.7,4.3,1,6.6,1.1
	c4.7,0.3,9.4,0.4,14,0.2c0.3-1.2,0.1-2.5-0.7-3.6c-0.8-1-1.4-2.1-1.9-3.2c-0.3-1.1-0.4-2.3-0.2-3.4c0.4-6.2,1.1-12.3,1.8-18.4
	c0.2-1.9,0.5-3.9,1.1-5.7c0.6-1.8,1.6-3.5,2.2-5.4c-1.7-0.1-3.4,0-5.1,0.4C1165.5,613,1162.2,613.2,1158.8,613z"/>
<path class="st9" d="M1142.8,627.7c0.7-0.3,1.4-0.4,2.2-0.3l3.5,0.1l16.1,0.7c1.2,0,2.3,0.2,3.4,0.6c2.3,1.1,1.7,3.3,1.5,5.4
	c-0.2,2.5-0.5,5-0.6,7.4c-0.1,1.1-0.1,2.3,0.2,3.4c0.5,1.1,1.1,2.2,1.9,3.2c0.8,1,1,2.3,0.7,3.6c-4.7,0.1-9.4,0.1-14-0.2
	c-2.2,0-4.4-0.4-6.6-1.1c-2.1-0.7-3.9-2.2-5-4.2c-0.4-1-0.7-2.1-0.9-3.3C1144.4,638,1143.1,632.8,1142.8,627.7z"/>
<path class="st1" d="M1189,607.2c-1.8-0.8-3.8-1.1-5.8-0.9c-0.3,0-0.6,0-0.9,0c-0.1,0.3-0.2,0.7-0.4,1c-0.5,1-1.1,2-1.7,2.9
	c-0.3,0.5-0.6,0.9-1,1.3c-0.4,0.3-0.8,0.5-1.2,0.6c-1.6,0.4-3.1-0.2-4.7,0c-3.4,0.5-3,1.7-3,4.6c-0.1,3.3-0.4,6.5-0.8,9.8
	c-0.3,2.3-0.6,4.6-0.8,7c-0.1,1.2-0.3,2.4-0.4,3.6c-0.1,0.6-0.1,1.2-0.1,1.7c0,0.5,0,1.1-0.1,1.6c0,0.4-0.1,0.7-0.2,1.1
	c-0.2,1.2-0.2,2.4-0.3,3.6c-0.1,2.3-0.4,4.5-0.8,6.8h2.8c1.3,0,2.5,0,3.8,0c1.2,0.1,2.4,0.1,3.6-0.2c1.1-0.5,1.9-1.3,2.5-2.4
	c0.5-0.7,0.9-1.5,1.2-2.3c0.2-0.6,0.4-1.1,0.5-1.7c1-3.9,2.2-7.7,3.1-11.6c0.8-3.9,1.5-7.9,2.7-11.7
	C1188.2,618.5,1192.9,609.8,1189,607.2z"/>
<path class="st10" d="M1165.7,547.2c-0.6,1.4-0.6,2.9-0.1,4.3c0.9,1.5,1.6,3.2,2,4.9c-0.7-0.7-1.4-1.3-2.2-1.8
	c-0.8-0.5-1.3-1.4-1.4-2.4c-0.2,1.3,0.2,2.5,1,3.5c0.7,0.4,1.4,0.9,2,1.4c-1.7-0.6-3.6-0.9-5.4-0.7c-0.2,0-0.5,0-0.7,0.2l0,0l0,0
	c-0.2,0.1-0.2,0.4-0.1,0.6c2.5-0.3,4.9,0.1,7.2,1c-2.3,0.8-4.3,2.4-5.6,4.5c1.2,0,2.4-0.5,3.3-1.4l1.9-1.6c-0.3,1.7-0.5,3.5-0.5,5.2
	c0.8-0.6,1.3-1.5,1.6-2.5c0.2-1,0.6-1.9,1-2.8c-0.1,1,0,2,0.5,2.9c0.5,0.9,1.1,1.7,1.7,2.5c0.4-0.8,0.5-1.6,0.4-2.5
	c0-0.6,0-1.1-0.2-1.6c-0.3-0.8-0.9-1.3-1.7-1.5c2.2,0.2,4.5-0.2,6.6-0.9c0.2,0,0.3-0.1,0.4-0.3c0.1-0.1,0.1-0.3,0-0.5
	c-0.1,0-0.2-0.1-0.3-0.1l-5.8,0c0.9-0.4,1.8-0.9,2.6-1.6c0.5-0.4,0.9-0.8,1.3-1.4c0.4-1.1,0.5-2.3,0.2-3.4c-0.6,0.2-1.1,0.6-1.4,1
	l-3.2,3.6c-0.3,0.4-0.8,0.7-1.3,0.7c1.4-1.3,2.5-2.8,3.3-4.5c0.3-0.5,0.5-1.1,0.5-1.7c0-0.6-0.4-1.1-1-1.3c-0.6,0-1.1,0.3-1.3,0.8
	c-0.2,0.5-0.4,1-0.5,1.6c-0.3,1.8-0.9,3.5-1.7,5.1c0,0.1-0.1,0.2-0.2,0.2s-0.2-0.1-0.2-0.2c0,0,0,0,0-0.1
	C1168.2,553.2,1167.2,550.1,1165.7,547.2z"/>
<path class="st11" d="M1165.9,548.4c-0.6,1.3-0.6,2.7-0.1,4c0.9,1.4,1.5,2.9,1.8,4.6c-0.6-0.7-1.3-1.2-2.1-1.7
	c-0.8-0.5-1.3-1.3-1.3-2.2c-0.2,1.2,0.2,2.4,0.9,3.3c0.7,0.4,1.3,0.8,1.9,1.3c-1.6-0.6-3.4-0.8-5.1-0.6c-0.2,0-0.4,0-0.6,0.2l0,0
	l0,0c-0.2,0.1-0.2,0.4-0.1,0.6c2.3-0.3,4.6,0.1,6.7,1c-2.2,0.7-4,2.2-5.2,4.2c1.2,0,2.3-0.5,3.1-1.3l1.8-1.5
	c-0.3,1.6-0.5,3.2-0.5,4.9c0.7-0.6,1.3-1.4,1.5-2.4c0.2-0.9,0.5-1.8,1-2.6c-0.1,0.9,0,1.9,0.5,2.7c0.4,0.8,1,1.6,1.6,2.3
	c0.3-0.7,0.5-1.5,0.4-2.3c0-0.5,0-1-0.2-1.5c-0.3-0.7-0.8-1.2-1.5-1.4c2.1,0.1,4.2-0.1,6.1-0.9c0.2,0,0.3-0.1,0.4-0.2
	c0.1-0.1,0.1-0.3,0-0.4c-0.1,0-0.2-0.1-0.3-0.1l-5.4,0c0.9-0.4,1.7-0.9,2.5-1.5c0.5-0.3,0.9-0.8,1.2-1.3c0.4-1,0.5-2.1,0.2-3.2
	c-0.5,0.2-1,0.5-1.3,1l-3,3.4c-0.3,0.4-0.7,0.7-1.2,0.6c1.3-1.2,2.3-2.6,3.1-4.2c0.3-0.5,0.4-1,0.4-1.6c0-0.6-0.4-1.1-0.9-1.2
	c-0.5,0-1,0.2-1.2,0.7c-0.2,0.5-0.4,0.9-0.4,1.5c-0.3,1.7-0.9,3.3-1.6,4.8c0,0.1-0.1,0.2-0.2,0.2c-0.1,0-0.2-0.1-0.2-0.2
	c0,0,0,0,0,0C1168.2,554,1167.4,551,1165.9,548.4z"/>
<linearGradient id="SVGID_2_" gradientUnits="userSpaceOnUse" x1="4681.771" y1="2858.0249" x2="4784.5669" y2="2858.0249" gradientTransform="matrix(-0.2813 0.1443 0.1583 0.3309 2261.186 -980.0627)">
	<stop  offset="0.2222" style="stop-color:#FFFFFF"/>
	<stop  offset="0.4038" style="stop-color:#EAECF6"/>
	<stop  offset="0.769" style="stop-color:#BAC2E3"/>
	<stop  offset="0.9153" style="stop-color:#A5AFDB"/>
</linearGradient>
<path class="st12" d="M1381,646.7c8.1-4.2,15.1-6.6,15.7-5.4c0.6,1.2-5.5,5.5-13.6,9.7c-8.1,4.2-14.7,6.3-15.3,5.1
	C1367.2,654.9,1372.9,650.8,1381,646.7z"/>
<path class="st13" d="M1372,640.8c-1.8,1.6-7.8,8.5-6.5,10.4s11.7-2.1,16.7-5.6c2.2-1.7,4.6-3.1,7.2-4.2c2-1.1,4-5.6-2.7-8.8
	c-2.2,2.4-4.8,4.3-7.7,5.6C1376.8,639.3,1374.4,640.1,1372,640.8z"/>
<path class="st14" d="M1372,640.8c-1,1.3,6.2,2.5,9.8,0.1c1.8-1.2,6.6-4.4,6.5-6.1c0-1.3-1.7-3.3-2.8-5.8l-0.8-2.4l0,0l0,0
	l-7.8-25.3l-11.4,3.5l9.9,31.9C1374.1,638.2,1372.5,640.1,1372,640.8z"/>
<path class="st13" d="M1389.1,644.2c-2.2,0.9-10.2,5.4-9.7,7.6s11.7,2,17.6,0.4c2.7-0.9,5.4-1.4,8.2-1.5c2.3-0.3,5.7-3.9,0.4-9.2
	c-2.8,1.5-5.9,2.4-9.1,2.7C1394,644.4,1391.5,644.4,1389.1,644.2z"/>
<path class="st14" d="M1398.2,647.7c2.1-0.5,7.7-1.9,8.2-3.5c0.1-1.8-0.1-3.5-0.5-5.2v-3.7l0,0h0v-33.8H1394v39.9
	c-1.9,1.1-4.2,2.5-4.9,3C1387.7,645.1,1394.1,648.6,1398.2,647.7z"/>
<path class="st15" d="M1180.1,626.6L1180.1,626.6v3.7c0,12.1,9.9,22,22,22h108.6c12.1,0,22-9.9,22-22V365.5c0-12.1-9.8-22-22-22
	h-108.6c-12.1,0-22,9.8-22,22L1180.1,626.6L1180.1,626.6z"/>
<circle class="st16" cx="1278" cy="358.3" r="2.1"/>
<path class="st16" d="M1232.4,355.7h36.5c1,0,1.8,0.8,1.8,1.8v1.6c0,1-0.8,1.8-1.8,1.8h-36.5c-1,0-1.8-0.8-1.8-1.8v-1.6
	C1230.6,356.5,1231.4,355.7,1232.4,355.7z"/>
<circle class="st16" cx="1256.4" cy="635.5" r="8.4"/>
<rect x="1188.3" y="371.1" class="st17" width="136.3" height="249.9"/>
<circle class="st18" cx="1310.5" cy="384.3" r="3.6"/>
<circle class="st19" cx="1298.6" cy="384.3" r="3.6"/>
<circle class="st20" cx="1286.6" cy="384.3" r="3.6"/>
<path class="st21" d="M1311.5,403.7L1311.5,403.7c2,0,3.6,1.6,3.6,3.6v0l0,0v70.9c0,2-1.6,3.6-3.6,3.6l0,0h-108.7
	c-2,0-3.6-1.6-3.6-3.6v-70.9l0,0c0-2,1.6-3.6,3.6-3.6L1311.5,403.7L1311.5,403.7L1311.5,403.7z"/>
<polygon class="st22" points="1275.1,461.9 1242.7,461.9 1245,432.6 1272.7,432.6 "/>
<path class="st22" d="M1251.4,440.8v-15.4c0-4,3.2-7.2,7.2-7.2l0,0l0,0c4,0,7.2,3.2,7.2,7.2l0,0v15.4"/>
<path class="st23" d="M1314.1,500.1V600l0,0c0,2-1.6,3.6-3.6,3.6h-106.3c-2,0-3.6-1.6-3.6-3.6l0,0v-99.8c0-2,1.6-3.6,3.6-3.6l0,0
	h106.3C1312.5,496.6,1314.1,498.1,1314.1,500.1z"/>
<polygon class="st21" points="1295.7,515.8 1300.1,516.4 1296.9,519.6 1297.7,523.9 1293.7,521.9 1289.8,523.9 1290.6,519.6 
	1287.4,516.4 1291.8,515.8 1293.7,511.8 "/>
<polygon class="st21" points="1278,515.8 1282.4,516.4 1279.2,519.6 1280,523.9 1276.1,521.9 1272.1,523.9 1272.9,519.6 
	1269.7,516.4 1274.1,515.8 1276.1,511.8 "/>
<polygon class="st21" points="1260.3,515.8 1264.7,516.4 1261.6,519.6 1262.3,523.9 1258.4,521.9 1254.4,523.9 1255.2,519.6 
	1252,516.4 1256.4,515.8 1258.4,511.8 "/>
<polygon class="st16" points="1242.6,515.8 1247,516.4 1243.9,519.6 1244.6,523.9 1240.7,521.9 1236.7,523.9 1237.5,519.6 
	1234.3,516.4 1238.7,515.8 1240.7,511.8 "/>
<polygon class="st16" points="1225,515.8 1229.4,516.4 1226.2,519.6 1226.9,523.9 1223,521.9 1219,523.9 1219.8,519.6 1216.6,516.4 
	1221,515.8 1223,511.8 "/>
<path class="st24" d="M1224.4,587L1224.4,587c-5.5,0-10-4.5-10-10l0,0l0,0v0c0-5.5,4.5-10,10-10l0,0h67.9c5.5,0,10,4.5,10,10l0,0
	l0,0c0,5.5-4.5,10-10,10l0,0L1224.4,587L1224.4,587L1224.4,587z"/>
<line class="st24" x1="1214.4" y1="539.1" x2="1302.3" y2="539.1"/>
<line class="st24" x1="1257.3" y1="553.1" x2="1302.3" y2="553.1"/>
<rect x="1435.3" y="367.3" class="st18" width="32.6" height="32.8"/>
<polygon class="st18" points="1445,394.8 1435.3,406.3 1435.3,394.8 "/>
<path class="st16" d="M1444.5,385.2l4,4.1l0,0c1.6,1.7,4.3,1.7,5.9,0.1l0,0l4.1-4l0,0c1.7-1.6,1.7-4.3,0.1-6c-1.6-1.7-4.3-1.7-6-0.1
	c0,0,0,0,0,0l0,0l-1.1,1.1l-1.1-1.1l0,0c-1.6-1.7-4.3-1.7-6-0.1C1442.9,380.8,1442.8,383.5,1444.5,385.2
	C1444.4,385.2,1444.5,385.2,1444.5,385.2z"/>
<circle class="st25" cx="1123.7" cy="504.2" r="25.4"/>
<path class="st26" d="M1128.2,501.8c-3.2-1.8-5.1-5.2-5-8.8c0.3-1,0.1-2-0.6-2.8c-1-0.4-2.1,0.1-2.6,1.1c-1.2,2.7-1.5,5.7-0.8,8.5
	c-1.8,0-3.7,0-5.5,0c-0.5,0-1.1,0.1-1.6,0.3c-0.7,0.5-1.1,1.3-0.9,2.1c0.2,0.8,0.6,1.5,1.3,2.1c-1.2,0.8-0.6,3.2,0.9,2.8l0,0
	c-0.7,0.3-1,1.1-0.7,1.8c0.3,0.7,0.9,1.2,1.6,1.4c-1.6,0.6-0.4,2.7,0.8,2.8c4,0.3,8.5,0.2,12.9,0.1
	C1128,509.3,1128.2,501.8,1128.2,501.8z"/>
<rect x="1129.6" y="501.8" class="st26" width="6.6" height="11.4"/>
<ellipse class="st23" cx="1472.5" cy="468.3" rx="6.1" ry="6.1"/>
<ellipse class="st23" cx="1114.8" cy="571.1" rx="4.4" ry="4.4"/>
<rect x="1110.5" y="381.8" class="st23" width="9.2" height="9.2"/>
<path class="st23" d="M1170.5,318.8v14c0,1.2-1,2.3-2.2,2.3l-6.2,0.1v9l-8.4-9.4h-10c-1.3,0-2.3-1-2.3-2.3v-13.8
	c0-1.3,1-2.3,2.3-2.3h24.6C1169.5,316.5,1170.5,317.6,1170.5,318.8z"/>
<path class="st21" d="M1159.7,414.4v21.9c0,1.5-1.2,2.7-2.7,2.7l0,0h-88.1c-1.5,0-2.7-1.2-2.7-2.7l0,0v-21.9l0,0
	c0-1.5,1.2-2.7,2.7-2.7l0,0h88.1C1158.5,411.7,1159.7,412.9,1159.7,414.4L1159.7,414.4L1159.7,414.4z"/>
<line class="st24" x1="1097.7" y1="422" x2="1149.4" y2="422"/>
<line class="st24" x1="1135.9" y1="428.6" x2="1149.4" y2="428.6"/>
<polygon class="st21" points="1136,435.9 1149.4,448.4 1149.4,435.9 "/>
<path class="st27" d="M1373.3,451.9l21.1-7.3l11.8,13c7.4-1.8,14.3-16.7,8.1-25.8c-3.8-5.6-5.9-12.2-6.1-19l-17.4-11.2l-3.6,4.5l0,0
	l-9.7,9.1c0,0-4.9,5.4-9.2,10.8C1360.1,436.1,1369.5,448.1,1373.3,451.9z"/>
<path class="st28" d="M1350.7,448.1l38.2-8.2c3.8-1.1,7.8,0.8,9.5,4.4c2.3,4.9-5.5,12.7-10.8,13.5l-37,4.1c-0.6,0.1-1.3,0.2-1.9,0.1
	L1350.7,448.1z"/>
<path class="st28" d="M1357.7,457.1L1357.7,457.1c-2,6-11,6.3-15.8,2.1l-27.4-27.1l4.6-5.9l33.2,22.7
	C1356.3,450.8,1359.1,452.9,1357.7,457.1z"/>
<circle class="st28" cx="1312.1" cy="425.8" r="7.5"/>
<path class="st28" d="M1312.4,421.9l-6.1-6.4c-0.4-0.4-0.4-1.1,0-1.5l0,0c0.5-0.5,1.3-0.6,1.8-0.1l6.5,4.8L1312.4,421.9z"/>
<path class="st29" d="M1373.6,459.3l-7.6,1.9l-7-15.7c5.2-3,10.9-5,16.9-5.9L1373.6,459.3z"/>
<polygon class="st30" points="1366,461.3 1363.4,455.4 1370.2,449.3 1369.3,460.4 "/>
<path class="st31" d="M1432.4,559.5l2.9-27.8c0-0.1,0-0.2,0-0.3c0.1-2.1,1.9-3.6,3.9-3.5l0,0c1.7,0.1,3.1,1.3,3.4,2.9l0.9,28.4"/>
<polygon class="st18" points="1467.5,605.6 1431.1,608 1426,556.1 1455.9,557.6 "/>
<polygon class="st32" points="1426,556.1 1422.4,556.6 1419.1,605.1 1425,604.2 1431.1,608 "/>
<circle class="st31" cx="1449.3" cy="561.5" r="1.2"/>
<circle class="st31" cx="1435.8" cy="561.4" r="1.2"/>
<path class="st31" d="M1435.9,560.3l-0.7-28.6c0-0.1,0-0.2,0-0.3c0.1-2.1,1.9-3.6,3.9-3.5l0,0c1.7,0.1,3.1,1.3,3.4,2.9l6.8,29.6"/>
<path class="st28" d="M1420,486l-23.4-31.3c-2.6-3-2.6-7.4,0-10.4c3.5-4.1,13.8-0.3,16.8,4.2l19.2,31.9c0.4,0.5,0.7,1.1,0.9,1.7
	L1420,486z"/>
<path class="st28" d="M1420.9,477L1420.9,477c5.3-3.5,12.5,1.8,13.8,8l7,39.2l-6.3,1.2l-15.3-38.7
	C1418.2,482.8,1417.3,479.5,1420.9,477z"/>
<path class="st29" d="M1395.5,442.9c-5.7,12,9.7,25.7,9.7,25.7l16-12.8c-3.7-6.8-9.7-12.1-16.8-15.1L1395.5,442.9z"/>
<circle class="st28" cx="1438.2" cy="526" r="7.7"/>
<path class="st33" d="M1345.3,560.2l14.7,60.9c11.2-2.2,17-3.3,26.9-5.5c0.4,2.1,0.6,3.2,0.6,3.2c9.2,0,18.6-0.2,28.8-0.2
	c-7.3-46.1-4.7-86.7-4.7-108.2c0-19.3-6.3-23.2-6.3-23.2l0-0.4l-32.5,0.3l-0.6,0l0,0l-0.2,0l-6.2,15.9l-19.9,49
	C1344.7,554.6,1344.6,557.5,1345.3,560.2z M1373.6,556.1l9.5-28.1c-0.1,5.4-0.4,11.8-1.3,19.2c-1.7,14.7,0.3,35.5,2.4,51
	L1373.6,556.1z"/>
<path class="st29" d="M1410.2,445.6L1410.2,445.6c1.3,2.8,1.6,6,1.1,9l-6,32.6h-33.4l-3.7-37.1c-0.6-5,2.8-9.5,7.8-10.4l11.5-1.8
	l15.9,2.5C1406.4,440.9,1408.9,442.8,1410.2,445.6z"/>
<polygon class="st30" points="1405.2,487.2 1402.3,462.1 1408.3,470.5 "/>
<path class="st29" d="M1374.8,469.9c0,0-8.9-4.2-9.2-10.7s7.3-12.5,7.3-12.5L1374.8,469.9z"/>
<path class="st28" d="M1387.4,437.9l-7.5,1.1c0,0-0.8,5.9,7.3,5.9c9.7,0,11.9-5.3,11.9-5.3l-4.5-0.6L1387.4,437.9z"/>
<path class="st33" d="M1376,548.8c-2.1-12.5,0.6-25.2,7.5-35.8l-0.3,14.7L1376,548.8z"/>
<path class="st27" d="M1391.3,392.5L1391.3,392.5c9.9,0.5,17.5,9,17,18.9c-0.5,9.9-9,17.5-18.9,17c-9.8-0.7-17.3-9-17-18.9
	C1372.4,398.3,1381.4,392,1391.3,392.5z"/>
<path class="st28" d="M1389.2,443.8L1389.2,443.8c-3,0-5.5-2.4-5.5-5.5l-0.1-15.4l11,0l0.1,15.4
	C1394.7,441.3,1392.2,443.8,1389.2,443.8z"/>
<path class="st27" d="M1383.6,427.1l0,6.8c10.2,0.2,12.7-13,12.7-13L1383.6,427.1z"/>
<path class="st34" d="M1398.8,418.2l0.6-11.8c0.1-3-2.2-5.6-5.2-5.7l-10.9-3.7c-3-0.2-8.8,4.9-9.1,10l-0.6,11.9
	c-0.4,6.9,5.1,11.3,12,11.7l0,0C1392.5,430.3,1398.1,425.1,1398.8,418.2z"/>
<circle class="st35" cx="1386.6" cy="414.1" r="1"/>
<circle class="st35" cx="1377.5" cy="413.6" r="1"/>
<path class="st28" d="M1382.2,419.1c-2.2,0.5-2.3-1-2.3-1l1.3-2.1"/>
<path class="st35" d="M1390.3,410.5c0-0.5-0.3-0.9-0.8-1l0,0l-4.5-0.4h0c-0.5,0-0.9,0.3-1,0.8s0.3,0.9,0.8,1l0,0l4.5,0.4
	c0.1,0,0.1,0,0.2,0C1389.9,411.3,1390.2,411,1390.3,410.5z"/>
<path class="st35" d="M1379.4,409.7c0-0.5-0.3-0.9-0.8-1l-2.7-0.3l0,0c-0.5,0-0.9,0.3-1,0.8c0,0.5,0.3,0.9,0.8,1l2.7,0.3
	c0.1,0,0.1,0,0.2,0C1379.1,410.5,1379.4,410.2,1379.4,409.7z"/>
<path class="st36" d="M1382,424.1c-2.7-0.2-3.8-3.5-3.8-3.5l7.9,1.1C1385.6,423.4,1383.8,424.5,1382,424.1z"/>
<path class="st27" d="M1383.4,396.4c4.9-2.3,10.7-1.4,14.6,2.2c7.7,6.2,4.9,16.1,4.9,16.1c-9-3-17.2-8.3-23.6-15.3L1383.4,396.4z"/>
<path class="st27" d="M1383.2,396.7c-7.5,1.2-9.2,9.8-9.2,9.8c3.1-2.1,5.8-4.7,8-7.7L1383.2,396.7z"/>
<path class="st27" d="M1398.5,410.2l-1.6,8.2c-4.3-1-2.4-9.7-2.4-9.7L1398.5,410.2z"/>
<circle class="st34" cx="1399.9" cy="416.5" r="4.5"/>
<linearGradient id="SVGID_3_" gradientUnits="userSpaceOnUse" x1="3741.8923" y1="4220.9712" x2="3844.6914" y2="4220.9712" gradientTransform="matrix(-0.3175 1.227000e-002 1.410000e-002 0.3667 2541.0515 -937.8494)">
	<stop  offset="0.2222" style="stop-color:#FFFFFF"/>
	<stop  offset="0.4038" style="stop-color:#EAECF6"/>
	<stop  offset="0.769" style="stop-color:#BAC2E3"/>
	<stop  offset="0.9153" style="stop-color:#A5AFDB"/>
</linearGradient>
<path class="st37" d="M1395.9,654.1c9.1-0.4,16.6,0.4,16.7,1.8c0,1.3-7.3,2.7-16.5,3c-9.1,0.4-16.1-0.5-16.2-1.8
	C1379.9,655.8,1386.8,654.5,1395.9,654.1z"/>
<text transform="matrix(1 0 0 1 328.6334 380.9698)" class="st38 st39 st40">kwcs Kiyb †kqvi Kiyb</text>
<text transform="matrix(1 0 0 1 330.0856 463.4816)" class="st29 st41 st42">AbjvBb</text>
<text transform="matrix(1 0 0 1 394.5006 463.4816)" class="st29 st41 st42"> </text>
<text transform="matrix(1 0 0 1 400.4039 463.4816)" class="st29 st41 st42">†_‡K</text>
<text transform="matrix(1 0 0 1 439.7867 463.4816)" class="st29 st41 st42"> </text>
<text transform="matrix(1 0 0 1 445.691 463.4816)" class="st29 st41 st42">†cÖvWv±</text>
<text transform="matrix(1 0 0 1 498.5367 463.4816)" class="st29 st41 st42"> </text>
<text transform="matrix(1 0 0 1 504.4401 463.4816)" class="st29 st41 st42">wKbyb</text>
<text transform="matrix(1 0 0 1 544.2076 463.4816)" class="st29 st41 st42"> </text>
<text transform="matrix(1 0 0 1 550.111 463.4816)" class="st29 st41 st42">Ges</text>
<text transform="matrix(1 0 0 1 581.9098 463.4816)" class="st29 st41 st42"> </text>
<text transform="matrix(1 0 0 1 587.8131 463.4816)" class="st29 st41 st42">Zv</text>
<text transform="matrix(1 0 0 1 606.3405 463.4816)" class="st29 st41 st42"> </text>
<text transform="matrix(1 0 0 1 612.2448 463.4816)" class="st29 st41 st42">†kqvi</text>
<text transform="matrix(1 0 0 1 657.8678 463.4816)" class="st29 st41 st42"> </text>
<text transform="matrix(1 0 0 1 663.7711 463.4816)" class="st29 st41 st42">Kiæb</text>
<text transform="matrix(1 0 0 1 703.3229 463.4816)" class="st29 st41 st42"> </text>
<text transform="matrix(1 0 0 1 709.2262 463.4816)" class="st33 st41 st42">eoevRvi</text>
<text transform="matrix(1 0 0 1 777.3365 463.4816)" class="st29 st41 st42"> </text>
<text transform="matrix(1 0 0 1 783.2399 463.4816)" class="st29 st41 st42">eøM </text>
<text transform="matrix(1 0 0 1 330.0856 492.2824)" class="st29 st41 st42">A_ev</text>
<text transform="matrix(1 0 0 1 371.4606 492.2824)" class="st29 st41 st42 st43"> </text>
<text transform="matrix(1 0 0 1 379.9713 492.2824)" class="st29 st41 st42">†dmeyK</text>
<text transform="matrix(1 0 0 1 437.7379 492.2824)" class="st29 st41 st42 st43"> </text>
<text transform="matrix(1 0 0 1 446.2477 492.2824)" class="st29 st41 st42">†c‡R|</text>
<text transform="matrix(1 0 0 1 498.6627 492.2824)" class="st29 st41 st42 st43"> </text>
<text transform="matrix(1 0 0 1 507.1735 492.2824)" class="st29 st41 st42">Avcbvi</text>
<text transform="matrix(1 0 0 1 565.2047 492.2824)" class="st29 st41 st42 st43"> </text>
<text transform="matrix(1 0 0 1 573.7155 492.2824)" class="st29 st41 st42">cQ‡›`i</text>
<text transform="matrix(1 0 0 1 630.5465 492.2824)" class="st29 st41 st42 st43"> </text>
<text transform="matrix(1 0 0 1 639.0563 492.2824)" class="st29 st41 st42">cY¨</text>
<text transform="matrix(1 0 0 1 668.4801 492.2824)" class="st29 st41 st42 st43"> </text>
<text transform="matrix(1 0 0 1 676.9908 492.2824)" class="st29 st41 st42">†Kgb</text>
<text transform="matrix(1 0 0 1 719.9264 492.2824)" class="st29 st41 st42 st43"> </text>
<text transform="matrix(1 0 0 1 728.4371 492.2824)" class="st29 st41 st42">nB‡Q</text>
<text transform="matrix(1 0 0 1 768.2047 492.2824)" class="st29 st41 st42 st43"> </text>
<text transform="matrix(1 0 0 1 776.7145 492.2824)" class="st29 st41 st42">Zvi </text>
<text transform="matrix(1 0 0 1 330.0856 521.0822)" class="st29 st41 st42">jvBK, K‡g›U †c‡q †g‡Z _vKzb AbjvBb †mvm¨vj we‡bv`‡b|</text>
</svg>
