<?xml version="1.0" encoding="utf-8"?>
<!-- Generator: Adobe Illustrator 19.0.0, SVG Export Plug-In . SVG Version: 6.00 Build 0)  -->
<svg version="1.1" id="Layer_1" xmlns="http://www.w3.org/2000/svg" xmlns:xlink="http://www.w3.org/1999/xlink" x="0px" y="0px"
	 viewBox="294 122 1200 550" style="enable-background:new 294 122 1200 550;" xml:space="preserve">
<style type="text/css">
	.st0{fill:url(#SVGID_1_);}
	.st1{fill:url(#SVGID_2_);}
	.st2{fill:#363A93;}
	.st3{fill:#F9BFAF;}
	.st4{fill:url(#SVGID_3_);}
	.st5{fill:#339947;}
	.st6{fill:url(#SVGID_4_);}
	.st7{fill:#F5BD68;}
	.st8{fill:#98B35E;}
	.st9{opacity:0.35;fill:#333333;enable-background:new    ;}
	.st10{fill:#F3F3F4;}
	.st11{opacity:0.35;fill:#617BBB;enable-background:new    ;}
	.st12{fill:#617BBB;}
	.st13{fill:#FFFFFF;}
	.st14{opacity:0.85;}
	.st15{fill:#F9D0B4;}
	.st16{fill:none;stroke:#A39C9F;stroke-width:1.0094;stroke-miterlimit:10;}
	.st17{fill:#363B92;}
	.st18{fill:#2C368B;}
	.st19{fill:#6DBF71;}
	.st20{opacity:0.95;fill:#93CD96;enable-background:new    ;}
	.st21{opacity:0.25;fill:none;stroke:#EB654B;stroke-width:1.305;stroke-miterlimit:10;enable-background:new    ;}
	.st22{opacity:0.25;}
	.st23{fill:#EB654B;}
	.st24{fill:#4650A1;}
	.st25{fill:#3B4599;}
	.st26{fill:#F3837E;}
	.st27{opacity:0.5;fill:#EB654B;enable-background:new    ;}
	.st28{fill:#CED1E2;}
	.st29{fill:#E9E9E9;}
	.st30{fill:#81441D;}
	.st31{fill:#FCDFBB;}
	.st32{fill:#303030;}
	.st33{fill:#EFC4A3;}
	.st34{fill:#FFFFF3;}
	.st35{fill:#29235C;}
	.st36{fill:#339933;}
	.st37{font-family:'KongshoMJ';}
	.st38{font-size:70px;}
	.st39{font-family:'SutonnyMJ';}
	.st40{font-size:24px;}
</style>
<title>wc-bg</title>
<linearGradient id="SVGID_1_" gradientUnits="userSpaceOnUse" x1="294" y1="607" x2="1494" y2="607" gradientTransform="matrix(1 0 0 1 0 -210)">
	<stop  offset="0" style="stop-color:#239400;stop-opacity:0.1"/>
	<stop  offset="1" style="stop-color:#2300BF;stop-opacity:0.1"/>
</linearGradient>
<rect x="294" y="122" class="st0" width="1200" height="550"/>
<linearGradient id="SVGID_2_" gradientUnits="userSpaceOnUse" x1="-9347.4248" y1="2548.5317" x2="-9234.542" y2="2548.5317" gradientTransform="matrix(0.2789 -1.663000e-002 2.192000e-002 0.3663 3085.3093 -448.8019)">
	<stop  offset="0.2222" style="stop-color:#FFFFFF"/>
	<stop  offset="0.4038" style="stop-color:#EBEDF7"/>
	<stop  offset="0.769" style="stop-color:#BCC3E2"/>
	<stop  offset="0.9153" style="stop-color:#A7B0D9"/>
</linearGradient>
<path class="st1" d="M550,636.6c-8.8,0.5-15.9,2.1-15.8,3.6c0.1,1.5,7.3,2.2,16.1,1.7c8.8-0.5,15.4-2.1,15.3-3.6
	C565.6,636.8,558.8,636.1,550,636.6z"/>
<path class="st2" d="M546,627.9c-2.9,0.5-5.9,0.5-8.8-0.2c-3.4,6,0.5,8.3,2.6,8.1c2.5-0.5,5.1-0.8,7.7-0.6c5.6,0,15.7-2.6,15.6-4.7
	c-0.1-2.1-8.3-4.1-10.5-4.4C550.5,626.9,548.3,627.5,546,627.9z"/>
<path class="st3" d="M536.3,625.4c0.1,0.4,0.1,0.7,0.1,1c0,0.7,0.1,1.4,0.2,2.1c0,0.6,0.2,1.3,0.5,1.8c0.9,1.3,6.2,1.2,8.2,1.1
	c4-0.1,8.7-4.9,7.3-5.3c-0.9-0.3-3.7-1-5.8-1.6l0,0l-7.8-27l-9.6,2.8l5.6,19.3C535.5,621.5,536,623.4,536.3,625.4z"/>
<linearGradient id="SVGID_3_" gradientUnits="userSpaceOnUse" x1="9533.8047" y1="-797.8309" x2="9646.6865" y2="-797.8309" gradientTransform="matrix(-0.2495 0.1371 0.1766 0.3217 3134.4333 -462.1533)">
	<stop  offset="0.2222" style="stop-color:#FFFFFF"/>
	<stop  offset="0.4038" style="stop-color:#EBEDF7"/>
	<stop  offset="0.769" style="stop-color:#BCC3E2"/>
	<stop  offset="0.9153" style="stop-color:#A7B0D9"/>
</linearGradient>
<path class="st4" d="M598.9,593.5c7.9-4.3,14.9-6.8,15.6-5.5c0.7,1.3-5.1,5.8-13,10.2c-7.9,4.3-14.5,6.6-15.2,5.3
	C585.6,602.2,591,597.9,598.9,593.5z"/>
<path class="st2" d="M589,588.9c-2,2.2-4.5,3.9-7.2,5.1c0.8,6.9,5.4,6.4,6.9,4.9c1.7-1.9,3.7-3.6,5.8-5.1c4.5-3.3,11.1-11.4,9.8-13
	s-9.1,1.6-11.1,2.7C592,585.4,590.6,587.2,589,588.9z"/>
<path class="st3" d="M577.6,589.3L577.6,589.3L577.6,589.3l2.3,2.1c0.4,0.6,0.9,1.2,1.4,1.8c0.4,1.1,1,2.1,2,2.8
	c1.5,0.5,5.7-2.7,7.3-3.9c3.1-2.5,4.1-9.1,2.7-8.6c-0.8,0.3-3.1,1.2-5.1,1.9l0,0l-24.8-22.7l-6.8,7.4L577.6,589.3z"/>
<path class="st5" d="M425.7,531.3l6.8,37.1l74.9-13l1.2-0.3l18,60.3l22.7-7.5l-7-26.7c-4.6-18.4-9.8-36.5-15.7-54.5
	c-2.6-4.7-7.5-7.7-12.8-8.2l-40,1.9c-8.4,0.9-16.7,2.5-24.9,4.8L425.7,531.3z"/>
<path class="st5" d="M404.6,542.1c4.1,8.8,10.1,16.7,17.5,23.1c2.1,1.7,4.9,2.4,7.5,2c11-1.9,22-3.8,26-6.5l36.6-14.3
	c5.6-2.7,10.4-2.7,14-0.9l35,23.5l27.2,22l13.6-21.2l-41.3-39c-6.3-6.5-13-12.6-20.1-18.2c-4.1-3.1-9.1-4.6-14.3-4.3l-0.2,0
	c-2.8,0.2-5.7,0.6-8.4,1.3C463.2,517.1,431,527,404.6,542.1z"/>
<linearGradient id="SVGID_4_" gradientUnits="userSpaceOnUse" x1="-10123.6543" y1="3333.5796" x2="-9780.7979" y2="3333.5796" gradientTransform="matrix(-0.202 9.560000e-003 1.725000e-002 0.3666 -1716.0927 -477.3515)">
	<stop  offset="0.2222" style="stop-color:#FFFFFF"/>
	<stop  offset="0.4038" style="stop-color:#EBEDF7"/>
	<stop  offset="0.769" style="stop-color:#BCC3E2"/>
	<stop  offset="0.9153" style="stop-color:#A7B0D9"/>
</linearGradient>
<path class="st6" d="M317,651c0.2,4.4,15.1,7.4,34.5,6.5c19.4-0.9,35-5.2,34.8-9.6c-0.2-4.4-16.1-7.2-35.5-6.3
	C331.3,642.4,316.8,646.6,317,651z"/>
<polygon class="st7" points="533.7,329.8 533.7,289.6 574.6,289.6 574.6,281.4 582.5,289.3 587.5,289.3 587.5,330 "/>
<polygon class="st8" points="513.6,314.4 513.6,366.9 460.2,366.9 460.2,377.6 449.9,367.3 443.4,367.3 443.4,314.2 "/>
<path class="st9" d="M484.3,339.6l-2.2,20.9l-23.3-0.6l4.1-20.9l-9.5,0.8l0-9.9l15-2.4c0.7,4.5,2.3,6.8,4.9,6.8
	c1.7,0,7.8-5.2,7.8-5.2l12.5,1.8L484.3,339.6z"/>
<path class="st10" d="M496,338.3l-8.5-1.6l-2.2,20.9l-23.3-0.6L466,336l-9.5,0.8l0-9.9l15-2.4c0.7,4.5,2.3,6.8,4.9,6.8
	c1.7,0,3.8-2.4,6-5.5l14.3,2.1L496,338.3z"/>
<polygon class="st11" points="470,359.2 470,413.7 525.4,413.7 525.4,424.9 536.1,414.1 542.9,359 "/>
<polygon class="st12" points="476.2,353.5 476.2,408 531.5,408 531.5,419.1 542.3,408.3 549,408.3 549,353.3 "/>
<path class="st13" d="M522.9,371.2h-28.4l5.1,15.3l20.7,0.4l5.9-19.6l7.6-0.2l0.1-2l-9.2-0.2L522.9,371.2L522.9,371.2z M496.9,372.7
	l25.8,0.7l-3.6,11.6h-18.4L496.9,372.7z"/>
<path class="st13" d="M511.7,393.2L511.7,393.2c0,2.3,1.8,4.1,4.1,4.1c2.3,0,4.1-1.8,4.1-4.1c0-2.3-1.8-4.1-4.1-4.1l0,0
	C513.5,389.1,511.7,390.9,511.7,393.2z M515.8,395.4L515.8,395.4c-1.2,0-2.2-1-2.2-2.2l0,0l0,0c0-1.2,1-2.2,2.2-2.2s2.2,1,2.2,2.2
	C517.9,394.4,517,395.4,515.8,395.4L515.8,395.4L515.8,395.4z"/>
<path class="st13" d="M500,393.2L500,393.2c0,2.3,1.8,4.1,4.1,4.1c2.3,0,4.1-1.8,4.1-4.1c0-2.3-1.8-4.1-4.1-4.1l0,0
	C501.8,389,500,390.9,500,393.2z M504.1,395.3L504.1,395.3c-1.2,0-2.2-1-2.2-2.2v0l0,0c0-1.2,1-2.2,2.2-2.2s2.2,1,2.2,2.2
	C506.3,394.4,505.3,395.3,504.1,395.3L504.1,395.3L504.1,395.3L504.1,395.3z"/>
<g class="st14">
	<path class="st15" d="M511.4,499.6c-1,0.5-2.2,0.6-3.3,0.1c-2.1-0.9-4.1-2-6.1-3.2c-1.2-0.7-2.7-0.6-3.6,0.4
		c-3,3.3-6.3,6.3-9.9,8.9c-0.6,0.4-1.4,0.7-2.1,0.9l-27.3,5.9c-0.5,0.1-1,0.2-1.4,0.2c-1.1,0.1-2.2,0-3.2-0.2
		c-1.9-0.3-3.7-1.2-5.2-2.5l-30.3-25.4l8-15.8l11.5,16.4c1.4,2,3.2,3.7,5.3,5c10.5,6.2,23.1,9.1,37.9,8.2c1-0.1,2-0.4,2.8-0.9
		c4.8-3.1,10-5.7,15.3-7.6c0.8-0.3,1.6-0.2,2.3,0.2c4.1,2.4,7.8,5.3,11.1,8.6L511.4,499.6z"/>
</g>
<path class="st2" d="M448.4,515.5c2.1-1,3-3.5,2.1-5.6c-0.1-0.1-0.1-0.3-0.2-0.4c-14.5-24.2-27-49.4-37.4-75.6l-24.7-10.1
	c-20.5,38.8-11.7,76.4,13.1,113.5L448.4,515.5z"/>
<path class="st16" d="M386.9,373.3"/>
<polygon class="st15" points="388.2,423.8 391.8,416.1 409.9,423.9 412.9,433.9 "/>
<path class="st15" d="M406.7,477.3l20.2-8.4l16.3,24l0,0.1c0.5,0.7,1.5,0.8,2.2,0.3c10.3-7.8,20.1-13.9,27.1-26.5
	c0.6-1,0.7-2.2,0.4-3.3c-0.6-1.8-1.4-3.5-2.4-5.2c-0.3-0.5-0.1-1.2,0.4-1.4c0.1-0.1,0.3-0.1,0.4-0.1c0.1,0,0.2,0,0.3,0
	c1,0,2,0.4,2.8,1.1c2.2,1.9,3.3,5.1,4.2,8.7c1.1-0.9,2.3-1.5,3.7-1.8c1.5-0.2,3,0.6,3.7,2c1.7,3.5,0.7,8.8-2.2,14.1
	c-0.4,0.8-1.2,1.3-2.1,1.5c-1.7,0.3-4.3,0.5-7,0.8c-1.1,0.1-2,0.7-2.5,1.7c-6.2,10.6-13.5,20.5-21.9,29.4c-3,3.1-7.6,3.9-11.5,2.1
	c-8.8-4.1-19-16.1-26.7-29.9L406.7,477.3z"/>
<path class="st17" d="M418.5,444.2c-2-4.1-4.8-7.7-8.3-10.6c-1.7-1.4-3.8-2.3-6-2.6c-3.3-0.5-6.5,1.3-7.8,4.3
	c-0.7,1.5-1.1,3.1-1.1,4.8c-0.5,15,6.5,31,14.9,47.2c8.9,0,17.4-3.1,24.3-8.6C430,466.8,424.7,455.3,418.5,444.2z"/>
<path class="st18" d="M383.3,593.5c0.2,0.1,0.4,0.2,0.5,0.3c0.2,0.3,0.2,0.6,0.2,0.9l-0.3,5c0,0.2,0,0.4-0.1,0.5
	c-0.1,0.1-0.3,0.2-0.4,0.2c-2,0.7-4,1.2-6.1,1.6c-1.8,0.5-3.7,0.5-5.5-0.1c-0.8-0.2-1.4-0.9-1.5-1.7c0.1-0.5,0.3-1.1,0.6-1.5
	c0.3-0.5,0.4-1,0.4-1.5c0-0.9,0-1.8-0.1-2.8c0-1.1-0.2-2.3-0.7-3.3C374.8,591,379.2,591.8,383.3,593.5z"/>
<path class="st19" d="M352.2,527.5c-3.1,0-5.9,1.3-8.9,1.1c-1.1-0.1-2.2-0.1-3.3,0c-4.6,0.7-8.9,2.8-12.3,6
	c-3.6,2.8-6.5,6.5-8.4,10.7c-1.1,3-1.8,6.2-2.1,9.5c-0.1,1.4-0.2,2.9-0.2,4.3c0,8.5,3.3,16.5,6.5,24.3l6.6,15.5
	c0.7,2.4,3.2,3.9,5.6,3.4c11,0.6,22,0.1,32.9-1.4c0.4,0,0.8-0.1,1.1-0.4c0.3-0.3,0.5-0.7,0.6-1.1c1.3-4.1,1.4-8.3,2.3-12.5
	c0.9-4.1,3.2-7.6,4.5-11.6c4.5-13.5,0.6-28.8-8.3-39.6C364.9,530.7,358.8,527.6,352.2,527.5z"/>
<path class="st20" d="M335.2,535.6c-2,1.8-4.7,2.9-6.2,5.1c-0.6,0.9-1,1.9-1.3,3c-1.4,5.6-1,11.5,1.1,16.9
	c2.1,5.4,4.7,10.5,7.9,15.3c1.9,3.3,4.2,6.5,6.6,9.5c1.5,1.7,3.1,3.2,4.6,4.9c3.6,4.2,6,9.2,7.1,14.5c4,0.1,8,0.1,12,0
	c1.1,0.2,2.1-0.5,2.3-1.6c0-0.1,0-0.3,0-0.4c1-4.7,1.9-9.4,2.5-14.2c0.1-1.8,0.5-3.7,1.1-5.4c0.9-1.9,2-3.8,3.1-5.6
	c3.6-6.4,3.4-14.2,3.2-21.5c0.3-3.9-1-7.7-3.5-10.7l-4.9-6.9c-1.4-2.2-3.1-4.2-5-6.1c-4.4-3.5-9.9-5.3-15.4-5.1
	c-3.2-0.2-6.4,0.4-9.3,1.8C338.6,530.6,337.3,533.7,335.2,535.6z"/>
<path class="st21" d="M331,545.9c-0.5,2.2-0.8,4.5-0.8,6.8c-0.1,12.2,4.9,23.9,9.4,35.3c1,2.3,1.7,4.7,2.3,7.1
	c0.6,3.3,0.8,6.6,0.7,10c4.4-0.4,8.9-0.5,13.4-0.2l0.8-9.3c1.2-13.3,2.4-26.6,1.1-39.9c-0.3-5.3-1.7-10.5-3.9-15.3
	c-2-4-5.2-7.3-9.2-9.2c-0.8-0.6-1.9-0.8-2.8-0.4c-1,0.7-1.8,1.5-2.6,2.5c-1.7,1.7-3.3,3.6-4.7,5.5C333,540.8,331.8,543.3,331,545.9z
	"/>
<g class="st22">
	<path class="st23" d="M354.8,528.1c0.9,0.7,1.8,1.5,2.7,2.3c1.6,1.5,3.8,3.9,6.4,6.6c1.5,1.5,2.8,3.1,3.9,4.8
		c1.3,1.9,2.3,4.1,3,6.3c0.8,2.4,1.2,4.9,1.3,7.4c0.1,2.6-0.1,5.1-0.6,7.7c-0.4,2.5-0.9,5-1.4,7.5l-1.6,7.2
		c-0.5,2.4-1.1,4.6-1.7,6.7c-0.6,2.1-1.1,4.1-1.5,6c-0.4,1.7-0.5,3.4-0.6,5.1c0,1.3,0.1,2.7,0.2,4l0.4,3.5c0,0-0.3-1.2-0.7-3.4
		c-0.2-1.3-0.4-2.7-0.5-4c-0.1-1.8,0-3.5,0.3-5.2c0.3-1.9,0.8-3.9,1.3-6l1.5-6.7c0.5-2.3,1-4.7,1.5-7.2c0.6-2.4,0.9-4.9,1.4-7.4
		c0.5-2.4,0.7-4.9,0.7-7.4c-0.1-2.4-0.5-4.8-1.2-7.1c-0.7-2.1-1.6-4.2-2.8-6.1c-1.1-1.7-2.3-3.3-3.7-4.8c-2.6-2.8-4.5-5.3-6-6.9
		C355.8,528.9,354.8,528.1,354.8,528.1z"/>
</g>
<g class="st14">
	<path class="st23" d="M335.2,543.2c0.1,0.1,0.1,0.1,0.2,0.2c0.2,0.1,0.3,0.2,0.5,0.2c0.4,0.1,1,0.1,1.7,0.3
		c0.6,0.2,1.2,0.4,1.7,0.8c0.3,0.2,0.5,0.4,0.7,0.6c-0.3,0.1-0.6,0.1-0.9,0.1c-0.6,0-1.2-0.1-1.8-0.2c-0.3-0.1-0.6-0.2-0.9-0.3
		c-0.3-0.1-0.6-0.3-0.8-0.6c-0.2-0.2-0.3-0.4-0.3-0.7C335.1,543.3,335.2,543.3,335.2,543.2z"/>
	<path class="st23" d="M339.5,551.7c0.3-0.1,0.7-0.2,1-0.2c1.5-0.1,2.9,0.3,4.2,1.1c0.3,0.2,0.6,0.4,0.8,0.7c-0.3,0-0.7,0-1,0
		c-0.7-0.1-1.4-0.2-2.1-0.4c-0.7-0.2-1.3-0.4-2-0.8C340.1,552.1,339.8,551.9,339.5,551.7z"/>
	<path class="st23" d="M344.7,564.5c-0.1,0.3-0.2,0.6-0.3,0.9c-0.6,1.3-1.5,2.3-2.6,3.1c-0.3,0.2-0.6,0.3-0.9,0.5
		c0.1-0.3,0.2-0.6,0.3-1c0.6-1.3,1.5-2.3,2.6-3.1C344.1,564.8,344.4,564.6,344.7,564.5z"/>
	<path class="st23" d="M349.5,579.4c0,0.2,0,0.5-0.1,0.7c-0.3,0.9-0.9,1.7-1.7,2.2c0,0.2-0.3,0.4-0.5,0.4s-0.4-0.3-0.4-0.5
		c0-0.1,0.1-0.3,0.3-0.3c0.3-0.9,0.9-1.7,1.7-2.2C349,579.6,349.3,579.5,349.5,579.4z"/>
	<path class="st23" d="M360.4,584.7c0.3-0.1,0.5-0.1,0.8-0.2c1.1-0.1,2.3,0.2,3.2,0.9c0.2-0.1,0.5,0,0.6,0.3c0.1,0.2,0,0.5-0.3,0.6
		c-0.2,0.1-0.4,0-0.6-0.1c-1.1,0.1-2.3-0.2-3.2-0.9C360.8,585.1,360.6,584.9,360.4,584.7z"/>
	<path class="st23" d="M360.5,565.8c0.2-0.2,0.4-0.3,0.7-0.4c1-0.4,2.1-0.4,3.1,0.1c0.2,0.1,0.5,0.3,0.6,0.5
		c-0.2,0.1-0.5,0.2-0.7,0.3c-1,0.3-2,0.2-3-0.1C361,566.1,360.7,566,360.5,565.8z"/>
	<path class="st23" d="M360,549.4c-0.1-0.1-0.1-0.1-0.2-0.2c-0.1-0.3,0-0.6,0.2-0.8c0.2-0.3,0.5-0.5,0.8-0.7
		c0.3-0.2,0.6-0.3,0.9-0.5c0.6-0.3,1.2-0.4,1.8-0.5c0.3,0,0.6,0,0.9,0c-0.2,0.3-0.4,0.5-0.6,0.7c-0.5,0.4-1,0.8-1.6,1
		c-0.3,0.1-0.6,0.3-0.9,0.3c-0.3,0.1-0.5,0.1-0.7,0.2c-0.2,0-0.3,0.1-0.4,0.2C360.1,549.2,360,549.3,360,549.4z"/>
	<path class="st23" d="M356.4,542.2c0.1-0.3,0.2-0.5,0.4-0.7c0.8-0.9,1.9-1.5,3.2-1.4c0.3,0,0.6,0.1,0.8,0.2
		c-0.2,0.2-0.4,0.4-0.7,0.5c-0.4,0.3-0.9,0.6-1.4,0.8c-0.5,0.2-1,0.4-1.5,0.5C357,542.1,356.7,542.2,356.4,542.2z"/>
	<path class="st23" d="M371.9,542.7c0-0.2,0.1-0.5,0.2-0.7c0.4-0.9,1.2-1.5,2.1-1.8c0.1-0.2,0.3-0.3,0.6-0.2
		c0.2,0.1,0.3,0.3,0.2,0.6c-0.1,0.1-0.2,0.2-0.3,0.3c-0.4,0.9-1.2,1.5-2.1,1.8C372.4,542.6,372.2,542.7,371.9,542.7z"/>
	<path class="st23" d="M376.7,552.4c0-0.4,0.1-0.7,0.3-1.1c0.5-1.5,1.4-2.8,2.5-3.9c0.3-0.3,0.6-0.5,0.9-0.7c0,0.4-0.1,0.7-0.3,1.1
		c-0.5,1.5-1.4,2.8-2.5,3.9C377.3,552,377,552.2,376.7,552.4z"/>
	<path class="st23" d="M375.4,556.7c0.4-0.1,0.7-0.2,1.1-0.3c1.6-0.2,3.2-0.1,4.7,0.5c0.4,0.1,0.7,0.3,1,0.5
		c-0.4,0.1-0.7,0.2-1.1,0.3c-1.6,0.2-3.2,0.1-4.7-0.5C376,557.1,375.7,556.9,375.4,556.7z"/>
	<path class="st23" d="M375.9,570.1c0.1-0.1,0.2-0.1,0.3-0.2c0.3-0.1,0.6-0.2,0.9-0.1c0.4,0.1,0.8,0.2,1.2,0.4
		c0.4,0.2,0.7,0.4,1.1,0.6c0.7,0.4,1.5,0.8,2.1,1.2c0.3,0.2,0.6,0.4,0.9,0.7c-0.4,0.1-0.8,0.1-1.2,0.1c-0.8-0.1-1.7-0.3-2.4-0.7
		c-0.4-0.2-0.8-0.5-1.1-0.7c-0.3-0.3-0.6-0.5-0.8-0.7C376.5,570.3,376.2,570.1,375.9,570.1z"/>
	<path class="st23" d="M372.6,582.3c0.4,0,0.7,0,1.1,0.1c0.6,0.1,1.4,0.2,2.2,0.4c0.8,0.2,1.5,0.4,2.1,0.6c0.3,0.1,0.7,0.3,1,0.4
		c-0.3,0.2-0.7,0.3-1.1,0.3c-1.6,0.2-3.2-0.2-4.5-1.1C373.1,582.8,372.8,582.6,372.6,582.3z"/>
	<path class="st23" d="M343.7,594.2c0.3-0.2,0.7-0.3,1-0.3c1.5-0.3,3-0.3,4.5,0.1c0.4,0.1,0.7,0.2,1,0.4c-0.3,0.2-0.7,0.3-1,0.3
		c-1.5,0.3-3,0.3-4.5-0.1C344.4,594.5,344,594.4,343.7,594.2z"/>
	<path class="st23" d="M334.1,591c-0.3,0.1-0.6,0.2-0.9,0.3c-0.7,0.1-1.3,0.2-2,0.2c-0.7,0-1.3-0.1-2-0.2c-0.3-0.1-0.6-0.2-0.9-0.3
		c0.3-0.2,0.6-0.3,0.9-0.5c1.3-0.5,2.8-0.5,4.1,0C333.5,590.7,333.8,590.8,334.1,591z"/>
	<path class="st23" d="M327.1,588.3c-0.4,0-0.8,0-1.1,0c-1.6-0.2-3.1-0.8-4.4-1.7c-0.3-0.2-0.6-0.5-0.9-0.7c0.4,0,0.8,0,1.1,0
		c1.6,0.2,3.1,0.8,4.4,1.7C326.5,587.8,326.8,588.1,327.1,588.3z"/>
	<path class="st23" d="M323.4,577.2c-0.1,0-0.2,0-0.3,0c-0.3,0.1-0.5,0.1-0.8,0.1c-1.5,0.1-3.1-0.1-4.5-0.7c-0.3-0.1-0.7-0.3-1-0.5
		c0.4-0.1,0.7-0.2,1.1-0.2c1.5-0.1,3.1,0.1,4.5,0.7c0.2,0.1,0.5,0.2,0.7,0.4C323.3,577,323.4,577.1,323.4,577.2z"/>
	<path class="st23" d="M328.9,571c-0.2,0.2-0.5,0.3-0.7,0.4c-1,0.4-2.2,0.4-3.2-0.1c-0.2-0.1-0.5-0.3-0.7-0.4
		c0.2-0.1,0.5-0.2,0.7-0.3c1-0.3,2.1-0.2,3.1,0.1C328.4,570.8,328.6,570.9,328.9,571z"/>
	<path class="st23" d="M318.2,564.5c0,0,0-0.1-0.1-0.1c-0.1,0-0.1,0-0.3,0.1c-0.1,0-0.3,0.1-0.4,0.1c-1.6,0.2-3.2,0-4.6-0.6
		c-0.4-0.1-0.7-0.3-1-0.5c0.4-0.1,0.7-0.2,1.1-0.2c1.6-0.2,3.2,0,4.6,0.6c0.2,0.1,0.3,0.1,0.4,0.2c0.1,0,0.3,0.1,0.4,0.2
		C318.3,564.2,318.4,564.4,318.2,564.5C318.3,564.5,318.3,564.5,318.2,564.5z"/>
	<path class="st23" d="M325.3,556.6c-0.4,0.1-0.7,0.1-1.1,0.1c-1.5-0.1-3-0.5-4.3-1.3c-0.3-0.2-0.6-0.4-0.9-0.7
		c0.4-0.1,0.7-0.1,1.1-0.1c1.5,0.1,3,0.5,4.3,1.3C324.7,556.2,325,556.4,325.3,556.6z"/>
	<path class="st23" d="M320.5,546.8c-0.4,0-0.8,0-1.2,0c-1.8-0.3-3.3-1.2-4.5-2.6c-0.3-0.3-0.5-0.7-0.6-1c0.4,0.1,0.8,0.3,1.1,0.5
		c0.6,0.3,1.4,0.7,2.2,1.2c0.8,0.4,1.5,0.9,2.1,1.3C319.9,546.3,320.2,546.6,320.5,546.8z"/>
	<path class="st23" d="M326.5,546.2c-0.4,0.1-0.7,0.1-1.1,0c-1.6-0.2-3-0.9-4.1-2c-0.3-0.3-0.5-0.6-0.6-0.9c0.4,0.1,0.7,0.1,1,0.3
		c0.7,0.2,1.4,0.5,2,0.8c0.7,0.3,1.3,0.7,1.9,1.1C326,545.7,326.3,546,326.5,546.2z"/>
	<path class="st23" d="M325.7,540.1c-0.5-0.2-1.1-0.4-1.6-0.7c-2.2-1.1-4.2-2.6-6-4.3c-0.4-0.4-0.8-0.8-1.2-1.3
		c0.5,0.2,1.1,0.4,1.6,0.7c2.2,1.1,4.2,2.6,6,4.3C324.9,539.3,325.3,539.7,325.7,540.1z"/>
	<path class="st23" d="M330.1,535.1c-0.3-0.2-0.6-0.5-0.8-0.8c-1-1.2-1.7-2.6-2.1-4.1c-0.1-0.4-0.1-0.7-0.1-1.1
		c0.3,0.2,0.6,0.5,0.8,0.8c1,1.2,1.7,2.6,2.1,4.1C330,534.3,330.1,534.7,330.1,535.1z"/>
	<path class="st23" d="M363.5,532c0.3,0,0.6-0.1,0.9-0.3c0.5-0.4,0.9-0.8,1.2-1.3c0.2-0.3,0.5-0.6,0.8-0.9c0.6-0.4,1.3-0.7,2-0.7
		c-0.2,0.3-0.4,0.6-0.6,0.8c-0.4,0.5-0.7,0.9-1.2,1.6l-0.4,0.5c-0.2,0.2-0.3,0.3-0.5,0.4c-0.3,0.2-0.7,0.4-1.1,0.4
		c-0.3,0-0.6-0.1-0.8-0.2C363.6,532.2,363.5,532.1,363.5,532z"/>
	<path class="st23" d="M369.5,592.2c0.3,0.1,0.6,0.3,0.9,0.5c1.1,1,1.6,2.5,1.4,3.9c0,0.3-0.2,0.7-0.3,1c-0.2-0.3-0.3-0.6-0.4-0.9
		c-0.2-0.5-0.5-1.2-0.7-1.8c-0.2-0.6-0.4-1.3-0.6-1.8C369.7,592.8,369.6,592.5,369.5,592.2z"/>
</g>
<path class="st24" d="M345.9,601.4c-2.2-0.5-4.5-0.6-6.7-0.5c0.8,2.4,2.1,4.7,2.9,7.1c0.7,2.5,1.2,5,1.4,7.6
	c0.9,8.1,1.9,16.3,2.4,24.4c0.2,1.5,0.1,3-0.3,4.5c-0.7,1.5-1.5,2.9-2.5,4.3c-1,1.3-1.3,3.1-0.9,4.7c6.2,0.2,12.4,0.1,18.6-0.3
	c3-0.1,5.9-0.5,8.7-1.4c2.8-0.9,5.2-2.9,6.6-5.6c0.6-1.4,0.9-2.8,1.1-4.3l5.6-33.6c0-0.2,0.1-0.5,0.1-0.7c0.4-2.2,0.7-4.4,0.8-6.6
	c0.1-1.1,0-2.1,0.1-3.2c0.1-1.1,0.1-2.3,0.2-3.4c0-0.2,0-0.4-0.2-0.6c-0.1,0.4-0.3,0.8-0.6,1.1c-0.4,0.3-0.9,0.5-1.3,0.6
	c-0.5,0.2-1,0.4-1.5,0.6c-1,0.4-2,0.8-3,1.2c-2,0.8-4,1.5-6,2.2c-4,1.4-8.1,2.2-12.4,2.6C354.7,602.3,350.3,602.1,345.9,601.4z"/>
<path class="st25" d="M377.2,641.9c-0.2,1.5-0.6,2.9-1.1,4.3c-1.4,2.6-3.7,4.7-6.6,5.6c-2.8,0.9-5.7,1.4-8.7,1.4
	c-6.2,0.4-12.4,0.5-18.6,0.3c-0.5-1.6-0.1-3.4,0.9-4.7c1-1.3,1.9-2.7,2.5-4.3c0.4-1.5,0.5-3,0.3-4.5c-0.2-3.3-0.5-6.6-0.8-9.9
	c-0.3-2.7-1-5.7,2-7.1c1.4-0.6,3-0.9,4.5-0.8l21.3-0.9l4.6-0.2c1-0.1,2,0,2.9,0.4C380,628.3,378.3,635.1,377.2,641.9z"/>
<path class="st18" d="M321.6,613.9c1.6,5.1,2.5,10.3,3.6,15.5c1.1,5.2,2.7,10.3,4.1,15.4c0.2,0.8,0.4,1.5,0.7,2.3
	c0.4,1.1,1,2.1,1.6,3.1c0.7,1.4,1.9,2.5,3.3,3.1c1.6,0.3,3.2,0.4,4.8,0.2c1.7,0,3.4,0,5,0h3.7c-0.5-3-0.8-6-1-9
	c0-1.6-0.1-3.2-0.3-4.8c-0.1-0.5-0.2-1-0.3-1.4c-0.1-0.7,0-1.4-0.1-2.2c-0.1-0.8-0.1-1.5-0.2-2.3c-0.1-1.6-0.3-3.2-0.5-4.7
	c-0.4-3.1-0.8-6.2-1.1-9.2c-0.5-4.3-0.9-8.6-1-13c-0.1-3.9,0.5-5.5-4-6.2c-2.1-0.3-4.2,0.4-6.2,0c-0.6-0.1-1.2-0.4-1.6-0.8
	c-0.5-0.5-1-1.1-1.3-1.7c-0.8-1.2-1.6-2.5-2.3-3.9c-0.2-0.4-0.4-0.8-0.5-1.3c-0.4,0-0.8,0-1.1,0c-2.5,0.1-5.4-0.4-7.6,1.1
	C314,597.9,320.2,609.4,321.6,613.9z"/>
<path class="st26" d="M346.4,527.1c0,0.2,0,0.3-0.2,0.4s-0.3,0-0.4-0.2c0,0,0,0,0-0.1c-1.1-2.1-1.9-4.4-2.3-6.8
	c-0.1-0.7-0.3-1.4-0.6-2.1c-0.3-0.7-1-1.1-1.8-1c-0.8,0.2-1.3,0.9-1.3,1.7c0,0.8,0.2,1.6,0.6,2.2c1.1,2.2,2.6,4.2,4.4,5.9
	c-0.7,0-1.4-0.3-1.7-0.9l-4.3-4.8c-0.5-0.6-1.1-1.1-1.9-1.4c-0.4,1.5-0.3,3.1,0.3,4.5c0.4,0.7,1,1.4,1.7,1.8
	c1.1,0.8,2.2,1.5,3.5,2.1l-7.7,0c-0.1,0-0.2,0-0.4,0.1c-0.2,0.2-0.2,0.4,0,0.6c0.2,0.2,0.4,0.3,0.6,0.4c2.8,1,5.7,1.4,8.7,1.2
	c-1,0.3-1.8,1-2.2,2c-0.2,0.7-0.3,1.4-0.2,2.2c-0.1,1.1,0.1,2.3,0.6,3.3c0.9-1,1.6-2.1,2.3-3.3c0.6-1.2,0.9-2.5,0.7-3.8
	c0.6,1.2,1.1,2.4,1.4,3.8c0.3,1.3,1,2.5,2.1,3.3c0-2.3-0.2-4.6-0.7-6.9l2.5,2.1c1.1,1.2,2.7,1.9,4.3,1.9c-1.6-2.8-4.3-5-7.4-6
	c3-1.3,6.3-1.7,9.6-1.4c0.2-0.2,0.2-0.6-0.1-0.8l0,0l0,0c-0.3-0.2-0.6-0.2-0.9-0.2c-2.4-0.3-4.9,0-7.2,0.9c0.8-0.7,1.7-1.3,2.7-1.9
	c1.1-1.3,1.6-3,1.3-4.7c-0.1,1.3-0.8,2.5-1.9,3.2c-1.1,0.7-2.1,1.5-2.9,2.4c0-2.3,1.8-4.3,2.6-6.5c0.8-1.8,0.7-3.9-0.1-5.7
	C347.8,518.1,346.9,523.2,346.4,527.1z"/>
<path class="st27" d="M346.3,527.9c0,0.1,0,0.3-0.2,0.3c-0.1,0-0.3,0-0.3-0.2c0,0,0,0,0-0.1c-1-2-1.8-4.1-2.2-6.3
	c-0.1-0.7-0.3-1.3-0.6-1.9c-0.3-0.6-1-1-1.6-0.9c-0.7,0.2-1.2,0.8-1.3,1.6c0,0.7,0.2,1.4,0.6,2.1c1,2.1,2.4,3.9,4.1,5.5
	c-0.7,0-1.3-0.3-1.6-0.9l-4-4.5c-0.4-0.6-1-1-1.7-1.3c-0.4,1.4-0.3,2.9,0.3,4.2c0.4,0.7,0.9,1.3,1.6,1.7c1,0.8,2.1,1.4,3.3,1.9
	l-7.2,0c-0.1,0-0.2,0-0.3,0.1c-0.2,0.1-0.2,0.4,0,0.6c0.1,0.2,0.3,0.3,0.5,0.3c2.6,0.9,5.4,1.3,8.1,1.1c-1,0.3-1.7,1-2.1,1.9
	c-0.2,0.7-0.3,1.3-0.2,2c-0.1,1.1,0.1,2.1,0.6,3.1c0.8-0.9,1.5-2,2.1-3c0.6-1.1,0.8-2.4,0.6-3.6c0.6,1.1,1,2.3,1.3,3.5
	c0.3,1.2,1,2.3,1.9,3.1c0-2.2-0.2-4.3-0.6-6.4l2.4,1.9c1,1.1,2.5,1.8,4.1,1.7c-1.5-2.6-4-4.6-6.9-5.6c2.8-1.2,5.9-1.6,8.9-1.3
	c0.2-0.2,0.1-0.6-0.1-0.7l0,0l0,0c-0.3-0.1-0.5-0.2-0.8-0.2c-2.3-0.3-4.6,0-6.7,0.8c0.8-0.7,1.6-1.2,2.5-1.8c1-1.2,1.5-2.8,1.3-4.4
	c-0.1,1.2-0.7,2.3-1.7,3c-1,0.6-1.9,1.4-2.7,2.3c0-2.2,1.7-4,2.4-6c0.7-1.7,0.7-3.7-0.1-5.4C347.7,519.5,346.8,524.3,346.3,527.9z"
	/>
<path class="st28" d="M413,578.1l-27.6,72.8l4.9-0.1l37.6-73.6l52.1-3.1l36.1,70.6l4.9,0.1L494,573.3l3.8-0.2l10.7-16.7l-8.8,0.9
	c-0.1-0.2-0.2-0.3-0.3-0.5c-3.5-5-7.3-9.9-10.8-14.8l-13.9-19.6c-5.9-8.3-16.6-11.6-26.1-8c-5.8,2.2-11.6,4.4-17.4,6.6l-30.5,11.5
	l-7.6,2.9c-0.8,0.3-1.7,0.6-2.5,1c-0.6,0.2-1.2,0.5-1.8,0.8c-17.9-34.4-16.8-73.6-2.4-115.9l-11.7-5.5
	c-25.9,70.3-17.1,124.3,23.4,163.5l-3.8-32.7l0,0l3.8,32.7L413,578.1z M424.8,564.8c-12.2-1.8-23.2-8.4-30.5-18.4
	c7.4-3,15.5-5,23.1-7.4L439,532c10.6-3.4,22.2-0.4,29.9,7.6l0.6,0.6l9.8,10.2c2.8,2.6,5.4,5.3,7.9,8.1L424.8,564.8z"/>
<path class="st29" d="M472.1,458.2c0,0.2,0.1,0.3,0,0.5c-0.1,0.5-0.4,0.9-0.8,1.1l-0.8-1.6c-0.3-0.5-0.1-1.1,0.4-1.4
	c0.1,0,0.2-0.1,0.3-0.1C471.7,457.1,472,457.6,472.1,458.2z"/>
<path class="st13" d="M569.4,312.9c-1.4-1.8-4-2.2-5.8-0.8c-0.1,0.1-0.2,0.2-0.4,0.3c-0.6,0.6-0.9,1.4-0.9,2.2
	c0,0.6,0.2,1.2,0.5,1.8c0.4,0.6,1.1,1,1.8,0.9c0.4-0.1,0.8-0.4,0.5-0.8c-0.4-0.4-0.6-0.9-0.7-1.4c0-0.7,0.3-1.3,0.8-1.7
	c0.6-0.4,1.3-0.3,1.8,0.2c0.2,0.3,0.4,0.6,0.5,0.9c0.6,2.2-0.5,5.2-3,5.4c-1.1,0.1-2.2-0.6-2.5-1.7c-0.5-1.2-0.7-2.5-0.7-3.8v-6.3
	h8.7v-2.9h-8.7V301c0-0.9-0.2-1.9-0.7-2.7c-1.2-1.5-3.3-2-5-1c-0.4,0.2-0.7,0.5-1,0.8c-0.5,0.7-0.8,1.5-0.8,2.4h2.1
	c0-0.4,0.1-0.7,0.2-1.1c0.1-0.4,0.5-0.7,0.9-0.8c1.3-0.2,1.4,1.6,1.4,2.4v4.2H556v2.9h2.6v7.1c0,1.5,0.3,3,1.1,4.3
	c1.8,3,6.8,2.8,9.1,0.4c1-1.1,1.6-2.5,1.5-4C570.3,314.8,570,313.8,569.4,312.9z"/>
<path class="st7" d="M490.2,439.1c-0.8-1.1-2.4-1.3-3.5-0.5c-0.1,0.1-0.1,0.1-0.2,0.2c-0.3,0.4-0.5,0.8-0.5,1.3
	c0,0.4,0.1,0.7,0.3,1.1c0.2,0.4,0.7,0.6,1.1,0.5c0.2-0.1,0.5-0.3,0.3-0.5c-0.2-0.2-0.4-0.5-0.4-0.9c0-0.4,0.2-0.8,0.5-1
	c0.3-0.2,0.8-0.2,1.1,0.1c0.1,0.2,0.2,0.4,0.3,0.6c0.5,1.3-0.2,2.7-1.5,3.1c-0.1,0-0.2,0.1-0.3,0.1c-0.7,0.1-1.3-0.4-1.5-1
	c-0.3-0.7-0.4-1.5-0.4-2.3v-3.8h5.2v-1.7h-5.2v-2.5c0-0.6-0.1-1.1-0.4-1.6c-0.7-0.9-2-1.2-3-0.6c-0.2,0.1-0.4,0.3-0.6,0.5
	c-0.3,0.4-0.5,0.9-0.5,1.4h1.3c0-0.2,0.1-0.4,0.1-0.7c0.1-0.2,0.3-0.4,0.5-0.5c0.8-0.1,0.9,0.9,0.9,1.4v2.5h-1.6v1.7h1.6v4.2
	c0,0.9,0.2,1.8,0.7,2.5c1.3,1.6,3.6,1.8,5.1,0.5c0.1-0.1,0.2-0.2,0.3-0.3c0.6-0.6,0.9-1.5,0.9-2.4
	C490.7,440.2,490.6,439.6,490.2,439.1z"/>
<path class="st7" d="M505.9,451.9c-0.6-0.8-1.7-0.9-2.4-0.3c-0.1,0-0.1,0.1-0.1,0.1c-0.2,0.2-0.4,0.6-0.4,0.9c0,0.3,0.1,0.5,0.2,0.7
	c0.2,0.3,0.5,0.4,0.8,0.4c0.2,0,0.3-0.2,0.2-0.3c-0.1-0.2-0.2-0.4-0.3-0.6c0-0.3,0.1-0.5,0.3-0.7c0.2-0.1,0.5-0.1,0.7,0.1
	c0.1,0.1,0.2,0.2,0.2,0.4c0.3,0.9-0.1,1.8-1,2.1c-0.1,0-0.1,0-0.2,0.1c-0.5,0-0.9-0.3-1-0.7c-0.2-0.5-0.3-1-0.3-1.6v-2.6h3.6v-1.2
	h-3.6v-1.7c0-0.4-0.1-0.8-0.3-1.1c-0.5-0.6-1.4-0.8-2.1-0.4c-0.2,0.1-0.3,0.2-0.4,0.3c-0.2,0.3-0.3,0.6-0.3,1h0.9
	c0-0.2,0-0.3,0.1-0.5c0.1-0.2,0.2-0.3,0.4-0.3c0.5-0.1,0.6,0.6,0.6,1v1.7h-1.1v1.2h1.1v2.9c0,0.6,0.1,1.2,0.5,1.8
	c0.9,1.1,2.5,1.2,3.5,0.4c0.1-0.1,0.1-0.1,0.2-0.2c0.4-0.4,0.6-1,0.6-1.7C506.2,452.6,506.1,452.2,505.9,451.9z"/>
<path class="st30" d="M396.7,434.5c4.5-12.8,6.6-26.4,6.3-40c0-1.9-0.2-3.7-0.5-5.5c-0.4-1.9-1-5.3-2.9-5.2c-1,0.4-1.9,1-2.6,1.7
	l-7.6,4.9l-10.9,7c-0.3,8.7-3,17.2-7.8,24.4c-8,11.6,0.9,30.8,10.4,33.1l6.7-7.4c1.7-1.8,3.3-3.7,5-5.5c1.4-1.5,2.4-3.2,3.1-5.1
	C396.1,436.2,396.4,435.3,396.7,434.5z"/>
<path class="st30" d="M424.3,393.1c0.4,12.6-9.3,23.4-21.9,24.2c-12.7,0.7-23.6-9.1-24.3-21.9c-0.7-12.7,9.1-23.6,21.9-24.3l0.1,0
	l0,0C412.8,370.5,424.4,378.7,424.3,393.1z"/>
<path class="st30" d="M393.6,407.8c0,0,3.2,16.9,16.3,16.7l0.1-8.7L393.6,407.8z"/>
<path class="st31" d="M407.4,420.2L407.4,420.2c8.9-0.5,15.8-6.2,15.4-15l-0.8-15.2c-0.3-6.5-7.8-13.1-11.7-12.9l-14,4.7
	c-3.9,0.2-6.8,3.5-6.7,7.4l0.8,15.2C391.3,413.1,398.6,419.8,407.4,420.2z"/>
<circle class="st32" cx="406.1" cy="399" r="1.3"/>
<circle class="st32" cx="417.7" cy="398.3" r="1.3"/>
<path class="st33" d="M413,401.4l1.6,2.7c0,0-0.1,1.9-2.9,1.3"/>
<path class="st32" d="M402.4,395.4c0.1,0,0.2,0,0.2,0l5.8-0.5l0,0c0.6-0.1,1.1-0.6,1.1-1.3c-0.1-0.6-0.6-1.1-1.3-1.1l0,0h0l-5.8,0.5
	l0,0c-0.6,0.1-1.1,0.6-1.1,1.3C401.5,394.9,401.9,395.4,402.4,395.4z"/>
<path class="st32" d="M416.3,394.4c0.1,0,0.2,0,0.2,0l3.5-0.3c0.6-0.1,1.1-0.6,1-1.3c-0.1-0.6-0.6-1.1-1.3-1l0,0l-3.5,0.3l0,0
	c-0.6,0.1-1.1,0.6-1.1,1.3C415.4,393.9,415.8,394.4,416.3,394.4z"/>
<path class="st34" d="M406.7,408.7l10.2-1.4c0,0-1.4,4.3-4.9,4.5C409.7,412.3,407.4,410.9,406.7,408.7z"/>
<path class="st30" d="M415.5,380.1c-8.3,9-18.7,15.8-30.3,19.7c0,0-3.6-12.8,6.3-20.7c5.1-4.7,12.5-5.8,18.8-2.9L415.5,380.1z"/>
<path class="st30" d="M412.1,379.3c2.8,3.9,6.3,7.2,10.3,9.9c0,0-2.2-11.1-11.9-12.5L412.1,379.3z"/>
<path class="st30" d="M395.9,392.1c0,0,2.4,11.1-3.1,12.4l-2-10.5L395.9,392.1z"/>
<circle class="st31" cx="389" cy="402" r="5.8"/>
<path class="st35" d="M401.2,465.6L408,483l2.2,4.3c8.9,0,17.4-3.1,24.3-8.6l-2.6-6.5c-3.9,4.9-11.7,8.2-21.9,10.3L401.2,465.6z"/>
<ellipse class="st15" cx="479.8" cy="473.1" rx="9.3" ry="9.4"/>
<path class="st28" d="M457.7,515.2l58.8-9.4c1.1-0.2,2.3-0.2,3.5,0l0.8,0.1l-0.1-1.3c-0.2-1.4,0.2-2.9,1-4.1
	c6.1-9.3,30.9-56.7,32.3-58.1l-2.9-1.8l-33,58.1l-58.7,9.7l-1,4.3L457.7,515.2z"/>
<text transform="matrix(1 0 0 1 952.9317 337.9714)" class="st36 st37 st38">Avq Kiyb eoevRv‡i</text>
<g>
	<text transform="matrix(1 0 0 1 997.084 417.4832)" class="st5 st39 st40">eoevRvi</text>
	<text transform="matrix(1 0 0 1 1079.416 417.4832)" class="st17 st39 st40">AbjvBb</text>
	<text transform="matrix(1 0 0 1 1158.0527 417.4832)" class="st17 st39 st40">kwcs</text>
	<text transform="matrix(1 0 0 1 1209.4014 417.4832)" class="st17 st39 st40">gv‡K©U‡cø‡m</text>
	<text transform="matrix(1 0 0 1 1310.0225 417.4832)" class="st17 st39 st40">‡iwR‡÷ªkb</text>
	<text transform="matrix(1 0 0 1 1409.0107 417.4832)" class="st17 st39 st40">Kiæb</text>
	<text transform="matrix(1 0 0 1 997.084 446.284)" class="st17 st39 st40">Avcbvi</text>
	<text transform="matrix(1 0 0 1 1062.749 446.284)" class="st17 st39 st40">kc</text>
	<text transform="matrix(1 0 0 1 1095.7275 446.284)" class="st17 st39 st40">ˆZwi</text>
	<text transform="matrix(1 0 0 1 1138.2334 446.284)" class="st17 st39 st40">Kiæb</text>
	<text transform="matrix(1 0 0 1 1185.4189 446.284)" class="st17 st39 st40">‡cÖvWv±</text>
	<text transform="matrix(1 0 0 1 1245.8281 446.284)" class="st17 st39 st40">Avc‡jvW</text>
	<text transform="matrix(1 0 0 1 1322.4375 446.284)" class="st17 st39 st40">Kiæb</text>
	<text transform="matrix(1 0 0 1 1369.623 446.284)" class="st17 st39 st40">†mj</text>
	<text transform="matrix(1 0 0 1 1409.0088 446.284)" class="st17 st39 st40">Kiæb</text>
	<text transform="matrix(1 0 0 1 1323.0918 475.0838)" class="st17 st39 st40">Ges Avq Kiæb|</text>
</g>
</svg>
