<?xml version="1.0" encoding="utf-8"?>
<!-- Generator: Adobe Illustrator 19.0.0, SVG Export Plug-In . SVG Version: 6.00 Build 0)  -->
<svg version="1.1" id="Layer_1" xmlns="http://www.w3.org/2000/svg" xmlns:xlink="http://www.w3.org/1999/xlink" x="0px" y="0px"
	 viewBox="294 122 1200 550" style="enable-background:new 294 122 1200 550;" xml:space="preserve">
<style type="text/css">
	.st0{fill:url(#SVGID_1_);}
	.st1{fill:#2C338E;}
	.st2{fill:#6CC071;}
	.st3{opacity:0.95;fill:#94CE97;enable-background:new    ;}
	.st4{opacity:0.25;fill:none;stroke:#ED644B;stroke-width:0.8427;stroke-miterlimit:10;enable-background:new    ;}
	.st5{opacity:0.25;}
	.st6{fill:#ED644B;}
	.st7{opacity:0.85;}
	.st8{fill:#464FA2;}
	.st9{fill:#3B439B;}
	.st10{fill:#F4847F;}
	.st11{opacity:0.5;fill:#ED644B;enable-background:new    ;}
	.st12{fill:url(#SVGID_2_);}
	.st13{fill:url(#SVGID_3_);}
	.st14{fill:url(#SVGID_4_);}
	.st15{fill:url(#SVGID_5_);}
	.st16{fill:#CFDCE5;}
	.st17{fill:#FFFFFF;}
	.st18{fill:url(#SVGID_6_);}
	.st19{fill:url(#SVGID_7_);}
	.st20{fill:#5C52CF;}
	.st21{font-family:'ArialMT';}
	.st22{font-size:53.319px;}
	.st23{fill:url(#SVGID_8_);}
	.st24{fill:url(#SVGID_9_);}
	.st25{fill:url(#SVGID_10_);}
	.st26{fill:url(#SVGID_11_);}
	.st27{fill:url(#SVGID_12_);}
	.st28{fill:url(#SVGID_13_);}
	.st29{fill:#363894;}
	.st30{fill:url(#SVGID_14_);}
	.st31{fill:url(#SVGID_15_);}
	.st32{fill:url(#SVGID_16_);}
	.st33{fill:#F1F2F2;}
	.st34{fill:url(#SVGID_17_);}
	.st35{fill:#FA870A;}
	.st36{fill:url(#SVGID_18_);}
	.st37{fill:url(#SVGID_19_);}
	.st38{fill:url(#SVGID_20_);}
	.st39{fill:url(#SVGID_21_);}
	.st40{fill:url(#SVGID_22_);}
	.st41{fill:url(#SVGID_23_);}
	.st42{fill:url(#SVGID_24_);}
	.st43{fill:url(#SVGID_25_);}
	.st44{fill:url(#SVGID_26_);}
	.st45{fill:#353892;}
	.st46{fill:#F9BFAF;}
	.st47{fill:#81441D;}
	.st48{fill:#EFC4A3;}
	.st49{fill:#363B92;}
	.st50{opacity:0.5;fill:#29235C;enable-background:new    ;}
	.st51{fill:#369747;}
	.st52{fill:#FCDFBB;}
	.st53{fill:#303030;}
	.st54{fill:#FFFFF3;}
	.st55{fill:url(#SVGID_27_);}
	.st56{fill:#339933;}
	.st57{font-family:'KongshoMJ';}
	.st58{font-size:70px;}
	.st59{font-family:'SutonnyMJ';}
	.st60{font-size:24px;}
	.st61{letter-spacing:1;}
</style>
<title>wc-bg3</title>
<linearGradient id="SVGID_1_" gradientUnits="userSpaceOnUse" x1="294" y1="431" x2="1494" y2="431" gradientTransform="matrix(1 0 0 -1 0 828)">
	<stop  offset="0" style="stop-color:#239400;stop-opacity:0.1"/>
	<stop  offset="1" style="stop-color:#2300BF;stop-opacity:0.1"/>
</linearGradient>
<rect x="294" y="122" class="st0" width="1200" height="550"/>
<path class="st1" d="M654.1,586.3c0.1,0,0.2,0.1,0.3,0.2c0.1,0.2,0.1,0.4,0.1,0.6l-0.2,3.2c0,0.1,0,0.2-0.1,0.3
	c-0.1,0.1-0.2,0.1-0.3,0.2c-1.3,0.4-2.6,0.8-3.9,1.1c-1.2,0.3-2.4,0.3-3.6-0.1c-0.5-0.1-0.9-0.6-1-1.1c0-0.4,0.2-0.7,0.4-1
	c0.2-0.3,0.3-0.6,0.3-1c0-0.6,0-1.2,0-1.8c0-0.7-0.1-1.5-0.4-2.1C648.6,584.6,651.4,585.2,654.1,586.3z"/>
<path class="st2" d="M634,543.6c-2,0-3.8,0.8-5.7,0.7c-0.7-0.1-1.4-0.1-2.1,0c-3,0.5-5.7,1.8-7.9,3.9c-2.3,1.8-4.2,4.2-5.4,6.9
	c-0.7,2-1.2,4-1.4,6.1c-0.1,0.9-0.1,1.8-0.1,2.8c0,5.5,2.1,10.7,4.2,15.7l4.2,10c0.5,1.6,2,2.5,3.6,2.2c7.1,0.4,14.2,0.1,21.2-0.9
	c0.2,0,0.5-0.1,0.7-0.2c0.2-0.2,0.3-0.4,0.4-0.7c0.8-2.6,0.9-5.4,1.5-8c0.6-2.6,2-4.9,2.9-7.5c2.7-8.9,0.6-18.5-5.4-25.6
	C642.2,545.7,638.2,543.7,634,543.6z"/>
<path class="st3" d="M623,548.9c-1.5,1-2.8,2.1-4,3.3c-0.4,0.6-0.7,1.2-0.8,1.9c-0.9,3.6-0.7,7.4,0.7,10.9c1.3,3.5,3.1,6.8,5.1,9.9
	c1.3,2.2,2.7,4.2,4.3,6.1c1,1.1,2,2.1,3,3.2c2.3,2.7,3.9,5.9,4.6,9.4c2.6,0.1,5.2,0.1,7.7,0c0.7,0.1,1.4-0.3,1.5-1
	c0-0.1,0-0.2,0-0.2c0.7-3,1.2-6.1,1.6-9.2c0.1-1.2,0.3-2.4,0.7-3.5c0.6-1.2,1.3-2.4,2-3.6c2.3-4.1,2.2-9.1,2.1-13.9
	c0.2-2.5-0.6-5-2.2-6.9l-3.1-4.5c-0.9-1.4-2-2.7-3.2-3.9c-2.8-2.2-6.4-3.4-10-3.3c-2.1-0.2-4.1,0.2-6,1.1
	C625.2,545.7,624.4,547.6,623,548.9z"/>
<path class="st4" d="M620.3,555.5c-0.4,1.4-0.5,2.9-0.5,4.4c-0.1,7.9,3.2,15.4,6,22.8c0.6,1.5,1.1,3,1.5,4.6
	c0.4,2.1,0.5,4.3,0.4,6.4c2.9-0.3,5.8-0.3,8.6-0.2l0.5-6c1-8.5,1.3-17.2,0.7-25.8c-0.2-3.4-1.1-6.8-2.5-9.9c-1.3-2.6-3.4-4.7-6-6
	c-0.5-0.4-1.2-0.5-1.8-0.3c-0.6,0.5-1.2,1-1.7,1.6c-1.1,1.1-2.1,2.3-3,3.6C621.6,552.2,620.8,553.9,620.3,555.5z"/>
<g class="st5">
	<path class="st6" d="M635.7,544c0.6,0.5,1.2,0.9,1.7,1.5c1,1,2.4,2.5,4.1,4.3c0.9,1,1.8,2,2.5,3.1c0.8,1.3,1.5,2.6,2,4.1
		c0.5,1.5,0.8,3.1,0.8,4.8c0,1.7-0.1,3.3-0.4,5c-0.3,1.6-0.6,3.3-0.9,4.8l-1,4.6c-0.3,1.5-0.7,2.9-1.1,4.3c-0.4,1.4-0.7,2.6-0.9,3.8
		c-0.2,1.1-0.4,2.2-0.4,3.3c0,0.9,0,1.7,0.1,2.6l0.3,2.2c0,0-0.2-0.8-0.4-2.2c-0.2-0.9-0.2-1.7-0.3-2.6c-0.1-1.1,0-2.3,0.2-3.4
		c0.2-1.2,0.5-2.5,0.8-3.9l1-4.3c0.3-1.5,0.6-3.1,1-4.6c0.4-1.6,0.6-3.2,0.9-4.8c0.3-1.6,0.4-3.2,0.4-4.8c0-1.5-0.3-3.1-0.8-4.6
		c-0.4-1.4-1-2.7-1.8-3.9c-0.7-1.1-1.5-2.1-2.4-3.1c-1.6-1.8-2.9-3.5-3.9-4.5C636.3,544.6,635.7,544,635.7,544z"/>
</g>
<g class="st7">
	<path class="st6" d="M623,553.8c0,0,0.1,0.1,0.1,0.1c0.1,0.1,0.2,0.1,0.3,0.1c0.3,0.1,0.6,0.1,1.1,0.2c0.4,0.1,0.8,0.3,1.1,0.5
		c0.2-0.1,0.4,0,0.4,0.1c0.1,0.2,0,0.4-0.1,0.4c-0.1,0.1-0.3,0-0.4-0.1c-0.4,0-0.8,0-1.2-0.1c-0.2-0.1-0.4-0.1-0.6-0.2
		c-0.2-0.1-0.4-0.2-0.5-0.4c-0.1-0.1-0.2-0.3-0.2-0.5C623,553.9,623,553.8,623,553.8z"/>
	<path class="st6" d="M625.8,559.3c0.2-0.1,0.4-0.1,0.7-0.1c1-0.1,1.9,0.2,2.7,0.7c0.2,0.1,0.4,0.3,0.5,0.4c-0.2,0-0.4,0-0.7,0
		c-0.5,0-0.9-0.1-1.3-0.2c-0.4-0.1-0.9-0.3-1.3-0.5C626.1,559.5,626,559.4,625.8,559.3z"/>
	<path class="st6" d="M629.1,567.5c0,0.2-0.1,0.4-0.2,0.6c-0.4,0.8-0.9,1.5-1.7,2c0,0.2-0.1,0.4-0.3,0.4c-0.2,0-0.4-0.1-0.4-0.3
		c0-0.2,0.1-0.4,0.3-0.4c0,0,0,0,0,0l0,0c0.4-0.8,0.9-1.5,1.7-2C628.7,567.7,628.9,567.6,629.1,567.5z"/>
	<path class="st6" d="M632.2,577.2c0,0.2,0,0.3-0.1,0.5c-0.2,0.6-0.6,1.1-1.1,1.4c0,0.2-0.2,0.3-0.3,0.2c-0.2,0-0.3-0.2-0.2-0.3
		c0-0.1,0.1-0.2,0.2-0.2c0.2-0.6,0.6-1.1,1.1-1.4C631.9,577.3,632.1,577.2,632.2,577.2z"/>
	<path class="st6" d="M639.3,580.6c0.2-0.1,0.4-0.1,0.5-0.1c0.7-0.1,1.5,0.1,2.1,0.6c0.2-0.1,0.3,0,0.4,0.2c0.1,0.2,0,0.3-0.2,0.4
		c-0.1,0.1-0.3,0-0.4-0.1c-0.7,0-1.5-0.1-2.1-0.6C639.5,580.8,639.4,580.7,639.3,580.6z"/>
	<path class="st6" d="M639.3,568.4c0.1-0.1,0.3-0.2,0.4-0.3c0.6-0.3,1.4-0.2,2,0.1c0.2,0.1,0.3,0.2,0.4,0.3
		c-0.1,0.1-0.3,0.1-0.5,0.2c-0.6,0.2-1.3,0.2-1.9-0.1C639.6,568.6,639.5,568.5,639.3,568.4z"/>
	<path class="st6" d="M639,557.8c-0.1,0-0.1-0.1-0.1-0.2c0-0.2,0-0.4,0.1-0.5c0.1-0.2,0.3-0.3,0.5-0.4c0.2-0.1,0.4-0.2,0.6-0.3
		c0.4-0.2,0.8-0.3,1.2-0.3c0.1-0.2,0.3-0.2,0.4-0.2s0.2,0.3,0.2,0.4c-0.1,0.2-0.2,0.2-0.4,0.2c-0.3,0.3-0.7,0.5-1,0.7
		c-0.2,0.1-0.4,0.2-0.6,0.2c-0.2,0.1-0.3,0.1-0.5,0.1c-0.1,0-0.2,0.1-0.3,0.2C639.1,557.7,639,557.7,639,557.8z"/>
	<path class="st6" d="M636.7,553.1c0.1-0.2,0.2-0.3,0.3-0.5c0.5-0.6,1.3-0.9,2-0.9c0.2,0,0.4,0.1,0.5,0.1c-0.1,0.1-0.3,0.2-0.4,0.3
		c-0.3,0.2-0.6,0.4-0.9,0.5c-0.3,0.1-0.6,0.2-1,0.3C637.1,553.1,636.9,553.1,636.7,553.1z"/>
	<path class="st6" d="M646.7,553.5c0-0.2,0.1-0.3,0.2-0.4c0.3-0.6,0.8-1,1.4-1.2c0.1-0.1,0.2-0.2,0.4-0.2c0.1,0.1,0.2,0.2,0.2,0.4
		c0,0.1-0.1,0.2-0.2,0.2c-0.3,0.6-0.8,1-1.4,1.2C647,553.4,646.9,553.4,646.7,553.5z"/>
	<path class="st6" d="M649.8,559.7c0-0.2,0.1-0.5,0.2-0.7c0.3-1,0.9-1.8,1.6-2.5c-0.1-0.2,0-0.4,0.2-0.5c0.2-0.1,0.4,0,0.5,0.2
		c0.1,0.2,0,0.4-0.2,0.5c0,0-0.1,0-0.1,0c-0.3,1-0.9,1.8-1.6,2.5C650.2,559.4,650,559.6,649.8,559.7z"/>
	<path class="st6" d="M648.9,562.5c0.2-0.1,0.5-0.1,0.7-0.2c1-0.1,2.1,0,3,0.3c0.2,0.1,0.5,0.2,0.7,0.3c-0.2,0.1-0.5,0.1-0.7,0.2
		c-1,0.1-2.1,0-3-0.3C649.4,562.7,649.1,562.6,648.9,562.5z"/>
	<path class="st6" d="M649.3,571.2c0.1-0.1,0.1-0.1,0.2-0.1c0.2-0.1,0.4-0.1,0.6-0.1c0.3,0,0.5,0.1,0.8,0.2c0.2,0.1,0.5,0.2,0.7,0.4
		c0.5,0.3,1,0.5,1.3,0.8c0.2,0.1,0.4,0.3,0.6,0.4c-0.3,0-0.5,0.1-0.8,0c-0.5-0.1-1.1-0.2-1.6-0.5c-0.3-0.1-0.5-0.3-0.7-0.5
		c-0.2-0.2-0.4-0.3-0.5-0.4C649.7,571.3,649.5,571.2,649.3,571.2z"/>
	<path class="st6" d="M647.2,579c0.2,0,0.5,0,0.7,0.1c0.4,0.1,0.9,0.2,1.4,0.3c0.5,0.1,1,0.3,1.4,0.4c0.2,0.1,0.4,0.2,0.6,0.3
		c-0.2,0.1-0.4,0.2-0.7,0.2c-1,0.2-2.1-0.1-2.9-0.7C647.5,579.4,647.3,579.2,647.2,579z"/>
	<path class="st6" d="M628.5,586.7c0.2-0.1,0.4-0.2,0.7-0.2c1-0.2,2-0.2,2.9,0.1c0.2,0.1,0.4,0.1,0.7,0.3c-0.2,0.1-0.4,0.2-0.7,0.2
		c-1,0.2-2,0.2-2.9-0.1C628.9,586.9,628.7,586.8,628.5,586.7z"/>
	<path class="st6" d="M622.3,584.7c-0.2,0.1-0.4,0.2-0.6,0.2c-0.4,0.1-0.9,0.1-1.3,0.2c-0.4,0-0.9,0-1.3-0.1c-0.2,0-0.4-0.1-0.6-0.2
		c0.2-0.1,0.4-0.2,0.6-0.3c0.9-0.3,1.8-0.3,2.6,0C621.9,584.5,622.1,584.6,622.3,584.7z"/>
	<path class="st6" d="M617.8,582.9c-0.2,0-0.5,0-0.7,0c-1-0.1-2-0.5-2.8-1.1c-0.2-0.1-0.4-0.3-0.5-0.5c0.2,0,0.5,0,0.7,0
		c1,0.1,2,0.5,2.8,1.1C617.4,582.6,617.6,582.7,617.8,582.9z"/>
	<path class="st6" d="M615.4,575.8c-0.1,0-0.1,0-0.2,0c-0.2,0-0.3,0.1-0.5,0.1c-1,0.1-2-0.1-2.9-0.5c-0.2-0.1-0.4-0.2-0.6-0.3
		c0.2-0.1,0.5-0.1,0.7-0.1c1-0.1,2,0.1,2.9,0.5c0.2,0.1,0.3,0.1,0.5,0.2C615.3,575.6,615.4,575.7,615.4,575.8z"/>
	<path class="st6" d="M618.9,571.8c-0.1,0.1-0.3,0.2-0.5,0.3c-0.7,0.3-1.4,0.2-2.1-0.1c-0.2-0.1-0.3-0.2-0.4-0.3
		c0.2-0.1,0.3-0.1,0.5-0.2c0.7-0.2,1.4-0.2,2,0.1C618.6,571.6,618.8,571.7,618.9,571.8z"/>
	<path class="st6" d="M612.1,567.5C612.1,567.5,612.1,567.5,612.1,567.5c-0.1-0.1-0.2,0-0.3,0c-0.1,0-0.2,0-0.3,0c-1,0.1-2,0-3-0.4
		c-0.2-0.1-0.4-0.2-0.7-0.3c0.2-0.1,0.5-0.1,0.7-0.2c1-0.1,2,0,3,0.4c0.1,0,0.2,0.1,0.3,0.1c0.1,0,0.2,0.1,0.2,0.1
		C612.1,567.4,612.1,567.4,612.1,567.5C612.1,567.5,612.1,567.5,612.1,567.5z"/>
	<path class="st6" d="M616.6,562.5c-0.2,0-0.5,0.1-0.7,0c-1,0-1.9-0.3-2.8-0.8c-0.2-0.1-0.4-0.3-0.6-0.4c0.2,0,0.5-0.1,0.7,0
		c1,0,1.9,0.3,2.8,0.8C616.3,562.2,616.4,562.3,616.6,562.5z"/>
	<path class="st6" d="M613.5,556.1c-0.3,0-0.5,0-0.8,0c-1.1-0.2-2.2-0.8-2.9-1.7c-0.2-0.2-0.3-0.4-0.4-0.7c0.2,0.1,0.5,0.2,0.7,0.3
		c0.4,0.2,0.9,0.5,1.4,0.7c0.5,0.3,1,0.6,1.4,0.8C613.1,555.8,613.3,556,613.5,556.1z"/>
	<path class="st6" d="M617.4,555.7c-0.2,0-0.5,0-0.7,0c-1-0.1-1.9-0.6-2.6-1.3c-0.2-0.2-0.3-0.4-0.4-0.6c0.2,0,0.5,0.1,0.7,0.2
		c0.5,0.1,0.9,0.3,1.3,0.5c0.4,0.2,0.8,0.5,1.2,0.7C617.1,555.4,617.2,555.6,617.4,555.7z"/>
	<path class="st6" d="M616.8,551.8c-0.4-0.1-0.7-0.3-1-0.4c-1.4-0.7-2.7-1.6-3.9-2.8c-0.3-0.3-0.5-0.5-0.7-0.8
		c0.4,0.1,0.7,0.3,1,0.4c1.4,0.7,2.7,1.6,3.9,2.8C616.4,551.2,616.6,551.5,616.8,551.8z"/>
	<path class="st6" d="M619.7,548.5c-0.2-0.1-0.4-0.3-0.5-0.5c-0.7-0.8-1.1-1.7-1.3-2.6c-0.2,0-0.3-0.3-0.3-0.5
		c0-0.2,0.3-0.3,0.5-0.3c0.2,0,0.3,0.3,0.3,0.5c0,0,0,0,0,0.1c0.6,0.8,1.1,1.7,1.3,2.6C619.7,548,619.7,548.3,619.7,548.5z"/>
	<path class="st6" d="M641.3,546.6c0.2,0,0.4-0.1,0.5-0.2c0.3-0.2,0.6-0.5,0.8-0.8c0.2-0.2,0.3-0.4,0.5-0.6c0.4-0.3,0.8-0.4,1.3-0.5
		c-0.1,0.2-0.3,0.4-0.4,0.5c-0.3,0.3-0.5,0.6-0.8,1l-0.3,0.3c-0.1,0.1-0.2,0.2-0.3,0.3c-0.2,0.1-0.5,0.2-0.7,0.2
		c-0.2,0-0.4,0-0.5-0.2C641.4,546.7,641.3,546.6,641.3,546.6z"/>
	<path class="st6" d="M645.2,585.4c0.2,0.1,0.4,0.2,0.5,0.4c0.7,0.6,1,1.6,0.9,2.5c0,0.2-0.1,0.4-0.2,0.6c-0.1-0.2-0.2-0.4-0.3-0.6
		c-0.1-0.3-0.3-0.7-0.5-1.2c-0.1-0.4-0.3-0.8-0.4-1.2C645.3,585.8,645.2,585.6,645.2,585.4z"/>
</g>
<path class="st8" d="M629.9,591.4c-1.4-0.3-2.9-0.4-4.3-0.3c0.5,1.6,1.3,3,1.9,4.6c0.5,1.6,0.8,3.2,0.9,4.9
	c0.6,5.2,1.2,10.5,1.5,15.8c0.1,1,0.1,2-0.2,2.9c-0.4,1-1,1.9-1.6,2.8c-0.7,0.9-0.9,2-0.6,3c4,0.1,8,0,12-0.2c1.9,0,3.8-0.3,5.6-0.9
	c1.8-0.6,3.4-1.9,4.2-3.6c0.4-0.9,0.6-1.8,0.7-2.8l3.6-21.7c0-0.2,0.1-0.3,0.1-0.5c0.3-1.4,0.4-2.8,0.5-4.3c0-0.7,0-1.4,0-2.1
	c0.1-0.7,0.1-1.5,0.1-2.2c0-0.1,0-0.3-0.1-0.4c0,0.3-0.2,0.5-0.4,0.7c-0.3,0.2-0.6,0.3-0.9,0.4c-0.3,0.1-0.6,0.3-1,0.4
	c-0.6,0.3-1.3,0.5-1.9,0.8c-1.3,0.5-2.6,1-3.9,1.4c-2.6,0.9-5.3,1.4-8,1.7C635.6,592,632.7,591.8,629.9,591.4z"/>
<path class="st9" d="M650.1,617.5c-0.1,1-0.4,1.9-0.7,2.8c-0.9,1.7-2.4,3-4.2,3.6c-1.8,0.6-3.7,0.9-5.6,0.9c-4,0.2-8,0.3-12,0.2
	c-0.3-1-0.1-2.2,0.6-3c0.6-0.9,1.2-1.8,1.6-2.8c0.3-0.9,0.3-1.9,0.2-2.9c-0.1-2.1-0.3-4.3-0.5-6.4c-0.2-1.8-0.7-3.7,1.3-4.6
	c0.9-0.4,1.9-0.6,2.9-0.5l13.8-0.6l3-0.1c0.6-0.1,1.3,0,1.9,0.2C651.9,608.7,650.8,613.2,650.1,617.5z"/>
<path class="st1" d="M614.2,599.4c1,3.3,1.6,6.7,2.3,10c0.7,3.4,1.7,6.6,2.6,10c0.1,0.5,0.3,1,0.4,1.5c0.3,0.7,0.6,1.4,1.1,2
	c0.5,0.9,1.2,1.6,2.1,2c1,0.2,2.1,0.3,3.1,0.2c1.1,0,2.2,0,3.3,0h2.4c-0.3-1.9-0.5-3.9-0.7-5.8c0-1-0.1-2.1-0.2-3.1
	c-0.1-0.3-0.1-0.6-0.2-0.9c-0.1-0.5,0-0.9-0.1-1.4c0-0.5-0.1-1-0.1-1.5c-0.1-1-0.2-2-0.3-3.1c-0.2-2-0.5-4-0.7-6
	c-0.3-2.8-0.6-5.6-0.7-8.4c-0.1-2.5,0.3-3.5-2.6-4c-1.3-0.2-2.7,0.3-4,0c-0.4-0.1-0.7-0.2-1.1-0.5c-0.3-0.3-0.6-0.7-0.9-1.1
	c-0.5-0.8-1-1.6-1.5-2.5c-0.2-0.3-0.3-0.5-0.3-0.8c-0.2,0-0.5,0-0.7,0c-1.7-0.2-3.4,0-4.9,0.7C609.3,589.1,613.3,596.5,614.2,599.4z
	"/>
<path class="st10" d="M630.2,543.4c0,0.1,0,0.2-0.1,0.2c-0.1,0-0.2,0-0.2-0.1c0,0,0,0,0,0c-0.7-1.4-1.2-2.8-1.5-4.4
	c-0.1-0.5-0.2-0.9-0.4-1.3c-0.2-0.4-0.7-0.7-1.1-0.7c-0.5,0.1-0.9,0.6-0.9,1.1c0,0.5,0.1,1,0.4,1.4c0.7,1.4,1.7,2.7,2.9,3.8
	c-0.5,0-0.9-0.2-1.1-0.6l-2.8-3.1c-0.3-0.4-0.7-0.7-1.2-0.9c-0.2,1-0.2,2,0.2,2.9c0.3,0.5,0.6,0.9,1.1,1.2c0.7,0.5,1.5,1,2.3,1.3
	l-5,0c-0.1,0-0.2,0-0.2,0c-0.1,0.1-0.1,0.3,0,0.4c0.1,0.1,0.2,0.2,0.4,0.2c1.8,0.6,3.7,0.9,5.6,0.8c-0.7,0.2-1.2,0.7-1.4,1.3
	c-0.1,0.5-0.2,0.9-0.1,1.4c-0.1,0.7,0.1,1.5,0.4,2.1c0.6-0.6,1.1-1.4,1.5-2.1c0.4-0.8,0.6-1.6,0.4-2.5c0.4,0.8,0.7,1.6,0.9,2.4
	c0.2,0.9,0.7,1.6,1.3,2.2c0-1.5-0.1-3-0.4-4.4l1.6,1.3c0.7,0.8,1.7,1.2,2.8,1.2c-1.1-1.8-2.8-3.2-4.8-3.9c2-0.8,4.1-1.1,6.2-0.9
	c0.1-0.2,0.1-0.4-0.1-0.5l0,0l0,0c-0.2-0.1-0.4-0.2-0.6-0.1c-1.6-0.2-3.2,0-4.7,0.6c0.5-0.5,1.1-0.9,1.7-1.2c0.7-0.8,1-1.9,0.9-3
	c0,0.8-0.5,1.6-1.2,2c-0.7,0.4-1.3,1-1.9,1.6c0.3-1.5,0.9-2.9,1.7-4.2c0.5-1.2,0.5-2.5-0.1-3.7C631.3,537.9,630.5,540.6,630.2,543.4
	z"/>
<path class="st11" d="M630.2,543.9c0,0.1,0,0.2-0.1,0.2c-0.1,0-0.2,0-0.2-0.1c0,0,0,0,0,0c-0.7-1.3-1.1-2.7-1.4-4.1
	c0-0.4-0.2-0.9-0.4-1.2c-0.2-0.4-0.6-0.6-1.1-0.6c-0.5,0.1-0.8,0.5-0.8,1c0,0.5,0.1,0.9,0.4,1.3c0.7,1.3,1.6,2.5,2.7,3.6
	c-0.4,0-0.8-0.2-1-0.6l-2.6-2.9c-0.3-0.4-0.7-0.7-1.1-0.8c-0.2,0.9-0.2,1.9,0.2,2.7c0.3,0.4,0.6,0.8,1,1.1c0.6,0.5,1.4,0.9,2.1,1.2
	l-4.6,0c-0.1,0-0.2,0-0.2,0c-0.1,0.1-0.1,0.3,0,0.4c0.1,0.1,0.2,0.2,0.4,0.2c1.7,0.6,3.5,0.9,5.2,0.7c-0.6,0.2-1.1,0.6-1.3,1.2
	c-0.1,0.4-0.2,0.9-0.1,1.3c-0.1,0.7,0.1,1.4,0.4,2c0.5-0.6,1-1.3,1.4-2c0.4-0.7,0.5-1.5,0.4-2.3c0.4,0.7,0.7,1.5,0.8,2.3
	c0.2,0.8,0.6,1.5,1.3,2c0-1.4-0.1-2.8-0.4-4.2l1.5,1.3c0.7,0.7,1.6,1.1,2.6,1.1c-1-1.7-2.6-3-4.4-3.6c1.8-0.8,3.8-1,5.8-0.8
	c0.1-0.1,0.1-0.4-0.1-0.5l0,0l0,0l0,0c-0.2-0.1-0.4-0.1-0.5-0.1c-1.5-0.2-3,0-4.4,0.5c0.5-0.4,1-0.8,1.6-1.1
	c0.6-0.8,0.9-1.8,0.8-2.8c0,0.8-0.5,1.5-1.1,1.9c-0.6,0.4-1.2,0.9-1.8,1.5c0.3-1.4,0.8-2.7,1.6-3.9c0.5-1.1,0.4-2.4-0.1-3.5
	C631.2,538.8,630.4,541.3,630.2,543.9z"/>
<linearGradient id="SVGID_2_" gradientUnits="userSpaceOnUse" x1="366.6504" y1="-185.0901" x2="775.5787" y2="-185.0901" gradientTransform="matrix(0.9426 -2.500000e-003 2.500000e-003 -0.9999 -40.6649 243.707)">
	<stop  offset="0.2169" style="stop-color:#A7B1DD"/>
	<stop  offset="0.4181" style="stop-color:#A5ADDF"/>
	<stop  offset="0.6054" style="stop-color:#9DA2E6"/>
	<stop  offset="0.7865" style="stop-color:#908FF0"/>
	<stop  offset="0.9153" style="stop-color:#847DFB"/>
</linearGradient>
<path class="st12" d="M682.5,308.3c-7.4-15.6-22.1-29-40.3-32.2c-22-3.9-33.8,7.4-51.3,20c-17.6,12.6-47.8,56-69.4,61
	c-38.7,9-73.9-33.9-113.8-35.8c-26.1-1.3-53.4,14.9-71.4,32.3c-53.8,52.4-38.1,168.1,36.6,200.1c60.3,25.8,146.7,38.7,201.8,5.2
	c52.6-31.9,105.1-129.6,113.5-187.1c0.7-4.5,1.2-9,1.5-13.5C690.9,341.4,689.9,323.9,682.5,308.3z"/>
<linearGradient id="SVGID_3_" gradientUnits="userSpaceOnUse" x1="1239.4449" y1="409.6764" x2="1437.5513" y2="607.7828" gradientTransform="matrix(0 1 -1 0 984.9287 -908.8207)">
	<stop  offset="7.937000e-002" style="stop-color:#662D91"/>
	<stop  offset="8.921000e-002" style="stop-color:#622A91"/>
	<stop  offset="0.1725" style="stop-color:#48188D"/>
	<stop  offset="0.2578" style="stop-color:#350B8B"/>
	<stop  offset="0.3455" style="stop-color:#2A0389"/>
	<stop  offset="0.4392" style="stop-color:#260089"/>
	<stop  offset="0.6043" style="stop-color:#391CA4"/>
	<stop  offset="0.9206" style="stop-color:#655AE2"/>
</linearGradient>
<path class="st13" d="M548.2,551.9c5.5-0.1,9.8-4.6,9.7-10.1V317.5c0.1-5.5-4.2-10-9.7-10.1h-144c-5.5,0.1-9.8,4.6-9.7,10.1v224.3
	c-0.1,5.5,4.2,10,9.7,10.1H548.2L548.2,551.9L548.2,551.9z"/>
<linearGradient id="SVGID_4_" gradientUnits="userSpaceOnUse" x1="1243.0594" y1="422.5162" x2="1415.4886" y2="594.9455" gradientTransform="matrix(0 1 -1 0 984.9287 -908.8207)">
	<stop  offset="0.2063" style="stop-color:#A7B1DD"/>
	<stop  offset="0.499" style="stop-color:#BBC6E1"/>
	<stop  offset="0.8518" style="stop-color:#CFDCE5"/>
</linearGradient>
<path class="st14" d="M412.9,315.6h126.6c5.7,0,10.4,4.6,10.4,10.4c0,0,0,0,0,0l0,0v188.9c0,5.7-4.6,10.4-10.4,10.4c0,0,0,0,0,0
	H412.9c-5.7,0-10.4-4.6-10.4-10.4l0,0l0,0V326C402.5,320.3,407.2,315.6,412.9,315.6C412.9,315.6,412.9,315.6,412.9,315.6
	L412.9,315.6z"/>
<linearGradient id="SVGID_5_" gradientUnits="userSpaceOnUse" x1="1441.2332" y1="502.6037" x2="1453.4824" y2="514.8531" gradientTransform="matrix(0 1 -1 0 984.9287 -908.8207)">
	<stop  offset="0.2275" style="stop-color:#5C52CF"/>
	<stop  offset="0.4286" style="stop-color:#5F55D6"/>
	<stop  offset="0.9206" style="stop-color:#655AE2"/>
</linearGradient>
<circle class="st15" cx="476.2" cy="538.5" r="8.7"/>
<rect x="416.2" y="343" class="st16" width="58.2" height="76.4"/>
<rect x="480.9" y="343" class="st16" width="58.2" height="76.4"/>
<rect x="416.1" y="436.3" class="st16" width="58.2" height="76.4"/>
<rect x="480.8" y="436.3" class="st16" width="58.2" height="76.4"/>
<path class="st17" d="M505.9,376.4l-21-7.2l-23.2,16.6l-22.7,66.3l51.8,17.7l22.7-66.3L505.9,376.4z M483.8,405.6
	c-5.4-1.8-8.2-7.7-6.4-13c1.8-5.4,7.7-8.2,13-6.4c5.4,1.8,8.2,7.7,6.4,13l0,0C495,404.6,489.2,407.4,483.8,405.6L483.8,405.6z"/>
<linearGradient id="SVGID_6_" gradientUnits="userSpaceOnUse" x1="554.65" y1="-111.5577" x2="585.064" y2="-111.5577" gradientTransform="matrix(1 0 0 -1 -69.9365 242.7339)">
	<stop  offset="0.2275" style="stop-color:#5C52CF"/>
	<stop  offset="0.4286" style="stop-color:#5F55D6"/>
	<stop  offset="0.9206" style="stop-color:#655AE2"/>
</linearGradient>
<path class="st18" d="M490,390.4c0,0-0.1,0-0.1,0c-2-0.1-3.7-1.3-4.5-3.1c-1.3-3.3-0.5-7.9,0.2-11.2c1.6-8.1,4.1-16,7.4-23.6
	c0.6-1.3,1.1-2.7,1.7-4c2.3-6.5,5.5-12.6,9.4-18.2c1.9-2.5,3.9-4.9,5.8-7.2c1.4-1.6,2.8-3.3,4.1-5l1.2,0.9c-1.3,1.7-2.7,3.3-4.1,5
	c-1.9,2.3-3.9,4.7-5.8,7.1c-3.8,5.5-6.9,11.6-9.2,17.9c-0.6,1.4-1.1,2.7-1.7,4c-3.3,7.5-5.7,15.2-7.3,23.2c-0.5,3-1.4,7.5-0.2,10.4
	c0.5,1.2,1.8,2.1,3.1,2.1c1,0.1,1.9-0.5,2.3-1.4l1.4,0.6C493,389.6,491.6,390.5,490,390.4z"/>
<linearGradient id="SVGID_7_" gradientUnits="userSpaceOnUse" x1="571.7181" y1="-107.6481" x2="599.2702" y2="-107.6481" gradientTransform="matrix(1 0 0 -1 -69.9365 242.7339)">
	<stop  offset="0.2275" style="stop-color:#5C52CF"/>
	<stop  offset="0.4286" style="stop-color:#5F55D6"/>
	<stop  offset="0.9206" style="stop-color:#655AE2"/>
</linearGradient>
<path class="st19" d="M503.1,375.4l-1.3-0.7c2.1-4.1,4.7-8.2,7.1-12.2c3.1-4.8,5.9-9.8,8.5-14.9l1.8-3.9c1.3-2.7,2.5-5.3,3.8-8
	c0.5-1,0.9-2.2,1.4-3.3c0.7-2.1,1.7-4.1,2.8-6l-0.2-0.6c0.1,0,0.1-0.1,0.2-0.1c0.4-0.2,0.9-0.3,1.3-0.1l1,0.3l-0.6,0.8
	c-1.3,1.9-2.3,4-3,6.2c-0.4,1.1-0.9,2.3-1.4,3.4c-1.3,2.7-2.5,5.3-3.8,8l-1.8,3.9c-2.6,5.2-5.4,10.2-8.5,15.1
	C507.7,367.2,505.2,371.3,503.1,375.4z"/>
<text transform="matrix(0.9295 0.3687 -0.3687 0.9295 447.2766 442.7153)" class="st20 st21 st22">%</text>
<linearGradient id="SVGID_8_" gradientUnits="userSpaceOnUse" x1="475.5195" y1="-63.33" x2="475.5195" y2="-54.939" gradientTransform="matrix(1 0 0 -1 1.000000e-005 250)">
	<stop  offset="0.1217" style="stop-color:#FC952E"/>
	<stop  offset="0.3256" style="stop-color:#FC9831"/>
	<stop  offset="0.5011" style="stop-color:#FBA13C"/>
	<stop  offset="0.6656" style="stop-color:#FAAF4E"/>
	<stop  offset="0.7249" style="stop-color:#F9B656"/>
	<stop  offset="0.8107" style="stop-color:#FABB54"/>
	<stop  offset="0.9947" style="stop-color:#FBBE52"/>
</linearGradient>
<polygon class="st23" points="397.8,313.3 402,304.9 552,304.9 553.3,313.3 "/>
<linearGradient id="SVGID_9_" gradientUnits="userSpaceOnUse" x1="478.9123" y1="-111.4192" x2="478.9123" y2="-70.5966" gradientTransform="matrix(1 0 0 -1 -69.9365 242.7339)">
	<stop  offset="0.1217" style="stop-color:#FC952E"/>
	<stop  offset="0.6032" style="stop-color:#F9B656"/>
	<stop  offset="0.7278" style="stop-color:#FABB54"/>
	<stop  offset="0.9947" style="stop-color:#FBBE52"/>
</linearGradient>
<path class="st24" d="M397.8,313.3v29.6c0,6.2,5,11.2,11.2,11.2c6.2,0,11.2-5,11.2-11.2v-29.6H397.8z"/>
<path class="st17" d="M419.9,313.3v29.6c0,6.2,5,11.2,11.2,11.2c6.2,0,11.2-5,11.2-11.2l0,0v-29.6
	C442.4,313.3,419.9,313.3,419.9,313.3z"/>
<linearGradient id="SVGID_10_" gradientUnits="userSpaceOnUse" x1="523.2771" y1="-111.4156" x2="523.2771" y2="-70.5966" gradientTransform="matrix(1 0 0 -1 -69.9365 242.7339)">
	<stop  offset="0.1217" style="stop-color:#FC952E"/>
	<stop  offset="0.6032" style="stop-color:#F9B656"/>
	<stop  offset="0.7278" style="stop-color:#FABB54"/>
	<stop  offset="0.9947" style="stop-color:#FBBE52"/>
</linearGradient>
<path class="st25" d="M442.1,313.3v29.6c0,6.2,5,11.2,11.2,11.2c6.2,0,11.2-5,11.2-11.2v-29.6H442.1z"/>
<path class="st17" d="M464.3,313.3v29.6c0,6.2,5,11.2,11.2,11.2s11.2-5,11.2-11.2v-29.6H464.3z"/>
<linearGradient id="SVGID_11_" gradientUnits="userSpaceOnUse" x1="567.6362" y1="-111.4078" x2="567.6362" y2="-70.5966" gradientTransform="matrix(1 0 0 -1 -69.9365 242.7339)">
	<stop  offset="0.1217" style="stop-color:#FC952E"/>
	<stop  offset="0.6032" style="stop-color:#F9B656"/>
	<stop  offset="0.7278" style="stop-color:#FABB54"/>
	<stop  offset="0.9947" style="stop-color:#FBBE52"/>
</linearGradient>
<path class="st26" d="M486.5,313.3v29.6c0,6.2,5,11.2,11.2,11.2c6.2,0,11.2-5,11.2-11.2v-29.6H486.5z"/>
<path class="st17" d="M508.7,313.3v29.6c0,6.2,5,11.2,11.2,11.2c6.2,0,11.2-5,11.2-11.2l0,0v-29.6H508.7z"/>
<linearGradient id="SVGID_12_" gradientUnits="userSpaceOnUse" x1="612.001" y1="-111.4082" x2="612.001" y2="-70.5966" gradientTransform="matrix(1 0 0 -1 -69.9365 242.7339)">
	<stop  offset="0.1217" style="stop-color:#FC952E"/>
	<stop  offset="0.6032" style="stop-color:#F9B656"/>
	<stop  offset="0.7278" style="stop-color:#FABB54"/>
	<stop  offset="0.9947" style="stop-color:#FBBE52"/>
</linearGradient>
<path class="st27" d="M530.8,313.3v29.6c0,6.2,5,11.2,11.2,11.2c6.2,0,11.2-5,11.2-11.2v-29.6L530.8,313.3L530.8,313.3L530.8,313.3z
	"/>
<linearGradient id="SVGID_13_" gradientUnits="userSpaceOnUse" x1="553.3328" y1="-179.2444" x2="686.4789" y2="-200.9561" gradientTransform="matrix(1 0 0 -1 1.000000e-005 250)">
	<stop  offset="0.2275" style="stop-color:#5C52CF"/>
	<stop  offset="0.4286" style="stop-color:#5F55D6"/>
	<stop  offset="0.9206" style="stop-color:#655AE2"/>
</linearGradient>
<path class="st28" d="M562.3,397.2h115.3c2.4,0,4.3,1.9,4.3,4.3l0,0v77.1c0,2.4-1.9,4.3-4.3,4.3H562.3c-2.4,0-4.3-1.9-4.3-4.3
	c0,0,0,0,0,0l0,0v-77.1C557.9,399.1,559.9,397.2,562.3,397.2z"/>
<rect x="557.9" y="442.9" class="st29" width="124" height="19.5"/>
<linearGradient id="SVGID_14_" gradientUnits="userSpaceOnUse" x1="611.2138" y1="-160.7816" x2="611.2138" y2="-154.6192" gradientTransform="matrix(1 0 0 -1 1.000000e-005 250)">
	<stop  offset="8.466001e-002" style="stop-color:#847DFB"/>
	<stop  offset="0.2135" style="stop-color:#908FF0"/>
	<stop  offset="0.3947" style="stop-color:#9DA2E6"/>
	<stop  offset="0.5819" style="stop-color:#A5ADDF"/>
	<stop  offset="0.7831" style="stop-color:#A7B1DD"/>
</linearGradient>
<rect x="574.3" y="404.6" class="st30" width="73.9" height="6.2"/>
<linearGradient id="SVGID_15_" gradientUnits="userSpaceOnUse" x1="588.3976" y1="-182.8914" x2="588.3976" y2="-171.5921" gradientTransform="matrix(1 0 0 -1 1.000000e-005 250)">
	<stop  offset="8.466001e-002" style="stop-color:#847DFB"/>
	<stop  offset="0.2135" style="stop-color:#908FF0"/>
	<stop  offset="0.3947" style="stop-color:#9DA2E6"/>
	<stop  offset="0.5819" style="stop-color:#A5ADDF"/>
	<stop  offset="0.7831" style="stop-color:#A7B1DD"/>
</linearGradient>
<rect x="574.3" y="421.6" class="st31" width="28.2" height="11.3"/>
<linearGradient id="SVGID_16_" gradientUnits="userSpaceOnUse" x1="650.1378" y1="-182.8914" x2="650.1378" y2="-171.5921" gradientTransform="matrix(1 0 0 -1 1.000000e-005 250)">
	<stop  offset="8.466001e-002" style="stop-color:#847DFB"/>
	<stop  offset="0.2135" style="stop-color:#908FF0"/>
	<stop  offset="0.3947" style="stop-color:#9DA2E6"/>
	<stop  offset="0.5819" style="stop-color:#A5ADDF"/>
	<stop  offset="0.7831" style="stop-color:#A7B1DD"/>
</linearGradient>
<rect x="626.9" y="421.6" class="st32" width="46.4" height="11.3"/>
<path class="st33" d="M590.6,460.6c-1.3-0.7-2.4-1.7-3.3-2.9c-1-1.7-1.6-2.7-0.2-3.3c0.7-0.6,1.6-0.6,2.3-0.1c1.9,0.9,0.6,0,2.7,4.8
	L590.6,460.6z"/>
<linearGradient id="SVGID_17_" gradientUnits="userSpaceOnUse" x1="639.4653" y1="-199.7662" x2="673.2571" y2="-257.9817" gradientTransform="matrix(1 0 0 -1 -69.9365 242.7339)">
	<stop  offset="5.290000e-003" style="stop-color:#FBBE52"/>
	<stop  offset="0.2722" style="stop-color:#FABB54"/>
	<stop  offset="0.3968" style="stop-color:#F9B656"/>
	<stop  offset="0.8783" style="stop-color:#FC952E"/>
</linearGradient>
<path class="st34" d="M585.4,433c-10.4,0-20.3,4.3-27.5,11.8V497c14.4,15.2,38.4,15.8,53.6,1.4c15.2-14.4,15.8-38.4,1.4-53.6
	C605.7,437.2,595.8,433,585.4,433z"/>
<path class="st35" d="M585.4,435.2c-10.6,0-20.7,4.7-27.5,13v7.5c8.4-15.2,27.5-20.7,42.7-12.3c15.2,8.4,20.7,27.5,12.3,42.7
	s-27.5,20.7-42.7,12.3c-5.2-2.9-9.5-7.1-12.3-12.3v7.5c12.6,15.2,35,17.3,50.2,4.8s17.3-35,4.8-50.2
	C606.1,439.9,596,435.2,585.4,435.2z"/>
<path class="st17" d="M551.6,367.5h108.3c8.2,0,14.8,6.6,14.8,14.8c0,0,0,0,0,0v1.7c0,8.2-6.6,14.8-14.8,14.8H551.6
	c-8.2,0-14.8-6.6-14.8-14.8l0,0v-1.7C536.8,374.2,543.4,367.5,551.6,367.5L551.6,367.5L551.6,367.5z"/>
<linearGradient id="SVGID_18_" gradientUnits="userSpaceOnUse" x1="542.992" y1="-133.158" x2="561.1" y2="-133.158" gradientTransform="matrix(1 0 0 -1 1.000000e-005 250)">
	<stop  offset="5.290000e-003" style="stop-color:#FBBE52"/>
	<stop  offset="0.2722" style="stop-color:#FABB54"/>
	<stop  offset="0.3968" style="stop-color:#F9B656"/>
	<stop  offset="0.8783" style="stop-color:#FC952E"/>
</linearGradient>
<polygon class="st36" points="552,374.5 554.8,380.2 561.1,381.1 556.6,385.5 557.6,391.8 552,388.8 546.4,391.8 547.5,385.5 
	543,381.1 549.2,380.2 "/>
<linearGradient id="SVGID_19_" gradientUnits="userSpaceOnUse" x1="564.927" y1="-133.158" x2="583.034" y2="-133.158" gradientTransform="matrix(1 0 0 -1 1.000000e-005 250)">
	<stop  offset="5.290000e-003" style="stop-color:#FBBE52"/>
	<stop  offset="0.2722" style="stop-color:#FABB54"/>
	<stop  offset="0.3968" style="stop-color:#F9B656"/>
	<stop  offset="0.8783" style="stop-color:#FC952E"/>
</linearGradient>
<polygon class="st37" points="574,374.5 576.8,380.2 583,381.1 578.5,385.5 579.6,391.8 574,388.8 568.4,391.8 569.5,385.5 
	564.9,381.1 571.2,380.2 "/>
<linearGradient id="SVGID_20_" gradientUnits="userSpaceOnUse" x1="586.859" y1="-133.158" x2="604.97" y2="-133.158" gradientTransform="matrix(1 0 0 -1 1.000000e-005 250)">
	<stop  offset="5.290000e-003" style="stop-color:#FBBE52"/>
	<stop  offset="0.2722" style="stop-color:#FABB54"/>
	<stop  offset="0.3968" style="stop-color:#F9B656"/>
	<stop  offset="0.8783" style="stop-color:#FC952E"/>
</linearGradient>
<polygon class="st38" points="595.9,374.5 598.7,380.2 605,381.1 600.4,385.5 601.5,391.8 595.9,388.8 590.3,391.8 591.4,385.5 
	586.9,381.1 593.1,380.2 "/>
<linearGradient id="SVGID_21_" gradientUnits="userSpaceOnUse" x1="608.799" y1="-133.158" x2="626.904" y2="-133.158" gradientTransform="matrix(1 0 0 -1 1.000000e-005 250)">
	<stop  offset="5.290000e-003" style="stop-color:#FBBE52"/>
	<stop  offset="0.2722" style="stop-color:#FABB54"/>
	<stop  offset="0.3968" style="stop-color:#F9B656"/>
	<stop  offset="0.8783" style="stop-color:#FC952E"/>
</linearGradient>
<polygon class="st39" points="617.8,374.5 620.7,380.2 626.9,381.1 622.4,385.5 623.4,391.8 617.8,388.8 612.3,391.8 613.3,385.5 
	608.8,381.1 615.1,380.2 "/>
<linearGradient id="SVGID_22_" gradientUnits="userSpaceOnUse" x1="630.729" y1="-133.158" x2="648.838" y2="-133.158" gradientTransform="matrix(1 0 0 -1 1.000000e-005 250)">
	<stop  offset="5.290000e-003" style="stop-color:#FBBE52"/>
	<stop  offset="0.2722" style="stop-color:#FABB54"/>
	<stop  offset="0.3968" style="stop-color:#F9B656"/>
	<stop  offset="0.8783" style="stop-color:#FC952E"/>
</linearGradient>
<polygon class="st40" points="639.8,374.5 642.6,380.2 648.8,381.1 644.3,385.5 645.4,391.8 639.8,388.8 634.2,391.8 635.3,385.5 
	630.7,381.1 637,380.2 "/>
<linearGradient id="SVGID_23_" gradientUnits="userSpaceOnUse" x1="652.665" y1="-133.158" x2="670.772" y2="-133.158" gradientTransform="matrix(1 0 0 -1 1.000000e-005 250)">
	<stop  offset="8.466001e-002" style="stop-color:#A7B1DD"/>
	<stop  offset="0.1553" style="stop-color:#AFBADF"/>
	<stop  offset="0.356" style="stop-color:#C1CDE2"/>
	<stop  offset="0.5616" style="stop-color:#CBD8E4"/>
	<stop  offset="0.7778" style="stop-color:#CFDCE5"/>
</linearGradient>
<polygon class="st41" points="661.7,374.5 664.5,380.2 670.8,381.1 666.2,385.5 667.3,391.8 661.7,388.8 656.1,391.8 657.2,385.5 
	652.7,381.1 658.9,380.2 "/>
<linearGradient id="SVGID_24_" gradientUnits="userSpaceOnUse" x1="405.9499" y1="-370.5347" x2="648.8737" y2="-370.5347" gradientTransform="matrix(1 0 0 -1 1.000000e-005 250)">
	<stop  offset="0.1376" style="stop-color:#FFFFFF"/>
	<stop  offset="0.2775" style="stop-color:#FBFCFD"/>
	<stop  offset="0.4144" style="stop-color:#EFF1F9"/>
	<stop  offset="0.5501" style="stop-color:#DCE0F1"/>
	<stop  offset="0.6842" style="stop-color:#C0C7E7"/>
	<stop  offset="0.7831" style="stop-color:#A7B1DD"/>
</linearGradient>
<ellipse class="st42" cx="527.4" cy="620.5" rx="121.5" ry="13.3"/>
<path class="st17" d="M561.4,517.5l-11.5,1.7c-1.6-11.1-10.7-18.9-20.2-17.5c-9.5,1.4-15.9,11.6-14.3,22.7l-13.6,2l7.8,97.2
	l73.2-10.9L561.4,517.5z M530.4,505.9c7.1-1.1,14,5.2,15.3,13.9l-25.8,3.8C518.5,514.9,523.2,507,530.4,505.9L530.4,505.9
	L530.4,505.9z"/>
<path class="st16" d="M569.8,553.4l-8.5,1.3c-1.2-8.2-7.9-14-14.9-12.9c-7,1-11.7,8.5-10.5,16.7l-10.1,1.5l5.8,71.6l54-8
	L569.8,553.4z M546.9,544.9c5.3-0.8,10.3,3.8,11.3,10.2l-19,2.8C538.2,551.5,541.7,545.7,546.9,544.9L546.9,544.9L546.9,544.9z"/>
<linearGradient id="SVGID_25_" gradientUnits="userSpaceOnUse" x1="624.0327" y1="-387.7064" x2="690.7492" y2="-320.9899" gradientTransform="matrix(1 0 0 -1 -69.9365 242.7339)">
	<stop  offset="7.937000e-002" style="stop-color:#662D91"/>
	<stop  offset="0.2596" style="stop-color:#663FB1"/>
	<stop  offset="0.4484" style="stop-color:#654ECC"/>
	<stop  offset="0.6166" style="stop-color:#6557DC"/>
	<stop  offset="0.746" style="stop-color:#655AE2"/>
</linearGradient>
<path class="st43" d="M611.8,554.7h-9.4c0-9.1-6.4-16.5-14.2-16.5c-7.8,0-14.2,7.4-14.2,16.5h-11.2l-5.3,79.1h60.2L611.8,554.7z
	 M588.2,541.7c5.9,0,10.6,5.8,10.6,13h-21.2C577.6,547.6,582.3,541.7,588.2,541.7L588.2,541.7z"/>
<path class="st17" d="M597.6,474.8c-2.5-3.2-7.1-3.8-10.3-1.3c-0.2,0.2-0.4,0.4-0.6,0.5c-1,1-1.5,2.4-1.5,3.9c0,1.1,0.3,2.2,0.9,3.1
	c0.6,1.1,1.9,1.8,3.2,1.5c0.6-0.2,1.4-0.7,0.9-1.4c-0.6-0.7-1.1-1.6-1.2-2.5c-0.1-1.2,0.5-2.3,1.5-3c1-0.6,2.3-0.5,3.2,0.3
	c0.4,0.5,0.7,1,0.9,1.7c1.1,3.8-0.8,9.1-5.3,9.4c-2,0.2-3.8-1.1-4.3-3c-0.9-2.1-1.3-4.4-1.2-6.7v-11.1h15.2v-5h-15.3v-7.4
	c0-1.7-0.4-3.3-1.3-4.7c-2.1-2.7-5.8-3.4-8.8-1.8c-0.7,0.4-1.3,0.9-1.8,1.5c-0.9,1.2-1.4,2.7-1.3,4.2h3.7c0-0.7,0.2-1.3,0.4-1.9
	c0.3-0.7,0.8-1.2,1.6-1.4c2.2-0.3,2.5,2.7,2.5,4.3v7.4h-4.7v5h4.6v12.4c-0.1,2.6,0.6,5.2,1.9,7.5c3.2,5.3,12,4.9,16,0.7
	c1.8-1.9,2.7-4.5,2.6-7.1C599.2,478,598.7,476.2,597.6,474.8z"/>
<linearGradient id="SVGID_26_" gradientUnits="userSpaceOnUse" x1="2391.1001" y1="3716.2292" x2="2479.0903" y2="3716.2292" gradientTransform="matrix(0.2813 0.1443 -0.1583 0.3309 290.7008 -935.9913)">
	<stop  offset="0.2222" style="stop-color:#FFFFFF"/>
	<stop  offset="0.4038" style="stop-color:#EAECF6"/>
	<stop  offset="0.769" style="stop-color:#BAC2E3"/>
	<stop  offset="0.9153" style="stop-color:#A5AFDB"/>
</linearGradient>
<path class="st44" d="M399.7,651.4c-0.5,1-6.1-0.8-13.1-4.4c-6.9-3.6-12.2-7.3-11.7-8.3c0.5-1,6.5,1,13.5,4.6
	C395.3,646.9,400.1,650.4,399.7,651.4z"/>
<path class="st45" d="M390.1,636.2c-2.5-1.2-4.7-2.8-6.6-4.8c-5.8,2.7-4.1,6.6-2.3,7.5c2.2,0.9,4.3,2.2,6.2,3.6
	c4.2,3,13.2,6.4,14.3,4.8s-4-7.6-5.6-8.9C394,637.8,392,637.1,390.1,636.2z"/>
<path class="st46" d="M393.1,634.7l8.5-27.3l-9.7-3l-6.7,21.7l0,0l0,0l-0.6,2.1c-0.9,2.2-2.4,3.8-2.4,5c0,1.5,4,4.2,5.6,5.2
	c3.1,2,9.2,1,8.4-0.1C395.6,637.8,394.3,636.2,393.1,634.7z"/>
<path class="st45" d="M375.1,641.3c-2.7-0.2-5.4-1-7.8-2.3c-4.5,4.5-1.6,7.6,0.3,7.8c2.4,0.1,4.8,0.6,7,1.3c5,1.4,14.6,1.6,15.1-0.3
	c0.4-1.9-6.4-5.7-8.3-6.5C379.4,641.5,377.2,641.5,375.1,641.3z"/>
<path class="st46" d="M381.5,641.3c-0.6-0.4-2.6-1.6-4.2-2.5v-34.2h-10.2v28.9h0l0,0v3.2c-0.4,1.5-0.5,3-0.5,4.5
	c0.5,1.4,5.2,2.6,7,3C377.2,645.1,382.6,642,381.5,641.3z"/>
<path class="st47" d="M399.4,454.6c-3.7-4.6-7.9-9.3-7.9-9.3l-8.3-7.8l0,0l-3.1-3.9l-14.9,9.6c-0.2,5.8-2,11.4-5.2,16.3
	c-5.3,7.7,0.6,20.5,6.9,22.1l10.1-11.1l18,6.2C398.2,473.4,406.2,463.1,399.4,454.6z"/>
<path class="st48" d="M416,485.3c-0.5,0-1.1,0-1.6-0.1l-31.6-3.5c-4.6-0.7-11.2-7.4-9.3-11.5c1.4-3.1,4.9-4.7,8.1-3.7l32.7,7
	L416,485.3z"/>
<path class="st48" d="M412.9,474.1l28.4-19.4l4,5l-23.4,23.2c-4.1,3.6-11.8,3.4-13.5-1.8l0,0C407.1,477.6,409.5,475.8,412.9,474.1z"
	/>
<circle class="st48" cx="447.3" cy="454.3" r="6.4"/>
<path class="st48" d="M445.1,448.3l5.6-4.1c0.5-0.4,1.1-0.3,1.5,0.1l0,0c0.3,0.4,0.3,0.9,0,1.3l-5.2,5.5L445.1,448.3z"/>
<path class="st49" d="M392.7,466.2c5.1,0.8,10,2.5,14.4,5.1l-6,13.4l-6.5-1.7L392.7,466.2z"/>
<polygon class="st50" points="398.4,484 397.6,474.5 403.4,479.6 401.2,484.7 "/>
<path class="st48" d="M343.4,502.4c0.2-0.5,0.5-1,0.8-1.4l16.4-27.3c2.5-3.9,11.4-7.1,14.4-3.6c2.2,2.6,2.2,6.4,0,8.9l-20,26.8
	L343.4,502.4z"/>
<path class="st49" d="M368.3,467c-6.1,2.6-11.2,7.1-14.4,13l13.7,11c0,0,13.2-11.7,8.3-22L368.3,467z"/>
<path class="st49" d="M369.2,466.8l13.6-2.1l9.9,1.5c4.2,0.7,7.1,4.6,6.6,8.9l-3.2,31.8h-28.6l-5.1-27.9c-0.5-2.6-0.2-5.3,0.9-7.7
	l0,0C364.5,468.9,366.7,467.2,369.2,466.8z"/>
<polygon class="st50" points="365,492.6 370.2,485.4 367.6,506.8 "/>
<path class="st49" d="M395.3,472.2c0,0,6.5,5.2,6.2,10.7s-7.9,9.2-7.9,9.2L395.3,472.2z"/>
<path class="st48" d="M376.7,465.6l-3.8,0.5c0,0,1.9,4.5,10.2,4.5c6.9,0,6.2-5.1,6.2-5.1l-6.4-1L376.7,465.6z"/>
<path class="st51" d="M382.7,530.5l12,35.4L382,616.5c5.6,1.3,14.8,3.2,24.4,5l12.6-52.1c0.6-2.3,0.5-4.7-0.3-7L396,506.8l-28.6,0.1
	L382.7,530.5z"/>
<path class="st51" d="M386.5,541.6l-0.3-12.6c5.9,9.1,8.1,20,6.4,30.7L386.5,541.6z"/>
<path class="st51" d="M367.6,506.8c0,0-5.4,3.3-5.4,19.8c0,18.4,2.2,53.2-4,92.6c8.6,0.2,16.7,0.2,24.6,0.2c0,0,7.4-38.9,4.8-61.3
	c-2.6-22.4,0-34.6,0-34.6l-10.6-8.8L367.6,506.8z"/>
<path class="st47" d="M395.7,440.4c0.3,8.4-6.2,15.6-14.6,16.1c-8.5,0.4-15.7-6.1-16.1-14.6c-0.4-8.5,6.1-15.7,14.6-16.1
	C388.1,425.4,395.7,430.8,395.7,440.4z"/>
<path class="st48" d="M376.7,465l0.1-13.2l9.4,0l-0.1,13.2c0,2.6-2.1,4.7-4.7,4.7c0,0,0,0,0,0l0,0
	C378.8,469.7,376.6,467.6,376.7,465z"/>
<path class="st47" d="M375.2,450.2c0,0,2.1,11.3,10.9,11.1l0-5.8L375.2,450.2z"/>
<path class="st52" d="M384.4,458.4L384.4,458.4c5.9-0.3,10.6-4.1,10.3-10l-0.5-10.2c-0.2-4.4-5.2-8.7-7.8-8.6l-9.3,3.1
	c-2.6,0.1-4.6,2.3-4.4,4.9l0.5,10.1C373.7,453.7,378.5,458.2,384.4,458.4z"/>
<circle class="st53" cx="383.5" cy="444.3" r="0.9"/>
<circle class="st53" cx="391.3" cy="443.9" r="0.9"/>
<path class="st48" d="M388.2,445.9l1.1,1.8c0,0-0.1,1.3-1.9,0.9"/>
<path class="st53" d="M381.1,441.9c0.1,0,0.1,0,0.2,0l3.8-0.4c0.4,0,0.7-0.4,0.7-0.9c0-0.4-0.4-0.7-0.8-0.7h0l-3.8,0.4
	c-0.4,0-0.7,0.4-0.7,0.8C380.5,441.6,380.8,441.9,381.1,441.9z"/>
<path class="st53" d="M390.4,441.3c0.1,0,0.1,0,0.2,0l2.3-0.2c0.4,0,0.7-0.4,0.7-0.9c0-0.4-0.4-0.7-0.8-0.7l0,0l-2.3,0.2
	c-0.4,0-0.7,0.4-0.7,0.8C389.7,440.9,390,441.2,390.4,441.3z"/>
<path class="st54" d="M383.9,450.8l6.8-0.9c0,0-0.9,2.9-3.2,3C386,453.2,384.4,452.3,383.9,450.8z"/>
<path class="st47" d="M389.8,431.7c-5.5,6-12.5,10.5-20.2,13.1c0,0-2.4-8.5,4.2-13.8c3.4-3.1,8.3-3.9,12.5-1.9L389.8,431.7z"/>
<path class="st47" d="M387.6,431.2c1.9,2.6,4.2,4.8,6.9,6.6c0,0-1.4-7.4-7.9-8.4L387.6,431.2z"/>
<path class="st47" d="M376.8,439.7c0,0,1.6,7.4-2.1,8.3l-1.3-7L376.8,439.7z"/>
<circle class="st52" cx="372.2" cy="446.3" r="3.8"/>
<path class="st16" d="M394.1,535.2l-5.3-0.7c0.7-5.1-2.3-9.8-6.7-10.4c-4.4-0.6-8.5,3.1-9.2,8.2l-6.3-0.9l-9,44.1l33.9,4.6
	L394.1,535.2z M381.8,526.1c3.3,0.4,5.5,4.1,5,8.1l-12-1.6C375.3,528.5,378.5,525.6,381.8,526.1L381.8,526.1L381.8,526.1
	L381.8,526.1z"/>
<linearGradient id="SVGID_27_" gradientUnits="userSpaceOnUse" x1="1291.4009" y1="4163.8008" x2="1379.3943" y2="4163.8008" gradientTransform="matrix(0.3175 1.227000e-002 -1.410000e-002 0.3667 10.0397 -891.437)">
	<stop  offset="0.2222" style="stop-color:#FFFFFF"/>
	<stop  offset="0.4038" style="stop-color:#EAECF6"/>
	<stop  offset="0.769" style="stop-color:#BAC2E3"/>
	<stop  offset="0.9153" style="stop-color:#A5AFDB"/>
</linearGradient>
<path class="st55" d="M389.3,652.3c0,1.1-6,1.8-13.8,1.5c-7.8-0.3-14.1-1.5-14.1-2.6c0-1.1,6.4-1.8,14.3-1.5
	C383.4,650.1,389.3,651.2,389.3,652.3z"/>
<path class="st48" d="M353.1,502l28.5,21.4l-2.5,4.9l-30.8-14.6c-4.9-2.4-7.6-9.6-3.5-13.2l0,0C347.7,498.1,350.3,499.6,353.1,502z"
	/>
<circle class="st48" cx="381.4" cy="525.9" r="6.6"/>
<text transform="matrix(1 0 0 1 1000.8201 336.4698)" class="st56 st57 st58">% Qv‡o kwcs Kiyb</text>
<text transform="matrix(1 0 0 1 983.5849 418.9815)" class="st49 st59 st60">wewfbœ</text>
<text transform="matrix(1 0 0 1 1026.9023 418.9815)" class="st49 st59 st60"> </text>
<text transform="matrix(1 0 0 1 1034.2217 418.9815)" class="st49 st59 st60">†cÖvWv±</text>
<text transform="matrix(1 0 0 1 1087.0674 418.9815)" class="st49 st59 st60"> </text>
<text transform="matrix(1 0 0 1 1094.3877 418.9815)" class="st49 st59 st60">Gi</text>
<text transform="matrix(1 0 0 1 1118.6279 418.9815)" class="st49 st59 st60"> </text>
<text transform="matrix(1 0 0 1 1125.9473 418.9815)" class="st49 st59 st60">Qvo</text>
<text transform="matrix(1 0 0 1 1154.2178 418.9815)" class="st49 st59 st60"> </text>
<text transform="matrix(1 0 0 1 1161.5381 418.9815)" class="st49 st59 st60">†c‡Z</text>
<text transform="matrix(1 0 0 1 1202.2891 418.9815)" class="st49 st59 st60"> </text>
<text transform="matrix(1 0 0 1 1209.6084 418.9815)" class="st49 st59 st60">‡PvL</text>
<text transform="matrix(1 0 0 1 1242.9922 418.9815)" class="st49 st59 st60"> </text>
<text transform="matrix(1 0 0 1 1250.3125 418.9815)" class="st49 st59 st60">ivLyb</text>
<text transform="matrix(1 0 0 1 1287.8955 418.9815)" class="st49 st59 st60"> </text>
<text transform="matrix(1 0 0 1 1295.2148 418.9815)" class="st51 st59 st60">eoevRvi</text>
<text transform="matrix(1 0 0 1 1363.3252 418.9815)" class="st51 st59 st60"> </text>
<text transform="matrix(1 0 0 1 1370.6455 418.9815)" class="st49 st59 st60">AbjvBb </text>
<text transform="matrix(1 0 0 1 983.5849 447.7823)" class="st49 st59 st60">kwcs</text>
<text transform="matrix(1 0 0 1 1020.7119 447.7823)" class="st49 st59 st60 st61"> </text>
<text transform="matrix(1 0 0 1 1029.5625 447.7823)" class="st49 st59 st60">I‡qe</text>
<text transform="matrix(1 0 0 1 1071.0576 447.7823)" class="st49 st59 st60 st61"> </text>
<text transform="matrix(1 0 0 1 1079.9092 447.7823)" class="st49 st59 st60">†c‡R</text>
<text transform="matrix(1 0 0 1 1121.1885 447.7823)" class="st49 st59 st60 st61"> </text>
<text transform="matrix(1 0 0 1 1130.0391 447.7823)" class="st49 st59 st60">Ges</text>
<text transform="matrix(1 0 0 1 1161.8379 447.7823)" class="st49 st59 st60 st61"> </text>
<text transform="matrix(1 0 0 1 1170.6895 447.7823)" class="st49 st59 st60">Kzcyb</text>
<text transform="matrix(1 0 0 1 1207.9854 447.7823)" class="st49 st59 st60 st61"> </text>
<text transform="matrix(1 0 0 1 1216.8359 447.7823)" class="st49 st59 st60">†KvW</text>
<text transform="matrix(1 0 0 1 1255.0908 447.7823)" class="st49 st59 st60 st61"> </text>
<text transform="matrix(1 0 0 1 1263.9414 447.7823)" class="st49 st59 st60">wbb</text>
<text transform="matrix(1 0 0 1 1290.0049 447.7823)" class="st49 st59 st60 st61"> </text>
<text transform="matrix(1 0 0 1 1298.8564 447.7823)" class="st49 st59 st60">I</text>
<text transform="matrix(1 0 0 1 1311.8164 447.7823)" class="st49 st59 st60 st61"> </text>
<text transform="matrix(1 0 0 1 1320.667 447.7823)" class="st49 st59 st60">wewfbœ</text>
<text transform="matrix(1 0 0 1 1363.9844 447.7823)" class="st49 st59 st60 st61"> </text>
<text transform="matrix(1 0 0 1 1372.835 447.7823)" class="st49 st59 st60">%</text>
<text transform="matrix(1 0 0 1 1390.8584 447.7823)" class="st49 st59 st60 st61"> </text>
<text transform="matrix(1 0 0 1 1399.71 447.7823)" class="st49 st59 st60">Qv‡o </text>
<text transform="matrix(1 0 0 1 1196.1221 476.5821)" class="st49 st59 st60">kwcs Kiæb AvcbRb‡`i mv‡_|</text>
</svg>
