<?xml version="1.0" encoding="utf-8"?>
<!-- Generator: Adobe Illustrator 19.0.0, SVG Export Plug-In . SVG Version: 6.00 Build 0)  -->
<svg version="1.1" id="Layer_1" xmlns="http://www.w3.org/2000/svg" xmlns:xlink="http://www.w3.org/1999/xlink" x="0px" y="0px"
	 viewBox="294 122 1200 550" style="enable-background:new 294 122 1200 550;" xml:space="preserve">
<style type="text/css">
	.st0{fill:url(#SVGID_1_);}
	.st1{fill:#E9EEFF;}
	.st2{fill:#D1DCFF;}
	.st3{fill:#FFCC38;}
	.st4{fill:#485055;}
	.st5{fill:#FFE7A2;}
	.st6{fill:#E0E8FF;}
	.st7{fill:#4B78FF;}
	.st8{fill:#FF86CD;}
	.st9{opacity:0.4;}
	.st10{fill:#FFFFFF;}
	.st11{fill:#B2C5FF;}
	.st12{fill:#94AFFF;}
	.st13{fill:#98B2FF;}
	.st14{fill:#C2D1FF;}
	.st15{fill:url(#SVGID_2_);}
	.st16{fill:#353892;}
	.st17{fill:#F9BFAF;}
	.st18{fill:url(#SVGID_3_);}
	.st19{fill:#DBE4FF;}
	.st20{fill:#BFCFFF;}
	.st21{fill:#FFDBF0;}
	.st22{fill:#FF94D2;}
	.st23{fill:#FFB8E2;}
	.st24{fill:#FFA9DB;}
	.st25{fill:#369747;}
	.st26{fill:#EFC4A3;}
	.st27{fill:#FCDFBB;}
	.st28{fill:#81441D;}
	.st29{fill:#FFB700;}
	.st30{fill:#2C338E;}
	.st31{fill:#6CC071;}
	.st32{opacity:0.95;fill:#94CE97;enable-background:new    ;}
	.st33{opacity:0.25;fill:none;stroke:#ED644B;stroke-width:0.6137;stroke-miterlimit:10;enable-background:new    ;}
	.st34{opacity:0.25;}
	.st35{fill:#ED644B;}
	.st36{opacity:0.85;}
	.st37{fill:#464FA2;}
	.st38{fill:#3B439B;}
	.st39{fill:#F4847F;}
	.st40{opacity:0.5;fill:#ED644B;enable-background:new    ;}
	.st41{fill:#FFFFF3;}
	.st42{fill:#363B92;}
	.st43{opacity:0.5;fill:#29235C;enable-background:new    ;}
	.st44{fill:#303030;}
	.st45{fill:#FFAA00;}
	.st46{fill:#339933;}
	.st47{font-family:'KongshoMJ';}
	.st48{font-size:70px;}
	.st49{font-family:'SutonnyMJ';}
	.st50{font-size:24px;}
</style>
<title>wc-bg5</title>
<linearGradient id="SVGID_1_" gradientUnits="userSpaceOnUse" x1="294" y1="607" x2="1494" y2="607" gradientTransform="matrix(1 0 0 1 0 -210)">
	<stop  offset="0" style="stop-color:#239400;stop-opacity:0.1"/>
	<stop  offset="1" style="stop-color:#2300BF;stop-opacity:0.1"/>
</linearGradient>
<rect x="294" y="122" class="st0" width="1200" height="550"/>
<path class="st1" d="M456,330.9c-0.3,0-0.7,0-1.2,0c1.4-6.2-2.5-12.3-8.7-13.7c-2.1-0.5-4.3-0.3-6.4,0.4c-6.3-7.1-17.1-7.7-24.2-1.5
	c-3.7,3.3-5.8,7.9-5.8,12.9c0,0.6,0,1.2,0.1,1.9c-0.3,0-0.6,0-0.9,0c-6.9,0.4-12.3,6.3-11.9,13.3c0.4,6.4,5.5,11.5,11.9,11.9h47
	c7,0,12.6-5.6,12.6-12.6C468.6,336.5,463,330.8,456,330.9z"/>
<path class="st2" d="M418.3,377.2c-2.4,0-4.8,0.8-6.7,2.2c-0.3-7.4-6.5-13.1-13.9-12.7c-2.7,0.1-5.3,1.1-7.5,2.7
	c-1.8-8-9.8-13-17.7-11.1c-8,1.8-13,9.8-11.1,17.7c0.1,0.5,0.2,1,0.4,1.4c-5.1,0.6-8.9,4.9-8.9,10c0,6.2,5,10.3,11.2,10.3h54.3
	c6.2,0,11.2-4.1,11.2-10.3S424.5,377.2,418.3,377.2z"/>
<path class="st3" d="M718.7,434.7v-145c0-5.9-4.8-10.7-10.7-10.7H604.9c-5.9,0-10.7,4.8-10.7,10.7v145H718.7z"/>
<rect x="668.6" y="279" class="st4" width="33.2" height="155.7"/>
<rect x="636" y="296.9" class="st5" width="9.6" height="38.5"/>
<rect x="613.4" y="296.9" class="st5" width="9.6" height="38.5"/>
<path class="st6" d="M590.8,334.1h131.3c11.4,0,20.6,9.2,20.6,20.6l0,0v269.1c0,11.4-9.2,20.6-20.6,20.6H590.8
	c-11.4,0-20.6-9.2-20.6-20.6l0,0V354.6C570.2,343.3,579.4,334.1,590.8,334.1z"/>
<rect x="578.5" y="394.6" class="st7" width="155.7" height="129.7"/>
<rect x="578.5" y="526.5" class="st8" width="31.1" height="71.4"/>
<rect x="609.7" y="526.5" class="st5" width="31.1" height="71.4"/>
<rect x="640.8" y="526.5" class="st8" width="31.1" height="71.4"/>
<rect x="672" y="526.5" class="st5" width="31.1" height="71.4"/>
<rect x="703.1" y="526.5" class="st8" width="31.1" height="71.4"/>
<g class="st9">
	
		<image style="overflow:visible;opacity:0.2;enable-background:new    ;" width="90" height="35" xlink:href="2B172DDC.png"  transform="matrix(2.3785 0 0 2.3199 549.3609 328.0916)">
	</image>
	<rect x="578.5" y="358.3" class="st10" width="155.7" height="21.2"/>
</g>
<circle class="st11" cx="656.4" cy="621" r="14.3"/>
<circle class="st12" cx="656.4" cy="621" r="7.2"/>
<path class="st11" d="M660.7,349.5h-24.6c-1.7,0-3.1-1.4-3.1-3.1v0c0-1.7,1.4-3.1,3.1-3.1h24.6c1.7,0,3.1,1.4,3.1,3.1v0l0,0
	C663.8,348.1,662.4,349.5,660.7,349.5L660.7,349.5z"/>
<circle class="st11" cx="676.7" cy="346.4" r="3.1"/>
<polygon class="st13" points="552,530 578.5,523.3 734.3,523.3 760.8,530 668.2,532.3 "/>
<rect x="552" y="529.8" class="st11" width="208.8" height="11.6"/>
<polygon class="st8" points="760.5,400.4 552.4,400.4 578.5,358.3 734.3,358.3 "/>
<polygon class="st5" points="718.8,400.4 594,400.4 608.3,358.3 704.5,358.3 "/>
<polygon class="st8" points="677.2,400.4 635.6,400.4 639.1,358.3 673.8,358.3 "/>
<path class="st5" d="M552.4,400.4H594v0.8c0,9.2-7.4,16.6-16.6,16.6H569c-9.2,0-16.6-7.4-16.6-16.6l0,0V400.4z"/>
<path class="st8" d="M594,400.4h41.6v0.8c0,9.2-7.4,16.6-16.6,16.6h-8.4c-9.2,0-16.6-7.4-16.6-16.6v0l0,0V400.4L594,400.4L594,400.4
	z"/>
<path class="st5" d="M635.6,400.4h41.6v0.8c0,9.2-7.4,16.6-16.6,16.6h-8.4c-9.2,0-16.6-7.4-16.6-16.6L635.6,400.4L635.6,400.4z"/>
<path class="st8" d="M677.2,400.4h41.6v0.8c0,9.2-7.4,16.6-16.6,16.6h-8.4c-9.2,0-16.6-7.4-16.6-16.6L677.2,400.4L677.2,400.4z"/>
<path class="st5" d="M718.8,400.4h41.6v0.8c0,9.2-7.4,16.6-16.6,16.6h-8.4c-9.2,0-16.6-7.4-16.6-16.6L718.8,400.4L718.8,400.4z"/>
<path class="st14" d="M430.8,578.8L430.8,578.8c0-29.6-24-53.5-53.5-53.5H377c-11.3,0-22.3,3.6-31.5,10.2
	c-13.4,9.7,7.3,108.4,43.4,108.4l78.2,0.4c14.4,0,26-11.7,26-26l0,0l0,0v0c0-11.2-7.2-21.2-17.9-24.7L430.8,578.8z"/>
<path class="st1" d="M430,618.1L430,618.1c-0.1-11.2-7.4-21.1-18.1-24.6L389,586c-11.5-3.7-20.6-12.6-24.5-24.1
	c-3.4-10.6-10-19.8-19-26.3c-13.7,10.1-21.8,26.2-21.6,43.3v-0.2c-0.2,35.9,28.7,65.1,64.6,65.3c0.1,0,0.3,0,0.4,0h15
	c14.3,0.1,25.9-11.4,26-25.7c0,0,0,0,0,0v0L430,618.1z"/>
<linearGradient id="SVGID_2_" gradientUnits="userSpaceOnUse" x1="2251.2542" y1="-2463.604" x2="2315.3298" y2="-2463.604" gradientTransform="matrix(0.3143 3.423000e-002 2.960000e-002 -0.3656 -144.1535 -325.6296)">
	<stop  offset="0.2222" style="stop-color:#FFFFFF"/>
	<stop  offset="0.4038" style="stop-color:#EAECF6"/>
	<stop  offset="0.769" style="stop-color:#BAC2E3"/>
	<stop  offset="0.9153" style="stop-color:#A5AFDB"/>
</linearGradient>
<path class="st15" d="M510.6,654.4c-0.1,0.8-4.4,1-10,0.4c-5.6-0.6-10.2-1.8-10.1-2.6c0.1-0.8,4.7-1,10.3-0.4
	C506.5,652.5,510.7,653.6,510.6,654.4z"/>
<path class="st16" d="M500.1,646.5c-2-0.1-3.9-0.7-5.7-1.6c-3.2,3.4-1,5.5,0.4,5.7c1.7,0.1,3.5,0.4,5.1,0.9c3.7,0.9,10.7,0.9,11-0.5
	s-4.7-4.1-6.1-4.6C503.2,646.6,501.7,646.6,500.1,646.5z"/>
<path class="st17" d="M501.8,644.7l-1.4-20.8l-7.4,0.5l1.1,16.5h0l0,0l0.1,1.6c-0.3,1.3-0.4,2.7-0.3,4c0.4,1,3.8,1.8,5.2,2.1
	c2.6,0.6,6.5-1.7,5.7-2.3C504.3,646.1,503,645.4,501.8,644.7z"/>
<path class="st16" d="M475.5,647c-2-0.2-3.9-0.8-5.7-1.7c-3.3,3.3-1.2,5.5,0.3,5.7c1.7,0.1,3.5,0.4,5.1,1c3.6,1,10.6,1.2,11-0.2
	s-4.6-4.2-6-4.7C478.6,647.1,477,647.1,475.5,647z"/>
<path class="st17" d="M480.1,647c-0.5-0.3-1.9-1.1-3.1-1.8v-24.9h-7.4v21.1h0l0,0v2.3c-0.3,1.1-0.4,2.2-0.3,3.3
	c0.3,1,3.8,1.9,5.1,2.2C477,649.7,480.9,647.5,480.1,647z"/>
<linearGradient id="SVGID_3_" gradientUnits="userSpaceOnUse" x1="1656.4208" y1="-3164.9414" x2="1720.4993" y2="-3164.9414" gradientTransform="matrix(0.3175 1.227000e-002 1.410000e-002 -0.3667 -15.8189 -526.6511)">
	<stop  offset="0.2222" style="stop-color:#FFFFFF"/>
	<stop  offset="0.4038" style="stop-color:#EAECF6"/>
	<stop  offset="0.769" style="stop-color:#BAC2E3"/>
	<stop  offset="0.9153" style="stop-color:#A5AFDB"/>
</linearGradient>
<path class="st18" d="M485.8,655c0,0.8-4.4,1.3-10.1,1.1c-5.7-0.2-10.3-1.1-10.3-1.9c0-0.8,4.7-1.3,10.4-1.1
	C481.5,653.4,485.8,654.2,485.8,655z"/>
<circle class="st19" cx="331.6" cy="610" r="34.3"/>
<circle class="st20" cx="331.6" cy="610" r="26.9"/>
<path class="st21" d="M526,383.6c-6.7,0-12.1,5.4-12.1,12.1c0-6.7-5.4-12.1-12.1-12.1c-6.7,0-12.1,5.4-12.1,12.1
	c0,2.7,0.9,5.2,2.5,7.4c2.2,2.9,21.8,23.1,21.8,23.1s19.5-20.2,21.8-23.1c4.1-5.3,3-12.9-2.3-17C531.2,384.4,528.6,383.6,526,383.6z
	"/>
<path class="st22" d="M486.8,433.9c-3.6,0-6.5,2.9-6.5,6.5c0-3.6-2.9-6.5-6.5-6.5s-6.5,2.9-6.5,6.5c0,1.4,0.5,2.8,1.3,3.9
	c1.2,1.5,11.6,12.4,11.6,12.4s10.5-10.8,11.6-12.4c2.2-2.8,1.6-6.9-1.2-9.1C489.6,434.3,488.2,433.9,486.8,433.9z"/>
<path class="st23" d="M518,356c-2.6,0-4.7,2.1-4.7,4.7l0,0l0,0l0,0c0-2.6-2.1-4.7-4.7-4.7c-2.6,0-4.7,2.1-4.7,4.7c0,1,0.3,2,1,2.8
	c0.9,1.1,8.4,8.9,8.4,8.9s7.5-7.8,8.4-8.9c1.6-2.1,1.2-5-0.9-6.6C520.1,356.4,519.1,356,518,356z"/>
<path class="st24" d="M543.2,327c0,1.4-1.2,2.6-2.6,2.6c-1.4,0-2.6-1.2-2.6-2.6c-1.4,0-2.6,1.2-2.6,2.6c0,0.6,0.2,1.1,0.5,1.6
	c0.5,0.6,4.6,4.9,4.6,4.9s4.2-4.3,4.6-4.9c0.9-1.1,0.6-2.8-0.5-3.6C544.3,327.2,543.7,327,543.2,327z"/>
<path class="st25" d="M497.2,574.5c-0.6-3.6-3-6.5-6.4-7.8l-20.2,4.6v6l9.2,4.7l10.2,55.2h14.4L497.2,574.5z"/>
<polygon class="st26" points="616.9,499.3 611,493.4 622.2,486.6 625.2,492.1 "/>
<path class="st27" d="M626.7,450.6c-2.6-6.7,1.5-17.6,11.1-21.1c5.9-2.1,12.5-1,17.4,2.9l0.7,0.5c4,3.1,6.5,7.8,6.8,12.9l0.3,11.4
	c0.1,3.1,1.8,5.9,4.5,7.4l2.2,1.2l-5.6,19.2l-5.6-7.1l-8.9-11l-7.3,2.2c-4.5,1.6-9.5-0.7-11.2-5.2l0-0.1l-1.4-3.8L626.7,450.6z"/>
<path class="st28" d="M625.3,445l-0.7-0.2c-0.6-10.5,7.2-19.5,17.6-20.7l0,0c10.8-1.2,20.6,6.6,21.8,17.5c0.1,0.8,0.1,1.6,0.1,2.4
	c-0.1,4.6-0.5,9.2-1.4,13.7l-10.8-13l-1.2,0.4C642.5,447.9,633.5,447.8,625.3,445z"/>
<path class="st10" d="M638,460.8c0.8,2,3,3,5,2.3c2-0.7,3-3,2.3-5"/>
<path class="st10" d="M658.6,511.4l4.4,11.7h33.4c0,0-2.3-43.2-7.7-53.1c-1.4-2.6-4.1-4.2-7-4.2h-12.1l-6.8,7.5
	c-2,2.2-5.5,2.4-7.7,0.3c-0.2-0.2-0.4-0.4-0.6-0.6l0,0L648,478c-2.2,1.6-3.6,4.1-3.9,6.8l-2.5,22.9l-17.1-17.7l-8.3,8.6l19,22.7
	c1.8,2.1,4.5,3.3,7.3,3.3l0,0c4.6,0,8.5-3.2,9.5-7.7l3-14.2L658.6,511.4z"/>
<circle class="st27" cx="654.1" cy="448.5" r="4.4"/>
<path class="st6" d="M687.4,523.3c0,0-1.6-24.7-3.3-32.8c0,0,1.8,18.1,1.5,32.8H687.4z"/>
<rect x="543.6" y="482.7" class="st3" width="75.7" height="46.7"/>
<rect x="589.7" y="482.7" class="st29" width="29.6" height="46.7"/>
<rect x="552.3" y="489.3" class="st10" width="11.3" height="12.3"/>
<path class="st26" d="M614.9,479.3L614.9,479.3c-2.4-0.8-5-1-7.5-0.6l-3.6,0.6c-1,0-1.8,0.8-1.8,1.8c0,0,0,0,0,0v0l0,0
	c0,1,0.8,1.8,1.8,1.8c0,0,0.1,0,0.1,0l7.7,0.4l0,0c3.3,5.1,6.1,6.1,10.8,6.1l1.6,0.7c-1.2-3.8-4.6-8.8-7.9-10.2
	C615.7,479.6,615.3,479.5,614.9,479.3z"/>
<path class="st30" d="M567.4,616.2c0.1,0,0.2,0.1,0.2,0.2c0.1,0.1,0.1,0.3,0.1,0.4l-0.1,2.4c0,0.1,0,0.2-0.1,0.2
	c-0.1,0.1-0.1,0.1-0.2,0.1c-0.9,0.3-1.9,0.6-2.9,0.8c-0.9,0.2-1.8,0.2-2.6,0c-0.4-0.1-0.7-0.4-0.7-0.8c0-0.3,0.1-0.5,0.3-0.7
	c0.1-0.2,0.2-0.5,0.2-0.7c0-0.4,0-0.9,0-1.3c0-0.5-0.1-1.1-0.3-1.5C563.4,615,565.5,615.4,567.4,616.2z"/>
<path class="st31" d="M552.8,585.2c-1.4,0-2.8,0.6-4.2,0.5c-0.5,0-1,0-1.6,0c-2.2,0.3-4.2,1.3-5.8,2.8c-1.7,1.3-3,3.1-3.9,5
	c-0.5,1.4-0.9,2.9-1,4.5c-0.1,0.7-0.1,1.3-0.1,2c0.3,4,1.3,7.9,3.1,11.4l3.1,7.3c0.3,1.1,1.5,1.8,2.6,1.6c5.2,0.3,10.3,0.1,15.5-0.7
	c0.2,0,0.4-0.1,0.5-0.2c0.1-0.1,0.2-0.3,0.3-0.5c0.6-1.9,0.6-3.9,1.1-5.9c0.4-1.9,1.5-3.6,2.1-5.4c1.9-6.5,0.5-13.5-3.9-18.6
	C558.8,586.7,555.9,585.2,552.8,585.2z"/>
<path class="st32" d="M544.8,589c-1.1,0.7-2,1.5-2.9,2.4c-0.3,0.4-0.5,0.9-0.6,1.4c-0.7,2.6-0.5,5.4,0.5,8c1,2.5,2.2,4.9,3.7,7.2
	c0.9,1.6,2,3.1,3.1,4.5c0.7,0.8,1.5,1.5,2.2,2.3c1.7,2,2.8,4.3,3.3,6.8c1.9,0,3.8,0,5.6,0c0.5,0.1,1-0.3,1.1-0.8c0-0.1,0-0.1,0-0.2
	c0.5-2.2,0.9-4.4,1.2-6.7c0.1-0.9,0.2-1.7,0.5-2.5c0.4-0.9,0.9-1.8,1.5-2.6c1.4-3.2,1.9-6.7,1.5-10.1c0.1-1.8-0.5-3.6-1.6-5
	l-2.3-3.3c-0.7-1-1.5-2-2.4-2.9c-2.1-1.6-4.6-2.5-7.3-2.4c-1.5-0.1-3,0.2-4.4,0.8C546.6,586.9,545.6,587.9,544.8,589z"/>
<path class="st33" d="M542.9,593.8c-0.3,1-0.4,2.1-0.4,3.2c0,5.8,2.3,11.2,4.4,16.6c0.5,1.1,0.8,2.2,1.1,3.3
	c0.3,1.5,0.4,3.1,0.3,4.7c2.1-0.2,4.2-0.2,6.3-0.1l0.4-4.4c0.8-6.2,0.9-12.5,0.5-18.8c-0.2-2.5-0.8-4.9-1.8-7.2
	c-0.9-1.9-2.5-3.4-4.3-4.3c-0.4-0.3-0.9-0.4-1.3-0.2c-0.5,0.3-0.9,0.7-1.2,1.2c-0.8,0.8-1.6,1.7-2.2,2.6
	C543.8,591.4,543.2,592.6,542.9,593.8z"/>
<g class="st34">
	<path class="st35" d="M554,585.5c0.4,0.3,0.9,0.7,1.3,1.1c0.8,0.7,1.8,1.8,3,3.1c0.7,0.7,1.3,1.5,1.9,2.3c0.6,0.9,1.1,1.9,1.4,3
		c0.4,1.1,0.6,2.3,0.6,3.5c0,1.2-0.1,2.4-0.3,3.6c-0.2,1.2-0.4,2.4-0.7,3.5l-0.8,3.4c-0.2,1.1-0.5,2.1-0.8,3.1
		c-0.3,1-0.5,1.9-0.7,2.8c-0.2,0.8-0.3,1.6-0.3,2.4c0,0.6,0,1.3,0.1,1.9l0.2,1.6c0,0-0.1-0.6-0.3-1.6c-0.1-0.6-0.2-1.3-0.2-1.9
		c0-0.8,0-1.7,0.2-2.5c0.1-0.9,0.4-1.8,0.6-2.8l0.7-3.1l0.7-3.4c0.3-1.1,0.4-2.3,0.6-3.5c0.2-1.1,0.3-2.3,0.3-3.5
		c0-1.1-0.2-2.2-0.6-3.3c-0.3-1-0.7-2-1.3-2.9c-0.5-0.8-1.1-1.6-1.7-2.3c-1.2-1.3-2.1-2.5-2.8-3.3C554.5,585.8,554,585.5,554,585.5z
		"/>
</g>
<g class="st36">
	<path class="st35" d="M544.8,592.5C544.8,592.6,544.9,592.6,544.8,592.5c0.2,0.1,0.2,0.2,0.3,0.2c0.2,0,0.5,0.1,0.8,0.1
		c0.3,0.1,0.6,0.2,0.8,0.4c0.1-0.1,0.3,0,0.3,0.1c0.1,0.1,0,0.3-0.1,0.3c-0.1,0.1-0.2,0-0.3-0.1c-0.3,0-0.6,0-0.9-0.1
		c-0.2,0-0.3-0.1-0.4-0.2c-0.1-0.1-0.3-0.2-0.4-0.3c-0.1-0.1-0.1-0.2-0.1-0.3C544.8,592.6,544.8,592.6,544.8,592.5z"/>
	<path class="st35" d="M546.8,596.6c0.2-0.1,0.3-0.1,0.5-0.1c0.7,0,1.4,0.1,2,0.5c0.1,0.1,0.3,0.2,0.4,0.3c-0.2,0-0.3,0-0.5,0
		c-0.3,0-0.7-0.1-1-0.2c-0.3-0.1-0.6-0.2-0.9-0.4C547.1,596.7,547,596.7,546.8,596.6z"/>
	<path class="st35" d="M549.3,602.6c0,0.2-0.1,0.3-0.1,0.4c-0.3,0.6-0.7,1.1-1.2,1.5c0,0.1-0.1,0.3-0.2,0.3s-0.3-0.1-0.3-0.2
		c0-0.1,0.1-0.3,0.2-0.3l0,0l0,0c0.3-0.6,0.7-1.1,1.2-1.5C549,602.7,549.1,602.6,549.3,602.6z"/>
	<path class="st35" d="M551.5,609.6c0,0.1,0,0.2,0,0.3c-0.1,0.4-0.4,0.8-0.8,1c0,0.1-0.1,0.2-0.2,0.2c-0.1,0-0.2-0.1-0.2-0.2
		c0-0.1,0.1-0.1,0.1-0.2c0.1-0.4,0.4-0.8,0.8-1C551.3,609.7,551.4,609.6,551.5,609.6z"/>
	<path class="st35" d="M556.6,612.1c0.1,0,0.3-0.1,0.4-0.1c0.5,0,1.1,0.1,1.5,0.4c0.1,0,0.2,0,0.3,0.1c0,0.1,0,0.2-0.1,0.3
		c-0.1,0-0.2,0-0.3-0.1c-0.5,0-1.1-0.1-1.5-0.4C556.8,612.3,556.7,612.2,556.6,612.1z"/>
	<path class="st35" d="M556.7,603.2c0.1-0.1,0.2-0.1,0.3-0.2c0.5-0.2,1-0.2,1.4,0c0.1,0.1,0.2,0.1,0.3,0.2c-0.1,0.1-0.2,0.1-0.3,0.1
		c-0.5,0.1-1,0.1-1.4,0C556.9,603.3,556.8,603.3,556.7,603.2z"/>
	<path class="st35" d="M556.5,595.5c0,0-0.1-0.1-0.1-0.1c0-0.1,0-0.3,0.1-0.4c0.1-0.1,0.2-0.2,0.4-0.3c0.1-0.1,0.3-0.2,0.4-0.2
		c0.3-0.1,0.6-0.2,0.9-0.3c0.1-0.1,0.2-0.2,0.3-0.1c0.1,0.1,0.2,0.2,0.1,0.3c0,0.1-0.2,0.2-0.3,0.1c-0.2,0.2-0.5,0.4-0.7,0.5
		c-0.1,0.1-0.3,0.1-0.4,0.2c-0.2,0-0.3,0.1-0.4,0.1c-0.1,0-0.1,0.1-0.2,0.1C556.5,595.4,556.5,595.4,556.5,595.5z"/>
	<path class="st35" d="M554.8,592.1c0-0.1,0.1-0.2,0.2-0.4c0.4-0.4,0.9-0.7,1.5-0.6c0.1,0,0.3,0,0.4,0.1c-0.1,0.1-0.2,0.2-0.3,0.2
		c-0.2,0.1-0.4,0.3-0.7,0.4c-0.2,0.1-0.5,0.2-0.7,0.2C555.1,592.1,554.9,592.1,554.8,592.1z"/>
	<path class="st35" d="M562.1,592.3c0-0.1,0.1-0.2,0.1-0.3c0.2-0.4,0.6-0.7,1-0.8c0-0.1,0.2-0.2,0.3-0.1c0.1,0,0.2,0.2,0.1,0.3
		c0,0.1-0.1,0.1-0.1,0.1c-0.2,0.4-0.6,0.7-1,0.8C562.3,592.3,562.2,592.3,562.1,592.3z"/>
	<path class="st35" d="M564.3,596.9c0-0.2,0.1-0.3,0.1-0.5c0.2-0.7,0.7-1.3,1.2-1.8c0-0.1,0-0.3,0.2-0.4s0.3,0,0.4,0.2
		c0,0.1,0,0.3-0.2,0.4c0,0,0,0-0.1,0c-0.2,0.7-0.7,1.3-1.2,1.8C564.6,596.7,564.5,596.8,564.3,596.9z"/>
	<path class="st35" d="M563.7,598.9c0.2-0.1,0.3-0.1,0.5-0.1c0.7-0.1,1.5,0,2.2,0.2c0.1-0.1,0.3-0.1,0.4,0c0.1,0.1,0.1,0.3,0,0.4
		s-0.3,0.1-0.4,0c0,0,0,0,0-0.1c-0.7,0.1-1.5,0-2.2-0.2C564,599.1,563.8,599,563.7,598.9z"/>
	<path class="st35" d="M563.9,605.2c0,0,0.1-0.1,0.1-0.1c0.1-0.1,0.3-0.1,0.4-0.1c0.2,0,0.4,0.1,0.6,0.2c0.2,0.1,0.3,0.2,0.5,0.3
		c0.3,0.2,0.7,0.4,1,0.5c0.2,0.1,0.3,0.2,0.4,0.3c-0.2,0-0.4,0-0.6,0c-0.4,0-0.8-0.2-1.1-0.3c-0.2-0.1-0.4-0.2-0.5-0.3
		c-0.1-0.1-0.3-0.2-0.4-0.3C564.2,605.3,564.1,605.2,563.9,605.2z"/>
	<path class="st35" d="M562.4,610.9c0.2,0,0.3,0,0.5,0c0.3,0,0.7,0.1,1,0.2c0.4,0.1,0.7,0.2,1,0.3c0.2,0.1,0.3,0.1,0.5,0.2
		c-0.2,0.1-0.3,0.1-0.5,0.1c-0.7,0.1-1.5-0.1-2.1-0.5C562.6,611.2,562.5,611.1,562.4,610.9z"/>
	<path class="st35" d="M548.8,616.5c0.2-0.1,0.3-0.1,0.5-0.2c0.7-0.2,1.4-0.1,2.1,0.1c0.1-0.1,0.3-0.1,0.4,0s0.1,0.3,0,0.4
		c-0.1,0.1-0.3,0.1-0.4,0c0,0,0,0,0,0c-0.7,0.2-1.4,0.1-2.1-0.1C549.1,616.7,549,616.6,548.8,616.5z"/>
	<path class="st35" d="M544.3,615.1c-0.1,0.1-0.3,0.1-0.4,0.1c-0.3,0.1-0.6,0.1-0.9,0.1c-0.3,0-0.6,0-0.9-0.1
		c-0.2,0-0.3-0.1-0.4-0.1c0.1-0.1,0.3-0.2,0.4-0.2c0.6-0.2,1.3-0.2,1.9,0C544,614.9,544.2,615,544.3,615.1z"/>
	<path class="st35" d="M541,613.8c-0.2,0-0.4,0-0.5,0c-0.7-0.1-1.4-0.4-2-0.8c-0.1,0.1-0.3,0-0.4-0.1c-0.1-0.1,0-0.3,0.1-0.4
		s0.3,0,0.4,0.1c0,0,0,0,0,0.1c0.7,0.1,1.4,0.4,2,0.8C540.7,613.5,540.9,613.7,541,613.8z"/>
	<path class="st35" d="M539.3,608.6c0,0-0.1,0-0.1,0c-0.1,0-0.2,0-0.4,0.1c-0.7,0.1-1.4-0.1-2.1-0.3c-0.1,0.1-0.3,0.1-0.4,0
		s-0.1-0.3,0-0.4c0.1-0.1,0.3-0.1,0.4,0c0,0,0,0,0,0c0.7-0.1,1.4,0.1,2.1,0.3c0.1,0,0.2,0.1,0.3,0.2
		C539.2,608.5,539.3,608.5,539.3,608.6z"/>
	<path class="st35" d="M541.8,605.7c-0.1,0.1-0.2,0.1-0.3,0.2c-0.5,0.2-1,0.2-1.5-0.1c-0.1-0.1-0.2-0.1-0.3-0.2
		c0.1-0.1,0.2-0.1,0.4-0.1c0.5-0.1,1-0.1,1.5,0.1C541.6,605.5,541.7,605.6,541.8,605.7z"/>
	<path class="st35" d="M536.8,602.6C536.9,602.6,536.9,602.5,536.8,602.6c-0.1-0.1-0.1,0-0.2,0c-0.1,0-0.1,0-0.2,0
		c-0.7,0.1-1.5,0-2.2-0.3c-0.1,0.1-0.3,0.1-0.4,0s-0.1-0.3,0-0.4c0.1-0.1,0.3-0.1,0.4,0c0,0,0,0,0,0c0.7-0.1,1.5,0,2.2,0.3
		c0.1,0,0.1,0.1,0.2,0.1c0.1,0,0.1,0.1,0.2,0.1C536.9,602.5,536.9,602.5,536.8,602.6C536.9,602.6,536.9,602.6,536.8,602.6z"/>
	<path class="st35" d="M540.2,598.9c-0.2,0-0.3,0-0.5,0c-0.7,0-1.4-0.2-2-0.6c-0.1,0.1-0.3,0-0.4-0.1c-0.1-0.1,0-0.3,0.1-0.4
		c0.1-0.1,0.3,0,0.4,0.1c0,0,0,0,0,0c0.7,0,1.4,0.2,2,0.6C539.9,598.7,540,598.8,540.2,598.9z"/>
	<path class="st35" d="M537.9,594.3c-0.2,0-0.4,0-0.6,0c-0.8-0.1-1.6-0.6-2.1-1.2c-0.1-0.1-0.2-0.3-0.3-0.5c0.2,0.1,0.4,0.1,0.5,0.2
		c0.3,0.1,0.7,0.3,1,0.5c0.4,0.2,0.7,0.4,1,0.6C537.6,594,537.8,594.1,537.9,594.3z"/>
	<path class="st35" d="M540.7,594c-0.2,0-0.3,0-0.5,0c-0.7-0.1-1.4-0.4-1.9-1c-0.1-0.1-0.2-0.3-0.3-0.4c0.2,0,0.3,0.1,0.5,0.1
		c0.3,0.1,0.7,0.2,1,0.4c0.3,0.2,0.6,0.3,0.9,0.5C540.5,593.8,540.6,593.9,540.7,594z"/>
	<path class="st35" d="M540.3,591.1c-0.3-0.1-0.5-0.2-0.7-0.3c-1-0.5-2-1.2-2.8-2c-0.2-0.2-0.4-0.4-0.5-0.6c0.3,0.1,0.5,0.2,0.7,0.3
		c1,0.5,2,1.2,2.8,2C540,590.7,540.2,590.9,540.3,591.1z"/>
	<path class="st35" d="M542.4,588.7c-0.1-0.1-0.3-0.2-0.4-0.4c-0.5-0.6-0.8-1.2-1-1.9c-0.1,0-0.2-0.2-0.2-0.3s0.2-0.2,0.3-0.2
		c0.1,0,0.2,0.2,0.2,0.3c0,0,0,0,0,0c0.5,0.6,0.8,1.2,1,1.9C542.4,588.4,542.4,588.6,542.4,588.7z"/>
	<path class="st35" d="M558.1,587.3c0.1,0,0.3,0,0.4-0.1c0.2-0.2,0.4-0.4,0.6-0.6c0.1-0.2,0.2-0.3,0.4-0.4c0.3-0.2,0.6-0.3,0.9-0.3
		c-0.1,0.1-0.2,0.3-0.3,0.4c-0.2,0.2-0.3,0.4-0.6,0.7l-0.2,0.2c-0.1,0.1-0.2,0.1-0.2,0.2c-0.2,0.1-0.3,0.2-0.5,0.2
		c-0.1,0-0.3,0-0.4-0.1C558.2,587.4,558.1,587.3,558.1,587.3z"/>
	<path class="st35" d="M561,615.6c0.1,0.1,0.3,0.1,0.4,0.3c0.5,0.5,0.8,1.2,0.7,1.9c0,0.2-0.1,0.3-0.1,0.5c-0.1-0.1-0.1-0.3-0.2-0.4
		c-0.1-0.2-0.2-0.5-0.3-0.8c-0.1-0.3-0.2-0.6-0.3-0.9C561,615.9,561,615.8,561,615.6z"/>
</g>
<path class="st37" d="M549.8,619.9c-1-0.2-2.1-0.3-3.2-0.2c0.4,1.1,1,2.2,1.4,3.3c0.3,1.2,0.6,2.4,0.7,3.6c0.4,3.8,0.9,7.6,1.1,11.5
	c0.1,0.7,0,1.4-0.1,2.1c-0.3,0.7-0.7,1.4-1.2,2c-0.5,0.6-0.6,1.5-0.4,2.2c2.9,0.1,5.8,0,8.7-0.1c1.4,0,2.8-0.3,4.1-0.7
	c1.3-0.4,2.4-1.4,3.1-2.6c0.3-0.7,0.4-1.3,0.5-2l2.7-15.8c0-0.1,0-0.2,0.1-0.3c0.2-1,0.3-2.1,0.4-3.1c0-0.5,0-1,0-1.5
	c0-0.5,0.1-1.1,0.1-1.6c0-0.1,0-0.2-0.1-0.3c0,0.2-0.1,0.4-0.3,0.5c-0.2,0.1-0.4,0.2-0.6,0.3c-0.2,0.1-0.5,0.2-0.7,0.3
	c-0.5,0.2-0.9,0.4-1.4,0.6c-0.9,0.4-1.9,0.7-2.8,1c-1.9,0.6-3.8,1-5.8,1.2C554,620.4,551.9,620.3,549.8,619.9z"/>
<path class="st38" d="M564.5,639c-0.1,0.7-0.3,1.4-0.5,2c-0.6,1.2-1.8,2.2-3.1,2.6c-1.3,0.4-2.7,0.6-4.1,0.7
	c-2.9,0.2-5.8,0.2-8.7,0.1c-0.2-0.8-0.1-1.6,0.4-2.2c0.5-0.6,0.9-1.3,1.2-2c0.2-0.7,0.2-1.4,0.1-2.1c-0.1-1.5-0.2-3.1-0.4-4.6
	c-0.5-1.2-0.1-2.6,0.9-3.4c0.7-0.3,1.4-0.4,2.1-0.4l10-0.4l2.2-0.1c0.5-0.1,0.9,0,1.3,0.2C565.9,632.6,565.1,635.8,564.5,639z"/>
<path class="st30" d="M538.4,625.8c0.7,2.4,1.2,4.9,1.7,7.3c0.5,2.5,1.3,4.8,1.9,7.2c0.1,0.4,0.2,0.7,0.3,1.1c0.2,0.5,0.5,1,0.8,1.5
	c0.3,0.6,0.9,1.2,1.5,1.5c0.7,0.2,1.5,0.2,2.3,0.1c0.8,0,1.6,0,2.4,0h1.7c-0.2-1.4-0.4-2.8-0.5-4.2c0-0.8-0.1-1.5-0.2-2.3
	c0-0.2-0.1-0.5-0.1-0.7c0-0.3,0-0.7,0-1c0-0.4-0.1-0.7-0.1-1.1c-0.1-0.7-0.1-1.5-0.2-2.2c-0.2-1.4-0.4-2.9-0.5-4.3
	c-0.2-2-0.4-4.1-0.5-6.1c0-1.8,0.2-2.6-1.9-2.9c-1-0.1-2,0.2-2.9,0c-0.3-0.1-0.5-0.2-0.8-0.4c-0.2-0.2-0.5-0.5-0.6-0.8
	c-0.4-0.6-0.8-1.2-1.1-1.8c-0.1-0.2-0.2-0.4-0.2-0.6c-0.2,0-0.4,0-0.5,0c-1.2-0.2-2.5,0-3.6,0.5
	C534.8,618.3,537.7,623.7,538.4,625.8z"/>
<path class="st39" d="M550.1,585c0,0.1,0,0.1-0.1,0.2c-0.1,0-0.1,0-0.2-0.1l0,0c-0.5-1-0.9-2.1-1.1-3.2c0-0.3-0.1-0.7-0.3-1
	c-0.2-0.3-0.5-0.5-0.8-0.5c-0.4,0.1-0.6,0.4-0.6,0.8c0,0.4,0.1,0.7,0.3,1c0.5,1,1.2,2,2.1,2.8c-0.3,0-0.6-0.2-0.8-0.4l-2-2.3
	c-0.2-0.3-0.5-0.5-0.9-0.6c-0.2,0.7-0.1,1.5,0.1,2.1c0.2,0.3,0.5,0.6,0.8,0.9c0.5,0.4,1.1,0.7,1.6,1l-3.6,0c-0.1,0-0.1,0-0.2,0
	c-0.1,0.1-0.1,0.2,0,0.3c0.1,0.1,0.2,0.1,0.3,0.2c1.3,0.5,2.7,0.7,4.1,0.6c-0.5,0.1-0.9,0.5-1,1c-0.1,0.3-0.1,0.7-0.1,1
	c0,0.5,0.1,1.1,0.3,1.6c0.4-0.5,0.8-1,1.1-1.5c0.3-0.6,0.4-1.2,0.3-1.8c0.3,0.6,0.5,1.1,0.6,1.8c0.1,0.6,0.5,1.2,1,1.6
	c0-1.1-0.1-2.2-0.3-3.2l1.2,1c0.5,0.6,1.3,0.9,2,0.9c-0.8-1.3-2-2.3-3.5-2.8c1.4-0.6,3-0.8,4.5-0.6c0.1-0.1,0.1-0.3,0-0.4l0,0l0,0
	c-0.1-0.1-0.3-0.1-0.4-0.1c-1.1-0.1-2.3,0-3.4,0.4c0.4-0.3,0.8-0.6,1.3-0.9c0.5-0.6,0.7-1.4,0.6-2.2c0,0.6-0.4,1.2-0.9,1.5
	c-0.5,0.3-1,0.7-1.4,1.1c0.2-1.1,0.6-2.1,1.2-3c0.4-0.9,0.3-1.8,0-2.7C550.8,581,550.2,583,550.1,585z"/>
<path class="st40" d="M550,585.4c0,0.1,0,0.1-0.1,0.2c-0.1,0-0.1,0-0.2-0.1l0,0c-0.5-0.9-0.8-1.9-1-3c0-0.3-0.1-0.6-0.3-0.9
	c-0.1-0.3-0.5-0.5-0.8-0.4c-0.3,0.1-0.6,0.4-0.6,0.7c0,0.3,0.1,0.7,0.3,1c0.5,1,1.1,1.9,1.9,2.6c-0.3,0-0.6-0.1-0.8-0.4l-1.9-2.1
	c-0.2-0.3-0.5-0.5-0.8-0.6c-0.2,0.7-0.1,1.4,0.1,2c0.2,0.3,0.4,0.6,0.7,0.8c0.5,0.4,1,0.7,1.5,0.9l-3.4,0c-0.1,0-0.1,0-0.2,0
	c-0.1,0.1-0.1,0.2,0,0.3c0.1,0.1,0.2,0.1,0.3,0.2c1.2,0.4,2.5,0.6,3.8,0.5c-0.4,0.1-0.8,0.5-1,0.9c-0.1,0.3-0.1,0.6-0.1,1
	c0,0.5,0.1,1,0.3,1.5c0.4-0.4,0.7-0.9,1-1.4c0.3-0.5,0.4-1.1,0.3-1.7c0.3,0.5,0.5,1.1,0.6,1.6c0.1,0.6,0.4,1.1,0.9,1.5
	c0-1-0.1-2-0.3-3l1.1,0.9c0.5,0.5,1.2,0.8,1.9,0.8c-0.7-1.2-1.9-2.2-3.2-2.6c1.3-0.6,2.8-0.8,4.2-0.6c0.1-0.1,0.1-0.3,0-0.3l0,0l0,0
	c-0.1-0.1-0.3-0.1-0.4-0.1c-1.1-0.1-2.2,0-3.2,0.4c0.4-0.3,0.8-0.6,1.2-0.8c0.5-0.6,0.7-1.3,0.6-2.1c0,0.6-0.3,1.1-0.8,1.4
	c-0.5,0.3-0.9,0.7-1.3,1.1c0.2-1,0.6-2,1.1-2.8c0.3-0.8,0.3-1.7,0-2.5C550.7,581.6,550.2,583.5,550,585.4z"/>
<path class="st10" d="M337.1,617.9c-0.1-2.9-2.6-5.2-5.5-5.1c-0.2,0-0.4,0-0.6,0.1c-1,0.2-1.9,0.8-2.5,1.7c-0.5,0.7-0.7,1.4-0.8,2.2
	c-0.1,1,0.4,1.9,1.3,2.3c0.5,0.2,1.1,0.1,1.1-0.5c-0.1-0.7,0-1.4,0.4-2c0.4-0.7,1.3-1.2,2.1-1.1c0.9,0.1,1.6,0.7,1.8,1.5
	c0.1,0.5,0,0.9-0.2,1.4c-1,2.7-4.3,5-7.1,3.4c-1.3-0.7-1.8-2.2-1.3-3.6c0.4-1.6,1.1-3.1,2.1-4.5l4.7-6.6l9.1,6.4l2.1-3l-9.1-6.4
	l3.1-4.4c0.7-1,1.1-2.1,1.2-3.3c-0.1-2.5-2-4.5-4.5-4.8c-0.6-0.1-1.1,0-1.7,0.1c-1,0.3-1.9,1-2.5,1.9l2.2,1.6c0.3-0.4,0.7-0.7,1.1-1
	c0.5-0.3,1-0.4,1.5-0.2c1.4,0.8,0.4,2.7-0.3,3.6l-3.1,4.4l-2.8-2l-2.1,3l2.7,1.9l-5.2,7.4c-1.2,1.5-1.8,3.4-2,5.3
	c-0.3,4.5,5.1,8,9.2,7.2c1.9-0.4,3.5-1.5,4.5-3.1C336.7,620.5,337.1,619.2,337.1,617.9z"/>
<path class="st41" d="M429.8,494.9l8.3,0.5c-0.9,1.7-2.6,2.8-4.6,2.9C431.7,498.2,430.1,496.8,429.8,494.9z"/>
<path class="st28" d="M444.4,491.3c-4.3-5.4-9.2-10.8-9.2-10.8l-9.6-9.1l0,0l-3.6-4.5l-17.3,11.2c-0.2,6.7-2.3,13.3-6.1,18.9
	c-6.2,9,0.7,23.8,8,25.6l11.8-12.9l21,7.2C443,513.1,452.3,501.2,444.4,491.3z"/>
<path class="st26" d="M472.1,546.3c-0.5-0.3-0.9-0.6-1.4-1L445,524.3c-3.6-3.2-5.8-12.6-1.8-15c3-1.8,6.8-1.2,9.2,1.4l24.8,24.5
	L472.1,546.3z"/>
<path class="st26" d="M471.3,536.4l14.7-27.3l4.9,3.8l-9.4,29.6c-1.8,4.7-7.8,6.7-11.1,2.2l0,0C468.2,541.5,469.3,539.1,471.3,536.4
	z"/>
<path class="st42" d="M436.7,504.8c5.9,1,11.6,3,16.8,5.9l-7,15.6l-7.6-1.9L436.7,504.8z"/>
<polygon class="st43" points="443.3,525.5 442.3,514.4 449.1,520.4 446.5,526.3 "/>
<path class="st26" d="M379.4,546.8c0.2-0.6,0.6-1.1,0.9-1.7l19.1-31.7c2.9-4.5,13.2-8.3,16.7-4.2c2.5,3,2.5,7.4,0,10.4l-23.3,31.2
	L379.4,546.8z"/>
<path class="st42" d="M408.3,505.7c-7.1,3-13,8.3-16.7,15.1l15.9,12.8c0,0,15.4-13.5,9.7-25.5L408.3,505.7z"/>
<path class="st42" d="M409.4,505.6l15.8-2.5l11.5,1.8c4.9,0.9,8.3,5.5,7.7,10.5l-3.7,37.6h-33.2l-6-33c-0.6-3.1-0.2-6.2,1.1-9.1l0,0
	C403.8,508.1,406.3,506.1,409.4,505.6z"/>
<path class="st25" d="M475.8,568l-26.5,1.7l-0.4-2.6l-8.2-14.2h-33.2c0,0-2.5,4.7-2.5,20.2v2l0,0v0.3c0.2,8.5,6.9,15.4,15.3,15.8
	c17.1,0,41.9-5.2,41.9-5.2l4.3,53H480l1.1-62C480.9,573.3,478.9,569.9,475.8,568z"/>
<polygon class="st43" points="404.4,535.5 410.4,527.1 407.5,552 "/>
<path class="st42" d="M439.6,511.8c0,0,7.5,6,7.3,12.4c-0.3,6.4-9.1,10.6-9.1,10.6L439.6,511.8z"/>
<path class="st26" d="M418,504.2l-4.5,0.6c0,0,2.2,5.3,11.9,5.3c8.1,0,7.3-5.9,7.3-5.9l-7.4-1.1L418,504.2z"/>
<path class="st28" d="M440.1,474.8c0.3,9.8-7.2,18.1-16.9,18.8c-9.9,0.5-18.2-7.1-18.7-17c-0.5-9.8,7.1-18.2,16.9-18.7
	C431.2,457.4,440.1,463.7,440.1,474.8z"/>
<path class="st26" d="M418,503.4l0.1-15.3l11,0l-0.1,15.3c0,3-2.5,5.5-5.5,5.5l0,0C420.4,508.9,418,506.4,418,503.4z"/>
<path class="st28" d="M416.3,486.2c0,0,2.5,13.1,12.6,12.9l0-6.8L416.3,486.2z"/>
<path class="st27" d="M427,495.8L427,495.8c6.9-0.4,12.3-4.8,11.9-11.6l-0.6-11.8c-0.3-5.1-6.1-10.1-9-10l-10.8,3.6
	c-3,0.2-5.3,2.7-5.2,5.7l0.6,11.7C414.6,490.3,420.2,495.5,427,495.8z"/>
<circle class="st44" cx="426" cy="479.4" r="1"/>
<circle class="st44" cx="435" cy="478.9" r="1"/>
<path class="st26" d="M431.4,481.3l1.3,2.1c0,0-0.1,1.5-2.2,1"/>
<path class="st44" d="M423.2,476.6c0.1,0,0.1,0,0.2,0l4.5-0.4c0.5,0,0.9-0.5,0.8-1c0-0.5-0.5-0.9-1-0.8l0,0h0l-4.5,0.4
	c-0.5,0-0.9,0.5-0.8,1C422.4,476.3,422.7,476.6,423.2,476.6z"/>
<path class="st44" d="M433.9,475.8c0.1,0,0.1,0,0.2,0l2.7-0.3c0.5,0,0.9-0.5,0.8-1c0-0.5-0.5-0.9-1-0.8l0,0l-2.7,0.3
	c-0.5,0-0.9,0.5-0.8,1C433.2,475.5,433.5,475.8,433.9,475.8z"/>
<path class="st41" d="M426.4,486.9l7.9-1c-0.5,1.8-2,3.1-3.8,3.5C428.8,489.7,427,488.6,426.4,486.9z"/>
<path class="st28" d="M433.3,464.8c-6.4,7-14.5,12.2-23.5,15.2c0,0-2.8-9.9,4.9-16.1c3.9-3.6,9.7-4.5,14.6-2.2L433.3,464.8z"/>
<path class="st28" d="M430.6,464.1c2.2,3,4.9,5.6,8,7.7c0,0-1.7-8.6-9.2-9.7L430.6,464.1z"/>
<path class="st28" d="M418.1,474.1c0,0,1.9,8.6-2.4,9.6l-1.6-8.1L418.1,474.1z"/>
<circle class="st27" cx="412.7" cy="481.7" r="4.5"/>
<path class="st26" d="M388.7,546.4l27.4,19.5l-2.4,4.5L384.1,557c-4.7-2.2-7.3-8.8-3.4-12l0,0C383.5,542.7,385.9,544.1,388.7,546.4z
	"/>
<path class="st26" d="M412.2,563.2c3.1-1.4,6.8-0.1,8.4,3c1.4,2.9,0.1,6.4-2.8,7.8c-0.1,0-0.2,0.1-0.3,0.1c-3.1,1.4-6.8,0.1-8.4-3
	c-1.4-2.9-0.1-6.4,2.8-7.8C412,563.3,412.1,563.3,412.2,563.2z"/>
<path class="st26" d="M486,505.9c3.1-1.4,6.8-0.1,8.4,3c1.4,2.9,0.1,6.4-2.8,7.8c-0.1,0-0.2,0.1-0.3,0.1c-3.1,1.4-6.8,0.1-8.4-3
	c-1.4-2.9-0.1-6.4,2.8-7.8C485.8,506,485.9,506,486,505.9z"/>
<path class="st26" d="M491.5,515.6L491.5,515.6l-3.2,2.2l-5.9-5.3l0.4-2.7c0.4-1.7,1.7-3.1,3.3-3.6l-0.9-5.6
	c0.1-0.6,0.4-1.2,0.9-1.6v0c2.5-0.1,2,0.6,2.1,1.4l0.7,5.7c0,0,0.2,0,0.3,0l2.1-5.4c0.3-0.8,1.2-1.2,2-0.9c0.8,0.3,1.2,1.2,0.9,2
	l-2.2,6.1c0.6,0.9,1,2,1.1,3.1C493.1,512.7,492.6,514.3,491.5,515.6z"/>
<path class="st45" d="M494.7,571.7h-50.9c0-2.8,2.3-5.1,5.1-5.1h45.8L494.7,571.7L494.7,571.7z"/>
<path class="st3" d="M504.8,571.5h-44.7c-2.3,0-4.2-1.9-4.2-4.2c0-0.3,0-0.6,0.1-0.9l6.1-28.7c0.4-1.9,2.1-3.3,4.1-3.3h44.7
	c2.3,0,4.2,1.9,4.2,4.2c0,0.3,0,0.6-0.1,0.9l-6.1,28.7C508.4,570.1,506.7,571.5,504.8,571.5z"/>
<circle class="st10" cx="485.5" cy="553" r="3.9"/>
<text transform="matrix(1 0 0 1 896.6924 332.9698)" class="st46 st47 st48">Uªv‡÷U kc ev AvDU‡jU</text>
<g>
	<text transform="matrix(1 0 0 1 1011.156 416.9815)" class="st42 st49 st50">AbjvBb</text>
	<text transform="matrix(1 0 0 1 1081.6638 416.9815)" class="st42 st49 st50">†_‡K</text>
	<text transform="matrix(1 0 0 1 1127.1384 416.9815)" class="st42 st49 st50">†cÖvWv±</text>
	<text transform="matrix(1 0 0 1 1186.0769 416.9815)" class="st42 st49 st50">AW©vi</text>
	<text transform="matrix(1 0 0 1 1234.3367 416.9815)" class="st42 st49 st50">Kiyb</text>
	<text transform="matrix(1 0 0 1 1275.2058 416.9815)" class="st42 st49 st50">Avcbvi</text>
	<text transform="matrix(1 0 0 1 1339.3279 416.9815)" class="st42 st49 st50">cQ‡›`i</text>
	<text transform="matrix(1 0 0 1 1402.2517 416.9815)" class="st42 st49 st50">†h</text>
	<text transform="matrix(1 0 0 1 1426.1755 416.9815)" class="st42 st49 st50">†Kvb</text>
	<text transform="matrix(1 0 0 1 1011.156 445.7823)" class="st42 st49 st50">kc</text>
	<text transform="matrix(1 0 0 1 1046.2527 445.7823)" class="st42 st49 st50">ev</text>
	<text transform="matrix(1 0 0 1 1071.5085 445.7823)" class="st42 st49 st50">AvDU‡jU</text>
	<text transform="matrix(1 0 0 1 1152.8523 445.7823)" class="st42 st49 st50">n‡Z|</text>
	<text transform="matrix(1 0 0 1 1205.0837 445.7823)" class="st42 st49 st50">wbw`©ó</text>
	<text transform="matrix(1 0 0 1 1256.2341 445.7823)" class="st42 st49 st50">mg‡q</text>
	<text transform="matrix(1 0 0 1 1307.4099 445.7823)" class="st42 st49 st50">†cÖvWv±</text>
	<text transform="matrix(1 0 0 1 1370.0085 445.7823)" class="st42 st49 st50">†cŠ‡”Q</text>
	<text transform="matrix(1 0 0 1 1429.3679 445.7823)" class="st42 st49 st50">hv‡e</text>
	<text transform="matrix(1 0 0 1 1041.4646 474.5821)" class="st42 st49 st50">Avcbvi Kv‡Q| GB cÖZ¨vkvq</text>
	<text transform="matrix(1 0 0 1 1263.4363 474.5821)" class="st25 st49 st50">eoevRvi</text>
	<text transform="matrix(1 0 0 1 1331.5457 474.5821)" class="st42 st49 st50">Gi mv‡_ _vKzb|</text>
</g>
</svg>
