<?xml version="1.0" encoding="utf-8"?>
<!-- Generator: Adobe Illustrator 19.0.0, SVG Export Plug-In . SVG Version: 6.00 Build 0)  -->
<svg version="1.1" id="Layer_1" xmlns="http://www.w3.org/2000/svg" xmlns:xlink="http://www.w3.org/1999/xlink" x="0px" y="0px"
	 viewBox="294 122 1200 550" style="enable-background:new 294 122 1200 550;" xml:space="preserve">
<style type="text/css">
	.st0{fill:url(#SVGID_1_);}
	.st1{fill:#2C338E;}
	.st2{fill:#6CC071;}
	.st3{opacity:0.95;fill:#94CE97;enable-background:new    ;}
	.st4{opacity:0.25;fill:none;stroke:#ED644B;stroke-width:0.8049;stroke-miterlimit:10;enable-background:new    ;}
	.st5{opacity:0.25;}
	.st6{fill:#ED644B;}
	.st7{opacity:0.85;}
	.st8{fill:#464FA2;}
	.st9{fill:#3B439B;}
	.st10{fill:#F4847F;}
	.st11{opacity:0.5;fill:#ED644B;enable-background:new    ;}
	.st12{fill:#E9EBEE;}
	.st13{fill:#97A3CC;}
	.st14{fill:#231F20;}
	.st15{fill:#FFFFFF;}
	.st16{opacity:0.46;fill:#E9EBEE;enable-background:new    ;}
	.st17{clip-path:url(#SVGID_3_);}
	.st18{opacity:0.45;fill:url(#SVGID_4_);enable-background:new    ;}
	.st19{fill:#CFCFCD;}
	.st20{clip-path:url(#SVGID_6_);}
	.st21{fill:#89D5FF;}
	.st22{fill:#87D4FF;}
	.st23{fill:#85D3FE;}
	.st24{fill:#83D2FE;}
	.st25{fill:#81D1FD;}
	.st26{fill:#7FD0FD;}
	.st27{fill:#7DCFFC;}
	.st28{fill:#7BCEFC;}
	.st29{fill:#79CDFB;}
	.st30{fill:#77CCFB;}
	.st31{fill:#75CBFB;}
	.st32{fill:#73CAFA;}
	.st33{fill:#71C9FA;}
	.st34{fill:#6FC9F9;}
	.st35{fill:#6DC8F9;}
	.st36{fill:#6BC7F9;}
	.st37{fill:#6AC6F8;}
	.st38{fill:#68C5F8;}
	.st39{fill:#66C4F7;}
	.st40{fill:#64C3F7;}
	.st41{fill:#63C3F7;}
	.st42{fill:#61C2F6;}
	.st43{fill:#5FC1F6;}
	.st44{fill:#5EC0F6;}
	.st45{fill:#5CBFF5;}
	.st46{fill:#5ABFF5;}
	.st47{fill:#59BEF5;}
	.st48{fill:#57BDF4;}
	.st49{fill:#56BCF4;}
	.st50{fill:#54BCF3;}
	.st51{fill:#53BBF3;}
	.st52{fill:#51BAF3;}
	.st53{fill:#50B9F3;}
	.st54{fill:#4EB9F2;}
	.st55{fill:#4DB8F2;}
	.st56{fill:#4CB7F2;}
	.st57{fill:#4AB7F1;}
	.st58{fill:#49B6F1;}
	.st59{fill:#48B5F1;}
	.st60{fill:#46B5F0;}
	.st61{fill:#45B4F0;}
	.st62{fill:#44B4F0;}
	.st63{fill:#42B3F0;}
	.st64{fill:#41B2EF;}
	.st65{fill:#40B2EF;}
	.st66{fill:#3FB1EF;}
	.st67{fill:#3EB1EF;}
	.st68{fill:#3CB0EE;}
	.st69{fill:#3BB0EE;}
	.st70{fill:#3AAFEE;}
	.st71{fill:#39AFEE;}
	.st72{fill:#38AEED;}
	.st73{fill:#37ADED;}
	.st74{fill:#36ADED;}
	.st75{fill:#35ADED;}
	.st76{fill:#34ACEC;}
	.st77{fill:#33ACEC;}
	.st78{fill:#32ABEC;}
	.st79{fill:#31ABEC;}
	.st80{fill:#30AAEC;}
	.st81{fill:#2FAAEB;}
	.st82{fill:#2EA9EB;}
	.st83{fill:#2DA9EB;}
	.st84{fill:#2CA8EB;}
	.st85{fill:#2BA8EB;}
	.st86{fill:#2AA7EA;}
	.st87{fill:#29A7EA;}
	.st88{fill:#28A6EA;}
	.st89{fill:#27A6EA;}
	.st90{fill:#26A5E9;}
	.st91{fill:#25A5E9;}
	.st92{fill:#24A5E9;}
	.st93{fill:#24A4E9;}
	.st94{fill:#23A4E9;}
	.st95{fill:#22A3E9;}
	.st96{fill:#22A3E8;}
	.st97{fill:#21A3E8;}
	.st98{fill:#20A3E8;}
	.st99{fill:#20A2E8;}
	.st100{fill:#1FA2E8;}
	.st101{fill:#1EA2E8;}
	.st102{fill:#1EA1E8;}
	.st103{fill:#1DA1E8;}
	.st104{fill:#1DA1E7;}
	.st105{fill:#1CA1E7;}
	.st106{fill:#1CA0E7;}
	.st107{fill:#1BA0E7;}
	.st108{clip-path:url(#SVGID_8_);}
	.st109{fill:#FF9CB0;}
	.st110{fill:#FF9AAE;}
	.st111{fill:#FF98AD;}
	.st112{fill:#FE96AB;}
	.st113{fill:#FE94A9;}
	.st114{fill:#FE92A8;}
	.st115{fill:#FE90A6;}
	.st116{fill:#FD8EA4;}
	.st117{fill:#FD8CA3;}
	.st118{fill:#FD8AA1;}
	.st119{fill:#FD88A0;}
	.st120{fill:#FD869E;}
	.st121{fill:#FC849D;}
	.st122{fill:#FC829B;}
	.st123{fill:#FC809A;}
	.st124{fill:#FC7F98;}
	.st125{fill:#FC7D97;}
	.st126{fill:#FB7B95;}
	.st127{fill:#FB7994;}
	.st128{fill:#FB7793;}
	.st129{fill:#FB7691;}
	.st130{fill:#FB7490;}
	.st131{fill:#FA728E;}
	.st132{fill:#FA718D;}
	.st133{fill:#FA6F8C;}
	.st134{fill:#FA6E8A;}
	.st135{fill:#FA6C89;}
	.st136{fill:#FA6A88;}
	.st137{fill:#F96987;}
	.st138{fill:#F96785;}
	.st139{fill:#F96684;}
	.st140{fill:#F96483;}
	.st141{fill:#F96382;}
	.st142{fill:#F96181;}
	.st143{fill:#F86080;}
	.st144{fill:#F85F7F;}
	.st145{fill:#F85D7D;}
	.st146{fill:#F85C7C;}
	.st147{fill:#F85B7B;}
	.st148{fill:#F8597A;}
	.st149{fill:#F85879;}
	.st150{fill:#F75778;}
	.st151{fill:#F75677;}
	.st152{fill:#F75476;}
	.st153{fill:#F75375;}
	.st154{fill:#F75274;}
	.st155{fill:#F75173;}
	.st156{fill:#F75072;}
	.st157{fill:#F64F71;}
	.st158{fill:#F64D71;}
	.st159{fill:#F64C70;}
	.st160{fill:#F64B6F;}
	.st161{fill:#F64A6E;}
	.st162{fill:#F6496D;}
	.st163{fill:#F6486C;}
	.st164{fill:#F6476C;}
	.st165{fill:#F6466B;}
	.st166{fill:#F5456A;}
	.st167{fill:#F54469;}
	.st168{fill:#F54368;}
	.st169{fill:#F54267;}
	.st170{fill:#F54167;}
	.st171{fill:#F54066;}
	.st172{fill:#F53F65;}
	.st173{fill:#F53E64;}
	.st174{fill:#F53D63;}
	.st175{fill:#F43C63;}
	.st176{fill:#F43C62;}
	.st177{fill:#F43B62;}
	.st178{fill:#F43A61;}
	.st179{fill:#F43960;}
	.st180{fill:#F4385F;}
	.st181{fill:#F4375F;}
	.st182{fill:#F4375E;}
	.st183{fill:#F4365E;}
	.st184{fill:#F4365D;}
	.st185{fill:#F4355D;}
	.st186{fill:#F4345C;}
	.st187{fill:#F3335B;}
	.st188{fill:#F3325B;}
	.st189{fill:#F3325A;}
	.st190{fill:#F3315A;}
	.st191{fill:#F33159;}
	.st192{fill:#F33059;}
	.st193{fill:#F33058;}
	.st194{fill:#F32F58;}
	.st195{fill:url(#SVGID_9_);}
	.st196{fill:url(#SVGID_10_);}
	.st197{fill:url(#SVGID_11_);}
	.st198{fill:url(#SVGID_12_);}
	.st199{fill:#00B06A;}
	.st200{fill:url(#SVGID_13_);}
	.st201{fill:url(#SVGID_14_);}
	.st202{fill:url(#SVGID_15_);}
	.st203{fill:url(#SVGID_16_);}
	.st204{fill:url(#SVGID_17_);}
	.st205{fill:url(#SVGID_18_);}
	.st206{fill:url(#SVGID_19_);}
	.st207{fill:#B0532F;}
	.st208{fill:url(#SVGID_20_);}
	.st209{fill:#28B979;}
	.st210{fill:url(#SVGID_21_);}
	.st211{fill:url(#SVGID_22_);}
	.st212{fill:url(#SVGID_23_);}
	.st213{fill:url(#SVGID_24_);}
	.st214{fill:url(#SVGID_25_);}
	.st215{fill:none;stroke:url(#SVGID_26_);stroke-width:1.6649;stroke-miterlimit:10;}
	.st216{fill:none;stroke:url(#SVGID_27_);stroke-width:1.6649;stroke-miterlimit:10;}
	.st217{fill:none;stroke:url(#SVGID_28_);stroke-width:1.6649;stroke-miterlimit:10;}
	.st218{fill:none;stroke:url(#SVGID_29_);stroke-width:1.6649;stroke-miterlimit:10;}
	.st219{fill:none;stroke:url(#SVGID_30_);stroke-width:1.6649;stroke-miterlimit:10;}
	.st220{fill:none;stroke:url(#SVGID_31_);stroke-width:1.6649;stroke-miterlimit:10;}
	.st221{fill:none;stroke:url(#SVGID_32_);stroke-width:1.6649;stroke-miterlimit:10;}
	.st222{fill:none;stroke:url(#SVGID_33_);stroke-width:1.6649;stroke-miterlimit:10;}
	.st223{fill:none;stroke:url(#SVGID_34_);stroke-width:1.6649;stroke-miterlimit:10;}
	.st224{fill:none;stroke:url(#SVGID_35_);stroke-width:1.6649;stroke-miterlimit:10;}
	.st225{fill:none;stroke:url(#SVGID_36_);stroke-width:1.6649;stroke-miterlimit:10;}
	.st226{fill:none;stroke:url(#SVGID_37_);stroke-width:1.6649;stroke-miterlimit:10;}
	.st227{fill:url(#SVGID_38_);}
	.st228{fill:url(#SVGID_39_);}
	.st229{fill:url(#SVGID_40_);}
	.st230{fill:url(#SVGID_41_);}
	.st231{fill:url(#SVGID_42_);}
	.st232{fill:url(#SVGID_43_);}
	.st233{fill:none;stroke:url(#SVGID_44_);stroke-width:1.6649;stroke-miterlimit:10;}
	.st234{fill:url(#SVGID_45_);}
	.st235{fill:#FBC1B1;}
	.st236{opacity:0.5;fill:#F2C7A4;enable-background:new    ;}
	.st237{fill:#F2C7A4;}
	.st238{fill:#81441D;}
	.st239{fill:#FCDFBB;}
	.st240{fill:#303030;}
	.st241{fill:#EFC4A3;}
	.st242{fill:#FFFFF3;}
	.st243{fill:#333399;}
	.st244{fill:#DCDCDC;}
	.st245{opacity:0.5;fill:#29235C;enable-background:new    ;}
	.st246{fill:#F9BFAF;}
	.st247{fill:#339933;}
	.st248{font-family:'KongshoMJ';}
	.st249{font-size:70px;}
	.st250{fill:#363B92;}
	.st251{font-family:'SutonnyMJ';}
	.st252{font-size:24px;}
</style>
<title>wc-bg2</title>
<linearGradient id="SVGID_1_" gradientUnits="userSpaceOnUse" x1="294" y1="607" x2="1494" y2="607" gradientTransform="matrix(1 0 0 1 0 -210)">
	<stop  offset="0" style="stop-color:#239400;stop-opacity:0.1"/>
	<stop  offset="1" style="stop-color:#2300BF;stop-opacity:0.1"/>
</linearGradient>
<rect x="294" y="122" class="st0" width="1200" height="550"/>
<path class="st1" d="M1478.2,617.1c0.1,0,0.2,0.1,0.3,0.2c0.1,0.2,0.1,0.4,0.1,0.5l-0.2,3.1c0,0.1,0,0.2-0.1,0.3
	c-0.1,0.1-0.2,0.1-0.3,0.1c-1.2,0.4-2.5,0.8-3.8,1c-1.1,0.3-2.3,0.3-3.4-0.1c-0.5-0.1-0.9-0.6-0.9-1.1c0-0.3,0.2-0.7,0.4-0.9
	c0.2-0.3,0.3-0.6,0.2-0.9c0-0.6,0-1.1,0-1.7c0-0.7-0.1-1.4-0.4-2C1472.9,615.5,1475.7,616,1478.2,617.1z"/>
<path class="st2" d="M1459,576.3c-1.9,0-3.6,0.8-5.5,0.7c-0.7-0.1-1.4-0.1-2,0c-2.8,0.4-5.5,1.7-7.6,3.7c-2.2,1.8-4,4-5.2,6.6
	c-0.7,1.9-1.1,3.8-1.3,5.8c-0.1,0.9-0.1,1.8-0.1,2.6c0,5.3,2,10.2,4,15l4,9.6c0.4,1.5,1.9,2.4,3.5,2.1c6.8,0.4,13.6,0.1,20.3-0.9
	c0.2,0,0.5-0.1,0.7-0.2c0.2-0.2,0.3-0.4,0.4-0.6c0.8-2.5,0.8-5.1,1.4-7.7c0.6-2.5,1.9-4.7,2.8-7.1c2.6-8.5,0.6-17.7-5.1-24.4
	C1466.8,578.3,1463,576.4,1459,576.3z"/>
<path class="st3" d="M1448.5,581.3c-1.4,0.9-2.7,2-3.8,3.2c-0.4,0.6-0.6,1.2-0.8,1.8c-0.9,3.5-0.6,7.1,0.7,10.4
	c1.3,3.3,2.9,6.5,4.9,9.4c1.2,2.1,2.6,4,4.1,5.9c0.9,1,1.9,2,2.8,3c2.2,2.6,3.7,5.7,4.4,9c2.5,0.1,4.9,0.1,7.4,0
	c0.7,0.1,1.3-0.3,1.4-1c0-0.1,0-0.2,0-0.2c0.6-2.9,1.1-5.8,1.5-8.8c0.1-1.1,0.3-2.3,0.7-3.3c0.6-1.2,1.2-2.3,1.9-3.4
	c2.2-4,2.1-8.7,2-13.3c0.2-2.4-0.6-4.7-2.1-6.6l-3-4.3c-0.9-1.4-1.9-2.6-3.1-3.7c-2.7-2.1-6.1-3.3-9.5-3.2c-2-0.2-3.9,0.2-5.7,1.1
	C1450.6,578.3,1449.8,580.1,1448.5,581.3z"/>
<path class="st4" d="M1445.9,587.7c-0.3,1.4-0.5,2.8-0.5,4.2c-0.1,7.6,3,14.7,5.8,21.8c0.6,1.4,1.1,2.9,1.4,4.4
	c0.4,2,0.5,4.1,0.4,6.2c2.7-0.2,5.5-0.3,8.2-0.1l0.5-5.8c1-8.2,1.2-16.4,0.7-24.6c-0.2-3.3-1-6.5-2.4-9.5c-1.2-2.5-3.2-4.5-5.7-5.7
	c-0.5-0.4-1.2-0.5-1.8-0.3c-0.6,0.4-1.1,1-1.6,1.5c-1.1,1-2,2.2-2.9,3.4C1447.1,584.5,1446.4,586.1,1445.9,587.7z"/>
<g class="st5">
	<path class="st6" d="M1460.6,576.7c0.6,0.4,1.1,0.9,1.6,1.4c1,0.9,2.3,2.4,4,4.1c0.9,0.9,1.7,1.9,2.4,3c0.8,1.2,1.4,2.5,1.9,3.9
		c0.5,1.5,0.7,3,0.8,4.5c0,1.6-0.1,3.2-0.4,4.7c-0.3,1.5-0.5,3.1-0.9,4.6l-1,4.4c-0.3,1.5-0.7,2.8-1,4.1c-0.3,1.3-0.7,2.5-0.9,3.7
		c-0.2,1-0.3,2.1-0.4,3.1c0,0.8,0,1.6,0.1,2.5l0.3,2.1c0,0-0.2-0.8-0.4-2.1c-0.1-0.8-0.2-1.6-0.3-2.5c0-1.1,0-2.2,0.2-3.2
		c0.2-1.2,0.5-2.4,0.8-3.7l0.9-4.1c0.3-1.4,0.6-2.9,0.9-4.4c0.3-1.5,0.6-3,0.8-4.6c0.3-1.5,0.4-3,0.4-4.6c0-1.5-0.3-2.9-0.7-4.4
		c-0.4-1.3-1-2.6-1.7-3.8c-0.7-1.1-1.4-2.1-2.3-3c-1.6-1.7-2.8-3.3-3.7-4.3C1461.2,577.2,1460.6,576.7,1460.6,576.7z"/>
</g>
<g class="st7">
	<path class="st6" d="M1448.5,586c0,0,0.1,0.1,0.1,0.1c0.1,0.1,0.2,0.1,0.3,0.1c0.2,0.1,0.6,0.1,1,0.2c0.4,0.1,0.7,0.3,1,0.5
		c0.2-0.1,0.3,0,0.4,0.1s0,0.3-0.1,0.4c-0.1,0.1-0.3,0-0.4-0.1c-0.4,0-0.8,0-1.1-0.1c-0.2-0.1-0.4-0.1-0.6-0.2
		c-0.2-0.1-0.4-0.2-0.5-0.4c-0.1-0.1-0.2-0.3-0.2-0.4C1448.5,586.1,1448.5,586,1448.5,586z"/>
	<path class="st6" d="M1451.2,591.3c0.2-0.1,0.4-0.1,0.6-0.1c0.9-0.1,1.8,0.2,2.6,0.7c0.2,0.1,0.3,0.3,0.5,0.4c-0.2,0-0.4,0-0.6,0
		c-0.4,0-0.9-0.1-1.3-0.2c-0.4-0.1-0.8-0.3-1.2-0.5C1451.5,591.5,1451.3,591.4,1451.2,591.3z"/>
	<path class="st6" d="M1454.3,599.2c0,0.2-0.1,0.4-0.2,0.6c-0.3,0.8-0.9,1.4-1.6,1.9c0,0.2-0.1,0.3-0.3,0.4c-0.2,0-0.3-0.1-0.4-0.3
		c0-0.2,0.1-0.3,0.3-0.4c0,0,0,0,0,0l0,0l0,0c0.3-0.8,0.9-1.4,1.6-1.9C1454,599.3,1454.2,599.2,1454.3,599.2z"/>
	<path class="st6" d="M1457.3,608.4c0,0.2,0,0.3-0.1,0.5c-0.2,0.6-0.5,1.1-1.1,1.4c0,0.1-0.2,0.2-0.3,0.2c-0.1,0-0.2-0.2-0.2-0.3
		c0-0.1,0.1-0.2,0.2-0.2c0.2-0.6,0.5-1.1,1.1-1.4C1457,608.5,1457.2,608.4,1457.3,608.4z"/>
	<path class="st6" d="M1464,611.6c0.2-0.1,0.3-0.1,0.5-0.1c0.7,0,1.4,0.1,2,0.5c0.1-0.1,0.3,0,0.4,0.2c0.1,0.1,0,0.3-0.2,0.4
		c-0.1,0.1-0.3,0-0.3-0.1c-0.7,0-1.4-0.1-2-0.5C1464.3,611.9,1464.1,611.7,1464,611.6z"/>
	<path class="st6" d="M1464.1,600c0.1-0.1,0.3-0.2,0.4-0.2c0.6-0.3,1.3-0.2,1.9,0.1c0.1,0.1,0.3,0.2,0.4,0.3
		c-0.1,0.1-0.3,0.1-0.4,0.2c-0.6,0.2-1.2,0.1-1.8-0.1C1464.4,600.1,1464.3,600.1,1464.1,600z"/>
	<path class="st6" d="M1463.8,589.8c-0.1,0-0.1-0.1-0.1-0.1c0-0.2,0-0.4,0.1-0.5c0.1-0.2,0.3-0.3,0.5-0.4c0.2-0.1,0.4-0.2,0.5-0.3
		c0.4-0.2,0.7-0.3,1.1-0.3c0.1-0.2,0.3-0.2,0.4-0.2c0.2,0.1,0.2,0.3,0.2,0.4c-0.1,0.2-0.2,0.2-0.4,0.2c-0.3,0.3-0.6,0.5-1,0.6
		c-0.2,0.1-0.4,0.2-0.6,0.2c-0.2,0.1-0.3,0.1-0.5,0.1c-0.1,0-0.2,0.1-0.3,0.1C1463.8,589.7,1463.8,589.8,1463.8,589.8z"/>
	<path class="st6" d="M1461.6,585.4c0.1-0.2,0.1-0.3,0.3-0.5c0.5-0.6,1.2-0.9,2-0.8c0.2,0,0.4,0.1,0.5,0.1c-0.1,0.1-0.3,0.2-0.4,0.3
		c-0.3,0.2-0.6,0.3-0.9,0.5c-0.3,0.1-0.6,0.2-0.9,0.3C1461.9,585.3,1461.8,585.4,1461.6,585.4z"/>
	<path class="st6" d="M1471.2,585.7c0-0.1,0.1-0.3,0.2-0.4c0.3-0.5,0.7-0.9,1.3-1.1c0.1-0.1,0.2-0.2,0.3-0.1
		c0.1,0.1,0.2,0.2,0.1,0.3c0,0.1-0.1,0.1-0.2,0.2c-0.3,0.5-0.7,0.9-1.3,1.1C1471.5,585.7,1471.3,585.7,1471.2,585.7z"/>
	<path class="st6" d="M1474.1,591.7c0-0.2,0.1-0.5,0.2-0.7c0.3-0.9,0.9-1.7,1.6-2.4c-0.1-0.2,0-0.4,0.2-0.5c0.2-0.1,0.4,0,0.5,0.2
		c0.1,0.2,0,0.4-0.2,0.5c0,0,0,0-0.1,0c-0.3,0.9-0.9,1.7-1.6,2.4C1474.5,591.4,1474.3,591.6,1474.1,591.7z"/>
	<path class="st6" d="M1473.3,594.3c0.2-0.1,0.5-0.1,0.7-0.2c1-0.1,2,0,2.9,0.3c0.2,0.1,0.4,0.2,0.6,0.3c-0.2,0.1-0.5,0.1-0.7,0.2
		c-1,0.1-2,0-2.9-0.3C1473.7,594.6,1473.5,594.5,1473.3,594.3z"/>
	<path class="st6" d="M1473.6,602.6c0.1,0,0.1-0.1,0.2-0.1c0.2-0.1,0.4-0.1,0.6-0.1c0.3,0,0.5,0.1,0.7,0.2c0.2,0.1,0.5,0.2,0.7,0.3
		c0.5,0.2,0.9,0.5,1.3,0.7c0.2,0.1,0.4,0.3,0.6,0.4c-0.2,0-0.5,0.1-0.7,0c-0.5-0.1-1-0.2-1.5-0.4c-0.2-0.1-0.5-0.3-0.7-0.5
		c-0.2-0.2-0.4-0.3-0.5-0.4C1474,602.7,1473.8,602.6,1473.6,602.6z"/>
	<path class="st6" d="M1471.6,610.1c0.2,0,0.4,0,0.7,0.1c0.4,0.1,0.9,0.2,1.3,0.3c0.5,0.1,0.9,0.3,1.3,0.4c0.2,0.1,0.4,0.2,0.6,0.3
		c-0.2,0.1-0.4,0.2-0.7,0.2c-1,0.1-2-0.1-2.8-0.7C1471.9,610.5,1471.7,610.3,1471.6,610.1z"/>
	<path class="st6" d="M1453.8,617.5c0.2-0.1,0.4-0.2,0.6-0.2c0.9-0.2,1.9-0.2,2.8,0.1c0.2,0.1,0.4,0.1,0.6,0.2
		c-0.2,0.1-0.4,0.2-0.6,0.2c-0.9,0.2-1.9,0.2-2.8-0.1C1454.2,617.7,1454,617.6,1453.8,617.5z"/>
	<path class="st6" d="M1447.8,615.5c-0.2,0.1-0.4,0.1-0.6,0.2c-0.4,0.1-0.8,0.1-1.2,0.1c-0.4,0-0.8,0-1.2-0.1
		c-0.2,0-0.4-0.1-0.6-0.2c0.2-0.1,0.4-0.2,0.5-0.3c0.8-0.3,1.7-0.3,2.5,0C1447.5,615.3,1447.7,615.4,1447.8,615.5z"/>
	<path class="st6" d="M1443.5,613.9c-0.2,0-0.5,0-0.7,0c-1-0.1-1.9-0.5-2.7-1.1c-0.2-0.1-0.4-0.3-0.5-0.5c0.2,0,0.5,0,0.7,0
		c1,0.1,1.9,0.5,2.7,1.1C1443.2,613.5,1443.3,613.7,1443.5,613.9z"/>
	<path class="st6" d="M1441.3,607c-0.1,0-0.1,0-0.2,0c-0.2,0-0.3,0.1-0.5,0.1c-0.9,0.1-1.9-0.1-2.8-0.5c-0.2-0.1-0.4-0.2-0.6-0.3
		c0.2-0.1,0.4-0.1,0.7-0.1c0.9-0.1,1.9,0.1,2.8,0.5c0.2,0.1,0.3,0.1,0.4,0.2C1441.2,606.9,1441.2,606.9,1441.3,607z"/>
	<path class="st6" d="M1444.6,603.2c-0.1,0.1-0.3,0.2-0.4,0.2c-0.6,0.2-1.3,0.2-2-0.1c-0.2-0.1-0.3-0.2-0.4-0.3
		c0.1-0.1,0.3-0.1,0.5-0.2c0.6-0.2,1.3-0.1,1.9,0.1C1444.3,603,1444.5,603.1,1444.6,603.2z"/>
	<path class="st6" d="M1438,599.2C1438.1,599.2,1438.1,599.1,1438,599.2c-0.1-0.1-0.2,0-0.3,0c-0.1,0-0.2,0-0.3,0
		c-1,0.1-1.9,0-2.9-0.4c-0.2-0.1-0.4-0.2-0.6-0.3c0.2-0.1,0.4-0.1,0.7-0.1c1-0.1,1.9,0,2.9,0.4c0.1,0,0.2,0.1,0.3,0.1
		c0.1,0,0.2,0.1,0.2,0.1C1438.1,599,1438.1,599.1,1438,599.2C1438.1,599.1,1438.1,599.2,1438,599.2z"/>
	<path class="st6" d="M1442.4,594.3c-0.2,0-0.4,0.1-0.7,0c-0.9,0-1.8-0.3-2.6-0.8c-0.2-0.1-0.4-0.2-0.5-0.4c0.2,0,0.4-0.1,0.7,0
		c0.9,0,1.8,0.3,2.6,0.8C1442.1,594,1442.2,594.2,1442.4,594.3z"/>
	<path class="st6" d="M1439.5,588.3c-0.3,0-0.5,0-0.8,0c-1.1-0.2-2.1-0.7-2.8-1.6c-0.2-0.2-0.3-0.4-0.4-0.6c0.2,0.1,0.5,0.2,0.7,0.3
		c0.4,0.2,0.9,0.4,1.4,0.7c0.5,0.3,0.9,0.6,1.3,0.8C1439.1,587.9,1439.3,588.1,1439.5,588.3z"/>
	<path class="st6" d="M1443.2,587.9c-0.2,0-0.5,0-0.7,0c-1-0.1-1.8-0.6-2.5-1.3c-0.2-0.2-0.3-0.3-0.4-0.5c0.2,0,0.4,0.1,0.6,0.2
		c0.4,0.1,0.9,0.3,1.3,0.5c0.4,0.2,0.8,0.4,1.2,0.7C1442.8,587.6,1443,587.7,1443.2,587.9z"/>
	<path class="st6" d="M1442.6,584.1c-0.3-0.1-0.7-0.3-1-0.4c-1.4-0.7-2.6-1.6-3.7-2.6c-0.3-0.2-0.5-0.5-0.7-0.8
		c0.3,0.1,0.7,0.2,1,0.4c1.4,0.7,2.6,1.6,3.7,2.6C1442.2,583.6,1442.4,583.8,1442.6,584.1z"/>
	<path class="st6" d="M1445.3,581c-0.2-0.1-0.3-0.3-0.5-0.5c-0.6-0.7-1.1-1.6-1.3-2.5c-0.2,0-0.3-0.2-0.3-0.4c0-0.2,0.2-0.3,0.4-0.3
		c0.2,0,0.3,0.2,0.3,0.4c0,0,0,0,0,0.1c0.6,0.7,1.1,1.6,1.3,2.5C1445.3,580.5,1445.3,580.8,1445.3,581z"/>
	<path class="st6" d="M1466,579.1c0.2,0,0.4-0.1,0.5-0.2c0.3-0.2,0.5-0.5,0.7-0.8c0.2-0.2,0.3-0.4,0.5-0.5c0.4-0.3,0.8-0.4,1.2-0.4
		c-0.1,0.2-0.2,0.3-0.4,0.5c-0.2,0.3-0.5,0.6-0.7,1l-0.3,0.3c-0.1,0.1-0.2,0.2-0.3,0.3c-0.2,0.1-0.5,0.2-0.7,0.2
		c-0.2,0-0.4,0-0.5-0.1C1466,579.2,1466,579.2,1466,579.1z"/>
	<path class="st6" d="M1469.7,616.2c0.2,0.1,0.4,0.2,0.5,0.3c0.7,0.6,1,1.5,0.9,2.4c0,0.2-0.1,0.4-0.2,0.6c-0.1-0.2-0.2-0.4-0.3-0.5
		c-0.1-0.3-0.3-0.7-0.4-1.1c-0.1-0.4-0.3-0.8-0.4-1.1C1469.8,616.6,1469.7,616.4,1469.7,616.2z"/>
</g>
<path class="st8" d="M1455.1,621.9c-1.4-0.3-2.8-0.4-4.2-0.3c0.5,1.5,1.3,2.9,1.8,4.4c0.5,1.5,0.7,3.1,0.9,4.7
	c0.6,5,1.2,10,1.5,15.1c0.1,0.9,0.1,1.9-0.2,2.8c-0.4,0.9-0.9,1.8-1.6,2.6c-0.6,0.8-0.8,1.9-0.5,2.9c3.8,0.1,7.6,0,11.5-0.2
	c1.8,0,3.6-0.3,5.4-0.9c1.8-0.6,3.2-1.8,4.1-3.4c0.3-0.9,0.6-1.8,0.7-2.7l3.5-20.7c0-0.1,0-0.3,0.1-0.4c0.2-1.4,0.4-2.7,0.5-4.1
	c0-0.7,0-1.3,0-2c0-0.7,0.1-1.4,0.1-2.1c0-0.1,0-0.3-0.1-0.3c0,0.3-0.2,0.5-0.3,0.7c-0.3,0.2-0.5,0.3-0.8,0.4
	c-0.3,0.1-0.6,0.3-0.9,0.4c-0.6,0.2-1.2,0.5-1.8,0.7c-1.2,0.5-2.4,0.9-3.7,1.3c-2.5,0.8-5,1.4-7.6,1.6
	C1460.5,622.5,1457.8,622.3,1455.1,621.9z"/>
<path class="st9" d="M1474.4,646.9c-0.1,0.9-0.3,1.8-0.7,2.7c-0.8,1.6-2.3,2.9-4.1,3.4c-1.7,0.6-3.5,0.8-5.4,0.9
	c-3.8,0.2-7.6,0.3-11.5,0.2c-0.3-1-0.1-2.1,0.5-2.9c0.6-0.8,1.1-1.7,1.6-2.6c0.2-0.9,0.3-1.9,0.2-2.8c-0.1-2-0.3-4.1-0.5-6.1
	c-0.2-1.7-0.6-3.5,1.2-4.4c0.9-0.4,1.8-0.5,2.8-0.5l13.2-0.6l2.8-0.1c0.6-0.1,1.2,0,1.8,0.2C1476.1,638.5,1475.1,642.7,1474.4,646.9
	z"/>
<path class="st1" d="M1440.1,629.6c1,3.1,1.6,6.4,2.2,9.6c0.7,3.2,1.7,6.3,2.5,9.5c0.1,0.5,0.3,0.9,0.4,1.4c0.3,0.7,0.6,1.3,1,1.9
	c0.4,0.9,1.2,1.5,2,1.9c1,0.2,2,0.3,3,0.2c1,0,2.1,0,3.1,0h2.3c-0.3-1.8-0.5-3.7-0.6-5.5c0-1-0.1-2-0.2-3c-0.1-0.3-0.1-0.6-0.2-0.9
	c-0.1-0.4,0-0.9-0.1-1.3c0-0.5-0.1-1-0.1-1.4c-0.1-1-0.2-1.9-0.3-2.9c-0.2-1.9-0.5-3.8-0.7-5.7c-0.3-2.7-0.6-5.3-0.6-8
	c-0.1-2.4,0.3-3.4-2.5-3.8c-1.3-0.2-2.6,0.3-3.8,0c-0.4-0.1-0.7-0.2-1-0.5c-0.3-0.3-0.6-0.7-0.8-1c-0.5-0.8-1-1.6-1.4-2.4
	c-0.1-0.2-0.3-0.5-0.3-0.8c-0.2,0-0.5,0-0.7,0c-1.6-0.2-3.2,0-4.7,0.7C1435.4,619.7,1439.2,626.8,1440.1,629.6z"/>
<path class="st10" d="M1455.4,576.1c0,0.1,0,0.2-0.1,0.2s-0.2,0-0.2-0.1c0,0,0,0,0,0c-0.7-1.3-1.2-2.7-1.4-4.2
	c-0.1-0.4-0.2-0.9-0.4-1.3c-0.2-0.4-0.6-0.7-1.1-0.6c-0.5,0.1-0.8,0.5-0.8,1c0,0.5,0.1,1,0.4,1.4c0.7,1.4,1.6,2.6,2.7,3.6
	c-0.4,0-0.8-0.2-1.1-0.6l-2.6-3c-0.3-0.4-0.7-0.7-1.2-0.8c-0.2,0.9-0.2,1.9,0.2,2.8c0.3,0.4,0.6,0.8,1,1.1c0.7,0.5,1.4,1,2.2,1.3
	l-4.7,0c-0.1,0-0.2,0-0.2,0c-0.1,0.1-0.1,0.3,0,0.4c0.1,0.1,0.2,0.2,0.4,0.2c1.7,0.6,3.5,0.9,5.4,0.7c-0.6,0.2-1.1,0.6-1.4,1.3
	c-0.1,0.4-0.2,0.9-0.1,1.3c-0.1,0.7,0.1,1.4,0.4,2.1c0.5-0.6,1-1.3,1.4-2c0.4-0.7,0.5-1.6,0.4-2.4c0.4,0.7,0.7,1.5,0.8,2.3
	c0.2,0.8,0.6,1.5,1.3,2.1c0-1.4-0.1-2.8-0.4-4.2l1.6,1.3c0.7,0.7,1.7,1.2,2.7,1.1c-1-1.7-2.6-3.1-4.5-3.7c1.9-0.8,3.9-1.1,5.9-0.8
	c0.1-0.1,0.1-0.4-0.1-0.5l0,0l0,0c-0.2-0.1-0.4-0.1-0.6-0.1c-1.5-0.2-3,0-4.5,0.5c0.5-0.4,1.1-0.8,1.6-1.2c0.7-0.8,1-1.8,0.8-2.9
	c0,0.8-0.5,1.5-1.1,2c-0.7,0.4-1.3,0.9-1.8,1.5c0.3-1.4,0.8-2.8,1.6-4c0.5-1.1,0.5-2.4-0.1-3.5
	C1456.4,570.9,1455.6,573.4,1455.4,576.1z"/>
<path class="st11" d="M1455.4,576.6c0,0.1,0,0.2-0.1,0.2c-0.1,0-0.2,0-0.2-0.1c0,0,0,0,0,0c-0.6-1.2-1.1-2.5-1.3-3.9
	c0-0.4-0.2-0.8-0.3-1.2c-0.2-0.4-0.6-0.6-1-0.6c-0.4,0.1-0.8,0.5-0.8,1c0,0.5,0.1,0.9,0.3,1.3c0.6,1.3,1.5,2.4,2.5,3.4
	c-0.4,0-0.8-0.2-1-0.5l-2.5-2.8c-0.3-0.4-0.6-0.6-1.1-0.8c-0.2,0.9-0.2,1.8,0.2,2.6c0.2,0.4,0.6,0.8,1,1.1c0.6,0.5,1.3,0.9,2,1.2
	l-4.4,0c-0.1,0-0.1,0-0.2,0c-0.1,0.1-0.1,0.2,0,0.4c0.1,0.1,0.2,0.2,0.3,0.2c1.6,0.6,3.3,0.8,5,0.7c-0.6,0.2-1.1,0.6-1.3,1.2
	c-0.1,0.4-0.2,0.8-0.1,1.3c0,0.7,0.1,1.3,0.3,1.9c0.5-0.6,0.9-1.2,1.3-1.9c0.4-0.7,0.5-1.5,0.4-2.2c0.4,0.7,0.6,1.4,0.8,2.2
	c0.2,0.8,0.6,1.4,1.2,1.9c0-1.3-0.1-2.7-0.4-4l1.5,1.2c0.6,0.7,1.6,1.1,2.5,1.1c-0.9-1.6-2.5-2.9-4.2-3.4c1.7-0.7,3.6-1,5.5-0.8
	c0.1-0.1,0.1-0.3-0.1-0.5l0,0l0,0l0,0c-0.2-0.1-0.3-0.1-0.5-0.1c-1.4-0.2-2.8,0-4.2,0.5c0.5-0.4,1-0.8,1.5-1.1
	c0.6-0.8,0.9-1.7,0.8-2.7c0,0.7-0.4,1.4-1.1,1.8c-0.6,0.4-1.2,0.9-1.7,1.4c0.3-1.3,0.8-2.6,1.5-3.7c0.4-1.1,0.4-2.3,0-3.3
	C1456.3,571.7,1455.6,574.1,1455.4,576.6z"/>
<path id="_Path_" class="st12" d="M1402.9,656.1l-83.5-20.3c-9.4-2.3-15.5-14.4-13.7-27.1l45.7-310.9c1.8-12.7,11.1-23.2,20.9-23.4
	l83.1-1.8c3.6-0.1,7.1,0.6,10.3,2c8.1,3.9,12.6,11.9,11,23.3l-49.6,337.4C1425.1,649.6,1414.2,658.8,1402.9,656.1z"/>
<path id="_Path_2" class="st13" d="M1405.9,656.2l-83.2-20.3c-9.4-2.3-15.4-14.4-13.6-27l45.6-310.3c1.8-12.7,11-23.2,20.8-23.4
	l86.5-1.9c17.6,4.1,23.6,12,21.6,26.2l-49.4,336.2C1432.1,649.8,1426.3,656.8,1405.9,656.2z"/>
<path id="_Path_3" class="st14" d="M1399.8,655.3l-83-20.2c-9.4-2.3-15.4-14.4-13.6-27l45.6-310.3c1.8-12.7,11-23.1,20.8-23.4
	l86.3-1.8c11.6-0.2,19.6,11.1,17.5,25.3l-49.4,336.7C1421.9,648.8,1411,658,1399.8,655.3z"/>
<path id="_Path_4" class="st15" d="M1369.7,623.2c-1,7.1-6.2,11.8-11.6,10.5c-5.3-1.2-8.8-7.9-7.8-14.8c1-6.9,6.1-11.7,11.5-10.6
	C1367.1,609.4,1370.7,616.1,1369.7,623.2z"/>
<path id="_Path_5" class="st15" d="M1429.1,298.4l-30.7,0c-1.1-0.1-1.9-1.2-1.7-2.3c0-0.1,0-0.2,0.1-0.3l0,0
	c0.1-1.3,1.1-2.4,2.4-2.6l30.7-0.1c1.1,0.1,2,1.2,1.9,2.3c0,0.1,0,0.3-0.1,0.4l0,0C1431.5,297.1,1430.5,298.2,1429.1,298.4z"/>
<path class="st15" d="M1391.4,295.7c-0.1,1.3-1.1,2.4-2.4,2.6c-1.1-0.2-1.9-1.2-1.7-2.2c0-0.1,0-0.2,0.1-0.3
	c0.1-1.3,1.1-2.4,2.4-2.6c1.1,0.1,1.9,1.1,1.7,2.2C1391.5,295.5,1391.5,295.6,1391.4,295.7z"/>
<path id="_Path_6" class="st15" d="M1417.1,606.3l-101.4-19.9c-2.1-0.4-3.4-3-3-5.9l39.1-264.9c0.4-2.8,2.5-5.1,4.6-5.1l104.1,1.4
	c2.6,0,4.3,2.6,3.9,5.8l-41.9,283.8C1422,604.6,1419.6,606.8,1417.1,606.3z"/>
<path class="st16" d="M1461.7,333.9l2.6-16.2c0.4-3.1-1.3-5.7-3.9-5.8l-104.1-1.4c-2.1,0-4.2,2.2-4.6,5.1l-2.3,14.6L1461.7,333.9z"
	/>
<g>
	<defs>
		<path id="SVGID_2_" d="M1346.4,353.2l-33.8,227.3c-0.4,2.8,1,5.4,3,5.9l101.4,19.9c2.5,0.5,4.9-1.6,5.4-4.8l35.9-242.2
			L1346.4,353.2z"/>
	</defs>
	<clipPath id="SVGID_3_">
		<use xlink:href="#SVGID_2_"  style="overflow:visible;"/>
	</clipPath>
	<g class="st17">
		<path class="st15" d="M1346.4,353.2l-33.8,227.3c-0.4,2.8,1,5.4,3,5.9l101.4,19.9c2.5,0.5,4.9-1.6,5.4-4.8l35.9-242.2
			L1346.4,353.2z"/>
		
			<linearGradient id="SVGID_4_" gradientUnits="userSpaceOnUse" x1="1369.5889" y1="1366.6206" x2="1369.5889" y2="1297.7554" gradientTransform="matrix(1 0 0 1 -4.100000e-004 -775.997)">
			<stop  offset="0" style="stop-color:#FFFFFF"/>
			<stop  offset="0.1513" style="stop-color:#F1F6FB"/>
			<stop  offset="0.4227" style="stop-color:#DEEAF7"/>
			<stop  offset="0.7022" style="stop-color:#D3E3F4"/>
			<stop  offset="1" style="stop-color:#CFE1F3"/>
		</linearGradient>
		<polygon class="st18" points="1427.2,552.6 1426.9,555.5 1423.7,555.2 1430.1,503.2 1423.4,504.9 1419.9,533.4 1418.6,533.3 
			1418.2,536.1 1415.8,536 1411.9,567.3 1410.6,567.2 1414.8,533 1396.4,533 1396,535.9 1395.4,535.9 1393.4,551.3 1391.8,551.1 
			1393.3,539.2 1392.4,539.1 1393.3,531.4 1387.7,531.1 1386.7,538.7 1385.6,538.6 1387.1,527.3 1386.9,527.3 1385.4,538.6 
			1383.7,538.5 1383.7,537.8 1383.4,537.8 1383.7,533.9 1383.5,533.9 1382.8,537.8 1382.4,537.7 1381.1,548.2 1379.1,548.1 
			1379.3,535.3 1379.8,523.9 1374.9,523.6 1375.6,517.6 1373.9,517.5 1373.1,523.5 1371.9,523.4 1369.6,535.2 1369.3,535.2 
			1369.2,536.3 1368.7,537.3 1365.7,559.7 1363.8,559.5 1365.5,546.9 1364.8,546.9 1365.4,542.3 1364.9,542.3 1365.2,538.2 
			1365,538.2 1364.2,542.2 1363.7,542.2 1363.1,546.7 1362.8,546.7 1363.1,544 1361.8,543.9 1363,534.2 1360.8,534 1361.5,528.4 
			1360.8,528.4 1361.2,525.3 1360.4,525.3 1360.5,525 1360.2,524.9 1360.3,524.4 1359.7,524.3 1360.3,520.1 1359.1,520.1 
			1358.5,524.3 1358,524.3 1357.9,524.8 1357.7,524.8 1357.6,525.1 1356.9,525.1 1356.5,528.1 1355.6,528.1 1356,525.1 1354.8,525 
			1354.4,528 1352.2,527.9 1351.7,531.2 1350.5,531.1 1353.5,508.8 1351.2,508.7 1350.3,515.4 1345.8,515.3 1340.9,548 
			1335.3,549.9 1339.1,522.4 1337,522.3 1337.6,518 1336.6,518 1336,522.2 1332.2,522.1 1330.1,537.5 1329.4,538.3 1329.6,536.8 
			1327.1,536.6 1327.8,531 1327.4,531 1328.2,523.3 1328,523.3 1326.7,530.9 1326.2,530.9 1325.4,536.5 1324.8,536.5 1324.9,535.8 
			1323.4,535.7 1318,559.5 1320.3,542.7 1315.4,542.2 1308.7,590.1 1423,613.8 1430.4,552.9 		"/>
	</g>
</g>
<path class="st19" d="M1469.7,361.5L1469.7,361.5c-1.2-0.4-1.8-1.6-1.6-2.8l2.2-16.5c0-1.1,0.9-2,2.1-2l0,0l0,0c0,0,0.1,0,0.1,0l0,0
	c1.2,0.4,1.8,1.6,1.6,2.8l-2.2,16.4C1471.9,360.6,1470.9,361.5,1469.7,361.5L1469.7,361.5L1469.7,361.5
	C1469.7,361.5,1469.7,361.5,1469.7,361.5z"/>
<path class="st19" d="M1466,388.8L1466,388.8c-1.2-0.4-1.8-1.6-1.6-2.7l2.2-16.5c0-1.2,1-2.1,2.1-2.1l0,0l0.1,0l0,0
	c1.2,0.4,1.8,1.6,1.6,2.8l-2.2,16.4C1468.1,387.9,1467.2,388.9,1466,388.8L1466,388.8L1466,388.8z"/>
<g>
	<defs>
		<path id="SVGID_5_" d="M1418.2,433.9l-55.6-5.6c-1.2-0.3-1.9-1.4-1.7-2.6v0l0,0l0-0.1l5.3-38.2c0.1-1.3,1.1-2.3,2.3-2.4l56.4,3.4
			c1.2,0.2,2.1,1.3,1.9,2.5c0,0,0,0,0,0l0,0c0,0.1,0,0.2,0,0.2l-6,40.3C1420.7,432.9,1419.5,433.9,1418.2,433.9z"/>
	</defs>
	<clipPath id="SVGID_6_">
		<use xlink:href="#SVGID_5_"  style="overflow:visible;"/>
	</clipPath>
	<g class="st20">
		<path class="st21" d="M1366.6,385l-5.9,43.1L1366.6,385z"/>
		<polygon class="st21" points="1367.1,385 1361.1,428.1 1360.6,428.1 1366.6,385 		"/>
		<polygon class="st22" points="1367.6,385 1361.7,428.2 1361.1,428.1 1367.1,385 		"/>
		<polygon class="st23" points="1368.1,385.1 1362.2,428.2 1361.7,428.2 1367.6,385 		"/>
		<polygon class="st24" points="1368.7,385.1 1362.7,428.3 1362.2,428.2 1368.1,385.1 		"/>
		<polygon class="st25" points="1369.2,385.1 1363.2,428.3 1362.7,428.3 1368.7,385.1 		"/>
		<polygon class="st26" points="1369.7,385.2 1363.7,428.4 1363.2,428.3 1369.2,385.1 		"/>
		<polygon class="st27" points="1370.2,385.2 1364.2,428.4 1363.7,428.4 1369.7,385.2 		"/>
		<polygon class="st28" points="1370.8,385.2 1364.8,428.5 1364.2,428.4 1370.2,385.2 		"/>
		<polygon class="st29" points="1371.3,385.3 1365.3,428.5 1364.8,428.5 1370.8,385.2 		"/>
		<polygon class="st30" points="1371.8,385.3 1365.8,428.6 1365.3,428.5 1371.3,385.3 		"/>
		<polygon class="st31" points="1372.3,385.3 1366.3,428.6 1365.8,428.6 1371.8,385.3 		"/>
		<polygon class="st32" points="1372.9,385.3 1366.8,428.7 1366.3,428.6 1372.3,385.3 		"/>
		<polygon class="st33" points="1373.4,385.4 1367.4,428.7 1366.8,428.7 1372.9,385.3 		"/>
		<polygon class="st34" points="1373.9,385.4 1367.9,428.8 1367.4,428.7 1373.4,385.4 		"/>
		<polygon class="st35" points="1374.4,385.4 1368.4,428.9 1367.9,428.8 1373.9,385.4 		"/>
		<polygon class="st36" points="1375,385.5 1368.9,428.9 1368.4,428.9 1374.4,385.4 		"/>
		<polygon class="st37" points="1375.5,385.5 1369.4,429 1368.9,428.9 1375,385.5 		"/>
		<polygon class="st38" points="1376,385.5 1370,429 1369.4,429 1375.5,385.5 		"/>
		<polygon class="st39" points="1376.6,385.6 1370.5,429.1 1370,429 1376,385.5 		"/>
		<polygon class="st40" points="1377.1,385.6 1371,429.1 1370.5,429.1 1376.6,385.6 		"/>
		<polygon class="st41" points="1377.6,385.6 1371.5,429.2 1371,429.1 1377.1,385.6 		"/>
		<polygon class="st42" points="1378.2,385.7 1372.1,429.2 1371.5,429.2 1377.6,385.6 		"/>
		<polygon class="st43" points="1378.7,385.7 1372.6,429.3 1372.1,429.2 1378.2,385.7 		"/>
		<polygon class="st44" points="1379.2,385.7 1373.1,429.3 1372.6,429.3 1378.7,385.7 		"/>
		<polygon class="st45" points="1379.8,385.8 1373.6,429.4 1373.1,429.3 1379.2,385.7 		"/>
		<polygon class="st46" points="1380.3,385.8 1374.2,429.4 1373.6,429.4 1379.8,385.8 		"/>
		<polygon class="st47" points="1380.8,385.8 1374.7,429.5 1374.2,429.4 1380.3,385.8 		"/>
		<polygon class="st48" points="1381.4,385.9 1375.2,429.5 1374.7,429.5 1380.8,385.8 		"/>
		<polygon class="st49" points="1381.9,385.9 1375.8,429.6 1375.2,429.5 1381.4,385.9 		"/>
		<polygon class="st50" points="1382.4,385.9 1376.3,429.7 1375.8,429.6 1381.9,385.9 		"/>
		<polygon class="st51" points="1383,386 1376.8,429.7 1376.3,429.7 1382.4,385.9 		"/>
		<polygon class="st52" points="1383.5,386 1377.4,429.8 1376.8,429.7 1383,386 		"/>
		<polygon class="st53" points="1384.1,386 1377.9,429.8 1377.4,429.8 1383.5,386 		"/>
		<polygon class="st54" points="1384.6,386.1 1378.4,429.9 1377.9,429.8 1384.1,386 		"/>
		<polygon class="st55" points="1385.1,386.1 1378.9,429.9 1378.4,429.9 1384.6,386.1 		"/>
		<polygon class="st56" points="1385.7,386.1 1379.5,430 1378.9,429.9 1385.1,386.1 		"/>
		<polygon class="st57" points="1386.2,386.2 1380,430 1379.5,430 1385.7,386.1 		"/>
		<polygon class="st58" points="1386.8,386.2 1380.5,430.1 1380,430 1386.2,386.2 		"/>
		<polygon class="st59" points="1387.3,386.2 1381.1,430.1 1380.5,430.1 1386.8,386.2 		"/>
		<polygon class="st60" points="1387.8,386.3 1381.6,430.2 1381.1,430.1 1387.3,386.2 		"/>
		<polygon class="st61" points="1388.4,386.3 1382.1,430.2 1381.6,430.2 1387.8,386.3 		"/>
		<polygon class="st62" points="1388.9,386.3 1382.7,430.3 1382.1,430.2 1388.4,386.3 		"/>
		<polygon class="st63" points="1389.5,386.4 1383.2,430.4 1382.7,430.3 1388.9,386.3 		"/>
		<polygon class="st64" points="1390,386.4 1383.8,430.4 1383.2,430.4 1389.5,386.4 		"/>
		<polygon class="st65" points="1390.6,386.4 1384.3,430.5 1383.8,430.4 1390,386.4 		"/>
		<polygon class="st66" points="1391.1,386.5 1384.8,430.5 1384.3,430.5 1390.6,386.4 		"/>
		<polygon class="st67" points="1391.7,386.5 1385.4,430.6 1384.8,430.5 1391.1,386.5 		"/>
		<polygon class="st68" points="1392.2,386.5 1385.9,430.6 1385.4,430.6 1391.7,386.5 		"/>
		<polygon class="st69" points="1392.8,386.6 1386.4,430.7 1385.9,430.6 1392.2,386.5 		"/>
		<polygon class="st70" points="1393.3,386.6 1387,430.7 1386.4,430.7 1392.8,386.6 		"/>
		<polygon class="st71" points="1393.9,386.6 1387.5,430.8 1387,430.7 1393.3,386.6 		"/>
		<polygon class="st72" points="1394.4,386.7 1388.1,430.8 1387.5,430.8 1393.9,386.6 		"/>
		<polygon class="st73" points="1395,386.7 1388.6,430.9 1388.1,430.8 1394.4,386.7 		"/>
		<polygon class="st74" points="1395.5,386.7 1389.2,431 1388.6,430.9 1395,386.7 		"/>
		<polygon class="st75" points="1396.1,386.8 1389.7,431 1389.2,431 1395.5,386.7 		"/>
		<polygon class="st76" points="1396.6,386.8 1390.2,431.1 1389.7,431 1396.1,386.8 		"/>
		<polygon class="st77" points="1397.2,386.8 1390.8,431.1 1390.2,431.1 1396.6,386.8 		"/>
		<polygon class="st78" points="1397.7,386.9 1391.3,431.2 1390.8,431.1 1397.2,386.8 		"/>
		<polygon class="st79" points="1398.3,386.9 1391.9,431.2 1391.3,431.2 1397.7,386.9 		"/>
		<polygon class="st80" points="1398.8,386.9 1392.4,431.3 1391.9,431.2 1398.3,386.9 		"/>
		<polygon class="st81" points="1399.4,387 1393,431.3 1392.4,431.3 1398.8,386.9 		"/>
		<polygon class="st82" points="1399.9,387 1393.5,431.4 1393,431.3 1399.4,387 		"/>
		<polygon class="st82" points="1400.5,387 1394.1,431.5 1393.5,431.4 1399.9,387 		"/>
		<polygon class="st83" points="1401,387.1 1394.6,431.5 1394.1,431.5 1400.5,387 		"/>
		<polygon class="st84" points="1401.6,387.1 1395.2,431.6 1394.6,431.5 1401,387.1 		"/>
		<polygon class="st85" points="1402.1,387.1 1395.7,431.6 1395.2,431.6 1401.6,387.1 		"/>
		<polygon class="st86" points="1402.7,387.2 1396.3,431.7 1395.7,431.6 1402.1,387.1 		"/>
		<polygon class="st86" points="1403.3,387.2 1396.8,431.7 1396.3,431.7 1402.7,387.2 		"/>
		<polygon class="st87" points="1403.8,387.2 1397.4,431.8 1396.8,431.7 1403.3,387.2 		"/>
		<polygon class="st88" points="1404.4,387.3 1397.9,431.8 1397.4,431.8 1403.8,387.2 		"/>
		<polygon class="st88" points="1404.9,387.3 1398.5,431.9 1397.9,431.8 1404.4,387.3 		"/>
		<polygon class="st89" points="1405.5,387.3 1399,432 1398.5,431.9 1404.9,387.3 		"/>
		<polygon class="st90" points="1406.1,387.4 1399.6,432 1399,432 1405.5,387.3 		"/>
		<polygon class="st90" points="1406.6,387.4 1400.1,432.1 1399.6,432 1406.1,387.4 		"/>
		<polygon class="st91" points="1407.2,387.4 1400.7,432.1 1400.1,432.1 1406.6,387.4 		"/>
		<polygon class="st92" points="1407.7,387.5 1401.2,432.2 1400.7,432.1 1407.2,387.4 		"/>
		<polygon class="st93" points="1408.3,387.5 1401.8,432.2 1401.2,432.2 1407.7,387.5 		"/>
		<polygon class="st94" points="1408.9,387.5 1402.3,432.3 1401.8,432.2 1408.3,387.5 		"/>
		<polygon class="st94" points="1409.4,387.6 1402.9,432.3 1402.3,432.3 1408.9,387.5 		"/>
		<polygon class="st95" points="1410,387.6 1403.4,432.4 1402.9,432.3 1409.4,387.6 		"/>
		<polygon class="st96" points="1410.6,387.6 1404,432.5 1403.4,432.4 1410,387.6 		"/>
		<polygon class="st97" points="1411.1,387.7 1404.6,432.5 1404,432.5 1410.6,387.6 		"/>
		<polygon class="st97" points="1411.7,387.7 1405.1,432.6 1404.6,432.5 1411.1,387.7 		"/>
		<polygon class="st98" points="1412.3,387.7 1405.7,432.6 1405.1,432.6 1411.7,387.7 		"/>
		<polygon class="st99" points="1412.8,387.8 1406.2,432.7 1405.7,432.6 1412.3,387.7 		"/>
		<polygon class="st99" points="1413.4,387.8 1406.8,432.7 1406.2,432.7 1412.8,387.8 		"/>
		<polygon class="st100" points="1414,387.8 1407.4,432.8 1406.8,432.7 1413.4,387.8 		"/>
		<polygon class="st100" points="1414.5,387.9 1407.9,432.9 1407.4,432.8 1414,387.8 		"/>
		<polygon class="st101" points="1415.1,387.9 1408.5,432.9 1407.9,432.9 1414.5,387.9 		"/>
		<polygon class="st102" points="1415.7,387.9 1409,433 1408.5,432.9 1415.1,387.9 		"/>
		<polygon class="st102" points="1416.2,388 1409.6,433 1409,433 1415.7,387.9 		"/>
		<polygon class="st103" points="1416.8,388 1410.2,433.1 1409.6,433 1416.2,388 		"/>
		<polygon class="st104" points="1417.4,388 1410.7,433.1 1410.2,433.1 1416.8,388 		"/>
		<polygon class="st104" points="1418,388.1 1411.3,433.2 1410.7,433.1 1417.4,388 		"/>
		<polygon class="st104" points="1418.5,388.1 1411.9,433.3 1411.3,433.2 1418,388.1 		"/>
		<polygon class="st105" points="1419.1,388.1 1412.4,433.3 1411.9,433.3 1418.5,388.1 		"/>
		<polygon class="st105" points="1419.7,388.2 1413,433.4 1412.4,433.3 1419.1,388.1 		"/>
		<polygon class="st105" points="1420.3,388.2 1413.6,433.4 1413,433.4 1419.7,388.2 		"/>
		<polygon class="st106" points="1420.8,388.3 1414.1,433.5 1413.6,433.4 1420.3,388.2 		"/>
		<polygon class="st106" points="1421.4,388.3 1414.7,433.5 1414.1,433.5 1420.8,388.3 		"/>
		<polygon class="st106" points="1422,388.3 1415.3,433.6 1414.7,433.5 1421.4,388.3 		"/>
		<polygon class="st107" points="1422.6,388.4 1415.8,433.7 1415.3,433.6 1422,388.3 		"/>
		<polygon class="st107" points="1423.1,388.4 1416.4,433.7 1415.8,433.7 1422.6,388.4 		"/>
		<polygon class="st107" points="1423.7,388.4 1417,433.8 1416.4,433.7 1423.1,388.4 		"/>
		<polygon class="st107" points="1424.3,388.5 1417.5,433.8 1417,433.8 1423.7,388.4 		"/>
		<polygon class="st107" points="1424.9,388.5 1418.1,433.9 1417.5,433.8 1424.3,388.5 		"/>
		<polygon class="st107" points="1425.5,388.5 1418.7,433.9 1418.1,433.9 1424.9,388.5 		"/>
		<polygon class="st107" points="1426,388.6 1419.2,434 1418.7,433.9 1425.5,388.5 		"/>
		<polygon class="st107" points="1426.6,388.6 1419.8,434.1 1419.2,434 1426,388.6 		"/>
		<polygon class="st107" points="1427.2,388.6 1420.4,434.1 1419.8,434.1 1426.6,388.6 		"/>
		<path class="st107" d="M1420.4,434.1l6.8-45.5L1420.4,434.1z"/>
	</g>
</g>
<path class="st15" d="M1378.9,396l-2.8-0.2l-1.3,9.6l-1.1-0.1l1.3-9.6l-2.8-0.2l0.2-1.2l6.8,0.5L1378.9,396z"/>
<path class="st15" d="M1386.3,406.3l-1.2-0.1l0.7-5l-4.5-0.3l-0.7,5l-1.2-0.1l1.5-10.8l1.2,0.1l-0.7,4.7l4.5,0.3l0.7-4.7l1.2,0.1
	L1386.3,406.3z"/>
<path class="st15" d="M1394.6,404l-3.8-0.3l-1.3,2.8l-1.2-0.1l5-10.7l1,0.1l1.9,11.2l-1.2-0.1L1394.6,404z M1391.3,402.6l3.1,0.2
	l-0.8-5.2L1391.3,402.6z"/>
<path class="st15" d="M1405.2,407.8l-1.2-0.1l-3.4-8.8l-1.2,8.5l-1.2-0.1l1.6-11l1.2,0.1l3.4,8.9l1.2-8.6l1.2,0.1L1405.2,407.8z"/>
<path class="st15" d="M1411.2,403l-1.4,1.3l-0.6,3.7l-1.2-0.1l1.6-11.1l1.2,0.1l-0.8,5.5l5-5.2l1.5,0.1l-4.4,4.7l3.1,6.5l-1.5-0.1
	L1411.2,403z"/>
<path class="st15" d="M1382,416.1l3.1-5.2l1.3,0.1l-4,6.5l-0.6,4l-1.2-0.1l0.6-4l-2.1-7l1.3,0.1L1382,416.1z"/>
<path class="st15" d="M1394.2,417.5c-0.1,1-0.4,1.9-0.9,2.8c-0.3,0.7-0.9,1.3-1.5,1.7c-0.6,0.4-1.3,0.5-2,0.4
	c-0.7-0.1-1.3-0.3-1.8-0.8c-0.5-0.5-0.9-1.2-1-1.9c-0.2-0.9-0.2-1.8-0.1-2.7l0.1-0.8c0.1-1,0.4-1.9,0.8-2.7c0.3-0.7,0.9-1.3,1.5-1.7
	c0.6-0.4,1.3-0.5,2-0.5c0.7,0,1.3,0.3,1.8,0.8c0.5,0.5,0.9,1.2,1,1.9c0.2,0.9,0.2,1.9,0,2.8L1394.2,417.5z M1393.1,416.7
	c0.2-1,0.1-2.1-0.2-3c-0.3-0.7-0.9-1.2-1.7-1.2c-0.8-0.1-1.5,0.3-1.9,0.9c-0.6,0.8-1,1.8-1.1,2.8l-0.1,0.8c-0.2,1-0.1,2,0.2,3
	c0.3,0.7,0.9,1.2,1.6,1.2c0.7,0.1,1.5-0.2,1.9-0.8c0.6-0.8,1-1.8,1.1-2.8L1393.1,416.7z"/>
<path class="st15" d="M1403.9,412.4l-1.1,7.5c-0.1,0.9-0.5,1.8-1.2,2.5c-0.6,0.6-1.5,0.9-2.4,0.9l-0.3,0c-0.9,0-1.7-0.5-2.3-1.2
	c-0.5-0.8-0.7-1.8-0.5-2.7l1.1-7.5l1.2,0.1l-1.1,7.4c-0.1,0.6,0,1.3,0.3,1.9c0.3,0.5,0.9,0.8,1.5,0.8c0.6,0.1,1.2-0.1,1.7-0.5
	c0.5-0.5,0.8-1.1,0.8-1.8l1.1-7.5L1403.9,412.4z"/>
<g>
	<defs>
		<path id="SVGID_7_" d="M1406.5,512.2l-54.2-9.4c-1.2-0.3-1.9-1.5-1.6-2.7l7.2-52.3c0.1-1.2,1.1-2.2,2.3-2.2l55.3,6.5
			c1.3,0.3,2.1,1.5,1.8,2.7l0,0.1L1409,510C1408.9,511.3,1407.8,512.3,1406.5,512.2L1406.5,512.2L1406.5,512.2L1406.5,512.2z"/>
	</defs>
	<clipPath id="SVGID_8_">
		<use xlink:href="#SVGID_7_"  style="overflow:visible;"/>
	</clipPath>
	<g class="st108">
		<path class="st109" d="M1358.3,445.3l-7.9,57.1L1358.3,445.3z"/>
		<polygon class="st109" points="1358.8,445.4 1350.9,502.5 1350.4,502.5 1358.3,445.3 		"/>
		<polygon class="st110" points="1359.3,445.4 1351.4,502.6 1350.9,502.5 1358.8,445.4 		"/>
		<polygon class="st111" points="1359.8,445.5 1351.9,502.7 1351.4,502.6 1359.3,445.4 		"/>
		<polygon class="st112" points="1360.3,445.6 1352.4,502.8 1351.9,502.7 1359.8,445.5 		"/>
		<polygon class="st113" points="1360.8,445.6 1352.9,502.9 1352.4,502.8 1360.3,445.6 		"/>
		<polygon class="st114" points="1361.4,445.7 1353.4,503 1352.9,502.9 1360.8,445.6 		"/>
		<polygon class="st115" points="1361.9,445.7 1353.9,503.1 1353.4,503 1361.4,445.7 		"/>
		<polygon class="st116" points="1362.4,445.8 1354.5,503.2 1353.9,503.1 1361.9,445.7 		"/>
		<polygon class="st117" points="1362.9,445.9 1355,503.2 1354.5,503.2 1362.4,445.8 		"/>
		<polygon class="st118" points="1363.4,445.9 1355.5,503.3 1355,503.2 1362.9,445.9 		"/>
		<polygon class="st119" points="1364,446 1356,503.4 1355.5,503.3 1363.4,445.9 		"/>
		<polygon class="st120" points="1364.5,446 1356.5,503.5 1356,503.4 1364,446 		"/>
		<polygon class="st121" points="1365,446.1 1357,503.6 1356.5,503.5 1364.5,446 		"/>
		<polygon class="st122" points="1365.5,446.2 1357.5,503.7 1357,503.6 1365,446.1 		"/>
		<polygon class="st123" points="1366.1,446.2 1358,503.8 1357.5,503.7 1365.5,446.2 		"/>
		<polygon class="st124" points="1366.6,446.3 1358.6,503.9 1358,503.8 1366.1,446.2 		"/>
		<polygon class="st125" points="1367.1,446.4 1359.1,504 1358.6,503.9 1366.6,446.3 		"/>
		<polygon class="st126" points="1367.6,446.4 1359.6,504 1359.1,504 1367.1,446.4 		"/>
		<polygon class="st127" points="1368.2,446.5 1360.1,504.1 1359.6,504 1367.6,446.4 		"/>
		<polygon class="st128" points="1368.7,446.5 1360.6,504.2 1360.1,504.1 1368.2,446.5 		"/>
		<polygon class="st129" points="1369.2,446.6 1361.1,504.3 1360.6,504.2 1368.7,446.5 		"/>
		<polygon class="st130" points="1369.7,446.7 1361.6,504.4 1361.1,504.3 1369.2,446.6 		"/>
		<polygon class="st131" points="1370.3,446.7 1362.2,504.5 1361.6,504.4 1369.7,446.7 		"/>
		<polygon class="st132" points="1370.8,446.8 1362.7,504.6 1362.2,504.5 1370.3,446.7 		"/>
		<polygon class="st133" points="1371.3,446.8 1363.2,504.7 1362.7,504.6 1370.8,446.8 		"/>
		<polygon class="st134" points="1371.8,446.9 1363.7,504.8 1363.2,504.7 1371.3,446.8 		"/>
		<polygon class="st135" points="1372.4,447 1364.2,504.8 1363.7,504.8 1371.8,446.9 		"/>
		<polygon class="st136" points="1372.9,447 1364.8,504.9 1364.2,504.8 1372.4,447 		"/>
		<polygon class="st137" points="1373.4,447.1 1365.3,505 1364.8,504.9 1372.9,447 		"/>
		<polygon class="st138" points="1374,447.2 1365.8,505.1 1365.3,505 1373.4,447.1 		"/>
		<polygon class="st139" points="1374.5,447.2 1366.3,505.2 1365.8,505.1 1374,447.2 		"/>
		<polygon class="st140" points="1375,447.3 1366.8,505.3 1366.3,505.2 1374.5,447.2 		"/>
		<polygon class="st141" points="1375.6,447.3 1367.4,505.4 1366.8,505.3 1375,447.3 		"/>
		<polygon class="st142" points="1376.1,447.4 1367.9,505.5 1367.4,505.4 1375.6,447.3 		"/>
		<polygon class="st143" points="1376.6,447.5 1368.4,505.6 1367.9,505.5 1376.1,447.4 		"/>
		<polygon class="st144" points="1377.2,447.5 1368.9,505.7 1368.4,505.6 1376.6,447.5 		"/>
		<polygon class="st145" points="1377.7,447.6 1369.5,505.8 1368.9,505.7 1377.2,447.5 		"/>
		<polygon class="st146" points="1378.2,447.7 1370,505.8 1369.5,505.8 1377.7,447.6 		"/>
		<polygon class="st147" points="1378.8,447.7 1370.5,505.9 1370,505.8 1378.2,447.7 		"/>
		<polygon class="st148" points="1379.3,447.8 1371,506 1370.5,505.9 1378.8,447.7 		"/>
		<polygon class="st149" points="1379.9,447.9 1371.6,506.1 1371,506 1379.3,447.8 		"/>
		<polygon class="st150" points="1380.4,447.9 1372.1,506.2 1371.6,506.1 1379.9,447.9 		"/>
		<polygon class="st151" points="1380.9,448 1372.6,506.3 1372.1,506.2 1380.4,447.9 		"/>
		<polygon class="st152" points="1381.5,448 1373.2,506.4 1372.6,506.3 1380.9,448 		"/>
		<polygon class="st153" points="1382,448.1 1373.7,506.5 1373.2,506.4 1381.5,448 		"/>
		<polygon class="st154" points="1382.5,448.2 1374.2,506.6 1373.7,506.5 1382,448.1 		"/>
		<polygon class="st155" points="1383.1,448.2 1374.7,506.7 1374.2,506.6 1382.5,448.2 		"/>
		<polygon class="st156" points="1383.6,448.3 1375.3,506.8 1374.7,506.7 1383.1,448.2 		"/>
		<polygon class="st157" points="1384.2,448.4 1375.8,506.8 1375.3,506.8 1383.6,448.3 		"/>
		<polygon class="st158" points="1384.7,448.4 1376.3,506.9 1375.8,506.8 1384.2,448.4 		"/>
		<polygon class="st159" points="1385.3,448.5 1376.9,507 1376.3,506.9 1384.7,448.4 		"/>
		<polygon class="st160" points="1385.8,448.6 1377.4,507.1 1376.9,507 1385.3,448.5 		"/>
		<polygon class="st161" points="1386.3,448.6 1377.9,507.2 1377.4,507.1 1385.8,448.6 		"/>
		<polygon class="st162" points="1386.9,448.7 1378.5,507.3 1377.9,507.2 1386.3,448.6 		"/>
		<polygon class="st163" points="1387.4,448.7 1379,507.4 1378.5,507.3 1386.9,448.7 		"/>
		<polygon class="st164" points="1388,448.8 1379.5,507.5 1379,507.4 1387.4,448.7 		"/>
		<polygon class="st165" points="1388.5,448.9 1380.1,507.6 1379.5,507.5 1388,448.8 		"/>
		<polygon class="st166" points="1389.1,448.9 1380.6,507.7 1380.1,507.6 1388.5,448.9 		"/>
		<polygon class="st167" points="1389.6,449 1381.1,507.8 1380.6,507.7 1389.1,448.9 		"/>
		<polygon class="st167" points="1390.2,449.1 1381.7,507.9 1381.1,507.8 1389.6,449 		"/>
		<polygon class="st168" points="1390.7,449.1 1382.2,508 1381.7,507.9 1390.2,449.1 		"/>
		<polygon class="st169" points="1391.3,449.2 1382.8,508 1382.2,508 1390.7,449.1 		"/>
		<polygon class="st170" points="1391.8,449.3 1383.3,508.1 1382.8,508 1391.3,449.2 		"/>
		<polygon class="st171" points="1392.4,449.3 1383.8,508.2 1383.3,508.1 1391.8,449.3 		"/>
		<polygon class="st172" points="1392.9,449.4 1384.4,508.3 1383.8,508.2 1392.4,449.3 		"/>
		<polygon class="st172" points="1393.5,449.5 1384.9,508.4 1384.4,508.3 1392.9,449.4 		"/>
		<polygon class="st173" points="1394,449.5 1385.5,508.5 1384.9,508.4 1393.5,449.5 		"/>
		<polygon class="st174" points="1394.6,449.6 1386,508.6 1385.5,508.5 1394,449.5 		"/>
		<polygon class="st175" points="1395.1,449.7 1386.5,508.7 1386,508.6 1394.6,449.6 		"/>
		<polygon class="st176" points="1395.7,449.7 1387.1,508.8 1386.5,508.7 1395.1,449.7 		"/>
		<polygon class="st177" points="1396.2,449.8 1387.6,508.9 1387.1,508.8 1395.7,449.7 		"/>
		<polygon class="st178" points="1396.8,449.8 1388.2,509 1387.6,508.9 1396.2,449.8 		"/>
		<polygon class="st178" points="1397.3,449.9 1388.7,509.1 1388.2,509 1396.8,449.8 		"/>
		<polygon class="st179" points="1397.9,450 1389.3,509.2 1388.7,509.1 1397.3,449.9 		"/>
		<polygon class="st179" points="1398.4,450 1389.8,509.3 1389.3,509.2 1397.9,450 		"/>
		<polygon class="st180" points="1399,450.1 1390.3,509.4 1389.8,509.3 1398.4,450 		"/>
		<polygon class="st181" points="1399.5,450.2 1390.9,509.5 1390.3,509.4 1399,450.1 		"/>
		<polygon class="st182" points="1400.1,450.2 1391.4,509.5 1390.9,509.5 1399.5,450.2 		"/>
		<polygon class="st183" points="1400.7,450.3 1392,509.6 1391.4,509.5 1400.1,450.2 		"/>
		<polygon class="st184" points="1401.2,450.4 1392.5,509.7 1392,509.6 1400.7,450.3 		"/>
		<polygon class="st185" points="1401.8,450.4 1393.1,509.8 1392.5,509.7 1401.2,450.4 		"/>
		<polygon class="st185" points="1402.3,450.5 1393.6,509.9 1393.1,509.8 1401.8,450.4 		"/>
		<polygon class="st186" points="1402.9,450.6 1394.2,510 1393.6,509.9 1402.3,450.5 		"/>
		<polygon class="st186" points="1403.5,450.6 1394.7,510.1 1394.2,510 1402.9,450.6 		"/>
		<polygon class="st186" points="1404,450.7 1395.3,510.2 1394.7,510.1 1403.5,450.6 		"/>
		<polygon class="st187" points="1404.6,450.8 1395.8,510.3 1395.3,510.2 1404,450.7 		"/>
		<polygon class="st187" points="1405.2,450.8 1396.4,510.4 1395.8,510.3 1404.6,450.8 		"/>
		<polygon class="st188" points="1405.7,450.9 1396.9,510.5 1396.4,510.4 1405.2,450.8 		"/>
		<polygon class="st188" points="1406.3,451 1397.5,510.6 1396.9,510.5 1405.7,450.9 		"/>
		<polygon class="st189" points="1406.8,451 1398,510.7 1397.5,510.6 1406.3,451 		"/>
		<polygon class="st190" points="1407.4,451.1 1398.6,510.8 1398,510.7 1406.8,451 		"/>
		<polygon class="st190" points="1408,451.2 1399.1,510.9 1398.6,510.8 1407.4,451.1 		"/>
		<polygon class="st190" points="1408.5,451.2 1399.7,511 1399.1,510.9 1408,451.2 		"/>
		<polygon class="st191" points="1409.1,451.3 1400.3,511.1 1399.7,511 1408.5,451.2 		"/>
		<polygon class="st192" points="1409.7,451.4 1400.8,511.2 1400.3,511.1 1409.1,451.3 		"/>
		<polygon class="st192" points="1410.2,451.4 1401.4,511.3 1400.8,511.2 1409.7,451.4 		"/>
		<polygon class="st192" points="1410.8,451.5 1401.9,511.4 1401.4,511.3 1410.2,451.4 		"/>
		<polygon class="st192" points="1411.4,451.6 1402.5,511.5 1401.9,511.4 1410.8,451.5 		"/>
		<polygon class="st192" points="1411.9,451.6 1403,511.6 1402.5,511.5 1411.4,451.6 		"/>
		<polygon class="st193" points="1412.5,451.7 1403.6,511.6 1403,511.6 1411.9,451.6 		"/>
		<polygon class="st194" points="1413.1,451.8 1404.2,511.7 1403.6,511.6 1412.5,451.7 		"/>
		<polygon class="st194" points="1413.7,451.8 1404.7,511.8 1404.2,511.7 1413.1,451.8 		"/>
		<polygon class="st194" points="1414.2,451.9 1405.3,511.9 1404.7,511.8 1413.7,451.8 		"/>
		<polygon class="st194" points="1414.8,452 1405.8,512 1405.3,511.9 1414.2,451.9 		"/>
		<polygon class="st194" points="1415.4,452 1406.4,512.1 1405.8,512 1414.8,452 		"/>
		<polygon class="st194" points="1415.9,452.1 1407,512.2 1406.4,512.1 1415.4,452 		"/>
		<polygon class="st194" points="1416.5,452.2 1407.5,512.3 1407,512.2 1415.9,452.1 		"/>
		<polygon class="st194" points="1417.1,452.2 1408.1,512.4 1407.5,512.3 1416.5,452.2 		"/>
		<polygon class="st194" points="1417.7,452.3 1408.7,512.5 1408.1,512.4 1417.1,452.2 		"/>
		<path class="st194" d="M1408.6,512.5l9-60.2L1408.6,512.5z"/>
	</g>
</g>
<path class="st15" d="M1370,461.6l-3.6-0.5l-0.6,4.6l-1.1-0.2l1.5-10.5l5.4,0.7l-0.2,1.1l-4.2-0.5l-0.5,3.6l3.6,0.5L1370,461.6z"/>
<path class="st15" d="M1373.3,465.6l4.1,0.6l-0.2,1.1l-5.3-0.7l1.5-10.6l1.2,0.1L1373.3,465.6z"/>
<path class="st15" d="M1384.6,465.5l-3.7-0.5l-1.2,2.7l-1.2-0.2l4.9-10.2l1,0.1l1.9,11.1l-1.2-0.2L1384.6,465.5z M1381.4,463.9
	l3,0.4l-0.8-5.2L1381.4,463.9z"/>
<path class="st15" d="M1391.4,464.4c-0.8-0.3-1.5-0.9-2-1.6c-0.4-0.6-0.5-1.3-0.4-2c0.1-0.8,0.5-1.5,1.2-2c0.7-0.5,1.5-0.7,2.3-0.6
	c0.6,0.1,1.1,0.3,1.6,0.6c0.4,0.3,0.8,0.8,1,1.3c0.2,0.5,0.3,1.1,0.2,1.7l-1.2-0.2c0.1-0.6,0-1.1-0.3-1.6c-0.3-0.4-0.8-0.7-1.4-0.7
	c-0.5-0.1-1,0-1.4,0.3c-0.4,0.3-0.6,0.7-0.7,1.2c-0.1,0.4,0,0.8,0.3,1.2c0.4,0.4,0.9,0.8,1.5,1c0.6,0.3,1.1,0.6,1.6,1.1
	c0.4,0.3,0.6,0.7,0.8,1.2c0.1,0.5,0.2,1,0.1,1.5c-0.1,0.8-0.5,1.5-1.2,2c-0.7,0.5-1.6,0.6-2.4,0.5c-0.6-0.1-1.2-0.3-1.7-0.7
	c-0.5-0.3-0.8-0.8-1.1-1.3c-0.2-0.5-0.3-1.1-0.2-1.7l1.2,0.2c-0.1,0.6,0,1.2,0.4,1.6c0.4,0.5,0.9,0.7,1.5,0.8c0.5,0.1,1.1,0,1.5-0.3
	c0.4-0.3,0.6-0.7,0.7-1.2c0.1-0.4,0-0.9-0.3-1.3C1392.5,465,1392,464.6,1391.4,464.4z"/>
<path class="st15" d="M1403.2,470.9l-1.2-0.2l0.7-5l-4.6-0.6l-0.7,5l-1.2-0.2l1.6-10.8l1.2,0.2l-0.7,4.7l4.6,0.6l0.7-4.7l1.2,0.2
	L1403.2,470.9z"/>
<path class="st15" d="M1370.3,476.9c-0.8-0.4-1.4-0.9-2-1.6c-0.4-0.6-0.5-1.3-0.4-1.9c0.1-0.8,0.5-1.5,1.1-1.9
	c0.6-0.5,1.5-0.7,2.2-0.5c0.6,0.1,1.1,0.3,1.5,0.6c0.4,0.3,0.7,0.8,0.9,1.3c0.2,0.5,0.2,1.1,0.2,1.7l-1.2-0.2c0.1-0.5,0-1.1-0.3-1.6
	c-0.7-0.8-1.8-1-2.7-0.5c-0.4,0.3-0.6,0.7-0.6,1.2c-0.1,0.4,0,0.8,0.3,1.2c0.4,0.4,0.9,0.8,1.4,1c0.6,0.3,1.1,0.6,1.6,1.1
	c0.3,0.3,0.6,0.7,0.8,1.2c0.1,0.5,0.2,1,0.1,1.4c-0.1,0.8-0.5,1.5-1.1,1.9c-0.7,0.4-1.5,0.6-2.3,0.4c-0.6-0.1-1.1-0.3-1.6-0.7
	c-0.5-0.3-0.8-0.8-1-1.3c-0.2-0.5-0.3-1.1-0.2-1.7l1.1,0.2c-0.1,0.6,0,1.1,0.4,1.6c0.4,0.4,0.9,0.7,1.5,0.8c0.5,0.1,1,0,1.4-0.2
	c0.7-0.6,0.9-1.6,0.4-2.4C1371.4,477.5,1370.9,477.2,1370.3,476.9z"/>
<path class="st15" d="M1380.2,480.3l-3.7-0.5l-1.2,2.6l-1.2-0.2l4.8-10.1l1,0.1l1.9,11.1l-1.2-0.2L1380.2,480.3z M1377,478.7l3,0.4
	l-0.8-5.2L1377,478.7z"/>
<path class="st15" d="M1385,482.7l4.2,0.6l-0.2,1.1l-5.4-0.8l1.5-10.6l1.2,0.2L1385,482.7z"/>
<path class="st15" d="M1396.8,480.6l-3.9-0.6l-0.6,3.8l4.6,0.7l-0.2,1.2l-5.7-0.9l1.6-10.7l5.7,0.8l-0.2,1.2l-4.5-0.6l-0.5,3.5
	l3.9,0.6L1396.8,480.6z"/>
<path class="st15" d="M1367.3,486.9l-2.8-0.4l-1.3,9.3l-1.1-0.2l1.3-9.3l-2.7-0.4l0.2-1.1l6.6,1L1367.3,486.9z"/>
<path class="st15" d="M1375.1,492.7c-0.1,0.9-0.4,1.8-0.8,2.6c-0.3,0.6-0.8,1.2-1.5,1.6c-0.6,0.3-1.3,0.4-1.9,0.3
	c-0.7-0.1-1.3-0.4-1.7-0.9c-0.5-0.5-0.8-1.2-1-1.9c-0.2-0.9-0.2-1.8-0.1-2.7l0.1-0.8c0.1-0.9,0.4-1.8,0.8-2.6
	c0.3-0.7,0.8-1.2,1.5-1.6c0.6-0.3,1.3-0.4,1.9-0.3c0.7,0.1,1.3,0.4,1.8,0.9c0.5,0.5,0.8,1.2,1,2c0.2,0.9,0.2,1.8,0,2.8L1375.1,492.7
	z M1374,491.8c0.2-1,0.1-2-0.2-3c-0.3-0.7-0.9-1.2-1.6-1.3c-0.7-0.1-1.4,0.2-1.8,0.7c-0.6,0.8-0.9,1.7-1,2.7l-0.1,0.8
	c-0.2,1-0.1,2,0.2,2.9c0.2,0.7,0.9,1.2,1.6,1.3c0.7,0.1,1.4-0.1,1.9-0.7c0.6-0.8,0.9-1.7,1-2.7L1374,491.8z"/>
<path class="st15" d="M1376.7,498l1.5-10.5l2.5,0.4c0.7,0.1,1.4,0.4,2,0.9c0.6,0.5,0.9,1.2,1.1,2c0.2,0.9,0.3,1.8,0.1,2.7l-0.1,0.7
	c-0.1,0.9-0.4,1.8-0.9,2.5c-0.4,0.7-0.9,1.2-1.6,1.5c-0.7,0.3-1.4,0.4-2.2,0.3L1376.7,498z M1379.2,488.8l-1.2,8.3l1.2,0.2
	c0.8,0.2,1.6-0.1,2.2-0.7c0.7-0.8,1.1-1.7,1.2-2.7l0.1-0.6c0.2-1,0.1-2-0.3-2.9c-0.4-0.7-1.1-1.2-1.9-1.3L1379.2,488.8z"/>
<path class="st15" d="M1390.6,497.4l-3.7-0.6l-1.2,2.6l-1.2-0.2l4.9-10.1l1,0.2l1.9,11.2l-1.2-0.2L1390.6,497.4z M1387.4,495.7
	l3,0.5l-0.8-5.2L1387.4,495.7z"/>
<path class="st15" d="M1397.1,495.9l3.2-5l1.4,0.2l-4.1,6.2l-0.6,4l-1.2-0.2l0.6-4l-2.1-7.2l1.4,0.2L1397.1,495.9z"/>
<linearGradient id="SVGID_9_" gradientUnits="userSpaceOnUse" x1="1048.4388" y1="1267.4398" x2="1062.6095" y2="1267.4398" gradientTransform="matrix(1.0294 0.1374 -6.300000e-003 0.9706 -13.7162 -814.5491)">
	<stop  offset="0" style="stop-color:#89D5FF"/>
	<stop  offset="6.837000e-002" style="stop-color:#7ACEFC"/>
	<stop  offset="0.2454" style="stop-color:#58BDF4"/>
	<stop  offset="0.4263" style="stop-color:#3DB0EE"/>
	<stop  offset="0.6102" style="stop-color:#2AA7EA"/>
	<stop  offset="0.799" style="stop-color:#1FA2E8"/>
	<stop  offset="1" style="stop-color:#1BA0E7"/>
</linearGradient>
<polygon class="st195" points="1057.4,588.9 1072,583.4 1072.3,532.4 1057.7,537.9 "/>
<linearGradient id="SVGID_10_" gradientUnits="userSpaceOnUse" x1="1031.9425" y1="1248.2797" x2="1033.3645" y2="1229.7927" gradientTransform="matrix(1.0294 0.1374 -6.300000e-003 0.9706 -13.7162 -814.5491)">
	<stop  offset="0" style="stop-color:#89D5FF"/>
	<stop  offset="6.837000e-002" style="stop-color:#7ACEFC"/>
	<stop  offset="0.2454" style="stop-color:#58BDF4"/>
	<stop  offset="0.4263" style="stop-color:#3DB0EE"/>
	<stop  offset="0.6102" style="stop-color:#2AA7EA"/>
	<stop  offset="0.799" style="stop-color:#1FA2E8"/>
	<stop  offset="1" style="stop-color:#1BA0E7"/>
</linearGradient>
<polygon class="st196" points="1072.2,532.4 1024.9,526.1 1010.4,531.6 1057.7,537.9 "/>
<linearGradient id="SVGID_11_" gradientUnits="userSpaceOnUse" x1="1002.4708" y1="1271.2698" x2="1048.4393" y2="1271.2698" gradientTransform="matrix(1.0294 0.1374 -6.300000e-003 0.9706 -13.7162 -814.5491)">
	<stop  offset="0" style="stop-color:#89D5FF"/>
	<stop  offset="6.837000e-002" style="stop-color:#7ACEFC"/>
	<stop  offset="0.2454" style="stop-color:#58BDF4"/>
	<stop  offset="0.4263" style="stop-color:#3DB0EE"/>
	<stop  offset="0.6102" style="stop-color:#2AA7EA"/>
	<stop  offset="0.799" style="stop-color:#1FA2E8"/>
	<stop  offset="1" style="stop-color:#1BA0E7"/>
</linearGradient>
<polygon class="st197" points="1057.4,588.9 1010.1,582.5 1010.4,531.6 1057.7,537.9 "/>
<linearGradient id="SVGID_12_" gradientUnits="userSpaceOnUse" x1="1024.8041" y1="1274.1494" x2="1026.4597" y2="1252.627" gradientTransform="matrix(1.0294 0.1374 -6.300000e-003 0.9706 -13.7162 -814.5491)">
	<stop  offset="0" style="stop-color:#EEF4FB"/>
	<stop  offset="0.3115" style="stop-color:#E3EDF8"/>
	<stop  offset="1" style="stop-color:#CFE1F3"/>
</linearGradient>
<polygon class="st198" points="1048.7,562.9 1019,558.9 1019.1,547.2 1048.8,551.2 "/>
<path class="st199" d="M1081.3,499.2l1.2,11.4l-2.1-11.4c-0.4,0-0.8,0-1.2,0c0.6,3.5,1.7,9.8,2.1,11.2c0.6,2.1,1,3.9,1.6,3.8
	c0.9,0,1.4-0.8,1-2.2c-0.2-1-1.1-8.5-1.5-12.8C1082.1,499.2,1081.7,499.2,1081.3,499.2z"/>
<path class="st199" d="M1081.7,511.5c-0.4-0.5-2.2-8.7-3-12.4c-0.4,0-0.9,0-1.3,0c1.1,3.9,4.2,15.3,4.7,15.8
	c0.4,0.5,1.2,0.6,1.7,0.2c0.3-0.2,0.4-0.5,0.5-0.9c0-1-0.3-1.9-0.8-2.7c-0.2,0.5-0.8,0.7-1.2,0.5
	C1082,511.8,1081.8,511.7,1081.7,511.5z"/>
<path class="st199" d="M1085.8,499.3c-0.2,4.2-0.3,11.8-0.5,12.4c-0.2,0.5-0.8,0.7-1.3,0.5c-0.2-0.1-0.3-0.2-0.4-0.4
	c-0.3,0.9-0.3,1.8-0.2,2.8c0.2,0.7,0.8,1.1,1.5,1c0.3-0.1,0.6-0.2,0.7-0.5c0.3-0.5,0.8-10.7,1.1-15.7
	C1086.5,499.3,1086.1,499.3,1085.8,499.3z"/>
<path class="st199" d="M1084.5,499.2l-0.1,11.1l-0.7-11.2c-0.4,0-0.8,0-1.2,0c0.3,4.3,0.8,11.7,0.7,12.7c-0.1,1.5,0.5,2.2,1.4,2.1
	c0.7,0,0.7-1.9,1-4c0.2-1.3,0.1-7.3,0.1-10.8C1085.3,499.3,1084.9,499.3,1084.5,499.2z"/>
<linearGradient id="SVGID_13_" gradientUnits="userSpaceOnUse" x1="842.9573" y1="1487.3855" x2="853.3268" y2="1497.7551" gradientTransform="matrix(0.9704 -0.2413 0.2413 0.9704 -101.6567 -714.0377)">
	<stop  offset="0" style="stop-color:#FFB97D"/>
	<stop  offset="5.608000e-002" style="stop-color:#FEB271"/>
	<stop  offset="0.2355" style="stop-color:#FA9D4F"/>
	<stop  offset="0.4188" style="stop-color:#F78D34"/>
	<stop  offset="0.605" style="stop-color:#F58221"/>
	<stop  offset="0.7963" style="stop-color:#F37B16"/>
	<stop  offset="1" style="stop-color:#F37912"/>
</linearGradient>
<path class="st200" d="M1089.5,528.9c0.2,1.8,0.2,3.6,0.1,5.4c0,1.6,0.2,3.3,0.1,4.9c-0.2,3-0.4,5.9-0.6,8.9
	c-0.1,0.9-0.3,5.3-2.1,3.4c-0.6-0.9-1-1.8-1.2-2.9c-0.5-1.5-0.8-3.1-1.2-4.6c-0.4-1.5-1-3-1.4-4.5c-0.5-1.6-0.6-3.2-1-4.9
	c-0.7-3-1.2-6-1.9-9c-0.2-1.5-0.3-2.9-0.4-4.4c-0.4-1.3-0.6-2.7-0.6-4c0.4-2.3,2.4-3.9,4.7-3.8c2.9,0.2,5.1,2.8,4.9,5.7l0,0l0,0
	c0,0.1,0,0.2,0,0.2c0,1.7,0.5,3.4,0.6,5.1C1089.6,525.9,1089.3,527.4,1089.5,528.9z"/>
<path class="st199" d="M1079.9,523.9l-1,11.1l0.2-11c-0.4,0-0.8,0.1-1.2,0.1c-0.1,3.7-0.3,9.1-0.1,10.5c0.2,2.1,0.2,4,0.8,4.1
	c0.8,0.1,1.5-0.5,1.4-2c0-1,0.7-8.6,1.1-12.9C1080.7,523.8,1080.3,523.8,1079.9,523.9z"/>
<path class="st199" d="M1077.9,535.9c-0.2-0.5-0.4-7.5-0.5-11.7c-0.4,0-0.8,0.1-1.2,0.1c0.3,4.9,1,14.4,1.3,14.9
	c0.3,0.6,1,0.8,1.6,0.5c0.3-0.2,0.5-0.4,0.6-0.8c0.1-0.9,0.1-1.9-0.2-2.8c-0.3,0.4-0.9,0.6-1.3,0.3
	C1078.1,536.2,1078,536.1,1077.9,535.9z"/>
<path class="st199" d="M1084.6,523.3c-0.9,3.7-2.8,12.7-3.2,13.3c-0.3,0.4-0.9,0.5-1.3,0.3c-0.2-0.1-0.3-0.3-0.4-0.5
	c-0.4,0.8-0.7,1.8-0.7,2.7c0,0.7,0.6,1.2,1.2,1.2c0.3,0,0.6-0.1,0.9-0.4c0.5-0.5,3.4-12.8,4.6-16.8
	C1085.3,523.2,1084.9,523.3,1084.6,523.3z"/>
<path class="st199" d="M1083.2,523.5l-2.4,11.7l1.6-11.6c-0.4,0-0.8,0.1-1.2,0.1c-0.6,4.3-1.6,11.8-1.8,12.8
	c-0.4,1.4,0.1,2.2,0.9,2.3c0.7,0.1,1.1-1.7,1.8-3.8c0.5-1.4,1.8-8.5,2.5-11.7C1084,523.4,1083.6,523.4,1083.2,523.5z"/>
<linearGradient id="SVGID_14_" gradientUnits="userSpaceOnUse" x1="1019.0839" y1="1386.6909" x2="1029.2875" y2="1396.8945" gradientTransform="matrix(0.9981 -6.190000e-002 6.190000e-002 0.9981 -34.2638 -771.7665)">
	<stop  offset="0" style="stop-color:#FFB8A1"/>
	<stop  offset="6.023000e-002" style="stop-color:#FEAD94"/>
	<stop  offset="0.2389" style="stop-color:#FA9272"/>
	<stop  offset="0.4213" style="stop-color:#F77D57"/>
	<stop  offset="0.6068" style="stop-color:#F56E44"/>
	<stop  offset="0.7972" style="stop-color:#F36539"/>
	<stop  offset="1" style="stop-color:#F36235"/>
</linearGradient>
<path class="st201" d="M1082,554.4c-0.2,1.8-0.5,3.6-0.9,5.4c-0.3,1.6-0.5,3.3-0.9,4.9c-0.8,2.9-1.6,5.8-2.3,8.7
	c-0.2,0.9-1.4,5.2-2.7,3c-0.4-1-0.6-2-0.6-3.1c-0.1-1.6-0.2-3.2-0.3-4.8c-0.1-1.6-0.4-3.1-0.5-4.7c-0.1-1.7,0-3.3,0-5
	c0-3.1,0-6.2-0.1-9.3c0.1-1.5,0.3-3,0.5-4.4c-0.1-1.4,0-2.7,0.2-4.1c0.8-2.2,3-3.5,5.3-3c1.4,0.4,2.7,1.3,3.3,2.7
	c0.6,1.2,0.7,2.7,0.3,4c-0.3,1.7-0.1,3.5-0.4,5.2C1082.7,551.4,1082.1,552.8,1082,554.4z"/>
<path class="st199" d="M1114.9,514.2l-5.5,9.8l6.1-9.2c0.3,0.3,0.6,0.5,0.9,0.8c-2,3.1-4.9,7.7-5.8,8.7c-1.4,1.7-2.4,3.2-3,2.9
	c-0.8-0.4-0.9-1.3,0-2.5c0.6-0.8,4.3-7.5,6.5-11.3L1114.9,514.2z"/>
<path class="st199" d="M1109.8,525.2c0.5-0.3,4.6-6,7-9.4c0.3,0.3,0.6,0.5,0.9,0.8c-3.1,3.9-9,11.3-9.5,11.5
	c-0.6,0.3-1.3,0.1-1.6-0.5c-0.2-0.3-0.2-0.7,0-1c0.4-0.9,1-1.6,1.8-2.2c0,0.5,0.4,0.9,0.9,0.9
	C1109.4,525.4,1109.6,525.3,1109.8,525.2z"/>
<path class="st199" d="M1111.4,511.1c-1.3,3.6-4.9,12.1-4.9,12.8c0,0.5,0.4,0.9,0.9,0.9c0.2,0,0.4-0.1,0.6-0.2
	c-0.1,0.9-0.4,1.8-1,2.6c-0.4,0.6-1.2,0.7-1.7,0.3c-0.3-0.2-0.4-0.5-0.5-0.8c-0.1-0.7,4.4-12.5,5.7-16.5L1111.4,511.1z"/>
<path class="st199" d="M1112.5,512l-4.6,11l5.3-10.4c0.3,0.3,0.6,0.5,0.9,0.8c-2,3.9-5.4,10.6-5.7,11.6c-0.5,1.4-1.3,1.8-2.1,1.4
	c-0.6-0.3,0.1-2,0.7-4.1c0.4-1.5,3.4-8,4.6-11.1L1112.5,512z"/>
<linearGradient id="SVGID_15_" gradientUnits="userSpaceOnUse" x1="-785.4415" y1="682.0117" x2="-775.201" y2="692.252" gradientTransform="matrix(-0.7888 -0.6146 -0.6146 0.7888 909.4708 -479.3286)">
	<stop  offset="0" style="stop-color:#FFB8A1"/>
	<stop  offset="6.023000e-002" style="stop-color:#FEAD94"/>
	<stop  offset="0.2389" style="stop-color:#FA9272"/>
	<stop  offset="0.4213" style="stop-color:#F77D57"/>
	<stop  offset="0.6068" style="stop-color:#F56E44"/>
	<stop  offset="0.7972" style="stop-color:#F36539"/>
	<stop  offset="1" style="stop-color:#F36235"/>
</linearGradient>
<path class="st202" d="M1095.9,538.2c-0.9,1.6-1.6,3.3-2.3,5c-0.7,1.5-1.5,3-2.1,4.5c-1,2.8-2,5.7-3,8.5c-0.3,0.9-1.8,5.1,0.5,4
	c0.9-0.6,1.6-1.3,2.2-2.2c1-1.2,1.9-2.5,2.9-3.8c1-1.2,2.1-2.4,3.1-3.6c1.1-1.3,1.9-2.8,2.8-4.1c1.8-2.5,3.5-5.1,5.3-7.6
	c0.8-1.3,1.5-2.6,2.1-4c0.8-1.1,1.6-2.2,2.1-3.5c0.6-2.2-0.5-4.6-2.7-5.5c-1.4-0.5-2.9-0.4-4.3,0.3c-1.2,0.7-2.1,1.8-2.5,3.1
	c-0.7,1.6-1.8,2.9-2.6,4.5C1097,535.3,1096.7,536.8,1095.9,538.2z"/>
<path class="st199" d="M1067.7,505.7l2.3,10.9l-1.5-10.9c0.4,0,0.8,0,1.2,0c0.5,3.6,1.4,9,1.4,10.4c0.1,2.2,0.3,4-0.3,4.1
	c-0.8,0.2-1.5-0.4-1.7-1.8c-0.1-1-1.7-8.5-2.6-12.7C1066.9,505.7,1067.3,505.7,1067.7,505.7z"/>
<path class="st199" d="M1071.1,517.4c0.2-0.6-0.5-7.5-0.9-11.7c0.4,0,0.8,0,1.2,0c0.3,4.9,0.7,14.4,0.5,14.9
	c-0.2,0.6-0.9,0.9-1.6,0.7c-0.3-0.1-0.6-0.4-0.7-0.7c-0.3-0.9-0.3-1.9-0.1-2.8c0.3,0.4,0.9,0.4,1.3,0.1
	C1070.9,517.8,1071.1,517.6,1071.1,517.4z"/>
<path class="st199" d="M1063,505.7c1.4,3.6,4.3,12.3,4.8,12.9c0.3,0.4,0.9,0.4,1.3,0.1c0.2-0.1,0.3-0.3,0.3-0.5
	c0.5,0.8,0.9,1.7,1,2.6c0.1,0.7-0.4,1.3-1.1,1.4c-0.3,0-0.6-0.1-0.9-0.3c-0.5-0.5-4.9-12.3-6.6-16.2L1063,505.7z"/>
<path class="st199" d="M1064.4,505.7l3.8,11.3l-2.9-11.3l1.2,0c1.1,4.2,3,11.5,3.4,12.4c0.6,1.4,0.2,2.2-0.6,2.4
	c-0.6,0.1-1.3-1.6-2.2-3.5c-0.7-1.4-2.8-8.2-3.9-11.3L1064.4,505.7z"/>
<linearGradient id="SVGID_16_" gradientUnits="userSpaceOnUse" x1="-294.9782" y1="1377.8606" x2="-284.7784" y2="1388.0604" gradientTransform="matrix(-0.9983 5.780000e-002 5.780000e-002 0.9983 707.701 -828.9853)">
	<stop  offset="0" style="stop-color:#FFB8A1"/>
	<stop  offset="6.023000e-002" style="stop-color:#FEAD94"/>
	<stop  offset="0.2389" style="stop-color:#FA9272"/>
	<stop  offset="0.4213" style="stop-color:#F77D57"/>
	<stop  offset="0.6068" style="stop-color:#F56E44"/>
	<stop  offset="0.7972" style="stop-color:#F36539"/>
	<stop  offset="1" style="stop-color:#F36235"/>
</linearGradient>
<path class="st203" d="M1069.2,536.3c0.4,1.8,0.9,3.5,1.6,5.2c0.5,1.6,0.8,3.2,1.5,4.8c1.1,2.8,2.3,5.6,3.4,8.4c0.3,0.9,2,5,3,2.7
	c0.3-1,0.4-2.1,0.2-3.1c-0.1-1.6-0.2-3.2-0.3-4.8c-0.1-1.6,0-3.1-0.1-4.7c-0.1-1.7-0.4-3.3-0.6-5c-0.3-3.1-0.8-6.1-1-9.2
	c-0.3-1.5-0.6-2.9-1-4.4c-0.1-1.4-0.3-2.7-0.7-4c-1-2.1-3.4-3.1-5.6-2.3c-1.4,0.5-2.5,1.6-3,3c-0.4,1.3-0.4,2.7,0.2,4
	c0.5,1.7,0.6,3.4,1,5.1C1068.2,533.4,1068.9,534.8,1069.2,536.3z"/>
<path class="st199" d="M1096.4,505.1l-1.6,11.1l2.4-10.8c0.4,0.1,0.8,0.3,1.1,0.4c-0.8,3.6-1.9,8.9-2.3,10.2c-0.7,2-1.1,3.8-1.8,3.8
	c-0.8-0.1-1.3-0.9-0.9-2.3c0.3-1,1.4-8.5,2-12.8L1096.4,505.1z"/>
<path class="st199" d="M1095.6,517.2c0.3-0.5,2.1-7.2,3.2-11.2c0.4,0.1,0.7,0.3,1.1,0.4c-1.5,4.7-4.4,13.7-4.8,14.2
	c-0.4,0.5-1.2,0.5-1.7,0.1c-0.3-0.2-0.4-0.6-0.4-0.9c0.1-1,0.4-1.9,0.9-2.7c0.2,0.5,0.7,0.7,1.2,0.6
	C1095.3,517.5,1095.5,517.4,1095.6,517.2z"/>
<path class="st199" d="M1092,503.5c0,3.9-0.2,13,0,13.7c0.2,0.5,0.7,0.7,1.2,0.6c0.2-0.1,0.4-0.2,0.5-0.4c0.2,0.9,0.3,1.9,0.1,2.8
	c-0.2,0.7-0.8,1.1-1.5,0.9c-0.3-0.1-0.6-0.3-0.7-0.6c-0.3-0.6-0.3-13.2-0.5-17.4C1091.3,503.2,1091.7,503.3,1092,503.5z"/>
<path class="st199" d="M1093.4,504l-0.4,11.9l1.2-11.6c0.4,0.1,0.8,0.3,1.1,0.4c-0.4,4.3-1.2,11.8-1.2,12.8c0.1,1.5-0.6,2.2-1.4,2.1
	c-0.7-0.1-0.6-1.9-0.8-4.1c-0.1-1.5,0.3-8.7,0.3-12C1092.6,503.7,1093,503.8,1093.4,504z"/>
<linearGradient id="SVGID_17_" gradientUnits="userSpaceOnUse" x1="-606.1169" y1="1080.9159" x2="-595.8996" y2="1091.1332" gradientTransform="matrix(-0.956 -0.2933 -0.2933 0.956 838.9797 -678.8477)">
	<stop  offset="0" style="stop-color:#FFB8A1"/>
	<stop  offset="6.023000e-002" style="stop-color:#FEAD94"/>
	<stop  offset="0.2389" style="stop-color:#FA9272"/>
	<stop  offset="0.4213" style="stop-color:#F77D57"/>
	<stop  offset="0.6068" style="stop-color:#F56E44"/>
	<stop  offset="0.7972" style="stop-color:#F36539"/>
	<stop  offset="1" style="stop-color:#F36235"/>
</linearGradient>
<path class="st204" d="M1087.2,534.3c-0.2,1.8-0.3,3.6-0.4,5.5c-0.1,1.7-0.3,3.3-0.3,5c0.1,3,0.2,6,0.2,9c0,0.9,0.1,5.4,1.9,3.6
	c0.6-0.8,1.1-1.8,1.3-2.8c0.5-1.5,0.9-3.1,1.4-4.6c0.5-1.5,1.1-3,1.6-4.4c0.5-1.6,0.8-3.2,1.2-4.9c0.8-3,1.4-6,2.2-9
	c0.3-1.5,0.5-3,0.6-4.4c0.4-1.3,0.7-2.7,0.8-4c-0.2-2.3-2.1-4.1-4.4-4.1c-1.5,0-2.9,0.7-3.9,1.8c-0.9,1.1-1.3,2.4-1.2,3.8
	c-0.1,1.8-0.7,3.4-0.8,5.1C1087.2,531.2,1087.5,532.7,1087.2,534.3z"/>
<path class="st199" d="M1092.7,523.8l-2.9,11.1l2.1-11.4c-0.4-0.2-0.8-0.3-1.1-0.5c-0.6,3.5-1.9,9.7-2,11.2
	c-0.1,2.1-0.5,3.9,0.2,4.2c0.8,0.3,1.6-0.2,1.7-1.7c0.1-1,2-8.3,3.1-12.5C1093.4,524.1,1093.1,523.9,1092.7,523.8z"/>
<path class="st199" d="M1088.7,535.5c-0.1-0.6,1-8.9,1.6-12.7c-0.4-0.2-0.8-0.3-1.2-0.5c-0.4,4-1.5,15.8-1.3,16.4
	c0.2,0.6,0.9,1,1.5,0.8c0.3-0.1,0.6-0.3,0.7-0.6c0.3-0.9,0.4-1.9,0.2-2.8c-0.4,0.4-1,0.4-1.3,0
	C1088.8,535.9,1088.7,535.7,1088.7,535.5z"/>
<path class="st199" d="M1096.9,525.5c-1.7,3.9-4.5,11-4.9,11.5c-0.4,0.4-1,0.4-1.3,0c-0.1-0.1-0.2-0.3-0.3-0.5
	c-0.6,0.7-1,1.6-1.1,2.5c-0.1,0.7,0.4,1.3,1.1,1.4c0.3,0,0.6,0,0.9-0.2c0.5-0.4,4.5-9.8,6.7-14.3
	C1097.5,525.7,1097.2,525.6,1096.9,525.5z"/>
<path class="st199" d="M1095.7,525l-4,10.4l3.3-10.7c-0.4-0.1-0.7-0.3-1.1-0.5c-1.3,4.1-3.4,11.2-3.9,12.1c-0.6,1.3-0.3,2.2,0.5,2.5
	c0.6,0.2,1.3-1.5,2.3-3.4c0.6-1.2,2.7-6.8,3.9-10.1C1096.4,525.3,1096,525.1,1095.7,525z"/>
<linearGradient id="SVGID_18_" gradientUnits="userSpaceOnUse" x1="1191.9197" y1="1267.3027" x2="1202.2709" y2="1277.6541" gradientTransform="matrix(0.993 0.1181 -0.1181 0.993 43.6491 -852.462)">
	<stop  offset="0" style="stop-color:#FFB97D"/>
	<stop  offset="5.608000e-002" style="stop-color:#FEB271"/>
	<stop  offset="0.2355" style="stop-color:#FA9D4F"/>
	<stop  offset="0.4188" style="stop-color:#F78D34"/>
	<stop  offset="0.605" style="stop-color:#F58221"/>
	<stop  offset="0.7963" style="stop-color:#F37B16"/>
	<stop  offset="1" style="stop-color:#F37912"/>
</linearGradient>
<path class="st205" d="M1089.8,554.5c-0.5,1.7-1.1,3.4-1.8,5.1c-0.6,1.5-1,3.1-1.7,4.6c-1.2,2.7-2.5,5.4-3.7,8.1
	c-0.4,0.9-2.2,4.9-3.1,2.4c-0.2-1-0.3-2.1-0.1-3.1c0.1-1.6,0.4-3.2,0.5-4.7c0.1-1.6,0.1-3.1,0.3-4.7c0.1-1.7,0.6-3.3,0.8-4.9
	c0.5-3.1,1-6.1,1.4-9.1c0.3-1.4,0.7-2.9,1.2-4.3c0.1-1.4,0.4-2.7,0.9-4c1.1-2,3.6-2.8,5.7-1.9c2.7,1.2,3.8,4.4,2.6,7c0,0,0,0,0,0
	l0,0l0,0c0,0.1-0.1,0.1-0.1,0.2c-0.6,1.6-0.7,3.4-1.2,5C1091,551.7,1090.2,553,1089.8,554.5z"/>
<path class="st199" d="M1062.8,519c-0.4,0.1-0.7,0.2-1.1,0.3l3.2,11.9l-4.1-11.7c-0.4,0.1-0.8,0.2-1.1,0.3c1.1,3.2,3.4,10,4,11.4
	c0.9,1.9,1.5,3.6,2.2,3.4c0.8-0.2,1.2-1.1,0.6-2.5C1066.1,531.3,1063.8,523,1062.8,519z"/>
<path class="st199" d="M1065.8,531.9c-0.1,0.5-0.6,0.9-1.1,0.8c-0.2,0-0.4-0.1-0.5-0.3c-0.5-0.5-3.9-9.2-5.1-12.3
	c-0.3,0.1-0.7,0.2-1,0.3c-0.1,0-0.2,0.1-0.2,0.1c1.4,3,6.7,14.8,7.2,15.2c0.6,0.4,1.3,0.2,1.7-0.3c0.2-0.3,0.2-0.6,0.2-0.9
	C1066.8,533.5,1066.4,532.6,1065.8,531.9z"/>
<path class="st199" d="M1066.1,518.2c0.5,4,1.8,12.8,1.6,13.5c-0.1,0.5-0.5,0.9-1.1,0.8c-0.2,0-0.4-0.1-0.5-0.3
	c-0.1,1,0,1.9,0.3,2.8c0.3,0.6,1,0.9,1.6,0.6c0.3-0.1,0.5-0.4,0.7-0.7c0.2-0.7-1.1-12.1-1.5-16.9
	C1066.7,518.1,1066.4,518.1,1066.1,518.2z"/>
<path class="st199" d="M1064.8,518.5l1.8,12.1l-2.7-11.9c-0.4,0.1-0.8,0.2-1.1,0.3c0.9,4,2.8,12.3,2.9,13.4c0.1,1.5,0.9,2,1.7,1.8
	c0.6-0.2,0.4-2.1,0.3-4.3c0-1.5-1.3-8.3-1.7-11.7C1065.5,518.3,1065.2,518.4,1064.8,518.5z"/>
<linearGradient id="SVGID_19_" gradientUnits="userSpaceOnUse" x1="1021.8436" y1="1373.1057" x2="1021.4183" y2="1377.7842" gradientTransform="matrix(0.9981 -6.190000e-002 6.190000e-002 0.9981 -34.2638 -771.7665)">
	<stop  offset="0" style="stop-color:#FFB97D"/>
	<stop  offset="5.608000e-002" style="stop-color:#FEB271"/>
	<stop  offset="0.2355" style="stop-color:#FA9D4F"/>
	<stop  offset="0.4188" style="stop-color:#F78D34"/>
	<stop  offset="0.605" style="stop-color:#F58221"/>
	<stop  offset="0.7963" style="stop-color:#F37B16"/>
	<stop  offset="1" style="stop-color:#F37912"/>
</linearGradient>
<path class="st206" d="M1074.4,547.8c0.4,1.8,0.8,3.6,1,5.4c0.3,1.7,0.7,3.3,0.9,4.9c0.3,3,0.6,6.1,0.9,9.1c0.1,1,0.5,5.5-1.4,3.9
	c-0.7-0.7-1.3-1.6-1.6-2.6c-0.7-1.4-1.2-2.9-1.9-4.3c-0.7-1.4-1.4-2.7-2.1-4.1c-0.7-1.5-1.1-3.1-1.7-4.6c-1.1-2.9-2.1-5.8-3.3-8.6
	c-0.4-1.4-0.8-2.9-1.1-4.3c-0.6-1.2-1-2.5-1.2-3.9c0-2.4,1.5-4.4,3.8-5.1c1.4-0.3,2.9,0.1,4,1c1,0.9,1.6,2.2,1.6,3.6
	c0.3,1.8,1.1,3.3,1.4,5C1074,544.8,1074,546.4,1074.4,547.8z"/>
<path class="st207" d="M1121.4,543c0,0-0.9,5.7-1,7.3l-1.1,0.4c0,0,0.2-6.6,0.5-8.1C1119.8,542.6,1121.1,541.7,1121.4,543z"/>
<linearGradient id="SVGID_20_" gradientUnits="userSpaceOnUse" x1="-857.9059" y1="1015.306" x2="-855.2554" y2="1032.0924" gradientTransform="matrix(-0.9396 -0.3423 -0.3423 0.9396 665.8312 -697.9237)">
	<stop  offset="0" style="stop-color:#FF9CB0"/>
	<stop  offset="6.433000e-002" style="stop-color:#FD8EA4"/>
	<stop  offset="0.2421" style="stop-color:#FA6C89"/>
	<stop  offset="0.4238" style="stop-color:#F75173"/>
	<stop  offset="0.6085" style="stop-color:#F53E64"/>
	<stop  offset="0.7981" style="stop-color:#F3335B"/>
	<stop  offset="1" style="stop-color:#F32F58"/>
</linearGradient>
<path class="st208" d="M1112.1,567C1112.1,567,1112.1,567,1112.1,567c2.1,4.2,5.6,2.2,7.5,2.2c2,0.1,5.3,2.4,7.6-1.7
	c1.9-3.3,5-6.4,4.3-11.1c-0.2-1.2-0.6-2.3-1.3-3.3c-3.7-5.2-8.4-3.4-10-3c-1.6-0.5-6.2-2.6-10.2,2.3
	C1106,557.3,1110,562.7,1112.1,567z"/>
<path class="st209" d="M1108.3,540c0.3,1,0.7,2,1.2,3c0.9,2.1,2.6,3.9,4.7,5c3.4,1.5,5.2,0.2,5.2,0.2c-0.2-1.7-0.9-3.2-2-4.5
	c-0.3-0.4-0.7-0.7-1.1-1C1114,541,1111.2,540.1,1108.3,540z"/>
<path class="st207" d="M1077,561.9c0,0,1.2,6.1,1.7,7.8l-1,0.8c0,0-2.3-6.8-2.5-8.5C1075.2,562,1076.2,560.7,1077,561.9z"/>
<linearGradient id="SVGID_21_" gradientUnits="userSpaceOnUse" x1="-548.7565" y1="1351.3092" x2="-545.8768" y2="1369.5472" gradientTransform="matrix(-1 0 0 1 533.7682 -783.6804)">
	<stop  offset="0" style="stop-color:#FF9CB0"/>
	<stop  offset="6.433000e-002" style="stop-color:#FD8EA4"/>
	<stop  offset="0.2421" style="stop-color:#FA6C89"/>
	<stop  offset="0.4238" style="stop-color:#F75173"/>
	<stop  offset="0.6085" style="stop-color:#F53E64"/>
	<stop  offset="0.7981" style="stop-color:#F3335B"/>
	<stop  offset="1" style="stop-color:#F32F58"/>
</linearGradient>
<path class="st210" d="M1076.4,589.8C1076.4,589.8,1076.5,589.9,1076.4,589.8c3.7,3.5,6.5,0.1,8.5-0.5c2-0.7,6.3,0.4,7.2-4.6
	c0.7-4.1,2.8-8.4,0.3-13c-0.6-1.2-1.5-2.1-2.6-2.9c-5.7-3.9-9.8-0.3-11.3,0.7c-1.8,0.1-7.3-0.4-9.5,6.2S1072.7,586.2,1076.4,589.8z"
	/>
<path class="st209" d="M1062.5,563.7c0.7,0.9,1.5,1.8,2.3,2.6c1.8,1.8,4.1,3,6.6,3.4c4.1,0.2,5.4-1.8,5.4-1.8
	c-0.9-1.6-2.2-3-3.8-3.9c-0.5-0.3-1-0.5-1.5-0.7C1068.6,562.6,1065.5,562.7,1062.5,563.7z"/>
<path class="st207" d="M1102.8,536.5c0,0,0.8,6.3,0.8,8.1l1.2,0.5c0,0,0.1-7.3-0.2-9.1C1104.6,536.1,1103.2,535.1,1102.8,536.5z"/>
<linearGradient id="SVGID_22_" gradientUnits="userSpaceOnUse" x1="1107.1132" y1="1326.4608" x2="1115.2211" y2="1347.8363" gradientTransform="matrix(1 0 0 1 -7.0004 -783.6804)">
	<stop  offset="0" style="stop-color:#FF9CB0"/>
	<stop  offset="6.433000e-002" style="stop-color:#FD8EA4"/>
	<stop  offset="0.2421" style="stop-color:#FA6C89"/>
	<stop  offset="0.4238" style="stop-color:#F75173"/>
	<stop  offset="0.6085" style="stop-color:#F53E64"/>
	<stop  offset="0.7981" style="stop-color:#F3335B"/>
	<stop  offset="1" style="stop-color:#F32F58"/>
</linearGradient>
<path class="st211" d="M1112.3,563.5C1112.3,563.5,1112.3,563.5,1112.3,563.5c-2.5,4.6-6.3,2.2-8.4,2.2c-2.2,0-6,2.5-8.4-2.2
	c-2-3.7-5.4-7.3-4.4-12.5c0.2-1.3,0.8-2.6,1.6-3.6c4.3-5.6,9.4-3.4,11.3-2.9c1.8-0.5,7-2.7,11.3,2.9S1114.8,558.8,1112.3,563.5z"/>
<path class="st209" d="M1117.5,533.6c-0.4,1.1-0.9,2.2-1.4,3.3c-1.1,2.4-3,4.3-5.4,5.4c-3.9,1.5-5.8,0-5.8,0c0.3-1.8,1.2-3.6,2.4-5
	c0.4-0.4,0.8-0.8,1.2-1.1C1111.2,534.5,1114.3,533.6,1117.5,533.6z"/>
<path class="st207" d="M1119.9,558.7c0,0-1.3,6.3-1.8,8.1l1,0.8c0,0,2.4-7,2.6-8.8C1121.8,558.8,1120.7,557.4,1119.9,558.7z"/>
<linearGradient id="SVGID_23_" gradientUnits="userSpaceOnUse" x1="1121.1749" y1="1348.3474" x2="1124.1698" y2="1367.3146" gradientTransform="matrix(1 0 0 1 -7.0004 -783.6804)">
	<stop  offset="0" style="stop-color:#FF9CB0"/>
	<stop  offset="6.433000e-002" style="stop-color:#FD8EA4"/>
	<stop  offset="0.2421" style="stop-color:#FA6C89"/>
	<stop  offset="0.4238" style="stop-color:#F75173"/>
	<stop  offset="0.6085" style="stop-color:#F53E64"/>
	<stop  offset="0.7981" style="stop-color:#F3335B"/>
	<stop  offset="1" style="stop-color:#F32F58"/>
</linearGradient>
<path class="st212" d="M1120.5,587.7C1120.5,587.8,1120.5,587.8,1120.5,587.7c-3.9,3.7-6.7,0.1-8.8-0.5c-2.1-0.7-6.5,0.5-7.4-4.8
	c-0.7-4.2-2.9-8.7-0.3-13.5c0.6-1.2,1.6-2.2,2.7-3c5.9-4.1,10.2-0.3,11.8,0.7c1.9,0.1,7.6-0.4,9.9,6.4S1124.4,584,1120.5,587.7z"/>
<path class="st207" d="M1097.2,551.5c0,0-0.9,5.7-1,7.3l-1.1,0.4c0,0,0.2-6.6,0.5-8.1C1095.6,551.1,1096.9,550.2,1097.2,551.5z"/>
<linearGradient id="SVGID_24_" gradientUnits="userSpaceOnUse" x1="-838.0774" y1="1031.5752" x2="-835.427" y2="1048.3616" gradientTransform="matrix(-0.9396 -0.3423 -0.3423 0.9396 665.8312 -697.9237)">
	<stop  offset="0" style="stop-color:#FF9CB0"/>
	<stop  offset="6.433000e-002" style="stop-color:#FD8EA4"/>
	<stop  offset="0.2421" style="stop-color:#FA6C89"/>
	<stop  offset="0.4238" style="stop-color:#F75173"/>
	<stop  offset="0.6085" style="stop-color:#F53E64"/>
	<stop  offset="0.7981" style="stop-color:#F3335B"/>
	<stop  offset="1" style="stop-color:#F32F58"/>
</linearGradient>
<path class="st213" d="M1087.9,575.5C1087.9,575.5,1087.9,575.5,1087.9,575.5c2.1,4.2,5.6,2.2,7.5,2.2c2,0.1,5.3,2.4,7.6-1.7
	c1.9-3.3,5-6.4,4.3-11.1c-0.2-1.2-0.6-2.3-1.3-3.3c-3.7-5.2-8.4-3.4-10-3c-1.6-0.5-6.2-2.6-10.2,2.3
	C1081.8,565.8,1085.8,571.2,1087.9,575.5z"/>
<path class="st209" d="M1084.1,548.5c0.3,1,0.7,2,1.2,3c0.9,2.1,2.6,3.9,4.7,5c3.4,1.5,5.2,0.2,5.2,0.2c-0.2-1.7-0.9-3.2-2-4.5
	c-0.3-0.4-0.7-0.7-1.1-1C1089.8,549.5,1087,548.6,1084.1,548.5z"/>
<path class="st207" d="M1101.4,568.5c0,0,0.8,6.3,0.8,8.1l1.2,0.5c0,0,0.1-7.3-0.2-9.1C1103.2,568,1101.8,567,1101.4,568.5z"/>
<linearGradient id="SVGID_25_" gradientUnits="userSpaceOnUse" x1="1104.262" y1="1354.6229" x2="1112.37" y2="1375.9985" gradientTransform="matrix(1 0 0 1 -7.0004 -783.6804)">
	<stop  offset="0" style="stop-color:#FF9CB0"/>
	<stop  offset="6.433000e-002" style="stop-color:#FD8EA4"/>
	<stop  offset="0.2421" style="stop-color:#FA6C89"/>
	<stop  offset="0.4238" style="stop-color:#F75173"/>
	<stop  offset="0.6085" style="stop-color:#F53E64"/>
	<stop  offset="0.7981" style="stop-color:#F3335B"/>
	<stop  offset="1" style="stop-color:#F32F58"/>
</linearGradient>
<path class="st214" d="M1110.9,595.4C1110.9,595.4,1110.9,595.5,1110.9,595.4c-2.5,4.6-6.3,2.2-8.4,2.2c-2.2,0-6,2.5-8.4-2.2
	c-2-3.7-5.4-7.3-4.4-12.5c0.2-1.3,0.8-2.6,1.6-3.6c4.3-5.6,9.4-3.4,11.3-2.9c1.8-0.5,7-2.7,11.3,2.9
	C1118,584.9,1113.4,590.7,1110.9,595.4z"/>
<path class="st209" d="M1116,565.5c-0.4,1.1-0.9,2.2-1.4,3.3c-1.1,2.4-3,4.3-5.4,5.4c-3.9,1.5-5.8,0-5.8,0c0.3-1.8,1.2-3.6,2.4-5
	c0.4-0.4,0.8-0.8,1.2-1.1C1109.7,566.5,1112.9,565.6,1116,565.5z"/>
<linearGradient id="SVGID_26_" gradientUnits="userSpaceOnUse" x1="993.5296" y1="1318.3821" x2="1198.5203" y2="1318.3821" gradientTransform="matrix(1 0 0 1 -7.0004 -783.6804)">
	<stop  offset="0" style="stop-color:#DFEBF7"/>
	<stop  offset="1" style="stop-color:#CFE1F3"/>
</linearGradient>
<path class="st215" d="M1138.9,508.8l-150.5,8.8c-0.6,0-1,0.5-1,1.1c0,0.1,0,0.2,0.1,0.3l7.9,21.9l15.1,41.8l108,18.7l27.7-121.3
	c0.5-2.3,2.3-4.1,4.6-4.5l40.5-7.9"/>
<linearGradient id="SVGID_27_" gradientUnits="userSpaceOnUse" x1="1002.4131" y1="1326.7784" x2="1023.6988" y2="1326.7784" gradientTransform="matrix(1 0 0 1 -4.100000e-004 -775.997)">
	<stop  offset="0" style="stop-color:#DFEBF7"/>
	<stop  offset="1" style="stop-color:#CFE1F3"/>
</linearGradient>
<line class="st216" x1="1003.2" y1="516.7" x2="1022.9" y2="584.9"/>
<linearGradient id="SVGID_28_" gradientUnits="userSpaceOnUse" x1="1018.7365" y1="1327.3291" x2="1036.0428" y2="1327.3291" gradientTransform="matrix(1 0 0 1 -4.100000e-004 -775.997)">
	<stop  offset="0" style="stop-color:#DFEBF7"/>
	<stop  offset="1" style="stop-color:#CFE1F3"/>
</linearGradient>
<line class="st217" x1="1019.5" y1="515.6" x2="1035.2" y2="587.1"/>
<linearGradient id="SVGID_29_" gradientUnits="userSpaceOnUse" x1="1035.1267" y1="1327.8679" x2="1048.2709" y2="1327.8679" gradientTransform="matrix(1 0 0 1 -4.100000e-004 -775.997)">
	<stop  offset="0" style="stop-color:#DFEBF7"/>
	<stop  offset="1" style="stop-color:#CFE1F3"/>
</linearGradient>
<line class="st218" x1="1035.9" y1="514.6" x2="1047.4" y2="589.2"/>
<linearGradient id="SVGID_30_" gradientUnits="userSpaceOnUse" x1="1051.5842" y1="1328.3953" x2="1060.385" y2="1328.3953" gradientTransform="matrix(1 0 0 1 -4.100000e-004 -775.997)">
	<stop  offset="0" style="stop-color:#DFEBF7"/>
	<stop  offset="1" style="stop-color:#CFE1F3"/>
</linearGradient>
<line class="st219" x1="1052.4" y1="513.5" x2="1059.6" y2="591.3"/>
<linearGradient id="SVGID_31_" gradientUnits="userSpaceOnUse" x1="1068.1089" y1="1328.911" x2="1072.3868" y2="1328.911" gradientTransform="matrix(1 0 0 1 -4.100000e-004 -775.997)">
	<stop  offset="0" style="stop-color:#DFEBF7"/>
	<stop  offset="1" style="stop-color:#CFE1F3"/>
</linearGradient>
<line class="st220" x1="1068.9" y1="512.5" x2="1071.6" y2="593.4"/>
<linearGradient id="SVGID_32_" gradientUnits="userSpaceOnUse" x1="1082.6135" y1="1329.4154" x2="1086.3654" y2="1329.4154" gradientTransform="matrix(1 0 0 1 -4.100000e-004 -775.997)">
	<stop  offset="0" style="stop-color:#DFEBF7"/>
	<stop  offset="1" style="stop-color:#CFE1F3"/>
</linearGradient>
<line class="st221" x1="1085.5" y1="511.4" x2="1083.4" y2="595.4"/>
<linearGradient id="SVGID_33_" gradientUnits="userSpaceOnUse" x1="1094.4006" y1="1329.9086" x2="1103.0203" y2="1329.9086" gradientTransform="matrix(1 0 0 1 -4.100000e-004 -775.997)">
	<stop  offset="0" style="stop-color:#DFEBF7"/>
	<stop  offset="1" style="stop-color:#CFE1F3"/>
</linearGradient>
<line class="st222" x1="1102.2" y1="510.4" x2="1095.2" y2="597.5"/>
<linearGradient id="SVGID_34_" gradientUnits="userSpaceOnUse" x1="1106.0935" y1="1330.3905" x2="1125.4512" y2="1330.3905" gradientTransform="matrix(1 0 0 1 -4.100000e-004 -775.997)">
	<stop  offset="0" style="stop-color:#DFEBF7"/>
	<stop  offset="1" style="stop-color:#CFE1F3"/>
</linearGradient>
<line class="st223" x1="1124.6" y1="509.3" x2="1106.9" y2="599.5"/>
<linearGradient id="SVGID_35_" gradientUnits="userSpaceOnUse" x1="995.3289" y1="1314.8738" x2="1133.2804" y2="1314.8738" gradientTransform="matrix(1 0 0 1 -4.100000e-004 -775.997)">
	<stop  offset="0" style="stop-color:#DFEBF7"/>
	<stop  offset="1" style="stop-color:#CFE1F3"/>
</linearGradient>
<polyline class="st224" points="1133.3,536.8 1131.7,536.8 995.4,541 "/>
<linearGradient id="SVGID_36_" gradientUnits="userSpaceOnUse" x1="1003.1519" y1="1344.8071" x2="1124.5142" y2="1344.8071" gradientTransform="matrix(1 0 0 1 -4.100000e-004 -775.997)">
	<stop  offset="0" style="stop-color:#DFEBF7"/>
	<stop  offset="1" style="stop-color:#CFE1F3"/>
</linearGradient>
<line class="st225" x1="1124.5" y1="573.3" x2="1003.2" y2="564.3"/>
<linearGradient id="SVGID_37_" gradientUnits="userSpaceOnUse" x1="1034.1783" y1="1399.4445" x2="1138.1462" y2="1399.4445" gradientTransform="matrix(1 0 0 1 -7.0004 -783.6804)">
	<stop  offset="0" style="stop-color:#DFEBF7"/>
	<stop  offset="1" style="stop-color:#CFE1F3"/>
</linearGradient>
<path class="st226" d="M1118.5,601.5l11.5,23.8c0.7,1.5,0.1,3.3-1.4,4c-0.4,0.2-0.8,0.3-1.3,0.3h-100.2"/>
<linearGradient id="SVGID_38_" gradientUnits="userSpaceOnUse" x1="1019.4409" y1="1417.8342" x2="1041.6146" y2="1417.8342" gradientTransform="matrix(1 0 0 1 -4.100000e-004 -775.997)">
	<stop  offset="0" style="stop-color:#343A44"/>
	<stop  offset="0.3009" style="stop-color:#232D3E"/>
	<stop  offset="0.6391" style="stop-color:#182439"/>
	<stop  offset="1" style="stop-color:#142138"/>
</linearGradient>
<circle class="st227" cx="1030.5" cy="641.8" r="11.1"/>
<linearGradient id="SVGID_39_" gradientUnits="userSpaceOnUse" x1="1025.335" y1="1417.8342" x2="1035.7205" y2="1417.8342" gradientTransform="matrix(1 0 0 1 -4.100000e-004 -775.997)">
	<stop  offset="0" style="stop-color:#EEF4FB"/>
	<stop  offset="0.3115" style="stop-color:#E3EDF8"/>
	<stop  offset="1" style="stop-color:#CFE1F3"/>
</linearGradient>
<circle class="st228" cx="1030.5" cy="641.8" r="5.2"/>
<linearGradient id="SVGID_40_" gradientUnits="userSpaceOnUse" x1="1028.351" y1="1420.7128" x2="1046.7043" y2="1420.7128" gradientTransform="matrix(1 0 0 1 -7.0004 -783.6804)">
	<stop  offset="0" style="stop-color:#EEF4FB"/>
	<stop  offset="0.3115" style="stop-color:#E3EDF8"/>
	<stop  offset="1" style="stop-color:#CFE1F3"/>
</linearGradient>
<path class="st229" d="M1030.5,644.5L1030.5,644.5c-3,0-5.7-2-6.5-5l-2.7-10h18.4l-2.7,10C1036.2,642.5,1033.6,644.5,1030.5,644.5z"
	/>
<linearGradient id="SVGID_41_" gradientUnits="userSpaceOnUse" x1="1103.4521" y1="1417.8342" x2="1125.6259" y2="1417.8342" gradientTransform="matrix(1 0 0 1 -4.100000e-004 -775.997)">
	<stop  offset="0" style="stop-color:#343A44"/>
	<stop  offset="0.3009" style="stop-color:#232D3E"/>
	<stop  offset="0.6391" style="stop-color:#182439"/>
	<stop  offset="1" style="stop-color:#142138"/>
</linearGradient>
<circle class="st230" cx="1114.5" cy="641.8" r="11.1"/>
<linearGradient id="SVGID_42_" gradientUnits="userSpaceOnUse" x1="1109.3463" y1="1417.8342" x2="1119.7318" y2="1417.8342" gradientTransform="matrix(1 0 0 1 -4.100000e-004 -775.997)">
	<stop  offset="0" style="stop-color:#EEF4FB"/>
	<stop  offset="0.3115" style="stop-color:#E3EDF8"/>
	<stop  offset="1" style="stop-color:#CFE1F3"/>
</linearGradient>
<circle class="st231" cx="1114.5" cy="641.8" r="5.2"/>
<linearGradient id="SVGID_43_" gradientUnits="userSpaceOnUse" x1="1112.3624" y1="1420.7128" x2="1130.7158" y2="1420.7128" gradientTransform="matrix(1 0 0 1 -7.0004 -783.6804)">
	<stop  offset="0" style="stop-color:#EEF4FB"/>
	<stop  offset="0.3115" style="stop-color:#E3EDF8"/>
	<stop  offset="1" style="stop-color:#CFE1F3"/>
</linearGradient>
<path class="st232" d="M1114.5,644.5L1114.5,644.5c-3,0-5.7-2-6.5-5l-2.7-10h18.4l-2.7,10C1120.2,642.5,1117.6,644.5,1114.5,644.5z"
	/>
<linearGradient id="SVGID_44_" gradientUnits="userSpaceOnUse" x1="1009.6605" y1="1372.0969" x2="1120.2131" y2="1372.0969" gradientTransform="matrix(1 0 0 1 -4.100000e-004 -775.9971)">
	<stop  offset="0" style="stop-color:#DFEBF7"/>
	<stop  offset="1" style="stop-color:#CFE1F3"/>
</linearGradient>
<path class="st233" d="M1120.1,608.9l-102.3-19.7c-3.4-0.6-6.2-3.1-7.3-6.4"/>
<linearGradient id="SVGID_45_" gradientUnits="userSpaceOnUse" x1="1043.4678" y1="1356.8381" x2="1079.0677" y2="1356.8381" gradientTransform="matrix(0.9912 -0.1324 0.1324 0.9912 -51.6986 -734.1317)">
	<stop  offset="0" style="stop-color:#DFEBF7"/>
	<stop  offset="1" style="stop-color:#CFE1F3"/>
</linearGradient>
<path class="st234" d="M1163.7,467.7l31-4.1c1.2-0.2,2.3,0.7,2.4,1.9l0,0l0.7,5.1c0.2,1.2-0.7,2.3-1.9,2.4l0,0l-31,4.1
	c-1.2,0.2-2.3-0.7-2.4-1.9l0,0l-0.7-5.1C1161.7,468.9,1162.5,467.8,1163.7,467.7L1163.7,467.7z"/>
<path class="st235" d="M1273.1,394.9c-5.5-14.9-18.2-4.6-21.2,2.3c-4.5,10.4-22.9,36.7-22.9,36.7c-25.5,21.8-40.4,27.6-40.4,27.6
	c-3,0.5-6,0.9-9,1.1c-2.2-0.1-4.6-2-6.8-2.5c-3.1-0.7-13.2,10.5-13.2,10.5c-1.2,0,1.7,2.9,1.7,2.9l3.5-1.2l2.2,1.7l5.9-2.3l5.7,1.8
	c2-0.2,4-0.6,5.9-1.2c2.8-0.9,5.6-1.6,8.4-2.1c10.8-4.3,42.6-20.3,52.6-32.7C1250.4,431.4,1277.1,405.8,1273.1,394.9z"/>
<path class="st236" d="M1273.1,394.9c-5.5-14.9-18.2-4.6-21.2,2.3c-4.5,10.4-22.9,36.7-22.9,36.7c-25.5,21.8-40.4,27.6-40.4,27.6
	c-3,0.5-6,0.9-9,1.1c-2.2-0.1-4.6-2-6.8-2.5c-3.1-0.7-13.2,10.5-13.2,10.5c-1.2,0,1.7,2.9,1.7,2.9l3.5-1.2l2.2,1.7l5.9-2.3l5.7,1.8
	c2-0.2,4-0.6,5.9-1.2c2.8-0.9,5.6-1.6,8.4-2.1c10.8-4.3,42.6-20.3,52.6-32.7C1250.4,431.4,1277.1,405.8,1273.1,394.9z"/>
<path class="st237" d="M1255.6,360.5c1.5,3.6,9.7,14.1,9.7,14.1l-17.9,4.5c-0.5-1.7-1.5-3.1-2-4.8c0-0.1,0-0.1-0.1-0.2
	c0,0-0.1-0.1-0.1-0.1l-0.2-0.1c-0.7-0.5-1.3-1.1-1.8-1.8c-1.3-1.2-2.8-2.2-4.4-2.9c-0.4-0.2-0.8-0.3-1.3-0.5
	c-0.4-0.2-0.8-0.3-1.2-0.4C1245.3,367.5,1250.9,362.9,1255.6,360.5z"/>
<path class="st238" d="M1264.3,383.3c1.3,1.4,2.9,2.4,4.7,3.2c2.2,0.9,4.4,1.9,6.5,2.8l8.7,3.7c7.3-5.7,7.4-25.8-4.1-32.7
	c-7.1-4.4-12.7-10.6-16.4-18l-12.2-1.8l-8.6-1.2c-1-0.3-2-0.4-3-0.4c-1.7,0.6-0.8,3.9-0.4,5.6c0.4,1.7,1,3.4,1.7,5
	c5.1,11.9,12.3,22.8,21.2,32.1C1263.1,382.2,1263.7,382.8,1264.3,383.3z"/>
<path class="st238" d="M1234.6,328.2L1234.6,328.2c11.3-4.5,24,1.1,28.5,12.3c4.5,11.3-1.1,24-12.3,28.5l0,0
	c-11.3,4.2-23.8-1.2-28.5-12.3C1216.6,344.3,1223.3,332.6,1234.6,328.2z"/>
<path class="st238" d="M1243.6,370.6l3.5,7.5c11.4-4.9,7.5-20.9,7.5-20.9L1243.6,370.6z"/>
<path class="st239" d="M1256,353l-5.3-13.4c-1.4-3.4-5.2-5.1-8.7-3.8l-14,1.5c-3.4,1.4-7.3,10-5,15.7l5.3,13.5
	c3.1,7.8,11.4,10,19.2,6.9l0,0C1255.1,369.7,1258.7,361,1256,353z"/>
<circle class="st240" cx="1240.4" cy="354.6" r="1.2"/>
<circle class="st240" cx="1230" cy="358.6" r="1.2"/>
<path class="st241" d="M1238,362.4c-2.2,1.6-3,0-3,0l0.3-3"/>
<path class="st240" d="M1242.6,348.8c-0.2-0.6-0.8-0.9-1.4-0.7l-5.2,1.8l0,0c-0.6,0.2-0.9,0.8-0.7,1.4c0.2,0.6,0.8,0.9,1.4,0.7l0,0
	l5.2-1.8c0.1,0,0.1-0.1,0.2-0.1C1242.6,349.8,1242.8,349.3,1242.6,348.8z"/>
<path class="st240" d="M1230.2,353.4c-0.2-0.6-0.8-0.9-1.4-0.7l0,0h0h0l-3.2,1.1l0,0c-0.6,0.2-0.9,0.8-0.7,1.4
	c0.2,0.6,0.8,0.9,1.4,0.7l3.2-1.1c0.1,0,0.1-0.1,0.2-0.1C1230.2,354.4,1230.4,353.9,1230.2,353.4z"/>
<path class="st242" d="M1240.3,368.1c-3.1,1.2-6-2-6-2l9.4-2.9C1244,365.5,1242.5,367.5,1240.3,368.1z"/>
<path class="st238" d="M1227.8,336.5c4.3-5,11.1-7,17.4-4.9c11.7,3,13.6,15.5,13.6,15.5c-11.6,1.2-23.3-0.5-34-5.1L1227.8,336.5z"/>
<path class="st238" d="M1227.7,337.1c-7.8,5.1-5.3,15.5-5.3,15.5c2.4-3.9,4-8.2,5-12.7L1227.7,337.1z"/>
<path class="st238" d="M1251.6,344.3l2.4,9.9c-5.3,1-7.6-9.5-7.6-9.5L1251.6,344.3z"/>
<circle class="st239" cx="1256.4" cy="350.5" r="5.5"/>
<path class="st243" d="M1271,383.4c3,9.9,6,10.7,10,50.5c0.3,2.9,1,8.4,1.9,15.1c3,22.2-45.1,26.9-45.2,7.5c0-2.6,0-5-0.1-7.1
	c-0.2-16.7-4.3-31.5-3.9-36.7c1.3-14.3,7.6-24.3,10.9-30.1c2.5-4.8,7-8.3,12.3-9.5C1261.7,372.1,1269,376.9,1271,383.4z"/>
<path class="st237" d="M1267.3,383.2c-6.8-14.4-18.5-3-20.9,4.2c-3.5,10.8-19.6,38.6-19.6,38.6c-23.4,24-37.8,31-37.8,31
	c-2.9,0.8-5.9,1.4-8.8,1.8c-2.2,0.1-4.8-1.6-7-1.8c-3.2-0.4-12.2,11.7-12.2,11.7c-1.2,0.1,1.9,2.8,1.9,2.8l3.3-1.5l2.4,1.5l5.7-2.8
	l5.9,1.3c2-0.4,3.9-1,5.7-1.8c2.7-1.1,5.4-2,8.2-2.8c10.4-5.3,40.6-24,49.5-37.3C1248,421.6,1272.2,393.7,1267.3,383.2z"/>
<path class="st243" d="M1256.6,376.2c-11.6,3.7-20.4,24.3-20.4,24.3L1256,416c0,0,17.4-15.8,15-31.3c-0.5-3.9-3-7.2-6.5-8.8
	C1261.9,374.9,1259.1,375,1256.6,376.2z"/>
<path class="st244" d="M1366.1,323c0.7-0.1,1.3-0.7,1.4-1.4c0.2-0.6-0.1-1.2-0.6-1.4c-0.1,0-0.2,0-0.3-0.1c-0.7,0.1-1.3,0.7-1.4,1.4
	c-0.2,0.6,0.1,1.2,0.6,1.4C1365.9,322.9,1366,323,1366.1,323z"/>
<path class="st244" d="M1361.9,322.9c0.7-0.1,1.3-0.7,1.4-1.4c0.2-0.6-0.1-1.2-0.6-1.4c-0.1,0-0.2,0-0.2-0.1
	c-0.7,0.1-1.3,0.7-1.4,1.4c-0.2,0.6,0.1,1.2,0.6,1.4C1361.7,322.9,1361.8,322.9,1361.9,322.9z"/>
<path class="st244" d="M1357.8,322.9c0.7-0.1,1.3-0.7,1.4-1.4c0.2-0.5-0.1-1.2-0.6-1.4c-0.1,0-0.2,0-0.2-0.1
	c-0.7,0.1-1.3,0.7-1.4,1.4c-0.2,0.6,0.1,1.2,0.6,1.4C1357.6,322.8,1357.7,322.9,1357.8,322.9z"/>
<path class="st244" d="M1374.5,323.1c0.7-0.1,1.3-0.7,1.4-1.4c0.2-0.6-0.1-1.2-0.7-1.4c-0.1,0-0.2,0-0.3-0.1
	c-0.7,0.1-1.3,0.7-1.5,1.4c-0.2,0.6,0.1,1.2,0.7,1.4C1374.4,323.1,1374.4,323.1,1374.5,323.1z"/>
<path class="st244" d="M1370.3,323c0.7-0.1,1.3-0.7,1.4-1.4c0.2-0.6-0.1-1.2-0.7-1.4c-0.1,0-0.2,0-0.2-0.1c-0.7,0.1-1.3,0.7-1.4,1.4
	c-0.2,0.6,0.1,1.2,0.7,1.4C1370.1,323,1370.2,323,1370.3,323z"/>
<path class="st244" d="M1405.5,321.4c0.1,0,0.2,0,0.3-0.1c0.1-0.1,0.1-0.2,0.2-0.3c0-0.1,0-0.2,0-0.3c-0.1-0.1-0.2-0.1-0.3-0.1
	c-0.1,0-0.2,0-0.3,0.1c-0.1,0.1-0.1,0.2-0.2,0.3c0,0.1,0,0.2,0,0.3C1405.3,321.3,1405.4,321.4,1405.5,321.4z"/>
<path class="st244" d="M1405,324.1c-0.1,0-0.2,0-0.3,0.1c-0.1,0.1-0.1,0.2-0.2,0.3c0,0.1,0,0.2,0,0.3c0.1,0.1,0.2,0.1,0.3,0.1
	c0.1,0,0.2,0,0.3-0.1c0.1-0.1,0.1-0.2,0.2-0.3c0-0.1,0-0.2,0-0.3C1405.2,324.1,1405.1,324.1,1405,324.1z"/>
<path class="st244" d="M1414.2,319.9c0.5,0,0.9,0.2,1.1,0.7c0.2,0.6,0.2,1.3,0,2l-0.2,1c-0.1,0.7-0.4,1.3-0.8,1.9
	c-0.3,0.4-0.8,0.6-1.4,0.6c-0.5,0-0.9-0.2-1.1-0.7c-0.2-0.7-0.2-1.3,0-2l0.2-1c0.1-0.7,0.4-1.3,0.8-1.9
	C1413.2,320.1,1413.7,319.8,1414.2,319.9z M1412.5,323.6c-0.1,0.5-0.1,0.9,0,1.4c0.1,0.3,0.4,0.5,0.6,0.4c0.3,0,0.6-0.2,0.8-0.4
	c0.3-0.4,0.4-0.9,0.5-1.4l0.2-1.2c0.1-0.4,0.1-0.9,0-1.4c-0.1-0.3-0.4-0.5-0.7-0.5c-0.3,0-0.6,0.2-0.8,0.4c-0.3,0.4-0.4,0.9-0.5,1.4
	L1412.5,323.6"/>
<path class="st244" d="M1410.2,319.6c0.5,0,0.9,0.2,1.1,0.7c0.2,0.6,0.2,1.3,0,2l-0.2,1c-0.1,0.7-0.4,1.3-0.8,1.9
	c-0.3,0.4-0.8,0.6-1.3,0.6c-0.5,0-0.9-0.2-1.1-0.7c-0.2-0.7-0.2-1.3,0-2l0.2-1c0.1-0.7,0.4-1.3,0.8-1.9
	C1409.2,319.8,1409.7,319.6,1410.2,319.6z M1408.5,323.3c-0.1,0.5-0.1,0.9,0,1.4c0.1,0.3,0.4,0.5,0.6,0.4c0.3,0,0.6-0.2,0.8-0.4
	c0.3-0.4,0.4-0.9,0.5-1.4l0.2-1.2c0.1-0.4,0.1-0.9,0-1.4c-0.1-0.3-0.4-0.5-0.6-0.4c-0.3,0-0.6,0.2-0.8,0.4c-0.3,0.4-0.4,0.9-0.5,1.4
	L1408.5,323.3"/>
<path class="st244" d="M1402.2,319.2c0.5,0,0.9,0.2,1.1,0.6c0.2,0.6,0.2,1.3,0,2l-0.2,1c-0.1,0.7-0.4,1.3-0.8,1.9
	c-0.3,0.4-0.8,0.6-1.3,0.6c-0.5,0-0.9-0.2-1.1-0.7c-0.2-0.6-0.2-1.3,0-2l0.2-1c0.1-0.7,0.4-1.3,0.8-1.9
	C1401.2,319.4,1401.7,319.1,1402.2,319.2z M1400.6,322.9c-0.1,0.4-0.1,0.9,0,1.4c0.1,0.3,0.3,0.5,0.6,0.4c0.3,0,0.6-0.2,0.8-0.4
	c0.3-0.4,0.4-0.9,0.5-1.4l0.2-1.2c0.1-0.4,0.1-0.9,0-1.3c-0.1-0.3-0.3-0.5-0.6-0.4c-0.3,0-0.6,0.2-0.8,0.4c-0.3,0.4-0.4,0.9-0.5,1.4
	L1400.6,322.9"/>
<path class="st244" d="M1398.3,318.9c0.5,0,0.9,0.2,1.1,0.6c0.2,0.6,0.2,1.3,0,1.9l-0.2,1c-0.1,0.7-0.4,1.3-0.8,1.9
	c-0.3,0.4-0.8,0.6-1.3,0.6c-0.5,0-0.9-0.2-1.1-0.7c-0.2-0.6-0.2-1.3,0-2l0.2-1c0.1-0.7,0.4-1.3,0.8-1.9
	C1397.3,319.1,1397.8,318.9,1398.3,318.9z M1396.7,322.6c-0.1,0.4-0.1,0.9,0,1.4c0.1,0.3,0.3,0.5,0.6,0.4c0.3,0,0.6-0.2,0.8-0.4
	c0.3-0.4,0.4-0.9,0.5-1.4l0.2-1.2c0.1-0.4,0.1-0.9,0-1.3c-0.1-0.3-0.3-0.5-0.6-0.4c-0.3,0-0.6,0.2-0.8,0.4c-0.3,0.4-0.4,0.9-0.5,1.4
	L1396.7,322.6"/>
<polygon class="st13" points="1448.5,326 1449.8,319.2 1441.6,319.2 1440.3,325.9 "/>
<path class="st244" d="M1454.9,324.4l-0.3,1.8c-0.1,0.6-0.6,1.1-1.3,1.2l-13.2-0.2c-0.5,0-0.9-0.5-0.8-1c0-0.1,0-0.1,0-0.2l1.4-6.9
	c0.1-0.6,0.6-1.1,1.3-1.1l13.3,0.1c0.5,0,0.9,0.4,0.9,0.9c0,0.1,0,0.2,0,0.2l-0.3,1.8l0.4,0c0.5,0,0.9,0.4,0.9,0.9
	c0,0.1,0,0.2,0,0.2l-0.2,1.1c-0.1,0.6-0.6,1.1-1.3,1.1L1454.9,324.4z M1449.8,319.2l-8.2,0l-1.3,6.7l8.2,0.1L1449.8,319.2"/>
<path class="st244" d="M1384.6,320.6c-1.1,0-2.1,0.5-2.9,1.3c-0.2,0.2-0.3,0.5-0.2,0.8c0.1,0.1,0.2,0.2,0.3,0.2
	c0.1,0,0.3-0.1,0.4-0.2c0.6-0.6,1.4-0.9,2.2-1c0.7,0,1.4,0.4,1.8,1c0.1,0.1,0.2,0.2,0.3,0.2c0.1,0,0.3-0.1,0.4-0.2
	c0.2-0.2,0.3-0.5,0.2-0.8C1386.5,321.1,1385.6,320.6,1384.6,320.6z"/>
<path class="st244" d="M1384.1,323.3c-0.3,0-0.5,0.1-0.7,0.3c-0.5,0.4-0.7,1.1-0.5,1.7c0.1,0.3,0.4,0.5,0.7,0.5
	c0.2,0,0.5-0.1,0.7-0.3c0.5-0.4,0.7-1.1,0.5-1.7C1384.7,323.4,1384.4,323.3,1384.1,323.3z"/>
<path class="st244" d="M1385.1,317.8c-1.8,0.1-3.5,0.8-4.8,2.1c-0.2,0.2-0.3,0.5-0.2,0.8c0.1,0.1,0.2,0.2,0.3,0.2
	c0.1,0,0.3-0.1,0.4-0.2c1.1-1.1,2.5-1.7,4-1.8c1.4,0,2.6,0.7,3.4,1.9c0.1,0.1,0.2,0.2,0.3,0.2c0.1,0,0.3-0.1,0.4-0.2
	c0.2-0.2,0.3-0.5,0.2-0.8C1388.2,318.6,1386.7,317.8,1385.1,317.8z"/>
<polygon class="st245" points="1253.9,414.3 1262.5,402.4 1258.3,438 "/>
<path class="st243" d="M1358.6,569.5c1.5,3.6,9,16.2,12.6,15.3s2.8-18.9,0-28.3c-1.5-4.2-2.4-8.7-2.8-13.1c-0.6-3.6-6.4-9-14.7-0.3
	c2.5,4.5,4.1,9.5,4.7,14.6C1358.8,561.6,1358.9,565.6,1358.6,569.5z"/>
<path class="st246" d="M1343.5,542.8l-13.9-1.1l-0.1,1.5l-1,12.5l0,0.3l22.5,1c0,0,6.4,10.4,7.8,12.5s6.9-8.2,5.2-14.8
	c-0.9-3.4-3.3-12.2-6-13.1S1349.5,543.8,1343.5,542.8z"/>
<path class="st243" d="M1249.1,634.3c-3.1,2.3-13.7,12.4-12.1,15.7c1.7,3.3,19.1-1.5,27.5-6.4c3.8-2.4,7.9-4.3,12.2-5.7
	c3.4-1.4,7.3-8.3-3-14.4c-3.8,3.5-8.3,6.1-13.2,7.8C1256.9,632.7,1253,633.7,1249.1,634.3z"/>
<path class="st246" d="M1271.7,613.5l-2.1-13.8l-1.5,0.2l-12.4,1.8l-0.3,0l4.1,22.1c0,0-8.7,8.6-10.4,10.4s9.5,4.9,15.6,1.7
	c3.1-1.6,11.2-6,11.4-8.8C1276.3,624.5,1272.2,619.5,1271.7,613.5z"/>
<text transform="matrix(1 0 0 1 344.1463 330.9731)" class="st247 st248 st249">eoevRvi kwcs Avc</text>
<g>
	<text transform="matrix(1 0 0 1 345.5986 413.4849)" class="st250 st251 st252">Avcbvi</text>
	<text transform="matrix(1 0 0 1 412.3066 413.4849)" class="st250 st251 st252">cQ`i</text>
	<text transform="matrix(1 0 0 1 477.8144 413.4849)" class="st250 st251 st252">mKj</text>
	<text transform="matrix(1 0 0 1 524.7958 413.4849)" class="st250 st251 st252">cY</text>
	<text transform="matrix(1 0 0 1 562.8964 413.4849)" class="st250 st251 st252">GLb</text>
	<text transform="matrix(1 0 0 1 607.9101 413.4849)" class="st247 st251 st252">eoevRvi</text>
	<text transform="matrix(1 0 0 1 684.6972 413.4849)" class="st250 st251 st252">Avc|</text>
	<text transform="matrix(1 0 0 1 749.4863 413.4849)" class="st250 st251 st252">GLbB</text>
	<text transform="matrix(1 0 0 1 345.5986 442.2857)" class="st250 st251 st252">Mj</text>
	<text transform="matrix(1 0 0 1 393.123 442.2857)" class="st250 st251 st252">c</text>
	<text transform="matrix(1 0 0 1 424.3505 442.2857)" class="st250 st251 st252">vi</text>
	<text transform="matrix(1 0 0 1 476.123 442.2857)" class="st250 st251 st252">nZ</text>
	<text transform="matrix(1 0 0 1 518.6806 442.2857)" class="st250 st251 st252">Avc</text>
	<text transform="matrix(1 0 0 1 567.789 442.2857)" class="st250 st251 st252">BUj</text>
	<text transform="matrix(1 0 0 1 625.6816 442.2857)" class="st250 st251 st252">Kib</text>
	<text transform="matrix(1 0 0 1 676.4462 442.2857)" class="st250 st251 st252">Ges</text>
	<text transform="matrix(1 0 0 1 719.4579 442.2857)" class="st250 st251 st252">Lye</text>
	<text transform="matrix(1 0 0 1 752.9902 442.2857)" class="st250 st251 st252">mnR</text>
	<text transform="matrix(1 0 0 1 345.5986 471.0855)" class="st250 st251 st252">gvevBj</text>
	<text transform="matrix(1 0 0 1 414.413 471.0855)" class="st250 st251 st252">Avc</text>
	<text transform="matrix(1 0 0 1 458.6533 471.0855)" class="st250 st251 st252">eenvi</text>
	<text transform="matrix(1 0 0 1 517.8447 471.0855)" class="st250 st251 st252">Ki</text>
	<text transform="matrix(1 0 0 1 555.2939 471.0855)" class="st250 st251 st252">kwcs</text>
	<text transform="matrix(1 0 0 1 598.7656 471.0855)" class="st250 st251 st252">Kib|</text>
	<text transform="matrix(1 0 0 1 655.7968 471.0855)" class="st250 st251 st252">mnR,</text>
	<text transform="matrix(1 0 0 1 705.1494 471.0855)" class="st250 st251 st252">mvRvbv</text>
	<text transform="matrix(1 0 0 1 770.2929 471.0855)" class="st250 st251 st252">M</text>
	<text transform="matrix(1 0 0 1 789.0839 471.0855)" class="st250 st251 st252">-</text>
	<text transform="matrix(1 0 0 1 345.5986 499.8853)" class="st250 st251 st252">vQvbv, Avcbvi gbi gZ|</text>
</g>
<path class="st247" d="M1340.8,537.3c-11.1,1.1-23.3-0.6-36.6-5.4l-7.3-28.5c-0.8-5.1-2.4-14.9-3.9-29
	c-2.3-21.2-10.6-27.8-10.6-27.8l-44.8,8l0.2,24.9c0,0-6,46.4,0.4,75.5l12.2,59.9l27.7-4.9c0,0-4.3-25.4-7.9-46.4
	c-4.2-24.5-2.5-59.3-2.5-59.3c1.6,15.4,2.8,33.1,12.2,46.1c3.5,4.8,9.6,10.4,15.2,12.6c4.1,1.6,9.5,1,14,1.2c11,0.7,23,2.3,33.8,0.9
	L1340.8,537.3z"/>
</svg>
