<svg id="Layer_1" data-name="Layer 1" xmlns="http://www.w3.org/2000/svg" xmlns:xlink="http://www.w3.org/1999/xlink" viewBox="0 0 196.57524 163.30693"><defs><style>.cls-1{fill:#2c338e;}.cls-2{fill:#6cc071;}.cls-3{fill:#94ce97;opacity:0.95;}.cls-11,.cls-3,.cls-30,.cls-4{isolation:isolate;}.cls-20,.cls-22,.cls-23,.cls-24,.cls-31,.cls-4{fill:none;stroke-miterlimit:10;}.cls-4{stroke:#ed644b;stroke-width:0.46881px;}.cls-4,.cls-5{opacity:0.25;}.cls-11,.cls-6{fill:#ed644b;}.cls-7{opacity:0.85;}.cls-8{fill:#464fa2;}.cls-9{fill:#3b439b;}.cls-10{fill:#f4847f;}.cls-11,.cls-30{opacity:0.5;}.cls-12{fill:url(#linear-gradient);}.cls-13{fill:#353892;}.cls-14{fill:#f9bfaf;}.cls-15{fill:#016ae1;}.cls-16{fill:#fff;}.cls-17{fill:#fbe5e0;}.cls-18{fill:#006be3;}.cls-19{fill:#fb7341;}.cls-20,.cls-23{stroke:#e1b2b2;}.cls-20{stroke-width:0.25704px;}.cls-21{fill:#13c992;}.cls-22,.cls-24{stroke:#fff;}.cls-22{stroke-width:0.66459px;}.cls-23{stroke-width:0.43322px;}.cls-24{stroke-width:0.41367px;}.cls-25{fill:#f7c12d;}.cls-26{fill:#fcfcfc;}.cls-27{fill:#81441d;}.cls-28{fill:#efc4a3;}.cls-29{fill:#363b92;}.cls-30{fill:#29235c;}.cls-31{stroke:#231b22;stroke-width:0.2643px;}.cls-32{fill:#3a90e8;}.cls-33{fill:#369747;}.cls-34{fill:#fcdfbb;}.cls-35{fill:#303030;}.cls-36{fill:#fffff3;}.cls-37{fill:url(#linear-gradient-2);}</style><linearGradient id="linear-gradient" x1="1952.16199" y1="-1465.43603" x2="2001.11155" y2="-1465.43603" gradientTransform="matrix(0.2813, 0.14431, 0.15834, -0.3309, -277.92237, -611.76265)" gradientUnits="userSpaceOnUse"><stop offset="0.22222" stop-color="#fff"/><stop offset="0.40378" stop-color="#eaecf6"/><stop offset="0.76897" stop-color="#bac2e3"/><stop offset="0.91534" stop-color="#a5afdb"/></linearGradient><linearGradient id="linear-gradient-2" x1="1502.23315" y1="-2074.77254" x2="1551.18451" y2="-2074.77254" gradientTransform="matrix(0.31748, 0.01227, 0.0141, -0.3667, -416.03761, -617.42788)" xlink:href="#linear-gradient"/></defs><title>wcbg-4</title><path class="cls-1" d="M161.17118,138.34277a0.44315,0.44315,0,0,1,.18468.117,0.45592,0.45592,0,0,1,.05865.31721l-0.11053,1.806a0.31394,0.31394,0,0,1-.05026.18317,0.31037,0.31037,0,0,1-.14684.08363,16.26487,16.26487,0,0,1-2.19154.58543,3.5811,3.5811,0,0,1-1.98878-.03647,0.7529,0.7529,0,0,1-.54645-0.61777,1.15032,1.15032,0,0,1,.22621-0.542,0.97052,0.97052,0,0,0,.14265-0.54359q-0.002-.49512-0.02019-0.99a2.612,2.612,0,0,0-.23926-1.18294A10.218,10.218,0,0,1,161.17118,138.34277Z" transform="translate(0)"/><path class="cls-2" d="M149.99571,114.60822c-1.09871,0-2.10857.451-3.17986,0.37976a6.94161,6.94161,0,0,0-1.18423.00509,8.20292,8.20292,0,0,0-4.40108,2.16353,10.45878,10.45878,0,0,0-3.01431,3.83633,12.45634,12.45634,0,0,0-.75131,3.403q-0.0718.768-.07285,1.54063c0,3.06279,1.18048,5.94,2.35236,8.71628L142.1,140.2334a1.74962,1.74962,0,0,0,2.02216,1.22263,61.54528,61.54528,0,0,0,11.81046-.49661,0.78165,0.78165,0,0,0,.38977-0.12814,0.74473,0.74473,0,0,0,.21114-0.37788c0.45386-1.46378.48969-2.994,0.835-4.47775,0.33871-1.45557,1.13429-2.74438,1.61015-4.15448a15.13646,15.13646,0,0,0-2.99525-14.21633A7.8248,7.8248,0,0,0,149.99571,114.60822Z" transform="translate(0)"/><path class="cls-3" d="M143.87852,117.52683a12.58931,12.58931,0,0,0-2.2291,1.8494,3.65925,3.65925,0,0,0-.46442,1.068,10.1644,10.1644,0,0,0,.38165,6.08384,28.76619,28.76619,0,0,0,2.83933,5.48987,24.95791,24.95791,0,0,0,2.38347,3.41458c0.53142,0.6071,1.11906,1.16344,1.64384,1.77631a11.61185,11.61185,0,0,1,2.548,5.2238q2.15192,0.055,4.3047-.00571a0.71362,0.71362,0,0,0,.83556-0.71819q0.55946-2.53306.88425-5.11038a8.27166,8.27166,0,0,1,.39243-1.94064,16.20492,16.20492,0,0,1,1.12749-2.00206c1.28319-2.30475,1.23466-5.08982,1.15207-7.7264a5.34452,5.34452,0,0,0-1.24751-3.83151l-1.748-2.4963a11.93218,11.93218,0,0,0-1.79849-2.17866,8.61623,8.61623,0,0,0-5.5488-1.84679,6.464,6.464,0,0,0-3.32657.63042C145.11236,115.744,144.63867,116.83378,143.87852,117.52683Z" transform="translate(0)"/><path class="cls-4" d="M142.38337,121.23784a9.71786,9.71786,0,0,0-.28706,2.42676c-0.03352,4.4,1.76022,8.577,3.36478,12.67416a16.30551,16.30551,0,0,1,.8324,2.54831,17.13982,17.13982,0,0,1,.245,3.58727,32.99234,32.99234,0,0,1,4.80278-.08659l0.30276-3.35229a75.92018,75.92018,0,0,0,.3867-14.33228,15.1375,15.1375,0,0,0-1.41138-5.50961,7.27611,7.27611,0,0,0-3.32283-3.31834,1.055,1.055,0,0,0-1.02216-.148,5.34212,5.34212,0,0,0-.93417.88627,14.66859,14.66859,0,0,0-1.69563,1.98878A8.48088,8.48088,0,0,0,142.38337,121.23784Z" transform="translate(0)"/><g class="cls-5"><path class="cls-6" d="M150.92469,114.824a10.07819,10.07819,0,0,1,.95544.81767c0.583,0.55147,1.35664,1.39271,2.30292,2.38085a12.964,12.964,0,0,1,1.418,1.72271,9.02988,9.02988,0,0,1,1.093,2.26237,9.8912,9.8912,0,0,1,.47124,2.64589,13.77129,13.77129,0,0,1-.21469,2.75533c-0.15666.89825-.3103,1.8081-0.52007,2.68269l-0.57376,2.5759c-0.19083.85014-.41257,1.63622-0.60875,2.39938-0.19766.76-.39482,1.47343-0.52689,2.13853a9.803,9.803,0,0,0-.20825,1.83261,12.08812,12.08812,0,0,0,.08122,1.42987l0.15425,1.24545s-0.10551-.44431-0.2446-1.23294a12.216,12.216,0,0,1-.16537-1.43906,8.50938,8.50938,0,0,1,.12318-1.88309c0.11084-.683.284-1.40732,0.45422-2.17227l0.5425-2.39951c0.1763-.83743.35844-1.70274,0.54353-2.582,0.19994-.87616.3378-1.7692,0.48668-2.67094a13.33561,13.33561,0,0,0,.24049-2.66464,9.47032,9.47032,0,0,0-.42192-2.53863,9.82862,9.82862,0,0,0-.98914-2.196,12.65845,12.65845,0,0,0-1.32915-1.73481c-0.91682-1.019-1.62067-1.91968-2.173-2.49378C151.27214,115.12256,150.92469,114.824,150.92469,114.824Z" transform="translate(0)"/></g><g class="cls-7"><path class="cls-6" d="M143.8733,120.24417a0.385,0.385,0,0,0,.06717.05883,0.50964,0.50964,0,0,0,.17748.07006c0.1432,0.03334.36134,0.04022,0.60252,0.10516a2.23585,2.23585,0,0,1,.61.26944,1.29508,1.29508,0,0,1,.25383.20863,1.29508,1.29508,0,0,1-.32455.05109,2.23466,2.23466,0,0,1-.66243-0.07709,2.54917,2.54917,0,0,1-.33948-0.12364,0.84875,0.84875,0,0,1-.29337-0.21389,0.40781,0.40781,0,0,1-.10818-0.25074A0.27414,0.27414,0,0,1,143.8733,120.24417Z" transform="translate(0)"/><path class="cls-6" d="M145.4177,123.30971a1.40563,1.40563,0,0,1,.36974-0.06938,2.42644,2.42644,0,0,1,1.501.40794,1.41341,1.41341,0,0,1,.28337.24778,1.93814,1.93814,0,0,1-.37241.00624,3.99206,3.99206,0,0,1-.75089-0.12942,4.03447,4.03447,0,0,1-.71275-0.2696A1.99107,1.99107,0,0,1,145.4177,123.30971Z" transform="translate(0)"/><path class="cls-6" d="M147.2806,127.91382a1.51938,1.51938,0,0,1-.10889.341,2.71673,2.71673,0,0,1-.93225,1.12425,1.50894,1.50894,0,0,1-.31555.16946,1.50941,1.50941,0,0,1,.10841-0.34138,2.71681,2.71681,0,0,1,.93318-1.12347A1.51974,1.51974,0,0,1,147.2806,127.91382Z" transform="translate(0)"/><path class="cls-6" d="M149.01054,133.27084a0.91311,0.91311,0,0,1-.03378.26306,1.31806,1.31806,0,0,1-.61481.79767,0.154,0.154,0,1,1-.2131-0.16446,1.31812,1.31812,0,0,1,.6158-0.79694A0.91326,0.91326,0,0,1,149.01054,133.27084Z" transform="translate(0)"/><path class="cls-6" d="M152.91766,135.16638a1.14288,1.14288,0,0,1,.29845-0.05876,1.85506,1.85506,0,0,1,1.16077.31032,0.16968,0.16968,0,1,1-.06966.26,1.85505,1.85505,0,0,1-1.16048-.31149A1.14378,1.14378,0,0,1,152.91766,135.16638Z" transform="translate(0)"/><path class="cls-6" d="M152.97134,128.39256a0.88109,0.88109,0,0,1,.24326-0.14519,1.35349,1.35349,0,0,1,1.106.03751,0.89057,0.89057,0,0,1,.23264.16219,1.14194,1.14194,0,0,1-.25951.10565,1.78553,1.78553,0,0,1-1.0708-.03751A1.17294,1.17294,0,0,1,152.97134,128.39256Z" transform="translate(0)"/><path class="cls-6" d="M152.80032,122.47314a0.15676,0.15676,0,0,1-.06319-0.08384,0.33678,0.33678,0,0,1,.06837-0.28421,0.89923,0.89923,0,0,1,.2728-0.2422,2.81267,2.81267,0,0,1,.31474-0.1763,2.32634,2.32634,0,0,1,.65327-0.19129,1.33557,1.33557,0,0,1,.3343-0.00587,1.33509,1.33509,0,0,1-.22165.25034,2.32694,2.32694,0,0,1-.56984.37235,2.81479,2.81479,0,0,1-.33852.12473c-0.121.03581-.19122,0.04233-0.26855,0.06981a0.3237,0.3237,0,0,0-.1523.08721A0.15405,0.15405,0,0,0,152.80032,122.47314Z" transform="translate(0)"/><path class="cls-6" d="M151.50347,119.88741a0.83855,0.83855,0,0,1,.1514-0.26833,1.34377,1.34377,0,0,1,1.13667-.49119,0.86093,0.86093,0,0,1,.29924.0745,1.68048,1.68048,0,0,1-.23433.18675,3.255,3.255,0,0,1-.50752.27581,3.31008,3.31008,0,0,1-.54916.17956A1.81246,1.81246,0,0,1,151.50347,119.88741Z" transform="translate(0)"/><path class="cls-6" d="M157.07672,120.07079a0.90591,0.90591,0,0,1,.08832-0.24876,1.30222,1.30222,0,0,1,.76677-0.64309,0.15354,0.15354,0,1,1,.17287.20636,1.3021,1.3021,0,0,1-.76755.64215A0.90565,0.90565,0,0,1,157.07672,120.07079Z" transform="translate(0)"/><path class="cls-6" d="M158.79115,123.55767a1.872,1.872,0,0,1,.09454-0.39037,3.52044,3.52044,0,0,1,.90935-1.396,1.858,1.858,0,0,1,.31953-0.2437,1.85834,1.85834,0,0,1-.094.3907,3.52046,3.52046,0,0,1-.91035,1.39533A1.87124,1.87124,0,0,1,158.79115,123.55767Z" transform="translate(0)"/><path class="cls-6" d="M158.304,125.10494a1.935,1.935,0,0,1,.39777-0.09486,3.66242,3.66242,0,0,1,1.69138.16863,1.92016,1.92016,0,0,1,.371.17239,1.92024,1.92024,0,0,1-.3978.09546,3.66216,3.66216,0,0,1-1.69125-.16984A1.93472,1.93472,0,0,1,158.304,125.10494Z" transform="translate(0)"/><path class="cls-6" d="M158.48069,129.91864a0.41915,0.41915,0,0,1,.10124-0.07011,0.58924,0.58924,0,0,1,.3322-0.03963,1.39162,1.39162,0,0,1,.42441.13815c0.13763,0.06313.26665,0.13593,0.40363,0.202,0.26715,0.14323.5341,0.29077,0.7365,0.41953a3.43188,3.43188,0,0,1,.33958.23734,1.42724,1.42724,0,0,1-.42349.01843,2.3555,2.3555,0,0,1-.87044-0.26048,2.71286,2.71286,0,0,1-.40276-0.26682c-0.11452-.091-0.21-0.17349-0.29681-0.23549A0.70984,0.70984,0,0,0,158.48069,129.91864Z" transform="translate(0)"/><path class="cls-6" d="M157.31826,134.28607a2.97612,2.97612,0,0,1,.38725.03326c0.22183,0.03146.50037,0.08815,0.77434,0.15536,0.2733,0.07.54558,0.151,0.75589,0.22841a2.80119,2.80119,0,0,1,.35693.15433,1.31774,1.31774,0,0,1-.381.11378,2.16673,2.16673,0,0,1-1.61121-.40538A1.2959,1.2959,0,0,1,157.31826,134.28607Z" transform="translate(0)"/><path class="cls-6" d="M146.93537,138.58009a1.77442,1.77442,0,0,1,.3699-0.12384,3.29832,3.29832,0,0,1,1.61136.04375,1.76241,1.76241,0,0,1,.3625.14462,1.76162,1.76162,0,0,1-.36992.12447,3.29864,3.29864,0,0,1-1.61133-.045A1.77446,1.77446,0,0,1,146.93537,138.58009Z" transform="translate(0)"/><path class="cls-6" d="M143.4802,137.43864a1.76951,1.76951,0,0,1-.337.112,3.41524,3.41524,0,0,1-.7179.08495,3.38042,3.38042,0,0,1-.71941-0.06992,1.73,1.73,0,0,1-.33919-0.10587,1.325,1.325,0,0,1,.31975-0.16261,2.25916,2.25916,0,0,1,1.47075-.01414A1.31816,1.31816,0,0,1,143.4802,137.43864Z" transform="translate(0)"/><path class="cls-6" d="M140.96023,136.46869a1.90394,1.90394,0,0,1-.405-0.01688,3.59263,3.59263,0,0,1-1.56442-.62152,1.89062,1.89062,0,0,1-.30576-0.26643,1.8902,1.8902,0,0,1,.40524.01633,3.59275,3.59275,0,0,1,1.564.62265A1.90445,1.90445,0,0,1,140.96023,136.46869Z" transform="translate(0)"/><path class="cls-6" d="M139.651,132.48334a0.22378,0.22378,0,0,0-.10262.002,2.07539,2.07539,0,0,1-.27567.04173,3.38157,3.38157,0,0,1-1.61078-.26469,1.79721,1.79721,0,0,1-.34418-0.19308,1.79592,1.79592,0,0,1,.38794-0.07251,3.38175,3.38175,0,0,1,1.61058.26588,1.9152,1.9152,0,0,1,.25446.13268A0.18914,0.18914,0,0,1,139.651,132.48334Z" transform="translate(0)"/><path class="cls-6" d="M141.60215,130.26065a0.93189,0.93189,0,0,1-.25314.144,1.45647,1.45647,0,0,1-1.14487-.03851,0.94068,0.94068,0,0,1-.24268-0.16153,1.18338,1.18338,0,0,1,.268-0.10646,1.90533,1.90533,0,0,1,1.11256.03864A1.21331,1.21331,0,0,1,141.60215,130.26065Z" transform="translate(0)"/><path class="cls-6" d="M137.787,127.90961c0.00983-.00205.01469-0.04124-0.05032-0.04242-0.02461-.00375-0.043.01528-0.101,0.02075-0.048.009-.1022,0.01932-0.16058,0.0248a3.57392,3.57392,0,0,1-1.6657-.21009,1.88134,1.88134,0,0,1-.36166-0.18141,1.88173,1.88173,0,0,1,.39545-0.08564,3.574,3.574,0,0,1,1.66554.2113c0.05519,0.01984.10509,0.04329,0.14935,0.064a0.37426,0.37426,0,0,1,.12981.079,0.10339,0.10339,0,0,1,.02856.102A0.03264,0.03264,0,0,1,137.787,127.90961Z" transform="translate(0)"/><path class="cls-6" d="M140.31987,125.08383a1.76324,1.76324,0,0,1-.388.02255,3.27233,3.27233,0,0,1-1.53673-.46441,1.75016,1.75016,0,0,1-.31023-0.23452,1.75091,1.75091,0,0,1,.38821-0.02313,3.27249,3.27249,0,0,1,1.53638.46562A1.76254,1.76254,0,0,1,140.31987,125.08383Z" transform="translate(0)"/><path class="cls-6" d="M138.6044,121.56084a1.56537,1.56537,0,0,1-.43942-0.01414,2.63548,2.63548,0,0,1-1.61012-.9242,1.585,1.585,0,0,1-.23322-0.37293,3.4086,3.4086,0,0,1,.40009.16172c0.22725,0.10538.51038,0.2558,0.78748,0.4135,0.2757,0.16014.548,0.32951,0.75369,0.47248A3.58973,3.58973,0,0,1,138.6044,121.56084Z" transform="translate(0)"/><path class="cls-6" d="M140.76722,121.34183a1.41935,1.41935,0,0,1-.39307.00245,2.42844,2.42844,0,0,1-1.46307-.73546,1.43339,1.43339,0,0,1-.23193-0.31762,2.29951,2.29951,0,0,1,.37686.09077,5.29754,5.29754,0,0,1,.73334.30308,5.367,5.367,0,0,1,.68021.40883A2.38118,2.38118,0,0,1,140.76722,121.34183Z" transform="translate(0)"/><path class="cls-6" d="M140.45379,119.15439a4.21938,4.21938,0,0,1-.56882-0.23944,8.83385,8.83385,0,0,1-2.16191-1.53377,4.18562,4.18562,0,0,1-.41336-0.45844,4.1818,4.1818,0,0,1,.56915.23894,8.83474,8.83474,0,0,1,2.16122,1.53476A4.22,4.22,0,0,1,140.45379,119.15439Z" transform="translate(0)"/><path class="cls-6" d="M142.03744,117.32926a1.82517,1.82517,0,0,1-.28744-0.27241,3.4113,3.4113,0,0,1-.73891-1.46378,1.81057,1.81057,0,0,1-.04762-0.39334,1.81087,1.81087,0,0,1,.288.27214,3.41152,3.41152,0,0,1,.73781,1.46435A1.82448,1.82448,0,0,1,142.03744,117.32926Z" transform="translate(0)"/><path class="cls-6" d="M154.03939,116.23424a0.57162,0.57162,0,0,0,.30548-0.09539,1.7323,1.7323,0,0,0,.43468-0.46976,1.87792,1.87792,0,0,1,.30248-0.3113,1.24345,1.24345,0,0,1,.71664-0.25071,2.71016,2.71016,0,0,1-.22079.29059c-0.14311.16175-.26291,0.33184-0.43037,0.56149L155,116.12392a1.073,1.073,0,0,1-.18184.14783,0.76186,0.76186,0,0,1-.41263.12809,0.47573,0.47573,0,0,1-.29033-0.08588A0.35,0.35,0,0,1,154.03939,116.23424Z" transform="translate(0)"/><path class="cls-6" d="M156.21173,137.856a0.98253,0.98253,0,0,1,.30585.19632,1.6129,1.6129,0,0,1,.50856,1.41689,1.01033,1.01033,0,0,1-.112.346,3.03052,3.03052,0,0,1-.1553-0.31473c-0.0797-.18278-0.16861-0.41394-0.25252-0.64458-0.08145-.23148-0.15913-0.46683-0.214-0.65851A3.41708,3.41708,0,0,1,156.21173,137.856Z" transform="translate(0)"/></g><path class="cls-8" d="M147.72627,141.15453a8.65093,8.65093,0,0,0-2.41753-.16747c0.2767,0.87656.74947,1.68007,1.0426,2.55127a13.2167,13.2167,0,0,1,.5078,2.72221c0.3355,2.92053.67113,5.84251,0.85974,8.77618a4.26819,4.26819,0,0,1-.10838,1.61928,7.64236,7.64236,0,0,1-.90851,1.53229,1.944,1.944,0,0,0-.31755,1.69138q3.34154,0.092,6.68268-.106a10.949,10.949,0,0,0,3.12379-.51376,4.07242,4.07242,0,0,0,2.36095-2.00118,6.12441,6.12441,0,0,0,.40511-1.55762l2.02505-12.05367c0.01083-.08672.02907-0.17317,0.04341-0.2594a21.09384,21.09384,0,0,0,.29417-2.37866c0.01959-.38383-0.00233-0.76653.0247-1.14861q0.043-.60748.06822-1.21609a0.20265,0.20265,0,0,0-.06924-0.19931,0.68084,0.68084,0,0,1-.20346.39792,1.857,1.857,0,0,1-.47792.21068q-0.26415.10954-.52872,0.21815-0.53.21732-1.06277,0.42744c-0.71.27867-1.42577,0.54335-2.15125,0.77914a18.83177,18.83177,0,0,1-4.43936.93243A22.55749,22.55749,0,0,1,147.72627,141.15453Z" transform="translate(0)"/><path class="cls-9" d="M158.957,155.70113a6.1244,6.1244,0,0,1-.40511,1.55762,4.07242,4.07242,0,0,1-2.36095,2.00117,10.949,10.949,0,0,1-3.12379.51376q-3.33694.19791-6.68268,0.106a1.944,1.944,0,0,1,.31755-1.69138,7.64236,7.64236,0,0,0,.90851-1.53229,4.26819,4.26819,0,0,0,.10838-1.61928c-0.07611-1.18381-.17624-2.36594-0.2905-3.54662-0.09535-.98529-0.363-2.03185.72324-2.56007a4.07849,4.07849,0,0,1,1.62872-.294l7.6665-.32085,1.64729-.069a2.10285,2.10285,0,0,1,1.02965.12976C159.95851,150.81874,159.36247,153.285,158.957,155.70113Z" transform="translate(0)"/><path class="cls-1" d="M138.98617,145.64362c0.56889,1.826.90831,3.71136,1.30606,5.57909,0.3989,1.87314.965,3.69112,1.46086,5.53732a8.35259,8.35259,0,0,0,.24712.80975,6.28,6.28,0,0,0,.58411,1.11826,2.553,2.553,0,0,0,1.17809,1.13028,5.397,5.397,0,0,0,1.7254.08838c0.60429,0.00412,1.20859.00909,1.8129,0.00909h1.33388a31.2907,31.2907,0,0,1-.36671-3.22813,13.79719,13.79719,0,0,0-.11932-1.73061c-0.03-.17337-0.06956-0.34512-0.09331-0.51947-0.03516-.258-0.01407-0.51828-0.03789-0.77359-0.02586-.27722-0.04417-0.55524-0.06953-0.83253-0.05185-.56688-0.11234-1.133-0.177-1.69853-0.12671-1.10718-.26984-2.21239-0.39738-3.31947-0.17818-1.54658-.3316-3.09845-0.36507-4.65588-0.03008-1.39925.17226-1.96452-1.4407-2.20979-0.74336-.113-1.50081.15573-2.24-0.01373a1.37193,1.37193,0,0,1-.586-0.27611,3.31318,3.31318,0,0,1-.48187-0.597,12.96013,12.96013,0,0,1-.8185-1.38985,1.38914,1.38914,0,0,1-.17857-0.45822c-0.13658-.003-0.27293.00507-0.40942,0.01083a5.07913,5.07913,0,0,0-2.73853.413C136.26876,139.89777,138.48239,144.02666,138.98617,145.64362Z" transform="translate(0)"/><path class="cls-10" d="M147.89672,114.4891a0.10236,0.10236,0,1,1-.20061.032,8.8534,8.8534,0,0,1-.83328-2.43184,2.28607,2.28607,0,0,0-.21559-0.74135,0.66509,0.66509,0,0,0-.63374-0.36278,0.64237,0.64237,0,0,0-.48451.6079,1.60345,1.60345,0,0,0,.21638.80121,7.23318,7.23318,0,0,0,1.58929,2.11956,0.71007,0.71007,0,0,1-.61935-0.3311l-1.538-1.73036a1.35043,1.35043,0,0,0-.67168-0.493,2.68054,2.68054,0,0,0,.09824,1.629,2.13685,2.13685,0,0,0,.59727.66387,5.393,5.393,0,0,0,1.25983.74361l-2.75581.01064a0.23087,0.23087,0,0,0-.12914.02592,0.15817,0.15817,0,0,0-.01553.22088,0.44147,0.44147,0,0,0,.20978.1264,7.61852,7.61852,0,0,0,3.12088.43672,1.17577,1.17577,0,0,0-.79024.736,2.318,2.318,0,0,0-.08334.78279,2.437,2.437,0,0,0,.21338,1.19466,6.65525,6.65525,0,0,0,.81354-1.16981,2.23421,2.23421,0,0,0,.24866-1.38082,5.15588,5.15588,0,0,1,.49417,1.34841,2.108,2.108,0,0,0,.74568,1.19938,12.7054,12.7054,0,0,0-.23717-2.47419l0.912,0.748a2.10011,2.10011,0,0,0,1.55891.669,4.7605,4.7605,0,0,0-2.64977-2.14414,6.79892,6.79892,0,0,1,3.44136-.48711,0.2,0.2,0,0,0-.03174-0.281h0l-0.015-.01088a0.5775,0.5775,0,0,0-.32405-0.07766,5.60219,5.60219,0,0,0-2.594.31792,6.4282,6.4282,0,0,1,.95908-0.67591,2.2,2.2,0,0,0,.48132-1.67824,1.44761,1.44761,0,0,1-.66475,1.13714,5.35956,5.35956,0,0,0-1.05473.86814,7.38643,7.38643,0,0,1,.93269-2.326,2.56354,2.56354,0,0,0-.031-2.05986A11.261,11.261,0,0,0,147.89672,114.4891Z" transform="translate(0)"/><path class="cls-11" d="M147.87455,114.75766a0.09556,0.09556,0,1,1-.18727.02979,8.26463,8.26463,0,0,1-.77789-2.2702,2.134,2.134,0,0,0-.20125-0.69207,0.62089,0.62089,0,0,0-.59161-0.33867,0.59966,0.59966,0,0,0-.4523.5675,1.497,1.497,0,0,0,.202.748,6.75216,6.75216,0,0,0,1.48366,1.97869,0.66283,0.66283,0,0,1-.5782-0.3091l-1.43575-1.61529a1.26057,1.26057,0,0,0-.627-0.46026,2.50239,2.50239,0,0,0,.09171,1.52077,1.99468,1.99468,0,0,0,.55759.61977,5.03481,5.03481,0,0,0,1.17609.6942l-2.57263.00992a0.21561,0.21561,0,0,0-.12054.02421,0.14764,0.14764,0,0,0-.0145.20619,0.41207,0.41207,0,0,0,.19583.118,7.11219,7.11219,0,0,0,2.91345.40767,1.09757,1.09757,0,0,0-.73772.68706,2.1639,2.1639,0,0,0-.0778.73075,2.27507,2.27507,0,0,0,.1992,1.11525,6.212,6.212,0,0,0,.75948-1.092,2.0858,2.0858,0,0,0,.23212-1.28906,4.81255,4.81255,0,0,1,.46133,1.2588,1.96793,1.96793,0,0,0,.69611,1.11966,11.86048,11.86048,0,0,0-.22139-2.30975l0.85136,0.69829a1.96053,1.96053,0,0,0,1.45531.6245,4.44408,4.44408,0,0,0-2.47365-2.00166,6.34712,6.34712,0,0,1,3.21263-.45473,0.18671,0.18671,0,0,0-.02965-0.26236h0l-0.014-.01015a0.53909,0.53909,0,0,0-.30251-0.0725,5.22965,5.22965,0,0,0-2.42162.29679,6.00056,6.00056,0,0,1,.89532-0.631,2.05374,2.05374,0,0,0,.44934-1.5667,1.35139,1.35139,0,0,1-.62056,1.06157,5.00369,5.00369,0,0,0-.98463.81046,6.89514,6.89514,0,0,1,.8707-2.17141,2.39312,2.39312,0,0,0-.02888-1.92294A10.5122,10.5122,0,0,0,147.87455,114.75766Z" transform="translate(0)"/><path class="cls-12" d="M52.9588,161.91879c-0.27118.568-3.41643-.4583-7.27724-2.43733-3.85991-1.98091-6.77034-4.04526-6.49813-4.61433,0.27164-.56783,3.62239.57719,7.48244,2.55666C50.52709,159.403,53.23138,161.35136,52.9588,161.91879Z" transform="translate(0)"/><path class="cls-13" d="M47.63424,153.41737a11.53869,11.53869,0,0,1-3.65946-2.68571c-3.21546,1.5135-2.25668,3.66855-1.29507,4.17088a15.89443,15.89443,0,0,1,3.4315,2.01921c2.359,1.66766,7.35481,3.58459,7.94467,2.667s-2.25073-4.20236-3.10774-4.97258A19.18212,19.18212,0,0,1,47.63424,153.41737Z" transform="translate(0)"/><path class="cls-14" d="M49.31747,152.62392l4.70225-15.18416L48.613,135.76537,44.87622,147.832l-0.00048-.00015-0.00207.00833-0.35848,1.15768c-0.51474,1.20045-1.31978,2.13506-1.33172,2.772-0.0156.83046,2.24654,2.35075,3.1074,2.91331,1.70591,1.11481,5.1192.52924,4.65731-.06686C50.70866,154.30708,49.972,153.41357,49.31747,152.62392Z" transform="translate(0)"/><path class="cls-13" d="M39.31613,156.25484a11.53859,11.53859,0,0,1-4.35287-1.28732c-2.51268,2.51323-.88057,4.21609.19434,4.363a15.89377,15.89377,0,0,1,3.91261.73744c2.7844,0.77,8.13424.88129,8.37841-.18181s-3.54118-3.1915-4.60843-3.62588A19.1824,19.1824,0,0,1,39.31613,156.25484Z" transform="translate(0)"/><path class="cls-14" d="M42.84028,156.26019c-0.34781-.221-1.435-0.86563-2.3506-1.40549V135.83942H34.82952v16.09451H34.82866l0.00085,0.00829v1.77626a8.01036,8.01036,0,0,0-.25915,2.49381c0.26663,0.78668,2.91007,1.45079,3.91058,1.68851C40.46366,158.3718,43.47674,156.66463,42.84028,156.26019Z" transform="translate(0)"/><path class="cls-15" d="M142.3388,147.8764h-0.0013V23.558a10.47593,10.47593,0,0,0-10.47426-10.47426H80.15409A10.47589,10.47589,0,0,0,69.67974,23.558V149.6179A10.47229,10.47229,0,0,0,80.15,160.09216h51.7132a10.47612,10.47612,0,0,0,10.47557-10.47383V147.8764h0Z" transform="translate(0)"/><circle class="cls-16" cx="95.72811" cy="20.09132" r="0.99777"/><rect class="cls-16" x="99.21361" y="18.8538" width="19.10855" height="2.47495" rx="0.85761" ry="0.85761"/><circle class="cls-16" cx="106.0086" cy="152.11072" r="3.98679"/><rect class="cls-17" x="73.55818" y="26.19589" width="64.90088" height="118.97675"/><circle class="cls-18" cx="80.22773" cy="32.51318" r="1.71201"/><circle class="cls-19" cx="85.92281" cy="32.51318" r="1.71203"/><circle class="cls-20" cx="91.61785" cy="32.51318" r="1.71201"/><path class="cls-21" d="M79.75881,41.74254h51.74975a1.69488,1.69488,0,0,1,1.69489,1.69487h0V77.19a1.69488,1.69488,0,0,1-1.69489,1.69488H79.75872A1.69471,1.69471,0,0,1,78.064,77.1902V43.43734a1.6948,1.6948,0,0,1,1.6948-1.6948h0Z" transform="translate(0)"/><polygon class="cls-22" points="98.233 55.503 111.456 55.503 112.558 69.428 97.131 69.428 98.233 55.503"/><path class="cls-22" d="M101.589,59.41267V52.073a3.406,3.406,0,0,1,3.406-3.406h0a3.406,3.406,0,0,1,3.406,3.406v7.33965" transform="translate(0)"/><path class="cls-23" d="M80.25077,85.94746h50.62914a1.69331,1.69331,0,0,1,1.69331,1.69331v47.54689a1.69331,1.69331,0,0,1-1.69331,1.69331H80.25068a1.69323,1.69323,0,0,1-1.69323-1.69324h0v-47.547A1.69332,1.69332,0,0,1,80.25077,85.94746Z" transform="translate(0)"/><polygon class="cls-21" points="88.228 93.217 89.165 95.117 91.262 95.422 89.745 96.901 90.103 98.99 88.228 98.003 86.352 98.99 86.71 96.901 85.193 95.422 87.29 95.117 88.228 93.217"/><polygon class="cls-21" points="96.652 93.217 97.59 95.117 99.687 95.422 98.17 96.901 98.528 98.99 96.652 98.003 94.777 98.99 95.135 96.901 93.617 95.422 95.715 95.117 96.652 93.217"/><polygon class="cls-21" points="105.077 93.217 106.015 95.117 108.112 95.422 106.594 96.901 106.953 98.99 105.077 98.003 103.201 98.99 103.559 96.901 102.042 95.422 104.139 95.117 105.077 93.217"/><polygon class="cls-16" points="113.501 93.217 114.439 95.117 116.536 95.422 115.019 96.901 115.377 98.99 113.501 98.003 111.626 98.99 111.984 96.901 110.467 95.422 112.564 95.117 113.501 93.217"/><polygon class="cls-16" points="121.926 93.217 122.864 95.117 124.961 95.422 123.444 96.901 123.802 98.99 121.926 98.003 120.051 98.99 120.409 96.901 118.891 95.422 120.988 95.117 121.926 93.217"/><path class="cls-24" d="M121.25258,129.00127H88.90132a4.74883,4.74883,0,0,1-4.74883-4.74883h0a4.74884,4.74884,0,0,1,4.74878-4.74892h32.35132a4.74876,4.74876,0,0,1,4.74873,4.74879v0.00013h0a4.74874,4.74874,0,0,1-4.74865,4.74883h-0.00008Z" transform="translate(0)"/><line class="cls-24" x1="84.15249" y1="106.2145" x2="126.0013" y2="106.2145"/><line class="cls-24" x1="84.15249" y1="112.85903" x2="105.56534" y2="112.85903"/><rect class="cls-18" x="5.33418" y="24.40537" width="15.50779" height="15.63133"/><polygon class="cls-18" points="20.842 37.515 20.842 42.965 16.206 37.515 20.842 37.515"/><path class="cls-16" d="M16.42666,30.08727a2.00229,2.00229,0,0,0-2.83152.02773l-0.00212.00217-0.51048.52117L12.55726,30.121a2.00375,2.00375,0,1,0-2.81335,2.854l0.00161,0.00159,1.94925,1.91978,0.011,0.013A2.00352,2.00352,0,0,0,14.539,34.8799l0.0003-.00031,1.91752-1.95821A2.00433,2.00433,0,0,0,16.42666,30.08727Z" transform="translate(0)"/><circle class="cls-25" cx="169.17886" cy="89.60542" r="12.09906"/><path class="cls-26" d="M167.14,93.87714c2.0947,0.0359,4.21539.06424,6.1416-.06894,0.61-.04225,1.13686-1.01114.39626-1.31689a1.37016,1.37016,0,0,0,.76364-0.66348,0.65446,0.65446,0,0,0-.35-0.85681l-0.02069-.00828c0.72652,0.17987,1.013-.97315.44624-1.34523a1.69692,1.69692,0,0,0,.61279-0.9821,0.98432,0.98432,0,0,0-.44206-1.01627,1.58779,1.58779,0,0,0-.75513-0.13032q-1.30676-.00965-2.61336-0.01947a6.03048,6.03048,0,0,0-.38589-4.04612,0.98063,0.98063,0,0,0-1.21431-.51552,1.39657,1.39657,0,0,0-.28046,1.31472,4.60381,4.60381,0,0,1-2.37582,4.20035S167.16175,92.03465,167.14,93.87714Z" transform="translate(0)"/><rect class="cls-26" x="163.2144" y="88.42276" width="3.166" height="5.44951"/><ellipse class="cls-23" cx="3.11472" cy="72.51428" rx="2.89811" ry="2.88207"/><ellipse class="cls-23" cx="173.43829" cy="121.43804" rx="2.11143" ry="2.0997"/><rect class="cls-23" x="171.08328" y="31.30914" width="4.38316" height="4.359"/><path class="cls-23" d="M147.99409,0.21661H159.6938a1.09249,1.09249,0,0,1,1.08476,1.1V7.89654a1.0925,1.0925,0,0,1-1.08476,1.10007H154.9262l-4.00839,4.47132V9.15917l-2.94534-.05972a1.09287,1.09287,0,0,1-1.06313-1.09981v-6.683A1.09249,1.09249,0,0,1,147.99409.21661Z" transform="translate(0)"/><path class="cls-21" d="M153.33572,45.53725H195.2918a1.28343,1.28343,0,0,1,1.28343,1.28343h0V57.23295a1.28342,1.28342,0,0,1-1.28342,1.28342H153.33563A1.28333,1.28333,0,0,1,152.0523,57.233V46.82067A1.28342,1.28342,0,0,1,153.33572,45.53725Z" transform="translate(0)"/><line class="cls-24" x1="156.97708" y1="50.47037" x2="181.56314" y2="50.47037"/><line class="cls-24" x1="156.97708" y1="53.58325" x2="163.39105" y2="53.58325"/><polygon class="cls-21" points="156.977 57.048 156.977 63.031 163.339 57.048 156.977 57.048"/><path class="cls-27" d="M52.80646,52.398c-2.063-2.57571-4.40247-5.15115-4.40247-5.15115l-4.61841-4.35616h0L42.0514,40.74157,33.7439,46.095a17.28139,17.28139,0,0,1-2.9078,9.054c-2.96213,4.29458.32861,11.41029,3.83887,12.26686l5.63868-6.1869,10.03768,3.455C52.141,62.85581,56.61621,57.15506,52.80646,52.398Z" transform="translate(0)"/><path class="cls-28" d="M62.03851,69.50172a4.04144,4.04144,0,0,1-.90333-0.07129L43.531,67.48675c-2.534-.37712-6.2401-4.09411-5.16227-6.41814a3.83611,3.83611,0,0,1,4.51478-2.08009L61.09623,62.873Z" transform="translate(0)"/><path class="cls-28" d="M60.30834,63.23354L76.1251,52.44692l2.20389,2.799L65.29166,68.15919c-2.27178,1.98533-6.57028,1.86823-7.52291-.99445h0C57.10866,65.18132,58.44445,64.18018,60.30834,63.23354Z" transform="translate(0)"/><circle class="cls-28" cx="79.47662" cy="52.25476" r="3.58184" transform="translate(-14.04876 34.93148) rotate(-22.83065)"/><path class="cls-28" d="M78.262,48.88529l3.117-2.30647a0.61686,0.61686,0,0,1,.8497.05225h0a0.53142,0.53142,0,0,1-.00774.722l-2.88146,3.034Z" transform="translate(0)"/><path class="cls-29" d="M49.1146,58.84585A24.21423,24.21423,0,0,1,57.151,61.66906l-3.33152,7.47371-3.624-.92021Z" transform="translate(0)"/><polygon class="cls-30" points="52.269 68.749 51.813 63.463 55.069 66.34 53.82 69.143 52.269 68.749"/><path class="cls-31" d="M16.9273,115.7849L17.3525,102.243a1.77689,1.77689,0,0,1,1.64016-1.37747h0a1.777,1.777,0,0,1,1.86645,1.6828q0.00347,0.0672.00186,0.13449l1.36314,13.2188" transform="translate(0)"/><polygon class="cls-18" points="11.012 115.023 25.242 114.286 22.823 139.003 5.496 137.873 11.012 115.023"/><polygon class="cls-32" points="22.823 139.003 25.712 137.213 28.536 137.619 26.956 114.521 25.242 114.286 22.823 139.003"/><circle class="cls-31" cx="14.15399" cy="116.88177" r="0.56135" transform="translate(-6.02683 0.88859) rotate(-2.96498)"/><circle class="cls-31" cx="20.56328" cy="116.84578" r="0.56139" transform="translate(-6.01594 1.21996) rotate(-2.96476)"/><path class="cls-31" d="M14.125,116.32113l3.22754-14.07806a1.77686,1.77686,0,0,1,1.64017-1.37749h0a1.777,1.777,0,0,1,1.86645,1.6828q0.00347,0.06719.00186,0.13449l-0.3267,13.60236" transform="translate(0)"/><path class="cls-28" d="M21.67316,78.98458a4.04257,4.04257,0,0,1,.44259-0.79067l9.12938-15.177c1.40252-2.1439,6.329-3.95536,7.98906-2.0042a3.83609,3.83609,0,0,1,.00087,4.97085l-11.1468,14.918Z" transform="translate(0)"/><path class="cls-28" d="M28.07253,81.30331l-7.27289,18.409-2.99847-.59177L21.11644,80.4611c0.5802-2.96065,4.05012-5.50054,6.55628-3.82088h0C29.40933,77.804,28.96631,79.41352,28.07253,81.30331Z" transform="translate(0)"/><path class="cls-29" d="M35.53566,59.31035a16.392,16.392,0,0,0-8.01688,7.21021l7.62054,6.11674s7.36208-6.48152,4.6378-12.21766Z" transform="translate(0)"/><circle class="cls-28" cx="19.45186" cy="99.97639" r="3.66107" transform="translate(-59.46603 35.58989) rotate(-39.77996)"/><path class="cls-33" d="M63.48236,112.35263L53.99518,89.02689l-2.9635-7.55109-0.10822-.00116-0.00159-.00391-0.275.001-15.488-.16583-0.01953.16992s-2.9762,1.85663-2.9762,11.0368c0,10.23914,1.24133,29.57739-2.23468,51.53864,4.82159,0,9.30072.11676,13.69147,0.11676,0,0,.1051-0.55542.27478-1.532,4.706,1.04291,7.47626,1.56561,12.79083,2.596l6.98608-28.99536A6.31053,6.31053,0,0,0,63.48236,112.35263Zm-18.31378,21.9751c0.98395-7.33777,1.93463-17.26013,1.13574-24.26184-0.40015-3.5072-.56989-6.54877-0.6142-9.13348L50.217,114.31216Z" transform="translate(0)"/><path class="cls-29" d="M36.04255,59.19846l7.57733-1.18684,5.49472,0.83423a4.50785,4.50785,0,0,1,3.69621,4.94564l-1.77915,17.6843H35.13929L32.28357,65.96922a7.28319,7.28319,0,0,1,.509-4.2812h0A4.28292,4.28292,0,0,1,36.04255,59.19846Z" transform="translate(0)"/><polygon class="cls-30" points="33.679 73.544 36.548 69.549 35.139 81.476 33.679 73.544"/><path class="cls-29" d="M50.52381,62.22666s3.61137,2.8652,3.47453,5.95087-4.375,5.09543-4.375,5.09543Z" transform="translate(0)"/><path class="cls-28" d="M40.16709,58.55245l-2.13616.29341s1.06261,2.51746,5.67885,2.51816c3.86382,0.00061,3.47227-2.81156,3.47227-2.81156l-3.56216-.54082Z" transform="translate(0)"/><path class="cls-33" d="M45.63972,100.78326L45.49184,93.768a24.16369,24.16369,0,0,1,3.54964,17.06958Z" transform="translate(0)"/><path class="cls-27" d="M50.76888,44.493a8.72836,8.72836,0,0,1-8.11068,8.98368,8.55836,8.55836,0,0,1-.87309-17.09444h0C46.5056,36.14115,50.78018,39.1657,50.76888,44.493Z" transform="translate(0)"/><path class="cls-28" d="M40.16709,58.18767l0.02825-7.32687,5.25348,0.02373L45.42048,58.2114a2.62674,2.62674,0,0,1-2.6385,2.61491h0A2.62685,2.62685,0,0,1,40.16709,58.18767Z" transform="translate(0)"/><path class="cls-27" d="M39.37989,49.95919s1.19466,6.27749,6.04867,6.17679l0.02026-3.24154Z" transform="translate(0)"/><path class="cls-34" d="M44.48454,54.541h0c3.28474-.16778,5.871-2.286,5.70327-5.57079l-0.28845-5.6483c-0.1238-2.42383-2.90066-4.84253-4.33049-4.76951L40.37581,40.298A2.61072,2.61072,0,0,0,37.909,43.03057l0.28732,5.62625A6.57269,6.57269,0,0,0,44.48454,54.541Z" transform="translate(0)"/><circle class="cls-35" cx="43.99596" cy="46.69073" r="0.47346" transform="translate(-3.58967 89.7172) rotate(-88.82163)"/><circle class="cls-35" cx="48.32341" cy="46.43395" r="0.47342" transform="translate(0.90527 93.79199) rotate(-88.82134)"/><path class="cls-28" d="M46.581,47.59022l0.60124,0.9941s-0.04355.71913-1.07565,0.49631" transform="translate(0)"/><path class="cls-35" d="M42.65255,45.37451a0.4449,0.4449,0,0,0,.08815.00078l2.1346-.20012a0.43358,0.43358,0,1,0-.08107-0.86337H44.7941l-2.1346.20021A0.43349,0.43349,0,0,0,42.65255,45.37451Z" transform="translate(0)"/><path class="cls-35" d="M47.80336,44.99478a0.44137,0.44137,0,0,0,.0878.0007l1.305-.12223A0.43351,0.43351,0,0,0,49.11573,44.01h0l-1.30506.12223A0.43353,0.43353,0,0,0,47.80336,44.99478Z" transform="translate(0)"/><path class="cls-36" d="M44.21747,50.29076l3.77819-.50127S47.481,51.38431,46.1975,51.4662A1.76231,1.76231,0,0,1,44.21747,50.29076Z" transform="translate(0)"/><path class="cls-27" d="M47.48866,39.69583a26.59048,26.59048,0,0,1-11.2399,7.29923s-1.34054-4.725,2.33525-7.68844a6.303,6.303,0,0,1,6.96865-1.07034Z" transform="translate(0)"/><path class="cls-27" d="M46.23166,39.38356a15.828,15.828,0,0,0,3.814,3.68142S49.24638,38.96956,45.6538,38.418Z" transform="translate(0)"/><path class="cls-27" d="M40.22507,44.14029s0.89082,4.10724-1.14154,4.59747l-0.74312-3.89494Z" transform="translate(0)"/><circle class="cls-34" cx="37.66201" cy="47.81775" r="2.14134" transform="translate(-2.38931 1.98265) rotate(-2.92287)"/><path class="cls-37" d="M47.17866,162.41113c-0.02412.62917-3.33975,1.02438-7.6965,0.85748-4.35675-.16827-7.86876-0.81381-7.84513-1.44376,0.02463-.62924,3.57594-1.00478,7.93295-0.83649C43.927,161.15527,47.20325,161.78191,47.17866,162.41113Z" transform="translate(0)"/></svg>