<svg id="Layer_1" data-name="Layer 1" xmlns="http://www.w3.org/2000/svg" xmlns:xlink="http://www.w3.org/1999/xlink" viewBox="0 0 167.60979 208.3133"><defs><style>.cls-1{fill:url(#linear-gradient);}.cls-2{fill:#363a93;}.cls-3{fill:#f9bfaf;}.cls-4{fill:url(#linear-gradient-2);}.cls-5{fill:#339947;}.cls-6{fill:url(#linear-gradient-3);}.cls-7{fill:#f5bd68;}.cls-8{fill:#98b35e;}.cls-9{fill:#333;}.cls-11,.cls-9{opacity:0.35;}.cls-11,.cls-20,.cls-21,.cls-27,.cls-9{isolation:isolate;}.cls-10{fill:#f3f3f4;}.cls-11,.cls-12{fill:#617bbb;}.cls-13{fill:#fff;}.cls-14{opacity:0.85;}.cls-15{fill:#f9d0b4;}.cls-16,.cls-21{fill:none;stroke-miterlimit:10;}.cls-16{stroke:#a39c9f;stroke-width:0.55879px;}.cls-17{fill:#363b92;}.cls-18{fill:#2c368b;}.cls-19{fill:#6dbf71;}.cls-20{fill:#93cd96;opacity:0.95;}.cls-21{stroke:#eb654b;stroke-width:0.72241px;}.cls-21,.cls-22{opacity:0.25;}.cls-23,.cls-27{fill:#eb654b;}.cls-24{fill:#4650a1;}.cls-25{fill:#3b4599;}.cls-26{fill:#f3837e;}.cls-27{opacity:0.5;}.cls-28{fill:#ced1e2;}.cls-29{fill:#e9e9e9;}.cls-30{fill:#81441d;}.cls-31{fill:#fcdfbb;}.cls-32{fill:#303030;}.cls-33{fill:#efc4a3;}.cls-34{fill:#fffff3;}.cls-35{fill:#29235c;}</style><linearGradient id="linear-gradient" x1="-2451.91996" y1="1486.71226" x2="-2389.43256" y2="1486.71226" gradientTransform="matrix(-0.2789, -0.01663, -0.02192, 0.36631, -591.51242, -386.74139)" gradientUnits="userSpaceOnUse"><stop offset="0.22222" stop-color="#fff"/><stop offset="0.40378" stop-color="#ebedf7"/><stop offset="0.76897" stop-color="#bcc3e2"/><stop offset="0.91534" stop-color="#a7b0d9"/></linearGradient><linearGradient id="linear-gradient-2" x1="1991.75764" y1="671.58227" x2="2054.24515" y2="671.58227" gradientTransform="matrix(0.24954, 0.13707, -0.17661, 0.32168, -363.10764, -319.29282)" xlink:href="#linear-gradient"/><linearGradient id="linear-gradient-3" x1="-3008.3178" y1="1722.59158" x2="-2818.52515" y2="1722.59158" gradientTransform="matrix(-0.20199, 0.00956, 0.01725, 0.36657, -454.48458, -399.80838)" xlink:href="#linear-gradient"/></defs><title>wcbg-2</title><path class="cls-1" d="M42.32053,197.58733c-0.0487.80232,3.6068,1.689,8.49245,1.98216,4.88579,0.29051,8.88607-.12142,8.93431-0.92557,0.0481-.8024-3.8748-1.68982-8.75994-1.98205C46.10118,196.36857,42.36749,196.78477,42.32053,197.58733Z" transform="translate(-15.27164)"/><path class="cls-2" d="M49.5288,190.83387c-1.23032.14416-5.76267,1.26437-5.81436,2.43592s5.5234,2.58976,8.62911,2.59011a17.08756,17.08756,0,0,1,4.26543.35748c1.15584,0.15593,3.3351-1.14063,1.45206-4.465a12.40475,12.40475,0,0,1-4.87922.08609A20.62252,20.62252,0,0,1,49.5288,190.83387Z" transform="translate(-15.27164)"/><path class="cls-3" d="M59.31709,187.2047l3.07846-10.68106-5.326-1.535L52.7588,189.94538l-0.00095.00095c-1.16231.312-2.75382,0.74249-3.22907,0.88747-0.77533.23653,1.8573,2.86915,4.04666,2.94939,1.10482,0.04053,4.03415.11015,4.53594-.62851a2.38331,2.38331,0,0,0,.27244-1.0119,7.65949,7.65949,0,0,0,.1142-1.15851c0.01522-.14885.04313-0.34081,0.078-0.55267A28.24272,28.24272,0,0,1,59.31709,187.2047Z" transform="translate(-15.27164)"/><path class="cls-4" d="M30.90481,178.29806c-0.38674.70457-4.01456-.52653-8.38671-2.926-4.37135-2.40108-7.60175-4.91751-7.21506-5.62322,0.38731-.70441,4.24552.66866,8.61713,3.06985C28.29255,175.21828,31.292,177.59364,30.90481,178.29806Z" transform="translate(-15.27164)"/><path class="cls-2" d="M27.05339,167.24329c-1.07606-.61359-5.38966-2.39962-6.126-1.487s2.91124,5.36091,5.41163,7.20309a17.0912,17.0912,0,0,1,3.22235,2.81745c0.83818,0.81105,3.36176,1.05956,3.81712-2.73378a12.406,12.406,0,0,1-3.97955-2.82443A20.63027,20.63027,0,0,1,27.05339,167.24329Z" transform="translate(-15.27164)"/><path class="cls-3" d="M47.35144,159.84017l-3.74216-4.08905L29.87212,168.3228l-0.00985-.003c-1.07614-.42-2.38335-0.92659-2.80889-1.07654-0.76465-.26943-0.20614,3.41158,1.50894,4.77466,0.8656,0.68787,3.18287,2.48121,4.025,2.184a3.21278,3.21278,0,0,0,1.08089-1.536,7.84074,7.84074,0,0,0,.767-1.00526l1.28322-1.17438,0.00655-.00484-0.00062-.00065Z" transform="translate(-15.27164)"/><path class="cls-5" d="M106.91733,135.01456A85.42948,85.42948,0,0,0,93.15,132.34143l-22.1417-1.04073a8.93007,8.93007,0,0,0-7.09479,4.51683q-4.91678,14.92168-8.71534,30.16779l-3.85875,14.75583,12.58239,4.14792,9.98835-33.37831,0.68242,0.17455,41.4663,7.22086,3.74292-20.519Z" transform="translate(-15.27164)"/><path class="cls-5" d="M79.85885,126.30353a32.93937,32.93937,0,0,0-4.66548-.69284l-0.08328-.0059a11.72157,11.72157,0,0,0-7.89049,2.38014A113.49356,113.49356,0,0,0,56.119,138.04332L33.26993,159.64608,40.798,171.40456l15.07745-12.16593,19.37871-13.00045c2.01246-1.01573,4.64779-1.00525,7.75694.48291l20.23395,7.91012c2.18659,1.46153,8.317,2.51916,14.38171,3.58353a5.17619,5.17619,0,0,0,4.17809-1.08716,38.49525,38.49525,0,0,0,9.68122-12.79779C116.85586,135.97,99.05769,130.49826,79.85885,126.30353Z" transform="translate(-15.27164)"/><path class="cls-6" d="M144.54163,204.64658c0.11334,2.43878,8.33733,4.079,19.08487,3.57582,10.74718-.51135,19.36858-2.894,19.2538-5.3381-0.11459-2.43883-8.92274-4.00563-19.66893-3.49954C152.46268,199.8879,144.42448,202.20766,144.54163,204.64658Z" transform="translate(-15.27164)"/><polygon class="cls-7" points="14.955 26.928 14.955 4.392 17.716 4.392 22.108 0 22.108 4.549 44.758 4.549 44.758 26.845 14.955 26.928"/><polygon class="cls-8" points="94.751 18.164 94.751 47.566 91.148 47.566 85.418 53.296 85.418 47.362 55.867 47.362 55.867 18.273 94.751 18.164"/><path class="cls-9" d="M82.18816,27.358l6.90178-1.0096s3.37027,2.86289,4.33731,2.88735c1.42785,0.01519,2.3265-1.253,2.72354-3.73775l8.2929,1.31785-0.006,5.4976-5.23157-.45485,2.26953,11.58071-12.9051.334L87.35425,32.21828Z" transform="translate(-15.27164)"/><path class="cls-10" d="M80.46521,25.7748l7.92348-1.159c1.20146,1.70034,2.34861,3.01234,3.31566,3.03681,1.42785,0.01519,2.3265-1.253,2.72354-3.73775l8.2929,1.31785-0.006,5.4976-5.23157-.45485,2.26953,11.58071-12.9051.334L85.63135,30.63505l-4.72463.89166Z" transform="translate(-15.27164)"/><polygon class="cls-11" points="39.671 43 43.408 73.495 49.351 79.437 49.351 73.283 79.999 73.283 79.999 43.112 39.671 43"/><polygon class="cls-12" points="36.255 39.8 36.255 70.295 39.992 70.295 45.935 76.238 45.935 70.083 76.584 70.083 76.584 39.913 36.255 39.8"/><path class="cls-13" d="M65.99652,49.75919l-1.02529-3.43924-5.06571.11,0.06385,1.0829,4.22917,0.1146L67.4678,58.48779,78.935,58.25038l2.80323-8.49127H65.9966Zm12.30437,7.632H68.0898L66.07867,50.9666,80.363,50.57819Z" transform="translate(-15.27164)"/><path class="cls-13" d="M69.93265,59.62946a2.28266,2.28266,0,1,0,2.28264,2.28268h0A2.28267,2.28267,0,0,0,69.93265,59.62946Zm0,3.47836a1.1957,1.1957,0,1,1,1.19568-1.19573h0a1.19569,1.19569,0,0,1-1.19567,1.19571h0v0Z" transform="translate(-15.27164)"/><path class="cls-13" d="M76.39766,59.608a2.28266,2.28266,0,1,0,2.28264,2.28268h0A2.28267,2.28267,0,0,0,76.39766,59.608Zm0,3.47836a1.1957,1.1957,0,1,1,1.19568-1.19573h0A1.19571,1.19571,0,0,1,76.39766,63.0864Z" transform="translate(-15.27164)"/><g class="cls-14"><path class="cls-15" d="M71.43417,120.35285a27.87783,27.87783,0,0,1,6.13333-4.78752,1.54815,1.54815,0,0,1,1.25986-.1284,43.19411,43.19411,0,0,1,8.48713,4.22011,3.40906,3.40906,0,0,0,1.56871.50658c8.1901,0.4981,15.14358-1.06733,20.97242-4.51355a9.52635,9.52635,0,0,0,2.93215-2.754l6.36351-9.08513,4.42612,8.77284-16.77686,14.068a6.16684,6.16684,0,0,1-2.89206,1.36156,7.77375,7.77375,0,0,1-1.798.11211,5.31731,5.31731,0,0,1-.8003-0.12077l-15.11-3.23982a3.44029,3.44029,0,0,1-1.164-.48572,33.92007,33.92007,0,0,1-5.49968-4.94476,1.57681,1.57681,0,0,0-1.99383-.24265,22.06981,22.06981,0,0,1-3.35584,1.79651,2.18975,2.18975,0,0,1-1.82268-.069Z" transform="translate(-15.27164)"/></g><path class="cls-2" d="M133.30006,141.68725c13.77377-20.5188,18.6281-41.37344,7.27518-62.83829L126.88979,84.421a292.74774,292.74774,0,0,1-20.69258,41.84471,2.334,2.334,0,0,0,1.01475,3.336Z" transform="translate(-15.27164)"/><path class="cls-16" d="M141.28574,50.87751" transform="translate(-15.27164)"/><polygon class="cls-15" points="111.618 84.421 113.282 78.916 123.297 74.573 125.303 78.849 111.618 84.421"/><path class="cls-15" d="M127.33289,113.4945c-4.25984,7.6421-9.91145,14.24513-14.78381,16.53661a5.61213,5.61213,0,0,1-6.3804-1.17439,89.96764,89.96764,0,0,1-12.13988-16.27995,1.92552,1.92552,0,0,0-1.40376-.91637c-1.452-.17926-2.90515-0.25159-3.85894-0.44171a1.68759,1.68759,0,0,1-1.14466-.8295c-1.64949-2.96131-2.20176-5.88272-1.23746-7.80923a1.97274,1.97274,0,0,1,2.05844-1.0841,4.71137,4.71137,0,0,1,2.02173.9712c0.49859-1.98809,1.13887-3.7842,2.34549-4.81266a2.36174,2.36174,0,0,1,1.54379-.606q0.07947,0.00125.15659,0.00818a0.58867,0.58867,0,0,1,.47.85923,15.15168,15.15168,0,0,0-1.31232,2.87072,2.43717,2.43717,0,0,0,.24,1.81835c3.89528,6.97659,9.32464,10.37559,15.01358,14.68727a0.85233,0.85233,0,0,0,1.19464-.16046l0.02631-.03643,9.009-13.28443,11.17493,4.65394Z" transform="translate(-15.27164)"/><path class="cls-17" d="M114.90741,109.243a21.58971,21.58971,0,0,0,13.47268,4.76285c4.64647-8.97478,8.51021-17.84152,8.225-26.13581a6.43012,6.43012,0,0,0-.61981-2.65908,3.97062,3.97062,0,0,0-4.30222-2.39071,6.47588,6.47588,0,0,0-3.33139,1.44018,18.29257,18.29257,0,0,0-4.59532,5.868A145.18481,145.18481,0,0,0,114.90741,109.243Z" transform="translate(-15.27164)"/><path class="cls-18" d="M181.24979,172.81866a0.68281,0.68281,0,0,1,.28458.18036,0.70265,0.70265,0,0,1,.09038.48882l-0.17033,2.78282a0.48391,0.48391,0,0,1-.07747.28226,0.47821,0.47821,0,0,1-.22624.12888,25.05957,25.05957,0,0,1-3.37706.90215,5.5184,5.5184,0,0,1-3.06461-.05618,1.16022,1.16022,0,0,1-.842-0.95193,1.77256,1.77256,0,0,1,.34857-0.83517,1.49553,1.49553,0,0,0,.2198-0.83765q-0.00311-.763-0.03111-1.5255a4.02511,4.02511,0,0,0-.36868-1.82285A15.74536,15.74536,0,0,1,181.24979,172.81866Z" transform="translate(-15.27164)"/><path class="cls-19" d="M164.02911,136.24525c-1.69305,0-3.24916.695-4.9,0.58517a10.69575,10.69575,0,0,0-1.82486.00784,12.64023,12.64023,0,0,0-6.78175,3.33386,16.11615,16.11615,0,0,0-4.64485,5.91154,19.19351,19.19351,0,0,0-1.15771,5.24384q-0.11069,1.18343-.11224,2.374c0,4.71957,1.819,9.15317,3.62483,13.4312l3.62982,8.59926a2.69605,2.69605,0,0,0,3.116,1.884,94.83568,94.83568,0,0,0,18.19914-.76527,1.20447,1.20447,0,0,0,.60062-0.19746,1.14751,1.14751,0,0,0,.32536-0.58229c0.69936-2.25558.75458-4.61359,1.28662-6.89989,0.52193-2.243,1.74786-4.22891,2.48116-6.40176,2.51651-7.45708.34929-15.954-4.61549-21.90645A12.0576,12.0576,0,0,0,164.02911,136.24525Z" transform="translate(-15.27164)"/><path class="cls-20" d="M154.6029,140.74265c-1.1048,1.00732-2.59293,1.6144-3.43489,2.84981a5.63841,5.63841,0,0,0-.71564,1.64571,15.66281,15.66281,0,0,0,.58812,9.37482,44.32629,44.32629,0,0,0,4.37521,8.45958,38.46129,38.46129,0,0,0,3.67278,5.26164c0.81889,0.93552,1.72441,1.79279,2.53305,2.73717a17.89288,17.89288,0,0,1,3.92632,8.04953q3.31595,0.08473,6.63329-.00879a1.09961,1.09961,0,0,0,1.28751-1.10669q0.86208-3.90326,1.36259-7.87477a12.74617,12.74617,0,0,1,.60472-2.99042,24.97039,24.97039,0,0,1,1.7374-3.085c1.97733-3.55147,1.90253-7.84309,1.77527-11.90588a8.23556,8.23556,0,0,0-1.92233-5.9041l-2.69363-3.84663a18.38581,18.38581,0,0,0-2.77136-3.35716,13.27707,13.27707,0,0,0-8.55031-2.84569,9.96063,9.96063,0,0,0-5.126.97144C156.50416,137.99538,155.77422,139.6747,154.6029,140.74265Z" transform="translate(-15.27164)"/><path class="cls-21" d="M152.299,146.46108a14.97522,14.97522,0,0,0-.44234,3.73949c-0.05164,6.78018,2.7124,13.21655,5.18491,19.53a25.127,25.127,0,0,1,1.28265,3.9268,26.41155,26.41155,0,0,1,.37755,5.52773,50.83939,50.83939,0,0,1,7.40077-.13344l0.46654-5.16566c0.66348-7.34624,1.327-14.74532.59589-22.08511a23.32579,23.32579,0,0,0-2.17484-8.48994,11.2118,11.2118,0,0,0-5.12029-5.11334,1.62568,1.62568,0,0,0-1.57506-.2281,8.23109,8.23109,0,0,0-1.43951,1.36569,22.60291,22.60291,0,0,0-2.61285,3.06458A13.06848,13.06848,0,0,0,152.299,146.46108Z" transform="translate(-15.27164)"/><g class="cls-22"><path class="cls-23" d="M165.46062,136.57775a15.53235,15.53235,0,0,1,1.47231,1.26c0.89839,0.84978,2.0905,2.1461,3.54863,3.66873a19.9772,19.9772,0,0,1,2.185,2.65457,13.91521,13.91521,0,0,1,1.68427,3.48616,15.24118,15.24118,0,0,1,.72615,4.07716,21.22018,21.22018,0,0,1-.33083,4.24577c-0.24139,1.38414-.47816,2.78615-0.80138,4.13383l-0.88412,3.96927c-0.294,1.31-.63576,2.52129-0.938,3.69728-0.30455,1.1711-.60838,2.27045-0.8119,3.29535a15.10656,15.10656,0,0,0-.32089,2.82394,18.629,18.629,0,0,0,.12518,2.20332l0.2377,1.91916s-0.16257-.68465-0.37692-1.89989a18.82447,18.82447,0,0,1-.25485-2.2175,13.11239,13.11239,0,0,1,.1898-2.9017c0.17079-1.05252.43753-2.16859,0.69991-3.34734l0.836-3.69748c0.27167-1.29044.55238-2.62382,0.83754-3.97876,0.30811-1.3501.52055-2.72621,0.74992-4.11575a20.55035,20.55035,0,0,0,.37058-4.106,14.59241,14.59241,0,0,0-.65015-3.91187,15.1446,15.1446,0,0,0-1.5242-3.38383,19.506,19.506,0,0,0-2.04813-2.67323c-1.41278-1.57018-2.49734-2.9581-3.34839-3.84274C165.996,137.03783,165.46062,136.57775,165.46062,136.57775Z" transform="translate(-15.27164)"/></g><g class="cls-14"><path class="cls-23" d="M154.59489,144.92991a0.592,0.592,0,0,0,.10349.09065,0.78515,0.78515,0,0,0,.27345.108c0.22067,0.05138.55682,0.062,0.92844,0.162a3.44537,3.44537,0,0,1,.94.41522,1.995,1.995,0,0,1,.39114.32149,1.99642,1.99642,0,0,1-.50014.07874,3.44359,3.44359,0,0,1-1.02077-.11877,3.93005,3.93005,0,0,1-.52312-0.19052,1.308,1.308,0,0,1-.45206-0.32959,0.62837,0.62837,0,0,1-.16669-0.38637A0.42287,0.42287,0,0,1,154.59489,144.92991Z" transform="translate(-15.27164)"/><path class="cls-23" d="M156.97469,149.65369a2.16652,2.16652,0,0,1,.56973-0.10689,3.73909,3.73909,0,0,1,2.31293.6286,2.17755,2.17755,0,0,1,.43665.38182,2.98614,2.98614,0,0,1-.57385.00961,6.15087,6.15087,0,0,1-1.15707-.19943,6.21986,6.21986,0,0,1-1.09833-.41544A3.06719,3.06719,0,0,1,156.97469,149.65369Z" transform="translate(-15.27164)"/><path class="cls-23" d="M159.84531,156.74831a2.34126,2.34126,0,0,1-.16776.52547,4.18624,4.18624,0,0,1-1.43654,1.73241,2.32474,2.32474,0,0,1-.48625.26114,2.32515,2.32515,0,0,1,.167-0.526,4.18637,4.18637,0,0,1,1.438-1.7312A2.34008,2.34008,0,0,1,159.84531,156.74831Z" transform="translate(-15.27164)"/><path class="cls-23" d="M162.511,165.0032a1.40692,1.40692,0,0,1-.052.40537,2.0311,2.0311,0,0,1-.9474,1.22916,0.23733,0.23733,0,1,1-.32835-0.25342,2.03114,2.03114,0,0,1,.9489-1.228A1.40734,1.40734,0,0,1,162.511,165.0032Z" transform="translate(-15.27164)"/><path class="cls-23" d="M168.53162,167.92406a1.761,1.761,0,0,1,.4599-0.09055,2.85845,2.85845,0,0,1,1.78867.4782,0.26147,0.26147,0,1,1-.10732.40067,2.85859,2.85859,0,0,1-1.78822-.48A1.76258,1.76258,0,0,1,168.53162,167.92406Z" transform="translate(-15.27164)"/><path class="cls-23" d="M168.61436,157.486a1.35767,1.35767,0,0,1,.37485-0.22372,2.08555,2.08555,0,0,1,1.70432.0578,1.37249,1.37249,0,0,1,.35847.24992,1.75931,1.75931,0,0,1-.39989.1628,2.75128,2.75128,0,0,1-1.65-.0578A1.80658,1.80658,0,0,1,168.61436,157.486Z" transform="translate(-15.27164)"/><path class="cls-23" d="M168.35082,148.36459a0.24158,0.24158,0,0,1-.09737-0.1292,0.519,0.519,0,0,1,.10536-0.43793,1.38542,1.38542,0,0,1,.42036-0.37321,4.33733,4.33733,0,0,1,.485-0.27167,3.58488,3.58488,0,0,1,1.00665-.29477,2.05839,2.05839,0,0,1,.51515-0.009,2.05776,2.05776,0,0,1-.34155.38576,3.58572,3.58572,0,0,1-.8781.57376,4.3368,4.3368,0,0,1-.52161.19221c-0.18646.05518-.29468,0.06526-0.4138,0.10756a0.49882,0.49882,0,0,0-.23466.13438A0.2373,0.2373,0,0,0,168.35082,148.36459Z" transform="translate(-15.27164)"/><path class="cls-23" d="M166.35245,144.3802a1.29174,1.29174,0,0,1,.23328-0.41347,2.07062,2.07062,0,0,1,1.75151-.7569,1.32673,1.32673,0,0,1,.46111.11479,2.589,2.589,0,0,1-.3611.28777,5.01529,5.01529,0,0,1-.78206.425,5.10012,5.10012,0,0,1-.84624.27667A2.79256,2.79256,0,0,1,166.35245,144.3802Z" transform="translate(-15.27164)"/><path class="cls-23" d="M174.94047,144.66273a1.39546,1.39546,0,0,1,.13609-0.38332,2.00665,2.00665,0,0,1,1.18152-.991,0.2366,0.2366,0,1,1,.26636.318,2.00653,2.00653,0,0,1-1.18272.98952A1.3953,1.3953,0,0,1,174.94047,144.66273Z" transform="translate(-15.27164)"/><path class="cls-23" d="M177.5823,150.0358a2.88559,2.88559,0,0,1,.14565-0.60156,5.4247,5.4247,0,0,1,1.40125-2.15114,2.86337,2.86337,0,0,1,.49237-0.3755,2.864,2.864,0,0,1-.1449.60207,5.4248,5.4248,0,0,1-1.40282,2.15012A2.88385,2.88385,0,0,1,177.5823,150.0358Z" transform="translate(-15.27164)"/><path class="cls-23" d="M176.8316,152.42a2.98326,2.98326,0,0,1,.61292-0.14616,5.64336,5.64336,0,0,1,2.60631.25986,2.96029,2.96029,0,0,1,.57167.26564,2.95829,2.95829,0,0,1-.613.14709,5.64311,5.64311,0,0,1-2.60611-.26172A2.98176,2.98176,0,0,1,176.8316,152.42Z" transform="translate(-15.27164)"/><path class="cls-23" d="M177.10389,159.83762a0.64635,0.64635,0,0,1,.156-0.10806,0.90775,0.90775,0,0,1,.51189-0.06107,2.14356,2.14356,0,0,1,.654.21289c0.21207,0.09727.41086,0.20946,0.622,0.31117,0.41167,0.22073.823,0.44807,1.13487,0.64645a5.28534,5.28534,0,0,1,.52328.36572,2.2,2.2,0,0,1-.65263.02837,3.6294,3.6294,0,0,1-1.34129-.40138,4.18035,4.18035,0,0,1-.62062-0.41115c-0.17645-.14021-0.32359-0.26736-0.45737-0.36288A1.09354,1.09354,0,0,0,177.10389,159.83762Z" transform="translate(-15.27164)"/><path class="cls-23" d="M175.31271,166.56756a4.58408,4.58408,0,0,1,.59673.05125c0.34183,0.04849.771,0.13583,1.19321,0.2394,0.42114,0.10782.84071,0.23276,1.16478,0.352a4.31318,4.31318,0,0,1,.55.23779,2.03082,2.03082,0,0,1-.58705.17534,3.33877,3.33877,0,0,1-2.48277-.62468A1.99751,1.99751,0,0,1,175.31271,166.56756Z" transform="translate(-15.27164)"/><path class="cls-23" d="M159.3133,173.18436a2.73506,2.73506,0,0,1,.57-0.19084,5.0827,5.0827,0,0,1,2.483.06741,2.71524,2.71524,0,0,1,.55859.22285,2.71479,2.71479,0,0,1-.57.19179,5.083,5.083,0,0,1-2.483-.06931A2.73474,2.73474,0,0,1,159.3133,173.18436Z" transform="translate(-15.27164)"/><path class="cls-23" d="M153.98913,171.42548a2.7268,2.7268,0,0,1-.51926.17264,5.26343,5.26343,0,0,1-1.10625.13089,5.20754,5.20754,0,0,1-1.10852-.10776,2.66623,2.66623,0,0,1-.52267-0.16315,2.0419,2.0419,0,0,1,.49271-0.25056,3.48119,3.48119,0,0,1,2.26633-.02174A2.0307,2.0307,0,0,1,153.98913,171.42548Z" transform="translate(-15.27164)"/><path class="cls-23" d="M150.106,169.93081a2.93386,2.93386,0,0,1-.6241-0.026,5.53608,5.53608,0,0,1-2.41068-.95773,2.911,2.911,0,0,1-.47115-0.41057,2.91291,2.91291,0,0,1,.62444.02516,5.53618,5.53618,0,0,1,2.41.95946A2.93372,2.93372,0,0,1,150.106,169.93081Z" transform="translate(-15.27164)"/><path class="cls-23" d="M148.08848,163.78963a0.34484,0.34484,0,0,0-.15814.003,3.20089,3.20089,0,0,1-.4248.06432,5.21071,5.21071,0,0,1-2.48212-.40787,2.77,2.77,0,0,1-.53036-0.29755,2.76851,2.76851,0,0,1,.59776-0.11174,5.211,5.211,0,0,1,2.4818.40971,2.949,2.949,0,0,1,.39211.20444A0.29157,0.29157,0,0,1,148.08848,163.78963Z" transform="translate(-15.27164)"/><path class="cls-23" d="M151.09519,160.36465a1.43619,1.43619,0,0,1-.39009.22185,2.24441,2.24441,0,0,1-1.76414-.05936,1.44988,1.44988,0,0,1-.374-0.24892,1.82329,1.82329,0,0,1,.413-0.164,2.93593,2.93593,0,0,1,1.71442.05952A1.86941,1.86941,0,0,1,151.09519,160.36465Z" transform="translate(-15.27164)"/><path class="cls-23" d="M145.21618,156.74186c0.01514-.00316.02263-0.06355-0.07756-0.06535-0.0379-.00577-0.06628.02354-0.15556,0.032-0.074.01389-.15749,0.02975-0.24747,0.03822a5.50716,5.50716,0,0,1-2.56674-.32373,2.90117,2.90117,0,0,1-.5573-0.27954,2.89915,2.89915,0,0,1,.60934-0.132,5.50738,5.50738,0,0,1,2.56648.32559c0.085,0.03056.162,0.06671,0.23013,0.0986a0.57684,0.57684,0,0,1,.2.12175,0.15933,0.15933,0,0,1,.044.1571A0.0503,0.0503,0,0,1,145.21618,156.74186Z" transform="translate(-15.27164)"/><path class="cls-23" d="M149.11927,152.3875a2.71625,2.71625,0,0,1-.59793.03474,5.04243,5.04243,0,0,1-2.368-.71564,2.69742,2.69742,0,0,1-.478-0.36137,2.69858,2.69858,0,0,1,.59821-0.03564,5.04257,5.04257,0,0,1,2.36745.71748A2.71556,2.71556,0,0,1,149.11927,152.3875Z" transform="translate(-15.27164)"/><path class="cls-23" d="M146.47581,146.95881a2.41223,2.41223,0,0,1-.67712-0.02174,4.06111,4.06111,0,0,1-2.48109-1.42413,2.44206,2.44206,0,0,1-.35937-0.57468,5.25294,5.25294,0,0,1,.61652.24921c0.35017,0.16238.78645,0.39417,1.21344,0.63719,0.42482,0.24677.84448,0.50774,1.16141,0.728A5.53079,5.53079,0,0,1,146.47581,146.95881Z" transform="translate(-15.27164)"/><path class="cls-23" d="M149.80859,146.62131a2.18652,2.18652,0,0,1-.60568.00378,3.74206,3.74206,0,0,1-2.25452-1.1333,2.20908,2.20908,0,0,1-.35739-0.48943,3.54409,3.54409,0,0,1,.58073.13986,8.16262,8.16262,0,0,1,1.13.467,8.271,8.271,0,0,1,1.04816.63A3.66953,3.66953,0,0,1,149.80859,146.62131Z" transform="translate(-15.27164)"/><path class="cls-23" d="M149.32561,143.25059a6.50328,6.50328,0,0,1-.87651-0.369,13.61235,13.61235,0,0,1-3.33136-2.36343,6.45,6.45,0,0,1-.637-0.70644,6.44319,6.44319,0,0,1,.877.36818,13.61334,13.61334,0,0,1,3.33031,2.365A6.50029,6.50029,0,0,1,149.32561,143.25059Z" transform="translate(-15.27164)"/><path class="cls-23" d="M151.76589,140.43819a2.81206,2.81206,0,0,1-.44293-0.41978,5.25674,5.25674,0,0,1-1.1386-2.25558,2.78936,2.78936,0,0,1-.07339-0.60612,2.79118,2.79118,0,0,1,.44377.41936,5.25692,5.25692,0,0,1,1.13689,2.25647A2.81069,2.81069,0,0,1,151.76589,140.43819Z" transform="translate(-15.27164)"/><path class="cls-23" d="M170.26015,138.75086a0.88079,0.88079,0,0,0,.47073-0.147,2.66963,2.66963,0,0,0,.66982-0.72388,2.89413,2.89413,0,0,1,.46611-0.47969,1.916,1.916,0,0,1,1.10431-.38634,4.17769,4.17769,0,0,1-.34023.44778c-0.22054.24925-.40515,0.51135-0.66318,0.86522l-0.22725.25389a1.654,1.654,0,0,1-.2802.2278,1.17389,1.17389,0,0,1-.63583.19739,0.73312,0.73312,0,0,1-.44737-0.13232A0.53941,0.53941,0,0,1,170.26015,138.75086Z" transform="translate(-15.27164)"/><path class="cls-23" d="M173.60757,172.06866a1.51354,1.51354,0,0,1,.47127.30252,2.48545,2.48545,0,0,1,.78365,2.18333,1.557,1.557,0,0,1-.17264.53313,4.66372,4.66372,0,0,1-.23929-0.485c-0.12279-.28166-0.25981-0.63785-0.38913-0.99326-0.1255-.35667-0.24521-0.71935-0.32973-1.01472A5.26674,5.26674,0,0,1,173.60757,172.06866Z" transform="translate(-15.27164)"/></g><path class="cls-24" d="M160.532,177.15134a13.33057,13.33057,0,0,0-3.72525-.25806c0.42639,1.35071,1.15488,2.58888,1.60658,3.93134a20.3648,20.3648,0,0,1,.78246,4.19479c0.517,4.50031,1.03416,9.00293,1.3248,13.52354a6.57715,6.57715,0,0,1-.167,2.49519,11.7772,11.7772,0,0,1-1.4,2.36114,2.99554,2.99554,0,0,0-.4893,2.60631q5.14909,0.14177,10.29758-.16331a16.87194,16.87194,0,0,0,4.81357-.79167,6.27533,6.27533,0,0,0,3.63808-3.08366,9.43666,9.43666,0,0,0,.62427-2.40021l3.12048-18.57388c0.01671-.13364.0448-0.26685,0.06688-0.39972a32.50922,32.50922,0,0,0,.45332-3.66536c0.0302-.59145-0.00362-1.18117.03807-1.76993q0.06619-.93608.10513-1.87393a0.31227,0.31227,0,0,0-.1067-0.30711,1.049,1.049,0,0,1-.31354.61317,2.86161,2.86161,0,0,1-.73643.32465q-0.407.16882-.81471,0.33617-0.81658.33481-1.63766,0.65865c-1.09406.42941-2.197,0.83725-3.31491,1.20061a29.019,29.019,0,0,1-6.84076,1.43683A34.75853,34.75853,0,0,1,160.532,177.15134Z" transform="translate(-15.27164)"/><path class="cls-25" d="M177.83778,199.56678a9.43666,9.43666,0,0,1-.62427,2.40021,6.27522,6.27522,0,0,1-3.638,3.08366,16.87194,16.87194,0,0,1-4.81357.79167q-5.142.305-10.29758,0.16331a2.99554,2.99554,0,0,1,.4893-2.60631,11.7772,11.7772,0,0,0,1.4-2.36115,6.57714,6.57714,0,0,0,.167-2.49519c-0.11728-1.82414-.27156-3.64574-0.44763-5.4651-0.14693-1.51826-.55937-3.13094,1.11447-3.94493a6.28485,6.28485,0,0,1,2.50977-.453l11.81355-.49448,2.53839-.10625a3.24027,3.24027,0,0,1,1.58664.2C179.38113,192.04333,178.46267,195.84371,177.83778,199.56678Z" transform="translate(-15.27164)"/><path class="cls-18" d="M147.06409,184.06879c0.87663,2.81372,1.39964,5.719,2.01256,8.597,0.61469,2.88638,1.487,5.68774,2.2511,8.53265a12.87889,12.87889,0,0,0,.38077,1.24779,9.67761,9.67761,0,0,0,.90006,1.72317,3.93415,3.93415,0,0,0,1.81535,1.7417,8.31621,8.31621,0,0,0,2.65875.1362c0.93118,0.00635,1.86235.014,2.79356,0.014h2.0554a48.20968,48.20968,0,0,1-.56508-4.97433,21.25994,21.25994,0,0,0-.18387-2.66675c-0.0462-.26717-0.10719-0.53181-0.14378-0.80048-0.05415-.3976-0.02168-0.79863-0.05836-1.192-0.03986-.42718-0.06808-0.85558-0.10715-1.28288-0.07989-.87354-0.1731-1.74583-0.2728-2.61732-0.19524-1.70609-.4158-3.40913-0.61234-5.1151-0.27457-2.38319-.511-4.77451-0.56255-7.17442-0.04636-2.15614.26544-3.02721-2.22-3.40517-1.14548-.17419-2.31264.24-3.45171-0.02116a2.11428,2.11428,0,0,1-.903-0.42548,5.10484,5.10484,0,0,1-.74254-0.91994,19.9718,19.9718,0,0,1-1.26125-2.14165,2.14038,2.14038,0,0,1-.27518-0.7061c-0.21046-.00465-0.42059.0078-0.63087,0.01668-1.39188.05881-3.00114-.19579-4.21991,0.63641C142.87678,175.21482,146.2878,181.57719,147.06409,184.06879Z" transform="translate(-15.27164)"/><path class="cls-26" d="M160.7947,136.0617a0.15772,0.15772,0,1,1-.30911.04924,13.64111,13.64111,0,0,1-1.284-3.7473,3.52271,3.52271,0,0,0-.3322-1.14236,1.02484,1.02484,0,0,0-.97655-0.559,0.98985,0.98985,0,0,0-.7466.93675,2.47089,2.47089,0,0,0,.33342,1.23462,11.14565,11.14565,0,0,0,2.449,3.26611,1.09419,1.09419,0,0,1-.95435-0.51021l-2.36993-2.66632a2.08088,2.08088,0,0,0-1.035-.75972,4.13046,4.13046,0,0,0,.15134,2.51025,3.29293,3.29293,0,0,0,.92038,1.023,8.31057,8.31057,0,0,0,1.9413,1.14587l-4.24652.0164a0.35564,0.35564,0,0,0-.199.03995,0.24375,0.24375,0,0,0-.02393.34036,0.68013,0.68013,0,0,0,.32326.19476,11.73957,11.73957,0,0,0,4.80907.673,1.8118,1.8118,0,0,0-1.21771,1.13406,3.57123,3.57123,0,0,0-.12842,1.20622,3.75552,3.75552,0,0,0,.3288,1.8409,10.25457,10.25457,0,0,0,1.25359-1.8026,3.44286,3.44286,0,0,0,.38315-2.12776,7.94423,7.94423,0,0,1,.76147,2.0778,3.24811,3.24811,0,0,0,1.149,1.84816,19.57753,19.57753,0,0,0-.36546-3.81258l1.4053,1.15263a3.23613,3.23613,0,0,0,2.40221,1.03082,7.33565,7.33565,0,0,0-4.08311-3.304,10.47674,10.47674,0,0,1,5.3029-.7506,0.30811,0.30811,0,0,0-.04889-0.433l0,0h0l-0.02318-.01675a0.89,0.89,0,0,0-.49936-0.11967,8.63254,8.63254,0,0,0-3.99721.48994,9.90535,9.90535,0,0,1,1.47787-1.04153,3.3901,3.3901,0,0,0,.74171-2.58606,2.23069,2.23069,0,0,1-1.02435,1.75226,8.25867,8.25867,0,0,0-1.62529,1.33775c0.00887-1.29884.98683-2.36594,1.43719-3.58424a3.95025,3.95025,0,0,0-.04768-3.1741C161.59217,131.06577,161.09389,133.90345,160.7947,136.0617Z" transform="translate(-15.27164)"/><path class="cls-27" d="M160.76055,136.47555a0.14725,0.14725,0,1,1-.28856.04591,12.73469,12.73469,0,0,1-1.19865-3.49823,3.28848,3.28848,0,0,0-.31012-1.06644,0.95676,0.95676,0,0,0-.91164-0.52187,0.92409,0.92409,0,0,0-.697.8745,2.30672,2.30672,0,0,0,.31125,1.15257,10.40438,10.40438,0,0,0,2.28622,3.049,1.02141,1.02141,0,0,1-.891-0.4763l-2.21239-2.48906a1.94243,1.94243,0,0,0-.96622-0.70923,3.85618,3.85618,0,0,0,.1413,2.34341,3.07343,3.07343,0,0,0,.85919.955,7.75824,7.75824,0,0,0,1.81221,1.06973l-3.96428.01527a0.33218,0.33218,0,0,0-.18578.03731,0.2275,0.2275,0,0,0-.02234.31773,0.63515,0.63515,0,0,0,.30173.18182,10.9593,10.9593,0,0,0,4.48944.62817,1.69133,1.69133,0,0,0-1.13661,1.05865,3.335,3.335,0,0,0-.11987,1.126,3.50553,3.50553,0,0,0,.307,1.71854,9.57261,9.57261,0,0,0,1.17029-1.68279,3.21387,3.21387,0,0,0,.3577-1.98634,7.41649,7.41649,0,0,1,.71088,1.93971A3.03236,3.03236,0,0,0,161.676,142.284a18.27693,18.27693,0,0,0-.34116-3.55919l1.31187,1.076a3.021,3.021,0,0,0,2.24252.96233,6.84824,6.84824,0,0,0-3.81174-3.08438,9.78048,9.78048,0,0,1,4.95044-.70071,0.2877,0.2877,0,0,0-.04568-0.40428h0l-0.02162-.01564a0.83064,0.83064,0,0,0-.46614-0.11171,8.05829,8.05829,0,0,0-3.73154.45734,9.24609,9.24609,0,0,1,1.37965-.97232,3.16468,3.16468,0,0,0,.69235-2.41418,2.0824,2.0824,0,0,1-.95622,1.6358,7.71023,7.71023,0,0,0-1.51724,1.24886c0.00829-1.21255.92125-2.20866,1.34169-3.346a3.68751,3.68751,0,0,0-.04451-2.96312C161.50506,131.81168,161.03989,134.46072,160.76055,136.47555Z" transform="translate(-15.27164)"/><path class="cls-28" d="M135.06484,164.77938l2.12453-18.07892h0l-2.12453,18.07892c22.42355-21.68486,27.27151-51.59512,12.93294-90.48476l-6.48666,3.063c7.94846,23.45792,8.57394,45.117-1.35329,64.18385a9.5,9.5,0,0,0-.971-0.43239c-0.47093-.17287-0.93877-0.35469-1.408-0.532l-4.18912-1.583-16.86809-6.374q-4.815-1.81952-9.63-3.639a12.34053,12.34053,0,0,0-14.435,4.4146l-7.69337,10.86992c-1.94444,2.7473-4.04981,5.451-5.97466,8.219-0.06115.088-.118,0.17732-0.17882,0.26537l-4.84952-.486,5.93443,9.2195,2.1085,0.126-15.02356,39.5966,2.7399-.02837,19.97059-39.10912L118.554,163.793l20.80421,40.74162,2.7399,0.02837-15.28131-40.27638ZM85.77589,153.4481a55.0952,55.0952,0,0,1,4.37391-4.50056l5.40128-5.65553,0.33451-.35027a16.07648,16.07648,0,0,1,16.537-4.20457q6.00236,1.92561,11.99118,3.84683c4.2025,1.34818,8.6472,2.45453,12.76692,4.1132a25.3832,25.3832,0,0,1-16.8662,10.2123Z" transform="translate(-15.27164)"/><path class="cls-29" d="M94.58673,97.07291a0.58153,0.58153,0,0,1,.39327.843l-0.459.87187a1.0779,1.0779,0,0,1-.43923-0.62788A0.60189,0.60189,0,0,1,94.09,97.87347,1.77386,1.77386,0,0,1,94.58673,97.07291Z" transform="translate(-15.27164)"/><path class="cls-13" d="M48.30881,17.48612a2.30621,2.30621,0,0,0-3.43327-.24731,1.75152,1.75152,0,0,0-.48006,1.222,1.93608,1.93608,0,0,0,.27641.9747,0.97777,0.97777,0,0,0,1.01833.48008c0.20367-.05819.43643-0.23276,0.27641-0.451a1.57151,1.57151,0,0,1-.37824-0.80012,1.02793,1.02793,0,0,1,.46553-0.931,0.83388,0.83388,0,0,1,1.00378.10183,1.21631,1.21631,0,0,1,.27641.52372c0.34915,1.20746-.26186,2.85135-1.673,2.96774a1.28313,1.28313,0,0,1-1.36748-.9456,5.14711,5.14711,0,0,1-.37824-2.09487V14.7948h4.80075V13.20909H43.90089V10.86691A2.65594,2.65594,0,0,0,43.49355,9.383a2.17377,2.17377,0,0,0-2.76406-.56736,1.71771,1.71771,0,0,0-.55282.46552,2.04583,2.04583,0,0,0-.42184,1.3093h1.16381a2.20311,2.20311,0,0,1,.13093-0.611,0.728,0.728,0,0,1,.49461-0.451c0.6983-.08728.80013,0.85831,0.80013,1.33836v2.34223H40.86043v1.5857H42.3152v3.91333a4.32952,4.32952,0,0,0,.611,2.35673c1.01833,1.673,3.7824,1.55661,5.03352.23276a3.08016,3.08016,0,0,0,.82923-2.2258A2.468,2.468,0,0,0,48.30881,17.48612Z" transform="translate(-15.27164)"/><path class="cls-7" d="M80.3284,87.31019a1.37729,1.37729,0,0,0-2.05032-.14769,1.046,1.046,0,0,0-.2867.72978,1.15616,1.15616,0,0,0,.16506.58209,0.58393,0.58393,0,0,0,.60818.28671c0.12162-.03475.26063-0.139,0.16506-0.26931a0.93854,0.93854,0,0,1-.22588-0.47783,0.61385,0.61385,0,0,1,.278-0.556,0.498,0.498,0,0,1,.59946.06082,0.72652,0.72652,0,0,1,.16506.31276,1.348,1.348,0,0,1-.99909,1.77232,0.76628,0.76628,0,0,1-.81665-0.56467,3.0741,3.0741,0,0,1-.22588-1.25105V85.70291h2.867v-0.947H77.696V83.35719a1.58607,1.58607,0,0,0-.24326-0.88615,1.29816,1.29816,0,0,0-1.65069-.33883,1.02581,1.02581,0,0,0-.3301.278,1.22172,1.22172,0,0,0-.252.78191h0.695a1.316,1.316,0,0,1,.07819-0.36489,0.43471,0.43471,0,0,1,.29539-0.26931c0.417-.05212.47783,0.51258,0.47783,0.79924v1.39875H75.88029v0.947h0.86878v2.337a2.58556,2.58556,0,0,0,.36488,1.40741,2.01853,2.01853,0,0,0,3.006.139,1.83942,1.83942,0,0,0,.4952-1.32923A1.47387,1.47387,0,0,0,80.3284,87.31019Z" transform="translate(-15.27164)"/><path class="cls-7" d="M89.00816,94.38919a0.95169,0.95169,0,0,0-1.41687-.10207,0.72287,0.72287,0,0,0-.19813.50431,0.799,0.799,0,0,0,.11407.40224,0.40352,0.40352,0,0,0,.42026.19813c0.08405-.024.1801-0.09606,0.11407-0.18611a0.64848,0.64848,0,0,1-.15606-0.33021,0.42422,0.42422,0,0,1,.19212-0.38424,0.34414,0.34414,0,0,1,.41428.042,0.502,0.502,0,0,1,.11407.21613,0.93155,0.93155,0,0,1-.69046,1.22476,0.52954,0.52954,0,0,1-.56435-0.39024,2.12407,2.12407,0,0,1-.15606-0.8645V93.27851h1.98122V92.6241H87.18913V91.65748A1.096,1.096,0,0,0,87.021,91.0451a0.8971,0.8971,0,0,0-1.14068-.23414,0.70884,0.70884,0,0,0-.22813.19212,0.84425,0.84425,0,0,0-.17411.54033H85.9584a0.909,0.909,0,0,1,.054-0.25215,0.30042,0.30042,0,0,1,.20412-0.18611c0.28819-.036.3302,0.35421,0.3302,0.55237v0.9666H85.93437v0.65441h0.60037v1.615a1.78673,1.78673,0,0,0,.25216.9726,1.39489,1.39489,0,0,0,2.07728.09606,1.27115,1.27115,0,0,0,.34222-0.91857A1.01845,1.01845,0,0,0,89.00816,94.38919Z" transform="translate(-15.27164)"/><path class="cls-30" d="M136.36192,86.11895a8.13238,8.13238,0,0,0,1.70777,2.80918c0.95285,1.00025,1.86339,2.0448,2.794,3.06585l3.72624,4.08853c5.24389-1.2796,10.15984-11.9096,5.73479-18.32516a25.81657,25.81657,0,0,1-4.34392-13.52557l-6.01491-3.876-4.23126-2.72665a5.414,5.414,0,0,0-1.46425-.94534c-1.025-.07529-1.36676,1.85534-1.59348,2.88353a15.87481,15.87481,0,0,0-.29394,3.05719,63.10257,63.10257,0,0,0,3.48881,22.14127C136.03808,85.24358,136.19446,85.69229,136.36192,86.11895Z" transform="translate(-15.27164)"/><path class="cls-30" d="M133.96823,49.72219h0a12.78512,12.78512,0,1,1-1.30429,25.537,13.03908,13.03908,0,0,1-12.11634-13.4205C120.53072,53.88033,126.91641,49.362,133.96823,49.72219Z" transform="translate(-15.27164)"/><path class="cls-30" d="M128.4951,74.38935l0.03027,4.84246c7.25129,0.15043,9.036-9.22735,9.036-9.22735Z" transform="translate(-15.27164)"/><path class="cls-31" d="M139.32947,68.05888l0.42922-8.40492a3.90009,3.90009,0,0,0-3.68514-4.08212l-7.75778-2.60771c-2.136-.10908-6.28427,3.50415-6.46921,7.12505L121.41565,68.527c-0.25057,4.90707,3.613,8.07142,8.52,8.32206h0A9.81878,9.81878,0,0,0,139.32947,68.05888Z" transform="translate(-15.27164)"/><circle class="cls-32" cx="130.6655" cy="65.12179" r="0.70729" transform="translate(-16.58324 2.7009) rotate(-1.17837)"/><circle class="cls-32" cx="124.20083" cy="64.73819" r="0.70723" transform="translate(-16.57703 2.5685) rotate(-1.17866)"/><path class="cls-33" d="M127.51251,68.692c-1.54183.33287-1.60689-.74143-1.60689-0.74143l0.89817-1.48506" transform="translate(-15.27164)"/><path class="cls-32" d="M133.24641,62.57217a0.64758,0.64758,0,0,0-.58441-0.70512l-3.18883-.29909H129.473a0.64772,0.64772,0,1,0-.12111,1.28977l3.18883,0.299a0.66462,0.66462,0,0,0,.13169-0.00116A0.64757,0.64757,0,0,0,133.24641,62.57217Z" transform="translate(-15.27164)"/><path class="cls-32" d="M125.55136,62.00479a0.64764,0.64764,0,0,0-.58457-0.70509l-1.9496-.1826h0a0.64761,0.64761,0,0,0-.12015,1.28959l1.94951,0.1826a0.65935,0.65935,0,0,0,.13116-0.001A0.64763,0.64763,0,0,0,125.55136,62.00479Z" transform="translate(-15.27164)"/><path class="cls-34" d="M127.37667,72.25574c-1.91741-.12233-2.68623-2.50479-2.68623-2.50479l5.64415,0.74884A2.63268,2.63268,0,0,1,127.37667,72.25574Z" transform="translate(-15.27164)"/><path class="cls-30" d="M128.34,52.49189a9.41589,9.41589,0,0,1,10.4103,1.599c5.49118,4.427,3.48857,11.48557,3.48857,11.48557a39.72287,39.72287,0,0,1-16.791-10.90414Z" transform="translate(-15.27164)"/><path class="cls-30" d="M128.18889,52.76343c-5.36687.82389-6.56089,6.94194-6.56089,6.94194a23.64511,23.64511,0,0,0,5.69764-5.49958Z" transform="translate(-15.27164)"/><path class="cls-30" d="M139.11418,62.36124l-1.11013,5.81855c-3.03609-.73234-1.70532-6.868-1.70532-6.868Z" transform="translate(-15.27164)"/><circle class="cls-31" cx="140.12763" cy="66.8054" r="3.19889" transform="translate(50.99216 203.34423) rotate(-87.07713)"/><path class="cls-35" d="M128.45612,111.38312c-5.66437-1.19867-9.94885-2.9986-12.11365-5.72211l-1.43506,3.582a21.6018,21.6018,0,0,0,13.47266,4.76288l1.21393-2.382L133.375,102Z" transform="translate(-15.27164)"/><ellipse class="cls-15" cx="74.58252" cy="106.14078" rx="5.14583" ry="5.18245"/><path class="cls-28" d="M101.70654,128.08972l-0.544-2.37433-32.48737-5.37781-18.242-32.16949-1.58032.9928c0.75144,0.75171,14.52418,27.00415,17.87944,32.163a3.44934,3.44934,0,0,1,.53691,2.28406l-0.08169.7046,0.41895-.07617a5.67883,5.67883,0,0,1,1.91551-.01989l32.54054,5.22106Z" transform="translate(-15.27164)"/></svg>