<svg id="Layer_1" data-name="Layer 1" xmlns="http://www.w3.org/2000/svg" xmlns:xlink="http://www.w3.org/1999/xlink" viewBox="0 0 214.55594 210.64026"><defs><style>.cls-1{fill:#2c338e;}.cls-2{fill:#6cc071;}.cls-3{fill:#94ce97;opacity:0.95;}.cls-11,.cls-20,.cls-3,.cls-4,.cls-48{isolation:isolate;}.cls-4{fill:none;stroke:#ed644b;stroke-miterlimit:10;stroke-width:0.46881px;}.cls-4,.cls-5{opacity:0.25;}.cls-11,.cls-6{fill:#ed644b;}.cls-7{opacity:0.85;}.cls-8{fill:#464fa2;}.cls-9{fill:#3b439b;}.cls-10{fill:#f4847f;}.cls-11,.cls-48{opacity:0.5;}.cls-12{fill:url(#linear-gradient);}.cls-13{fill:url(#linear-gradient-2);}.cls-14{fill:url(#linear-gradient-3);}.cls-15{fill:url(#linear-gradient-4);}.cls-16{fill:#cfdce5;}.cls-17{fill:#fff;}.cls-18{fill:url(#linear-gradient-5);}.cls-19{fill:url(#linear-gradient-6);}.cls-20{font-size:29.66171px;fill:#5c52cf;font-family:Open Sans;}.cls-21{fill:url(#linear-gradient-7);}.cls-22{fill:url(#linear-gradient-8);}.cls-23{fill:url(#linear-gradient-9);}.cls-24{fill:url(#linear-gradient-10);}.cls-25{fill:url(#linear-gradient-11);}.cls-26{fill:url(#linear-gradient-12);}.cls-27{fill:#363894;}.cls-28{fill:url(#linear-gradient-13);}.cls-29{fill:url(#linear-gradient-14);}.cls-30{fill:url(#linear-gradient-15);}.cls-31{fill:#f1f2f2;}.cls-32{fill:url(#linear-gradient-16);}.cls-33{fill:#fa870a;}.cls-34{fill:url(#linear-gradient-17);}.cls-35{fill:url(#linear-gradient-18);}.cls-36{fill:url(#linear-gradient-19);}.cls-37{fill:url(#linear-gradient-20);}.cls-38{fill:url(#linear-gradient-21);}.cls-39{fill:url(#linear-gradient-22);}.cls-40{fill:url(#linear-gradient-23);}.cls-41{fill:url(#linear-gradient-24);}.cls-42{fill:url(#linear-gradient-25);}.cls-43{fill:#353892;}.cls-44{fill:#f9bfaf;}.cls-45{fill:#81441d;}.cls-46{fill:#efc4a3;}.cls-47{fill:#363b92;}.cls-48{fill:#29235c;}.cls-49{fill:#369747;}.cls-50{fill:#fcdfbb;}.cls-51{fill:#303030;}.cls-52{fill:#fffff3;}.cls-53{fill:url(#linear-gradient-26);}</style><linearGradient id="linear-gradient" x1="78.58665" y1="670.81663" x2="306.07634" y2="670.81663" gradientTransform="matrix(0.9426, -0.0025, -0.0025, 0.9999, -72.38599, -585.68195)" gradientUnits="userSpaceOnUse"><stop offset="0.21693" stop-color="#a7b1dd"/><stop offset="0.41807" stop-color="#a5addf"/><stop offset="0.60535" stop-color="#9da2e6"/><stop offset="0.78651" stop-color="#908ff0"/><stop offset="0.91534" stop-color="#847dfb"/></linearGradient><linearGradient id="linear-gradient-2" x1="343.59775" y1="589.71819" x2="453.80572" y2="479.51021" gradientTransform="matrix(0, 1, 1, 0, -439.07128, -312.82075)" gradientUnits="userSpaceOnUse"><stop offset="0.07937" stop-color="#662d91"/><stop offset="0.08921" stop-color="#622a91"/><stop offset="0.17255" stop-color="#48188d"/><stop offset="0.25783" stop-color="#350b8b"/><stop offset="0.34548" stop-color="#2a0389"/><stop offset="0.43915" stop-color="#260089"/><stop offset="0.60434" stop-color="#391ca4"/><stop offset="0.92064" stop-color="#655ae2"/></linearGradient><linearGradient id="linear-gradient-3" x1="345.60854" y1="582.57533" x2="441.53217" y2="486.65169" gradientTransform="matrix(0, 1, 1, 0, -439.07128, -312.82075)" gradientUnits="userSpaceOnUse"><stop offset="0.20635" stop-color="#a7b1dd"/><stop offset="0.49895" stop-color="#bbc6e1"/><stop offset="0.85185" stop-color="#cfdce5"/></linearGradient><linearGradient id="linear-gradient-4" x1="455.85394" y1="538.02208" x2="462.66837" y2="531.20766" gradientTransform="matrix(0, 1, 1, 0, -439.07129, -312.82073)" gradientUnits="userSpaceOnUse"><stop offset="0.22751" stop-color="#5c52cf"/><stop offset="0.42865" stop-color="#5f55d6"/><stop offset="0.92064" stop-color="#655ae2"/></linearGradient><linearGradient id="linear-gradient-5" x1="170.21605" y1="629.20946" x2="187.13562" y2="629.20946" gradientTransform="translate(-69.93648 -585.26605)" xlink:href="#linear-gradient-4"/><linearGradient id="linear-gradient-6" x1="179.71111" y1="627.03453" x2="195.03855" y2="627.03453" gradientTransform="translate(-69.93648 -585.26605)" xlink:href="#linear-gradient-4"/><linearGradient id="linear-gradient-7" x1="95.16499" y1="599.15602" x2="95.16499" y2="594.48802" gradientTransform="translate(0.00001 -578.00001)" gradientUnits="userSpaceOnUse"><stop offset="0.12169" stop-color="#fc952e"/><stop offset="0.32557" stop-color="#fc9831"/><stop offset="0.50108" stop-color="#fba13c"/><stop offset="0.66558" stop-color="#faaf4e"/><stop offset="0.72487" stop-color="#f9b656"/><stop offset="0.81074" stop-color="#fabb54"/><stop offset="0.99471" stop-color="#fbbe52"/></linearGradient><linearGradient id="linear-gradient-8" x1="128.08258" y1="629.13237" x2="128.08258" y2="606.4225" gradientTransform="translate(-69.93648 -585.26605)" gradientUnits="userSpaceOnUse"><stop offset="0.12169" stop-color="#fc952e"/><stop offset="0.60318" stop-color="#f9b656"/><stop offset="0.72777" stop-color="#fabb54"/><stop offset="0.99471" stop-color="#fbbe52"/></linearGradient><linearGradient id="linear-gradient-9" x1="152.76305" y1="629.13156" x2="152.76305" y2="606.4225" xlink:href="#linear-gradient-8"/><linearGradient id="linear-gradient-10" x1="177.44031" y1="629.13355" x2="177.44031" y2="606.4225" xlink:href="#linear-gradient-8"/><linearGradient id="linear-gradient-11" x1="202.12078" y1="629.13368" x2="202.12078" y2="606.4225" xlink:href="#linear-gradient-8"/><linearGradient id="linear-gradient-12" x1="138.45287" y1="663.64014" x2="212.52304" y2="675.71852" gradientTransform="translate(0.00001 -578.00001)" xlink:href="#linear-gradient-4"/><linearGradient id="linear-gradient-13" x1="170.65254" y1="653.36915" x2="170.65254" y2="649.94096" gradientTransform="translate(0.00001 -578.00001)" gradientUnits="userSpaceOnUse"><stop offset="0.08466" stop-color="#847dfb"/><stop offset="0.21349" stop-color="#908ff0"/><stop offset="0.39465" stop-color="#9da2e6"/><stop offset="0.58193" stop-color="#a5addf"/><stop offset="0.78307" stop-color="#a7b1dd"/></linearGradient><linearGradient id="linear-gradient-14" x1="157.95975" y1="665.66902" x2="157.95975" y2="659.38312" xlink:href="#linear-gradient-13"/><linearGradient id="linear-gradient-15" x1="192.30626" y1="665.66902" x2="192.30626" y2="659.38312" xlink:href="#linear-gradient-13"/><linearGradient id="linear-gradient-16" x1="217.39943" y1="678.28046" x2="236.19798" y2="710.66612" gradientTransform="translate(-69.93648 -585.26605)" gradientUnits="userSpaceOnUse"><stop offset="0.00529" stop-color="#fbbe52"/><stop offset="0.27223" stop-color="#fabb54"/><stop offset="0.39683" stop-color="#f9b656"/><stop offset="0.87831" stop-color="#fc952e"/></linearGradient><linearGradient id="linear-gradient-17" x1="132.69999" y1="638.00202" x2="142.77399" y2="638.00202" gradientTransform="translate(0.00001 -578.00001)" xlink:href="#linear-gradient-16"/><linearGradient id="linear-gradient-18" x1="144.90299" y1="638.00202" x2="154.97599" y2="638.00202" gradientTransform="translate(0.00001 -578.00001)" xlink:href="#linear-gradient-16"/><linearGradient id="linear-gradient-19" x1="157.10399" y1="638.00202" x2="167.17899" y2="638.00202" gradientTransform="translate(0.00001 -578.00001)" xlink:href="#linear-gradient-16"/><linearGradient id="linear-gradient-20" x1="169.309" y1="638.00202" x2="179.38099" y2="638.00202" gradientTransform="translate(0.00001 -578.00001)" xlink:href="#linear-gradient-16"/><linearGradient id="linear-gradient-21" x1="181.50899" y1="638.00202" x2="191.58298" y2="638.00202" gradientTransform="translate(0.00001 -578.00001)" xlink:href="#linear-gradient-16"/><linearGradient id="linear-gradient-22" x1="193.712" y1="638.00202" x2="203.78499" y2="638.00202" gradientTransform="translate(0.00001 -578.00001)" gradientUnits="userSpaceOnUse"><stop offset="0.08466" stop-color="#a7b1dd"/><stop offset="0.15527" stop-color="#afbadf"/><stop offset="0.35603" stop-color="#c1cde2"/><stop offset="0.56165" stop-color="#cbd8e4"/><stop offset="0.77778" stop-color="#cfdce5"/></linearGradient><linearGradient id="linear-gradient-23" x1="56.46277" y1="770.05629" x2="191.60302" y2="770.05629" gradientTransform="translate(0.00001 -578.00001)" gradientUnits="userSpaceOnUse"><stop offset="0.13757" stop-color="#fff"/><stop offset="0.27754" stop-color="#fbfcfd"/><stop offset="0.41444" stop-color="#eff1f9"/><stop offset="0.55011" stop-color="#dce0f1"/><stop offset="0.68419" stop-color="#c0c7e7"/><stop offset="0.78307" stop-color="#a7b1dd"/></linearGradient><linearGradient id="linear-gradient-24" x1="208.81412" y1="782.83292" x2="245.92901" y2="745.71805" gradientTransform="translate(-69.93648 -585.26605)" gradientUnits="userSpaceOnUse"><stop offset="0.07937" stop-color="#662d91"/><stop offset="0.2596" stop-color="#663fb1"/><stop offset="0.44839" stop-color="#654ecc"/><stop offset="0.61663" stop-color="#6557dc"/><stop offset="0.74603" stop-color="#655ae2"/></linearGradient><linearGradient id="linear-gradient-25" x1="1919.24071" y1="-1489.65091" x2="1968.19028" y2="-1489.65091" gradientTransform="matrix(0.2813, 0.14431, 0.15834, -0.3309, -264.8274, -567.69117)" gradientUnits="userSpaceOnUse"><stop offset="0.22222" stop-color="#fff"/><stop offset="0.40378" stop-color="#eaecf6"/><stop offset="0.76897" stop-color="#bac2e3"/><stop offset="0.91534" stop-color="#a5afdb"/></linearGradient><linearGradient id="linear-gradient-26" x1="1463.66101" y1="-2078.57445" x2="1512.61237" y2="-2078.57445" gradientTransform="matrix(0.31748, 0.01227, 0.0141, -0.3667, -403.73809, -571.01544)" xlink:href="#linear-gradient-25"/></defs><title>wcbg-3</title><path class="cls-1" d="M194.50451,173.00944a0.44315,0.44315,0,0,1,.18468.117,0.45592,0.45592,0,0,1,.05865.31722l-0.11053,1.806a0.31394,0.31394,0,0,1-.05026.18317,0.31037,0.31037,0,0,1-.14684.08363,16.26486,16.26486,0,0,1-2.19154.58543,3.5811,3.5811,0,0,1-1.98878-.03647,0.7529,0.7529,0,0,1-.54645-0.61777,1.15032,1.15032,0,0,1,.22621-0.542,0.97052,0.97052,0,0,0,.14265-0.54359q-0.002-.49512-0.02019-0.99a2.612,2.612,0,0,0-.23926-1.18294A10.218,10.218,0,0,1,194.50451,173.00944Z" transform="translate(0 0.00001)"/><path class="cls-2" d="M183.329,149.27489c-1.09871,0-2.10857.451-3.17986,0.37976a6.94161,6.94161,0,0,0-1.18423.00509,8.203,8.203,0,0,0-4.40108,2.16353,10.45879,10.45879,0,0,0-3.01431,3.83633,12.45634,12.45634,0,0,0-.75131,3.403q-0.0718.768-.07285,1.54063c0,3.06279,1.18048,5.94,2.35236,8.71628l2.35558,5.58057a1.74962,1.74962,0,0,0,2.02216,1.22263,61.54528,61.54528,0,0,0,11.81046-.49661,0.78165,0.78165,0,0,0,.38977-0.12814,0.74473,0.74473,0,0,0,.21114-0.37788c0.45386-1.46378.48969-2.994,0.835-4.47775,0.33871-1.45557,1.13429-2.74438,1.61015-4.15448a15.13646,15.13646,0,0,0-2.99525-14.21633A7.8248,7.8248,0,0,0,183.329,149.27489Z" transform="translate(0 0.00001)"/><path class="cls-3" d="M177.21186,152.1935a12.58932,12.58932,0,0,0-2.2291,1.8494,3.65925,3.65925,0,0,0-.46442,1.068,10.1644,10.1644,0,0,0,.38165,6.08384,28.76619,28.76619,0,0,0,2.83932,5.48987,24.95793,24.95793,0,0,0,2.38347,3.41458c0.53142,0.6071,1.11906,1.16344,1.64384,1.77631a11.61185,11.61185,0,0,1,2.548,5.2238q2.1519,0.055,4.3047-.00571a0.71362,0.71362,0,0,0,.83556-0.71819q0.55948-2.53306.88425-5.11038a8.27166,8.27166,0,0,1,.39243-1.94064,16.2049,16.2049,0,0,1,1.12749-2.00206c1.28319-2.30475,1.23466-5.08982,1.15207-7.7264a5.34451,5.34451,0,0,0-1.24751-3.83151l-1.748-2.4963a11.93218,11.93218,0,0,0-1.79849-2.17866,8.61623,8.61623,0,0,0-5.5488-1.84679,6.464,6.464,0,0,0-3.32657.63042C178.4457,150.41067,177.972,151.50045,177.21186,152.1935Z" transform="translate(0 0.00001)"/><path class="cls-4" d="M175.71671,155.90451a9.71786,9.71786,0,0,0-.28706,2.42676c-0.03352,4.4,1.76022,8.577,3.36478,12.67416a16.30551,16.30551,0,0,1,.8324,2.54831,17.13983,17.13983,0,0,1,.245,3.58727,32.99234,32.99234,0,0,1,4.80278-.08659l0.30276-3.35229a75.92017,75.92017,0,0,0,.3867-14.33228,15.1375,15.1375,0,0,0-1.41138-5.50961,7.27611,7.27611,0,0,0-3.32283-3.31834,1.055,1.055,0,0,0-1.02216-.148,5.34212,5.34212,0,0,0-.93417.88627,14.66858,14.66858,0,0,0-1.69563,1.98878A8.48088,8.48088,0,0,0,175.71671,155.90451Z" transform="translate(0 0.00001)"/><g class="cls-5"><path class="cls-6" d="M184.258,149.49066a10.07819,10.07819,0,0,1,.95544.81767c0.583,0.55147,1.35664,1.39271,2.30292,2.38085a12.964,12.964,0,0,1,1.418,1.72271,9.02976,9.02976,0,0,1,1.093,2.26237,9.89121,9.89121,0,0,1,.47124,2.64589,13.77129,13.77129,0,0,1-.21469,2.75533c-0.15666.89825-.3103,1.8081-0.52007,2.68269l-0.57376,2.5759c-0.19083.85014-.41257,1.63622-0.60875,2.39938-0.19766.76-.39482,1.47343-0.52689,2.13853a9.803,9.803,0,0,0-.20825,1.83261,12.0881,12.0881,0,0,0,.08122,1.42987l0.15425,1.24545s-0.10551-.44431-0.2446-1.23294a12.216,12.216,0,0,1-.16537-1.43906,8.5094,8.5094,0,0,1,.12318-1.88309c0.11084-.683.284-1.40732,0.45422-2.17227l0.5425-2.39951c0.1763-.83743.35844-1.70274,0.54353-2.582,0.19994-.87616.3378-1.7692,0.48668-2.67094a13.33561,13.33561,0,0,0,.24049-2.66464,9.47032,9.47032,0,0,0-.42192-2.53863,9.82862,9.82862,0,0,0-.98914-2.196,12.65847,12.65847,0,0,0-1.32915-1.73481c-0.91682-1.019-1.62067-1.91968-2.173-2.49378C184.60547,149.78923,184.258,149.49066,184.258,149.49066Z" transform="translate(0 0.00001)"/></g><g class="cls-7"><path class="cls-6" d="M177.20664,154.91084a0.385,0.385,0,0,0,.06717.05883,0.50964,0.50964,0,0,0,.17747.07006c0.1432,0.03334.36134,0.04022,0.60252,0.10516a2.23585,2.23585,0,0,1,.61.26944,1.29508,1.29508,0,0,1,.25383.20863,1.29508,1.29508,0,0,1-.32455.05109,2.23466,2.23466,0,0,1-.66243-0.07709,2.54915,2.54915,0,0,1-.33948-0.12364,0.84875,0.84875,0,0,1-.29337-0.21389,0.40781,0.40781,0,0,1-.10818-0.25074A0.27414,0.27414,0,0,1,177.20664,154.91084Z" transform="translate(0 0.00001)"/><path class="cls-6" d="M178.751,157.97637a1.40564,1.40564,0,0,1,.36974-0.06938,2.42644,2.42644,0,0,1,1.501.40794,1.41341,1.41341,0,0,1,.28337.24778,1.93815,1.93815,0,0,1-.37241.00624,3.99207,3.99207,0,0,1-.75088-0.12942,4.03447,4.03447,0,0,1-.71275-0.2696A1.99109,1.99109,0,0,1,178.751,157.97637Z" transform="translate(0 0.00001)"/><path class="cls-6" d="M180.61393,162.58049a1.51962,1.51962,0,0,1-.10889.341,2.71673,2.71673,0,0,1-.93225,1.12425,1.50894,1.50894,0,0,1-.31555.16946,1.5094,1.5094,0,0,1,.10841-0.34138,2.71672,2.71672,0,0,1,.93318-1.12347A1.51975,1.51975,0,0,1,180.61393,162.58049Z" transform="translate(0 0.00001)"/><path class="cls-6" d="M182.34388,167.93751a0.91312,0.91312,0,0,1-.03378.26306,1.31806,1.31806,0,0,1-.61481.79767,0.154,0.154,0,1,1-.2131-0.16446,1.31812,1.31812,0,0,1,.6158-0.79694A0.91275,0.91275,0,0,1,182.34388,167.93751Z" transform="translate(0 0.00001)"/><path class="cls-6" d="M186.251,169.833a1.14288,1.14288,0,0,1,.29845-0.05876,1.85506,1.85506,0,0,1,1.16077.31032,0.16968,0.16968,0,1,1-.06966.26,1.85505,1.85505,0,0,1-1.16048-.31149A1.14378,1.14378,0,0,1,186.251,169.833Z" transform="translate(0 0.00001)"/><path class="cls-6" d="M186.30468,163.05923a0.88109,0.88109,0,0,1,.24326-0.14519,1.35349,1.35349,0,0,1,1.106.03751,0.89057,0.89057,0,0,1,.23264.16219,1.14194,1.14194,0,0,1-.25951.10565,1.78553,1.78553,0,0,1-1.0708-.03751A1.17294,1.17294,0,0,1,186.30468,163.05923Z" transform="translate(0 0.00001)"/><path class="cls-6" d="M186.13366,157.1398a0.15676,0.15676,0,0,1-.06319-0.08384,0.33678,0.33678,0,0,1,.06837-0.28421,0.89923,0.89923,0,0,1,.2728-0.2422,2.81146,2.81146,0,0,1,.31474-0.1763,2.32635,2.32635,0,0,1,.65327-0.19129,1.33558,1.33558,0,0,1,.3343-0.00587,1.33508,1.33508,0,0,1-.22165.25034,2.32693,2.32693,0,0,1-.56984.37235,2.81476,2.81476,0,0,1-.33852.12473c-0.121.03581-.19122,0.04233-0.26855,0.06981a0.32364,0.32364,0,0,0-.1523.08721A0.15405,0.15405,0,0,0,186.13366,157.1398Z" transform="translate(0 0.00001)"/><path class="cls-6" d="M184.8368,154.55408a0.83855,0.83855,0,0,1,.1514-0.26833,1.34377,1.34377,0,0,1,1.13667-.49119,0.86093,0.86093,0,0,1,.29924.0745,1.67991,1.67991,0,0,1-.23433.18675,3.25436,3.25436,0,0,1-.50752.27581,3.3101,3.3101,0,0,1-.54916.17956A1.81246,1.81246,0,0,1,184.8368,154.55408Z" transform="translate(0 0.00001)"/><path class="cls-6" d="M190.41005,154.73746a0.90591,0.90591,0,0,1,.08832-0.24876,1.30222,1.30222,0,0,1,.76677-0.64309,0.15354,0.15354,0,1,1,.17287.20636,1.3021,1.3021,0,0,1-.76755.64215A0.90565,0.90565,0,0,1,190.41005,154.73746Z" transform="translate(0 0.00001)"/><path class="cls-6" d="M192.12449,158.22434a1.872,1.872,0,0,1,.09454-0.39037,3.52049,3.52049,0,0,1,.90935-1.396,1.858,1.858,0,0,1,.31953-0.2437,1.85834,1.85834,0,0,1-.094.3907,3.52046,3.52046,0,0,1-.91035,1.39533A1.87124,1.87124,0,0,1,192.12449,158.22434Z" transform="translate(0 0.00001)"/><path class="cls-6" d="M191.63733,159.77161a1.93476,1.93476,0,0,1,.39777-0.09486,3.66243,3.66243,0,0,1,1.69138.16863,1.92017,1.92017,0,0,1,.371.17239,1.92023,1.92023,0,0,1-.3978.09546,3.66215,3.66215,0,0,1-1.69125-.16984A1.93426,1.93426,0,0,1,191.63733,159.77161Z" transform="translate(0 0.00001)"/><path class="cls-6" d="M191.814,164.58531a0.41914,0.41914,0,0,1,.10124-0.07011,0.58924,0.58924,0,0,1,.3322-0.03963,1.39162,1.39162,0,0,1,.42441.13815c0.13763,0.06313.26665,0.13593,0.40363,0.202,0.26715,0.14323.5341,0.29077,0.7365,0.41953a3.43187,3.43187,0,0,1,.33958.23734,1.42724,1.42724,0,0,1-.42349.01843,2.3555,2.3555,0,0,1-.87044-0.26048,2.71286,2.71286,0,0,1-.40276-0.26682c-0.11452-.091-0.21-0.17349-0.29681-0.23549A0.70984,0.70984,0,0,0,191.814,164.58531Z" transform="translate(0 0.00001)"/><path class="cls-6" d="M190.65159,168.95274a2.97614,2.97614,0,0,1,.38725.03326c0.22183,0.03146.50037,0.08815,0.77434,0.15536,0.2733,0.07.54558,0.151,0.75589,0.22841a2.8012,2.8012,0,0,1,.35693.15433,1.31775,1.31775,0,0,1-.381.11378,2.16673,2.16673,0,0,1-1.61121-.40538A1.2959,1.2959,0,0,1,190.65159,168.95274Z" transform="translate(0 0.00001)"/><path class="cls-6" d="M180.2687,173.24676a1.77443,1.77443,0,0,1,.3699-0.12384,3.29832,3.29832,0,0,1,1.61136.04375,1.76275,1.76275,0,0,1,.3625.14462,1.76163,1.76163,0,0,1-.36992.12447,3.29863,3.29863,0,0,1-1.61133-.045A1.77446,1.77446,0,0,1,180.2687,173.24676Z" transform="translate(0 0.00001)"/><path class="cls-6" d="M176.81353,172.10531a1.76952,1.76952,0,0,1-.337.112,3.41525,3.41525,0,0,1-.7179.08495,3.38042,3.38042,0,0,1-.71941-0.06992,1.731,1.731,0,0,1-.33919-0.10587,1.325,1.325,0,0,1,.31975-0.16261,2.25916,2.25916,0,0,1,1.47075-.01414A1.31842,1.31842,0,0,1,176.81353,172.10531Z" transform="translate(0 0.00001)"/><path class="cls-6" d="M174.29357,171.13536a1.90394,1.90394,0,0,1-.405-0.01688,3.59263,3.59263,0,0,1-1.56442-.62152,1.89064,1.89064,0,0,1-.30576-0.26643,1.8902,1.8902,0,0,1,.40524.01633,3.59283,3.59283,0,0,1,1.564.62265A1.90512,1.90512,0,0,1,174.29357,171.13536Z" transform="translate(0 0.00001)"/><path class="cls-6" d="M172.98433,167.15a0.22378,0.22378,0,0,0-.10262.002,2.07541,2.07541,0,0,1-.27567.04173,3.38157,3.38157,0,0,1-1.61078-.26469,1.7972,1.7972,0,0,1-.34418-0.19308,1.79576,1.79576,0,0,1,.38794-0.07251,3.38175,3.38175,0,0,1,1.61058.26588,1.91521,1.91521,0,0,1,.25446.13268A0.18914,0.18914,0,0,1,172.98433,167.15Z" transform="translate(0 0.00001)"/><path class="cls-6" d="M174.93549,164.92732a0.93189,0.93189,0,0,1-.25314.144,1.45647,1.45647,0,0,1-1.14487-.03851,0.94068,0.94068,0,0,1-.24268-0.16153,1.18337,1.18337,0,0,1,.268-0.10646,1.90533,1.90533,0,0,1,1.11256.03864A1.2133,1.2133,0,0,1,174.93549,164.92732Z" transform="translate(0 0.00001)"/><path class="cls-6" d="M171.12034,162.57627c0.00983-.00205.01469-0.04124-0.05032-0.04242-0.02461-.00375-0.043.01528-0.101,0.02075-0.048.009-.1022,0.01932-0.16058,0.0248a3.57392,3.57392,0,0,1-1.6657-.21009,1.88134,1.88134,0,0,1-.36166-0.18141,1.88174,1.88174,0,0,1,.39545-0.08564,3.574,3.574,0,0,1,1.66554.2113c0.05519,0.01984.10509,0.04329,0.14935,0.064a0.37426,0.37426,0,0,1,.12981.079,0.10339,0.10339,0,0,1,.02856.102A0.03264,0.03264,0,0,1,171.12034,162.57627Z" transform="translate(0 0.00001)"/><path class="cls-6" d="M173.6532,159.7505a1.76323,1.76323,0,0,1-.388.02255,3.27233,3.27233,0,0,1-1.53673-.46441,1.75017,1.75017,0,0,1-.31023-0.23452,1.75091,1.75091,0,0,1,.38821-0.02313,3.27249,3.27249,0,0,1,1.53638.46562A1.76254,1.76254,0,0,1,173.6532,159.7505Z" transform="translate(0 0.00001)"/><path class="cls-6" d="M171.93773,156.2275a1.56537,1.56537,0,0,1-.43942-0.01414,2.63548,2.63548,0,0,1-1.61012-.9242,1.585,1.585,0,0,1-.23322-0.37293,3.40856,3.40856,0,0,1,.40009.16172c0.22725,0.10538.51038,0.2558,0.78748,0.4135,0.2757,0.16014.548,0.32951,0.75369,0.47248A3.58849,3.58849,0,0,1,171.93773,156.2275Z" transform="translate(0 0.00001)"/><path class="cls-6" d="M174.10056,156.00849a1.41935,1.41935,0,0,1-.39307.00245,2.42844,2.42844,0,0,1-1.46307-.73546,1.43321,1.43321,0,0,1-.23193-0.31762,2.2995,2.2995,0,0,1,.37686.09077,5.29753,5.29753,0,0,1,.73334.30308,5.367,5.367,0,0,1,.68021.40883A2.38229,2.38229,0,0,1,174.10056,156.00849Z" transform="translate(0 0.00001)"/><path class="cls-6" d="M173.78713,153.82106a4.21938,4.21938,0,0,1-.56882-0.23944,8.83385,8.83385,0,0,1-2.16191-1.53377,4.18562,4.18562,0,0,1-.41336-0.45844,4.1818,4.1818,0,0,1,.56915.23894,8.83494,8.83494,0,0,1,2.16122,1.53476A4.22,4.22,0,0,1,173.78713,153.82106Z" transform="translate(0 0.00001)"/><path class="cls-6" d="M175.37078,151.99593a1.82517,1.82517,0,0,1-.28745-0.27241,3.41126,3.41126,0,0,1-.73891-1.46378,1.81058,1.81058,0,0,1-.04762-0.39334,1.81052,1.81052,0,0,1,.288.27214,3.41152,3.41152,0,0,1,.73781,1.46435A1.82449,1.82449,0,0,1,175.37078,151.99593Z" transform="translate(0 0.00001)"/><path class="cls-6" d="M187.37272,150.9009a0.57162,0.57162,0,0,0,.30548-0.09539,1.7323,1.7323,0,0,0,.43468-0.46976,1.87792,1.87792,0,0,1,.30248-0.3113,1.2435,1.2435,0,0,1,.71664-0.25071,2.70939,2.70939,0,0,1-.22079.29059c-0.14311.16175-.26291,0.33184-0.43037,0.56149l-0.14749.16476a1.07337,1.07337,0,0,1-.18184.14783,0.76186,0.76186,0,0,1-.41263.12809,0.47573,0.47573,0,0,1-.29033-0.08588A0.35025,0.35025,0,0,1,187.37272,150.9009Z" transform="translate(0 0.00001)"/><path class="cls-6" d="M189.54506,172.52267a0.98253,0.98253,0,0,1,.30585.19632,1.6129,1.6129,0,0,1,.50856,1.41689,1.01033,1.01033,0,0,1-.112.346,3.03052,3.03052,0,0,1-.1553-0.31473c-0.0797-.18278-0.16861-0.41394-0.25252-0.64458-0.08145-.23148-0.15913-0.46683-0.214-0.65851A3.41706,3.41706,0,0,1,189.54506,172.52267Z" transform="translate(0 0.00001)"/></g><path class="cls-8" d="M181.05961,175.82119a8.65093,8.65093,0,0,0-2.41753-.16747c0.2767,0.87656.74947,1.68007,1.0426,2.55127a13.21671,13.21671,0,0,1,.5078,2.72221c0.33549,2.92053.67113,5.84251,0.85974,8.77618a4.26819,4.26819,0,0,1-.10838,1.61928,7.64236,7.64236,0,0,1-.90851,1.53229,1.944,1.944,0,0,0-.31755,1.69138q3.34154,0.092,6.68268-.106a10.949,10.949,0,0,0,3.12379-.51376,4.07242,4.07242,0,0,0,2.36095-2.00117,6.12441,6.12441,0,0,0,.40511-1.55762l2.02506-12.05367c0.01083-.08672.02907-0.17317,0.04341-0.2594a21.09381,21.09381,0,0,0,.29417-2.37866c0.01959-.38383-0.00233-0.76653.0247-1.14861q0.043-.60748.06822-1.21609a0.20265,0.20265,0,0,0-.06924-0.19931,0.68092,0.68092,0,0,1-.20346.39792,1.857,1.857,0,0,1-.47792.21068q-0.26413.10954-.52872,0.21815-0.53.21732-1.06277,0.42744c-0.71.27867-1.42577,0.54335-2.15125,0.77914a18.83176,18.83176,0,0,1-4.43936.93243A22.55748,22.55748,0,0,1,181.05961,175.82119Z" transform="translate(0 0.00001)"/><path class="cls-9" d="M192.29033,190.36779a6.12441,6.12441,0,0,1-.40511,1.55762,4.07242,4.07242,0,0,1-2.36095,2.00117,10.949,10.949,0,0,1-3.12379.51376q-3.33694.19791-6.68268,0.106a1.944,1.944,0,0,1,.31755-1.69138,7.64236,7.64236,0,0,0,.90851-1.53229,4.26819,4.26819,0,0,0,.10838-1.61928c-0.07611-1.18381-.17624-2.36594-0.2905-3.54662-0.09535-.98529-0.363-2.03185.72324-2.56007a4.07849,4.07849,0,0,1,1.62872-.294l7.6665-.32085,1.64729-.069a2.10285,2.10285,0,0,1,1.02965.12976C193.29184,185.48541,192.69581,187.95167,192.29033,190.36779Z" transform="translate(0 0.00001)"/><path class="cls-1" d="M172.31951,180.31028c0.56889,1.826.90831,3.71136,1.30606,5.57909,0.3989,1.87314.965,3.69112,1.46086,5.53732a8.3526,8.3526,0,0,0,.24712.80975,6.28,6.28,0,0,0,.58411,1.11826,2.553,2.553,0,0,0,1.17809,1.13028,5.397,5.397,0,0,0,1.7254.08838c0.60429,0.00412,1.20859.00909,1.8129,0.00909h1.33388a31.29065,31.29065,0,0,1-.36671-3.22813,13.79719,13.79719,0,0,0-.11932-1.73061c-0.03-.17337-0.06956-0.34512-0.09331-0.51947-0.03516-.258-0.01407-0.51828-0.03789-0.77359-0.02586-.27722-0.04417-0.55524-0.06953-0.83253-0.05185-.56688-0.11234-1.133-0.177-1.69853-0.12671-1.10718-.26984-2.21239-0.39738-3.31947-0.17818-1.54659-.3316-3.09845-0.36507-4.65588-0.03008-1.39925.17226-1.96452-1.4407-2.20979-0.74336-.113-1.50081.15573-2.24-0.01373a1.37193,1.37193,0,0,1-.586-0.27611,3.31318,3.31318,0,0,1-.48187-0.597,12.96013,12.96013,0,0,1-.8185-1.38985,1.38914,1.38914,0,0,1-.17857-0.45822c-0.13658-.003-0.27293.00507-0.40942,0.01083a5.07913,5.07913,0,0,0-2.73853.413C169.60209,174.56443,171.81572,178.69332,172.31951,180.31028Z" transform="translate(0 0.00001)"/><path class="cls-10" d="M181.23,149.15576a0.10236,0.10236,0,1,1-.20061.032,8.85349,8.85349,0,0,1-.83328-2.43184,2.28607,2.28607,0,0,0-.21559-0.74135,0.66509,0.66509,0,0,0-.63374-0.36278,0.64237,0.64237,0,0,0-.48451.6079,1.60345,1.60345,0,0,0,.21638.80121,7.23328,7.23328,0,0,0,1.58929,2.11956,0.71009,0.71009,0,0,1-.61935-0.3311l-1.538-1.73036a1.35043,1.35043,0,0,0-.67168-0.493,2.68054,2.68054,0,0,0,.09824,1.629,2.13693,2.13693,0,0,0,.59727.66387,5.393,5.393,0,0,0,1.25983.74361l-2.75581.01064a0.23087,0.23087,0,0,0-.12914.02592,0.15817,0.15817,0,0,0-.01553.22088,0.44153,0.44153,0,0,0,.20978.1264,7.61852,7.61852,0,0,0,3.12088.43672,1.17577,1.17577,0,0,0-.79024.736,2.318,2.318,0,0,0-.08334.78279,2.437,2.437,0,0,0,.21338,1.19466,6.65524,6.65524,0,0,0,.81354-1.16981,2.23421,2.23421,0,0,0,.24866-1.38082,5.15588,5.15588,0,0,1,.49417,1.34841,2.108,2.108,0,0,0,.74568,1.19938,12.7054,12.7054,0,0,0-.23717-2.47419l0.912,0.748a2.10011,2.10011,0,0,0,1.55891.669,4.7605,4.7605,0,0,0-2.64977-2.14414,6.79892,6.79892,0,0,1,3.44136-.48711,0.2,0.2,0,0,0-.03174-0.281h0l-0.015-.01088a0.5775,0.5775,0,0,0-.32405-0.07766,5.60219,5.60219,0,0,0-2.594.31792,6.42821,6.42821,0,0,1,.95908-0.67591,2.2,2.2,0,0,0,.48132-1.67824,1.44761,1.44761,0,0,1-.66475,1.13714,5.36,5.36,0,0,0-1.05473.86814,7.38643,7.38643,0,0,1,.93269-2.326,2.56354,2.56354,0,0,0-.031-2.05986A11.261,11.261,0,0,0,181.23,149.15576Z" transform="translate(0 0.00001)"/><path class="cls-11" d="M181.20789,149.42433a0.09556,0.09556,0,1,1-.18727.02979,8.26464,8.26464,0,0,1-.77789-2.2702,2.134,2.134,0,0,0-.20125-0.69207,0.62089,0.62089,0,0,0-.59161-0.33867,0.59966,0.59966,0,0,0-.4523.5675,1.497,1.497,0,0,0,.202.748,6.75216,6.75216,0,0,0,1.48366,1.97869,0.66283,0.66283,0,0,1-.5782-0.3091l-1.43575-1.61529a1.26057,1.26057,0,0,0-.627-0.46026,2.50239,2.50239,0,0,0,.09171,1.52077,1.99467,1.99467,0,0,0,.55759.61977,5.03481,5.03481,0,0,0,1.17609.6942l-2.57263.00992a0.21563,0.21563,0,0,0-.12054.02421,0.14764,0.14764,0,0,0-.0145.20619,0.41207,0.41207,0,0,0,.19583.118,7.11219,7.11219,0,0,0,2.91345.40767,1.09757,1.09757,0,0,0-.73772.68706,2.1639,2.1639,0,0,0-.0778.73075,2.27507,2.27507,0,0,0,.1992,1.11525,6.21163,6.21163,0,0,0,.75948-1.092,2.0858,2.0858,0,0,0,.23212-1.28906,4.81256,4.81256,0,0,1,.46133,1.2588,1.96793,1.96793,0,0,0,.69611,1.11966,11.86048,11.86048,0,0,0-.22139-2.30975l0.85136,0.69829a1.96053,1.96053,0,0,0,1.45531.6245,4.44408,4.44408,0,0,0-2.47365-2.00166,6.34712,6.34712,0,0,1,3.21263-.45473,0.18671,0.18671,0,0,0-.02965-0.26236h0l-0.014-.01015a0.53909,0.53909,0,0,0-.30251-0.0725,5.22965,5.22965,0,0,0-2.42162.29679,6.00056,6.00056,0,0,1,.89532-0.631,2.05373,2.05373,0,0,0,.44934-1.5667,1.35139,1.35139,0,0,1-.62056,1.06157,5.00369,5.00369,0,0,0-.98463.81046,6.89514,6.89514,0,0,1,.8707-2.17141,2.39312,2.39312,0,0,0-.02888-1.92294A10.512,10.512,0,0,0,181.20789,149.42433Z" transform="translate(0 0.00001)"/><path class="cls-12" d="M210.3361,18.37009C206.22084,9.69279,198.02363,2.2096,187.902.43024c-12.23669-2.15094-18.78091,4.10758-28.548,11.10952-9.76459,7.00311-26.56407,31.15341-38.60764,33.94828C99.21121,50.49135,79.65351,26.63776,57.419,25.55657c-14.51808-.7066-29.707,8.26858-39.6925,17.992-29.93,29.14377-21.17724,93.529,20.35,111.33031C71.60462,169.25434,119.681,176.392,150.354,157.78867c29.26038-17.7458,58.493-72.1113,63.11942-104.081q0.55259-3.76638.8273-7.51507C214.99751,36.78344,214.45146,27.0474,210.3361,18.37009Z" transform="translate(0 0.00001)"/><path class="cls-13" d="M135.59536,153.87066a5.49943,5.49943,0,0,0,5.38516-5.60451v-124.77a5.49946,5.49946,0,0,0-5.38516-5.60484H55.49468a5.49911,5.49911,0,0,0-5.38925,5.60484v124.77a5.49909,5.49909,0,0,0,5.38925,5.60449h80.10069Z" transform="translate(0 0.00001)"/><path class="cls-14" d="M60.33457,22.42342H130.748a5.774,5.774,0,0,1,5.774,5.774h0V133.303a5.774,5.774,0,0,1-5.774,5.774H60.33866a5.77644,5.77644,0,0,1-5.77644-5.77644h0V28.19577a5.77235,5.77235,0,0,1,5.77235-5.77235h0Z" transform="translate(0 0.00001)"/><circle class="cls-15" cx="95.54358" cy="146.44042" r="4.81853"/><rect class="cls-16" x="62.16034" y="37.63477" width="32.35846" height="42.49638"/><rect class="cls-16" x="98.17609" y="37.63477" width="32.35847" height="42.49638"/><rect class="cls-16" x="62.10901" y="89.54203" width="32.35929" height="42.49521"/><rect class="cls-16" x="98.12392" y="89.54203" width="32.3593" height="42.49521"/><path class="cls-17" d="M112.05192,56.245L100.354,52.23482l-12.90349,9.252L74.80131,98.38687l28.79013,9.86808L116.2422,71.35531ZM99.77032,72.48a5.70342,5.70342,0,1,1,7.244-3.54722l-0.00041.00122a5.70756,5.70756,0,0,1-7.24355,3.546h0Z" transform="translate(0 0.00001)"/><path class="cls-18" d="M103.22872,64.05587c-0.02689,0-.0546-0.00042-0.08154-0.00125a2.80143,2.80143,0,0,1-2.49332-1.7161c-0.71069-1.84538-.25105-4.388.08479-6.24434A61.45061,61.45061,0,0,1,104.854,42.9837c0.31624-.74291.62431-1.49158,0.93321-2.24183a44.353,44.353,0,0,1,5.2507-10.15177c1.03679-1.36563,2.15512-2.70523,3.23589-4.00042,0.76537-.91568,1.52989-1.831,2.26913-2.75939l0.6562,0.52366c-0.74341.93329-1.51035,1.85348-2.27982,2.7745-1.07585,1.28784-2.18681,2.61926-3.2106,3.96987a43.66167,43.66167,0,0,0-5.14388,9.96348c-0.30972.75309-.62114,1.50543-0.93738,2.25118a60.54008,60.54008,0,0,0-4.06151,12.93078c-0.30072,1.65951-.75394,4.16709-0.12712,5.79313a1.96647,1.96647,0,0,0,1.73363,1.17826,1.2796,1.2796,0,0,0,1.26906-.7772l0.76537,0.34971A2.096,2.096,0,0,1,103.22872,64.05587Z" transform="translate(0 0.00001)"/><path class="cls-19" d="M110.52037,55.66184l-0.74574-.38589c1.1916-2.30669,2.5903-4.57631,3.94249-6.77049a85.87379,85.87379,0,0,0,4.703-8.30839l1.01959-2.16163c0.7002-1.48265,1.39711-2.95954,2.0932-4.4487,0.27058-.57949.51262-1.19812,0.76778-1.85348a18.46,18.46,0,0,1,1.5592-3.33529l-0.13448-.357c0.04482-.01628.08231-0.03422,0.11736-0.0505a0.86936,0.86936,0,0,1,.71078-0.06969l0.54852,0.17886-0.339.46706a15.7847,15.7847,0,0,0-1.679,3.47176c-0.24947.63908-.50778,1.2997-0.78983,1.90447-0.69691,1.48958-1.39384,2.96772-2.09477,4.45154l-1.019,2.16069a86.53783,86.53783,0,0,1-4.74783,8.39086C113.08872,51.12751,111.69821,53.38328,110.52037,55.66184Z" transform="translate(0 0.00001)"/><text class="cls-20" transform="translate(79.45286 93.13421) rotate(21.63618)">%</text><polygon class="cls-21" points="51.903 21.156 54.248 16.488 137.706 16.488 138.427 21.156 51.903 21.156"/><path class="cls-22" d="M51.90264,21.15645V37.62008a6.24346,6.24346,0,0,0,12.48692.00557V21.15645H51.90264Z" transform="translate(0 0.00001)"/><path class="cls-17" d="M64.24209,21.15645V37.62008a6.24426,6.24426,0,0,0,12.48851,0V21.15645H64.24209Z" transform="translate(0 0.00001)"/><path class="cls-23" d="M76.58395,21.15645V37.62008a6.24263,6.24263,0,0,0,12.48524.01942V21.15645H76.58395Z" transform="translate(0 0.00001)"/><path class="cls-17" d="M88.92251,21.15645V37.62008a6.24346,6.24346,0,1,0,12.48692,0V21.15645H88.92251Z" transform="translate(0 0.00001)"/><path class="cls-24" d="M101.26116,21.15645V37.62008a6.24267,6.24267,0,0,0,12.48534.00949V21.15645H101.26116Z" transform="translate(0 0.00001)"/><path class="cls-17" d="M113.60136,21.15645V37.62008a6.24429,6.24429,0,1,0,12.48859,0h0V21.15645H113.60136Z" transform="translate(0 0.00001)"/><path class="cls-25" d="M125.94163,21.15645V37.62008a6.24267,6.24267,0,0,0,12.48534.00976V21.15645H125.94163Z" transform="translate(0 0.00001)"/><path class="cls-26" d="M143.41683,67.80481h64.14235a2.41753,2.41753,0,0,1,2.41753,2.41753h0v42.91335a2.41828,2.41828,0,0,1-2.41827,2.41828H143.41767a2.41837,2.41837,0,0,1-2.41837-2.41836h0V70.22233A2.41753,2.41753,0,0,1,143.41683,67.80481Z" transform="translate(0 0.00001)"/><rect class="cls-27" x="140.99931" y="93.23437" width="68.9774" height="10.83601"/><rect class="cls-28" x="150.10204" y="71.94095" width="41.10103" height="3.42819"/><rect class="cls-29" x="150.10204" y="81.38311" width="15.71545" height="6.2859"/><rect class="cls-30" x="179.40079" y="81.38311" width="25.81097" height="6.2859"/><path class="cls-31" d="M159.21217,103.098a5.13764,5.13764,0,0,1-1.83153-1.61953c-0.55177-.96175-0.86887-1.48265-0.09373-1.85431a1.06215,1.06215,0,0,1,1.29436-.06435c1.036,0.48818.36031,0.00651,1.49809,2.67017Z" transform="translate(0 0.00001)"/><path class="cls-32" d="M156.29177,87.71708a21.02631,21.02631,0,0,0-15.29247,6.57519V123.316A21.08514,21.08514,0,1,0,156.29177,87.71708Z" transform="translate(0 0.00001)"/><path class="cls-33" d="M156.29011,88.95151a19.81366,19.81366,0,0,0-15.2908,7.20692v4.19681a17.47847,17.47847,0,1,1,0,16.89489v4.19923A19.84807,19.84807,0,1,0,156.29011,88.95151Z" transform="translate(0 0.00001)"/><path class="cls-17" d="M137.46554,51.31421h60.26212a8.21842,8.21842,0,0,1,8.21841,8.21842v0.9393a8.21841,8.21841,0,0,1-8.2184,8.21842H137.466a8.21676,8.21676,0,0,1-8.21675-8.21675h0V59.53055a8.21634,8.21634,0,0,1,8.21632-8.21634h0Z" transform="translate(0 0.00001)"/><polygon class="cls-34" points="137.737 55.212 139.295 58.366 142.774 58.872 140.255 61.327 140.85 64.792 137.737 63.156 134.623 64.792 135.219 61.327 132.7 58.872 136.181 58.366 137.737 55.212"/><polygon class="cls-35" points="149.939 55.212 151.495 58.366 154.976 58.872 152.46 61.327 153.053 64.792 149.939 63.156 146.825 64.792 147.421 61.327 144.903 58.872 148.382 58.366 149.939 55.212"/><polygon class="cls-36" points="162.14 55.212 163.697 58.366 167.179 58.872 164.659 61.327 165.254 64.792 162.14 63.156 159.03 64.792 159.624 61.327 157.104 58.872 160.586 58.366 162.14 55.212"/><polygon class="cls-37" points="174.344 55.212 175.902 58.366 179.381 58.872 176.863 61.327 177.458 64.792 174.344 63.156 171.23 64.792 171.826 61.327 169.309 58.872 172.789 58.366 174.344 55.212"/><polygon class="cls-38" points="186.546 55.212 188.103 58.366 191.583 58.872 189.066 61.327 189.66 64.792 186.546 63.156 183.434 64.792 184.029 61.327 181.509 58.872 184.989 58.366 186.546 55.212"/><polygon class="cls-39" points="198.749 55.212 200.306 58.366 203.785 58.872 201.268 61.327 201.863 64.792 198.749 63.156 195.637 64.792 196.231 61.327 193.712 58.872 197.192 58.366 198.749 55.212"/><ellipse class="cls-40" cx="124.0329" cy="192.05628" rx="67.57013" ry="7.39885"/><path class="cls-17" d="M142.9522,134.71473l-6.39017.94873c-0.91534-6.16438-5.96558-10.54138-11.24883-9.75723-5.28258.78731-8.8428,6.44156-7.92748,12.60753l-7.58835,1.12567,4.35822,54.059,40.74155-6.05354Zm-17.28282-6.413c3.96452-.5885,7.77422,2.874,8.49467,7.71956l-14.37955,2.1347c-0.71887-4.84474,1.91875-9.26489,5.88487-9.85423h0v0Z" transform="translate(0 0.00001)"/><path class="cls-16" d="M147.63726,154.70771l-4.71111.70018c-0.6749-4.5441-4.39737-7.7693-8.29178-7.19148-3.89275.5779-6.51817,4.747-5.84245,9.29193l-5.59383.82971,3.21385,39.84657,30.029-4.46Zm-12.74123-4.7258c2.92206-.43526,5.73077,2.11914,6.26221,5.68755l-10.5968,1.57555c-0.53227-3.57,1.41252-6.82866,4.33458-7.263Z" transform="translate(0 0.00001)"/><path class="cls-41" d="M170.98352,155.443h-5.25565c0-5.06984-3.53819-9.19411-7.885-9.19411-4.34354,0-7.88181,4.12428-7.88181,9.19411h-6.23775l-2.958,44.01158h33.50284Zm-13.14062-7.22487c3.26109,0,5.91173,3.24156,5.91173,7.22487H151.93351c0-3.98331,2.65227-7.22487,5.90935-7.22487h0Z" transform="translate(0 0.00001)"/><path class="cls-17" d="M163.07064,110.98a4.07419,4.07419,0,0,0-6.06528-.4369,3.09437,3.09437,0,0,0-.84811,2.15883,3.42016,3.42016,0,0,0,.4883,1.72192,1.72735,1.72735,0,0,0,1.799.84811c0.3598-.1028.771-0.4112,0.4883-0.79671a2.77628,2.77628,0,0,1-.66821-1.41352,1.816,1.816,0,0,1,.8224-1.64482,1.47314,1.47314,0,0,1,1.77332.1799,2.14887,2.14887,0,0,1,.4883.92521c0.61681,2.13313-.4626,5.03726-2.95554,5.24286a2.26679,2.26679,0,0,1-2.41583-1.67052,9.09347,9.09347,0,0,1-.66821-3.70085v-6.16807h8.48109v-2.80133h-8.50681V99.2864a4.692,4.692,0,0,0-.7196-2.62143,3.84024,3.84024,0,0,0-4.88306-1.00231,3.03479,3.03479,0,0,0-.97661.82241,3.61407,3.61407,0,0,0-.74532,2.313h2.056a3.892,3.892,0,0,1,.23129-1.07941,1.286,1.286,0,0,1,.87381-0.79671c1.23363-.1542,1.41351,1.51632,1.41351,2.36443v4.13775H149.912v2.80133h2.57v6.91338a7.6487,7.6487,0,0,0,1.07942,4.16345c1.799,2.95554,6.68208,2.74993,8.8923.4112a5.44145,5.44145,0,0,0,1.46492-3.93215A4.36,4.36,0,0,0,163.07064,110.98Z" transform="translate(0 0.00001)"/><path class="cls-42" d="M52.95883,209.25211c-0.27118.568-3.41643-.4583-7.27724-2.43733-3.85991-1.98091-6.77034-4.04526-6.49813-4.61433,0.27164-.56783,3.62239.57719,7.48244,2.55666C50.52712,206.7363,53.23141,208.68468,52.95883,209.25211Z" transform="translate(0 0.00001)"/><path class="cls-43" d="M47.63427,200.75071a11.53869,11.53869,0,0,1-3.65946-2.68571c-3.21546,1.5135-2.25668,3.66855-1.29507,4.17088a15.89443,15.89443,0,0,1,3.4315,2.01921c2.359,1.66766,7.35481,3.58459,7.94467,2.667s-2.25073-4.20236-3.10774-4.97258A19.18212,19.18212,0,0,1,47.63427,200.75071Z" transform="translate(0 0.00001)"/><path class="cls-44" d="M49.3175,199.95725l4.70225-15.18416L48.613,183.0987l-3.73676,12.0666-0.00048-.00015-0.00207.00833-0.35848,1.15768c-0.51474,1.20045-1.31978,2.13506-1.33172,2.772-0.0156.83046,2.24654,2.35075,3.1074,2.91331,1.70591,1.11481,5.1192.52924,4.65731-.06686C50.70869,201.6404,49.972,200.74691,49.3175,199.95725Z" transform="translate(0 0.00001)"/><path class="cls-43" d="M39.31616,203.58817a11.53859,11.53859,0,0,1-4.35287-1.28732c-2.51268,2.51323-.88057,4.21609.19434,4.363a15.89376,15.89376,0,0,1,3.91261.73744c2.7844,0.77,8.13424.88129,8.37841-.18181s-3.54118-3.1915-4.60843-3.62589A19.1824,19.1824,0,0,1,39.31616,203.58817Z" transform="translate(0 0.00001)"/><path class="cls-44" d="M42.84031,203.59351c-0.34781-.221-1.435-0.86563-2.3506-1.40549V183.17273H34.82955v16.09451H34.82869l0.00085,0.00829v1.77626a8.01036,8.01036,0,0,0-.25915,2.4938c0.26663,0.78668,2.91007,1.45079,3.91058,1.68851C40.46369,205.70513,43.47677,203.998,42.84031,203.59351Z" transform="translate(0 0.00001)"/><path class="cls-45" d="M52.80649,99.7313c-2.063-2.57571-4.40247-5.15115-4.40247-5.15115L43.78561,90.224h0l-1.73418-2.14912-8.3075,5.3534a17.28137,17.28137,0,0,1-2.9078,9.054c-2.96213,4.29458.32861,11.41029,3.83887,12.26686l5.63868-6.1869,10.03768,3.455C52.141,110.18914,56.61624,104.48838,52.80649,99.7313Z" transform="translate(0 0.00001)"/><path class="cls-46" d="M62.03854,116.83505a4.04144,4.04144,0,0,1-.90333-0.07129L43.531,114.82007c-2.534-.37712-6.2401-4.09411-5.16227-6.41814a3.83611,3.83611,0,0,1,4.51478-2.08009L61.0963,110.2063Z" transform="translate(0 0.00001)"/><path class="cls-46" d="M60.30837,110.56687L76.12513,99.78025l2.20389,2.799L65.29169,115.49252c-2.27178,1.98533-6.57028,1.86823-7.52291-.99445h0C57.10869,112.51464,58.44448,111.51351,60.30837,110.56687Z" transform="translate(0 0.00001)"/><circle class="cls-46" cx="79.47664" cy="99.58808" r="3.58184" transform="translate(-32.4145 38.63979) rotate(-22.83065)"/><path class="cls-46" d="M78.262,96.21862l3.117-2.30647a0.61686,0.61686,0,0,1,.8497.05225h0a0.53142,0.53142,0,0,1-.00774.722l-2.88146,3.034Z" transform="translate(0 0.00001)"/><path class="cls-47" d="M49.11463,106.17917a24.21424,24.21424,0,0,1,8.03644,2.82321l-3.33152,7.47371-3.624-.92021Z" transform="translate(0 0.00001)"/><polygon class="cls-48" points="52.269 116.082 51.813 110.796 55.069 113.673 53.82 116.476 52.269 116.082"/><path class="cls-46" d="M21.67319,126.3179a4.04258,4.04258,0,0,1,.44259-0.79067l9.12938-15.177c1.40252-2.1439,6.329-3.95536,7.98906-2.0042a3.83614,3.83614,0,0,1,.00087,4.97085l-11.1468,14.918Z" transform="translate(0 0.00001)"/><path class="cls-47" d="M35.53569,106.64367a16.392,16.392,0,0,0-8.01688,7.21021l7.62054,6.11674s7.36208-6.48152,4.6378-12.21766Z" transform="translate(0 0.00001)"/><path class="cls-47" d="M36.04258,106.53179l7.57733-1.1868,5.49472,0.83423a4.50785,4.50785,0,0,1,3.69621,4.94564l-1.77915,17.6843H35.13932L32.2836,113.30259a7.28318,7.28318,0,0,1,.509-4.2812h0A4.28292,4.28292,0,0,1,36.04258,106.53179Z" transform="translate(0 0.00001)"/><polygon class="cls-48" points="33.679 120.877 36.548 116.882 35.139 128.809 33.679 120.877"/><path class="cls-47" d="M50.52384,109.56s3.61137,2.8652,3.47453,5.95087-4.375,5.09543-4.375,5.09543Z" transform="translate(0 0.00001)"/><path class="cls-46" d="M40.16712,105.88578l-2.13616.29341s1.06261,2.51746,5.67885,2.51816c3.86382,0.00061,3.47227-2.81156,3.47227-2.81156l-3.56216-.54082Z" transform="translate(0 0.00001)"/><path class="cls-49" d="M43.55532,141.95611l6.66174,19.68936L43.11669,189.7963c3.09166,0.74536,8.25832,1.80786,13.5688,2.76906L63.67158,163.57a6.31027,6.31027,0,0,0-.18916-3.884l-12.5605-30.88187-15.89231.05469Z" transform="translate(0 0.00001)"/><path class="cls-49" d="M45.63975,148.11658l-0.14788-7.0153a24.16369,24.16369,0,0,1,3.54964,17.06958Z" transform="translate(0 0.00001)"/><path class="cls-49" d="M35.13932,128.80912s-2.97622,1.85667-2.97622,11.03682c0,10.23911,1.24133,29.57742-2.23466,51.53865,4.7799,0.09457,9.30074.13625,13.69145,0.11676,0,0,4.10394-21.66156,2.68447-34.10211s0-19.24147,0-19.24147l-5.92244-4.877Z" transform="translate(0 0.00001)"/><path class="cls-45" d="M50.76891,91.8263A8.72836,8.72836,0,0,1,42.65823,100.81a8.55836,8.55836,0,0,1-.87309-17.09444C46.50563,83.47447,50.78021,86.499,50.76891,91.8263Z" transform="translate(0 0.00001)"/><path class="cls-46" d="M40.16712,105.521l0.02825-7.32687,5.25348,0.02373-0.02834,7.32687a2.62674,2.62674,0,0,1-2.63852,2.61491h0A2.62685,2.62685,0,0,1,40.16712,105.521Z" transform="translate(0 0.00001)"/><path class="cls-45" d="M39.37992,97.29251s1.19466,6.27749,6.04867,6.17679l0.02026-3.24154Z" transform="translate(0 0.00001)"/><path class="cls-50" d="M44.48457,101.87431h0c3.28474-.16778,5.871-2.286,5.70327-5.57079l-0.28845-5.6483c-0.1238-2.42383-2.90066-4.84253-4.33049-4.76951l-5.19306,1.74565A2.61072,2.61072,0,0,0,37.909,90.36389l0.28732,5.62625A6.57269,6.57269,0,0,0,44.48457,101.87431Z" transform="translate(0 0.00001)"/><circle class="cls-51" cx="43.99598" cy="94.02406" r="0.47346" transform="translate(-50.91296 136.07714) rotate(-88.82163)"/><circle class="cls-51" cx="48.3235" cy="93.76744" r="0.47342" transform="matrix(0.02057, -0.99979, 0.99979, 0.02057, -46.41811, 140.15193)"/><path class="cls-46" d="M46.581,94.92354l0.60124,0.9941s-0.04355.71913-1.07565,0.49631" transform="translate(0 0.00001)"/><path class="cls-51" d="M42.65258,92.70784a0.4449,0.4449,0,0,0,.08815.00078l2.1346-.20012a0.43359,0.43359,0,0,0-.08107-0.86337H44.79413l-2.1346.20021A0.43349,0.43349,0,0,0,42.65258,92.70784Z" transform="translate(0 0.00001)"/><path class="cls-51" d="M47.80339,92.3281a0.44137,0.44137,0,0,0,.0878.0007l1.305-.12223a0.43351,0.43351,0,0,0-.08043-0.86327h0l-1.30506.12223A0.43353,0.43353,0,0,0,47.80339,92.3281Z" transform="translate(0 0.00001)"/><path class="cls-52" d="M44.2175,97.62409l3.77819-.50127s-0.51465,1.59482-1.79816,1.67671A1.76231,1.76231,0,0,1,44.2175,97.62409Z" transform="translate(0 0.00001)"/><path class="cls-45" d="M47.48869,87.02915a26.59049,26.59049,0,0,1-11.2399,7.29923S34.90825,89.60339,38.584,86.64a6.303,6.303,0,0,1,6.96865-1.07034Z" transform="translate(0 0.00001)"/><path class="cls-45" d="M46.23169,86.71688a15.828,15.828,0,0,0,3.814,3.68142s-0.79928-4.09542-4.39186-4.64693Z" transform="translate(0 0.00001)"/><path class="cls-45" d="M40.2251,91.47361s0.89082,4.10724-1.14154,4.59747l-0.74312-3.89494Z" transform="translate(0 0.00001)"/><circle class="cls-50" cx="37.66204" cy="95.15107" r="2.14134" transform="translate(-4.80291 2.04424) rotate(-2.92287)"/><path class="cls-16" d="M49.84352,144.56646l-2.95554-.39854c0.38393-2.85355-1.29352-5.44142-3.73466-5.76993-2.44682-.33168-4.74858,1.71985-5.13409,4.57256l-3.50816-.47432-5.00455,24.53206,18.84534,2.54147Zm-6.83936-5.06075c1.83154,0.247,3.07771,2.2708,2.77451,4.51221l-6.65014-.8974C39.43167,140.87827,41.1703,139.25707,43.00416,139.50571Z" transform="translate(0 0.00001)"/><path class="cls-53" d="M47.17869,209.74445c-0.02412.62917-3.33975,1.02438-7.6965,0.85748-4.35675-.16827-7.86876-0.81381-7.84513-1.44376,0.02463-.62924,3.57594-1.00478,7.93295-0.83649C43.927,208.48859,47.20328,209.11522,47.17869,209.74445Z" transform="translate(0 0.00001)"/><path class="cls-46" d="M27.06341,126.13344l15.82765,11.88577-1.36426,2.73492-17.11662-8.13557c-2.70151-1.34309-4.23246-5.3615-1.9494-7.33374h0C24.04267,123.91816,25.47756,124.77137,27.06341,126.13344Z" transform="translate(0 0.00001)"/><circle class="cls-46" cx="42.78902" cy="139.38883" r="3.66107" transform="translate(-53.82301 30.18141) rotate(-24.43285)"/></svg>