<svg id="Capa_1" data-name="Capa 1" xmlns="http://www.w3.org/2000/svg" viewBox="0 0 307.508 341.75084"><defs><style>.cls-1{fill:#393;}</style></defs><title>punjabi</title><path class="cls-1" d="M264.49505,232.04954c-20.06387-27.94328-44.80471-47.21759-71.86489-56.48168l12.19917-68.34648A22.83623,22.83623,0,0,0,188.904,81.333V53.48988a7.36532,7.36532,0,0,0-14.73064,0V80.36741H135.82732V53.48988a7.36532,7.36532,0,0,0-14.73064,0V81.333a22.83445,22.83445,0,0,0-15.92529,25.8891l12.19918,68.34575c-27.06019,9.26336-51.801,28.53767-71.8649,56.4817C16.96433,271.7987,1.246,324.52334,1.246,380.51009a7.36564,7.36564,0,0,0,7.36532,7.36532H301.38868a7.36564,7.36564,0,0,0,7.36532-7.36532C308.754,324.52334,293.03567,271.7987,264.49505,232.04954ZM292.15036,348.292l-1.694-.9457a34.14815,34.14815,0,0,0-26.66615-2.91151c-4.08408-46.048-15.9901-88.28957-33.90111-119.861a161.17556,161.17556,0,0,0-13.66929-20.469C255.73033,231.615,284.71875,284.87363,292.15036,348.292ZM133.50579,189.20474c-4.006,8.86784-7.59586,20.76947-10.86237,35.8809-6.66635,30.84522-11.14815,72.6493-12.717,118.32238a34.5564,34.5564,0,0,0-11.32418,3.94265,19.78964,19.78964,0,0,1-19.1329.03682c-0.02062-.01178-0.0464-0.02724-0.0685-0.0383a34.29846,34.29846,0,0,0-18.266-4.35217c4.16067-43.40014,15.52462-82.92393,32.34627-112.13111C105.21633,210.492,118.96959,196.299,133.50579,189.20474Zm3.53609,38.99348C146.03419,186.593,154.916,183.996,155,183.996c0.08691,0,9.28325,2.72075,18.40887,46.31608,6.44023,30.76642,10.68046,72.12857,12.06734,117.32367-0.18265-.09427-0.36678-0.18265-0.54725-0.28283-0.02135-.01252-0.04345-0.0243-0.06554-0.0361a34.64856,34.64856,0,0,0-33.50337.03536,19.5569,19.5569,0,0,1-19.19624-.00074,34.778,34.778,0,0,0-7.52736-3.10228C126.16478,299.30229,130.53756,258.29071,137.04187,228.19821ZM200.25327,348.999c-1.35522-46.74474-5.72948-89.71033-12.42677-121.70455-3.38362-16.16319-7.12522-28.79766-11.32712-38.09491,14.7682,7.20328,28.71591,21.7358,40.577,42.643,17.40646,30.68172,28.822,72.35764,32.37425,117.89888a19.59634,19.59634,0,0,1-11.76168-2.39373,34.19569,34.19569,0,0,0-33.55714,0l-0.04125.02358A19.94714,19.94714,0,0,1,200.25327,348.999ZM121.43919,98.00219a7.98614,7.98614,0,0,1,6.21853-2.90415H182.343a8.11056,8.11056,0,0,1,7.984,9.53514l-1.94886,10.91835h-66.757l-1.94886-10.91835A7.9848,7.9848,0,0,1,121.43919,98.00219Zm2.81207,32.28073h61.49821l-7.38593,41.37836a115.07594,115.07594,0,0,0-46.72707,0ZM93.789,204.09963a159.6137,159.6137,0,0,0-13.072,19.415c-18.5908,32.27778-30.87321,76.09112-34.75179,123.772-0.042.02284-.0847,0.042-0.12668,0.06554a19.56066,19.56066,0,0,1-19.19623,0l-8.093-4.51863C26.96643,281.81995,55.41351,230.81365,93.789,204.09963ZM16.07312,373.14477q0.19-7.27178.75274-14.40362l2.63531,1.47158a34.19191,34.19191,0,0,0,33.563-.0022,19.53237,19.53237,0,0,1,19.13215-.0361c0.02062,0.01178.0464,0.02652,0.0685,0.0383a34.64318,34.64318,0,0,0,33.5586-.00074,19.563,19.563,0,0,1,19.19844,0,34.19521,34.19521,0,0,0,33.56377-.0022,19.81631,19.81631,0,0,1,19.19476,0c0.02135,0.01252.04419,0.0243,0.06629,0.03682a34.19806,34.19806,0,0,0,33.49748-.03241l0.0405-.02284a19.56633,19.56633,0,0,1,19.16972.0221,34.1999,34.1999,0,0,0,33.56817-.00589,19.556,19.556,0,0,1,19.19182,0l10.36153,5.78473c0.123,2.37384.22686,4.75579,0.2902,7.15172H16.07312v0.00076Z" transform="translate(-1.246 -46.12456)"/></svg>