<svg id="Layer_1" data-name="Layer 1" xmlns="http://www.w3.org/2000/svg" viewBox="0 0 21.10906 24"><defs><style>.cls-1{fill:#393;}</style></defs><title>Apparel</title><path class="cls-1" d="M22.355,15.983L19.38547,5.20339a5.23452,5.23452,0,0,0-3.539-3.70172l-1.29858-.3968A0.5385,0.5385,0,0,0,14.44827,1.039L14.138,0.72875A3.3577,3.3577,0,0,0,11.81938.2,3.29487,3.29487,0,0,0,9.50075.7288l-0.30338.30338L7.833,1.461A5.3109,5.3109,0,0,0,4.294,5.16266L1.32449,15.983a1.18931,1.18931,0,0,0,.1627.97627,1.20256,1.20256,0,0,0,.85425.5288L3.92788,17.6915a1.213,1.213,0,0,0,1.34236-.93558L6.816,10.53219l0.5288,4.2712L4.9041,22.85764a0.38725,0.38725,0,0,0,.08138.28477,0.315,0.315,0,0,0,.24408.20339l0.1627,0.04069a24.36872,24.36872,0,0,0,5.20678.77288L11.81938,24.2a26.25829,26.25829,0,0,0,6.42712-.81356h0.20339A0.59784,0.59784,0,0,0,18.694,23.183a0.45888,0.45888,0,0,0,.04069-0.32541L16.294,14.80339l0.5288-4.23052,1.54575,6.183a1.213,1.213,0,0,0,1.34236.93558l1.62713-.1627A1.223,1.223,0,0,0,22.355,15.983ZM9.25667,2.27459l1.848,5.19516,0.30684,0.86934-0.32428.9728L8.6465,6.62712,9.338,4.79661a0.38213,0.38213,0,0,0-.04069-0.36609A0.50233,0.50233,0,0,0,8.972,4.26781H7.75161Zm5.41017,2.03386H14.62616a0.37,0.37,0,0,0-.32541.1627,0.38214,0.38214,0,0,0-.04069.36609l0.73219,1.78983-3.37444,3.65564,0.60834-1.78444a0.25715,0.25715,0,0,0,.01683-0.2025L14.37556,2.293,14.87019,2.9525l0.97631,1.356H14.66685v0ZM10.07024,1.29828a3.23394,3.23394,0,0,1,1.74914-.28477,3.01264,3.01264,0,0,1,1.70845.28477l0.24408,0.24408L11.82177,7.10844,11.16842,5.25734,9.8668,1.54236ZM8.1177,14.96609v-0.1627L7.30414,8.29494A0.36456,0.36456,0,0,0,6.938,7.92884a0.42827,0.42827,0,0,0-.40678.32541L4.45667,16.55253a0.403,0.403,0,0,1-.44747.32541l-1.62713-.20339a0.34257,0.34257,0,0,1-.28477-0.1627,0.43207,0.43207,0,0,1-.04069-0.32541L5.02611,5.36609A4.48682,4.48682,0,0,1,8.03628,2.23391L8.321,2.19322,6.61259,4.4712a0.36627,0.36627,0,0,0-.04069.40678,0.3909,0.3909,0,0,0,.36609.24408H8.40242L7.79225,6.58648a0.38836,0.38836,0,0,0,.08137.40678l2.90273,3.25106-0.50564,1.51692a0.34708,0.34708,0,0,0-.07627.18933l-0.00009.00075-0.00023.00248a0.34527,0.34527,0,0,0-.00187.04284V23.30511a26.1406,26.1406,0,0,1-4.35253-.65086ZM21.46006,16.4712a0.41169,0.41169,0,0,1-.28477.1627l-1.58644.20339a0.44088,0.44088,0,0,1-.44747-0.32541L17.0668,8.21356A0.39612,0.39612,0,0,0,16.66,7.88816a0.4809,0.4809,0,0,0-.36609.36609L15.48036,14.7627a0.2245,0.2245,0,0,0,0,.1627L17.799,22.6542a26.97356,26.97356,0,0,1-5.97966.69155H11.00581V18.09833h0.40678a0.40678,0.40678,0,1,0,.81356,0V17.28477a0.40678,0.40678,0,1,0-.81356,0H11.00581V14.84408h0.40678a0.40678,0.40678,0,1,0,.81356,0V14.03052a0.40678,0.40678,0,1,0-.81356,0H11.00581v-1.8712l4.8-5.20678a0.35786,0.35786,0,0,0,.08137-0.40678L15.277,5.08133h1.42373a0.44564,0.44564,0,0,0,.0585-0.00375l0.00192-.00028a0.36686,0.36686,0,0,0,.04453-0.00914,0.55631,0.55631,0,0,0,.30183-0.23091,0.37411,0.37411,0,0,0-.04069-0.40678L15.39167,2.19688l0.12942,0.037A4.41157,4.41157,0,0,1,18.53126,5.366L21.50075,16.1457A0.30732,0.30732,0,0,1,21.46006,16.4712Z" transform="translate(-1.28519 -0.2)"/></svg>