<svg id="Capa_1" data-name="Capa 1" xmlns="http://www.w3.org/2000/svg" viewBox="0 0 307.02253 365.99902"><defs><style>.cls-1{fill:#393;}</style></defs><title>punjabi</title><path class="cls-1" d="M306.89963,309.75414L300.51822,121.7032a42.50937,42.50937,0,0,0-26.07247-37.70726L249.294,73.51633,229.10969,40.15174A18.05643,18.05643,0,0,0,213.74555,31.49H93.05142A18.05519,18.05519,0,0,0,77.688,40.15175L57.50369,73.51634,32.35122,83.99594A42.51007,42.51007,0,0,0,6.27875,121.70321l-6.38141,188.051a18.051,18.051,0,0,0,7.08338,14.883l-0.8764,18.40292a17.97174,17.97174,0,0,0,9.88485,16.9039l46.10095,23.1259v2.57558A11.8566,11.8566,0,0,0,73.93365,397.489h158.9311a11.8566,11.8566,0,0,0,11.84352-11.84352v-2.57558l46.101-23.1266a17.96935,17.96935,0,0,0,9.88413-16.90318l-0.87641-18.40292A18.05162,18.05162,0,0,0,306.89963,309.75414ZM203.78993,42.95107L155.187,80.33737l-51.40581-37.3863H203.78993ZM87.49423,46.08423a6.09739,6.09739,0,0,1,.37386-0.534L145.7182,87.62377l-8.01839,6.16838L94.6155,66.37434A17.96276,17.96276,0,0,0,78.069,64.94823L75.41338,66.0548ZM17.27947,135.47751a12.59516,12.59516,0,0,1-.80849,23.83216Zm3.848,214.22207a6.50187,6.50187,0,0,1-3.57422-6.11476l0.64908-13.62921,26.32338,10.935L44.3084,348.262a23.85069,23.85069,0,0,0,5.20978,15.68008Zm126.54012,36.32906H73.93294a0.38257,0.38257,0,0,1-.38172-0.38172V373.03923H147.6683v12.98941h-0.00072Zm0-24.45122H68.36716a12.60815,12.60815,0,0,1-12.60268-12.978l3.95594-134.49132h87.94716v147.4693Zm0-158.93108H60.05783l0.38172-12.98942h87.228v12.98942Zm0-24.4505H60.777l0.54543-18.55161a5.73053,5.73053,0,1,0-11.45608-.33813l-4.9796,169.32348L15.35225,316.36072a6.52844,6.52844,0,0,1-4.00026-6.21914L16.07138,171.091a24.067,24.067,0,0,0,1.6084-47.41341l0.05361-1.58624a31.022,31.022,0,0,1,19.027-27.51574l45.7178-19.04914a6.49532,6.49532,0,0,1,5.98466.51612l59.20546,37.67653v64.47673h-0.00071Zm0.31882-77.86,71.04111-54.6469c0.09293,0.13082.19158,0.25591,0.27592,0.39459l12.08085,19.97057-2.65492-1.10658a17.9584,17.9584,0,0,0-16.54648,1.42611l-58.7844,37.407Zm11.143,89.32109H246.3567l0.38172,12.98942h-87.609V189.65691Zm74.11638,195.98928a0.38211,0.38211,0,0,1-.38172.38172H159.12938V373.03851h74.1171v12.60768h-0.00072Zm14.229-27.89389a12.50538,12.50538,0,0,1-9.04562,3.82514H159.12938V214.10813h87.94716l3.95594,134.49131A12.50936,12.50936,0,0,1,247.47471,357.7523Zm38.19407-8.05344-28.39072,14.24182a23.85133,23.85133,0,0,0,5.20977-15.67936l-0.2173-7.37147,26.32339-10.935,0.64837,13.62921A6.49628,6.49628,0,0,1,285.66878,349.69886Zm5.77595-33.33814-29.53447,12.26885L256.92993,159.3061a5.73053,5.73053,0,1,0-11.45608.33813L246.02,178.19583H159.12938v-64.476l59.20618-37.67653a6.49917,6.49917,0,0,1,5.98467-.51612l45.71709,19.04914a31.0206,31.0206,0,0,1,19.02554,27.51575l6.38141,188.05024A6.52544,6.52544,0,0,1,291.44472,316.36072Z" transform="translate(0.11278 -31.48999)"/><path class="cls-1" d="M164.3799,181.545a5.73366,5.73366,0,0,0-7.24923,3.62426L138.7928,240.1836a5.731,5.731,0,1,0,10.87348,3.62568L168.00415,188.795A5.73153,5.73153,0,0,0,164.3799,181.545Z" transform="translate(0.11278 -31.48999)"/><path class="cls-1" d="M168.00452,240.1841l-18.33788-55.01433a5.73124,5.73124,0,0,0-10.8742,3.625l18.33786,55.01433A5.73125,5.73125,0,0,0,168.00452,240.1841Z" transform="translate(0.11278 -31.48999)"/></svg>